<svg width="24" height="24" viewBox="0 0 24 24" fill="none" xmlns="http://www.w3.org/2000/svg">
<g id="Solid/Navigation/Achievement">
<path id="Union" fill-rule="evenodd" clip-rule="evenodd" d="M4.12502 9.92969C4.11168 6.3749 6.61092 3.16126 10.1065 2.23783C14.0609 1.19339 18.3663 3.69112 19.5593 7.72149C20.1179 9.60935 19.8351 12.0869 18.8615 13.8299L18.4353 14.5935L19.7164 16.9605C20.4211 18.2624 20.9988 19.4454 21.0002 19.5894C21.0042 19.988 20.5113 20.1674 19.4126 20.1674H18.4161L17.8514 21.0923C17.3667 21.8863 17.2303 22.0105 16.8873 21.9704C16.5432 21.9302 16.3272 21.6208 15.3349 19.7469L14.1823 17.5702L13.6406 17.6853C13.0244 17.8163 11.243 17.8373 10.3519 17.7239L9.75297 17.6477L8.59626 19.8238C7.63484 21.6324 7.38141 22 7.09591 22C6.72812 22 6.37548 21.6284 5.88975 20.7293L5.58611 20.1674H4.494C3.60526 20.1674 3.35093 20.1119 3.13032 19.8692C2.86805 19.5809 2.90327 19.4881 4.18437 17.0822L5.50967 14.5935L4.97553 13.4482C4.32749 12.0585 4.13011 11.242 4.12502 9.92969ZM12.3806 6.1708L13.033 8.1785C13.0865 8.34331 13.2401 8.45489 13.4134 8.45489H15.5244C15.9119 8.45489 16.073 8.95074 15.7595 9.1785L14.0517 10.4193C13.9115 10.5212 13.8528 10.7017 13.9064 10.8665L14.5587 12.8742C14.6784 13.2428 14.2567 13.5492 13.9432 13.3215L12.2353 12.0806C12.0951 11.9788 11.9053 11.9788 11.7651 12.0806L10.0572 13.3215C9.74375 13.5492 9.32196 13.2428 9.4417 12.8742L10.094 10.8665C10.1476 10.7017 10.0889 10.5212 9.94873 10.4193L8.24088 9.1785C7.92739 8.95074 8.0885 8.45489 8.47599 8.45489H10.587C10.7603 8.45489 10.9139 8.34331 10.9674 8.1785L11.6198 6.1708C11.7395 5.80227 12.2609 5.80227 12.3806 6.1708Z" fill="#3F3F3F"/>
</g>
</svg>
