<svg width="32" height="14" viewBox="0 0 32 14" fill="none" xmlns="http://www.w3.org/2000/svg">
<rect x="1.23071" width="30.7692" height="14" rx="4" fill="#FFBC20"/>
<path d="M14.0441 7.724L12.9881 4.838C12.9361 4.71 12.8821 4.558 12.8261 4.382C12.7701 4.206 12.7141 4.016 12.6581 3.812C12.6061 4.016 12.5521 4.208 12.4961 4.388C12.4401 4.564 12.3861 4.718 12.3341 4.85L11.2841 7.724H14.0441ZM16.8941 11H15.6461C15.5061 11 15.3921 10.966 15.3041 10.898C15.2161 10.826 15.1501 10.738 15.1061 10.634L14.4581 8.864H10.8641L10.2161 10.634C10.1841 10.726 10.1221 10.81 10.0301 10.886C9.93814 10.962 9.82414 11 9.68814 11H8.42814L11.8421 2.324H13.4861L16.8941 11ZM21.2933 6.416C21.1253 6.212 20.9413 6.068 20.7413 5.984C20.5453 5.9 20.3333 5.858 20.1053 5.858C19.8813 5.858 19.6793 5.9 19.4993 5.984C19.3193 6.068 19.1653 6.196 19.0373 6.368C18.9093 6.536 18.8113 6.752 18.7433 7.016C18.6753 7.276 18.6413 7.584 18.6413 7.94C18.6413 8.3 18.6693 8.606 18.7253 8.858C18.7853 9.106 18.8693 9.31 18.9773 9.47C19.0853 9.626 19.2173 9.74 19.3733 9.812C19.5293 9.88 19.7033 9.914 19.8953 9.914C20.2033 9.914 20.4653 9.85 20.6813 9.722C20.8973 9.594 21.1013 9.412 21.2933 9.176V6.416ZM22.7753 2.084V11H21.8693C21.6733 11 21.5493 10.91 21.4973 10.73L21.3713 10.136C21.1233 10.42 20.8373 10.65 20.5133 10.826C20.1933 11.002 19.8193 11.09 19.3913 11.09C19.0553 11.09 18.7473 11.02 18.4673 10.88C18.1873 10.74 17.9453 10.538 17.7413 10.274C17.5413 10.006 17.3853 9.676 17.2733 9.284C17.1653 8.892 17.1113 8.444 17.1113 7.94C17.1113 7.484 17.1733 7.06 17.2973 6.668C17.4213 6.276 17.5993 5.936 17.8313 5.648C18.0633 5.36 18.3413 5.136 18.6653 4.976C18.9893 4.812 19.3533 4.73 19.7573 4.73C20.1013 4.73 20.3953 4.784 20.6393 4.892C20.8833 5 21.1013 5.146 21.2933 5.33V2.084H22.7753Z" fill="white"/>
</svg>
