<svg width="24" height="24" viewBox="0 0 24 24" fill="none" xmlns="http://www.w3.org/2000/svg">
<path d="M19.3572 6.85714V6.35714H18.8572H5.14287H4.64287V6.85714V10.2857V10.7857H5.14287H18.8572H19.3572V10.2857V6.85714ZM3.92859 6.85714C3.92859 6.18652 4.47225 5.64285 5.14287 5.64285H18.8572C19.5278 5.64285 20.0714 6.18649 20.0714 6.85714V10.2857C20.0714 10.9563 19.5278 11.5 18.8572 11.5H5.14287C4.47225 11.5 3.92859 10.9563 3.92859 10.2857V6.85714Z" fill="#717171" stroke="#717171"/>
<path d="M15.4286 14.9286H14.9286V15.4286V17.1429V17.6429H15.4286H18.8572H19.3572V17.1429V15.4286V14.9286H18.8572H15.4286ZM14.2143 15.4286C14.2143 14.7579 14.7579 14.2143 15.4286 14.2143H18.8572C19.5278 14.2143 20.0714 14.7579 20.0714 15.4286V17.1429C20.0714 17.8135 19.5278 18.3572 18.8572 18.3572H15.4286C14.7579 18.3572 14.2143 17.8135 14.2143 17.1429V15.4286Z" fill="#717171" stroke="#717171"/>
<path d="M3.92859 14.5714C3.92859 14.3742 4.08852 14.2143 4.28573 14.2143H11.1429C11.3401 14.2143 11.5 14.3742 11.5 14.5714C11.5 14.7686 11.3401 14.9286 11.1429 14.9286H4.28573C4.08852 14.9286 3.92859 14.7686 3.92859 14.5714Z" fill="#717171" stroke="#717171"/>
<path d="M3.92859 18C3.92859 17.8028 4.08852 17.6429 4.28573 17.6429H11.1429C11.3401 17.6429 11.5 17.8028 11.5 18C11.5 18.1972 11.3401 18.3571 11.1429 18.3571H4.28573C4.08852 18.3571 3.92859 18.1972 3.92859 18Z" fill="#717171" stroke="#717171"/>
<path d="M0.5 5.14286C0.5 2.57869 2.57869 0.5 5.14286 0.5H18.8571C21.4214 0.5 23.5 2.57868 23.5 5.14286V18.8571C23.5 21.4214 21.4214 23.5 18.8571 23.5H5.14286C2.57868 23.5 0.5 21.4214 0.5 18.8571V5.14286ZM5.14286 1.21429C2.97317 1.21429 1.21429 2.97317 1.21429 5.14286V18.8571C1.21429 21.0269 2.97317 22.7857 5.14286 22.7857H18.8571C21.0269 22.7857 22.7857 21.0269 22.7857 18.8571V5.14286C22.7857 2.97317 21.0269 1.21429 18.8571 1.21429H5.14286Z" fill="#717171" stroke="#717171"/>
</svg>
