<svg width="32" height="32" viewBox="0 0 32 32" fill="none" xmlns="http://www.w3.org/2000/svg">
<path d="M16 3.43799L15.219 4.37499C15.219 4.37499 13.219 6.78499 11.188 9.78099C10.172 11.281 9.125 12.918 8.344 14.5C7.563 16.082 7 17.598 7 19C7 23.945 11.055 28 16 28C20.945 28 25 23.945 25 19C25 17.598 24.437 16.082 23.656 14.5C22.875 12.918 21.828 11.281 20.813 9.78099C18.781 6.78499 16.781 4.37499 16.781 4.37499L16 3.43799ZM16 6.65599C16.559 7.34799 17.605 8.57399 19.188 10.906C20.172 12.356 21.125 13.953 21.844 15.406C22.562 16.86 23 18.203 23 19C23 22.855 19.855 26 16 26C12.145 26 9 22.855 9 19C9 18.203 9.438 16.86 10.156 15.406C10.875 13.953 11.828 12.356 12.812 10.906C14.395 8.57399 15.442 7.34799 16 6.65599ZM11 19C11 21.746 13.254 24 16 24V22C15.2044 22 14.4413 21.6839 13.8787 21.1213C13.3161 20.5587 13 19.7956 13 19H11Z" fill="#D9DDE3"/>
</svg>
