<svg id="Livello_1" data-name="Livello 1" xmlns="http://www.w3.org/2000/svg" viewBox="0 0 209.53 257.35"><path d="M202.84,87.74c-1.49,1.16-27.85,16-27.85,49,0,38.2,33.54,51.71,34.54,52a134.74,134.74,0,0,1-17.68,36.52c-11,15.86-22.52,31.69-40,31.69s-22-10.17-42.21-10.17c-19.69,0-26.69,10.5-42.7,10.5s-27.18-14.67-40-32.68C12,203.51,0,170.64,0,139.45c0-50,32.53-76.57,64.55-76.57,17,0,31.19,11.17,41.88,11.17,10.16,0,26-11.84,45.37-11.84C159.14,62.21,185.49,62.88,202.84,87.74ZM142.61,41c8-9.5,13.67-22.68,13.67-35.86A24.35,24.35,0,0,0,155.79,0c-13,.49-28.52,8.67-37.86,19.51C110.6,27.85,103.75,41,103.75,54.38a23.14,23.14,0,0,0,.49,4.66,19.49,19.49,0,0,0,3.5.34C119.42,59.38,134.12,51.55,142.61,41Z" transform="translate(0 0)"/></svg>