<svg width="24" height="25" viewBox="0 0 24 25" fill="none" xmlns="http://www.w3.org/2000/svg">
<g id="Solid/Navigation/Up">
<path id="Vector" d="M10.7577 6.53166L4.20728 17.467C4.07222 17.7009 4.00076 17.9661 4.00001 18.2361C3.99925 18.5062 4.06922 18.7718 4.20297 19.0064C4.33671 19.2411 4.52956 19.4366 4.76232 19.5735C4.99509 19.7105 5.25967 19.7841 5.52973 19.7871H18.6305C18.9006 19.7841 19.1651 19.7105 19.3979 19.5735C19.6307 19.4366 19.8235 19.2411 19.9573 19.0064C20.091 18.7718 20.161 18.5062 20.1602 18.2361C20.1595 17.9661 20.088 17.7009 19.953 17.467L13.4026 6.53166C13.2647 6.30437 13.0706 6.11646 12.8389 5.98604C12.6073 5.85562 12.3459 5.78711 12.0801 5.78711C11.8143 5.78711 11.5529 5.85562 11.3213 5.98604C11.0897 6.11646 10.8955 6.30437 10.7577 6.53166Z" fill="#01864E"/>
</g>
</svg>
