<svg width="24" height="25" viewBox="0 0 24 25" fill="none" xmlns="http://www.w3.org/2000/svg">
<g id="Solid/Navigation/Down">
<path id="Vector" d="M13.2423 19.0426L19.7927 8.1072C19.9278 7.87332 19.9992 7.60815 20 7.33808C20.0008 7.068 19.9308 6.80244 19.797 6.5678C19.6633 6.33317 19.4704 6.13764 19.2377 6.00067C19.0049 5.86371 18.7403 5.79008 18.4703 5.78711L5.3695 5.78711C5.09944 5.79008 4.83487 5.86371 4.6021 6.00067C4.36933 6.13764 4.17648 6.33317 4.04274 6.5678C3.909 6.80244 3.83902 7.068 3.83978 7.33808C3.84054 7.60815 3.91199 7.87332 4.04705 8.1072L10.5974 19.0426C10.7353 19.2698 10.9294 19.4578 11.1611 19.5882C11.3927 19.7186 11.6541 19.7871 11.9199 19.7871C12.1857 19.7871 12.4471 19.7186 12.6787 19.5882C12.9103 19.4578 13.1045 19.2698 13.2423 19.0426Z" fill="#E6094B"/>
</g>
</svg>
