<svg width="20" height="20" viewBox="0 0 20 20" fill="none" xmlns="http://www.w3.org/2000/svg">
<path d="M19 9.43839L10.49 17.4644C9.44748 18.4476 8.03349 19 6.55912 19C5.08475 19 3.67077 18.4476 2.62823 17.4644C1.58569 16.4811 1 15.1476 1 13.7571C1 12.3665 1.58569 11.033 2.62823 10.0497L11.1382 2.02375C11.8332 1.36825 12.7759 1 13.7588 1C14.7417 1 15.6844 1.36825 16.3794 2.02375C17.0744 2.67924 17.4649 3.56829 17.4649 4.4953C17.4649 5.42231 17.0744 6.31135 16.3794 6.96685L7.86016 14.9928C7.51265 15.3206 7.04132 15.5047 6.54986 15.5047C6.0584 15.5047 5.58708 15.3206 5.23956 14.9928C4.89205 14.6651 4.69682 14.2206 4.69682 13.7571C4.69682 13.2935 4.89205 12.849 5.23956 12.5213L13.1013 5.11537" stroke="#717171" stroke-width="2" stroke-linecap="round" stroke-linejoin="round"/>
</svg>
