<svg width="96" height="96" viewBox="0 0 96 96" fill="none" xmlns="http://www.w3.org/2000/svg">
<g clip-path="url(#clip0_586_15446)">
<circle cx="48" cy="48" r="48" fill="#E8E8E8"/>
<path d="M48 26C50.9174 26 53.7153 27.1589 55.7782 29.2218C57.8411 31.2847 59 34.0826 59 37C59 39.9174 57.8411 42.7153 55.7782 44.7782C53.7153 46.8411 50.9174 48 48 48C45.0826 48 42.2847 46.8411 40.2218 44.7782C38.1589 42.7153 37 39.9174 37 37C37 34.0826 38.1589 31.2847 40.2218 29.2218C42.2847 27.1589 45.0826 26 48 26ZM48 53.5C60.155 53.5 70 58.4225 70 64.5V70H26V64.5C26 58.4225 35.845 53.5 48 53.5Z" fill="#CECECE"/>
</g>
<defs>
<clipPath id="clip0_586_15446">
<rect width="96" height="96" fill="white"/>
</clipPath>
</defs>
</svg>
