<svg width="33" height="34" viewBox="0 0 33 34" fill="none" xmlns="http://www.w3.org/2000/svg">
<g id="line">
<path id="Vector" d="M16.4993 32.3332C24.9677 32.3332 31.8327 25.4682 31.8327 16.9998C31.8327 8.53147 24.9677 1.6665 16.4993 1.6665C8.03098 1.6665 1.16602 8.53147 1.16602 16.9998C1.16602 25.4682 8.03098 32.3332 16.4993 32.3332Z" stroke="#9B9B9B" stroke-width="2" stroke-miterlimit="10"/>
<path id="Vector_2" d="M12.5 13.6665C12.5 14.771 11.6035 15.6665 10.5 15.6665C9.39647 15.6665 8.5 14.771 8.5 13.6665C8.5 12.563 9.39647 11.6665 10.5 11.6665C11.6035 11.6665 12.5 12.563 12.5 13.6665Z" fill="#9B9B9B"/>
<path id="Vector_3" d="M24.5 13.6665C24.5 14.771 23.6035 15.6665 22.5 15.6665C21.3965 15.6665 20.5 14.771 20.5 13.6665C20.5 12.563 21.3965 11.6665 22.5 11.6665C23.6035 11.6665 24.5 12.563 24.5 13.6665Z" fill="#9B9B9B"/>
<path id="Vector_4" d="M11.166 23.6664C12.2197 21.9614 14.4355 20.9098 16.7801 20.9972C18.9326 21.0775 20.8741 22.1061 21.8327 23.6664" stroke="#9B9B9B" stroke-width="2" stroke-miterlimit="10" stroke-linecap="round" stroke-linejoin="round"/>
</g>
</svg>
