<svg width="33" height="33" viewBox="0 0 33 33" fill="none" xmlns="http://www.w3.org/2000/svg">
<path d="M16.3333 1C7.87847 1 1 7.87847 1 16.3333C1 24.7881 7.87847 31.6667 16.3333 31.6667C24.7881 31.6667 31.6667 24.7881 31.6667 16.3333C31.6667 7.87847 24.7881 1 16.3333 1Z" fill="#FCEA2B"/>
<path fill-rule="evenodd" clip-rule="evenodd" d="M16.3333 2C8.41725 2 2 8.41725 2 16.3333C2 24.2494 8.41725 30.6667 16.3333 30.6667C24.2494 30.6667 30.6667 24.2494 30.6667 16.3333C30.6667 8.41725 24.2494 2 16.3333 2ZM0 16.3333C0 7.31268 7.31268 0 16.3333 0C25.354 0 32.6667 7.31268 32.6667 16.3333C32.6667 25.354 25.354 32.6667 16.3333 32.6667C7.31268 32.6667 0 25.354 0 16.3333Z" fill="black"/>
<path d="M12.3333 13C12.3333 14.1045 11.4368 15 10.3333 15C9.2298 15 8.33333 14.1045 8.33333 13C8.33333 11.8965 9.2298 11 10.3333 11C11.4368 11 12.3333 11.8965 12.3333 13Z" fill="black"/>
<path d="M24.3333 13C24.3333 14.1045 23.4369 15 22.3333 15C21.2298 15 20.3333 14.1045 20.3333 13C20.3333 11.8965 21.2298 11 22.3333 11C23.4369 11 24.3333 11.8965 24.3333 13Z" fill="black"/>
<path fill-rule="evenodd" clip-rule="evenodd" d="M16.5768 21.3301C14.5176 21.2533 12.679 22.1853 11.8507 23.5257C11.5603 23.9955 10.9441 24.141 10.4743 23.8507C10.0045 23.5603 9.859 22.9441 10.1493 22.4743C11.4283 20.4047 14.0215 19.2335 16.6513 19.3315C19.0716 19.4217 21.3531 20.5791 22.5187 22.4766C22.8078 22.9471 22.6607 23.563 22.1901 23.8521C21.7195 24.1412 21.1037 23.994 20.8146 23.5234C20.0632 22.3002 18.4616 21.4004 16.5768 21.3301Z" fill="black"/>
</svg>
