<svg width="16" height="16" viewBox="0 0 16 16" fill="none" xmlns="http://www.w3.org/2000/svg">
<path d="M15.5 5.5C15.7761 5.5 16 5.27612 16 5V2.5C16 2.27347 15.8477 2.07525 15.6288 2.01687L8.12884 0.016875C8.04444 -0.005625 7.95559 -0.005625 7.87119 0.016875L0.371187 2.01687C0.152312 2.07525 0 2.27347 0 2.5V5C0 5.27612 0.223875 5.5 0.5 5.5H1.5V15H0.5C0.223875 15 0 15.2239 0 15.5C0 15.7761 0.223875 16 0.5 16H15.5C15.7761 16 16 15.7761 16 15.5C16 15.2239 15.7761 15 15.5 15H14.5V5.5H15.5ZM1 2.88412L8 1.01747L15 2.88412V4.5H1V2.88412ZM6.25 5.5V15H4.75V5.5H6.25ZM7.25 5.5H8.75V15H7.25V5.5ZM9.75 5.5H11.25V15H9.75V5.5ZM2.5 5.5H3.75V15H2.5V5.5ZM13.5 15H12.25V5.5H13.5V15Z" fill="#717171"/>
</svg>
