<svg width="32" height="32" viewBox="0 0 32 32" fill="none" xmlns="http://www.w3.org/2000/svg">
<path d="M17.3327 4.00002C17.3327 3.26364 16.7357 2.66669 15.9993 2.66669C15.263 2.66669 14.666 3.26364 14.666 4.00002V6.66669C14.666 7.40307 15.263 8.00002 15.9993 8.00002C16.7357 8.00002 17.3327 7.40307 17.3327 6.66669V4.00002Z" fill="#D9DDE3"/>
<path d="M23.6088 10.2762L24.9422 8.94283C25.4629 8.42213 25.4629 7.57791 24.9422 7.05721C24.4215 6.53651 23.5772 6.53651 23.0565 7.05721L21.7232 8.39054C21.2025 8.91124 21.2025 9.75546 21.7232 10.2762C22.2439 10.7969 23.0881 10.7969 23.6088 10.2762Z" fill="#D9DDE3"/>
<path fill-rule="evenodd" clip-rule="evenodd" d="M9.33268 16C9.33268 12.3181 12.3175 9.33335 15.9993 9.33335C19.6812 9.33335 22.666 12.3181 22.666 16C22.666 19.6819 19.6812 22.6667 15.9993 22.6667C12.3175 22.6667 9.33268 19.6819 9.33268 16ZM15.9993 12C13.7902 12 11.9993 13.7909 11.9993 16C11.9993 18.2092 13.7902 20 15.9993 20C18.2085 20 19.9993 18.2092 19.9993 16C19.9993 13.7909 18.2085 12 15.9993 12Z" fill="#D9DDE3"/>
<path d="M15.9993 24C16.7357 24 17.3327 24.597 17.3327 25.3334V28C17.3327 28.7364 16.7357 29.3334 15.9993 29.3334C15.263 29.3334 14.666 28.7364 14.666 28V25.3334C14.666 24.597 15.263 24 15.9993 24Z" fill="#D9DDE3"/>
<path d="M24.9422 23.0572L23.6088 21.7239C23.0881 21.2032 22.2439 21.2032 21.7232 21.7239C21.2025 22.2446 21.2025 23.0888 21.7232 23.6095L23.0565 24.9428C23.5772 25.4635 24.4215 25.4635 24.9422 24.9428C25.4629 24.4221 25.4629 23.5779 24.9422 23.0572Z" fill="#D9DDE3"/>
<path d="M10.2755 21.7239C10.7962 22.2446 10.7962 23.0888 10.2755 23.6095L8.94216 24.9428C8.42146 25.4635 7.57724 25.4635 7.05654 24.9428C6.53584 24.4221 6.53584 23.5779 7.05654 23.0572L8.38987 21.7239C8.91057 21.2032 9.75479 21.2032 10.2755 21.7239Z" fill="#D9DDE3"/>
<path d="M25.3327 14.6667C24.5963 14.6667 23.9993 15.2636 23.9993 16C23.9993 16.7364 24.5963 17.3334 25.3327 17.3334H27.9993C28.7357 17.3334 29.3327 16.7364 29.3327 16C29.3327 15.2636 28.7357 14.6667 27.9993 14.6667H25.3327Z" fill="#D9DDE3"/>
<path d="M2.66602 16C2.66602 15.2636 3.26297 14.6667 3.99935 14.6667H6.66602C7.4024 14.6667 7.99935 15.2636 7.99935 16C7.99935 16.7364 7.4024 17.3334 6.66602 17.3334H3.99935C3.26297 17.3334 2.66602 16.7364 2.66602 16Z" fill="#D9DDE3"/>
<path d="M7.05654 7.05721C7.57724 6.53651 8.42146 6.53651 8.94216 7.05721L10.2755 8.39054C10.7962 8.91124 10.7962 9.75546 10.2755 10.2762C9.75479 10.7969 8.91057 10.7969 8.38987 10.2762L7.05654 8.94283C6.53584 8.42213 6.53584 7.57791 7.05654 7.05721Z" fill="#D9DDE3"/>
</svg>
