<svg width="28" height="24" viewBox="0 0 28 24" fill="none" xmlns="http://www.w3.org/2000/svg">
    <path d="M14 9.3335L12.7467 12.0802L10 13.3335L12.7467 14.5868L14 17.3335L15.2533 14.5868L18 13.3335L15.2533 12.0802L14 9.3335Z" fill="#C1C1C1"/>
    <path d="M24.6665 2.66667H20.4398L17.9998 0H9.99984L7.55984 2.66667H3.33317C2.62658 2.66878 1.94952 2.95041 1.44988 3.45005C0.950244 3.94969 0.668614 4.62674 0.666504 5.33333V21.3333C0.668614 22.0399 0.950244 22.717 1.44988 23.2166C1.94952 23.7163 2.62658 23.9979 3.33317 24H24.6665C25.3731 23.9979 26.0501 23.7163 26.5498 23.2166C27.0494 22.717 27.3311 22.0399 27.3332 21.3333V5.33333C27.3311 4.62674 27.0494 3.94969 26.5498 3.45005C26.0501 2.95041 25.3731 2.66878 24.6665 2.66667ZM24.6665 21.3333H3.33317V5.33333H8.73317L9.51984 4.46667L11.1732 2.66667H16.8265L18.4798 4.46667L19.2665 5.33333H24.6665V21.3333Z" fill="#C1C1C1"/>
    <path d="M13.9997 6.66675C12.6811 6.66675 11.3922 7.05774 10.2959 7.79028C9.19955 8.52283 8.34506 9.56402 7.84048 10.7822C7.3359 12.0004 7.20387 13.3408 7.46111 14.634C7.71834 15.9272 8.35328 17.1151 9.28563 18.0475C10.218 18.9798 11.4059 19.6147 12.6991 19.872C13.9923 20.1292 15.3327 19.9972 16.5509 19.4926C17.7691 18.988 18.8103 18.1335 19.5428 17.0372C20.2754 15.9409 20.6663 14.652 20.6663 13.3334C20.6663 11.5653 19.964 9.86961 18.7137 8.61937C17.4635 7.36913 15.7678 6.66675 13.9997 6.66675ZM13.9997 17.3334C13.2086 17.3334 12.4352 17.0988 11.7774 16.6593C11.1196 16.2198 10.6069 15.5951 10.3042 14.8641C10.0014 14.1332 9.92219 13.329 10.0765 12.5531C10.2309 11.7771 10.6118 11.0644 11.1712 10.505C11.7307 9.94558 12.4434 9.56461 13.2193 9.41027C13.9952 9.25593 14.7995 9.33515 15.5304 9.6379C16.2613 9.94065 16.886 10.4533 17.3256 11.1111C17.7651 11.7689 17.9997 12.5423 17.9997 13.3334C17.9965 14.3933 17.5741 15.4089 16.8246 16.1583C16.0751 16.9078 15.0596 17.3302 13.9997 17.3334Z" fill="#C1C1C1"/>
</svg>
