<svg width="25" height="24" viewBox="0 0 25 24" fill="none" xmlns="http://www.w3.org/2000/svg">
<path d="M19.5 21C20.0523 21 20.5 20.5523 20.5 20C20.5 19.4477 20.0523 19 19.5 19C18.9477 19 18.5 19.4477 18.5 20C18.5 20.5523 18.9477 21 19.5 21Z" stroke="white" stroke-width="2" stroke-linecap="round" stroke-linejoin="round"/>
<path d="M9.5 21C10.0523 21 10.5 20.5523 10.5 20C10.5 19.4477 10.0523 19 9.5 19C8.94772 19 8.5 19.4477 8.5 20C8.5 20.5523 8.94772 21 9.5 21Z" stroke="white" stroke-width="2" stroke-linecap="round" stroke-linejoin="round"/>
<path d="M3.5 4H6.77273L8.96545 14.7117C9.04027 15.08 9.2452 15.4109 9.54436 15.6464C9.84351 15.8818 10.2178 16.0069 10.6018 15.9997H18.5545C18.9385 16.0069 19.3129 15.8818 19.612 15.6464C19.9112 15.4109 20.1161 15.08 20.1909 14.7117L21.5 7.9999H7.59091" stroke="white" stroke-width="2" stroke-linecap="round" stroke-linejoin="round"/>
</svg>
