<svg width="24" height="24" viewBox="0 0 24 24" fill="none" xmlns="http://www.w3.org/2000/svg">
<g filter="url(#filter0_d_5618_6604)">
<path fill-rule="evenodd" clip-rule="evenodd" d="M16.7826 19.4348C16.7826 18.4263 17.6001 17.6087 18.6087 17.6087C19.6172 17.6087 20.4347 18.4263 20.4347 19.4348C20.4347 20.4433 19.6172 21.2609 18.6087 21.2609C17.6001 21.2609 16.7826 20.4433 16.7826 19.4348Z" fill="white"/>
<path fill-rule="evenodd" clip-rule="evenodd" d="M7.65213 19.4348C7.65213 18.4263 8.4697 17.6087 9.47822 17.6087C10.4867 17.6087 11.3043 18.4263 11.3043 19.4348C11.3043 20.4433 10.4867 21.2609 9.47822 21.2609C8.4697 21.2609 7.65213 20.4433 7.65213 19.4348Z" fill="white"/>
<path fill-rule="evenodd" clip-rule="evenodd" d="M3.08691 4.82613C3.08691 4.32187 3.4957 3.91309 3.99996 3.91309H6.9881C7.42178 3.91309 7.79562 4.21815 7.8826 4.64302L8.48077 7.56517H20.4347C20.7075 7.56517 20.966 7.68713 21.1395 7.89767C21.3129 8.10821 21.3831 8.38527 21.3309 8.653L20.1343 14.7882C20.0223 15.3395 19.7164 15.8303 19.2756 16.1772C18.8378 16.5218 18.2938 16.7037 17.7379 16.6954H10.4918C9.93585 16.7037 9.3918 16.5218 8.95401 16.1772C8.51345 15.8305 8.20764 15.3399 8.09553 14.7889L6.84865 8.69772C6.84288 8.67433 6.83801 8.65059 6.83408 8.62654L6.24303 5.73917H3.99996C3.4957 5.73917 3.08691 5.33039 3.08691 4.82613ZM8.85457 9.39126L9.88492 14.4246C9.90955 14.5459 9.97788 14.6592 10.0834 14.7423C10.1894 14.8257 10.3252 14.8722 10.4671 14.8695L10.4842 14.8693H17.7454L17.7625 14.8695C17.9044 14.8722 18.0402 14.8257 18.1462 14.7423C18.251 14.6598 18.3191 14.5475 18.3442 14.4272L19.3264 9.39126H8.85457Z" fill="white"/>
</g>
<defs>
<filter id="filter0_d_5618_6604" x="-4.91309" y="-2.08691" width="34.2607" height="33.3478" filterUnits="userSpaceOnUse" color-interpolation-filters="sRGB">
<feFlood flood-opacity="0" result="BackgroundImageFix"/>
<feColorMatrix in="SourceAlpha" type="matrix" values="0 0 0 0 0 0 0 0 0 0 0 0 0 0 0 0 0 0 127 0" result="hardAlpha"/>
<feOffset dy="2"/>
<feGaussianBlur stdDeviation="4"/>
<feComposite in2="hardAlpha" operator="out"/>
<feColorMatrix type="matrix" values="0 0 0 0 0 0 0 0 0 0 0 0 0 0 0 0 0 0 0.3 0"/>
<feBlend mode="normal" in2="BackgroundImageFix" result="effect1_dropShadow_5618_6604"/>
<feBlend mode="normal" in="SourceGraphic" in2="effect1_dropShadow_5618_6604" result="shape"/>
</filter>
</defs>
</svg>
