<svg width="36" height="36" viewBox="0 0 36 36" fill="none" xmlns="http://www.w3.org/2000/svg">
<rect width="36" height="36" rx="18" fill="black" fill-opacity="0.67"/>
<path fill-rule="evenodd" clip-rule="evenodd" d="M25.6641 9.22514C25.8771 9.40564 26 9.67075 26 9.95001V22.3C26 24.3987 24.2987 26.1 22.2 26.1C20.1013 26.1 18.4 24.3987 18.4 22.3C18.4 20.2013 20.1013 18.5 22.2 18.5C22.8921 18.5 23.5411 18.6851 24.1 19.0084V11.0714L14.6 12.6548V24.2C14.6 26.2987 12.8987 28 10.8 28C8.70132 28 7 26.2987 7 24.2C7 22.1013 8.70132 20.4 10.8 20.4C11.4921 20.4 12.1411 20.5851 12.7 20.9084V11.85C12.7 11.3856 13.0357 10.9893 13.4938 10.9129L24.8938 9.01293C25.1693 8.96702 25.451 9.04463 25.6641 9.22514ZM12.7 24.2C12.7 23.1507 11.8493 22.3 10.8 22.3C9.75066 22.3 8.9 23.1507 8.9 24.2C8.9 25.2493 9.75066 26.1 10.8 26.1C11.8493 26.1 12.7 25.2493 12.7 24.2ZM24.1 22.3C24.1 21.2507 23.2493 20.4 22.2 20.4C21.1507 20.4 20.3 21.2507 20.3 22.3C20.3 23.3493 21.1507 24.2 22.2 24.2C23.2493 24.2 24.1 23.3493 24.1 22.3Z" fill="white"/>
</svg>
