<svg width="36" height="36" viewBox="0 0 36 36" fill="none" xmlns="http://www.w3.org/2000/svg">
<rect width="36" height="36" rx="18" fill="black" fill-opacity="0.5"/>
<path fill-rule="evenodd" clip-rule="evenodd" d="M13.9124 11.8983C13.7734 12.3964 13.5157 12.8795 13.1543 13.2921C12.7359 13.7696 12.2137 14.1141 11.6276 14.2547L13.9124 11.8983ZM10.192 16.249C11.9876 16.584 13.6059 15.8117 14.6586 14.6101C15.6607 13.4662 16.2356 11.8382 15.9685 10.26C16.6165 10.0904 17.2971 10 18 10C22.4183 10 26 13.5817 26 18C26 22.4183 22.4183 26 18 26C13.5817 26 10 22.4183 10 18C10 17.3978 10.0664 16.8119 10.192 16.249ZM14.3769 8.67681C15.5016 8.23947 16.724 8 18 8C23.5228 8 28 12.4772 28 18C28 23.5228 23.5228 28 18 28C12.4772 28 8 23.5228 8 18C8 16.833 8.20032 15.7106 8.56928 14.6668C8.61725 14.531 8.69397 14.4072 8.79418 14.3039L14.0214 8.91272C14.1216 8.80943 14.2428 8.72896 14.3769 8.67681ZM18.5183 14.437C18.851 14.2992 19.2075 14.2282 19.5676 14.2282C19.9277 14.2282 20.2842 14.2992 20.6169 14.437C20.9494 14.5748 21.2515 14.7767 21.506 15.0312C21.7605 15.2857 21.9628 15.5882 22.1006 15.9207C22.2384 16.2533 22.3094 16.6099 22.3094 16.97C22.3094 17.3301 22.2384 17.6866 22.1006 18.0193C21.9628 18.3519 21.7608 18.654 21.5062 18.9086C21.5061 18.9086 21.5062 18.9085 21.5062 18.9086L18.7076 21.7071C18.5201 21.8946 18.2658 22 18.0005 22C17.7353 22 17.481 21.8946 17.2934 21.7071L14.4949 18.9086C13.9807 18.3944 13.6919 17.6971 13.6919 16.97C13.6919 16.2429 13.9807 15.5455 14.4949 15.0314C15.009 14.5172 15.7064 14.2284 16.4335 14.2284C16.9976 14.2284 17.5439 14.4023 18.0005 14.7203C18.162 14.6078 18.3356 14.5127 18.5183 14.437ZM19.5676 16.2282C19.4702 16.2282 19.3738 16.2474 19.2839 16.2847C19.1939 16.3219 19.1122 16.3766 19.0434 16.4454L18.7076 16.7812C18.3171 17.1717 17.684 17.1717 17.2934 16.7812L16.9579 16.4456C16.8188 16.3065 16.6302 16.2284 16.4335 16.2284C16.2368 16.2284 16.0482 16.3065 15.9091 16.4456C15.77 16.5847 15.6919 16.7733 15.6919 16.97C15.6919 17.1666 15.77 17.3553 15.9091 17.4943L18.0005 19.5858L20.092 17.4943C20.1608 17.4255 20.2156 17.3436 20.2529 17.2537C20.2902 17.1637 20.3094 17.0673 20.3094 16.97C20.3094 16.8726 20.2902 16.7762 20.2529 16.6862C20.2156 16.5963 20.161 16.5146 20.0921 16.4458C20.0233 16.3769 19.9413 16.3219 19.8513 16.2847C19.7614 16.2474 19.665 16.2282 19.5676 16.2282Z" fill="white"/>
</svg>
