<svg width="48" height="48" viewBox="0 0 48 48" fill="none" xmlns="http://www.w3.org/2000/svg">
<rect width="48" height="48" rx="24" fill="black" fill-opacity="0.5"/>
<path fill-rule="evenodd" clip-rule="evenodd" d="M21.6296 13.3333C21.36 13.3333 21.098 13.4416 20.9022 13.6398C20.7058 13.8386 20.5926 14.1118 20.5926 14.4V15.4666H27.4074V14.4C27.4074 14.1118 27.2942 13.8386 27.0978 13.6398C26.902 13.4416 26.64 13.3333 26.3704 13.3333H21.6296ZM30.0741 15.4666V14.4C30.0741 13.4151 29.6878 12.4673 28.9951 11.766C28.3019 11.064 27.358 10.6666 26.3704 10.6666H21.6296C20.642 10.6666 19.6981 11.064 19.0049 11.766C18.3122 12.4673 17.9259 13.4151 17.9259 14.4V15.4666H13.3333C12.597 15.4666 12 16.0636 12 16.8C12 17.5363 12.597 18.1333 13.3333 18.1333H14.3704V33.6C14.3704 34.5848 14.7566 35.5326 15.4493 36.234C16.1426 36.9359 17.0864 37.3333 18.0741 37.3333H29.9259C30.9136 37.3333 31.8574 36.9359 32.5507 36.234C33.2434 35.5326 33.6296 34.5848 33.6296 33.6V18.1333H34.6667C35.403 18.1333 36 17.5363 36 16.8C36 16.0636 35.403 15.4666 34.6667 15.4666H30.0741ZM17.037 18.1333V33.6C17.037 33.8882 17.1503 34.1613 17.3466 34.3601C17.5424 34.5583 17.8044 34.6666 18.0741 34.6666H29.9259C30.1956 34.6666 30.4576 34.5583 30.6534 34.3601C30.8497 34.1613 30.963 33.8882 30.963 33.6V18.1333H17.037Z" fill="white"/>
</svg>
