<svg width="32" height="32" viewBox="0 0 32 32" fill="none" xmlns="http://www.w3.org/2000/svg">
<circle cx="16" cy="16" r="16" fill="black" fill-opacity="0.8"/>
<path d="M11.9998 7.11108C10.2816 7.11108 8.88867 8.50398 8.88867 10.2222V21.7778C8.88867 23.496 10.2816 24.8889 11.9998 24.8889C13.718 24.8889 15.1109 23.496 15.1109 21.7778V10.2222C15.1109 8.50398 13.718 7.11108 11.9998 7.11108Z" fill="#D9DDE3"/>
<path d="M19.9998 7.11108C18.2816 7.11108 16.8887 8.50398 16.8887 10.2222V21.7778C16.8887 23.496 18.2816 24.8889 19.9998 24.8889C21.718 24.8889 23.1109 23.496 23.1109 21.7778V10.2222C23.1109 8.50398 21.718 7.11108 19.9998 7.11108Z" fill="#D9DDE3"/>
</svg>
