<svg width="32" height="32" viewBox="0 0 32 32" fill="none" xmlns="http://www.w3.org/2000/svg">
<path d="M16 29.3337C23.3638 29.3337 29.3333 23.3641 29.3333 16.0003C29.3333 8.63653 23.3638 2.66699 16 2.66699C8.6362 2.66699 2.66667 8.63653 2.66667 16.0003C2.66667 23.3641 8.6362 29.3337 16 29.3337Z" fill="#3F3F3F"/>
<path fill-rule="evenodd" clip-rule="evenodd" d="M19.0572 20.9422C19.5779 21.4629 20.4221 21.4629 20.9428 20.9422C21.4635 20.4215 21.4635 19.5772 20.9428 19.0565L17.8856 15.9993L20.9428 12.9422C21.4635 12.4215 21.4635 11.5772 20.9428 11.0565C20.4221 10.5358 19.5779 10.5358 19.0572 11.0565L16 14.1137L12.9428 11.0565C12.4221 10.5358 11.5779 10.5358 11.0572 11.0565C10.5365 11.5772 10.5365 12.4215 11.0572 12.9422L14.1144 15.9993L11.0572 19.0565C10.5365 19.5772 10.5365 20.4215 11.0572 20.9422C11.5779 21.4629 12.4221 21.4629 12.9428 20.9422L16 17.885L19.0572 20.9422Z" fill="white"/>
</svg>
