<svg width="47" height="47" viewBox="0 0 47 47" fill="none" xmlns="http://www.w3.org/2000/svg">
<path d="M23.2816 46.0627C35.8632 46.0627 46.0627 35.8632 46.0627 23.2816C46.0627 10.6999 35.8632 0.500488 23.2816 0.500488C10.6999 0.500488 0.500488 10.6999 0.500488 23.2816C0.500488 35.8632 10.6999 46.0627 23.2816 46.0627Z" fill="#FFE66E"/>
<path d="M39.3902 7.17285L7.17285 39.3902C9.84102 42.0661 13.1356 44.0329 16.7571 45.1119L45.112 16.7571C44.033 13.1355 42.0662 9.84098 39.3902 7.17285Z" fill="#FFF6A0"/>
<path d="M23.2816 42.5032C33.8974 42.5032 42.5032 33.8974 42.5032 23.2816C42.5032 12.6658 33.8974 4.06006 23.2816 4.06006C12.6658 4.06006 4.06006 12.6658 4.06006 23.2816C4.06006 33.8974 12.6658 42.5032 23.2816 42.5032Z" fill="#FAC841"/>
<path d="M9.68994 36.8733C13.2947 40.4781 18.1838 42.5032 23.2816 42.5032C28.3795 42.5032 33.2686 40.4781 36.8733 36.8733C40.4781 33.2686 42.5032 28.3795 42.5032 23.2816C42.5032 18.1838 40.4781 13.2947 36.8733 9.68994L9.68994 36.8733Z" fill="#FCD24D"/>
<path d="M11.2002 11.2C14.6743 7.7264 19.3466 5.71491 24.2575 5.57862C29.1684 5.44233 33.9451 7.19159 37.6065 10.4671C37.3702 10.2037 37.1269 9.94359 36.8733 9.69008C33.2639 6.10758 28.382 4.10139 23.2966 4.11087C18.2111 4.12035 13.3367 6.14473 9.74074 9.74067C6.14478 13.3366 4.12038 18.211 4.11087 23.2965C4.10137 28.3819 6.10752 33.2638 9.69001 36.8732C9.94352 37.1267 10.2033 37.37 10.4671 37.6065C7.19151 33.945 5.44228 29.1682 5.57862 24.2573C5.71496 19.3464 7.72653 14.6741 11.2002 11.2Z" fill="#FABE32"/>
<path d="M27.0029 4.4233L29.936 1.49023C32.3454 2.22672 34.6153 3.35929 36.6527 4.84148L34.1003 7.39403C31.9604 5.9329 29.5456 4.92218 27.0029 4.4233Z" fill="#FFF6A0"/>
<path d="M7.39377 34.1001L4.84172 36.6522C3.35954 34.6148 2.22697 32.3449 1.49048 29.9355L4.42354 27.0024C4.92227 29.5452 5.93282 31.96 7.39377 34.1001Z" fill="#FFF6A0"/>
<path d="M8.17972 8.17968C3.99565 12.3647 1.60468 18.0138 1.5131 23.931C1.42152 29.8481 3.63652 35.5685 7.68907 39.881C7.51629 39.7185 7.34173 39.5591 7.17294 39.3903C2.90065 35.118 0.500495 29.3235 0.500488 23.2816C0.500482 17.2397 2.90062 11.4452 7.1729 7.17294C11.4452 2.90065 17.2396 0.500495 23.2816 0.500488C29.3235 0.500482 35.118 2.90062 39.3902 7.1729C39.5591 7.34169 39.7185 7.51625 39.881 7.68903C35.5685 3.63651 29.8481 1.42152 23.931 1.5131C18.0139 1.60468 12.3647 3.99564 8.17972 8.17968Z" fill="#FFF6A0"/>
<path d="M32.3891 18.2983C30.8466 18.2989 29.3466 18.8037 28.1177 19.7359V18.2983H25.27V38.2318H28.1177V31.099C29.0191 31.7769 30.0688 32.2307 31.1802 32.4231C32.2915 32.6155 33.4327 32.5409 34.5096 32.2055C35.5864 31.8701 36.5681 31.2834 37.3737 30.4939C38.1792 29.7045 38.7855 28.7348 39.1425 27.6649C39.4995 26.595 39.597 25.4555 39.427 24.3405C39.257 23.2255 38.8243 22.1669 38.1647 21.252C37.505 20.3371 36.6373 19.5921 35.6331 19.0786C34.6289 18.565 33.517 18.2976 32.3891 18.2983ZM32.3891 29.6889C31.5443 29.6889 30.7185 29.4384 30.016 28.969C29.3136 28.4997 28.7661 27.8326 28.4428 27.0521C28.1195 26.2715 28.0349 25.4127 28.1997 24.5841C28.3645 23.7555 28.7714 22.9944 29.3687 22.3971C29.9661 21.7997 30.7272 21.3929 31.5558 21.2281C32.3844 21.0632 33.2432 21.1478 34.0237 21.4711C34.8042 21.7944 35.4713 22.3419 35.9407 23.0443C36.4101 23.7468 36.6606 24.5726 36.6606 25.4174C36.6593 26.5499 36.2089 27.6357 35.4081 28.4364C34.6073 29.2372 33.5216 29.6876 32.3891 29.6889Z" fill="#F5B932"/>
<path d="M14.5921 23.9936L20.9992 32.5365H24.5581L18.1179 23.9492C19.559 23.7767 20.8798 23.0603 21.8104 21.9464C22.7409 20.8325 23.2109 19.4053 23.1242 17.9565C23.0376 16.5077 22.4009 15.1466 21.3443 14.1516C20.2876 13.1565 18.8908 12.6026 17.4394 12.603H11.7441V32.5365H14.5918V23.9936H14.5921ZM14.5921 15.4507H17.4397C18.1949 15.4507 18.9192 15.7507 19.4533 16.2847C19.9873 16.8188 20.2873 17.5431 20.2873 18.2983C20.2873 19.0535 19.9873 19.7778 19.4533 20.3119C18.9192 20.8459 18.1949 21.1459 17.4397 21.1459H14.5921V15.4507Z" fill="#F5B932"/>
<path d="M30.9655 18.2983C29.423 18.2989 27.923 18.8037 26.6941 19.7359V18.2983H23.8464V38.2318H26.6941V31.099C27.5955 31.7769 28.6452 32.2307 29.7566 32.4231C30.8679 32.6155 32.0091 32.5409 33.086 32.2055C34.1629 31.8701 35.1445 31.2834 35.9501 30.4939C36.7556 29.7045 37.3619 28.7348 37.7189 27.6649C38.0759 26.595 38.1734 25.4555 38.0034 24.3405C37.8334 23.2255 37.4007 22.1669 36.7411 21.252C36.0814 20.3371 35.2137 19.5921 34.2095 19.0786C33.2053 18.565 32.0934 18.2976 30.9655 18.2983ZM30.9655 29.6889C30.1207 29.6889 29.2949 29.4384 28.5924 28.969C27.89 28.4997 27.3425 27.8326 27.0192 27.0521C26.6959 26.2715 26.6113 25.4127 26.7761 24.5841C26.941 23.7555 27.3478 22.9944 27.9452 22.3971C28.5425 21.7997 29.3036 21.3929 30.1322 21.2281C30.9608 21.0632 31.8196 21.1478 32.6001 21.4711C33.3807 21.7944 34.0478 22.3419 34.5171 23.0443C34.9865 23.7468 35.237 24.5726 35.237 25.4174C35.2357 26.5499 34.7853 27.6357 33.9845 28.4364C33.1837 29.2372 32.098 29.6876 30.9655 29.6889Z" fill="#FFF082"/>
<path d="M13.1682 23.9936L19.5754 32.5365H23.1343L16.694 23.9492C18.1352 23.7767 19.456 23.0603 20.3865 21.9464C21.3171 20.8325 21.787 19.4053 21.7004 17.9565C21.6138 16.5077 20.9771 15.1466 19.9204 14.1516C18.8638 13.1565 17.467 12.6026 16.0156 12.603H10.3203V32.5365H13.1679V23.9936H13.1682ZM13.1682 15.4507H16.0159C16.7711 15.4507 17.4954 15.7507 18.0295 16.2847C18.5635 16.8188 18.8635 17.5431 18.8635 18.2983C18.8635 19.0535 18.5635 19.7778 18.0295 20.3119C17.4954 20.8459 16.7711 21.1459 16.0159 21.1459H13.1682V15.4507Z" fill="#FFF082"/>
</svg>
