<svg width="36" height="36" viewBox="0 0 36 36" fill="none" xmlns="http://www.w3.org/2000/svg">
<g filter="url(#filter0_d_5612_6518)">
<path d="M27 15.5C27.0034 16.8199 26.6951 18.1219 26.1 19.3C25.3944 20.7118 24.3098 21.8992 22.9674 22.7293C21.6251 23.5594 20.0782 23.9994 18.5 24C17.1801 24.0035 15.8781 23.6951 14.7 23.1L9 25L10.9 19.3C10.3049 18.1219 9.99656 16.8199 10 15.5C10.0006 13.9218 10.4406 12.3749 11.2707 11.0326C12.1008 9.69028 13.2883 8.6056 14.7 7.90003C15.8781 7.30496 17.1801 6.99659 18.5 7.00003H19C21.0843 7.11502 23.053 7.99479 24.5291 9.47089C26.0052 10.947 26.885 12.9157 27 15V15.5Z" stroke="white" stroke-width="2" stroke-linecap="round" stroke-linejoin="round" shape-rendering="crispEdges"/>
</g>
<defs>
<filter id="filter0_d_5612_6518" x="0" y="0" width="36" height="36" filterUnits="userSpaceOnUse" color-interpolation-filters="sRGB">
<feFlood flood-opacity="0" result="BackgroundImageFix"/>
<feColorMatrix in="SourceAlpha" type="matrix" values="0 0 0 0 0 0 0 0 0 0 0 0 0 0 0 0 0 0 127 0" result="hardAlpha"/>
<feOffset dy="2"/>
<feGaussianBlur stdDeviation="4"/>
<feComposite in2="hardAlpha" operator="out"/>
<feColorMatrix type="matrix" values="0 0 0 0 0 0 0 0 0 0 0 0 0 0 0 0 0 0 0.3 0"/>
<feBlend mode="normal" in2="BackgroundImageFix" result="effect1_dropShadow_5612_6518"/>
<feBlend mode="normal" in="SourceGraphic" in2="effect1_dropShadow_5612_6518" result="shape"/>
</filter>
</defs>
</svg>
