<svg width="160" height="76" viewBox="0 0 160 76" fill="none" xmlns="http://www.w3.org/2000/svg">
<path d="M28.3776 52.3661C28.2915 56.907 27.4884 61.4135 26.2779 65.7835C25.2318 69.5614 23.8325 73.4972 21.5192 76.7109C19.0886 76.8923 16.6206 76.4756 15.2433 74.2617C14.5706 73.1797 14.3535 71.7982 14.3959 70.5428C14.4224 69.7588 15.4464 68.4886 15.909 67.6173C16.9519 65.6547 18.1847 63.3774 18.267 61.1055C18.2702 61.0185 18.2434 60.9512 18.1984 60.8999C19.6816 60.0866 21.056 59.0208 22.271 58.0219C24.3937 56.2777 26.216 54.0715 28.3776 52.3661ZM16.9659 61.4989C17.095 61.4476 17.2123 61.3991 17.3153 61.3551C17.3156 61.3523 17.316 61.3494 17.316 61.3472C17.1999 61.4001 17.0829 61.4495 16.9659 61.4989ZM13.7682 62.2523C13.1803 62.2698 12.6482 62.2131 12.1642 62.098C13.0706 62.4509 14.2614 62.3119 15.3157 62.0419C14.8072 62.1598 14.2913 62.2367 13.7682 62.2523ZM38.2459 66.4916C38.1321 66.5062 38.0186 66.5161 37.9051 66.5285C37.7326 66.5541 37.5483 66.5719 37.3519 66.5818C33.9301 66.8528 30.5991 66.1657 27.3386 65.0942C27.2891 65.2737 27.2439 65.4548 27.1929 65.6333C26.0572 69.601 24.6184 73.6828 22.1109 77.0115C22.0826 77.1913 21.9072 77.3858 21.6397 77.4094C21.4319 77.4276 21.2253 77.4387 21.02 77.4461C17.7285 88.1069 11.2208 97.4782 4.3867 106.168C3.26351 107.596 2.12789 109.015 0.980472 110.423C0.442949 111.083 0.479931 111.006 0.60682 111.955C1.0793 115.492 2.81047 118.64 5.59884 120.752C5.66738 120.767 5.71457 120.796 5.72222 120.846C6.07802 121.108 6.45167 121.353 6.84126 121.581C8.32184 120.039 9.78234 118.476 11.2145 116.887C15.054 112.265 20.7697 105.097 25.6042 97.8554C26.0301 97.2174 26.4401 96.5811 26.8409 95.946C30.9549 88.9387 34.2683 81.5138 36.8023 73.7746C36.8756 73.5505 37.4951 73.4264 37.6765 73.5297C37.7039 73.5422 37.7211 73.5597 37.7233 73.5827C37.7237 73.5852 37.724 73.5878 37.724 73.59C37.7246 73.5925 37.7246 73.5957 37.7249 73.598C38.6313 81.5467 37.4377 89.9232 33.5102 96.9716C31.5345 100.518 28.9738 103.763 25.8296 106.35C24.8355 107.167 30.5098 109.628 31.0406 109.746C32.2187 110.008 33.4375 110.138 34.634 109.967C34.6484 109.943 34.6586 109.919 34.6736 109.894C34.7488 109.774 34.883 109.71 35.0227 109.693C41.2867 103.371 46.1037 95.8969 47.5403 86.9838C48.8363 78.9445 48.0246 70.7309 47.9841 62.6301C44.9799 64.424 41.7462 66.0411 38.2459 66.4916ZM156.344 108.88C153.083 105.117 149.792 101.375 146.414 97.7173C144.182 95.3013 141.783 93.0259 139.851 90.3508C137.577 87.2009 135.801 83.7312 134.606 80.032C133.358 76.1705 132.802 72.14 131.528 68.2862C130.261 64.4537 128.583 60.773 126.177 57.5198C123.032 59.3915 118.796 60.1385 115.209 60.0566C112.496 59.9947 109.675 59.6338 107.008 58.9245C106.755 64.0322 104.404 68.9659 102.95 73.7966C101.977 77.0342 101.465 80.4659 101.054 83.8182C100.636 87.226 100.223 90.887 101.327 94.2103C102.128 96.6196 103.401 98.7509 104.923 100.71L111.913 107.944C113.62 109.538 115.339 111.122 117.075 112.686C119.56 113.955 122.279 110.812 123.63 109.091C125.012 107.332 126.54 105.217 127.032 102.982C122.882 97.5155 117.922 92.8643 112.227 89.0344C112.127 88.9677 112.08 88.8399 112.145 88.7309C114.487 84.7833 115.263 80.1496 117.46 76.129C117.161 75.1302 116.882 74.1262 116.632 73.1159C116.586 72.9256 117.511 72.6871 117.556 72.8682C117.808 73.8887 118.091 74.8987 118.394 75.9014C118.415 75.9301 118.426 75.9639 118.425 76.0037C119.242 78.6894 120.235 81.312 121.353 83.8839C121.701 84.6844 122.06 85.4802 122.43 86.2709C124.349 90.3673 126.55 94.3404 128.83 98.2351C130.067 100.348 131.392 102.401 132.783 104.406C135.601 108.095 139.079 112.489 141.887 116.001C143.638 118.024 145.429 120.013 147.239 121.98C147.923 121.616 148.565 121.194 149.168 120.722C149.41 120.533 149.646 120.336 149.877 120.131C151.695 118.514 153.139 116.453 154.332 114.312C154.321 114.21 154.381 114.12 154.476 114.051C154.566 113.886 154.655 113.722 154.742 113.558C155.341 112.421 155.905 111.232 156.2 109.974C156.259 109.722 156.475 109.031 156.344 108.88ZM14.1523 61.82C17.6236 61.5467 20.7238 58.7711 23.179 56.5263C24.8881 54.9641 26.4688 53.1086 28.3645 51.7623C27.702 49.69 27.2789 47.3993 26.1998 45.4877C24.2767 46.7059 22.3453 47.911 20.4132 49.1139C20.3763 49.1454 20.3307 49.1732 20.2797 49.1974C18.4108 50.3611 16.5412 51.5257 14.6813 52.7044C14.3924 52.8874 13.5833 52.7771 14.1115 52.4423C15.9326 51.2882 17.7626 50.1478 19.5926 49.0084C19.8011 47.2938 20.017 45.5753 20.3272 43.8764C20.3842 43.5646 21.3149 43.4061 21.2505 43.7587C20.9702 45.2935 20.7678 46.8449 20.5774 48.394C22.446 47.23 24.3143 46.0641 26.1723 44.8832C26.304 44.7994 26.7688 44.6431 26.8868 44.8354C27.0121 45.0391 27.1272 45.2482 27.2375 45.4599C27.4527 45.1265 27.6319 44.771 27.7903 44.4024C27.7495 44.3607 27.7227 44.3065 27.7215 44.2354C27.6306 39.4665 25.374 34.406 22.6921 30.525C18.8832 31.3275 15.6116 33.505 13.6767 37.1471C12.7269 38.9341 11.9825 40.9672 11.7941 42.9993C11.7909 43.0325 11.7784 43.0628 11.7622 43.0921C11.0828 47.164 9.85917 51.2267 9.65449 55.3633C9.50305 58.4246 10.2366 62.1283 14.1523 61.82ZM49.0977 70.0719C49.135 71.2384 49.1685 72.4056 49.1918 73.5725C49.2976 71.8588 49.3757 70.5007 49.4016 70.048C49.3767 70.0518 49.3521 70.0566 49.3276 70.0604C49.2237 70.0763 49.1507 70.0782 49.0977 70.0719ZM27.6013 46.2261L27.5334 45.9276C27.5133 45.9315 27.4932 45.935 27.4731 45.9382C27.5171 46.0338 27.5595 46.1298 27.6013 46.2261ZM67.7638 14.7854C66.924 14.6493 66.1337 14.3907 65.3631 14.0725C65.2744 14.0643 65.1982 14.0378 65.1546 13.9868C64.7873 13.8293 64.4242 13.659 64.0623 13.4824C64.0556 13.5366 64.0307 13.5969 63.9762 13.6645C62.0114 16.1047 60.5875 19.1197 59.0282 21.8242C58.213 23.2385 57.4093 24.6601 56.5647 26.0565C56.141 26.7576 55.8238 27.4035 55.0025 27.6959C51.9448 28.7849 49.1405 28.2984 45.9867 28.0262C44.2364 27.875 42.2706 27.6688 40.3191 27.6806C39.7332 27.7 39.1873 27.7239 38.6906 27.7497C37.9618 27.809 37.2438 27.9085 36.5498 28.0686C40.4977 31.931 42.6274 37.2084 44.4363 42.3311C46.6824 48.6902 48.2015 55.1969 48.8911 61.9102C48.8911 61.9121 48.8908 61.914 48.8911 61.9159C48.8991 61.9255 48.9045 61.9363 48.9045 61.9491C48.9087 64.5768 49.0056 67.2239 49.0917 69.8758C49.1892 69.7986 49.3458 69.7231 49.4947 69.7008C51.2934 69.4285 53.1241 68.6872 54.4631 67.5232C54.7857 67.2099 55.109 66.8668 55.4163 66.5065C56.3023 65.3263 56.7308 63.8483 56.3757 62.0992C55.5356 57.9629 54.3684 53.8968 52.9124 49.9355C51.4012 45.8237 49.6946 41.7132 47.5607 37.8776C47.5413 37.8626 47.533 37.8434 47.5308 37.8227C47.5228 37.808 47.5155 37.7934 47.5075 37.779C47.4785 37.7274 47.5665 37.6531 47.6972 37.5877C47.8292 37.4845 48.0115 37.3955 48.1486 37.3907C49.6719 37.3356 51.1187 36.8322 52.5684 36.4072C53.4419 36.1512 54.3442 36.0144 55.2302 35.8276C55.7948 35.6736 56.3218 35.5244 56.7818 35.3863C59.0097 34.4653 60.2174 32.2007 61.5153 30.2521C64.5724 25.6625 67.1331 20.6398 68.1307 15.1906C68.1164 14.9891 68.0982 14.8326 68.0822 14.7261C67.9595 14.7711 67.8387 14.7975 67.7638 14.7854ZM119.492 59.2554C121.403 58.9697 123.293 58.4431 124.934 57.6075C123.584 58.0876 121.492 58.7836 119.492 59.2554ZM45.9443 63.2559C44.5575 63.9018 42.803 64.6998 41.2412 65.3537C42.8754 64.8226 44.4335 64.088 45.9443 63.2559ZM27.5219 64.4138C27.5005 64.4951 27.4779 64.5755 27.4565 64.6565C27.4718 64.6514 27.4874 64.6459 27.5031 64.6408C27.5079 64.5799 27.5142 64.5041 27.5219 64.4138ZM142.649 92.4543C142.586 92.3791 142.523 92.3035 142.459 92.2289C142.516 92.2939 142.567 92.3618 142.624 92.4266C142.632 92.4361 142.641 92.4451 142.649 92.4543Z" fill="#A358E7"/>
<path d="M163.499 123.599C163.49 123.582 163.48 123.564 163.47 123.547C163.467 123.541 163.463 123.534 163.459 123.527C163.443 123.5 163.419 123.478 163.393 123.46C162.001 121.936 160.357 120.646 158.859 119.23C157.423 117.873 155.59 116.179 155.266 114.13C156.244 112.506 157.056 110.719 157.278 108.89C157.368 108.142 155.741 106.868 155.301 106.365C153.269 104.043 151.223 101.734 149.153 99.4455C147.019 97.0847 144.739 94.8456 142.647 92.4491C142.639 92.4399 142.63 92.4306 142.622 92.4214C142.566 92.3566 142.514 92.2887 142.458 92.2237C139.761 89.0818 137.685 85.4849 136.185 81.6314C134.657 77.7032 134.064 73.5481 132.907 69.516C131.711 65.3494 129.962 61.3088 127.464 57.754C127.267 57.4782 127.064 57.2059 126.855 56.9381C126.849 56.9305 126.841 56.925 126.834 56.9184C126.829 56.9053 126.83 56.8938 126.822 56.8801C125.987 55.4703 125.44 53.9505 125.019 52.3886C125.469 53.2182 125.94 54.0366 126.483 54.81C128.349 57.467 130.372 60.0619 132.519 62.4979C134.435 64.6723 136.723 66.4089 137.79 69.2007C138.727 71.6527 138.884 74.3381 139.882 76.7736C139.967 76.9811 140.332 76.9623 140.58 76.8459C140.68 76.8526 140.79 76.8415 140.889 76.807C142.152 76.3639 142.238 75.0969 142.129 73.8385C142.918 75.1839 143.763 76.4914 144.767 77.6965C145.433 78.4942 146.41 79.9563 147.558 79.0894C147.731 78.9594 147.834 78.791 147.887 78.5969C148.228 78.6303 148.55 78.5918 148.789 78.462C148.789 78.462 148.789 78.462 148.79 78.4617C149.135 78.2749 149.307 77.8971 149.104 77.262C149.104 77.2617 149.104 77.2617 149.104 77.2617C149.916 77.0748 149.961 76.4302 149.603 75.5812C149.587 75.5433 149.568 75.5069 149.551 75.469C149.582 75.4619 149.61 75.454 149.631 75.4451C151.93 74.4685 148.45 71.1879 147.439 70.3214C147.429 70.2984 147.415 70.2755 147.393 70.2528C145.424 68.1863 143.378 66.1911 141.51 64.0299C139.601 61.8208 138.788 59.2859 137.651 56.6534C136.681 54.4064 135.383 52.1718 133.6 50.4808C132.614 49.5451 131.45 48.8762 130.583 47.8104C129.709 46.7373 129.21 45.3785 128.688 44.1134C128.685 44.1077 128.681 44.1042 128.679 44.0988C128.892 43.8019 129.064 43.4752 129.191 43.1175C129.225 43.0712 129.243 43.0202 129.244 42.9663C129.248 42.9542 129.253 42.9427 129.256 42.9303C129.294 42.806 129.236 42.7295 129.136 42.6915C127.119 38.78 125.484 31.8986 120.751 30.4595C122.196 30.1311 123.221 29.3778 123.039 27.9393C122.855 26.4871 121.305 25.5657 120.679 24.3309C119.799 22.5988 122.718 21.2158 122.767 19.4945C122.823 17.4808 121.094 17.0431 120.169 15.6087C119.735 14.9341 119.731 13.8135 119.548 13.0429C119.298 11.9911 118.981 10.9547 118.682 9.91629C118.42 9.0048 117.778 8.41722 117.002 8.02125C116.425 7.59691 115.575 7.22103 114.32 7.03579C113.924 6.97713 113.57 6.92485 113.251 6.87798C112.292 6.63536 111.33 6.40071 110.381 6.14981C107.712 5.4449 104.198 5.55011 102.094 7.61859C100.956 8.73699 100.583 10.0626 100.122 11.5489C99.4698 13.6522 97.6021 14.5576 96.5443 16.3382C95.7995 17.5927 96.3447 19.1269 96.8456 20.346C97.3847 21.6586 97.5814 22.8105 97.1491 23.8297C96.4579 24.578 95.5639 25.2335 95.2496 25.8545C94.0247 27.183 96.609 28.5339 97.8001 29.015C97.9952 29.0937 98.1929 29.1619 98.3915 29.2244C97.2667 29.1661 96.1598 29.0115 95.0647 28.6987C94.9955 28.6789 94.8613 28.7028 94.7216 28.7456C94.5195 28.6403 94.1576 28.677 94.017 28.8833C93.9651 28.9592 93.9173 29.0408 93.8669 29.1195C93.849 29.0296 93.763 28.962 93.5742 28.955C90.9921 28.8603 88.3099 27.8586 85.8155 27.1697C84.9767 26.9379 84.2798 26.0535 83.683 25.4729C82.6825 24.4996 81.7353 23.4781 80.8583 22.3922C78.3673 19.308 75.4406 16.1842 74.2521 12.3141C74.4131 12.2554 74.5425 12.1588 74.5457 12.0473C74.6295 9.21076 76.2086 6.11282 73.2118 4.2758C73.2086 1.94494 72.6331 -0.144256 70.2442 0.00781887C70.1001 -0.0058902 69.9312 0.0371479 69.8349 0.0824197C67.7301 1.07712 66.8964 3.58238 66.2986 5.66297C65.6032 8.08215 65.2025 10.6792 65.1269 13.2119C64.8783 13.093 64.6302 12.9715 64.3822 12.8475C64.166 12.7397 63.4799 13.0104 63.5619 13.1982C63.4194 13.2138 63.2803 13.2699 63.1975 13.3726C61.4739 15.5125 60.2082 18.1236 58.8386 20.4924C57.9835 21.9714 57.1349 23.4545 56.2725 24.9297C55.5197 26.217 55.2405 27.0048 53.6789 27.3629C53.1235 27.4901 52.5599 27.5755 51.9911 27.6323C51.8891 27.6421 51.787 27.6523 51.6844 27.6603C45.7901 28.1306 39.2837 25.4123 33.7835 28.3384C33.341 27.1052 33.108 25.7378 34.3682 25.4248C35.6671 25.1028 36.8324 24.8544 37.9119 24.0048C41.7039 21.0203 38.377 15.8539 37.5774 12.2644C37.5644 12.2063 37.5341 12.163 37.4936 12.1292C37.441 12.0524 37.388 11.9755 37.3348 11.8993C37.3778 11.7983 37.4254 11.6835 37.4757 11.5569C39.4313 9.65805 39.3264 5.79337 36.7845 4.38611C35.3362 3.58397 33.5288 3.71915 32.0166 4.30322C31.5215 4.49451 31.0213 4.71481 30.522 4.95679C30.1567 5.1178 29.7884 5.31164 29.4231 5.52684C28.3385 6.12015 27.2829 6.78999 26.3315 7.4646C25.3161 8.18481 24.5544 9.18397 23.5913 9.96284C22.5472 10.8071 21.2212 11.3261 20.0671 12.0007C18.6544 12.8261 17.8262 13.4644 17.9524 15.1815C18.3025 19.9328 20.9595 24.4604 25.6585 25.9833C25.6585 27.184 25.6585 28.3847 25.6585 29.5853C20.8166 29.7849 16.4329 31.6764 13.6009 35.7621C12.1522 37.8522 11.0972 40.535 10.8607 43.0862C10.8588 43.1066 10.861 43.1245 10.8635 43.1426C10.86 43.1509 10.8553 43.1592 10.854 43.1678C10.1067 47.6819 8.71345 52.1906 8.69528 56.7947C8.68444 59.518 9.82357 61.5364 12.1618 62.0921C12.646 62.2072 13.1781 62.2639 13.7657 62.2464C14.2889 62.2308 14.8047 62.1539 15.3133 62.036C15.8741 61.9059 16.4246 61.721 16.9634 61.493C17.0804 61.4439 17.1975 61.3942 17.3135 61.341C17.3135 61.3435 17.3132 61.3464 17.3129 61.3489C17.1468 63.9741 15.5227 66.6298 14.2669 68.8621C13.7128 69.8479 13.4115 70.2238 13.4606 71.3342C13.6379 75.3733 16.5636 77.2891 20.1443 77.4386C16.7352 88.5908 9.81018 98.286 2.63746 107.328C1.68962 108.523 0.731899 109.71 -0.232837 110.89C-0.586085 111.323 -0.341872 112.064 -0.265994 112.573C-0.228693 112.827 -0.18342 113.078 -0.13241 113.326C-0.233793 113.355 -0.319555 113.393 -0.362276 113.435C-3.46371 116.551 -6.60564 120.7 -3.56605 124.975C-2.24903 126.828 -0.610952 128.425 1.10555 129.904C2.4382 131.052 3.90316 132.267 5.5355 132.965C5.72615 133.047 6.30735 132.936 6.36824 132.696C7.2724 129.151 6.40618 125.416 5.86388 121.845C6.06409 121.967 6.26718 122.086 6.47505 122.198C6.60066 122.265 6.92968 122.185 7.13149 122.071C7.19302 122.047 7.24435 122.019 7.274 121.988C14.06 114.958 20.3709 107.476 25.6607 99.245C30.3677 91.9199 34.1119 84.034 36.9752 75.8213C37.7563 87.4383 33.7842 99.1761 24.6016 106.729C24.556 106.766 24.542 106.812 24.5854 106.854C27.17 109.351 30.8281 110.894 34.4444 110.314C33.5387 112.307 34.7591 114.575 35.8182 116.311C37.3335 118.795 39.3319 120.936 41.2151 123.141C36.3509 123.495 31.2735 121.413 26.9797 119.41C26.2681 119.078 20.8358 116.627 21.1823 115.839C22.4085 113.054 24.2988 110.924 26.7989 109.219C27.3157 108.867 26.5706 108.484 26.1743 108.754C23.3691 110.667 21.4508 113.076 20.0856 116.177C20.032 116.299 20.0662 116.445 20.1777 116.522C23.4169 118.758 27.0291 120.48 30.7089 121.853C34.2381 123.17 38.2182 124.292 42.015 123.778C42.2315 123.749 42.7142 123.495 42.4706 123.206C40.8874 121.322 39.2321 119.507 37.769 117.524C36.4628 115.754 34.0258 112.475 35.4538 110.198C35.5045 110.117 35.5227 110.045 35.5207 109.981C42.0185 103.52 46.8923 95.9621 48.4519 86.8261C49.1976 82.4565 49.2773 78.0138 49.1893 73.5666C49.1661 72.3997 49.1326 71.2325 49.0953 70.066C49.1482 70.0724 49.2215 70.0705 49.3251 70.0548C49.3497 70.051 49.3742 70.0462 49.3991 70.0424C52.2748 69.5948 55.1639 68.4085 56.7121 65.8095C57.5484 64.4054 57.4938 62.8142 57.1811 61.2737C56.6563 58.6916 55.9578 56.1465 55.1757 53.632C53.4949 48.2293 51.3452 42.8222 48.6053 37.8532C51.0617 37.5991 53.5048 36.6653 55.8959 36.1459C58.1219 35.6619 59.5655 34.3526 60.8484 32.5299C64.7055 27.0504 68.1356 21.021 69.1753 14.3233C70.4967 20.1187 74.2731 25.3747 77.5556 30.1697C79.078 32.3938 80.3886 34.9583 83.0657 35.9243C84.3783 36.3981 85.8547 36.4925 87.204 36.8878C88.7735 37.3475 90.322 37.8535 91.9683 37.9134C92.0573 37.9169 92.1644 37.8857 92.2642 37.8379C92.3187 38.0916 92.3793 38.3419 92.4552 38.5833C92.5151 38.7755 92.7396 38.8265 92.9535 38.787C92.9155 38.896 92.9599 39.0009 93.1502 39.0573C94.8903 39.5716 96.5622 40.265 98.352 40.5876C98.3482 42.6714 98.9982 44.724 100.166 46.664C101.309 48.5609 102.442 50.2832 103.188 52.3947C103.853 54.2747 104.281 56.2386 104.789 58.1643C104.785 58.1901 104.794 58.214 104.819 58.2354C104.883 58.3412 105.025 58.3792 105.178 58.369C105.484 58.4729 105.791 58.5762 106.102 58.6699C105.982 64.1609 103.311 69.5033 101.794 74.6974C100.87 77.8572 100.457 81.2644 100.057 84.5265C99.6515 87.8326 99.4401 91.2261 100.4 94.4529C101.809 99.1885 105.441 102.97 108.925 106.3C111.369 108.637 113.865 110.923 116.378 113.185C116.408 113.242 116.461 113.295 116.547 113.339C118.489 114.331 120.484 113.212 122.042 111.876C126.254 113.237 124.639 117.05 123.493 120.269C122.994 121.672 121.941 125.835 124.801 125.401C127.453 124.999 129.616 122.257 131.137 120.287C132.66 118.315 135.359 114.729 134.464 112.04C133.792 110.581 132.512 109.666 131.173 108.856C129.775 108.011 127.829 107.397 126.819 106.055C126.807 106.04 126.793 106.027 126.777 106.015C127.323 104.998 127.748 103.945 127.974 102.898C127.99 102.862 127.998 102.824 127.993 102.785C128 102.674 127.947 102.6 127.86 102.558C124.454 98.0743 120.506 94.1018 116.021 90.6943C115.211 90.0784 112.887 89.0888 113.501 87.9793C114.148 86.808 114.627 85.5423 115.092 84.2912C115.971 81.9269 116.712 79.5189 117.806 77.2492C120.182 84.714 123.843 91.843 127.903 98.4773C133.235 107.188 139.619 114.965 146.531 122.464C146.605 122.544 146.851 122.501 147.064 122.422C147.134 122.409 147.195 122.393 147.235 122.375C148.438 121.809 149.44 121.131 150.331 120.353C154.261 123.426 153.498 130.472 158.731 132.274C160.616 132.922 162.508 132.445 163.768 130.878C165.488 128.74 164.749 125.747 163.499 123.599ZM149 76.9658C148.997 76.9601 148.996 76.9546 148.993 76.9489C149.024 76.9483 149.063 76.9464 149.115 76.9435C149.084 76.9451 149.044 76.9534 149 76.9658ZM131.29 49.7198C133.827 51.713 135.366 53.9817 136.727 56.9021C137.902 59.4249 138.576 61.8759 140.364 64.0716C142.262 66.4015 144.473 68.4738 146.543 70.6466C146.574 70.6791 146.614 70.7017 146.657 70.718C147.465 71.4465 150.163 74.1586 149.385 75.1093C148.819 73.9651 148.019 72.9258 147.307 71.8769C147.153 71.6492 146.31 72.0172 146.383 72.124C146.94 72.9439 147.511 73.7509 148.025 74.5989C148.296 75.0462 148.543 75.5079 148.746 75.9899C148.825 76.1755 148.881 76.3671 148.924 76.5635C148.946 76.6648 148.943 76.7398 148.933 76.7959C148.289 75.1878 147.072 73.7388 146.162 72.299C145.992 72.0302 145.125 72.3675 145.238 72.5467C145.924 73.6313 146.66 74.6824 147.319 75.7849C147.618 76.287 147.895 76.8035 148.118 77.3446C148.199 77.5397 148.255 77.7408 148.293 77.9481C148.306 78.0163 148.304 78.0848 148.296 78.1531C148.172 78.1199 148.049 78.0813 147.93 78.0326C147.924 78.0303 147.916 78.0297 147.91 78.0278C147.668 76.3196 145.13 73.5344 144.612 72.7217C144.437 72.4482 143.569 72.7833 143.688 72.9694C144.018 73.4869 147.044 77.6385 146.973 78.7072C144.863 76.8064 143.447 74.3404 142.076 71.8766C142.029 71.7933 141.919 71.7643 141.789 71.7688C141.527 71.728 141.006 71.8817 141.011 72.1236C141.03 73.0613 141.749 75.6931 140.753 76.3846C139.856 74.1207 139.571 71.6591 138.847 69.3397C138.014 66.67 135.964 64.8023 134.065 62.8617C131.703 60.4492 129.653 57.6392 127.675 54.9108C126.348 53.0788 125.432 50.9842 124.265 49.0576C124.264 49.0538 124.263 49.0503 124.262 49.0465C124.254 49.0047 124.231 48.9728 124.198 48.9486C123.768 48.2485 123.302 47.5726 122.77 46.9404C124.669 46.5951 126.668 46.0133 127.976 44.8684C128.768 46.7373 129.638 48.4213 131.29 49.7198ZM102.759 7.68203C102.444 8.08279 102.146 8.52562 101.872 8.97643C102.123 8.45771 102.422 8.03177 102.759 7.68203ZM102.914 14.2579C102.902 14.3708 103.084 14.4157 103.19 14.4157C103.503 14.4157 103.816 14.4157 104.13 14.4157C104.334 14.4157 104.611 14.3427 104.742 14.1718C104.876 13.9981 104.629 13.9331 104.5 13.9331C104.187 13.9331 103.874 13.9331 103.561 13.9331C103.356 13.9331 103.08 14.0061 102.949 14.1769C102.938 14.1903 102.934 14.2018 102.929 14.2136C103.144 13.554 103.335 12.9323 103.461 12.376C104.406 10.9917 105.468 9.6571 106.995 8.94199C106.839 10.5536 107.015 12.2073 108.344 13.3085C109.22 14.0341 110.374 14.2248 111.455 14.4339C112.452 14.6268 111.799 15.7624 111.918 16.4676C111.965 16.7479 112.081 16.9969 112.233 17.2236C112.238 17.2302 112.241 17.2366 112.246 17.243C112.521 17.6447 112.923 17.9683 113.335 18.2342C113.338 18.2358 113.34 18.2374 113.342 18.2387C113.401 18.2766 113.46 18.3152 113.519 18.3509C114.042 18.6684 114.62 18.8706 115.187 19.0972C115.221 19.1106 115.255 19.1243 115.289 19.138C115.64 19.2809 115.985 19.4368 116.308 19.6389C116.412 19.7043 116.503 19.7846 116.586 19.872C116.935 20.347 117.097 20.9027 116.951 21.5964C116.924 21.7217 116.89 21.8365 116.848 21.943C116.397 22.7343 114.943 22.7939 114.164 22.8105C113.99 22.8143 113.527 22.8908 113.527 23.1494C113.527 25.404 113.527 27.659 113.527 29.9137C113.527 30.2341 114.053 30.2099 114.313 30.032C114.601 30.1292 114.937 30.222 115.311 30.3049C114.57 33.5195 110.118 35.6304 107.079 34.7852C104.844 34.1645 105.432 30.9597 105.359 29.1415C105.359 29.139 105.359 29.1364 105.359 29.1342C105.476 29.1087 105.59 29.081 105.706 29.0545C105.852 29.021 105.999 28.9885 106.143 28.9541C105.959 29.4128 105.771 29.82 105.66 30.0996C105.466 30.5851 106.394 30.558 106.54 30.1923C106.98 29.0892 108.179 26.817 107.421 25.6033C106.875 24.7282 105.54 24.7336 104.651 24.4859C99.6636 23.0952 101.673 18.049 102.914 14.2579ZM106.283 28.5237L106.422 28.1921C106.386 28.3024 106.349 28.4114 106.309 28.5195C106.301 28.5202 106.291 28.5227 106.283 28.5237ZM36.7456 11.1061C36.4514 10.7321 36.1437 10.3757 35.8147 10.0454C36.2591 10.3266 36.5518 10.7203 36.7456 11.1061ZM26.6819 17.4553C25.8814 18.2221 24.3845 18.4468 23.3375 19.0743C24.1017 18.4835 25.4685 18.1271 26.6819 17.4553ZM23.0566 21.255C22.5832 19.5286 25.0068 18.9987 26.1055 18.4969C26.8786 18.144 27.4978 17.6297 27.967 16.9245C28.0582 16.7868 28.0971 16.5776 28.1112 16.3385C28.7188 15.5737 28.4363 14.9836 28.1478 14.6545C28.1819 14.5468 28.2361 14.4725 28.3222 14.4515C29.5021 14.1636 30.6231 14.0169 31.6382 13.2836C32.9001 12.3728 33.2052 10.8868 33.1602 9.42723C33.341 9.45529 33.5954 9.4945 33.9503 9.54934C35.0403 10.3244 35.8864 11.4042 36.6589 12.535C36.7581 12.9747 36.8964 13.451 37.0546 13.9515C37.009 13.9394 36.9624 13.9331 36.9251 13.9331C36.6121 13.9331 36.2987 13.9331 35.9856 13.9331C35.7812 13.9331 35.5045 14.0061 35.3735 14.1769C35.2396 14.3507 35.4866 14.4157 35.6151 14.4157C35.9282 14.4157 36.2416 14.4157 36.5547 14.4157C36.7453 14.4157 36.9946 14.3485 37.134 14.2012C38.3671 18.0225 40.5405 23.121 35.427 24.5464C34.5375 24.7945 33.4558 24.7973 32.8105 25.552C31.8196 26.7109 33.1217 29.1862 33.553 30.2689C34.1804 31.4858 34.9555 33.4245 33.7526 34.5372C32.3409 35.8424 29.7897 34.5633 28.6353 33.5778C27.5 32.6086 26.8588 31.1877 26.5875 29.7501C26.5875 27.5165 26.5875 25.2829 26.5875 23.0493C26.5875 22.8857 26.4498 22.8134 26.2958 22.8102C25.0987 22.7853 23.4325 22.624 23.0566 21.255ZM25.7009 30.1729C26.4638 33.7398 29.7425 36.2247 33.4016 35.2032C35.9263 34.4986 35.4088 31.8295 34.4773 30.0218C34.3724 29.7584 34.2075 29.3985 34.0399 28.9955C34.528 28.7309 35.04 28.5138 35.5718 28.3397C39.5732 32.1843 41.6803 37.4377 43.5106 42.5736C45.7643 48.8989 47.2646 55.3982 47.9568 62.0787C47.2927 62.4823 46.6222 62.8767 45.9425 63.251C44.4316 64.0828 42.8736 64.8177 41.2393 65.3488C40.4452 65.6067 39.6332 65.8175 38.7994 65.9667C35.1079 66.6269 31.3538 65.7674 27.859 64.5999C27.7789 64.5731 27.6412 64.5929 27.5013 64.6359C27.4856 64.641 27.47 64.6464 27.4547 64.6515C27.4761 64.5706 27.4987 64.4902 27.5201 64.4089C28.6133 60.2605 29.27 55.9574 29.3064 51.6719C29.316 51.6423 29.3188 51.612 29.3089 51.5807C29.1833 51.1927 29.0666 50.798 28.9525 50.4005C30.8762 50.0396 33.9592 48.4276 34.2923 46.3059C34.4785 45.1203 34.3092 43.7388 33.1009 43.1879C32.6371 42.9765 32.1043 43.0288 31.5974 43.1834C31.891 42.2047 32.1827 40.2787 31.1584 39.7466C30.6789 39.4976 30.0872 39.7077 29.7499 40.0995C29.1814 40.7595 28.8333 41.5655 28.5275 42.4017C28.0257 38.1407 26.0542 33.8281 23.685 30.3435C24.3447 30.2475 25.0174 30.1901 25.7009 30.1729ZM30.6062 43.6024C30.5711 43.6209 30.5357 43.6387 30.502 43.6569C30.1092 43.8648 31.0423 43.7627 31.2069 43.6757C33.3687 42.5296 33.6863 45.8755 33.1806 47.0271C32.537 48.492 30.5609 49.8314 29.029 50.0903C28.9786 50.0986 28.9267 50.1135 28.8757 50.1324C28.5014 48.8144 28.1414 47.4709 27.5998 46.2211C27.558 46.1245 27.5156 46.0286 27.4716 45.9336C27.4917 45.9304 27.5121 45.9269 27.5319 45.923C27.6976 45.8899 27.8548 45.8252 27.9179 45.7394C28.7147 44.6577 29.1412 43.3253 29.6233 42.0858C29.8567 41.4858 30.0907 40.8778 30.4414 40.3351C30.4694 40.3119 30.4895 40.2924 30.5048 40.2758C30.7222 40.4993 30.7742 40.9052 30.844 41.1864C31.0408 41.9739 30.8648 42.7677 30.6049 43.5109C30.5922 43.5475 30.5947 43.5772 30.6062 43.6024ZM14.1505 61.815C10.2352 62.1233 9.50124 58.4197 9.65268 55.3581C9.85768 51.2211 11.081 47.1588 11.7604 43.0868C11.7766 43.0575 11.7891 43.0269 11.7923 42.9941C11.9807 40.9619 12.7254 38.9288 13.6749 37.1419C15.6098 33.4997 18.8814 31.3222 22.6903 30.5198C25.3722 34.4007 27.6288 39.4613 27.7196 44.2301C27.7209 44.3015 27.7477 44.3557 27.7885 44.3972C27.6301 44.7657 27.4506 45.1212 27.2357 45.4547C27.1254 45.243 27.0103 45.0339 26.885 44.8301C26.767 44.6379 26.3022 44.7944 26.1705 44.8779C24.3125 46.0588 22.4442 47.2244 20.5756 48.3888C20.7663 46.8396 20.9684 45.2883 21.2486 43.7535C21.3127 43.4012 20.3821 43.5596 20.3254 43.8711C20.0151 45.5701 19.7996 47.2885 19.5908 49.0031C17.7608 50.1426 15.9308 51.283 14.1097 52.4371C13.5814 52.7718 14.3906 52.8821 14.6794 52.6991C16.5394 51.5205 18.4086 50.3558 20.2778 49.1922C20.3289 49.1679 20.3745 49.1402 20.4114 49.1086C22.3438 47.9057 24.2748 46.7006 26.1979 45.4824C27.2771 47.394 27.7002 49.6847 28.3627 51.757C26.4673 53.1037 24.8866 54.9589 23.1772 56.5211C20.722 58.7662 17.6215 61.5418 14.1505 61.815ZM15.2415 74.2571C14.5688 73.1751 14.3517 71.7937 14.3941 70.5382C14.4206 69.7542 15.4446 68.484 15.9072 67.6127C16.9501 65.6501 18.1829 63.3728 18.2652 61.1009C18.2684 61.0139 18.2416 60.9466 18.1966 60.8953C19.6798 60.082 21.0542 59.0162 22.2692 58.0173C24.3912 56.2724 26.2139 54.0662 28.3751 52.3612C28.2891 56.9021 27.486 61.4086 26.2754 65.7786C25.2294 69.5565 23.8301 73.4923 21.5168 76.706C19.0868 76.8877 16.6188 76.4707 15.2415 74.2571ZM5.58427 132.241C2.63746 130.749 -0.0788493 127.946 -2.08133 125.473C-3.46499 123.765 -4.10326 122.173 -3.81887 119.952C-3.50675 117.512 -1.68568 115.585 0.000536549 113.89C0.733813 116.805 2.41493 119.331 4.80094 121.122C5.27789 124.744 6.30926 128.591 5.58427 132.241ZM47.5382 86.9795C46.1016 95.8926 41.2849 103.367 35.0205 109.688C34.8809 109.705 34.747 109.77 34.6714 109.89C34.6564 109.914 34.6462 109.939 34.6319 109.963C33.4351 110.134 32.2165 110.004 31.0385 109.742C30.5077 109.624 24.8334 107.163 25.8275 106.346C28.9716 103.759 31.5324 100.514 33.5081 96.9674C37.4352 89.919 38.6292 81.5421 37.7228 73.5937C37.7225 73.5911 37.7225 73.588 37.7219 73.5857C37.7219 73.5832 37.7215 73.5806 37.7212 73.5784C37.7187 73.5554 37.7014 73.5379 37.6743 73.5255C37.4929 73.4222 36.8735 73.5459 36.8002 73.7703C34.2662 81.5096 30.9528 88.9342 26.8388 95.9417C26.0991 97.202 25.3362 98.4502 24.5442 99.6827C20.6152 105.797 16.0746 111.486 11.2126 116.883C9.78053 118.472 8.32003 120.035 6.83945 121.577C6.44986 121.349 6.07621 121.105 5.72041 120.842C5.71308 120.792 5.66557 120.762 5.59703 120.748C2.80867 118.636 1.0775 115.487 0.605011 111.951C0.478122 111.002 0.44114 111.079 0.978663 110.419C2.12608 109.01 3.26138 107.592 4.38489 106.164C11.219 97.474 17.7267 88.103 21.0181 77.4418C21.2238 77.4345 21.43 77.423 21.6379 77.4051C21.9054 77.3815 22.0808 77.1871 22.1091 77.0073C24.6166 73.6785 26.0557 69.5967 27.191 65.629C27.2421 65.4502 27.2873 65.2691 27.3367 65.0899C30.5976 66.1615 33.9283 66.8485 37.3501 66.5775C37.5341 66.5628 37.7183 66.5444 37.9033 66.5243C38.0168 66.5118 38.1303 66.5019 38.2441 66.4873C41.7443 66.0368 44.9781 64.4201 47.982 62.6268C48.0225 70.7269 48.8345 78.9402 47.5382 86.9795ZM68.1283 15.1854C67.1307 20.6346 64.57 25.6575 61.5128 30.2469C60.2153 32.1955 59.0076 34.4603 56.7794 35.3811C56.5957 35.4569 56.4073 35.5271 56.209 35.5838C55.8857 35.6763 55.5577 35.7525 55.2277 35.8223C54.342 36.0091 53.4398 36.1462 52.5659 36.4019C51.1163 36.8269 49.6695 37.3303 48.1462 37.3855C48.0091 37.3906 47.8267 37.4792 47.6947 37.5825C47.564 37.6478 47.476 37.7221 47.505 37.7738C47.513 37.7881 47.5203 37.8028 47.5283 37.8175C47.5305 37.8379 47.5388 37.8573 47.5583 37.8723C49.6921 41.708 51.3987 45.8185 52.9099 49.9302C54.3659 53.8918 55.5334 57.958 56.3732 62.094C56.7284 63.843 56.3002 65.3211 55.4139 66.5013C55.1375 66.8695 54.8164 67.2091 54.4606 67.518C53.1216 68.682 51.291 69.4236 49.4922 69.6955C49.3433 69.7179 49.1868 69.7934 49.0892 69.8706C49.0031 67.2186 48.9062 64.5715 48.9021 61.9438C48.9021 61.9314 48.8967 61.9206 48.8887 61.9107C48.8884 61.9088 48.8887 61.9069 48.8887 61.9049C48.1991 55.1916 46.6799 48.6849 44.4339 42.3258C42.6246 37.2031 40.4952 31.9257 36.5473 28.0633C37.2414 27.9032 37.9594 27.8038 38.6882 27.7445C39.2267 27.7002 39.7709 27.6788 40.3167 27.6753C42.2682 27.6635 44.234 27.8698 45.9843 28.0209C49.1383 28.2932 51.9423 28.7797 55.0001 27.6906C55.8213 27.3982 56.1386 26.7526 56.5623 26.0512C57.4065 24.6545 58.2105 23.2329 59.0257 21.819C60.5851 19.1148 62.0086 16.0997 63.9738 13.6592C64.0283 13.5916 64.0532 13.5313 64.0599 13.4771C64.4217 13.6538 64.7845 13.824 65.1521 13.9815C65.1961 14.0322 65.272 14.0587 65.3606 14.0673C66.1312 14.3855 66.9215 14.6443 67.7613 14.7801C67.8362 14.7923 67.9571 14.7658 68.0792 14.7202C68.127 14.7027 68.1745 14.6823 68.2201 14.66C68.192 14.8359 68.1601 15.0107 68.1283 15.1854ZM68.9425 12.3052C68.8775 12.3651 68.8379 12.4353 68.8481 12.513C68.8494 12.5239 68.8517 12.5344 68.8532 12.5456C68.72 12.9087 68.5762 13.2648 68.4139 13.6059C68.3855 13.6394 68.367 13.6761 68.3619 13.715C68.3368 13.9117 68.3036 14.1068 68.2743 14.3022C67.4922 14.1693 66.7551 13.9232 66.0368 13.6219C66.0639 11.5231 66.3652 9.41735 66.7822 7.36417C67.19 5.35595 67.8432 2.08172 69.7058 0.751935C70.5882 2.97631 70.3389 5.51696 69.9742 7.82901C69.7443 9.286 69.444 10.8587 68.9425 12.3052ZM92.1753 37.3749C90.6612 37.2924 89.2138 36.8148 87.7692 36.3831C86.3403 35.9556 84.8122 35.8405 83.4161 35.3368C80.9427 34.4441 79.5489 31.4654 78.1595 29.4358C74.6538 24.315 70.6574 18.6646 69.7874 12.367C70.2729 10.9882 70.5682 9.51267 70.8299 8.10542C71.2772 5.6974 71.5622 2.91 70.6542 0.564151C72.0832 0.91166 72.3535 2.954 72.278 5.04256C71.9891 6.48488 71.8616 7.97343 71.8412 9.43998C71.8355 9.81682 72.7418 9.62362 72.7642 9.3217C72.8333 8.38566 73.0948 6.83781 73.1828 5.26955C74.8785 6.95003 73.8271 9.50279 73.6463 11.7693C73.3954 11.8187 73.1608 11.9975 73.2258 12.2315C74.4411 16.6076 77.834 20.2555 80.7081 23.6439C81.8766 25.0211 83.5156 27.1767 85.2866 27.8076C86.3903 28.2007 87.583 28.3276 88.7014 28.6987C90.19 29.1932 91.6856 29.5872 93.2592 29.6449C93.3475 29.6484 93.4362 29.6236 93.5178 29.5844C93.5545 29.5665 93.5905 29.5471 93.6236 29.5238C93.5873 29.5879 93.5532 29.6548 93.5178 29.7202C92.3226 31.9273 91.7736 34.8735 92.1753 37.3749ZM105.696 57.8483C104.852 54.642 104.112 51.4449 102.486 48.5236C101.443 46.6515 100.179 45.0881 99.5619 42.989C98.907 40.763 99.2326 38.4586 100.196 36.385C100.409 35.9272 99.4771 35.9712 99.3206 36.3085C98.7728 37.4868 98.4722 38.6725 98.3816 39.8515C96.7738 39.5203 95.2566 38.8922 93.6823 38.427C93.5927 38.4006 93.4897 38.4098 93.389 38.4404C93.3922 38.4073 93.3912 38.3728 93.3801 38.3368C92.5081 35.5529 93.1384 31.5926 94.7733 29.1782C96.0792 29.5002 97.4035 29.6191 98.7534 29.6277C98.8458 29.6284 99.0936 29.5416 99.2753 29.4521C100.96 29.79 102.728 29.6402 104.435 29.3217C104.527 30.8163 104.262 32.4068 104.798 33.8316C105.312 35.2 106.905 35.4181 108.169 35.4569C111.147 35.5481 115.239 33.4899 116.154 30.4649C117.145 30.6247 118.272 30.7098 119.325 30.6505C119.317 30.748 119.391 30.8348 119.6 30.8686C122.377 31.3114 124.057 34.3038 125.243 36.5632C126.362 38.692 127.181 40.9629 128.292 43.0935C127.369 45.8647 122.745 46.3764 120.095 46.6815C120.095 46.6716 120.095 46.6614 120.091 46.6515C119.009 44.2311 117.652 41.8706 117.413 39.1823C117.395 38.9869 116.465 39.1629 116.489 39.4294C116.729 42.118 118.085 44.4788 119.167 46.8986C119.183 46.9353 119.219 46.9585 119.266 46.9719C119.126 47.1779 119.183 47.431 119.585 47.3829C120.218 47.307 120.96 47.2238 121.744 47.1087C122.358 47.8072 122.876 48.567 123.35 49.3557C123.891 52.0331 124.497 54.6847 125.866 57.0711C125.565 57.2595 125.255 57.438 124.932 57.6025C123.291 58.4381 121.401 58.9648 119.49 59.2505C117.9 59.488 116.296 59.5607 114.812 59.4992C112.235 59.3924 109.516 58.9935 106.993 58.2593C106.956 58.2293 106.893 58.2137 106.818 58.2102C106.439 58.0976 106.064 57.9771 105.696 57.8483ZM133.541 112.288C134.354 114.726 132.005 117.949 130.693 119.783C129.892 120.903 126.111 126.093 124.39 124.781C122.447 123.3 124.875 118.984 125.399 117.308C126.296 114.442 125.583 112.279 122.561 111.411C122.793 111.194 123.011 110.977 123.216 110.767C124.296 109.66 125.408 108.302 126.305 106.836C128.366 109.049 132.149 109.265 133.541 112.288ZM149.875 120.126C149.644 120.331 149.408 120.528 149.165 120.717C148.562 121.189 147.92 121.611 147.237 121.975C145.426 120.008 143.636 118.019 141.885 115.996C138.665 112.276 135.584 108.438 132.781 104.401C131.39 102.396 130.065 100.343 128.828 98.2299C126.548 94.3349 124.347 90.3618 122.428 86.2657C122.057 85.475 121.698 84.6789 121.35 83.8787C120.233 81.3071 119.24 78.6842 118.422 75.9985C118.424 75.9587 118.413 75.9249 118.392 75.8962C118.089 74.8935 117.806 73.8835 117.554 72.863C117.509 72.6822 116.583 72.9207 116.63 73.1107C116.879 74.121 117.158 75.125 117.457 76.1238C115.261 80.1444 114.485 84.7784 112.143 88.7257C112.078 88.8347 112.125 88.9625 112.224 89.0292C117.92 92.8591 122.88 97.5106 127.03 102.976C126.537 105.212 125.01 107.327 123.628 109.086C122.277 110.807 119.558 113.95 117.073 112.681C115.337 111.116 113.618 109.533 111.91 107.938C111.377 107.44 110.839 106.946 110.309 106.444C108.407 104.645 106.526 102.771 104.921 100.705C103.399 98.7454 102.125 96.6141 101.325 94.2048C100.221 90.8815 100.634 87.2208 101.052 83.8127C101.463 80.4604 101.975 77.0289 102.948 73.791C104.402 68.9603 106.753 64.0264 107.006 58.9189C109.673 59.6283 112.494 59.9889 115.207 60.051C118.793 60.133 123.03 59.386 126.175 57.5142C128.581 60.7671 130.259 64.4478 131.526 68.2806C132.8 72.1345 133.356 76.1646 134.604 80.0264C135.799 83.726 137.575 87.1953 139.849 90.3452C141.781 93.0207 144.18 95.2958 146.412 97.7118C149.791 101.37 153.081 105.111 156.341 108.875C156.472 109.026 156.257 109.717 156.198 109.968C155.902 111.226 155.339 112.415 154.74 113.552C154.653 113.717 154.563 113.881 154.474 114.045C154.379 114.115 154.318 114.204 154.33 114.306C153.137 116.448 151.693 118.508 149.875 120.126ZM162.792 130.935C160.86 133.337 157.745 131.164 156.391 129.331C154.163 126.314 154.151 122.214 150.994 119.81C150.98 119.799 150.964 119.791 150.947 119.784C152.057 118.697 153.011 117.442 154.007 116.042C154.194 115.779 154.381 115.508 154.566 115.232C155.147 116.83 156.54 118.169 157.7 119.312C159.294 120.882 161.104 122.244 162.605 123.907C162.606 123.909 162.607 123.911 162.608 123.913C163.875 126.054 164.482 128.833 162.792 130.935ZM32.4091 14.5841C32.815 14.3303 33.2521 14.272 33.721 14.2716C33.8811 14.2713 34.0944 14.3861 33.9786 14.5704C33.8562 14.7645 33.5833 14.8296 33.3707 14.8296C33.2619 14.8296 33.2151 14.8267 33.1178 14.841C33.0946 14.8445 33.0824 14.8458 33.0745 14.8461C33.0668 14.8496 33.0553 14.8541 33.0318 14.8624C33.0831 14.8446 32.9718 14.9048 32.9913 14.8927C32.813 15.0043 32.5331 15.0763 32.3351 14.9721C32.1391 14.8678 32.2749 14.6682 32.4091 14.5841ZM33.45 16.488C33.4564 16.6701 33.5501 16.8878 33.6321 17.0571C33.7322 17.265 33.4013 17.4576 33.2546 17.4968C33.0407 17.5542 32.8095 17.515 32.7078 17.3049C32.5937 17.0677 32.5229 16.8225 32.514 16.5588C32.5063 16.3315 32.8488 16.1995 33.0231 16.1861C33.2332 16.1702 33.4421 16.2575 33.45 16.488ZM31.152 22.6329C32.0122 23.1695 33.121 22.4187 33.6257 21.7491C33.6576 21.7067 33.6318 21.6838 33.5843 21.6701C33.6684 21.525 33.6286 21.3382 33.4392 21.2945C32.632 21.1083 31.8234 20.7787 31.4711 19.9695C31.4103 19.8296 31.2569 19.7734 31.0918 19.7744C31.0934 19.7613 31.094 19.7479 31.0959 19.7349C31.1109 19.6284 30.2115 19.703 30.172 19.9826C30.0409 20.9091 30.3043 22.1046 31.152 22.6329ZM32.7681 21.8639C32.7499 21.8805 32.7292 21.8942 32.7145 21.9133C32.5943 22.0727 32.477 22.2044 32.3313 22.337C32.1537 22.4607 32.1219 22.4824 32.2341 22.4021C32.1588 22.3861 32.0884 22.3584 32.0227 22.3192C31.7396 22.1767 31.5505 21.8904 31.4026 21.6219C31.3111 21.4555 31.2413 21.277 31.1874 21.0933C31.6213 21.4775 32.1764 21.7131 32.7681 21.8639ZM35.6556 17.3683C35.4461 17.0068 36.3417 16.7036 36.51 16.9934C36.81 17.5108 37.2758 18.0958 37.3428 18.7076C37.4167 19.3858 36.8241 19.6941 36.2139 19.7157C35.5785 19.7387 35.8475 19.1731 36.327 19.1559C36.365 19.1546 36.3902 19.1546 36.4106 19.1549C36.4236 19.0858 36.4316 19.0258 36.4188 18.955C36.3831 18.7558 36.3152 18.5648 36.2279 18.3824C36.0599 18.0311 35.8504 17.7046 35.6556 17.3683ZM36.3723 15.9891C36.283 15.8039 36.6548 15.6448 36.767 15.6145C36.9414 15.5679 37.2044 15.551 37.2962 15.7417C37.3998 15.9566 37.4738 16.1845 37.5781 16.3994C37.6677 16.585 37.2953 16.7444 37.1834 16.7743C37.0087 16.8209 36.7466 16.8378 36.6541 16.6475C36.5499 16.4323 36.4759 16.2046 36.3723 15.9891ZM104.467 17.2035C104.279 17.5267 103.159 19.1215 104.019 19.1524C104.181 19.1581 104.395 19.2694 104.278 19.4585C104.16 19.651 103.882 19.7275 103.671 19.7196C101.997 19.6593 103.156 17.924 103.6 17.1585C103.765 16.8722 104.699 16.8018 104.467 17.2035ZM106.137 14.5308C106.259 14.337 106.532 14.2713 106.745 14.2716C107.108 14.272 107.466 14.3083 107.78 14.5047C107.965 14.6204 107.851 14.7999 107.707 14.8924C107.541 14.9982 107.235 15.0865 107.051 14.9718C106.838 14.8391 106.639 14.8299 106.394 14.8296C106.234 14.8289 106.021 14.7151 106.137 14.5308ZM106.504 17.1285C106.591 16.9481 106.658 16.761 106.665 16.5588C106.679 16.1428 107.617 16.0054 107.601 16.4877C107.593 16.7434 107.497 17.0045 107.387 17.2331C107.286 17.4442 107.005 17.5421 106.786 17.5159C106.593 17.493 106.404 17.3374 106.504 17.1285ZM106.609 21.8273C106.519 21.8799 106.464 21.9293 106.483 21.9551C107.135 22.8191 108.027 23.0212 108.965 22.4359C109.817 21.9047 110.074 20.6575 109.944 19.7345C109.926 19.6115 109.492 19.6615 109.225 19.7798C109.003 19.7763 108.743 19.8716 108.666 20.047C108.332 20.8137 107.636 21.1153 106.864 21.2932C106.481 21.3819 106.433 21.6768 106.609 21.8273ZM109.013 20.9081C108.963 21.2241 108.865 21.5324 108.719 21.8282C108.663 21.9427 108.406 22.4247 108.257 22.3979C107.933 22.3396 107.662 22.0364 107.465 21.7813C108.046 21.6022 108.594 21.3261 109.013 20.9081ZM102.567 16.5033C102.671 16.2885 102.745 16.0605 102.849 15.8456C102.99 15.553 103.918 15.4643 103.714 15.8855C103.611 16.1004 103.537 16.3283 103.433 16.5432C103.291 16.8359 102.363 16.9251 102.567 16.5033Z" fill="#340679"/>
</svg>
