<svg width="26" height="26" viewBox="0 0 26 26" fill="none" xmlns="http://www.w3.org/2000/svg">
<path d="M7.66667 2.33333H4.33333C3.22876 2.33333 2.33333 3.22876 2.33333 4.33333V21.6667C2.33333 22.7712 3.22876 23.6667 4.33333 23.6667H7.66667V2.33333ZM9 2.33333V23.6667H21.6667C22.7712 23.6667 23.6667 22.7712 23.6667 21.6667V4.33333C23.6667 3.22876 22.7712 2.33333 21.6667 2.33333H9ZM1 4.33333C1 2.49238 2.49238 1 4.33333 1H21.6667C23.5076 1 25 2.49238 25 4.33333V21.6667C25 23.5076 23.5076 25 21.6667 25H4.33333C2.49238 25 1 23.5076 1 21.6667V4.33333ZM12.3333 7.66667C11.9651 7.66667 11.6667 7.36819 11.6667 7C11.6667 6.63181 11.9651 6.33333 12.3333 6.33333H20.3333C20.7015 6.33333 21 6.63181 21 7C21 7.36819 20.7015 7.66667 20.3333 7.66667H12.3333ZM12.3333 10.3333C11.9651 10.3333 11.6667 10.0349 11.6667 9.66667C11.6667 9.29848 11.9651 9 12.3333 9H20.3333C20.7015 9 21 9.29848 21 9.66667C21 10.0349 20.7015 10.3333 20.3333 10.3333H12.3333ZM12.3333 13C11.9651 13 11.6667 12.7015 11.6667 12.3333C11.6667 11.9651 11.9651 11.6667 12.3333 11.6667H17.6667C18.0349 11.6667 18.3333 11.9651 18.3333 12.3333C18.3333 12.7015 18.0349 13 17.6667 13H12.3333ZM12.3333 17C11.9651 17 11.6667 16.7015 11.6667 16.3333C11.6667 15.9651 11.9651 15.6667 12.3333 15.6667H20.3333C20.7015 15.6667 21 15.9651 21 16.3333C21 16.7015 20.7015 17 20.3333 17H12.3333ZM12.3333 19.6667C11.9651 19.6667 11.6667 19.3682 11.6667 19C11.6667 18.6318 11.9651 18.3333 12.3333 18.3333H17.6667C18.0349 18.3333 18.3333 18.6318 18.3333 19C18.3333 19.3682 18.0349 19.6667 17.6667 19.6667H12.3333Z" fill="#717171" stroke="#717171" stroke-width="0.5"/>
</svg>
