<svg width="96" height="96" viewBox="0 0 96 96" fill="none" xmlns="http://www.w3.org/2000/svg">
<path d="M26.9628 48.3895C26.5607 47.7731 26.1685 47.1431 25.7732 46.5123C27.2507 46.4319 28.785 46.3392 30.1292 45.6837C30.6182 46.8747 30.9768 48.1171 31.2799 49.2373C31.863 51.3935 32.2937 53.6652 32.445 55.9281C32.4065 56.1986 32.3597 56.4099 32.3132 56.5712C31.8977 55.644 31.213 54.7838 30.6895 53.9701C29.4789 52.089 28.185 50.263 26.9628 48.3895ZM35.1575 70.5032L35.1979 70.5153L35.1969 70.5062C35.1837 70.5052 35.1705 70.5044 35.1575 70.5032ZM32.9915 74.6366C32.8913 74.602 32.7924 74.5697 32.6946 74.5389C32.6678 74.5637 32.6259 74.5869 32.576 74.607C32.7763 74.6068 32.9358 74.7166 32.6309 74.8243C32.3284 74.9311 31.9708 74.8702 31.6583 74.8534C30.8207 74.8081 29.984 74.7484 29.1476 74.6855C26.6994 74.5016 24.2523 74.2921 21.8103 74.0382C20.0022 73.8503 18.2022 73.6153 16.4019 73.3651C15.7268 73.2714 15.0408 73.172 14.3633 73.0348C14.3625 73.1967 14.3597 73.5152 14.3507 73.8998C14.5029 75.9115 14.4238 78.2894 13.0225 79.6597C13.0423 79.6567 13.0624 79.6541 13.082 79.6513C13.8032 79.5257 15.2866 79.2664 16.8203 78.9958C19.6822 78.425 22.5249 77.7231 25.3512 77.0482C28.0776 76.3971 30.8005 75.7284 33.5154 75.0297L32.9915 74.6366ZM12.9266 79.1665C13.172 78.8283 13.3563 78.4407 13.4919 78.0214C13.2916 78.4507 13.0868 78.8574 12.9266 79.1665ZM32.1084 75.5926C33.0957 75.3478 33.7287 75.1895 33.7287 75.1895L33.7185 75.1819C33.1822 75.3201 32.6455 75.4566 32.1084 75.5926ZM52.1742 59.2646L52.8267 58.7626L54.2183 57.05C53.5641 57.8108 52.8825 58.5508 52.1742 59.2646ZM22.5185 46.7012C23.086 46.9592 23.7091 47.1395 24.3153 47.2999L22.5185 46.7012ZM13.8268 72.5324C13.9921 72.4665 14.2089 72.4637 14.2215 72.5746C14.2239 72.5949 14.2261 72.6161 14.2283 72.6365C15.4846 72.9406 16.7841 73.0801 18.0602 73.2644C19.9176 73.5326 21.7861 73.7261 23.654 73.9048C25.605 74.0915 27.5578 74.2598 29.5122 74.405C30.2322 74.4585 30.9521 74.511 31.6729 74.5531C31.8276 74.5621 31.9824 74.5697 32.1371 74.5771C32.0279 73.9279 32.1726 73.1632 32.2104 72.5177C32.2775 71.3731 32.3444 70.2282 32.3923 69.0825C30.9792 68.888 29.5416 68.3313 28.1794 67.9354C25.7528 67.2303 23.3302 66.5009 20.9393 65.6821C19.9839 65.355 19.0252 65.024 18.097 64.6244C17.681 64.4453 17.0714 64.2518 16.7775 63.8796C16.5044 63.534 16.7138 62.4757 16.7314 62.059C16.7687 61.1793 16.858 60.3007 16.9594 59.4265C17.233 57.0646 17.5768 54.7119 17.7785 52.3422C17.7929 52.1734 18.3731 52.0536 18.3559 52.2575C18.1539 54.6278 17.7998 56.9786 17.5365 59.3419C17.4199 60.3892 17.3047 61.4438 17.2909 62.4983C17.2867 62.8154 17.1242 63.5272 17.4097 63.7588C18.6017 64.7254 20.5244 65.1318 21.9466 65.6058C24.2225 66.3646 26.5191 67.0624 28.8239 67.7281C29.9349 68.049 31.099 68.4869 32.2545 68.7141C32.2393 68.6598 32.338 68.3209 32.3544 68.1981C32.4123 67.7641 32.4402 67.3262 32.4576 66.8889C32.5013 65.7983 32.5013 64.7059 32.4771 63.6147C32.4394 61.9169 32.467 60.0917 32.1844 58.3801C31.1491 57.3124 30.015 56.4135 28.7742 55.5892C27.5409 54.77 26.1843 53.9493 25.1504 52.8791C24.6171 52.3272 24.2323 51.7356 24.3112 50.9393C24.4166 49.8732 24.5949 48.9016 24.4354 47.8218C24.435 47.819 24.4361 47.8162 24.4358 47.8134C22.8553 47.3935 21.0567 46.9546 20.2344 45.4403C19.4082 43.9194 19.4445 41.9131 19.3046 40.1857C19.1538 40.2686 18.9703 40.3702 18.7619 40.4872C16.1296 42.096 13.1716 43.7908 11.596 46.3945C11.0545 47.2893 10.7111 48.2427 10.4769 49.2279C10.4759 49.2335 10.4749 49.2393 10.4739 49.2449C10.5821 49.2896 10.541 49.4168 10.4291 49.503C10.293 50.2989 10.1588 51.1879 10.0308 52.1078C10.023 52.1836 10.0152 52.2593 10.0078 52.3352C9.71889 55.2634 9.44564 58.195 9.33145 61.1363C9.22107 63.9801 8.6898 68.018 10.4685 70.4754C11.4561 71.3036 12.5035 71.9458 13.2635 72.3637C13.4498 72.425 13.6379 72.4805 13.8268 72.5324ZM24.9158 50.5996C24.8479 51.1835 24.9707 51.6665 25.233 52.0944C25.0947 51.6611 24.9597 51.127 24.9158 50.5996ZM21.2989 45.893C21.117 45.6703 20.9081 45.3856 20.7023 45.044C20.7023 45.0442 20.7025 45.0446 20.7027 45.0448C20.8554 45.376 21.0593 45.6543 21.2989 45.893ZM50.7412 51.1052C50.3157 50.7795 50.0221 50.616 50.0221 50.616L49.6951 50.8788C49.9846 50.7729 50.363 50.8938 50.7412 51.1052ZM54.16 56.2867C53.3774 54.7866 52.5073 53.0404 51.1028 52.0187C50.7208 51.7408 50.3127 51.4834 49.8552 51.3488C49.8466 51.3462 50.0447 51.1609 49.896 51.2753C49.7636 51.377 49.633 51.4814 49.5022 51.5852C48.1346 52.672 46.7637 53.7547 45.363 54.7987C44.6931 55.2979 39.1256 59.8107 37.9204 58.7473C37.8344 58.7517 37.7655 58.7349 37.7517 58.6858C37.2467 56.8777 36.929 55.0256 36.5694 53.1818C35.9049 50.7726 35.3313 48.4789 35.3313 48.4789L34.653 46.3396C33.8533 44.4382 32.67 42.6369 30.7837 42.1775C30.8806 42.4306 30.9794 42.7156 31.0599 43.0063C31.4237 43.923 31.5043 44.9687 31.2084 46.0886C31.2627 46.083 31.3123 46.0872 31.3492 46.1052C35.992 48.3731 34.5206 54.741 33.077 58.5769C33.0446 58.663 32.9268 58.7251 32.8048 58.754C33.0382 60.6535 33.0636 62.6017 33.0718 64.5002C33.0766 65.5788 33.0722 66.6619 32.9717 67.7367C32.9498 67.9713 32.9478 68.3251 32.8264 68.5759C32.9184 68.5693 32.9893 68.5783 32.9881 68.6057C32.9723 69.02 32.95 69.4339 32.929 69.848L33.3096 69.96C33.3138 69.96 33.3186 69.9598 33.3222 69.9602C33.9102 70.0357 34.5408 70.1765 35.1711 70.2612L34.9307 67.9777L34.9685 67.8765C34.5082 63.7387 34.5072 59.5424 34.6827 55.3934C34.6927 55.1546 35.2803 55.0557 35.2682 55.3396C35.1054 59.1927 35.0951 63.0837 35.4676 66.9314C35.8374 66.9895 36.9215 67.1459 38.1085 67.1926C38.2477 67.1864 38.3872 67.1766 38.5264 67.1598C41.0589 66.8545 43.4989 65.4069 45.6044 64.0352C48.8513 61.9195 51.7198 59.3093 54.1965 56.3338C54.1827 56.3204 54.1699 56.3053 54.16 56.2867Z" fill="#A358E7"/>
<path d="M28.5582 25.1331C29.1656 25.1417 29.7515 25.2827 30.2035 25.7104C30.4559 25.9492 29.9617 26.2511 29.76 26.0602C29.412 25.7309 28.9887 25.5928 28.5141 25.5862C28.1223 25.5806 28.2158 25.1283 28.5582 25.1331ZM27.7641 35.1581C27.7136 35.0664 28.0968 34.9057 28.2717 34.9532C28.2855 34.9522 28.3006 34.9492 28.3134 34.9492C28.659 34.9476 29.3407 34.8583 29.558 35.2124C29.7083 35.457 29.5414 35.6478 29.3299 35.7637C29.2133 35.8276 29.0893 35.8803 28.9574 35.9018C28.9262 35.9068 28.8955 35.906 28.8653 35.9078C28.7515 35.9555 28.5514 36.02 28.4682 35.9382C28.2172 35.6922 27.9364 35.4705 27.7641 35.1581ZM28.9957 35.656C28.9272 35.668 28.9621 35.693 28.9957 35.656V35.656ZM28.9973 35.6558C29.035 35.6524 29.0726 35.6498 29.1113 35.6518C29.0556 35.649 29.022 35.6518 28.9973 35.6558ZM28.4829 35.2056C28.6175 35.3723 28.783 35.5153 28.939 35.6626C28.9578 35.6596 28.9769 35.6574 28.9959 35.6556C29.0101 35.6401 29.0236 35.6145 29.0276 35.571C29.0338 35.5051 29.0234 35.4144 28.9725 35.3651C28.8483 35.2455 28.6674 35.2124 28.4829 35.2056ZM30.252 33.2534C30.2952 33.3063 30.2986 33.3808 30.2275 33.4722C29.8211 33.9942 29.0414 34.598 28.3595 34.1705C27.7152 33.7667 27.8771 32.8704 28.1253 32.284C28.1942 32.1212 28.4146 32.0653 28.5696 32.1186C29.1486 32.3183 29.7554 32.5995 30.2037 33.0258C30.283 33.1014 30.288 33.1829 30.252 33.2534ZM29.7011 33.3241C29.3769 33.0339 28.9839 32.8219 28.5782 32.6578C28.4626 33.0359 28.4007 33.5239 28.7152 33.7603C29.077 34.0323 29.4773 33.6046 29.7011 33.3241ZM20.1941 25.9556C21.6589 26.3593 22.3688 28.2803 22.6607 29.6004C23.101 31.5913 22.5728 33.8001 20.6145 34.7371C20.2678 34.9029 20.8111 34.8855 20.9505 34.8188C22.852 33.9091 23.5508 32.0599 23.338 30.0359C23.177 28.5044 22.3444 26.1888 20.6702 25.7275C20.5342 25.69 20.0212 25.908 20.1941 25.9556ZM31.1835 32.1895C33.2513 32.1111 32.558 29.9216 32.3749 28.5673C32.3382 28.2957 31.7562 28.4409 31.7945 28.7228C31.9123 29.5954 32.6603 31.7051 31.2336 31.7592C30.902 31.7718 30.7883 32.2045 31.1835 32.1895ZM29.166 28.1971C29.2686 28.3798 29.8247 28.1807 29.7463 28.0417C29.2095 27.0847 27.9209 27.18 27.1238 27.7322C27.0223 27.8025 27.0633 27.8984 27.1731 27.9161C27.317 27.9393 27.4668 27.8868 27.5836 27.8061C28.1167 27.4369 28.8549 27.6428 29.166 28.1971ZM78.4429 56.4128C78.3834 56.4068 78.3626 56.4289 78.4429 56.4128V56.4128ZM92.2355 65.1081C92.1452 65.1774 91.7347 65.2341 91.7293 65.1478C91.7177 65.15 91.7061 65.152 91.6949 65.155C91.4687 65.2153 91.2429 65.278 91.0177 65.3423C90.3665 65.5282 89.7162 65.7189 89.0669 65.9114C87.1043 66.493 85.1443 67.084 83.1845 67.6747C83.2069 69.6484 83.2273 71.622 83.2336 73.5959C83.236 74.3583 83.2398 75.121 83.2267 75.8832C83.2263 75.9113 83.229 75.9559 83.232 76.0064C84.4059 76.0976 85.5814 76.1863 86.7513 76.3173C86.9651 76.3414 87.4793 76.3249 87.8173 76.4189C87.9801 76.3408 88.2432 76.3043 88.2708 76.4031C88.4143 76.9157 88.405 77.5313 88.4483 78.0592C88.4712 78.3386 88.6767 79.1778 88.3263 79.3331C88.2223 79.3789 87.9263 79.3884 87.8772 79.3367C87.8041 79.3595 87.7309 79.3826 87.6582 79.4064C87.3419 79.5108 87.027 79.6183 86.7121 79.7271C85.8328 80.0308 84.955 80.3385 84.0741 80.6378C82.666 81.1164 81.1952 81.7264 79.7114 81.9207C79.4966 81.949 79.4469 81.8518 79.4926 81.7498C78.9798 81.9424 78.3666 81.7424 77.8475 81.6815C76.7736 81.5555 75.6986 81.4365 74.6228 81.3257C73.4699 81.2071 72.3162 81.0934 71.1617 80.9906C70.4231 80.9249 69.5234 80.9904 68.8101 80.7921C68.0711 80.5867 68.4821 78.9855 68.5943 78.4556C68.613 78.3679 68.8055 78.2996 68.9629 78.2848C68.9727 78.185 69.0975 78.0632 69.2658 78.0488C69.5675 78.0229 70.3797 77.6737 70.8092 77.5281C71.84 77.1787 72.8719 76.8318 73.9117 76.5094C74.8596 76.2154 75.8188 75.9064 76.796 75.7237C77.0827 75.6701 77.5502 75.5374 77.8788 75.6372C77.8792 75.6015 77.88 75.5653 77.88 75.5302C77.8788 74.8876 77.8822 74.2451 77.8884 73.6025C75.9197 73.7132 73.9279 74.3331 72.0342 74.8299C69.0863 75.6031 66.1585 76.4515 63.2361 77.3144C60.509 78.1197 57.7878 78.945 55.0615 79.753C53.7385 80.145 52.3517 80.6941 50.9752 80.8692C50.7404 80.899 50.7025 80.7801 50.7713 80.6691C50.605 80.752 50.4015 80.7873 50.1508 80.7566C47.9697 80.4894 45.7807 80.2814 43.5931 80.0739C41.3594 79.8619 39.1247 79.6556 36.8881 79.4743C36.3854 79.4336 35.5779 79.5791 35.5018 78.9014C35.4331 78.2886 35.525 77.6541 35.6522 77.0537C35.6851 76.8991 36.2592 76.8039 36.2266 76.9582C36.2266 76.9586 36.2264 76.959 36.2264 76.9594C36.6022 76.8957 36.966 76.7917 37.335 76.6825C39.1332 76.1512 40.9287 75.612 42.7281 75.0849C42.7695 75.0727 42.8066 75.0679 42.8402 75.0667C42.5091 74.3451 42.2264 73.5261 41.6992 73.191C40.719 73.2839 40.0448 74.3914 39.3389 74.9535C38.9272 75.2814 38.5151 75.519 38.0081 75.664C36.7318 76.0294 35.3199 75.514 34.0139 75.0154C34.0131 75.0623 33.943 75.1238 33.7866 75.1642C33.7637 75.17 33.7409 75.1758 33.7183 75.1817C33.182 75.3199 32.6451 75.4563 32.1082 75.5923C29.801 76.1771 27.4888 76.7432 25.1732 77.2935C21.0647 78.2699 16.9227 79.3084 12.7366 79.911C12.6629 79.9689 12.5868 80.0248 12.5068 80.0779C12.3442 80.1855 11.9083 80.1428 12.0853 79.9691C12.0052 79.9212 12.1957 79.7804 12.3726 79.7528C12.585 79.5815 12.7683 79.3842 12.9263 79.1664C13.1717 78.8282 13.356 78.4406 13.4917 78.0213C14.0141 76.4063 13.82 74.3319 13.6569 72.8751C12.8973 72.6838 12.1575 72.4281 11.4671 72.0569C7.7965 70.0825 8.60623 64.7059 8.75047 61.2919C8.86546 58.5714 9.09303 55.8595 9.35867 53.1501C9.47326 51.98 9.57182 50.7812 9.81362 49.6211C8.15509 49.7203 6.46211 49.186 5.26274 47.9952C4.24627 46.9864 3.21718 45.2383 3.76328 43.749C4.27753 42.3469 5.15957 41.1031 5.7836 39.7501C6.0893 39.0872 6.40502 38.4203 6.24996 37.6821C6.02299 36.6011 5.76557 35.5197 5.62674 34.4225C5.44685 32.9984 5.38595 31.5078 6.33591 30.332C6.88621 29.6509 7.69454 29.2274 8.51188 28.9187C9.20081 28.6198 9.94363 28.4049 10.6568 28.2127C11.5198 27.9804 12.2476 27.6815 12.8468 27.3499C13.605 26.9026 14.2086 26.2954 14.5097 25.3769C14.4588 18.8734 21.7598 11.4506 28.2805 15.1719C28.3587 15.2164 28.3679 15.2713 28.3384 15.324C29.883 15.6101 31.3598 16.3595 32.5253 17.4799C32.5642 17.5172 32.5744 17.5561 32.5652 17.5933C34.8109 18.4722 36.4077 20.2533 35.4824 22.9381C35.1903 23.7855 34.765 24.373 34.2549 24.7519C35.0144 25.7765 35.5567 27.0841 35.7576 28.4191C35.8295 28.735 35.8558 29.0641 35.8419 29.3977C35.876 31.053 35.3359 32.6508 33.9899 33.7022C34.0294 33.706 34.066 33.716 34.0963 33.7358C36.4171 35.2615 37.9618 37.9796 37.97 40.7796C37.9763 42.8926 37.0515 44.9508 34.8493 45.3781C35.4225 46.5202 35.8293 47.759 36.1434 48.8108C37.0686 51.9068 37.4181 55.1277 38.2533 58.2378C38.2747 58.2541 38.2934 58.2743 38.3062 58.3011C38.7918 59.3086 46.1681 53.609 46.8887 53.0487C47.7779 52.3574 48.6344 51.5451 49.5805 50.932C49.6164 50.9088 49.6552 50.893 49.6945 50.8786C49.984 50.7728 50.3624 50.8936 50.7406 51.1049C50.8097 51.1436 50.8788 51.1843 50.9473 51.2281C51.484 50.5144 51.5351 49.3581 51.6305 48.5145C51.7499 47.4593 51.8276 46.399 51.9686 45.3465C52.1205 44.2116 52.2693 42.0763 53.8131 42.012C54.3009 41.9916 54.5839 42.6731 54.7446 43.0321C54.9575 43.5081 55.137 43.9999 55.2947 44.4987C55.9195 43.7643 56.4496 42.9461 57.1213 42.2492C57.576 41.7774 58.282 40.9957 59.0162 41.2996C60.0351 41.7213 59.5691 43.0785 58.9531 44.2631C59.5555 43.5123 60.3536 42.9273 61.2943 42.6442C61.4115 42.609 61.5902 42.6258 61.6365 42.7598C61.8068 43.2536 61.7809 43.7875 61.6367 44.3248C61.9172 44.084 62.2335 43.8975 62.6045 43.8015C63.0037 43.6982 63.8451 43.4966 64.1336 43.9428C64.4842 44.4847 63.6939 45.051 63.3247 45.3134C63.3108 45.3232 63.2898 45.3326 63.265 45.3413C64.6995 45.0039 66.1427 44.422 67.5079 44.0023C70.6994 43.0215 73.8846 42.02 77.071 41.0236C80.0143 40.1031 82.9559 39.1765 85.9101 38.2917C87.0594 37.9475 88.0066 37.6352 89.22 37.8303C89.4486 37.8672 91.0041 38.1326 91.6614 38.468C91.895 38.4478 92.3403 38.482 92.0875 38.6901C92.1105 38.6986 92.1252 38.7112 92.1256 38.7292C92.1256 38.7296 92.1256 38.73 92.1256 38.7306C92.1923 43.238 92.2385 47.746 92.2828 52.2538C92.3123 55.2583 92.3409 58.2629 92.3483 61.2674C92.3507 62.2148 92.3541 63.1625 92.3409 64.1097C92.3381 64.3264 92.4391 64.9517 92.2355 65.1081ZM62.6894 45.8148C63.1816 45.8437 63.6738 45.8775 64.164 45.927C64.383 45.9491 65.3181 45.9451 65.5954 46.1704C65.6186 46.1642 65.6427 46.1576 65.6657 46.1516C71.0846 44.7243 76.4308 42.9856 81.7934 41.3635C84.4031 40.5742 87.0112 39.7783 89.6299 39.0185C90.0277 38.9031 90.426 38.7839 90.8262 38.6731C90.3534 38.5349 89.7256 38.3556 89.6092 38.3288C88.8772 38.1611 88.134 38.0028 87.398 38.2162C86.3054 38.5333 85.2166 38.8636 84.1288 39.197C81.1928 40.0967 78.263 41.0162 75.3324 41.9331C72.394 42.8526 69.4563 43.7761 66.5105 44.6722C65.2747 45.0488 63.9803 45.5602 62.6894 45.8148ZM64.7392 46.7047C64.4984 46.6979 64.5637 46.4785 64.7472 46.3792C64.7656 46.3421 64.8079 46.3101 64.8626 46.284C64.4181 46.1546 63.4585 46.1508 63.2704 46.1358C62.9559 46.1107 62.6409 46.0895 62.3262 46.0701C62.4809 46.2948 62.3685 46.9279 62.3681 47.1773C62.3665 48.1693 62.3535 49.1611 62.3403 50.1532C62.3002 53.1144 62.2477 56.0755 62.2002 59.0365C62.1527 62.0148 62.1037 64.9933 62.0838 67.972C62.0772 68.9861 62.0698 70.0005 62.086 71.0146C62.0904 71.2941 62.0942 71.5741 62.1107 71.8534C62.1153 71.9323 62.1191 72.0119 62.1299 72.0902C62.1321 72.1064 62.1337 72.119 62.1349 72.13C62.18 72.1379 62.2058 72.1593 62.1908 72.2046C62.1826 72.2296 62.165 72.2506 62.1439 72.2703C62.3298 72.1945 62.3855 72.2603 62.7047 72.326C63.0314 72.3933 63.3599 72.4506 63.6901 72.4985C63.876 72.5255 64.3814 72.4422 64.2993 72.7082C64.3139 72.6701 64.3265 72.6311 64.3357 72.5914C64.3954 72.334 64.4247 72.0687 64.4495 71.8061C64.5421 70.8267 64.5807 69.8419 64.6146 68.8589C64.7192 65.8243 64.7454 62.7869 64.7614 59.7509C64.7845 55.4028 64.7933 51.0526 64.7392 46.7047ZM51.1234 51.3455C51.5513 51.6436 51.9354 51.997 52.1299 52.1835C53.0316 53.0481 53.6917 54.1521 54.285 55.2581C54.3117 55.2373 54.3503 55.2153 54.407 55.192C57.2 54.0484 59.6959 52.9872 61.4314 50.3833C61.4724 50.3216 61.6255 50.2712 61.7599 50.2557C61.7703 49.4895 61.7793 48.723 61.7837 47.9566C61.6265 48.3999 61.4229 48.8037 61.0896 49.1455C60.99 49.2477 60.848 49.2998 60.7054 49.2998C60.6375 49.2998 60.452 49.2487 60.5525 49.1455C60.8863 48.8033 61.0804 48.4075 61.2328 47.9586C61.2833 47.8099 61.6718 47.7308 61.7851 47.8027C61.7855 47.7049 61.7869 47.6074 61.7873 47.5096C61.7881 47.2009 61.7897 46.8922 61.7829 46.5837C61.7745 46.1933 61.69 46.3631 62.0754 46.2688C61.7345 46.3523 61.6768 46.1478 62.0205 46.0637C62.0213 46.0635 62.0221 46.0633 62.0231 46.0631C62.0322 46.0608 62.045 46.0576 62.0594 46.0542C61.9969 46.0508 61.9344 46.0464 61.8721 46.0432C61.7122 46.0352 61.7928 45.9605 61.922 45.8938C61.7809 45.8181 61.9338 45.576 62.169 45.5454C62.4825 45.5047 62.7976 45.4462 63.1131 45.3759C62.9204 45.4046 62.7032 45.3887 62.8733 45.2677C63.1039 45.1039 64.1755 44.1756 63.3455 43.9798C62.6259 43.8099 62.1123 44.2869 61.7264 44.8088C61.1156 45.6349 60.6629 46.5675 60.0357 47.3812C60.0008 47.4267 59.8996 47.4652 59.7937 47.487C59.7488 47.5429 59.7045 47.5976 59.6619 47.6499C59.4996 47.8486 58.9461 47.7709 59.1781 47.4864C60.0239 46.4493 61.4322 44.6003 61.1154 43.1298C59.7887 43.6571 58.8405 44.963 58.4869 46.3181C58.422 46.5665 57.8282 46.6384 57.8996 46.3651C57.9545 46.1548 58.0218 45.9473 58.1005 45.7441C58.037 45.8517 57.9831 45.9453 57.9438 46.0202C57.83 46.2379 57.2415 46.248 57.3909 45.9617C57.7627 45.2495 59.8163 42.3806 58.7333 41.7195C57.9739 41.2562 55.9468 44.5015 55.4557 45.0197C55.4545 45.0211 55.4527 45.0221 55.4515 45.0233C55.5317 45.307 55.6078 45.5915 55.6769 45.8767C55.9269 46.9092 56.1465 47.9642 56.2228 49.0257C56.2619 49.5692 56.369 50.3691 56.0269 50.8479C55.9255 50.9897 55.4053 51.0138 55.4533 50.9465C55.7855 50.4817 55.6889 49.7146 55.6423 49.1812C55.5617 48.2593 55.4041 47.3433 55.1937 46.4423C54.984 45.5438 54.7464 44.6429 54.412 43.7815C54.276 43.4309 53.9613 42.3486 53.5059 42.2602C53.1379 42.1889 52.7685 43.8825 52.7275 44.095C52.5354 45.0915 52.4416 46.1023 52.342 47.111C52.2178 48.3674 52.2739 50.1886 51.448 51.2291C51.4053 51.2834 51.2553 51.3289 51.1234 51.3455ZM48.3938 69.914C48.4839 69.8854 48.5718 69.8691 48.6177 69.8822C49.0204 69.9955 50.5301 69.3633 51.0798 69.1998C52.5342 68.7671 53.9835 68.3174 55.4311 67.8626C57.4646 67.2238 59.4956 66.5763 61.5233 65.919C61.5456 63.8747 61.5776 61.8303 61.6101 59.7862C61.6583 56.7422 61.7128 53.698 61.7547 50.654C59.9567 53.1503 57.4178 54.2186 54.6188 55.3647C54.5342 55.3994 54.4345 55.4066 54.3583 55.3948C54.4703 55.6053 54.5809 55.8157 54.6895 56.024C54.7149 56.0729 54.7187 56.12 54.7083 56.1632C54.8093 56.2039 54.8582 56.2898 54.7552 56.4142C54.5785 56.6278 54.3992 56.8395 54.2181 57.0499C53.5638 57.8107 52.8823 58.5508 52.174 59.2645C50.2188 61.2346 48.06 63.0061 45.7083 64.4747C43.6694 65.748 41.4628 67.0453 39.0737 67.4948C38.3621 67.6287 37.6195 67.6581 36.8985 67.5876C36.4936 67.5481 35.9317 67.3666 35.5204 67.4666C35.617 68.3749 35.7352 69.2806 35.879 70.1826C35.8874 70.2355 35.8686 70.2832 35.8345 70.3243C36.1849 70.3411 36.5303 70.3277 36.8628 70.2602C38.2215 69.9845 39.062 68.9915 40.2031 68.3234C41.2132 67.732 42.1489 67.605 43.1367 68.0083C43.5634 67.825 44.035 67.6944 44.5012 67.7653C44.745 67.8023 44.9808 67.8688 45.2143 67.944C45.26 67.9269 45.3047 67.9161 45.3419 67.9161C46.8522 67.9119 47.7409 68.788 48.3938 69.914ZM34.653 46.3395C33.8533 44.4382 32.6699 42.6368 30.7836 42.1775C30.7247 42.163 30.666 42.148 30.6058 42.1364C30.7858 42.4109 30.9389 42.7011 31.0599 43.0062C31.4237 43.9229 31.5042 44.9687 31.2083 46.0885C31.2626 46.0829 31.3123 46.0871 31.3492 46.1051C35.992 48.373 34.5206 54.7409 33.077 58.5768C33.0446 58.6629 32.9268 58.725 32.8048 58.7539C33.0381 60.6534 33.0636 62.6016 33.0718 64.5001C33.0766 65.5787 33.0722 66.6619 32.9716 67.7366C32.9498 67.9712 32.9478 68.325 32.8264 68.5758C32.9183 68.5692 32.9893 68.5782 32.9881 68.6057C32.9722 69.0199 32.95 69.4338 32.929 69.8479C32.9248 69.9314 32.9214 70.0152 32.9169 70.0987C33.0167 70.03 33.2218 69.9575 33.3096 69.9599C33.3138 69.9599 33.3186 69.9597 33.3222 69.9601C33.9102 70.0356 34.5408 70.1764 35.171 70.2612C35.2105 70.2666 35.25 70.272 35.2894 70.2768C35.1634 69.4795 35.0579 68.6788 34.9685 67.8765C34.5082 63.7387 34.5072 59.5424 34.6826 55.3934C34.6927 55.1546 35.2802 55.0556 35.2682 55.3395C35.1053 59.1926 35.0951 63.0836 35.4675 66.9313C35.4715 66.9726 35.4755 67.0138 35.4796 67.0551C35.7995 66.9898 36.136 67.0511 36.4556 67.094C37.0039 67.1673 37.5562 67.2172 38.1085 67.1923C38.2477 67.1861 38.3871 67.1763 38.5264 67.1595C41.0589 66.8542 43.4989 65.4066 45.6044 64.035C48.8513 61.9193 51.7198 59.309 54.1965 56.3335C54.1825 56.3201 54.1696 56.3051 54.1598 56.2864C53.3771 54.7864 52.5071 53.0401 51.1026 52.0184C50.7206 51.7406 50.3125 51.4831 49.855 51.3485C49.8463 51.3459 50.0445 51.1606 49.8958 51.275C49.7634 51.3768 49.6328 51.4811 49.502 51.5849C48.1343 52.6717 46.7635 53.7545 45.3628 54.7984C44.6929 55.2976 39.1253 59.8104 37.9202 58.7471C37.8342 58.7515 37.7653 58.7346 37.7515 58.6856C37.2465 56.8774 36.9287 55.0254 36.5691 53.1815C36.3209 51.909 36.0531 50.6408 35.6895 49.3939C35.4261 48.4898 35.0989 47.3994 34.653 46.3395ZM25.2331 52.0946C25.4399 52.4321 25.7325 52.7356 26.0853 53.0281C28.0001 54.6155 30.1596 55.8229 32.0014 57.475C31.9966 57.4553 31.9926 57.4353 31.9876 57.4157C31.86 56.9061 31.5563 56.4721 31.2891 56.0246C30.7169 55.0668 30.1186 54.1255 29.4993 53.1972C28.4073 51.5603 27.2765 49.9484 26.2177 48.2897C24.3839 45.417 22.6803 42.2887 19.9008 40.2201C20.023 41.8273 20.034 43.5944 20.7023 45.0442C20.7023 45.0444 20.7025 45.0448 20.7027 45.045C20.8553 45.3759 21.0593 45.6544 21.2989 45.8932C21.6426 46.2355 22.0623 46.4938 22.5185 46.7013C23.086 46.9593 23.709 47.1396 24.3152 47.3001C24.6329 47.3842 24.9459 47.4635 25.2427 47.5467C25.5356 47.6286 25.286 47.8953 25.048 47.9429C25.1402 48.8382 25.0366 49.6598 24.9194 50.5604C24.9176 50.5739 24.9172 50.5865 24.9156 50.5999C24.8479 51.1835 24.9707 51.6665 25.2331 52.0946ZM22.1356 35.0676C21.7134 35.1638 21.3025 35.1998 20.9074 35.1862C20.9351 35.8793 20.6877 36.6762 20.5779 37.3419C20.4533 38.0982 20.3457 38.8612 20.1945 39.6127C20.1828 39.6704 20.1434 39.7186 20.0909 39.7567C20.0911 39.7569 20.0915 39.7569 20.0919 39.7571C22.4566 41.3842 24.0416 43.7579 25.5503 46.1568C27.0449 46.0739 28.6281 46.0404 29.9867 45.3459C29.2848 43.7366 28.3246 42.2556 26.9165 41.3417C26.7588 41.3966 26.5629 41.417 26.5377 41.3389C26.0034 39.694 25.4619 37.721 26.1911 36.055C26.2474 35.9266 26.5962 35.8435 26.7158 35.891C27.5467 36.2215 28.6483 36.6137 29.676 36.6368C30.0538 36.6045 30.4549 36.5484 30.8542 36.4573C31.027 36.3922 31.1929 36.3092 31.3482 36.2023C32.4608 35.436 32.728 34.1509 32.8797 32.8894C33.1543 30.6039 33.185 28.2807 33.0804 25.9779C33.0183 26.0252 32.9348 26.0534 32.8665 26.0632C32.8665 26.0632 32.8663 26.0632 32.8663 26.0634C32.859 26.0692 32.8504 26.076 32.8466 26.0798C32.7455 26.1786 32.5734 26.2261 32.4362 26.1898C32.314 26.1574 32.2815 26.0438 32.3733 25.9544C32.5147 25.8166 32.7086 25.718 32.9069 25.7046C32.9494 25.7018 33.0139 25.7046 33.0682 25.7221C33.0606 25.5684 33.0516 25.4152 33.0428 25.2617C31.1248 25.5852 28.6946 24.1715 27.2262 22.5432C27.0782 24.3756 25.6488 25.6842 23.7924 26.2549C25.2668 27.8534 25.5909 30.8367 24.6376 32.9081C24.6398 32.9107 24.643 32.9127 24.645 32.9157C25.3167 33.9343 26.6523 34.4412 27.7613 34.8194C27.9877 34.8965 27.4606 35.1435 27.2959 35.0874C26.2909 34.7447 25.0799 34.2821 24.3461 33.4487C23.8435 34.2475 23.11 34.8454 22.1356 35.0676ZM30.1292 45.6836C28.785 46.3391 27.2504 46.4317 25.7732 46.5122C26.1683 47.143 26.5607 47.7731 26.9628 48.3895C28.185 50.2629 29.4791 52.0889 30.6895 53.97C31.2129 54.7838 31.8979 55.644 32.3132 56.5711C32.3823 56.7256 32.4438 56.8818 32.4961 57.0401C32.4868 56.6699 32.4698 56.2993 32.4452 55.928C32.2939 53.6651 31.8632 51.3934 31.2801 49.2373C30.977 48.117 30.6184 46.8746 30.1292 45.6836ZM33.0818 56.9103C34.19 53.2639 34.7574 48.4718 31.0801 46.506C31.3604 47.3005 31.5932 48.0936 31.7939 48.8356C32.4985 51.4405 33.0065 54.1876 33.0818 56.9103ZM26.7646 40.0051C26.8454 40.3068 26.9337 40.6031 27.0245 40.8904C27.099 40.8781 27.1721 40.8845 27.227 40.918C28.8913 41.9331 29.9773 43.7244 30.743 45.6127C31.1543 42.9459 29.3647 40.7585 26.7646 40.0051ZM26.831 39.6159C26.8472 39.6199 26.8628 39.6245 26.8788 39.6285C26.7949 39.5682 26.708 39.5003 26.6234 39.4242C26.6384 39.4929 26.6535 39.5616 26.6697 39.6301C26.7308 39.6129 26.7893 39.6056 26.831 39.6159ZM28.0067 36.6534C27.8212 36.6153 27.6375 36.5709 27.4558 36.5222L27.6852 36.6266C27.6854 36.6266 27.8048 36.6404 28.0067 36.6534ZM34.0348 24.4235C34.0783 24.3873 34.1205 24.3484 34.162 24.3077C34.0576 24.3462 33.9955 24.3061 33.9955 24.3061L34.0348 24.4235ZM20.3255 35.1259C20.255 35.1135 20.1856 35.0989 20.1167 35.083C20.1907 35.1355 20.2606 35.1842 20.3253 35.2287C20.31 35.1958 20.3123 35.1606 20.3255 35.1259ZM35.646 44.6956C35.2782 44.8657 34.9974 44.9402 34.9974 44.9402C34.9974 44.9402 34.8169 44.9598 34.6175 44.9372C34.6324 44.9636 34.647 44.9903 34.6616 45.0169C34.6865 45.0073 34.7119 44.9993 34.7397 44.9951C35.0787 44.9436 35.3794 44.8396 35.646 44.6956ZM34.0188 33.0679C33.7842 33.2676 33.5658 33.4241 33.3999 33.5339C33.3951 33.5581 33.3909 33.5828 33.3859 33.607C33.6207 33.4429 33.8318 33.263 34.0188 33.0679ZM22.1967 17.5735C19.9731 19.7436 20.0887 22.7594 19.5917 25.6165C19.7493 25.6389 19.8543 25.7243 19.6506 25.8473C16.1887 27.9381 17.1058 36.1718 22.0533 34.7599C25.8539 33.6751 25.2688 25.6758 21.2069 25.4911C21.037 25.5836 20.7592 25.6003 20.7554 25.4811C20.6748 23.0164 21.4569 20.337 23.1485 18.4938C24.7439 16.7553 26.8448 15.9668 29.1213 15.9949C26.7678 15.2224 24.1299 15.687 22.1967 17.5735ZM7.97199 49.0205C7.75544 48.9442 7.52987 48.8584 7.29408 48.7585C7.51384 48.8606 7.74021 48.948 7.97199 49.0205ZM13.2633 72.3636C13.4498 72.4247 13.6379 72.4804 13.8268 72.5321C13.9921 72.4662 14.2088 72.4634 14.2215 72.5744C14.2239 72.5946 14.2261 72.6158 14.2283 72.6363C15.4845 72.9404 16.7841 73.0798 18.0602 73.2641C19.9176 73.5323 21.7861 73.7259 23.6539 73.9046C25.6049 74.0913 27.5577 74.2595 29.5122 74.4048C30.2321 74.4583 30.9521 74.5108 31.6729 74.5528C31.8276 74.5618 31.9824 74.5695 32.1371 74.5769C32.0279 73.9276 32.1725 73.1629 32.2104 72.5175C32.2775 71.3728 32.3444 70.2279 32.3923 69.0822C30.9792 68.8877 29.5416 68.331 28.1794 67.9352C25.7528 67.23 23.3302 66.5006 20.9393 65.6819C19.9839 65.3547 19.0251 65.0238 18.097 64.6241C17.6809 64.445 17.0713 64.2515 16.7774 63.8793C16.5044 63.5337 16.7137 62.4754 16.7314 62.0587C16.7686 61.1791 16.858 60.3004 16.9593 59.4262C17.233 57.0643 17.5768 54.7116 17.7785 52.342C17.7929 52.1731 18.3731 52.0533 18.3558 52.2572C18.1539 54.6275 17.7997 56.9784 17.5365 59.3417C17.4199 60.389 17.3047 61.4435 17.2909 62.498C17.2867 62.8152 17.1242 63.5269 17.4097 63.7585C18.6016 64.7251 20.5244 65.1316 21.9465 65.6055C24.2225 66.3644 26.519 67.0621 28.8238 67.7278C29.9348 68.0487 31.099 68.4867 32.2545 68.7138C32.2392 68.6595 32.338 68.3206 32.3544 68.1978C32.4123 67.7639 32.4402 67.326 32.4576 66.8886C32.5013 65.7981 32.5013 64.7057 32.477 63.6145C32.4394 61.9167 32.467 60.0915 32.1843 58.3799C31.149 57.3121 30.015 56.4132 28.7741 55.5889C27.5409 54.7697 26.1843 53.949 25.1504 52.8788C24.6171 52.3269 24.2323 51.7354 24.3112 50.9391C24.4166 49.8729 24.5949 48.9013 24.4354 47.8215C24.435 47.8187 24.436 47.8159 24.4358 47.8131C22.8552 47.3932 21.0567 46.9543 20.2343 45.44C19.4082 43.9191 19.4444 41.9128 19.3046 40.1854C19.1538 40.2683 18.9702 40.3699 18.7619 40.4869C16.1296 42.0957 13.1715 43.7905 11.5959 46.3942C11.0545 47.2891 10.7111 48.2424 10.4769 49.2276C10.4757 49.2331 10.4741 49.2387 10.4727 49.2443C10.4731 49.2443 10.4733 49.2447 10.4739 49.2449C10.5821 49.2895 10.541 49.4168 10.429 49.5029C10.4238 49.5071 10.418 49.5107 10.4124 49.5147C10.2293 50.3631 10.1199 51.2329 10.0306 52.108C10.0228 52.1837 10.0149 52.2594 10.0075 52.3354C9.71866 55.2636 9.44541 58.1952 9.33122 61.1364C9.22084 63.9803 8.68957 68.0181 10.4683 70.4755C10.9691 71.1673 11.6524 71.734 12.5802 72.1134C12.8055 72.2056 13.0333 72.2883 13.2633 72.3636ZM33.8493 74.9527C33.556 74.8405 33.2697 74.7325 32.9915 74.6364C32.8913 74.6017 32.7923 74.5694 32.6946 74.5386C32.6677 74.5634 32.6259 74.5867 32.576 74.6067C32.7763 74.6065 32.9358 74.7163 32.6309 74.8241C32.3284 74.9308 31.9708 74.8699 31.6583 74.8531C30.8207 74.8078 29.9839 74.7481 29.1476 74.6852C26.6993 74.5013 24.2523 74.2918 21.8103 74.038C20.0021 73.8501 18.2022 73.6151 16.4018 73.3649C15.7267 73.2711 15.0408 73.1718 14.3633 73.0345C14.332 73.0281 14.301 73.0219 14.2699 73.0155C14.2998 73.2986 14.3278 73.5948 14.3509 73.8995C14.5031 75.9113 14.424 78.2892 13.0227 79.6594C13.0425 79.6564 13.0625 79.6538 13.0822 79.651C14.3322 79.4661 15.5781 79.2431 16.8205 78.9955C19.6824 78.4248 22.5251 77.7228 25.3513 77.0479C28.0778 76.3968 30.8007 75.7282 33.5155 75.0294C33.5889 75.0106 33.6624 74.9921 33.7359 74.9733C33.7782 74.9623 33.816 74.9557 33.8493 74.9527ZM50.7753 79.8754C50.8426 79.5062 50.8814 79.1287 50.8927 78.7517C50.8618 78.7559 50.8308 78.7625 50.7999 78.7665C50.4008 78.8172 50.5681 78.4376 50.867 78.3997C50.876 78.3985 50.885 78.3965 50.8941 78.3953C50.8941 78.3949 50.8941 78.3945 50.8941 78.3939C50.3494 78.2407 48.7323 78.2136 48.4474 78.1874C46.7174 78.0285 44.9854 77.8905 43.2529 77.7571C41.0056 77.584 38.7579 77.4195 36.5092 77.2629C36.3904 77.2885 36.2707 77.3108 36.1501 77.3298C36.0581 77.7967 35.9872 78.301 36.0825 78.7457C36.2132 79.3547 37.2759 79.2199 37.7845 79.2626C39.6702 79.4208 41.5547 79.5911 43.4386 79.769C45.3852 79.9527 47.332 80.1394 49.2752 80.3564C49.6384 80.3968 50.0016 80.4377 50.3644 80.4822C50.6627 80.5188 50.7116 80.2245 50.7753 79.8754ZM77.8928 73.2417C77.8984 72.728 77.9048 72.2142 77.9124 71.7005C77.9138 71.6076 77.916 71.5146 77.9172 71.4215C75.963 71.5557 73.9876 72.1719 72.1089 72.6649C69.1731 73.4356 66.2563 74.2782 63.3447 75.1356C60.5545 75.9571 57.7706 76.7993 54.9816 77.6243C53.8463 77.9602 52.6646 78.4074 51.4822 78.6494C51.4794 79.3142 51.4035 80.1127 50.9902 80.5128C51.007 80.5084 51.0243 80.5046 51.0419 80.5024C52.5235 80.3139 54.0354 79.6943 55.4594 79.2704C58.2379 78.443 61.0127 77.6028 63.7942 76.7857C66.6864 75.9363 69.5829 75.0951 72.5031 74.3473C74.251 73.8996 76.0792 73.3541 77.8928 73.2417ZM75.8691 54.8775C75.8408 54.8663 75.8446 54.8445 75.8689 54.8192C75.8689 54.815 75.8689 54.811 75.8689 54.8068C75.8689 54.8004 75.8711 54.7944 75.8723 54.7884C75.855 54.785 75.8388 54.7822 75.8278 54.7806C75.7735 54.7729 75.7186 54.7685 75.6639 54.7629C75.7569 55.1662 75.6335 55.8962 75.6347 56.2123C75.6391 57.2314 75.6383 58.2505 75.6305 59.2695C75.6241 60.1005 75.6341 60.9369 75.5834 61.7668C75.5776 61.862 75.5602 61.9353 75.5331 61.9934C75.6848 61.9844 75.7941 61.985 75.7665 62.1557C75.7735 62.1182 75.7791 62.0805 75.7829 62.0427C75.8128 61.7546 75.8246 61.4645 75.834 61.1751C75.8618 60.3363 75.8711 59.4969 75.8755 58.6577C75.8819 57.3977 75.8809 56.1376 75.8691 54.8775ZM80.6519 53.3648C81.4538 53.1222 82.255 52.8768 83.0595 52.6429C83.1084 52.6286 83.163 52.61 83.2197 52.5902C82.5931 52.3592 81.6716 52.7883 81.1115 52.9572C80.2927 53.204 79.4744 53.4526 78.6556 53.6996C77.769 53.967 76.8609 54.31 75.946 54.5269C75.9853 54.5304 76.0247 54.5318 76.064 54.5354C76.1423 54.5428 76.4308 54.5394 76.5223 54.6167C77.9118 54.345 79.3117 53.7705 80.6519 53.3648ZM76.3549 61.9906C76.4927 61.9541 76.6716 61.9021 76.7834 61.8704C77.193 61.7542 77.6017 61.634 78.0102 61.5132C78.0442 61.5032 78.0737 61.501 78.1029 61.4992C78.122 60.5066 78.1402 59.5139 78.1496 58.5211C78.153 58.1527 78.1576 57.7839 78.152 57.4153C78.1476 57.127 78.0559 57.0924 78.2944 57.0872C78.0308 57.093 78.1622 56.9742 78.3261 56.8964C78.2974 56.8952 78.269 56.8928 78.2406 56.8916C78.1258 56.8868 78.1356 56.8466 78.1981 56.7997C78.1632 56.7899 78.131 56.777 78.1031 56.7592C78.0134 56.7013 78.0286 56.6138 78.0937 56.5424C78.0979 56.538 78.1021 56.5334 78.1063 56.5288C78.1917 56.4353 78.4108 56.4052 78.5401 56.4449C78.5032 56.4249 78.4697 56.4156 78.4435 56.4128C78.4611 56.4092 78.4836 56.404 78.5116 56.3958C78.6166 56.3656 78.7214 56.3345 78.8257 56.3017C79.0585 56.2287 79.2907 56.154 79.5227 56.0785C79.9874 55.927 80.4506 55.7682 80.9198 55.6312C81.5239 55.4547 82.2694 55.6989 82.8103 56.0062C82.8297 56.0172 82.8467 56.0334 82.8589 56.0522C82.9537 56.0462 83.028 56.0611 83.0288 56.1031C83.0557 57.3985 83.0757 58.6942 83.0939 59.9897C83.25 59.9434 83.4066 59.8978 83.5637 59.8547C83.5941 59.5502 83.5337 59.1706 83.5326 58.9103C83.5294 58.0553 83.5218 57.2005 83.5132 56.3457C83.501 55.1389 83.4882 53.9324 83.4709 52.7256C83.4611 52.721 83.4515 52.7162 83.4433 52.71C83.4399 52.7074 83.4359 52.7058 83.4325 52.7032C83.3594 52.7238 83.2864 52.7444 83.2133 52.7657C82.9006 52.8566 82.5885 52.9492 82.2766 53.0427C81.4294 53.2967 80.583 53.5539 79.7362 53.8098C78.6669 54.1331 77.5592 54.5724 76.4508 54.8008C76.4666 56.484 76.4705 58.1683 76.4426 59.8515C76.4306 60.541 76.4863 61.3043 76.3549 61.9906ZM82.6612 76.1514C82.6572 75.9553 82.6496 75.7632 82.6502 75.6931C82.657 74.896 82.6548 74.0989 82.651 73.3018C82.64 70.9625 82.6145 68.6233 82.5865 66.284C82.5484 63.1 82.5188 59.9152 82.4563 56.7316C82.3052 56.7897 82.1518 56.8435 82.0045 56.9038C81.9506 56.9259 81.8595 56.9577 81.7605 56.994C81.7655 57.002 81.7724 57.0094 81.7756 57.0178C81.8048 57.093 81.6233 57.1855 81.4548 57.2194C81.4921 60.1331 81.4907 63.0481 81.4795 65.9621C81.4709 68.1976 81.4542 70.4335 81.3963 72.6681C81.3587 74.1237 81.3653 75.6146 81.1549 77.0587C81.1251 77.2643 81.0802 77.4792 80.9732 77.6269C81.0275 77.5752 81.1053 77.5337 81.1956 77.5233C81.6345 77.4732 82.0686 77.3037 82.4012 77.0059C82.4939 76.9225 82.5895 76.834 82.6632 76.7314C82.6141 76.723 82.5947 76.7039 82.6348 76.6703C82.6412 76.6649 82.6462 76.6487 82.6502 76.6252C82.6139 76.581 82.6111 76.5231 82.6618 76.4638C82.6634 76.3979 82.6634 76.3217 82.6624 76.2426C82.5943 76.2276 82.6083 76.1915 82.6612 76.1514ZM80.8747 57.4083C80.7545 57.3979 80.6689 57.3386 80.7274 57.2146C80.7577 57.1502 80.8088 57.0938 80.8703 57.0425C80.4274 56.9674 79.6769 56.9734 79.5295 56.9635C79.2614 56.9455 78.9932 56.9329 78.725 56.9187C78.7839 57.0801 78.734 57.3806 78.7342 57.5295C78.7348 58.09 78.7276 58.6507 78.7195 59.2112C78.6945 60.9381 78.6584 62.6649 78.624 64.3915C78.5511 68.0515 78.4477 71.714 78.4603 75.3748C78.4621 75.9054 78.3582 76.6206 78.5138 77.1459C78.5621 77.1445 78.6106 77.1457 78.6594 77.1507C78.87 77.1719 79.0791 77.2062 79.2873 77.2432C79.5074 77.2823 79.7272 77.3222 79.9468 77.3648C80.2104 77.4163 80.5728 77.3296 80.4894 77.5986C80.7242 77.0449 80.6738 76.2646 80.7064 75.6913C80.7805 74.3813 80.8146 73.0692 80.8398 71.7576C80.932 66.9768 80.9364 62.1897 80.8747 57.4083ZM81.2615 55.899C80.8597 56.0014 80.4656 56.138 80.0716 56.2664C79.8815 56.3283 79.4822 56.5196 79.0823 56.66C79.5163 56.6819 79.95 56.7075 80.3825 56.7444C80.5197 56.756 80.9518 56.75 81.3008 56.8043C81.4196 56.7556 81.5348 56.7143 81.6223 56.6779C81.8859 56.5685 82.1664 56.4779 82.4288 56.359C82.3315 56.3491 82.2628 56.3033 82.2848 56.2107C82.2582 56.3227 81.7429 56.1236 81.6371 56.0907C81.5426 56.0619 81.0536 55.9519 81.2615 55.899ZM77.9555 69.2503C76.4901 69.6914 75.0245 70.1324 73.5581 70.5699C73.5587 70.5699 73.5595 70.5697 73.5603 70.5697C74.4001 70.5541 75.2408 70.549 76.0806 70.5615C76.3356 70.5653 77.3701 70.4695 77.9316 70.5985C77.9391 70.1492 77.9475 69.6997 77.9555 69.2503ZM79.6393 79.8006C79.6048 79.8054 79.5705 79.8133 79.5363 79.8177C79.1372 79.8702 79.3051 79.4901 79.6034 79.4509C79.6118 79.4499 79.6202 79.4483 79.6286 79.4471C79.1821 79.3275 78.0446 79.3112 77.8367 79.2918C76.5894 79.175 75.3404 79.077 74.0911 78.9841C72.4324 78.8609 70.7731 78.7459 69.1132 78.6393C69.0639 78.906 69.0258 79.1766 69.0114 79.4449C68.9786 80.0603 68.9329 80.5202 69.6809 80.5791C71.2355 80.7015 72.7884 80.846 74.3398 81.0036C75.212 81.0922 76.084 81.1833 76.9552 81.2813C77.1866 81.3073 79.1897 81.6775 79.25 81.597C79.596 81.134 79.6443 80.4215 79.6393 79.8006ZM87.9096 78.9388C87.9078 78.8661 87.908 78.7932 87.9038 78.7205C87.8856 78.4072 87.8594 78.0944 87.8285 77.7819C87.8097 77.5922 87.8015 77.3885 87.7862 77.1855C87.7175 77.2062 87.6486 77.226 87.5805 77.248C87.2818 77.3448 86.9845 77.4458 86.6876 77.5481C85.8406 77.8406 84.9957 78.1391 84.1487 78.4312C82.8804 78.8685 81.5584 79.4176 80.2228 79.6975C80.2284 80.3277 80.1779 81.1549 79.7991 81.5505C81.5568 81.3159 83.3277 80.5294 84.9924 79.9537C85.8132 79.6698 86.6313 79.3775 87.4561 79.1055C87.5492 79.0748 87.7275 78.9949 87.9096 78.9388ZM83.243 76.2927C83.243 76.3007 83.2426 76.3083 83.2424 76.3163C83.2939 76.3361 83.3303 76.3722 83.3333 76.4369C83.3419 76.6218 83.2111 76.7849 83.0939 76.9169C82.5935 77.481 81.8701 77.8062 81.1287 77.8905C80.8897 77.9177 80.854 77.7933 80.9278 77.6818C80.824 77.7891 80.673 77.843 80.4454 77.7967C79.8222 77.6703 79.1973 77.5315 78.5675 77.4412C78.3826 77.4147 78.1216 77.465 78.372 77.3706C78.2834 77.4041 77.9817 77.5027 77.9433 77.342C77.8457 76.9335 77.8565 76.4722 77.8696 76.0304C77.7658 76.0635 77.6538 76.0677 77.5893 76.02C77.2441 75.7648 76.0275 76.2564 75.6645 76.3566C74.7168 76.6182 73.778 76.9117 72.8435 77.2172C72.0011 77.4926 71.1617 77.7769 70.3228 78.062C70.0375 78.1589 69.7214 78.3092 69.4117 78.3801C71.2952 78.5005 73.1784 78.6305 75.0603 78.7747C76.3573 78.8741 77.6554 78.9715 78.9485 79.1113C79.0878 79.1263 79.5311 79.1245 79.8915 79.1788C80.0447 79.141 80.2082 79.1432 80.21 79.2067C80.2104 79.2219 80.211 79.2395 80.2116 79.2555C80.2615 79.2748 80.3023 79.2972 80.3336 79.3231C81.7994 79.0091 83.2638 78.3711 84.6493 77.8887C85.4825 77.5986 86.3134 77.3011 87.1504 77.0221C87.3289 76.9626 87.535 76.8734 87.7428 76.8163C87.741 76.8053 87.738 76.7951 87.7362 76.7841C87.6472 76.7999 87.5669 76.7961 87.532 76.7584C87.2894 76.4956 86.1618 76.5479 85.8334 76.5162C84.971 76.4329 84.107 76.3612 83.243 76.2927ZM91.7489 64.7748C91.7501 64.762 91.7515 64.7487 91.7517 64.7379C91.7596 64.4364 91.763 64.1349 91.7652 63.8332C91.7726 62.8318 91.7702 61.8303 91.7664 60.8291C91.7548 57.8234 91.7271 54.8174 91.6966 51.8119C91.6536 47.5387 91.6285 43.2641 91.5472 38.9912C91.4589 38.9878 91.3875 38.9572 91.3711 38.8919C91.3683 38.8925 91.3651 38.8933 91.3627 38.8941C91.0538 38.9758 90.7461 39.062 90.439 39.1495C89.4107 39.4426 88.3856 39.7469 87.3613 40.0526C84.3844 40.9406 81.4122 41.8443 78.4387 42.7438C75.4552 43.6463 72.4721 44.551 69.4816 45.4298C68.1344 45.8259 66.7236 46.3684 65.3203 46.6212C65.3268 47.26 65.3298 47.8989 65.3334 48.5379C65.3686 54.5083 65.3915 60.4825 65.2578 66.4519C65.2146 68.3849 65.3079 70.4499 64.9391 72.3584C64.7855 73.1537 63.9441 72.8502 63.3187 72.7535C63.2341 72.7404 62.1558 72.5792 61.7831 72.3987C61.7695 72.4003 61.7559 72.4019 61.7453 72.4027C61.697 72.4063 61.6565 72.368 61.6223 72.2997C61.6349 72.2997 61.6477 72.2997 61.6603 72.2999C61.6493 72.2671 61.6698 72.2344 61.7333 72.2028C61.7651 72.1869 61.9901 72.118 62.1137 72.127C62.0502 71.9782 61.8651 71.5469 61.6187 72.2931C61.3404 71.716 61.4981 69.0143 61.4997 68.7134C61.5041 67.8516 61.5119 66.9898 61.5209 66.1282C59.3203 66.8408 57.1163 67.5437 54.9085 68.2336C53.3573 68.7182 51.8054 69.2034 50.2428 69.651C49.8117 69.7744 49.0887 70.1035 48.5212 70.1426C48.8918 70.8303 49.1885 71.591 49.4916 72.2937C49.5753 72.4878 49.6731 72.7246 49.7654 72.98C52.1229 72.2671 54.4437 71.4511 56.7713 70.646C58.1932 70.154 59.6871 69.5526 61.2054 69.4631C61.6048 69.4396 61.444 69.8118 61.1383 69.8299C59.5925 69.9208 58.055 70.5665 56.6094 71.0711C54.3758 71.851 52.1417 72.6237 49.877 73.3084C50.2334 74.4382 50.3442 75.7298 48.7257 75.4034C48.403 75.3383 48.9156 75.0711 49.0859 75.1055C49.74 75.2375 49.5963 74.3637 49.3022 73.4785C49.016 73.5337 48.9417 73.2799 49.1917 73.1621C48.9695 72.5573 48.7125 72.0038 48.6348 71.8322C48.0552 70.551 47.5055 69.0456 46.2697 68.4674C46.1589 68.5305 45.9964 68.5794 45.9199 68.5614C45.0659 68.3599 44.3229 67.9049 43.4721 68.1645C43.5632 68.2122 43.6546 68.2629 43.7467 68.3194C43.8395 68.3763 43.3479 68.6123 43.201 68.5221C42.2529 67.94 41.4508 67.7841 40.4251 68.5009C40.0208 68.7835 39.6344 69.0892 39.2343 69.3773C38.662 69.7896 38.0556 70.163 37.3671 70.3501C36.6359 70.5489 35.9167 70.5643 35.1969 70.5064C35.1839 70.5054 35.1706 70.5046 35.1574 70.5034C34.4268 70.4419 33.6954 70.3063 32.9496 70.2105C32.9346 70.2085 32.9232 70.2059 32.9121 70.2029C32.8739 70.9227 32.8326 71.6424 32.7909 72.362C32.7555 72.9776 32.6229 73.6998 32.7048 74.3287C32.8226 74.2806 32.9618 74.2455 33.0233 74.2637C34.0775 74.5739 35.0911 75.0358 36.1599 75.2946C37.0581 75.5122 38.0374 75.6656 38.8126 74.9937C39.0963 74.7477 39.3607 74.4845 39.6296 74.2229C40.1853 73.6822 40.7606 73.2198 41.463 73.0315C41.5281 72.9516 41.8616 72.833 41.961 72.8665C42.0227 72.8873 42.0794 72.9143 42.1355 72.9424C42.1768 72.9422 42.2178 72.9412 42.2599 72.9426C42.3761 72.947 42.3587 72.9874 42.2891 73.0341C43.1956 73.6495 43.3108 75.2688 44.1536 75.9467C44.6809 76.3708 44.9733 75.4633 44.9633 75.0498C44.9517 74.5731 44.8612 74.1101 44.7169 73.6556C44.4294 72.7501 44.0114 71.8784 43.7974 70.9513C43.7676 70.8219 44.3503 70.6761 44.3778 70.7959C44.5947 71.7358 45.8119 73.9883 45.5082 75.3287C45.8378 75.7995 46.4954 76.1945 46.5936 75.3349C46.6543 74.8036 46.5323 74.301 46.3716 73.7966C46.0689 72.8456 45.6795 71.9279 45.4619 70.9513C45.4097 70.7165 45.9914 70.5667 46.0423 70.7959C46.2605 71.7751 46.6755 72.6808 46.952 73.6411C47.1363 74.2814 47.3765 75.0578 47.0499 75.7019C47.0445 75.7127 47.0383 75.7209 47.0329 75.7314C49.7734 75.292 47.3635 72.0173 46.9514 70.6011C46.9089 70.4555 47.4881 70.2948 47.5317 70.4457C47.8899 71.6763 48.8349 72.7318 48.8944 74.06C48.9513 75.3301 47.9967 75.8297 46.8679 75.984C46.4005 76.5663 45.738 76.3888 45.24 75.8888C45.0637 76.0956 44.8057 76.2486 44.4409 76.3263C43.7079 76.4824 43.301 75.9882 42.9713 75.3387C42.935 75.3722 42.8877 75.4028 42.8188 75.4229C40.9954 75.9571 39.1778 76.5112 37.3532 77.0417C39.6432 77.2022 41.9327 77.3694 44.2213 77.5485C46.0018 77.6878 47.783 77.8268 49.5601 78.0031C49.767 78.0235 50.6338 78.0123 51.1879 78.1199C51.3308 78.09 51.4724 78.0962 51.4744 78.1553C51.4748 78.1704 51.4752 78.186 51.4758 78.2012C51.5263 78.2223 51.5712 78.2453 51.6022 78.2719C52.8771 78.0053 54.1606 77.5047 55.3804 77.1421C58.1492 76.3193 60.9145 75.4846 63.6861 74.6714C66.6389 73.8054 69.596 72.9474 72.5771 72.1827C74.3103 71.7382 76.1237 71.1927 77.9238 71.0589C77.924 71.0405 77.9244 71.0218 77.9248 71.0032C77.8215 71.0188 77.7293 71.0088 77.7029 70.9517C77.5719 70.6696 75.6253 70.8149 75.3498 70.8135C74.6715 70.8097 73.9932 70.8133 73.3149 70.8259C73.0458 70.8309 73.1881 70.7071 73.3565 70.63C72.0262 71.0266 70.6952 71.4215 69.3622 71.8089C67.9404 72.2224 66.4662 72.7809 64.993 72.9846C64.5942 73.0397 64.7626 72.6589 65.0601 72.6178C66.5732 72.4087 68.1027 71.8135 69.5623 71.3866C72.3567 70.5695 75.1451 69.7319 77.9329 68.8929C77.9437 68.8897 77.9519 68.8903 77.9621 68.8879C78.0032 66.6434 78.048 64.3992 78.0909 62.1547C78.0925 62.0679 78.0941 61.9814 78.0957 61.8948C77.4541 62.0856 76.7944 62.3352 76.1301 62.4345C76.0037 62.4536 75.9328 62.4235 75.9041 62.3726C75.4868 62.4269 74.9001 62.2801 74.7146 62.212C74.5311 62.1447 74.8442 62.02 74.9992 61.975C75.0038 61.8994 75.0081 61.8239 75.0109 61.7484C75.0219 61.4471 75.0287 61.1458 75.0337 60.8443C75.0477 59.9769 75.0537 59.1095 75.0555 58.242C75.0573 57.4111 75.0579 56.5801 75.0497 55.7491C75.0475 55.521 75.1457 54.9643 75.0239 54.7579C75.0125 54.7387 75.0219 54.7161 75.0447 54.6926C75.0275 54.6706 75.0397 54.6397 75.0962 54.6061C75.099 54.6043 75.1026 54.6031 75.1054 54.6015C75.0667 54.5087 75.2108 54.3392 75.4001 54.3086C76.9272 54.0604 78.4683 53.4153 79.9458 52.9684C80.9877 52.6531 82.7796 51.7249 83.87 52.4073C83.9027 52.4103 83.9331 52.4169 83.9595 52.4283C83.9752 52.4299 83.9918 52.4295 84.0068 52.4325C84.0565 52.4423 84.0647 52.468 84.0367 52.4998C84.0457 52.5182 84.0521 52.5385 84.0525 52.5629C84.0705 53.8036 84.0835 55.0444 84.096 56.285C84.1044 57.1398 84.1128 57.9948 84.1154 58.8496C84.1162 59.1788 84.2154 59.699 84.1022 60.0158C84.0715 60.1017 83.9581 60.164 83.8387 60.194C83.8464 60.1945 83.844 60.1955 83.8287 60.1965C83.7967 60.2041 83.7648 60.2091 83.7336 60.2119C83.6931 60.2227 83.6526 60.2337 83.6122 60.2451C83.4415 60.2934 83.2714 60.3433 83.1013 60.3934C83.1005 60.3936 83.0995 60.3938 83.0987 60.394C83.1264 62.4389 83.1478 64.4839 83.1717 66.5286C83.1747 66.7897 83.1771 67.0507 83.1801 67.3117C85.3586 66.6549 87.5368 65.9948 89.7206 65.3549C90.3468 65.1714 90.9725 64.9821 91.6039 64.818C91.6468 64.8062 91.6963 64.7906 91.7489 64.7748ZM61.6223 72.2999C61.6213 72.2977 61.6201 72.2955 61.6189 72.2931C61.6181 72.2955 61.6173 72.2975 61.6165 72.2999C61.6183 72.2999 61.6203 72.2999 61.6223 72.2999Z" fill="#340679"/>
</svg>
