<svg width="19" height="19" viewBox="0 0 19 19" fill="none" xmlns="http://www.w3.org/2000/svg">
<path fill-rule="evenodd" clip-rule="evenodd" d="M17.6772 10.1176C17.912 7.53365 16.7859 5.19977 15.575 3.83897C14.3797 2.49558 12.5921 1.24823 9.96124 1.02629C8.67633 0.917901 7.40591 1.15356 6.35062 1.56931C5.21078 2.01834 4.00429 2.82814 3.23029 3.72357C2.72395 4.3094 2.30314 4.84289 1.9411 5.58322C0.867223 7.77981 0.67866 10.2091 1.55015 12.528C1.97204 13.6506 2.4089 14.2854 3.12725 15.163C3.69644 15.8583 4.66125 16.5956 5.47514 17.027C6.43002 17.5331 7.4602 17.8688 8.74035 17.9749C10.025 18.0814 11.3265 17.8393 12.3709 17.4256C13.4748 16.9883 14.2181 16.4447 14.9577 15.7991C15.1258 15.6524 15.3401 15.4298 15.4851 15.2634C16.7912 13.7643 17.4839 12.2446 17.6772 10.1176Z" fill="#108DE8"/>
<path fill-rule="evenodd" clip-rule="evenodd" d="M4.5331 7.01125C4.88931 6.99549 5.62157 8.14263 8.07639 7.36318C8.63731 7.18512 9.16593 6.96319 9.70408 6.76227C10.9068 6.31324 12.037 5.85866 13.3073 6.35235C13.5422 6.44362 13.8673 6.61243 14.032 6.75176C14.2926 6.97214 14.2298 7.24477 14.2298 7.66344V11.0167C14.2298 11.2154 14.2715 11.9468 14.1751 12.069C14.0726 12.0779 13.6705 11.8304 13.4274 11.7315C12.5132 11.3603 11.5116 11.4919 10.6197 11.7443C8.9616 12.2134 7.12852 13.2815 5.35391 12.6301C4.34007 12.2579 4.4757 12.0889 4.4757 11.3233V8.03151C4.4758 7.76813 4.42637 7.19407 4.5331 7.01125Z" fill="white"/>
</svg>
