<svg width="150" height="121" viewBox="0 0 150 121" fill="none" xmlns="http://www.w3.org/2000/svg">
<path d="M70.4206 2.57244C63.4025 -0.538494 61.7512 9.92958 61.7807 12.3918C61.8102 14.8392 61.6922 17.6553 58.0063 19.6752C50.7671 23.6413 56.3108 31.4702 56.3108 31.4702C55.0133 35.2151 59.8345 39.7857 59.8345 39.7857C59.7461 37.7953 68.8725 25.1451 73.7821 22.2701C75.0206 20.6188 75.5809 17.6258 75.6251 17.3899C75.3007 19.7637 74.8289 21.0906 74.4309 21.8278C78.6476 18.3188 76.9668 4.84298 74.4161 3.22116" fill="#13375B"/>
<path d="M147.177 50.534L98.2422 42.764C96.1634 42.4397 94.2024 43.8551 93.8781 45.9339L91.7107 59.5719C91.6075 60.2059 91.7697 61.9752 91.7697 61.9752L93.539 62.2405C93.6422 62.2553 93.7454 62.2848 93.8486 62.2848C94.1729 62.3143 94.4973 62.27 94.8364 62.1521C96.4582 61.5623 98.257 61.3854 100.085 61.7245C105.231 62.6681 108.843 67.4746 108.297 72.6791C107.693 78.4734 102.37 82.4985 96.6794 81.5991C94.5415 81.26 92.6691 80.2722 91.2242 78.8715C90.9441 78.6061 90.605 78.4587 90.2658 78.4144L88.4229 78.1343L86.1229 94.7653C85.7985 96.8147 87.1991 98.7461 89.2485 99.0705L138.139 106.84C140.188 107.165 142.12 105.764 142.444 103.715" fill="#00558F"/>
<path d="M145.379 50.2537L96.444 42.4838C94.3651 42.1594 92.4042 43.5748 92.0798 45.6537L89.9125 59.2917C89.6324 61.0609 91.3426 62.4763 93.0234 61.8718C94.6452 61.2821 96.444 61.1051 98.2722 61.4442C103.418 62.3878 107.03 67.1943 106.484 72.3989C105.88 78.1931 100.557 82.2182 94.8664 81.3188C92.7285 80.9797 90.8561 79.9919 89.4112 78.5912C88.4823 77.6771 86.9048 78.1931 86.6984 79.4906L84.3099 94.4997C83.9855 96.5491 85.3862 98.4806 87.4355 98.8049L101.413 101.031L122.26 104.349L136.326 106.59C138.375 106.914 140.307 105.513 140.631 103.464" fill="#008CEB"/>
<path d="M78.014 117.043C78.1467 118.252 79.857 118.208 81.7737 117.913C83.7051 117.618 83.2038 118.134 85.9166 118.075C88.6295 118.016 89.5289 117.102 89.6468 116.704C89.75 116.35 88.4378 116.114 87.0224 115.819C86.8455 115.79 86.6686 115.746 86.4917 115.701C84.8993 115.348 83.823 114.212 82.4371 113.225C81.1249 112.296 80.2403 108.02 80.2403 108.02L76.3774 107.99C76.3774 107.99 77.5864 111.853 78.2204 113.195C78.589 113.991 78.1909 115.008 78.073 115.76C78.0435 116.203 77.9698 116.63 78.014 117.043Z" fill="#FF9792"/>
<path d="M81.7882 117.928C83.7196 117.633 83.2183 118.149 85.9312 118.09C88.644 118.031 89.5434 117.117 89.6613 116.719C89.7645 116.365 88.4524 116.129 87.037 115.834L87.0222 115.864C87.0222 115.864 85.3119 116.866 83.0709 116.704C81.2427 116.586 79.3554 115.878 78.1022 115.79C78.0285 116.203 77.9695 116.63 78.0138 117.058C78.1465 118.252 79.8567 118.208 81.7882 117.928Z" fill="#1B2251"/>
<path d="M47.8627 116.851C47.9512 118.06 49.6467 118.09 51.5929 117.869C53.5391 117.648 53.0083 118.134 55.7211 118.193C58.434 118.237 59.3776 117.353 59.5103 116.969C59.6282 116.63 58.316 116.335 56.9301 115.982C56.7532 115.937 56.5763 115.893 56.3994 115.849C54.8218 115.436 53.7897 114.257 52.448 113.225C51.1801 112.237 52.2269 108.167 52.2269 108.167L49.3076 106.781C49.3076 106.781 48.9095 110.983 48.6884 113.107C48.5999 113.976 48.1723 114.846 48.0102 115.598C47.9217 116.011 47.8332 116.439 47.8627 116.851Z" fill="#FF9792"/>
<path d="M51.5926 117.869C53.5388 117.648 53.008 118.134 55.7209 118.193C58.4337 118.237 59.3773 117.353 59.51 116.969C59.628 116.63 58.3158 116.335 56.9299 115.981L56.9151 116.011C56.9151 116.011 55.1606 116.94 52.9343 116.704C51.1208 116.512 49.2631 115.746 48.0099 115.598C47.9214 116.011 47.8477 116.424 47.8772 116.851C47.9509 118.075 49.6612 118.09 51.5926 117.869Z" fill="#1B2251"/>
<path d="M54.4387 56.4315C54.4387 56.4315 53.6278 60.3533 52.8169 80.2574C52.8169 80.2574 51.313 83.9433 50.222 88.4549C49.1309 92.9665 48.3643 111.765 48.3643 111.765C48.3643 111.765 48.8066 112.399 50.1188 112.472C51.1951 112.531 52.0355 112.06 52.0355 112.06C52.0355 112.06 59.6285 87.4376 63.3292 77.8689C67.0299 68.3002 69.1972 54.6475 69.1972 54.6475L54.4387 56.4315Z" fill="#0E0E0E"/>
<path d="M63.5649 58.1122C63.5649 58.1122 64.1694 62.0783 70.2881 81.024C70.2881 81.024 70.1554 85.0048 70.6862 89.6049C71.217 94.2049 77.4241 112.34 77.4241 112.34C77.4241 112.34 78.2497 112.62 79.4882 112.296C80.6382 111.986 81.5376 111.308 81.5376 111.308C81.5376 111.308 79.1638 85.3882 79.3113 75.1412C79.4735 64.8943 76.7754 51.3301 76.7754 51.3301L63.5649 58.1122Z" fill="#0E0E0E"/>
<path d="M50.7818 107.401L50.0593 107.754H51.7401C51.8728 107.754 51.9908 107.74 52.1235 107.725L66.9409 104.54C68.9608 104.098 70.2583 102.108 69.816 100.088L66.8525 86.2876C66.5723 85.0049 67.7371 83.8843 69.0051 84.2234C70.4647 84.592 72.0423 84.651 73.6199 84.3119C79.827 82.9702 83.4392 76.1881 80.5494 70.0547C79.0898 66.9733 75.0353 64.4078 71.6294 64.4078C69.1083 64.4078 66.882 65.263 65.1569 66.6636C64.1691 67.4598 62.6947 66.9438 62.4146 65.6905L59.4216 51.8019C58.9793 49.782 56.9889 48.4846 54.969 48.9269L6.60947 59.336C4.63381 59.7636 3.36584 61.7097 3.79341 63.6854L14.2025 111.986C14.4974 113.372 15.5147 114.404 16.7679 114.817L16.1339 114.994H18.0064H18.0211C18.257 114.994 18.4782 114.964 18.7141 114.905L19.7609 114.684L32.1751 112.015" fill="#830566"/>
<path d="M50.4135 107.71L65.231 104.526C67.2509 104.083 68.5483 102.093 68.106 100.073L65.1425 86.2729C64.8624 84.9902 66.0271 83.8697 67.2951 84.2088C68.7547 84.5774 70.3323 84.6364 71.9099 84.2973C78.117 82.9556 81.7292 76.1734 78.8394 70.04C77.3798 66.9586 73.3253 64.3932 69.9195 64.3932C67.3983 64.3932 65.172 65.2483 63.447 66.649C62.4591 67.4451 60.9848 66.9291 60.7046 65.6759L57.7116 51.7873C57.2693 49.7674 55.2789 48.4699 53.259 48.9122L4.89951 59.3213C2.92385 59.7489 1.65588 61.6951 2.08345 63.6707L12.4925 111.986C12.9349 114.035 14.9548 115.348 17.0189 114.905L30.4799 112.001L50.4135 107.71Z" fill="#B70F90"/>
<path d="M91.8284 42.8966C91.5335 42.8376 90.2213 42.6754 88.5405 42.4101C85.4738 41.9235 81.1834 41.0831 79.7385 39.7562C79.3551 39.4023 78.441 37.4119 77.4974 35.1414C76.5391 40.169 76.775 51.3448 77.9103 58.0827C77.9103 58.0827 72.3519 62.3289 61.2645 60.4122C60.1588 55.2224 58.5222 49.9884 58.5222 49.9884C60.3062 46.3909 60.5126 43.3831 59.9966 39.7709C59.8049 38.4292 59.0677 36.5863 58.8023 34.5221C58.7729 34.3452 58.7581 34.1683 58.7434 33.9914C55.8241 36.3946 52.4625 39.0337 52.3888 39.5645C52.2561 40.4491 54.5267 50.2685 54.5267 50.2685C53.9664 51.5659 51.5189 51.2858 51.5189 51.2858C49.2189 49.6492 45.8573 40.3754 46.1227 38.3113C46.3881 36.2619 54.7478 24.5406 56.7824 21.7393C58.7876 18.9675 66.0858 19.0412 66.2479 19.0412C72.057 22.5207 72.573 19.631 72.573 19.631C72.573 19.631 77.8071 20.6335 78.7064 22.1669C79.6058 23.715 83.5571 35.4363 83.8372 35.8638C84.427 36.7337 93.9662 40.1837 94.1284 41.1863C94.2906 42.1889 92.6835 43.0735 91.8284 42.8966Z" fill="#4F4F4F"/>
<path d="M61.2799 60.4123L58.5376 49.9884C60.3363 46.391 60.1594 43.3832 59.6434 39.7857C59.4517 38.4441 59.0094 36.8517 58.803 34.7876C58.7882 34.5812 58.744 33.9915 58.744 33.9915C58.744 33.9915 63.8748 38.0312 63.9633 42.3954C64.0075 44.6512 61.6633 58.1417 61.2799 60.4123Z" fill="#393939"/>
<path d="M72.8978 20.9137C72.9273 20.9285 70.5978 22.1375 68.8433 21.6509C67.192 21.2086 66.1304 19.0708 66.1452 19.0708C66.8381 18.9381 67.0445 17.9797 67.0298 13.8662L67.3394 13.9252L72.4408 14.9425L72.6324 14.9867C72.6324 14.9867 72.5145 16.6528 72.5145 18.2156C72.5145 18.5547 72.5145 18.8791 72.5292 19.174C72.5734 20.0733 72.6767 20.7958 72.8978 20.9137Z" fill="#FF9792"/>
<path d="M72.5289 18.2009C72.5289 18.54 72.5289 18.8644 72.5437 19.1593C69.5802 19.0413 67.8699 15.6503 67.2212 14.1611L72.47 14.9278L72.6616 14.972C72.6469 14.9573 72.5289 16.6233 72.5289 18.2009Z" fill="#FF7D78"/>
<path d="M74.0918 3.7373C75.3008 4.54821 77.0553 6.31746 75.0944 11.1682L74.5931 12.8047L66.8084 13.3502C66.8084 13.3502 65.2603 10.9028 64.877 8.79441" fill="#13375B"/>
<path d="M76.4952 8.92707C76.6279 10.4162 74.7702 17.5669 72.9567 17.4342C72.9567 17.4342 66.0124 16.5201 66.6464 12.2002C67.2804 7.88027 66.8233 4.8578 71.2759 5.25588" fill="#FF9792"/>
<path d="M91.7402 40.6262C91.7402 40.6262 94.7627 41.1275 95.5441 43.0884C96.3403 45.0494 95.2345 46.3763 94.8069 46.3763C94.3794 46.3763 93.5685 46.0519 93.1851 45.0346C92.8165 44.0025 91.7402 40.6262 91.7402 40.6262Z" fill="#FF9792"/>
<path d="M50.2217 49.3691C50.2217 49.3691 53.6127 49.3691 54.8217 51.3595C56.0455 53.3647 55.0724 55.016 54.6153 55.0897C54.1435 55.1634 53.1999 54.9718 52.6102 53.925C51.9909 52.8782 50.2217 49.3691 50.2217 49.3691Z" fill="#FF9792"/>
<path d="M88.7321 42.4395C85.6211 41.953 81.2865 41.1126 79.8268 39.7856C79.4287 39.4318 78.5146 37.4414 77.5563 35.1708C77.5563 35.1708 77.2172 31.5144 78.1755 31.6471C79.1339 31.7798 80.5345 38.267 81.5371 38.6799C82.4512 39.0484 87.4199 40.9504 88.7321 42.4395Z" fill="#393939"/>
<path d="M73.7819 4.81357C73.7819 4.81357 71.1281 9.59055 68.1056 9.91491C65.0831 10.2245 63.9331 9.26619 63.9331 9.26619C63.9331 9.26619 66.4248 7.8213 67.3537 4.79883" fill="#13375B"/>
<path fill-rule="evenodd" clip-rule="evenodd" d="M139.326 79.1201C140.776 74.536 139.663 69.8646 138.011 66.921C136.381 64.0151 133.64 61.048 128.966 59.6026C126.683 58.8967 124.29 58.8193 122.214 59.1532C119.973 59.5138 117.468 60.501 115.712 61.8148C114.563 62.6744 113.589 63.4731 112.64 64.6696C109.825 68.2197 108.52 72.5423 109.177 77.0856C109.496 79.2849 110.035 80.6074 110.987 82.481C111.741 83.9654 113.195 85.6826 114.497 86.7864C116.025 88.0814 117.757 89.0977 120.032 89.7977C122.315 90.5 124.767 90.5781 126.822 90.2436C128.993 89.8898 130.554 89.2007 132.149 88.3256C132.512 88.1267 132.988 87.8089 133.317 87.5651C136.275 85.3697 138.132 82.8937 139.326 79.1201Z" fill="white"/>
<path fill-rule="evenodd" clip-rule="evenodd" d="M116.764 68.2832C117.415 68.396 118.286 70.7629 123.039 70.3259C124.125 70.2261 125.17 70.0341 126.223 69.8839C128.579 69.5482 130.805 69.1737 132.908 70.5713C133.297 70.8297 133.819 71.2642 134.062 71.5818C134.446 72.0841 134.224 72.5527 134.058 73.3105L132.728 79.3804C132.649 79.74 132.434 81.0805 132.211 81.2635C132.022 81.239 131.393 80.6314 130.992 80.356C129.484 79.3213 127.619 79.1622 125.904 79.2653C122.717 79.4566 118.975 80.6628 116.021 78.7797C114.334 77.7038 114.646 77.4517 114.95 76.0658L116.256 70.1072C116.36 69.6305 116.499 68.5718 116.764 68.2832Z" fill="#008CEB"/>
<path d="M49.7914 98.8954L28.0766 103.23C23.5126 104.141 19.0724 101.179 18.1614 96.6146L13.8267 74.8999C12.9156 70.3358 15.8781 65.8957 20.4421 64.9846L42.1606 60.6492C46.7209 59.7388 51.161 62.7013 52.0721 67.2653L56.4076 88.9838C57.3179 93.5441 54.3554 97.9843 49.7914 98.8954Z" fill="#B70F90"/>
<path d="M40.2827 73.2649C38.0138 72.308 35.6934 71.5012 33.299 70.9267C31.4796 70.4898 29.6401 70.1851 27.7593 70.2771C26.9287 70.3186 26.1145 70.4423 25.3435 70.7632C23.8158 71.3983 22.9273 72.5893 22.4681 74.1412C21.9955 75.7425 21.9344 77.3819 22.0032 79.0304C22.0788 80.8485 22.3634 82.6442 22.734 84.4228C22.8145 84.8261 22.8906 85.2265 22.9748 85.6291C23.2984 87.1336 23.7244 88.6059 24.2751 90.0417C24.8183 91.4596 25.4692 92.8133 26.4353 93.9952C27.0616 94.7596 27.7897 95.391 28.7479 95.7357C29.8061 96.1148 30.8548 96.0569 31.92 95.7899C33.0562 95.5087 34.1058 95.0273 35.1233 94.463C36.5391 93.6755 37.8749 92.7603 39.1062 91.7105C40.3704 90.631 41.6137 89.5245 42.8226 88.3821C43.8321 87.4272 44.749 86.3781 45.5732 85.2542C46.3026 84.2581 46.9573 83.2186 47.3461 82.0341C47.8755 80.4254 47.6841 78.9218 46.6681 77.5478C46.0499 76.7081 45.2554 76.055 44.4041 75.4676C43.1108 74.5723 41.7203 73.8712 40.2827 73.2649ZM25.0288 75.5486C24.7686 74.1869 25.6758 73.1086 26.8187 72.8805C27.9309 72.6546 29.2647 73.3049 29.5062 74.7869C29.6984 75.9835 28.8951 77.1148 27.6708 77.3437C26.457 77.5666 25.2704 76.817 25.0288 75.5486ZM34.4703 86.8725C31.9731 87.3982 29.4125 85.816 28.8891 83.1552C28.3919 80.6252 29.9583 78.1415 32.6019 77.6099C35.2559 77.0724 37.6656 78.8323 38.1569 81.313C38.6662 83.8833 37.025 86.3625 34.4703 86.8725Z" fill="white"/>
<path d="M32.6024 77.6104C29.9558 78.1465 28.3923 80.6257 28.8896 83.1557C29.4092 85.8172 31.9736 87.3987 34.4708 86.873C37.0254 86.363 38.6703 83.8831 38.1574 81.3135C37.6661 78.8327 35.2564 77.0729 32.6024 77.6104Z" fill="#B70F90"/>
<path d="M29.5065 74.7872C29.2651 73.3052 27.9313 72.6549 26.819 72.8808C25.6769 73.1127 24.769 74.1872 25.0292 75.5489C25.2707 76.8173 26.4536 77.5676 27.6711 77.344C28.8962 77.1189 29.6988 75.9838 29.5065 74.7872Z" fill="#B70F90"/>
</svg>
