<svg width="76" height="25" viewBox="0 0 76 25" fill="none" xmlns="http://www.w3.org/2000/svg">
<path fill-rule="evenodd" clip-rule="evenodd" d="M22.0819 13.0828C22.3815 9.78484 20.9443 6.80606 19.3988 5.06924C17.8732 3.35464 15.5916 1.76262 12.2338 1.47936C10.5938 1.34102 8.97239 1.64179 7.6255 2.17242C6.1707 2.74553 4.63083 3.7791 3.64295 4.92196C2.9967 5.66966 2.45961 6.35056 1.99753 7.29547C0.62692 10.099 0.386254 13.1996 1.49856 16.1593C2.03702 17.592 2.5946 18.4023 3.51144 19.5224C4.23791 20.4098 5.46931 21.3507 6.5081 21.9014C7.72684 22.5474 9.04169 22.9758 10.6756 23.1113C12.3151 23.2471 13.9763 22.9382 15.3093 22.4102C16.7182 21.852 17.6669 21.1581 18.6109 20.3342C18.8254 20.1469 19.099 19.8629 19.2841 19.6504C20.9511 17.7371 21.8351 15.7975 22.0819 13.0828Z" fill="#108DE8"/>
<path fill-rule="evenodd" clip-rule="evenodd" d="M5.30552 9.11822C5.76015 9.0981 6.69476 10.5622 9.82789 9.56739C10.5438 9.34014 11.2185 9.05687 11.9054 8.80044C13.4404 8.22733 14.8829 7.64715 16.5042 8.27725C16.804 8.39374 17.2189 8.6092 17.4291 8.78703C17.7618 9.0683 17.6816 9.41626 17.6816 9.95062V14.2305C17.6816 14.484 17.7349 15.4175 17.6118 15.5735C17.4809 15.5849 16.9678 15.269 16.6575 15.1428C15.4906 14.669 14.2123 14.837 13.0739 15.1591C10.9577 15.7578 8.6181 17.1211 6.35313 16.2897C5.05914 15.8147 5.23225 15.599 5.23225 14.6218V10.4204C5.23238 10.0842 5.16929 9.35156 5.30552 9.11822Z" fill="white"/>
<path fill-rule="evenodd" clip-rule="evenodd" d="M68.2565 13.0953C68.2118 12.6828 68.2446 11.9809 68.2498 11.5424C68.2554 11.0793 68.3924 10.6613 68.5825 10.3403C69.4786 8.82664 71.6658 8.83794 72.5385 10.3535C72.7425 10.7078 72.8629 11.0727 72.8672 11.5685C72.8705 11.9583 72.9094 12.7508 72.8576 13.1014L68.2565 13.0953ZM68.2553 15.4607L72.8665 15.4638L72.869 17.8098L75.1843 17.8033C75.2182 16.5159 75.1867 15.1837 75.1867 13.8913C75.1867 12.7414 75.2889 11.2319 74.9873 10.2025C74.4633 8.41473 72.8071 6.84369 70.542 6.84791C68.293 6.85226 66.6225 8.44838 66.1224 10.2293C65.8321 11.2629 65.9299 12.7511 65.9299 13.9174C65.9299 15.2077 65.9119 16.5106 65.9312 17.8097L68.2499 17.8051L68.2553 15.4607Z" fill="#108DE8"/>
<path fill-rule="evenodd" clip-rule="evenodd" d="M41.7206 13.0942C41.68 12.6829 41.7043 11.9731 41.7156 11.5415C41.748 10.3084 42.6792 9.20738 44.0303 9.20849C45.3774 9.20974 46.3186 10.3158 46.3389 11.5677C46.3466 12.0361 46.3674 12.633 46.3365 13.1014L41.7206 13.0942ZM41.7188 15.4607L46.3398 15.472L46.3435 17.8102L48.6502 17.8077C48.692 16.5286 48.6524 15.1782 48.6524 13.8913C48.6524 12.736 48.7557 11.2318 48.4537 10.1971C47.9405 8.43931 46.2913 6.84815 44.0301 6.8479C41.7685 6.84753 40.1221 8.41944 39.5953 10.2138C39.2994 11.2222 39.402 12.7743 39.402 13.9173C39.402 14.5697 39.402 15.2221 39.402 15.8745C39.402 16.4913 39.3697 17.2004 39.4075 17.8098L41.7144 17.8072L41.7188 15.4607Z" fill="#108DE8"/>
<path fill-rule="evenodd" clip-rule="evenodd" d="M28.4654 9.20916C28.9795 9.18941 29.8849 9.17525 30.374 9.23287C33.1449 9.55948 34.081 13.2503 31.7519 14.8951C30.8265 15.5488 29.6247 15.5088 28.4555 15.4436L28.4654 9.20916ZM26.1473 17.8086C27.3731 17.8242 28.6079 17.8098 29.8347 17.8102C31.0515 17.8104 31.8855 17.5428 32.7503 17.0426C36.1291 15.0888 36.3998 9.81231 32.7462 7.61278C31.9398 7.12735 30.9883 6.84806 29.8345 6.84831C28.61 6.84844 27.3732 6.83093 26.1431 6.84819L26.1473 17.8086Z" fill="#108DE8"/>
<path fill-rule="evenodd" clip-rule="evenodd" d="M54.9886 17.8083C54.9902 15.9894 54.991 14.1704 54.991 12.3514C54.991 11.3232 54.965 10.7872 55.4848 10.107C55.8278 9.65816 56.4606 9.20266 57.312 9.20875C58.1901 9.21508 58.7816 9.67033 59.1364 10.1354C59.6473 10.8046 59.6074 11.3885 59.6074 12.3776L59.6095 17.8103L61.9259 17.8012C61.9526 16.5082 61.9277 15.1874 61.9277 13.8914C61.9277 12.747 62.0297 11.2278 61.7291 10.2032C61.2047 8.41571 59.5541 6.84542 57.2859 6.8479C55.0293 6.85039 53.3791 8.44092 52.8643 10.2251C52.57 11.245 52.6711 12.7723 52.6711 13.9174L52.6733 17.8094L54.9886 17.8083Z" fill="#108DE8"/>
</svg>
