<svg width="201" height="200" viewBox="0 0 201 200" fill="none" xmlns="http://www.w3.org/2000/svg">
<g clip-path="url(#clip0_1440_11605)">
<path d="M44.3045 182.863C16.3362 146.444 4.48013 85.9187 9.78049 37.0072C11.6093 24.0347 28.5553 16.3722 35.0546 14.1011C53.0962 7.79141 71.0465 9.44462 127.814 31.8406C184.581 54.2367 187.626 83.9642 182.053 96.0285C179.737 104.462 164.422 130.604 121.69 167.703C78.9587 204.802 52.2949 193.267 44.3045 182.863Z" fill="#F4EDFB"/>
<path d="M91.9455 75.9934L91.8203 76.0375C91.8602 76.0152 91.8997 75.9929 91.9396 75.9707C91.9413 75.9782 91.9434 75.9858 91.9455 75.9934ZM69.6606 83.7679C71.6332 84.0656 73.6222 84.2231 75.6128 84.247C75.6523 84.2147 75.7056 84.1803 75.7842 84.142C81.2614 81.4786 86.4749 78.336 91.7888 75.3697C91.1694 72.8306 90.7813 70.2477 90.6356 67.6582C87.7731 68.8215 85.0139 70.2402 82.3857 71.8646C82.3857 71.865 82.3857 71.8655 82.3857 71.8659C82.2148 72.894 81.5621 73.3202 80.7323 73.7587C80.7394 73.7793 80.7419 73.8024 80.736 73.8288C80.2161 76.1605 79.7411 78.3275 77.3112 79.2259C76.2499 79.619 75.1475 79.4619 74.048 79.4505C72.4483 79.4342 71.3896 80.4799 70.1545 81.3732C70.0806 81.4265 69.9248 81.4714 69.7538 81.4996C70.0512 81.8028 70.3691 82.0884 70.7017 82.3626C70.7218 82.3647 70.7428 82.3622 70.7626 82.3656C70.923 82.392 71.0016 82.4861 70.981 82.5919C71.0184 82.6205 71.0519 82.6532 71.0902 82.6814C71.1746 82.7448 70.7903 82.9657 70.4333 83.0699C70.3204 83.1454 70.2061 83.2185 70.0902 83.2912C70.0797 83.2996 70.0688 83.308 70.0583 83.3168C70.047 83.3269 69.9504 83.4252 70.0029 83.3676C69.884 83.4961 69.7723 83.6318 69.6606 83.7679ZM76.9055 84.2214C76.89 84.229 76.8748 84.2369 76.8597 84.2445C76.8618 84.2445 76.8635 84.2445 76.8656 84.2445L76.9055 84.2214ZM67.7514 103.547C68.1306 102.677 68.4905 101.798 68.829 100.911C69.0075 100.443 70.5274 97.2653 70.1272 96.7915C70.0835 96.7395 70.0625 96.6874 70.0591 96.6362C68.8773 96.624 67.696 96.5845 66.5154 96.5202C65.7649 99.5554 64.3929 102.466 62.519 104.969C62.4925 105.004 62.4522 105.036 62.4027 105.064C63.9297 105.078 65.4592 105.109 66.982 105.19C66.9211 105.004 67.0526 104.776 67.4415 104.7C66.9144 104.803 67.1051 104.926 67.3579 104.401C67.4944 104.118 67.6263 103.834 67.7514 103.547ZM80.0943 96.0658C77.2012 96.4396 74.287 96.6198 71.3699 96.6383C71.3703 96.6437 71.3707 96.6488 71.3711 96.6542L74.4008 96.9474C74.4008 96.9478 77.4792 96.4741 80.0943 96.0658ZM26.9866 161.269C26.9895 161.279 26.9929 161.288 26.9958 161.299L27.0508 161.246C27.042 161.249 27.0336 161.254 27.0248 161.257C27.0122 161.262 26.9996 161.265 26.9866 161.269ZM90.7347 93.5095C91.6775 93.2252 92.3188 93.0282 92.3188 93.0282L93.7862 92.2613C92.7795 92.6989 91.7632 93.1197 90.7347 93.5095ZM103.775 85.8979C103.719 85.8824 103.698 85.8559 103.727 85.8169C102.499 83.7359 101.417 81.5617 100.52 79.3212L100.071 78.5283C93.412 82.2492 85.8698 84.5057 78.2469 84.9139C77.2734 85.0802 76.6409 85.1882 76.6409 85.1882C76.6409 85.1882 75.6195 85.0954 74.1975 84.9513C70.7928 84.8363 67.4003 84.3436 64.0922 83.4314C63.5126 83.2719 64.1245 82.8284 64.5819 82.7469C64.4698 82.5839 64.361 82.4101 64.2556 82.2261C63.0696 80.975 62.2998 79.3926 62.5009 77.5808C62.5039 77.5544 62.5114 77.5296 62.5211 77.5048C61.5321 77.5624 60.5539 77.6342 59.6372 78.0004C58.2265 78.564 56.8763 79.3199 55.5773 80.18C54.5622 80.9931 53.3212 81.9485 52.4695 82.4773C51.3133 83.4071 50.1975 84.3705 49.1177 85.2974C45.6274 88.2939 42.2764 91.4537 39.0258 94.7077C37.3733 96.3615 35.4431 98.0166 34.0471 99.8976C33.9744 99.9951 33.8056 100.064 33.6166 100.11C33.709 100.145 33.7716 100.206 33.7741 100.303C33.8913 104.149 36.0634 108.229 38.2451 111.278C40.6793 114.679 44.5653 118.801 49.1967 117.463C49.2429 117.45 49.2803 117.45 49.3223 117.443C52.2016 110.003 57.1052 103.517 59.6027 95.9121C59.6073 95.8979 59.6162 95.8844 59.6233 95.8706C59.5826 95.8651 59.5414 95.8605 59.5007 95.855C59.1769 95.8113 60.2146 95.3473 60.5015 95.3859C62.314 95.6303 64.1451 95.8227 65.9842 95.9587C67.5267 96.0726 69.0756 96.1456 70.6253 96.1708C70.7118 96.1503 70.7995 96.1389 70.8827 96.1406C70.9604 96.1419 71.0335 96.1536 71.0977 96.178C75.5385 96.2216 79.9826 95.8718 84.3062 94.9848C88.4446 94.1361 92.1622 92.3991 96.0347 90.7931C96.7907 90.4798 97.5697 90.1846 98.3471 89.8772L103.075 87.4061C103.407 87.1465 103.726 86.8685 104.026 86.5628C104.049 86.5384 104.087 86.5153 104.133 86.493C104.012 86.2961 103.893 86.0974 103.775 85.8979ZM33.575 105.366L33.5696 105.491C33.5834 105.485 33.5994 105.48 33.6141 105.474C33.6007 105.438 33.5885 105.402 33.575 105.366ZM51.1966 121.286C48.7524 121.664 46.2792 121.825 43.7656 121.644C41.9295 121.511 39.7545 121.071 37.8482 120.202C37.4442 123.699 37.4463 127.236 36.9562 130.725C36.4829 134.098 35.5535 136.689 33.5763 139.453C30.4383 143.838 26.4813 147.479 23.1413 151.665C23.1241 151.713 23.0859 151.766 23.0254 151.824C23.0304 151.835 23.0376 151.844 23.0414 151.856C23.9216 154.656 24.6826 158.186 26.6838 160.457C28.1511 159.821 29.4346 158.615 30.6004 157.561C32.523 155.823 34.3491 153.976 36.1247 152.089C37.8319 150.274 39.7247 148.41 41.4251 146.435C42.5028 145.008 43.7165 143.335 44.8286 141.651C46.7907 138.132 48.03 134.114 49.161 130.288C49.7435 128.319 50.2983 126.336 50.7439 124.33C50.903 123.612 51.0656 122.89 51.1659 122.162C51.2713 121.396 51.0824 121.492 51.538 121.45C51.538 121.448 51.5384 121.445 51.5389 121.443C51.357 121.442 51.2478 121.378 51.1966 121.286ZM88.6021 131.715L93.8941 129.363C93.811 129.376 93.7291 129.382 93.6548 129.38C91.9686 130.175 90.2261 130.78 88.6021 131.715ZM90.6738 123.386C89.9792 122.403 89.2568 121.374 88.5588 120.366C86.1243 117.045 83.444 113.889 80.6264 111.091C78.0449 108.528 75.46 107.012 71.8108 106.463C66.6964 105.694 61.456 105.819 56.298 105.726C54.1801 109.661 51.9441 113.542 50.3734 117.739C50.2697 118.016 49.7351 118.176 49.4033 118.14C49.3945 118.143 49.3895 118.147 49.3802 118.15C44.7778 119.479 40.7007 116.446 38.0003 112.957C36.6455 111.206 35.2692 109.132 34.2373 106.929C33.6359 109.986 33.2592 113.546 34.8959 116.212C35.5691 117.309 36.4833 118.201 37.5383 118.916C37.7584 118.92 37.9415 119.003 37.9612 119.189C40.0947 120.496 42.7249 121.123 45.1377 121.22C47.2102 121.304 49.2475 121.163 51.2596 120.869C51.365 120.714 51.5502 120.58 51.7875 120.549C51.9681 120.526 52.1012 120.589 52.1986 120.714C53.0348 120.572 53.8668 120.406 54.6949 120.219L69.0814 115.846C69.0814 115.846 69.089 115.863 69.1016 115.894C69.168 115.884 69.2251 115.88 69.2717 115.882C69.6345 115.748 70.1259 115.748 70.1079 116.042C70.0108 117.637 72.1237 119.408 73.135 120.389C75.1051 122.301 77.2222 124.059 79.3753 125.759C81.3463 127.316 83.3504 128.829 85.3662 130.326C85.8664 130.698 86.6895 131.129 87.2636 131.632C89.3488 130.294 91.6528 129.633 93.8198 128.475C92.848 126.767 91.7955 125.064 90.6738 123.386ZM56.8355 104.717C56.7822 104.818 56.7284 104.919 56.6747 105.02C56.689 105.02 56.7041 105.018 56.7179 105.018C56.7184 105.018 56.7184 105.018 56.7188 105.018L56.8355 104.717Z" fill="#A358E7"/>
<path d="M77.6344 67.2806C77.8188 67.483 76.692 67.9186 76.4875 67.693C76.1569 67.3302 75.6618 67.2449 75.1914 67.3125C75.1381 67.3205 74.6047 67.3957 74.7055 67.1987C74.8114 66.9921 75.2175 66.8976 75.4195 66.8686C76.1351 66.7662 77.0939 66.6855 77.6344 67.2806ZM73.6493 73.9082C73.4632 74.0178 73.3024 74.292 73.5548 74.4289C73.7484 74.5343 73.9891 74.5062 74.1995 74.4294C74.2091 74.4336 74.2179 74.4373 74.2326 74.4432C74.3653 74.4991 74.4926 74.5814 74.6035 74.6725C74.7853 74.8212 74.9709 75.0148 75.0486 75.2407C75.2091 75.7077 76.4194 75.3617 76.2653 74.9153C75.91 73.8821 74.5837 73.3597 73.6493 73.9082ZM77.1968 69.758C76.8793 69.6115 76.5248 69.5279 76.2304 69.3343C75.994 69.1785 75.6782 69.2326 75.4283 69.3351C75.3384 69.3721 74.8643 69.6467 75.0974 69.8C75.3821 69.9873 75.6874 70.1011 75.9944 70.2288C75.5929 70.5228 75.1944 70.8193 74.8139 71.1406C74.5913 71.3279 75.0075 71.3716 75.1083 71.3648C75.3943 71.3459 75.6996 71.254 75.9209 71.0675C76.2589 70.782 76.6164 70.5213 76.9736 70.2608C76.9763 70.2588 76.979 70.2568 76.9818 70.2548C77.0158 70.2389 77.0532 70.2246 77.083 70.207C77.2413 70.1146 77.4576 69.8786 77.1968 69.758ZM187.564 94.3801C187.548 94.4767 187.517 94.538 187.455 94.6145C187.099 95.0525 185.944 94.8471 186.433 94.2436C185.391 95.53 187.238 94.7778 186.993 94.8669C187.054 94.8446 187.09 94.8316 187.109 94.824C187.085 94.8329 187.043 94.8488 187.019 94.8585C186.88 94.9148 186.741 94.9731 186.603 95.0323C186.105 95.2461 185.61 95.4653 185.115 95.6854C183.304 96.4901 181.499 97.3069 179.694 98.125C173.31 101.017 179.825 98.0518 173.452 100.968C169.903 102.592 166.356 104.221 162.807 105.847C161.386 106.598 159.92 107.266 158.419 107.858C140.528 116.057 122.643 124.268 104.756 132.478C80.9908 143.385 57.2276 154.296 33.4388 165.153C25.3821 168.829 24.7807 169.15 16.7047 172.784C13.4873 174.231 14.6232 174.086 11.1916 174.994C10.4386 175.194 10.2102 174.344 10.964 174.145C13.4187 173.494 12.3206 173.776 14.9455 172.597C20.0389 170.309 17.6664 171.356 22.7485 169.042C22.3852 169.157 22.0156 169.274 21.6431 169.412C21.1925 169.58 20.421 169.465 21.2202 169.165C20.9741 169.197 20.7275 169.128 20.6301 168.92C20.6284 168.916 20.6263 168.911 20.6242 168.907C20.5986 168.853 20.5948 168.799 20.6062 168.749C20.3172 166.179 19.1014 163.411 18.3829 160.953C17.8167 159.018 17.2489 157.082 16.6349 155.162C16.425 154.505 16.2179 153.845 15.9777 153.198C15.7858 152.682 15.5308 152.597 15.9735 152.624C15.6077 152.602 15.5464 152.433 15.6384 152.256C15.5094 152.065 15.8168 151.663 16.2372 151.589C18.1225 151.26 20.0182 151.402 21.9018 151.655C21.919 151.627 21.9375 151.597 21.9631 151.565C25.204 147.458 29.0904 143.907 32.1953 139.657C34.474 136.538 35.4664 133.519 35.8692 129.673C36.2198 126.325 36.2606 122.942 36.7053 119.604C35.5974 118.945 34.642 118.109 33.9969 117.058C31.8727 113.598 32.5212 109.441 33.3502 105.676C33.3657 105.606 33.451 105.543 33.5694 105.491C33.5833 105.484 33.5992 105.479 33.6139 105.474C33.6001 105.438 33.5883 105.401 33.5749 105.366C32.9873 103.806 32.6039 102.207 32.556 100.63C32.5497 100.427 32.7383 100.265 32.9676 100.169C32.8727 100.161 32.8198 100.139 32.8441 100.106C34.1389 98.3622 35.8792 96.8377 37.4054 95.3048C40.5031 92.1937 43.6756 89.1485 46.9871 86.2645C50.0932 83.5604 53.3206 80.8104 56.9336 78.7987C58.1108 78.1432 59.364 77.5216 60.697 77.2587C61.1888 77.1617 61.6688 77.1205 62.1694 77.1411C62.4348 77.152 62.7347 77.1558 63.0505 77.1445C63.171 77.1176 63.2937 77.11 63.4016 77.1251C64.1076 77.0735 64.8568 76.9328 65.4721 76.6212C65.4653 76.617 65.4569 76.6145 65.4506 76.6103C62.2316 74.3517 60.1985 70.0528 61.4076 66.1261C61.7356 65.0611 62.2702 64.159 62.9678 63.4874C63.2727 62.952 63.8321 62.666 64.4435 62.5245C65.1697 62.2305 65.989 62.1225 66.8781 62.2372C67.3413 61.5724 67.8659 61.1545 68.4341 60.8924C68.5362 60.8454 68.6395 60.8043 68.744 60.7669C69.9065 60.3482 71.2269 60.4729 72.5595 60.396C73.0445 60.349 73.5212 60.2889 73.9592 60.2071C74.0953 60.1751 74.231 60.139 74.3658 60.0962C74.4111 60.071 74.4628 60.0462 74.5279 60.0197C76.3619 59.2844 77.3921 57.1358 79.5952 57.4991C79.6545 57.5087 79.7174 57.5255 79.7788 57.5394C79.8497 57.5549 79.9186 57.565 79.9921 57.586C82.1533 58.2046 83.3418 61.2767 82.1277 63.2031C81.6963 63.8881 81.0462 64.3471 80.2764 64.655C80.2983 64.6865 80.3168 64.7209 80.3281 64.7616C80.5326 65.4789 80.389 66.4104 80.4108 67.1471C80.444 68.2541 80.4621 69.391 80.7111 70.4762C81.2377 70.5283 81.8173 70.6908 82.1432 71.0343C84.8411 69.4036 87.6629 67.969 90.5951 66.8107C90.3486 59.8959 91.8391 52.9676 95.2988 46.7546C105.445 28.532 128.133 19.4506 148.32 23.203C154.103 24.2782 159.665 26.3608 164.585 29.4623C164.603 29.4316 164.625 29.4001 164.653 29.3665C164.997 28.968 165.398 28.6131 165.758 28.2293C166.004 27.9672 166.251 27.7039 166.474 27.4225C166.538 27.3423 166.612 27.257 166.662 27.1722C166.67 27.1583 166.673 27.152 166.679 27.1411C166.592 26.9362 166.847 26.6783 167.149 26.562C166.563 26.0798 165.977 25.5965 165.395 25.1093C165.005 24.783 164.135 24.2941 163.931 23.7973C163.859 23.6218 164.282 23.4907 164.568 23.4269C164.724 22.9338 165.381 22.3757 165.621 22.109C165.95 21.7415 166.284 21.3779 166.609 21.0062C166.741 20.8558 166.874 20.7059 166.997 20.548C167.162 20.3376 167.041 20.4443 167.058 20.6043C167.072 20.3149 167.459 19.9575 167.863 20.0041C168.076 20.0289 168.196 20.0982 168.252 20.1948C168.513 20.1776 168.561 20.2313 168.497 20.3103C168.515 20.3015 168.533 20.2931 168.551 20.2842C168.817 20.9344 170.142 21.6722 170.662 22.1023C171.969 23.1833 173.282 24.258 174.59 25.3382C175.947 26.4603 177.31 27.5779 178.633 28.7399C179.099 29.1494 179.942 29.6773 180.192 30.277C180.225 30.3551 180.11 30.4517 179.942 30.5336C179.725 30.9448 179.253 31.4118 179.116 31.5647C178.758 31.964 178.395 32.3592 178.042 32.7633C177.901 32.9241 177.76 33.0845 177.628 33.2525C177.417 33.5217 177.556 33.4453 177.505 33.2412C177.626 33.7338 176.763 34.1009 176.421 33.7712C176.09 33.9026 175.647 33.9677 175.572 33.7892C175.245 33.0039 173.971 32.2395 173.35 31.7104C173.245 31.6209 173.139 31.5336 173.034 31.4441C172.812 31.7331 172.551 31.9947 172.454 32.1018C172.096 32.5012 171.732 32.8964 171.38 33.3004C171.239 33.4612 171.097 33.6221 170.966 33.7901C170.755 34.0597 170.895 33.9824 170.842 33.7779C170.882 33.9354 170.819 34.0794 170.705 34.1928C171.883 35.3032 173.004 36.4838 174.045 37.7533C180.3 45.3825 184.062 55.0183 184.625 64.8771C185.224 75.3692 182.521 86.275 176.077 94.7093C173.858 97.6138 171.257 100.146 168.384 102.305C168.405 102.295 168.427 102.285 168.449 102.275C176.093 98.7746 170.85 101.154 178.508 97.6824C180.583 96.7412 182.659 95.7992 184.742 94.8753C185.326 94.6166 186.748 93.6826 187.414 94.0673C187.516 94.1277 187.582 94.2651 187.564 94.3801ZM178.819 30.4387C178.821 30.4106 178.826 30.3816 178.834 30.3522C178.831 30.3467 178.829 30.3417 178.825 30.3362C178.819 30.3648 178.815 30.3992 178.819 30.4387ZM167.259 25.2899C168.566 26.3713 169.879 27.4456 171.187 28.5266C172.544 29.6483 173.907 30.7659 175.23 31.9279C175.566 32.2232 176.096 32.5814 176.46 32.9825C176.714 32.5713 177.187 32.1606 177.381 31.9435C177.711 31.5764 178.045 31.2123 178.37 30.841C178.38 30.8302 178.389 30.8193 178.399 30.8084C178.521 30.6689 178.644 30.529 178.758 30.3829C178.781 30.354 178.797 30.3325 178.809 30.3149L178.811 30.3123C178.339 29.6324 177.296 28.989 176.753 28.5258C175.446 27.412 174.123 26.3171 172.798 25.2256C171.464 24.1261 170.123 23.0342 168.798 21.9247C168.566 21.7302 168.165 21.4778 167.834 21.2006C167.639 21.4371 167.437 21.6416 167.354 21.7331C166.996 22.1325 166.633 22.5277 166.28 22.9317C166.267 22.9465 166.254 22.9614 166.241 22.9762C166.114 23.1223 165.986 23.2689 165.866 23.4214C165.655 23.6915 165.795 23.6142 165.742 23.4084C165.795 23.6197 165.667 23.8078 165.477 23.9283C165.981 24.4441 166.858 24.9581 167.259 25.2899ZM165.286 29.9133C166.89 30.9704 168.422 32.1379 169.865 33.4201C170.127 33.0438 170.541 32.6805 170.72 32.4815C171.05 32.114 171.383 31.7499 171.709 31.3786C171.804 31.269 171.898 31.1577 171.99 31.0456C171.869 30.7466 171.378 30.3997 171.197 30.2346C170.625 29.7155 170.036 29.2166 169.444 28.721C168.897 28.2624 168.344 27.8105 167.806 27.341C167.613 27.6841 167.269 28.0331 167.121 28.1978C166.653 28.7156 166.123 29.1847 165.668 29.7126C165.58 29.8155 165.438 29.8814 165.286 29.9133ZM94.6848 80.4043C96.4873 79.6362 98.2432 78.7609 99.9378 77.7828C97.4831 70.9163 96.7939 63.5063 98.9319 56.3316C101.598 47.3866 107.807 39.9095 115.833 35.2092C130.007 26.908 150.218 26.4679 163.465 36.9651C174.215 45.4825 179.247 59.7921 177.297 73.2551C175.268 87.2557 165.835 99.1841 151.957 102.95C135.329 107.463 114.307 102.08 104.541 87.1545C104.522 87.1242 104.503 87.0931 104.484 87.0629C102.94 88.382 101.078 89.1863 99.1932 89.9405C99.1984 89.9486 99.2037 89.9567 99.209 89.9648C99.5271 90.451 99.8456 90.9378 100.186 91.4088C111.928 107.629 135.817 114.427 154.849 108.513C158.115 107.016 161.38 105.516 164.647 104.021C172.763 98.8943 178.751 91.0287 181.534 81.573C184.519 71.4324 184.087 60.3608 180.144 50.5267C176.244 40.799 169.201 32.3613 159.667 27.7618C149.34 22.7793 137.269 21.7512 126.175 24.6032C114.959 27.4872 104.502 34.0542 98.1395 43.8958C91.026 54.8991 90.0198 68.2621 94.6848 80.4043ZM102.398 80.5639C103.094 82.1211 103.881 83.646 104.75 85.1319C106.152 84.0782 107.029 82.6688 106.95 80.7222C106.873 78.8592 106.349 77.0386 105.623 75.3277C105.306 74.5801 105.019 73.7545 104.558 73.0737C104.032 75.2466 104.499 79.6198 102.398 80.5639ZM138.413 103.57C147.279 103.934 156.43 101.867 163.465 96.2372C169.064 91.7552 173.077 85.4876 174.976 78.5778C178.673 65.1287 175.314 49.5331 165.005 39.7969C151.78 27.3074 129.487 26.9555 114.717 36.9466C107.348 41.9308 101.542 49.4033 99.6568 58.2143C98.0471 65.7364 99.2137 73.2123 102.183 80.0767C102.377 79.4913 102.692 77.5745 102.736 77.2595C102.897 76.113 102.989 74.9426 103.223 73.8078C103.365 73.1169 104.255 71.2052 105.325 72.1917C106.514 73.2875 107.093 75.4205 107.53 76.903C107.97 78.3956 108.37 80.0343 108.086 81.5991C107.745 83.486 106.597 84.672 105.038 85.6178C105.241 85.955 105.446 86.2914 105.657 86.624C112.696 97.3812 125.856 103.053 138.413 103.57ZM82.3864 71.8646V71.8659C82.2154 72.8939 81.5628 73.3202 80.7329 73.7587C80.7401 73.7792 80.7426 73.8023 80.7367 73.8288C80.2168 76.1605 79.7418 78.3275 77.3119 79.2258C76.2506 79.6189 75.1482 79.4619 74.0487 79.4505C72.449 79.4341 71.3903 80.4799 70.1551 81.3731C70.0812 81.4265 69.9254 81.4714 69.7545 81.4996C70.0518 81.8028 70.3697 82.0884 70.7024 82.3626C70.7225 82.3647 70.7435 82.3622 70.7633 82.3655C70.9237 82.392 71.0022 82.4861 70.9816 82.5919C71.019 82.6205 71.0526 82.6532 71.0908 82.6814C71.1753 82.7448 70.791 82.9657 70.434 83.0698C70.321 83.1454 70.2068 83.2185 70.0909 83.2911C70.0804 83.2995 70.0695 83.308 70.059 83.3168C70.0476 83.3268 69.951 83.4251 70.0035 83.3676C69.8843 83.4974 69.7726 83.6326 69.6608 83.7687C71.6334 84.0664 73.6224 84.2239 75.6131 84.2478C75.6526 84.2155 75.7059 84.1811 75.7844 84.1429C81.2617 81.4794 86.4752 78.3368 91.7891 75.3705C91.1696 72.8314 90.7816 70.2485 90.6358 67.659C87.7737 68.8215 85.0145 70.2406 82.3864 71.8646ZM76.8654 84.2449C82.5514 84.1529 88.2219 82.9808 93.5244 80.8805C92.9024 79.2792 92.375 77.6468 91.9457 75.9937C91.9441 75.9858 91.942 75.9786 91.9399 75.9711C91.9 75.9933 91.8605 76.0156 91.8206 76.0378C86.875 78.8164 82 81.7184 76.9057 84.2214C76.8902 84.2289 76.8751 84.2369 76.86 84.2445L76.8654 84.2449ZM79.0988 64.9968C77.1102 65.3904 74.6914 65.1235 72.8741 64.9229C72.8549 64.9208 72.8359 64.9187 72.8169 64.9166C72.6397 67.1139 73.7635 72.4261 70.4214 72.5265C70.2803 72.5311 70.1732 72.508 70.0921 72.4694C69.8754 72.4803 69.6802 72.4227 69.6151 72.2585C69.4525 71.8478 69.2526 71.424 68.9188 71.1221C68.8969 71.1023 68.8721 71.0864 68.849 71.0683C68.6286 71.057 68.3539 71.0599 68.0662 71.107C68.0498 71.1217 68.036 71.1317 68.0183 71.1498C67.7999 71.3682 67.6236 71.624 67.4875 71.9011C67.2267 72.4328 67.0646 73.1132 67.2838 73.6873C67.5404 74.3596 68.2275 74.5318 68.8868 74.4881C69.7268 74.4327 69.3585 75.1756 68.7352 75.2164C68.4627 75.2344 68.1691 75.2323 67.8781 75.2025C67.5669 75.6313 66.9474 76.1302 66.4065 76.5103C66.4674 76.5221 66.5132 76.5452 66.5321 76.5863C67.2884 78.2393 68.2031 79.7911 69.4013 81.1182C70.6305 80.2031 71.9127 79.0473 73.4943 78.9041C75.1918 78.7496 77.6105 79.3573 78.5222 77.4095C79.0291 76.3264 79.2706 75.1773 79.5297 74.0153C79.5486 73.9304 79.6347 73.8548 79.7523 73.7935C79.7431 73.7847 79.7321 73.778 79.7237 73.7683L79.7225 73.7666C79.5138 73.5298 79.8161 73.2417 80.0102 73.1409C80.4188 72.9284 81.0626 72.7419 81.1223 72.1905C81.1643 71.8033 81.139 71.5534 80.7203 71.4295C80.4688 71.3548 80.2076 71.3333 79.9468 71.3548C79.7078 71.3745 79.3475 71.2615 79.3844 70.9566C79.3945 70.8735 79.4306 70.8016 79.481 70.7391C79.2528 69.7092 79.2205 68.6247 79.1891 67.575C79.1886 67.5562 79.188 67.5375 79.1874 67.5187C79.1652 66.775 79.3176 65.8086 79.1123 65.0884C79.103 65.0569 79.0997 65.0266 79.0988 64.9968ZM63.7254 77.4229C63.7254 77.4363 63.7279 77.4481 63.7262 77.4624C63.439 80.0494 65.3561 82.1178 67.4568 83.3227C67.4959 83.3449 67.5249 83.3684 67.5484 83.3932C67.9217 83.4696 68.2955 83.5402 68.6701 83.6061C68.8549 83.3844 69.0489 83.1715 69.2925 83.0127C69.4202 82.9296 69.5155 82.8708 69.6092 82.809C67.7353 81.2879 66.4304 79.2909 65.4112 77.113C64.8589 77.2843 64.2936 77.3704 63.7254 77.4229ZM52.4689 82.4781C51.3127 83.4079 50.1969 84.3713 49.1171 85.2982C45.6268 88.2947 42.2758 91.4545 39.0252 94.7085C37.3727 96.3623 35.4425 98.0174 34.0465 99.8985C33.9738 99.9959 33.805 100.065 33.616 100.111C33.7084 100.145 33.771 100.207 33.7735 100.304C33.8907 104.15 36.0628 108.229 38.2445 111.278C40.6787 114.68 44.5647 118.801 49.1961 117.464C49.2423 117.451 49.2797 117.451 49.3217 117.444C52.201 110.003 57.1046 103.518 59.6021 95.9129C59.6067 95.8987 59.6156 95.8852 59.6227 95.8714C59.582 95.8659 59.5408 95.8613 59.5001 95.8558C59.1763 95.8121 60.214 95.3481 60.5009 95.3867C62.3135 95.6311 64.1445 95.8235 65.9836 95.9596C67.5261 96.0734 69.075 96.1464 70.6247 96.1716C70.7112 96.1511 70.799 96.1397 70.8821 96.1414C70.9598 96.1427 71.0329 96.1544 71.0971 96.1788C75.5379 96.2225 79.982 95.8726 84.3056 94.9856C88.444 94.1369 92.1616 92.3999 96.0341 90.7939C96.7901 90.4806 97.5691 90.1854 98.3465 89.878C100.016 89.2182 101.675 88.498 103.074 87.4069C103.406 87.1473 103.725 86.8693 104.025 86.5636C104.049 86.5392 104.086 86.5161 104.132 86.4938C104.011 86.2965 103.893 86.0978 103.775 85.8983C103.719 85.8828 103.697 85.8563 103.727 85.8173C102.499 83.7363 101.417 81.5621 100.52 79.3216C100.406 79.036 100.295 78.7504 100.187 78.4632C100.149 78.485 100.11 78.5068 100.071 78.5287C93.4119 82.2496 85.8696 84.5061 78.2467 84.9143C76.8978 84.9866 75.5467 84.9971 74.1974 84.9517C70.7927 84.8366 67.4001 84.344 64.092 83.4318C63.5125 83.2722 64.1244 82.8288 64.5817 82.7473C64.6552 82.7343 64.7241 82.7313 64.7837 82.7393C64.5998 82.5751 64.4238 82.4038 64.255 82.2261C63.069 80.975 62.2992 79.3926 62.5003 77.5808C62.5033 77.5544 62.5108 77.5296 62.5205 77.5048C61.5315 77.5623 60.5534 77.6342 59.6366 78.0004C58.2259 78.564 56.8757 79.3199 55.5767 80.18C54.507 80.8898 53.4727 81.6705 52.4689 82.4781ZM56.8358 104.717C56.7824 104.818 56.7287 104.92 56.6749 105.021C56.6892 105.02 56.7043 105.018 56.7182 105.018C58.2721 105.046 59.8432 105.046 61.4193 105.057C63.2647 102.554 64.617 99.6553 65.3482 96.6344C65.3637 96.5702 65.4368 96.5122 65.5376 96.4631C63.935 96.3573 62.3353 96.2061 60.7415 96.0129C59.7227 99.0463 58.3271 101.904 56.8358 104.717ZM62.4033 105.064C63.9303 105.078 65.4599 105.109 66.9827 105.19C66.9218 105.004 67.0532 104.776 67.4421 104.7C66.9151 104.803 67.1057 104.926 67.3586 104.401C67.4946 104.119 67.6265 103.834 67.7517 103.547C68.1309 102.677 68.4908 101.798 68.8293 100.911C69.0078 100.444 70.5277 97.2657 70.1274 96.7919C70.0837 96.7399 70.0627 96.6878 70.0594 96.6366C68.8776 96.6244 67.6962 96.5849 66.5157 96.5206C65.7652 99.5558 64.3932 102.467 62.5192 104.969C62.4932 105.004 62.4529 105.036 62.4033 105.064ZM34.2372 106.93C33.6358 109.987 33.2591 113.547 34.8957 116.213C35.5689 117.31 36.4832 118.202 37.5381 118.917C37.7582 118.921 37.9413 119.004 37.961 119.19C40.0945 120.496 42.7248 121.124 45.1375 121.221C47.2101 121.305 49.2473 121.164 51.2594 120.87C51.3648 120.715 51.55 120.581 51.7873 120.55C51.9679 120.527 52.101 120.59 52.1985 120.715C53.0346 120.572 53.8666 120.407 54.6948 120.22C59.4866 119.138 64.1643 117.393 68.8629 115.952C68.9532 115.924 69.0321 115.906 69.1014 115.895C69.1678 115.885 69.2249 115.881 69.2715 115.883C69.6344 115.749 70.1257 115.749 70.1077 116.043C70.0107 117.638 72.1235 119.409 73.1348 120.39C75.1049 122.302 77.222 124.059 79.3752 125.76C81.3461 127.317 83.3502 128.829 85.366 130.327C85.8662 130.699 86.6894 131.13 87.2635 131.633C89.3486 130.295 91.6526 129.634 93.8197 128.475C92.8483 126.767 91.7958 125.063 90.6741 123.386C89.9929 122.367 89.2873 121.359 88.5591 120.366C86.1245 117.045 83.4443 113.889 80.6267 111.091C78.0451 108.527 75.4602 107.011 71.8111 106.462C66.6967 105.694 61.4563 105.818 56.2982 105.726C54.1803 109.661 51.9444 113.542 50.3737 117.738C50.27 118.015 49.7353 118.175 49.4036 118.139C49.3948 118.142 49.3897 118.147 49.3805 118.149C44.778 119.478 40.7009 116.446 38.0005 112.957C36.6453 111.207 35.269 109.133 34.2372 106.93ZM51.5379 121.451C51.5794 121.447 51.6244 121.443 51.6777 121.436C51.6273 121.443 51.5815 121.445 51.5391 121.445C51.3573 121.443 51.2481 121.379 51.1973 121.287C48.753 121.665 46.2798 121.825 43.7663 121.644C41.9302 121.512 39.7552 121.071 37.8489 120.202C37.4449 123.699 37.447 127.236 36.9569 130.726C36.4836 134.098 35.5542 136.69 33.577 139.453C30.4389 143.838 26.482 147.479 23.142 151.665C23.1247 151.713 23.0865 151.766 23.026 151.825C23.0311 151.835 23.0382 151.845 23.042 151.856C23.9223 154.656 24.6833 158.187 26.6844 160.457C28.1518 159.821 29.4352 158.615 30.6011 157.561C32.5237 155.823 34.3497 153.977 36.1253 152.089C37.8325 150.274 39.7253 148.411 41.4258 146.436C42.4883 145.202 43.4761 143.924 44.2955 142.587C44.4828 142.281 44.6541 141.965 44.8292 141.651C46.7913 138.132 48.0307 134.114 49.1617 130.288C49.7442 128.319 50.2989 126.336 50.7445 124.33C50.9037 123.613 51.0662 122.891 51.1666 122.162C51.2712 121.398 51.0822 121.493 51.5379 121.451ZM22.0055 151.53C22.0269 151.51 22.0521 151.493 22.079 151.476C22.0761 151.475 22.0736 151.474 22.0706 151.473C22.0488 151.492 22.0274 151.511 22.0055 151.53ZM25.6282 165.932C26.02 164.476 26.1972 162.804 25.695 161.351C25.679 161.304 25.7172 161.252 25.7865 161.201C23.63 158.967 22.8114 155.397 21.9161 152.478C20.2702 152.242 18.6197 152.066 16.9684 152.225C17.2515 152.686 17.3871 153.409 17.495 153.735C18.1233 155.63 18.6936 157.544 19.2572 159.458C19.8666 161.528 20.4646 163.601 21.0492 165.678C21.3096 166.603 21.7552 167.632 21.848 168.594C21.8657 168.776 21.7569 168.926 21.5981 169.029C23.344 168.417 25.073 167.995 25.6282 165.932ZM89.011 138.721C88.2517 138.175 87.728 137.199 87.3344 136.393C86.7839 135.266 86.3387 134.054 86.4588 132.782C86.4668 132.698 86.5151 132.623 86.5873 132.558C86.4996 132.507 86.4966 132.419 86.6579 132.287C86.3072 132.576 85.9675 132.081 85.4689 131.709C84.7197 131.149 83.9676 130.594 83.2187 130.033C81.0874 128.44 78.9665 126.831 76.9041 125.149C74.8668 123.489 72.8077 121.792 71.0245 119.854C70.1854 118.942 68.8713 117.657 68.8957 116.299C63.4541 117.971 57.981 120.063 52.3585 121.091C52.7079 122.72 51.1687 127.482 51.0179 128.025C49.7177 132.698 48.3297 137.622 45.9522 141.879C43.76 145.804 40.207 149.21 37.1429 152.445C35.2959 154.395 33.4157 156.327 31.407 158.112C30.103 159.272 28.7003 160.59 27.0519 161.246C27.0431 161.25 27.0347 161.255 27.0258 161.258C27.0132 161.263 27.0002 161.265 26.9876 161.269C26.9906 161.279 26.9939 161.289 26.9969 161.299C27.4929 163.053 27.2921 165.724 26.1439 167.135C25.9301 167.398 25.7013 167.618 25.4606 167.809C26.3972 167.382 27.3349 166.956 28.2715 166.529C48.5325 157.293 68.7722 148.008 89.011 138.721ZM104.473 131.625C104.26 131.662 104.074 131.652 104.03 131.549C102.527 127.984 98.5578 127.928 95.245 128.924C95.0846 129.066 94.7692 129.173 94.5046 129.167C94.3837 129.21 94.2635 129.254 94.1455 129.299C94.0683 129.329 93.9813 129.35 93.8948 129.363C93.8117 129.376 93.7298 129.382 93.6554 129.38C91.9688 130.175 90.2268 130.78 88.6028 131.715C88.318 131.88 88.0371 132.056 87.7603 132.243C87.7557 132.319 87.6687 132.407 87.6297 132.439C87.6272 132.441 87.6251 132.443 87.6226 132.445L87.6167 132.449C87.6629 132.499 87.6889 132.564 87.6809 132.65C87.5701 133.825 88.0148 135.039 88.5511 136.067C88.9236 136.781 89.412 137.771 90.1315 138.206C92.7794 136.991 95.4281 135.777 98.076 134.562C100.209 133.583 102.341 132.604 104.473 131.625ZM151.868 109.879C151.091 110.055 150.31 110.219 149.522 110.354C130.749 113.593 108.799 106.838 98.0559 90.3945C97.4419 90.6406 96.8321 90.8926 96.237 91.1656C95.4277 91.5373 94.61 91.9043 93.7873 92.2617C92.7806 92.6993 91.7639 93.1206 90.7358 93.5103C88.7989 94.244 86.8238 94.8681 84.8062 95.2821C83.2439 95.6026 81.6728 95.8626 80.0954 96.0667C77.2022 96.4404 74.2881 96.6206 71.371 96.6391C71.3714 96.6445 71.3718 96.6496 71.3722 96.655C71.3894 97.0851 71.1471 97.6562 71.0577 97.9448C70.704 99.0846 70.2942 100.208 69.8582 101.318C69.5449 102.117 68.9809 104.549 68.0251 105.254C69.7171 105.372 71.3974 105.561 73.0525 105.871C76.4366 106.504 78.9976 107.869 81.4334 110.289C86.752 115.57 91.5804 121.984 95.2551 128.531C98.9357 127.441 103.573 127.248 105.249 131.224C105.255 131.238 105.252 131.255 105.246 131.272C120.785 124.138 136.325 117.006 151.868 109.879ZM133.835 70.3884C133.189 69.3137 133.953 68.2478 135.017 67.7317C135.543 63.3056 136.155 58.8879 136.728 54.4682C136.759 54.23 136.79 53.9918 136.821 53.7536C137.07 51.8292 137.319 49.9043 137.569 47.98C137.73 46.7424 138.609 45.8831 139.388 44.9281C139.382 44.905 139.374 44.8823 139.368 44.8592C139.292 44.5653 140.511 44.244 140.585 44.5329C140.596 44.5749 140.608 44.6163 140.621 44.6578C140.624 44.6662 140.626 44.6745 140.629 44.6828C140.672 44.7358 140.692 44.8 140.688 44.8731C141.107 46.1179 141.955 47.2337 141.683 48.552C141.247 50.6657 140.811 52.7799 140.376 54.8944C139.482 59.2415 138.481 63.5836 137.709 67.9555C137.729 67.9769 137.75 67.9958 137.768 68.0181C138.258 68.4519 138.678 69.0701 138.526 69.7589C138.423 70.2192 138.127 70.6059 137.745 70.8739C137.746 70.8806 137.75 70.8856 137.752 70.8928C138.333 74.0203 138.967 77.1382 139.579 80.2598C139.741 81.0836 139.902 81.9074 140.064 82.7314C140.098 82.9068 140.133 83.0821 140.167 83.2576C140.309 83.9786 139.533 85.2789 139.187 86.0516C139.205 86.0772 139.223 86.1037 139.239 86.128C139.493 86.5472 138.308 86.9289 138.107 86.598C138.091 86.572 138.071 86.5447 138.053 86.5182C137.985 86.4741 137.938 86.4124 137.917 86.3355C137.306 85.577 135.979 84.4885 135.922 83.738C135.844 82.7254 135.767 81.7129 135.689 80.6999C135.447 77.5632 135.295 74.4012 134.926 71.2762C134.925 71.2695 134.927 71.264 134.926 71.2577C134.485 71.1007 134.096 70.8222 133.835 70.3884ZM136.56 71.3506C136.437 71.3745 136.314 71.39 136.189 71.4009C136.506 74.2525 136.656 77.1327 136.876 79.9919C136.964 81.1254 137.051 82.2589 137.137 83.3928C137.172 83.8531 137.773 84.4948 138.339 85.0882C138.637 84.3591 138.948 83.5738 138.917 83.4167C138.729 82.4601 138.542 81.5034 138.354 80.547C138.348 80.5161 138.342 80.4851 138.336 80.4541C138.294 80.2428 138.253 80.0314 138.211 79.8201C137.658 76.9971 137.087 74.1774 136.56 71.3506ZM136.284 67.4133C136.406 67.4104 136.526 67.4158 136.644 67.4314C137.373 63.4408 138.275 59.4734 139.092 55.5025C139.543 53.3116 139.994 51.1206 140.446 48.9304C140.66 47.8893 140.222 47.0103 139.814 46.0751C139.183 46.8465 138.887 47.2854 138.733 48.4777C138.441 50.7233 138.15 52.9689 137.859 55.2149C137.332 59.2793 136.771 63.3426 136.284 67.4133ZM134.96 69.897C135.205 70.3737 136.056 71.0373 136.655 70.8382C136.731 70.7559 136.834 70.6891 136.948 70.6437C137.547 70.005 137.347 69.223 136.815 68.6426C136.596 68.6552 136.424 68.6149 136.445 68.4939C136.457 68.4297 136.47 68.3654 136.481 68.3007C136.392 68.2155 136.299 68.1424 136.201 68.0895C136.199 68.1071 136.197 68.1243 136.195 68.142C136.143 68.5871 135.418 68.7778 135.101 68.5603C134.841 68.9576 134.728 69.4447 134.96 69.897ZM156.663 46.8549C156.554 46.7474 156.593 46.6227 156.68 46.516C156.696 46.4866 156.717 46.4568 156.744 46.4295C157.55 45.6064 158.355 44.7828 159.162 43.9601C159.374 43.7434 159.729 43.6367 160.022 43.7295C160.099 43.7535 160.158 43.795 160.201 43.8454C160.206 43.8505 160.214 43.8517 160.219 43.8568C160.565 44.1944 160.91 44.5321 161.255 44.8693C161.47 45.0793 161.114 45.3598 160.95 45.4338C160.923 45.4464 160.89 45.4539 160.86 45.464C160.2 46.1385 159.54 46.8134 158.879 47.487C158.896 47.6697 158.645 47.862 158.514 47.9212C158.263 48.0351 157.91 48.0745 157.697 47.8666C157.352 47.5307 157.008 47.193 156.663 46.8549ZM157.967 46.5257C158.113 46.6685 158.259 46.8113 158.405 46.9545C158.949 46.398 159.494 45.842 160.038 45.2859C159.892 45.1431 159.746 45.0003 159.6 44.8576C159.056 45.414 158.511 45.9696 157.967 46.5257ZM116.561 87.548C117.339 86.7526 118.117 85.9575 118.895 85.1625C119.096 84.9567 119.48 84.869 119.755 84.932C119.843 84.9526 119.897 84.9933 119.935 85.0403C119.94 85.0445 119.946 85.047 119.951 85.0508C120.295 85.3889 120.641 85.7257 120.985 86.0634C121.002 86.0793 121.011 86.097 121.016 86.1146C121.029 86.1406 121.022 86.1738 120.993 86.2137L120.992 86.2158C120.984 86.2263 120.98 86.236 120.969 86.2473C120.18 87.0541 119.391 87.86 118.602 88.6664C118.595 88.8356 118.35 89.0061 118.23 89.059C117.991 89.1644 117.625 89.2228 117.417 89.0196C117.073 88.6819 116.727 88.3447 116.383 88.007C116.222 87.8499 116.4 87.6597 116.561 87.548ZM117.658 87.658C117.81 87.8067 117.962 87.9549 118.113 88.1036C118.663 87.5425 119.212 86.9814 119.761 86.4199C119.609 86.2713 119.458 86.1226 119.306 85.9739C118.757 86.535 118.207 87.0965 117.658 87.658ZM137.166 36.1071C137.152 36.0693 137.145 36.0277 137.153 35.9756C137.198 35.7009 137.583 35.5178 137.832 35.5153C138.314 35.5099 138.797 35.5048 139.279 35.4994C139.323 35.4989 139.376 35.501 139.431 35.5069L139.437 35.5073C139.464 35.5099 139.49 35.5145 139.515 35.5191C139.524 35.5208 139.533 35.522 139.542 35.5237C139.709 35.5598 139.859 35.6459 139.827 35.8433L139.826 35.8471C139.838 36.9961 139.851 38.1452 139.863 39.2942C139.867 39.6516 139.131 39.8725 138.799 39.6865C138.384 39.6911 137.97 39.6953 137.555 39.6999C137.513 39.7003 137.458 39.6949 137.403 39.6839C137.332 39.6734 137.276 39.6508 137.242 39.6172C137.2 39.5844 137.179 39.5403 137.203 39.4824C137.19 38.3564 137.179 37.2317 137.166 36.1071ZM138.389 36.3116C138.399 37.2393 138.409 38.167 138.419 39.0947C138.491 39.0939 138.563 39.093 138.636 39.0926C138.626 38.1645 138.616 37.2368 138.606 36.3091C138.533 36.3099 138.461 36.3107 138.389 36.3116ZM140.454 93.4439C140.466 94.5959 140.479 95.7479 140.491 96.8999C140.496 97.395 139.582 97.5874 139.324 97.2081C139.056 97.2115 138.789 97.214 138.522 97.2169C138.192 97.3102 137.828 97.2959 137.825 97.1199C137.812 95.9701 137.8 94.821 137.788 93.6711C137.769 93.6262 137.773 93.5712 137.825 93.5027C137.998 93.2747 138.36 93.1831 138.631 93.1802C138.893 93.1777 139.155 93.1743 139.417 93.1718C139.721 92.9526 140.276 92.9513 140.417 93.2801C140.429 93.3079 140.438 93.3385 140.444 93.3709C140.448 93.3948 140.453 93.4175 140.454 93.4439ZM139.252 96.7386C139.242 95.7622 139.231 94.7862 139.221 93.8097C139.151 93.8106 139.081 93.8114 139.01 93.8118C139.02 94.7883 139.031 95.7643 139.042 96.7407C139.112 96.7399 139.182 96.739 139.252 96.7386ZM109.903 69.0348C108.751 69.0298 107.599 69.0252 106.447 69.0201C106.174 69.0189 106.016 68.9143 105.951 68.777C105.896 68.7661 105.861 68.7467 105.861 68.7173C105.863 68.2352 105.865 67.7518 105.867 67.2697C105.867 67.2252 105.89 67.1836 105.928 67.145C105.933 67.137 105.935 67.1311 105.941 67.1227C106.115 66.9031 106.481 66.8031 106.748 66.8044C107.838 66.8094 108.928 66.8132 110.017 66.8182C110.301 66.7666 110.567 66.8018 110.566 66.9585C110.566 66.964 110.566 66.969 110.566 66.974C110.566 66.9896 110.566 67.0051 110.566 67.0202C110.564 67.4822 110.562 67.9442 110.561 68.4061C110.561 68.4456 110.548 68.4821 110.531 68.5178C110.521 68.7673 110.285 69.0361 109.903 69.0348ZM107.079 68.0916C107.835 68.0949 108.59 68.0983 109.346 68.1008C109.347 67.8808 109.348 67.6598 109.349 67.4394C108.593 67.436 107.838 67.4326 107.082 67.4297C107.081 67.6502 107.08 67.8707 107.079 68.0916ZM113.185 45.6101C112.916 45.1982 113.496 44.8248 113.937 44.8664C114.082 44.7715 114.226 44.677 114.371 44.5825C114.525 44.2906 115.353 44.0756 115.514 44.3225C116.139 45.28 116.763 46.238 117.388 47.1955C117.469 47.256 117.459 47.3337 117.411 47.4085C117.379 47.4723 117.312 47.5311 117.229 47.5836C117.223 47.5874 117.217 47.5932 117.212 47.5966C117.205 47.6012 117.198 47.6054 117.191 47.61C116.876 47.8158 116.56 48.0212 116.245 48.2274C116.173 48.6432 115.335 48.9065 115.073 48.5046C114.443 47.5403 113.813 46.5752 113.185 45.6101ZM116.149 47.4937C115.623 46.6874 115.097 45.881 114.571 45.0747C114.509 45.1158 114.446 45.1562 114.383 45.1973C114.908 46.0037 115.434 46.81 115.96 47.6163C116.023 47.5752 116.086 47.5349 116.149 47.4937ZM165.27 67.0366C165.265 66.5541 165.259 66.0715 165.254 65.589C165.252 65.4416 165.5 65.3261 165.771 65.2589C165.91 65.2009 166.051 65.1606 166.146 65.1593C167.298 65.1472 168.45 65.1346 169.602 65.1216C169.737 65.1199 169.819 65.1346 169.866 65.1585C169.919 65.1715 169.953 65.1929 169.953 65.2249C169.958 65.7074 169.963 66.1904 169.968 66.6725C169.969 66.7036 169.956 66.7334 169.938 66.762C169.931 67.0097 169.693 67.284 169.31 67.2878C169.018 67.2908 168.727 67.2939 168.436 67.297C167.575 67.3062 166.714 67.3154 165.854 67.3239C165.582 67.3268 165.425 67.2277 165.36 67.0941C165.306 67.0832 165.27 67.0652 165.27 67.0366ZM166.476 65.6831C166.478 65.9212 166.481 66.1601 166.484 66.3983C167.238 66.3907 167.991 66.3827 168.745 66.3747C168.743 66.1358 168.74 65.8968 168.738 65.6578C167.984 65.6667 167.23 65.6751 166.476 65.6831ZM159.144 84.5015C159.968 85.3074 160.791 86.1134 161.615 86.9193C161.678 86.9806 161.717 87.0436 161.737 87.1057C161.741 87.1162 161.742 87.1267 161.744 87.1372C161.81 87.4216 161.5 87.6903 161.174 87.7563C161.039 87.8945 160.903 88.0326 160.768 88.1712C160.805 88.374 160.567 88.6055 160.415 88.6794C160.134 88.8159 159.812 88.802 159.587 88.5815C158.763 87.7756 157.94 86.9692 157.116 86.1637C157.087 86.1348 157.067 86.1037 157.055 86.0718C157.025 86.0373 157.019 85.9941 157.046 85.9433C157.076 85.7656 157.27 85.5863 157.399 85.5233C157.42 85.5136 157.441 85.5103 157.462 85.5019C157.532 85.4307 157.601 85.3595 157.671 85.2884C157.807 85.1492 157.943 85.01 158.079 84.8711C158.147 84.4893 158.831 84.1949 159.144 84.5015ZM160.49 87.4552C159.838 86.8172 159.186 86.1797 158.535 85.5414C158.472 85.606 158.408 85.6711 158.345 85.7354C158.997 86.3733 159.649 87.0113 160.301 87.6492C160.364 87.5849 160.427 87.5198 160.49 87.4552Z" fill="#340679"/>
<path d="M63.7254 77.4229C63.7254 77.4363 63.7279 77.4481 63.7262 77.4624C63.439 80.0494 65.3561 82.1178 67.4568 83.3227C67.4959 83.3449 67.5249 83.3684 67.5484 83.3932C67.9217 83.4696 68.2955 83.5402 68.6701 83.6061C68.8549 83.3844 69.0489 83.1715 69.2925 83.0127C69.4202 82.9296 69.5155 82.8708 69.6092 82.809C67.7353 81.2879 66.4304 79.2909 65.4112 77.113C64.8589 77.2843 64.2936 77.3704 63.7254 77.4229Z" fill="#FEFDFF"/>
<path d="M56.8358 104.717C56.7824 104.818 56.7287 104.92 56.6749 105.021C56.6892 105.02 56.7043 105.018 56.7182 105.018C58.2721 105.046 59.8432 105.046 61.4193 105.057C63.2647 102.554 64.617 99.6553 65.3482 96.6344C65.3637 96.5702 65.4368 96.5122 65.5376 96.4631C63.935 96.3573 62.3353 96.2061 60.7415 96.0129C59.7227 99.0463 58.3271 101.904 56.8358 104.717Z" fill="#FEFDFF"/>
<path fill-rule="evenodd" clip-rule="evenodd" d="M79.0988 64.9968C77.1102 65.3904 74.6914 65.1235 72.8741 64.9229L72.8169 64.9166C72.6397 67.1139 73.7635 72.4261 70.4214 72.5265C70.2803 72.5311 70.1732 72.508 70.0921 72.4694C69.8754 72.4803 69.6802 72.4227 69.6151 72.2585C69.4525 71.8478 69.2526 71.424 68.9188 71.1221C68.8969 71.1023 68.8721 71.0864 68.849 71.0683C68.6286 71.057 68.3539 71.0599 68.0662 71.107C68.0498 71.1217 68.036 71.1317 68.0183 71.1498C67.7999 71.3682 67.6236 71.624 67.4875 71.9011C67.2267 72.4328 67.0646 73.1132 67.2838 73.6873C67.5404 74.3596 68.2275 74.5318 68.8868 74.4881C69.7268 74.4327 69.3585 75.1756 68.7352 75.2164C68.4627 75.2344 68.1691 75.2323 67.8781 75.2025C67.5669 75.6313 66.9474 76.1302 66.4065 76.5103C66.4674 76.5221 66.5132 76.5452 66.5321 76.5863C67.2884 78.2393 68.2031 79.7911 69.4013 81.1182C70.6305 80.2031 71.9127 79.0473 73.4943 78.9041C75.1918 78.7496 77.6105 79.3573 78.5222 77.4095C79.0291 76.3264 79.2706 75.1773 79.5297 74.0153C79.5486 73.9304 79.6347 73.8548 79.7523 73.7935C79.7431 73.7847 79.7321 73.778 79.7237 73.7683L79.7225 73.7666C79.5138 73.5298 79.8161 73.2417 80.0102 73.1409C80.4188 72.9284 81.0626 72.7419 81.1223 72.1905C81.1643 71.8033 81.139 71.5534 80.7203 71.4295C80.4688 71.3548 80.2076 71.3333 79.9468 71.3548C79.7078 71.3745 79.3475 71.2615 79.3844 70.9566C79.3945 70.8735 79.4306 70.8016 79.481 70.7391C79.2528 69.7092 79.2205 68.6247 79.1891 67.575L79.1874 67.5187C79.1652 66.775 79.3176 65.8086 79.1123 65.0884C79.103 65.0569 79.0997 65.0266 79.0988 64.9968ZM76.4875 67.693C76.692 67.9186 77.8188 67.483 77.6344 67.2806C77.0939 66.6855 76.1351 66.7662 75.4195 66.8686C75.2175 66.8976 74.8114 66.9921 74.7055 67.1987C74.6047 67.3957 75.1381 67.3205 75.1914 67.3125C75.6618 67.2449 76.1569 67.3302 76.4875 67.693ZM73.5548 74.4289C73.3024 74.292 73.4632 74.0178 73.6493 73.9082C74.5837 73.3597 75.91 73.8821 76.2653 74.9153C76.4194 75.3617 75.2091 75.7077 75.0486 75.2407C74.9709 75.0148 74.7853 74.8212 74.6035 74.6725C74.4926 74.5814 74.3653 74.4991 74.2326 74.4432C74.2179 74.4373 74.2091 74.4336 74.1995 74.4294C73.9891 74.5062 73.7484 74.5343 73.5548 74.4289ZM76.2304 69.3343C76.5248 69.5279 76.8793 69.6115 77.1968 69.758C77.4576 69.8786 77.2413 70.1146 77.083 70.207C77.0532 70.2246 77.0158 70.2389 76.9818 70.2548L76.9736 70.2608C76.6164 70.5213 76.2589 70.782 75.9209 71.0675C75.6996 71.254 75.3943 71.3459 75.1083 71.3648C75.0075 71.3716 74.5913 71.3279 74.8139 71.1406C75.1944 70.8193 75.5929 70.5228 75.9944 70.2288C75.6874 70.1011 75.3821 69.9873 75.0974 69.8C74.8643 69.6467 75.3384 69.3721 75.4283 69.3351C75.6782 69.2326 75.994 69.1785 76.2304 69.3343Z" fill="#FEFDFF"/>
<path d="M102.398 80.5639C103.094 82.1211 103.881 83.646 104.75 85.1319C106.152 84.0782 107.029 82.6688 106.95 80.7222C106.873 78.8592 106.349 77.0386 105.623 75.3277C105.306 74.5801 105.019 73.7545 104.558 73.0737C104.032 75.2466 104.499 79.6198 102.398 80.5639Z" fill="#FEFDFF"/>
<path d="M104.473 131.625C104.26 131.662 104.074 131.652 104.03 131.549C102.527 127.984 98.5578 127.928 95.245 128.924C95.0846 129.066 94.7692 129.173 94.5046 129.167C94.3837 129.21 94.2635 129.254 94.1455 129.299C94.0683 129.329 93.9813 129.35 93.8948 129.363C93.8117 129.376 93.7298 129.382 93.6554 129.38C91.9688 130.175 90.2268 130.78 88.6028 131.715C88.318 131.88 88.0371 132.056 87.7603 132.243C87.7557 132.319 87.6687 132.407 87.6297 132.439C87.6272 132.441 87.6251 132.443 87.6226 132.445L87.6167 132.449C87.6629 132.499 87.6889 132.564 87.6809 132.65C87.5701 133.825 88.0148 135.039 88.5511 136.067C88.9236 136.781 89.412 137.771 90.1315 138.206C92.7794 136.991 95.4281 135.777 98.076 134.562C100.209 133.583 102.341 132.604 104.473 131.625Z" fill="#FEFDFF"/>
<path d="M25.6282 165.932C26.02 164.476 26.1972 162.804 25.695 161.351C25.679 161.304 25.7172 161.252 25.7865 161.201C23.63 158.967 22.8114 155.397 21.9161 152.478C20.2702 152.242 18.6197 152.066 16.9684 152.225C17.2515 152.686 17.3871 153.409 17.495 153.735C18.1233 155.63 18.6936 157.544 19.2572 159.458C19.8666 161.528 20.4646 163.601 21.0492 165.678C21.3096 166.603 21.7552 167.632 21.848 168.594C21.8657 168.776 21.7569 168.926 21.5981 169.029C23.344 168.417 25.073 167.995 25.6282 165.932Z" fill="#FEFDFF"/>
<path fill-rule="evenodd" clip-rule="evenodd" d="M138.413 103.57C147.279 103.934 156.43 101.867 163.465 96.2372C169.064 91.7552 173.077 85.4876 174.976 78.5778C178.673 65.1287 175.314 49.5331 165.005 39.7969C151.78 27.3074 129.487 26.9555 114.717 36.9466C107.348 41.9308 101.542 49.4033 99.6568 58.2143C98.0471 65.7364 99.2137 73.2123 102.183 80.0767C102.377 79.4913 102.692 77.5745 102.736 77.2595C102.897 76.113 102.989 74.9426 103.223 73.8078C103.365 73.1169 104.255 71.2052 105.325 72.1917C106.514 73.2875 107.093 75.4205 107.53 76.903C107.97 78.3956 108.37 80.0343 108.086 81.5991C107.745 83.486 106.597 84.672 105.038 85.6178C105.241 85.955 105.446 86.2914 105.657 86.624C112.696 97.3812 125.856 103.053 138.413 103.57ZM135.017 67.7317C133.953 68.2478 133.189 69.3137 133.835 70.3884C134.096 70.8222 134.485 71.1007 134.926 71.2577C134.927 71.264 134.925 71.2695 134.926 71.2762C135.295 74.4012 135.447 77.5632 135.689 80.6999C135.767 81.7129 135.844 82.7254 135.922 83.738C135.979 84.4885 137.306 85.577 137.917 86.3355C137.938 86.4124 137.985 86.4741 138.053 86.5182C138.071 86.5447 138.091 86.572 138.107 86.598C138.308 86.9289 139.493 86.5472 139.239 86.128C139.223 86.1037 139.205 86.0772 139.187 86.0516C139.533 85.2789 140.309 83.9786 140.167 83.2576L140.064 82.7314C139.902 81.9074 139.741 81.0836 139.579 80.2598C138.967 77.1382 138.333 74.0203 137.752 70.8928C137.75 70.8856 137.746 70.8806 137.745 70.8739C138.127 70.6059 138.423 70.2192 138.526 69.7589C138.678 69.0701 138.258 68.4519 137.768 68.0181C137.75 67.9958 137.729 67.9769 137.709 67.9555C138.481 63.5836 139.482 59.2415 140.376 54.8944C140.811 52.7799 141.247 50.6657 141.683 48.552C141.955 47.2337 141.107 46.1179 140.688 44.8731C140.692 44.8 140.672 44.7358 140.629 44.6828L140.621 44.6578C140.608 44.6163 140.596 44.5749 140.585 44.5329C140.511 44.244 139.292 44.5653 139.368 44.8592C139.374 44.8823 139.382 44.905 139.388 44.9281C138.609 45.8831 137.73 46.7424 137.569 47.98C137.319 49.9043 137.07 51.8292 136.821 53.7536L136.728 54.4682C136.155 58.8879 135.543 63.3056 135.017 67.7317ZM156.68 46.516C156.593 46.6227 156.554 46.7474 156.663 46.8549C157.008 47.193 157.352 47.5307 157.697 47.8666C157.91 48.0745 158.263 48.0351 158.514 47.9212C158.645 47.862 158.896 47.6697 158.879 47.487C159.54 46.8134 160.2 46.1385 160.86 45.464C160.89 45.4539 160.923 45.4464 160.95 45.4338C161.114 45.3598 161.47 45.0793 161.255 44.8693C160.91 44.5321 160.565 44.1944 160.219 43.8568C160.214 43.8517 160.206 43.8505 160.201 43.8454C160.158 43.795 160.099 43.7535 160.022 43.7295C159.729 43.6367 159.374 43.7434 159.162 43.9601C158.355 44.7828 157.55 45.6064 156.744 46.4295C156.717 46.4568 156.696 46.4866 156.68 46.516ZM118.895 85.1625C118.117 85.9575 117.339 86.7526 116.561 87.548C116.4 87.6597 116.222 87.8499 116.383 88.007C116.727 88.3447 117.073 88.6819 117.417 89.0196C117.625 89.2228 117.991 89.1644 118.23 89.059C118.35 89.0061 118.595 88.8356 118.602 88.6664C119.391 87.86 120.18 87.0541 120.969 86.2473C120.98 86.236 120.984 86.2263 120.992 86.2158L120.993 86.2137C121.022 86.1738 121.029 86.1406 121.016 86.1146C121.011 86.097 121.002 86.0793 120.985 86.0634C120.641 85.7257 120.295 85.3889 119.951 85.0508C119.946 85.047 119.94 85.0445 119.935 85.0403C119.897 84.9933 119.843 84.9526 119.755 84.932C119.48 84.869 119.096 84.9567 118.895 85.1625ZM137.153 35.9756C137.145 36.0277 137.152 36.0693 137.166 36.1071C137.179 37.2317 137.19 38.3564 137.203 39.4824C137.179 39.5403 137.2 39.5844 137.242 39.6172C137.276 39.6508 137.332 39.6734 137.403 39.6839C137.458 39.6949 137.513 39.7003 137.555 39.6999C137.97 39.6953 138.384 39.6911 138.799 39.6865C139.131 39.8725 139.867 39.6516 139.863 39.2942C139.851 38.1452 139.838 36.9961 139.826 35.8471L139.827 35.8433C139.859 35.6459 139.709 35.5598 139.542 35.5237C139.533 35.522 139.524 35.5208 139.515 35.5191C139.49 35.5145 139.464 35.5099 139.437 35.5073L139.431 35.5069C139.376 35.501 139.323 35.4989 139.279 35.4994C138.797 35.5048 138.314 35.5099 137.832 35.5153C137.583 35.5178 137.198 35.7009 137.153 35.9756ZM140.491 96.8999C140.479 95.7479 140.466 94.5959 140.454 93.4439C140.453 93.4175 140.448 93.3948 140.444 93.3709C140.438 93.3385 140.429 93.3079 140.417 93.2801C140.276 92.9513 139.721 92.9526 139.417 93.1718C139.155 93.1743 138.893 93.1777 138.631 93.1802C138.36 93.1831 137.998 93.2747 137.825 93.5027C137.773 93.5712 137.769 93.6262 137.788 93.6711C137.8 94.821 137.812 95.9701 137.825 97.1199C137.828 97.2959 138.192 97.3102 138.522 97.2169C138.789 97.214 139.056 97.2115 139.324 97.2081C139.582 97.5874 140.496 97.395 140.491 96.8999ZM106.447 69.0201C107.599 69.0252 108.751 69.0298 109.903 69.0348C110.285 69.0361 110.521 68.7673 110.531 68.5178C110.548 68.4821 110.561 68.4456 110.561 68.4061C110.562 67.9442 110.564 67.4822 110.566 67.0202V66.974V66.9585C110.567 66.8018 110.301 66.7666 110.017 66.8182C108.928 66.8132 107.838 66.8094 106.748 66.8044C106.481 66.8031 106.115 66.9031 105.941 67.1227C105.935 67.1311 105.933 67.137 105.928 67.145C105.89 67.1836 105.867 67.2252 105.867 67.2697C105.865 67.7518 105.863 68.2352 105.861 68.7173C105.861 68.7467 105.896 68.7661 105.951 68.777C106.016 68.9143 106.174 69.0189 106.447 69.0201ZM113.937 44.8664C113.496 44.8248 112.916 45.1982 113.185 45.6101C113.813 46.5752 114.443 47.5403 115.073 48.5046C115.335 48.9065 116.173 48.6432 116.245 48.2274C116.56 48.0212 116.876 47.8158 117.191 47.61L117.212 47.5966C117.217 47.5932 117.223 47.5874 117.229 47.5836C117.312 47.5311 117.379 47.4723 117.411 47.4085C117.459 47.3337 117.469 47.256 117.388 47.1955L115.514 44.3225C115.353 44.0756 114.525 44.2906 114.371 44.5825C114.226 44.677 114.082 44.7715 113.937 44.8664ZM165.254 65.589C165.259 66.0715 165.265 66.5541 165.27 67.0366C165.27 67.0652 165.306 67.0832 165.36 67.0941C165.425 67.2277 165.582 67.3268 165.854 67.3239C166.714 67.3154 167.575 67.3062 168.436 67.297L169.31 67.2878C169.693 67.284 169.931 67.0097 169.938 66.762C169.956 66.7334 169.969 66.7036 169.968 66.6725L169.953 65.2249C169.953 65.1929 169.919 65.1715 169.866 65.1585C169.819 65.1346 169.737 65.1199 169.602 65.1216C168.45 65.1346 167.298 65.1472 166.146 65.1593C166.051 65.1606 165.91 65.2009 165.771 65.2589C165.5 65.3261 165.252 65.4416 165.254 65.589ZM161.615 86.9193L159.144 84.5015C158.831 84.1949 158.147 84.4893 158.079 84.8711C157.943 85.01 157.807 85.1492 157.671 85.2884L157.462 85.5019C157.441 85.5103 157.42 85.5136 157.399 85.5233C157.27 85.5863 157.076 85.7656 157.046 85.9433C157.019 85.9941 157.025 86.0373 157.055 86.0718C157.067 86.1037 157.087 86.1348 157.116 86.1637C157.94 86.9692 158.763 87.7756 159.587 88.5815C159.812 88.802 160.134 88.8159 160.415 88.6794C160.567 88.6055 160.805 88.374 160.768 88.1712C160.903 88.0326 161.039 87.8945 161.174 87.7563C161.5 87.6903 161.81 87.4216 161.744 87.1372C161.742 87.1267 161.741 87.1162 161.737 87.1057C161.717 87.0436 161.678 86.9806 161.615 86.9193Z" fill="#FEFDFF"/>
<path d="M94.6848 80.4043C96.4873 79.6362 98.2432 78.7609 99.9378 77.7828C97.4831 70.9163 96.7939 63.5063 98.9319 56.3316C101.598 47.3866 107.807 39.9095 115.833 35.2092C130.007 26.908 150.218 26.4679 163.465 36.9651C174.215 45.4825 179.247 59.7921 177.297 73.2551C175.268 87.2557 165.835 99.1841 151.957 102.95C135.329 107.463 114.307 102.08 104.541 87.1545C104.522 87.1242 104.503 87.0931 104.484 87.0629C102.94 88.382 101.078 89.1863 99.1932 89.9405L99.209 89.9648C99.5271 90.451 99.8456 90.9378 100.186 91.4088C111.928 107.629 135.817 114.427 154.849 108.513C158.115 107.016 161.38 105.516 164.647 104.021C172.763 98.8943 178.751 91.0287 181.534 81.573C184.519 71.4324 184.087 60.3608 180.144 50.5267C176.244 40.799 169.201 32.3613 159.667 27.7618C149.34 22.7793 137.269 21.7512 126.175 24.6032C114.959 27.4872 104.502 34.0542 98.1395 43.8958C91.026 54.8991 90.0198 68.2621 94.6848 80.4043Z" fill="#FEFDFF"/>
<path d="M165.286 29.9133C166.89 30.9704 168.422 32.1379 169.865 33.4201C170.127 33.0438 170.541 32.6805 170.72 32.4815C171.05 32.114 171.383 31.7499 171.709 31.3786C171.804 31.269 171.898 31.1577 171.99 31.0456C171.869 30.7466 171.378 30.3997 171.197 30.2346C170.625 29.7155 170.036 29.2166 169.444 28.721C168.897 28.2624 168.344 27.8105 167.806 27.341C167.613 27.6841 167.269 28.0331 167.121 28.1978C166.653 28.7156 166.123 29.1847 165.668 29.7126C165.58 29.8155 165.438 29.8814 165.286 29.9133Z" fill="#FEFDFF"/>
<path d="M167.259 25.2899C168.566 26.3713 169.879 27.4456 171.187 28.5266C172.544 29.6483 173.907 30.7659 175.23 31.9279C175.566 32.2232 176.096 32.5814 176.46 32.9825C176.714 32.5713 177.187 32.1606 177.381 31.9435C177.711 31.5764 178.045 31.2123 178.37 30.841L178.399 30.8084C178.521 30.6689 178.644 30.529 178.758 30.3829C178.781 30.354 178.797 30.3325 178.809 30.3149L178.811 30.3123C178.339 29.6324 177.296 28.989 176.753 28.5258C175.446 27.412 174.123 26.3171 172.798 25.2256C171.464 24.1261 170.123 23.0342 168.798 21.9247C168.566 21.7302 168.165 21.4778 167.834 21.2006C167.639 21.4371 167.437 21.6416 167.354 21.7331C166.996 22.1325 166.633 22.5277 166.28 22.9317L166.241 22.9762C166.114 23.1223 165.986 23.2689 165.866 23.4214C165.655 23.6915 165.795 23.6142 165.742 23.4084C165.795 23.6197 165.667 23.8078 165.477 23.9283C165.981 24.4441 166.858 24.9581 167.259 25.2899Z" fill="#FEFDFF"/>
<path d="M136.56 71.3506C136.437 71.3745 136.314 71.39 136.189 71.4009C136.506 74.2525 136.656 77.1327 136.876 79.9919C136.964 81.1254 137.051 82.2589 137.137 83.3928C137.172 83.8531 137.773 84.4948 138.339 85.0882C138.637 84.3591 138.948 83.5738 138.917 83.4167C138.729 82.4601 138.542 81.5034 138.354 80.547L138.336 80.4541L138.211 79.8201C137.658 76.9971 137.087 74.1774 136.56 71.3506Z" fill="#A358E7"/>
<path d="M136.284 67.4133C136.406 67.4104 136.526 67.4158 136.644 67.4314C137.373 63.4408 138.275 59.4734 139.092 55.5025C139.543 53.3116 139.994 51.1206 140.446 48.9304C140.66 47.8893 140.222 47.0103 139.814 46.0751C139.183 46.8465 138.887 47.2854 138.733 48.4777C138.441 50.7233 138.15 52.9689 137.859 55.2149C137.332 59.2793 136.771 63.3426 136.284 67.4133Z" fill="#A358E7"/>
<path d="M134.96 69.897C135.205 70.3737 136.056 71.0373 136.655 70.8382C136.731 70.7559 136.834 70.6891 136.948 70.6437C137.547 70.005 137.347 69.223 136.815 68.6426C136.596 68.6552 136.424 68.6149 136.445 68.4939C136.457 68.4297 136.47 68.3654 136.481 68.3007C136.392 68.2155 136.299 68.1424 136.201 68.0895L136.195 68.142C136.143 68.5871 135.418 68.7778 135.101 68.5603C134.841 68.9576 134.728 69.4447 134.96 69.897Z" fill="#FEFDFF"/>
</g>
<defs>
<clipPath id="clip0_1440_11605">
<rect width="200" height="200" fill="white" transform="translate(0.5)"/>
</clipPath>
</defs>
</svg>
