<svg width="26" height="27" viewBox="0 0 26 27" fill="none" xmlns="http://www.w3.org/2000/svg">
    <path d="M16.754 3.83944C7.58 -1.46056 4.57699 0.467435 3.89999 0.855435C3.14599 1.28843 0 3.00044 0 13.5134C0 24.1134 3.25899 25.7884 3.89999 26.1624C4.47799 26.4984 7.58 28.4864 16.755 23.1874C25.955 17.8764 25.955 14.5744 25.955 13.5134C25.955 12.4524 25.949 9.15044 16.754 3.83944ZM11.218 21.4074C9.6539 21.4074 8.12493 20.9436 6.82445 20.0746C5.52396 19.2056 4.51037 17.9705 3.91187 16.5255C3.31336 15.0804 3.15681 13.4903 3.46202 11.9563C3.76723 10.4223 4.5205 9.01319 5.62656 7.90728C6.73261 6.80137 8.14178 6.04828 9.67584 5.74326C11.2099 5.43824 12.8 5.59499 14.2449 6.19368C15.6899 6.79237 16.9249 7.80612 17.7937 9.10671C18.6626 10.4073 19.1262 11.9363 19.126 13.5004C19.1257 15.5976 18.2925 17.6088 16.8094 19.0916C15.3264 20.5744 13.3152 21.4074 11.218 21.4074Z" fill="#B70F90"/>
    <path d="M13.0491 10.1954C13.6973 10.1986 14.3182 10.4575 14.7766 10.9159C15.235 11.3743 15.4939 11.9951 15.4971 12.6434C15.4971 15.1154 10.9971 17.5634 10.9971 17.5634C10.9971 17.5634 6.49707 15.0794 6.49707 12.6434C6.49707 11.9942 6.75498 11.3715 7.21407 10.9124C7.67316 10.4533 8.29582 10.1954 8.94507 10.1954C9.35194 10.1918 9.75317 10.2907 10.1118 10.4829C10.4704 10.6752 10.7748 10.9546 10.9971 11.2954C11.2209 10.9561 11.5257 10.6779 11.8839 10.4858C12.2422 10.2938 12.6426 10.194 13.0491 10.1954Z" fill="#B70F90"/>
</svg>
