<svg width="151" height="48" viewBox="0 0 151 48" fill="none" xmlns="http://www.w3.org/2000/svg">
<path fill-rule="evenodd" clip-rule="evenodd" d="M42.4403 2.47559C44.3396 3.1676 45.0727 4.5275 45.0654 6.53659C45.0226 18.1368 45.0177 29.737 45.0702 41.3372C45.0793 43.3185 43.5915 45.0917 41.3399 45.0784C29.5713 45.0102 17.8016 45.0464 6.0325 45.0458C4.29733 45.0458 3.28555 44.3544 2.61163 42.7152C2.58991 42.6621 2.52174 42.6277 2.47528 42.5848C2.47528 30.0833 2.47528 17.5829 2.47528 5.08196C2.90666 3.77576 3.76942 2.90093 5.08166 2.47559C17.535 2.47559 29.9876 2.47559 42.4403 2.47559Z" fill="#D93F38"/>
<path d="M76.7532 23.8081L76.7522 23.8122C76.5078 24.9183 76.2633 26.0243 76.02 27.1304C75.9838 27.1413 75.947 27.1528 75.9114 27.1642C75.8497 26.9502 75.7876 26.7362 75.7255 26.5223C75.5872 26.0459 75.449 25.5696 75.3153 25.0924L74.7377 23.032C73.858 19.8951 72.9783 16.7582 72.1117 13.6177C71.9693 13.1019 71.746 12.8442 71.1663 12.8865C70.4706 12.9378 69.7665 12.9281 69.0691 12.8889C68.5297 12.8587 68.3155 13.0777 68.1804 13.5888C67.5363 16.0209 66.8723 18.4476 66.2083 20.8742C66.0084 21.6048 65.8083 22.3358 65.609 23.0664C65.3723 23.9353 65.1346 24.8039 64.8968 25.6725L64.5176 27.0587C64.3523 26.9501 64.3191 26.8469 64.2949 26.7413C64.0549 25.7001 63.8142 24.659 63.5735 23.618C62.8055 20.2967 62.0373 16.9748 61.2928 13.6479C61.1595 13.0536 60.9205 12.8623 60.3275 12.8859C59.5459 12.9174 58.7625 12.9107 57.9793 12.9041C57.6524 12.9013 57.3256 12.8985 56.9989 12.8985H56.2598C56.2748 13.0088 56.2853 13.1037 56.2946 13.1882C56.312 13.3456 56.3253 13.4669 56.3564 13.5839C56.9816 15.9329 57.6075 18.2817 58.2335 20.6305C59.4854 25.3282 60.7376 30.0271 61.9836 34.7263C62.1055 35.1879 62.351 35.3466 62.8077 35.3339C63.6271 35.311 64.45 35.2917 65.2675 35.3393C65.8895 35.3761 66.1671 35.139 66.3306 34.5441C67.2834 31.0773 68.2566 27.6162 69.2298 24.1551L69.8281 22.0269C69.8807 21.8393 69.9448 21.6549 70.0207 21.4363C70.0594 21.3247 70.1016 21.2033 70.1466 21.0688C70.1829 21.182 70.2144 21.2775 70.2422 21.3619C70.2947 21.5212 70.3339 21.6403 70.3674 21.7614C70.6332 22.7179 70.8996 23.6742 71.1659 24.6304C72.0746 27.8931 72.9838 31.1577 73.8716 34.4265C74.052 35.0908 74.3259 35.4069 75.0613 35.3435C75.8304 35.276 76.6097 35.3045 77.3837 35.3328L77.4481 35.3351C77.9495 35.3538 78.1775 35.1493 78.3036 34.6708C79.5254 30.0256 80.7537 25.3822 81.9821 20.7387L81.9843 20.7302C82.6264 18.3028 83.2685 15.8753 83.9097 13.4476C83.935 13.3509 83.9375 13.248 83.9407 13.1216C83.9423 13.0547 83.9441 12.9812 83.9496 12.8985C83.5532 12.8985 83.1625 12.9038 82.7758 12.9089C81.8816 12.9209 81.0094 12.9325 80.1414 12.8786C79.3431 12.8286 79.0771 13.1115 78.9178 13.8675C78.2171 17.185 77.485 20.4969 76.7532 23.8081Z" fill="#2E6984"/>
<path fill-rule="evenodd" clip-rule="evenodd" d="M129.2 31.8704C127.457 31.7352 126.215 30.4164 126.322 28.7029H127.155C127.884 28.7029 128.614 28.7021 129.343 28.7012C131.461 28.6988 133.58 28.6964 135.698 28.7144C136.26 28.7192 136.486 28.5702 136.435 27.9795C136.395 27.531 136.377 27.0805 136.358 26.6302C136.336 26.0929 136.314 25.555 136.257 25.0214C135.926 21.9631 134.057 19.8491 131.057 19.2101C130.172 19.0219 129.233 18.973 128.327 19.0153C125.039 19.1703 122.676 21.1191 121.962 24.2347C121.504 26.2365 121.503 28.2577 121.959 30.2619C122.591 33.0408 124.278 34.8412 127.087 35.421C128.135 35.6376 129.25 35.6732 130.321 35.6044C132.373 35.4728 134.203 34.7241 135.743 33.3153C136.149 32.9443 136.242 32.6734 135.766 32.2794C135.191 31.8028 134.653 31.2791 134.133 30.7422C133.781 30.3789 133.513 30.3331 133.105 30.6903C131.991 31.6652 130.655 31.9832 129.2 31.8704ZM126.999 25.6446H126.315C126.131 23.8105 127.126 22.6467 128.89 22.5218C130.548 22.4048 131.843 23.5264 131.868 25.1415C131.871 25.3074 131.615 25.6187 131.473 25.6223C130.301 25.6503 129.128 25.6481 127.955 25.6458C127.636 25.6452 127.317 25.6446 126.999 25.6446Z" fill="#2E6984"/>
<path fill-rule="evenodd" clip-rule="evenodd" d="M94.0319 25.648C94.3094 23.7228 93.6397 22.8703 91.8569 22.7406C90.2924 22.6266 88.766 22.7195 87.4134 23.6372C87.0695 23.8712 86.9041 23.7295 86.7382 23.4266L86.6016 23.1774C86.2538 22.5426 85.9054 21.9068 85.5213 21.2938C85.2468 20.8564 85.3602 20.6205 85.7681 20.3689C87.0707 19.5647 88.5036 19.1019 90.004 19.0688C91.5823 19.0332 93.1993 19.0615 94.7402 19.3638C97.145 19.8362 98.4114 21.4585 98.4573 23.943C98.4987 26.2076 98.4956 28.4731 98.4924 30.7386C98.4906 32.0661 98.4887 33.3936 98.4959 34.7209C98.4989 35.2198 98.2757 35.3369 97.8377 35.3297L97.527 35.3243C96.6896 35.3094 95.8515 35.2945 95.0171 35.3375C94.3504 35.3719 94.0626 35.1474 94.1573 34.4735C94.1674 34.4009 94.1595 34.3257 94.1489 34.2249C94.1431 34.1692 94.1363 34.1054 94.1314 34.0301C92.4011 35.7309 90.3431 35.9016 88.185 35.4859C86.0112 35.0678 84.7388 33.5993 84.4757 31.3483C84.2193 29.151 85.204 27.1938 87.1883 26.4052C88.261 25.9781 89.4586 25.7989 90.6176 25.6746C91.3906 25.5905 92.1749 25.6103 92.9702 25.6303C93.3219 25.6391 93.6759 25.648 94.0319 25.648ZM91.1908 32.2388C93.4328 32.173 94.2418 31.3585 94.1049 29.2306C94.0934 29.0532 93.9396 28.7341 93.8539 28.7353C93.5157 28.7382 93.1757 28.725 92.8356 28.7117C91.7801 28.6705 90.7232 28.6293 89.7138 29.0719C89.0562 29.3603 88.8535 29.9305 88.8716 30.6146C88.8897 31.3 89.2257 31.7712 89.8538 31.983C90.1482 32.0813 90.4604 32.1269 90.7723 32.1726C90.9124 32.1931 91.0524 32.2136 91.1908 32.2388Z" fill="#2E6984"/>
<path d="M138.787 22.4641C138.974 22.6752 139.348 22.721 140.094 22.8126C140.098 22.8961 140.103 22.9806 140.107 23.0658C140.119 23.2571 140.13 23.4523 140.13 23.6476C140.136 24.4574 140.136 25.2674 140.136 26.0775C140.136 27.8233 140.137 29.5703 140.191 31.3141C140.259 33.4698 141.283 34.8563 143.16 35.2376C144.114 35.4317 145.107 35.444 146.094 35.4563C146.337 35.4593 146.58 35.4623 146.822 35.468C146.967 35.4717 147.24 35.1217 147.252 34.9238C147.276 34.5033 147.272 34.0813 147.268 33.6593C147.264 33.2371 147.26 32.8149 147.284 32.3941C147.32 31.7739 147.146 31.5446 146.486 31.5603C145.031 31.5959 144.713 31.2556 144.704 29.7817C144.693 27.9776 144.697 26.1744 144.701 24.3707L144.703 23.4154C144.704 23.2765 144.719 23.1376 144.737 22.9864C144.746 22.9113 144.755 22.832 144.762 22.7493L145.118 22.75C145.37 22.7507 145.601 22.7514 145.832 22.7481C146.052 22.7451 146.239 22.747 146.397 22.7485C146.842 22.7528 147.065 22.7549 147.175 22.6446C147.285 22.5336 147.282 22.309 147.274 21.8587C147.272 21.6972 147.269 21.5067 147.27 21.282C147.283 19.393 147.273 19.3924 145.42 19.3622L145.388 19.3612C145.351 19.3598 145.313 19.3584 145.276 19.3622C144.835 19.4062 144.686 19.2071 144.693 18.7709C144.704 18.1787 144.702 17.5864 144.7 16.9941C144.698 16.3807 144.696 15.7672 144.708 15.154C144.717 14.681 144.54 14.509 144.075 14.5175C143.015 14.5362 141.952 14.5543 140.893 14.5114C140.267 14.4855 140.106 14.7365 140.123 15.3151C140.144 16.0434 140.141 16.7724 140.137 17.5013C140.135 17.93 140.133 18.3587 140.136 18.7872C140.138 19.1106 140.099 19.3284 139.689 19.3688C138.6 19.4767 138.6 19.4949 138.6 20.6073V21.1191C138.6 21.875 138.6 22.2526 138.787 22.4641Z" fill="#2E6984"/>
<path d="M107.105 24.1676C107.104 26.0457 107.103 27.9239 107.109 29.8018C107.114 31.2781 107.378 31.5575 108.825 31.5653C109.313 31.5683 109.522 31.695 109.502 32.2181C109.486 32.6565 109.488 33.0954 109.49 33.5342C109.492 34.0121 109.495 34.4901 109.473 34.9669C109.465 35.1491 109.211 35.4743 109.076 35.4719C108.834 35.467 108.592 35.4648 108.349 35.4626C107.384 35.4539 106.415 35.4452 105.48 35.2698C103.682 34.9325 102.671 33.5744 102.541 31.5569C102.477 30.557 102.476 29.5521 102.475 28.5491L102.474 28.3025C102.47 25.0304 102.471 21.7583 102.471 18.4861C102.471 17.0306 102.472 15.575 102.471 14.1195C102.471 14.0854 102.471 14.0522 102.471 14.02C102.471 13.3632 102.471 13.0838 102.609 12.9682C102.71 12.8827 102.888 12.8869 103.196 12.8943C103.325 12.8974 103.477 12.9011 103.656 12.899C103.994 12.8948 104.333 12.8984 104.671 12.902C105.226 12.9079 105.78 12.9138 106.333 12.8857C106.941 12.8543 107.123 13.0685 107.117 13.6664C107.099 15.6823 107.101 17.6985 107.104 19.7146C107.105 20.4477 107.106 21.1821 107.106 21.9151C107.106 22.6659 107.106 23.4167 107.105 24.1676Z" fill="#2E6984"/>
<path d="M112.367 20.1174C112.366 20.8775 112.365 21.6375 112.365 22.3974C112.369 22.3974 112.374 22.3974 112.377 22.3962C112.377 23.2643 112.375 24.1323 112.372 25.0004C112.366 27.0261 112.36 29.0518 112.387 31.0769C112.418 33.3955 113.407 34.8664 115.32 35.2489C116.226 35.4298 117.166 35.4426 118.103 35.4555C118.397 35.4595 118.692 35.4635 118.984 35.4727C119.108 35.477 119.348 35.2193 119.352 35.0776C119.384 34.0658 119.391 33.0522 119.348 32.041C119.342 31.8805 119.059 31.6139 118.882 31.5952C117.047 31.3961 116.99 31.3466 116.989 29.4781V28.7547C116.989 27.5743 116.989 26.3938 116.988 25.2133C116.986 21.3785 116.985 17.5432 117.001 13.7083C117.004 13.082 116.834 12.8522 116.186 12.8841C115.176 12.9342 114.159 12.9378 113.15 12.8835C112.483 12.8479 112.346 13.1038 112.352 13.7161C112.373 15.8497 112.37 17.9837 112.367 20.1174Z" fill="#2E6984"/>
<path d="M12.9729 23.3394C12.6436 23.3394 12.3142 23.3381 11.9848 23.3368C11.1812 23.3337 10.3774 23.3306 9.57377 23.346C9.04828 23.3563 8.82142 23.1547 8.84254 22.6244C8.86486 22.0464 8.86728 21.466 8.84194 20.8886C8.8172 20.3119 9.08991 20.1351 9.63109 20.1399L10.4758 20.1478C12.2915 20.1653 14.1081 20.1828 15.9226 20.1478C18.7317 20.0929 20.6497 17.4642 19.8394 14.8451C19.3423 13.2385 17.7597 12.068 15.9431 12.0312C14.5721 12.0033 13.2005 11.9979 11.8289 11.9925C11.1514 11.9898 10.4739 11.9871 9.7964 11.9817C8.92399 11.9751 8.85038 11.8979 8.84676 11.0339C8.83771 8.85105 8.83771 8.83355 11.0067 8.85708C11.5334 8.86274 12.0616 8.85956 12.5899 8.85637C14.0898 8.84732 15.5912 8.83826 17.0653 9.03144C20.4403 9.47368 22.8772 12.5253 22.891 15.9957C22.9055 19.6536 20.6062 22.6003 17.1504 23.1668C16.2125 23.3203 15.2529 23.3407 14.2931 23.3612C13.8532 23.3706 13.4132 23.3799 12.9753 23.4021C12.9753 23.3804 12.9741 23.3599 12.9729 23.3394Z" fill="#FEFAFA"/>
<path fill-rule="evenodd" clip-rule="evenodd" d="M31.1525 23.336C26.9111 23.3342 23.7485 20.2573 23.7485 16.1347C23.7485 12.0019 26.9606 8.85737 31.1875 8.85255C35.4277 8.84712 38.67 11.9947 38.6579 16.1052C38.6452 20.1999 35.3885 23.3378 31.1525 23.336ZM28.7408 19.6821C27.6661 18.9057 26.9798 17.6173 26.9662 16.1088C26.9433 13.6267 28.7605 11.7311 31.1636 11.7317C32.6372 11.732 33.8814 12.4265 34.628 13.5376C35.1028 14.244 35.3765 15.1188 35.38 16.0907C35.3891 18.6301 33.637 20.4696 31.2098 20.4678C30.3145 20.4674 29.4972 20.2024 28.8241 19.7408C28.7961 19.7216 28.7683 19.702 28.7408 19.6821Z" fill="#FEFAFA"/>
<path d="M21.5336 38.6705C21.8903 38.6667 22.2614 38.6628 22.6524 38.6628C22.5453 38.5127 22.4568 38.3865 22.3796 38.2763C22.2414 38.0793 22.1388 37.933 22.0298 37.7922C20.3157 35.5828 18.5998 33.3759 16.8828 31.1695C16.245 30.3496 16.2426 30.3272 17.0028 29.5707C17.5647 29.0116 18.1269 28.453 18.6891 27.8943C19.7009 26.889 20.7126 25.8837 21.7221 24.8762C21.8314 24.7669 21.9297 24.6468 22.0589 24.4892C22.1307 24.4015 22.2122 24.3022 22.3103 24.1866C21.9641 24.1866 21.6386 24.1901 21.3274 24.1935C20.6533 24.2009 20.0461 24.2075 19.4415 24.1757C18.6831 24.1359 18.1202 24.3815 17.5953 24.9389C16.451 26.1561 15.2808 27.3491 14.1106 28.5423C13.7102 28.9505 13.3092 29.3593 12.9098 29.7686C12.7978 29.8833 12.6796 29.9922 12.5253 30.1345C12.4431 30.2102 12.3492 30.2967 12.242 30.3972C12.2342 30.2418 12.2264 30.1123 12.2195 29.9992C12.2078 29.8041 12.1989 29.6578 12.1985 29.5115L12.1956 28.5863C12.1914 27.3751 12.1871 26.1642 12.204 24.9528C12.2112 24.3983 12.0127 24.1552 11.4438 24.1805C10.8181 24.2083 10.1894 24.1962 9.56259 24.1836C9.0944 24.1745 8.84463 24.3422 8.84523 24.8533C8.85187 29.2425 8.85066 33.6329 8.84704 38.0221C8.84704 38.4788 9.06424 38.6803 9.5107 38.6767C10.1858 38.6707 10.8616 38.667 11.5367 38.6779C12.0423 38.6864 12.2112 38.4281 12.2003 37.9551C12.1939 37.6793 12.2003 37.4026 12.2066 37.126C12.2169 36.6773 12.2273 36.229 12.1828 35.7856C12.0718 34.6754 12.4537 33.8507 13.3002 33.1315C13.8058 32.7026 14.0773 32.6386 14.4972 33.2087C15.6827 34.8196 16.9045 36.4046 18.1413 37.9762C18.3651 38.2616 18.7169 38.6091 19.0306 38.6315C19.8317 38.6884 20.6371 38.6799 21.5336 38.6705Z" fill="#FEFAFA"/>
<path d="M23.7512 27.4201C23.7498 27.758 23.7483 28.0958 23.7483 28.4337C23.7266 28.4348 23.7041 28.4354 23.6832 28.436L23.6783 28.4361C23.7016 28.8954 23.7107 29.357 23.7198 29.8187C23.7397 30.8309 23.7597 31.8432 23.9287 32.8302C24.5435 36.4194 27.6863 38.7735 31.5192 38.6722C35.0342 38.5793 38.1685 35.9126 38.4985 32.4374C38.6685 30.6468 38.6598 28.8386 38.651 27.0309C38.6474 26.2794 38.6437 25.5277 38.6529 24.7775C38.6578 24.3637 38.4158 24.1784 37.9995 24.1899C37.6477 24.1995 37.2952 24.1972 36.9431 24.1949C36.7887 24.1939 36.634 24.1929 36.4798 24.1929C35.468 24.1941 35.4644 24.1941 35.4499 25.1842C35.4396 25.8805 35.4351 26.577 35.4307 27.2733C35.4212 28.7485 35.4117 30.2236 35.3473 31.6965C35.2224 34.5581 32.4459 36.4194 29.8057 35.4776C28.1249 34.8785 26.9936 33.1801 26.9804 31.1632C26.972 29.9031 26.9811 28.6424 26.9902 27.3823C26.9955 26.6402 27.0009 25.8977 27.0027 25.1558C27.0051 24.2189 26.9743 24.1953 26.0138 24.1935C25.8547 24.1933 25.6955 24.1957 25.5364 24.1981C25.1884 24.2032 24.8405 24.2084 24.494 24.1869C23.9167 24.1513 23.7296 24.4089 23.7411 24.9591C23.7582 25.7792 23.7547 26.5997 23.7512 27.4201Z" fill="#FEFAFA"/>
</svg>
