<svg width="61" height="19" viewBox="0 0 61 19" fill="none" xmlns="http://www.w3.org/2000/svg">
<path fill-rule="evenodd" clip-rule="evenodd" d="M17.1448 1C17.9121 1.27956 18.2082 1.82892 18.2053 2.64054C18.188 7.3267 18.186 12.0129 18.2072 16.699C18.2109 17.4994 17.6099 18.2158 16.7003 18.2104C11.9461 18.1829 7.19143 18.1975 2.43702 18.1972C1.73606 18.1972 1.32733 17.9179 1.05508 17.2557C1.04631 17.2343 1.01877 17.2204 1 17.2031C1 12.1528 1 7.10296 1 2.05291C1.17427 1.52524 1.5228 1.17183 2.05291 1C7.08371 1 12.1143 1 17.1448 1Z" fill="#D93F38"/>
<path d="M31.0063 9.61765L31.0059 9.61934C30.9072 10.0661 30.8084 10.5129 30.7101 10.9598C30.6955 10.9642 30.6806 10.9688 30.6663 10.9735C30.6413 10.887 30.6163 10.8005 30.5912 10.7141C30.5353 10.5217 30.4795 10.3293 30.4255 10.1365L30.1921 9.30414C29.8367 8.03692 29.4814 6.76971 29.1313 5.50102C29.0737 5.29263 28.9836 5.18856 28.7493 5.20562C28.4683 5.22634 28.1839 5.22244 27.9021 5.2066C27.6842 5.19441 27.5977 5.28288 27.5431 5.48932C27.2829 6.47183 27.0147 7.45217 26.7464 8.43245C26.6657 8.72758 26.5849 9.02288 26.5044 9.31805C26.4087 9.66904 26.3127 10.0199 26.2166 10.3708L26.0635 10.9308C25.9967 10.8869 25.9833 10.8453 25.9735 10.8026C25.8766 10.382 25.7793 9.96141 25.6821 9.54085C25.3718 8.19915 25.0615 6.85718 24.7607 5.51321C24.7069 5.27313 24.6103 5.19587 24.3708 5.20538C24.055 5.2181 23.7386 5.21542 23.4221 5.21274C23.2901 5.21162 23.1581 5.2105 23.0261 5.2105H22.7275C22.7336 5.25503 22.7378 5.29337 22.7416 5.32751C22.7486 5.3911 22.754 5.44011 22.7665 5.48737C23.0191 6.43631 23.272 7.38516 23.5248 8.33401C24.0306 10.2317 24.5364 12.13 25.0398 14.0283C25.089 14.2148 25.1882 14.2789 25.3727 14.2738C25.7037 14.2645 26.0362 14.2567 26.3664 14.276C26.6177 14.2908 26.7298 14.1951 26.7959 13.9547C27.1808 12.5542 27.5739 11.156 27.9671 9.75784L28.2087 8.89811C28.23 8.82234 28.2559 8.74785 28.2866 8.65954C28.3022 8.61444 28.3193 8.56538 28.3374 8.51107C28.3521 8.55677 28.3648 8.59539 28.376 8.62945C28.3972 8.69382 28.4131 8.74193 28.4266 8.79087C28.534 9.17724 28.6416 9.56356 28.7492 9.94987C29.1163 11.2679 29.4836 12.5867 29.8422 13.9072C29.9151 14.1756 30.0257 14.3033 30.3228 14.2777C30.6335 14.2504 30.9483 14.2619 31.261 14.2733L31.287 14.2743C31.4896 14.2818 31.5817 14.1992 31.6326 14.0059C32.1262 12.1294 32.6224 10.2536 33.1186 8.37771L33.1195 8.37428C33.3789 7.39366 33.6383 6.41303 33.8974 5.43229C33.9076 5.39323 33.9086 5.35167 33.9099 5.30059C33.9105 5.27358 33.9113 5.24387 33.9135 5.2105C33.7534 5.2105 33.5955 5.21261 33.4393 5.21469C33.0781 5.21952 32.7257 5.22423 32.375 5.20245C32.0526 5.18222 31.9451 5.29653 31.8808 5.60192C31.5977 6.9421 31.302 8.28004 31.0063 9.61765Z" fill="#2E6984"/>
<path fill-rule="evenodd" clip-rule="evenodd" d="M52.1936 12.8746C51.4892 12.82 50.9876 12.2872 51.0307 11.595H51.3673C51.6619 11.595 51.9565 11.5947 52.2512 11.5944C53.1069 11.5934 53.9627 11.5924 54.8183 11.5997C55.0457 11.6016 55.1368 11.5414 55.1161 11.3028C55.1002 11.1216 55.0927 10.9396 55.0852 10.7577C55.0763 10.5407 55.0674 10.3234 55.0442 10.1078C54.9106 8.87235 54.1556 8.01832 52.9435 7.76021C52.586 7.68417 52.207 7.66443 51.8409 7.68149C50.5126 7.74413 49.5579 8.53137 49.2695 9.78999C49.0843 10.5987 49.0841 11.4152 49.2683 12.2248C49.5238 13.3474 50.205 14.0747 51.34 14.309C51.7634 14.3965 52.2135 14.4108 52.6464 14.383C53.4751 14.3299 54.2146 14.0274 54.8368 13.4583C55.0006 13.3084 55.0381 13.199 54.8461 13.0399C54.6138 12.8473 54.3964 12.6358 54.1863 12.4188C54.0439 12.2721 53.9357 12.2536 53.771 12.3979C53.321 12.7917 52.7812 12.9202 52.1936 12.8746ZM51.3042 10.3596H51.028C50.9537 9.61864 51.3556 9.14849 52.0683 9.09804C52.7378 9.05076 53.2613 9.50385 53.2713 10.1563C53.2723 10.2233 53.169 10.3491 53.1117 10.3506C52.6381 10.3619 52.1642 10.361 51.6903 10.3601C51.5616 10.3598 51.4328 10.3596 51.3042 10.3596Z" fill="#2E6984"/>
<path fill-rule="evenodd" clip-rule="evenodd" d="M37.9864 10.361C38.0986 9.58322 37.828 9.23883 37.1078 9.18643C36.4758 9.14037 35.8592 9.1779 35.3127 9.54861C35.1738 9.64318 35.107 9.5859 35.04 9.46355L34.9848 9.36289C34.8443 9.10643 34.7036 8.84958 34.5484 8.60197C34.4375 8.42527 34.4833 8.32997 34.6481 8.22833C35.1743 7.90344 35.7532 7.7165 36.3593 7.7031C36.9969 7.68872 37.6501 7.70017 38.2726 7.82228C39.2441 8.01312 39.7557 8.66851 39.7742 9.67218C39.7909 10.587 39.7897 11.5022 39.7884 12.4174C39.7877 12.9537 39.7869 13.49 39.7898 14.0261C39.791 14.2277 39.7008 14.275 39.5239 14.2721L39.3984 14.2699C39.0601 14.2639 38.7215 14.2579 38.3844 14.2752C38.1151 14.2891 37.9989 14.1985 38.0371 13.9262C38.0412 13.8969 38.038 13.8665 38.0337 13.8258C38.0314 13.8033 38.0286 13.7775 38.0267 13.7471C37.3276 14.4341 36.4963 14.5031 35.6245 14.3352C34.7463 14.1663 34.2323 13.5731 34.126 12.6637C34.0224 11.776 34.4202 10.9854 35.2218 10.6668C35.6552 10.4943 36.139 10.4219 36.6072 10.3717C36.9195 10.3377 37.2363 10.3457 37.5575 10.3538C37.6997 10.3574 37.8426 10.361 37.9864 10.361ZM36.8387 13.0234C37.7444 12.9969 38.0713 12.6678 38.0159 11.8082C38.0113 11.7366 37.9492 11.6076 37.9145 11.6081C37.7779 11.6093 37.6406 11.6039 37.5032 11.5986C37.0768 11.582 36.6498 11.5653 36.2421 11.7441C35.9764 11.8606 35.8945 12.0909 35.9018 12.3673C35.9091 12.6442 36.0449 12.8346 36.2986 12.9201C36.4175 12.9598 36.5437 12.9783 36.6697 12.9967C36.7263 13.005 36.7828 13.0133 36.8387 13.0234Z" fill="#2E6984"/>
<path d="M56.0664 9.07473C56.1419 9.16 56.2928 9.17852 56.5942 9.21552C56.5958 9.24924 56.5978 9.28337 56.5998 9.3178C56.6043 9.39509 56.6089 9.47395 56.6091 9.55284C56.6113 9.87996 56.6113 10.2072 56.6114 10.5345C56.6115 11.2397 56.6115 11.9454 56.6337 12.6499C56.661 13.5207 57.0746 14.0808 57.8331 14.2349C58.2184 14.3133 58.6195 14.3183 59.0183 14.3232C59.1165 14.3244 59.2146 14.3257 59.3123 14.328C59.371 14.3294 59.4812 14.1881 59.4858 14.1081C59.4955 13.9383 59.494 13.7678 59.4924 13.5973C59.4908 13.4267 59.4892 13.2562 59.499 13.0862C59.5133 12.8356 59.4431 12.743 59.1765 12.7493C58.5886 12.7637 58.4602 12.6263 58.4565 12.0308C58.4522 11.302 58.4538 10.5736 58.4554 9.84493L58.4563 9.45901C58.4564 9.40291 58.4629 9.34682 58.4699 9.28573C58.4734 9.2554 58.4771 9.22334 58.4802 9.18993L58.6237 9.19021C58.7255 9.19051 58.8189 9.19079 58.9123 9.18944C59.0011 9.18826 59.0766 9.18899 59.1407 9.18961C59.3204 9.19135 59.4104 9.19222 59.4549 9.14762C59.4995 9.10281 59.498 9.01208 59.495 8.83017C59.494 8.76493 59.4927 8.68797 59.4933 8.59718C59.4985 7.83407 59.4946 7.83383 58.7458 7.82164L58.7331 7.82122C58.7179 7.82067 58.7026 7.82012 58.6876 7.82164C58.5097 7.83943 58.4492 7.759 58.4524 7.58279C58.4566 7.34356 58.4558 7.10427 58.4551 6.86498C58.4543 6.61718 58.4535 6.36937 58.4582 6.12163C58.4619 5.93055 58.3902 5.86109 58.2026 5.8645C57.7743 5.87206 57.3449 5.87937 56.9171 5.86206C56.6644 5.85158 56.5993 5.95297 56.6061 6.18671C56.6146 6.48092 56.6132 6.77542 56.6117 7.0699C56.6109 7.24308 56.6101 7.41626 56.6113 7.58937C56.6122 7.72001 56.5964 7.80799 56.4309 7.82432C55.9907 7.86788 55.9907 7.87524 55.9907 8.32465V8.53138C55.9907 8.83676 55.9907 8.98927 56.0664 9.07473Z" fill="#2E6984"/>
<path d="M43.2677 9.76288C43.2672 10.5216 43.2668 11.2803 43.2694 12.039C43.2713 12.6354 43.3778 12.7482 43.9623 12.7514C44.1597 12.7526 44.244 12.8038 44.236 13.0151C44.2293 13.1922 44.2302 13.3695 44.2311 13.5468C44.2321 13.7398 44.2331 13.9329 44.2243 14.1255C44.2209 14.1991 44.1185 14.3305 44.0639 14.3295C43.9662 14.3276 43.8682 14.3267 43.77 14.3258C43.3805 14.3223 42.9891 14.3187 42.6111 14.2479C41.885 14.1116 41.4765 13.563 41.4241 12.748C41.3982 12.3441 41.3977 11.9381 41.3972 11.5329L41.397 11.4333C41.3952 10.1114 41.3954 8.78959 41.3957 7.46773C41.3958 6.87973 41.3959 6.29173 41.3958 5.70373C41.3958 5.68995 41.3958 5.67655 41.3958 5.66352C41.3957 5.39819 41.3956 5.28532 41.4512 5.23864C41.4923 5.20408 41.5639 5.2058 41.6886 5.2088C41.7407 5.21005 41.8022 5.21153 41.8745 5.21066C42.011 5.209 42.1477 5.21045 42.2843 5.2119C42.5084 5.21428 42.7324 5.21666 42.9559 5.2053C43.2014 5.19263 43.275 5.27915 43.2725 5.52069C43.265 6.33505 43.2662 7.14955 43.2673 7.96399C43.2677 8.26014 43.2681 8.55682 43.2681 8.85294C43.2681 9.15623 43.2679 9.45956 43.2677 9.76288Z" fill="#2E6984"/>
<path d="M45.3933 8.12673C45.3928 8.43376 45.3924 8.74079 45.3924 9.04779C45.3944 9.04779 45.3961 9.04779 45.3975 9.0473C45.3975 9.39797 45.3965 9.74865 45.3954 10.0993C45.393 10.9177 45.3905 11.736 45.4014 12.5541C45.4138 13.4907 45.8133 14.0849 46.5864 14.2395C46.9521 14.3125 47.332 14.3177 47.7105 14.3229C47.8295 14.3245 47.9483 14.3261 48.0666 14.3299C48.1166 14.3316 48.2133 14.2275 48.215 14.1702C48.2282 13.7615 48.2309 13.352 48.2136 12.9435C48.2109 12.8787 48.0966 12.771 48.0252 12.7634C47.284 12.683 47.2611 12.663 47.2606 11.9082V11.616C47.2606 11.1391 47.2604 10.6622 47.2602 10.1853C47.2594 8.63617 47.2587 7.08682 47.2655 5.53761C47.2664 5.28462 47.1979 5.19176 46.9362 5.20468C46.5282 5.22491 46.1172 5.22637 45.7095 5.20444C45.4402 5.19006 45.3848 5.2934 45.3873 5.54078C45.3957 6.4027 45.3945 7.26475 45.3933 8.12673Z" fill="#2E6984"/>
<path d="M5.24072 9.42847C5.10767 9.42847 4.97461 9.42795 4.84155 9.42744C4.51691 9.42618 4.1922 9.42492 3.86756 9.43115C3.65527 9.43529 3.56363 9.35389 3.57216 9.13965C3.58117 8.90616 3.58215 8.67169 3.57191 8.43844C3.56192 8.20544 3.67209 8.13402 3.89071 8.13597L4.23194 8.13917C4.96545 8.14623 5.69932 8.15328 6.43231 8.13914C7.56711 8.11696 8.34192 7.05504 8.0146 5.99701C7.81376 5.34796 7.17446 4.87513 6.4406 4.86026C5.88673 4.84901 5.33265 4.84681 4.77857 4.84462C4.50487 4.84354 4.23117 4.84245 3.95749 4.84028C3.60506 4.8376 3.57533 4.8064 3.57386 4.45738C3.57021 3.57557 3.57021 3.5685 4.44641 3.57801C4.65919 3.58029 4.87256 3.57901 5.08601 3.57772C5.69189 3.57406 6.29844 3.5704 6.89393 3.64845C8.25735 3.8271 9.24177 5.05988 9.24738 6.4618C9.25322 7.93953 8.32438 9.1299 6.9283 9.35876C6.54944 9.42076 6.16176 9.42902 5.77405 9.43728C5.59634 9.44107 5.41857 9.44485 5.2417 9.45381C5.2417 9.44504 5.24121 9.43675 5.24072 9.42847Z" fill="#FEFAFA"/>
<path fill-rule="evenodd" clip-rule="evenodd" d="M12.5848 9.42712C10.8714 9.42639 9.59375 8.18337 9.59375 6.51798C9.59375 4.84844 10.8914 3.57812 12.5989 3.57617C14.3118 3.57398 15.6216 4.84551 15.6168 6.50603C15.6117 8.16022 14.296 9.42785 12.5848 9.42712ZM11.6105 7.95102C11.1764 7.63736 10.8991 7.1169 10.8936 6.50751C10.8844 5.50481 11.6185 4.73901 12.5893 4.73926C13.1846 4.73941 13.6872 5.01997 13.9888 5.46882C14.1806 5.75418 14.2912 6.10757 14.2926 6.50019C14.2962 7.52604 13.5885 8.26917 12.6079 8.26844C12.2463 8.26825 11.9161 8.1612 11.6442 7.97474C11.6329 7.96697 11.6216 7.95906 11.6105 7.95102Z" fill="#FEFAFA"/>
<path d="M8.69901 15.6218C8.8431 15.6203 8.99302 15.6187 9.15097 15.6187C9.10771 15.5581 9.07197 15.5071 9.04075 15.4626C8.98494 15.383 8.94351 15.3239 8.89944 15.267C8.20701 14.3745 7.51385 13.4829 6.82019 12.5916C6.56257 12.2604 6.5616 12.2514 6.8687 11.9457C7.09567 11.7199 7.32279 11.4942 7.54992 11.2685C7.95863 10.8624 8.36734 10.4563 8.77514 10.0493C8.8193 10.0051 8.85903 9.95665 8.91121 9.89298C8.94024 9.85755 8.97313 9.81742 9.01278 9.77072C8.87292 9.77072 8.74143 9.77215 8.61572 9.77352C8.3434 9.77649 8.09812 9.77917 7.85385 9.76633C7.54748 9.75024 7.32008 9.84944 7.10804 10.0746C6.64575 10.5663 6.17305 11.0483 5.70032 11.5303C5.53857 11.6952 5.37658 11.8604 5.21524 12.0257C5.16998 12.0721 5.12224 12.116 5.05989 12.1735C5.02668 12.2041 4.98875 12.239 4.94543 12.2797C4.9423 12.2169 4.93914 12.1646 4.93638 12.1189C4.93161 12.0401 4.92804 11.981 4.92789 11.9219L4.92671 11.5481C4.925 11.0588 4.92328 10.5696 4.93008 10.0803C4.933 9.85626 4.85282 9.75804 4.62298 9.76828C4.37024 9.77949 4.11627 9.77462 3.86304 9.7695C3.6739 9.76584 3.573 9.8336 3.57324 10.04C3.57592 11.8132 3.57544 13.5868 3.57397 15.3599C3.57397 15.5444 3.66172 15.6258 3.84207 15.6243C4.11481 15.6219 4.38778 15.6204 4.66052 15.6248C4.86476 15.6282 4.933 15.5239 4.92862 15.3328C4.92601 15.2214 4.92859 15.1096 4.93116 14.9979C4.93533 14.8166 4.93949 14.6355 4.92155 14.4564C4.8767 14.0079 5.03098 13.6748 5.37293 13.3842C5.57718 13.2109 5.68686 13.1851 5.85649 13.4154C6.33542 14.0662 6.82897 14.7065 7.32861 15.3414C7.41903 15.4567 7.56113 15.597 7.68787 15.6061C8.01148 15.6291 8.33684 15.6257 8.69901 15.6218Z" fill="#FEFAFA"/>
<path d="M9.59486 11.077C9.59428 11.2135 9.5937 11.35 9.5937 11.4864C9.58491 11.4869 9.57584 11.4871 9.5674 11.4874L9.56543 11.4874C9.57482 11.6729 9.5785 11.8594 9.58217 12.046C9.59023 12.4549 9.59829 12.8638 9.66658 13.2625C9.91494 14.7124 11.1845 15.6635 12.7329 15.6225C14.1529 15.585 15.4191 14.5077 15.5524 13.1038C15.6211 12.3805 15.6175 11.65 15.614 10.9198C15.6125 10.6161 15.611 10.3125 15.6148 10.0095C15.6167 9.84225 15.519 9.76743 15.3508 9.77206C15.2087 9.77596 15.0663 9.77502 14.924 9.77409C14.8617 9.77369 14.7992 9.77328 14.7369 9.77328C14.3281 9.77377 14.3267 9.77377 14.3208 10.1737C14.3167 10.455 14.3149 10.7364 14.3131 11.0177C14.3092 11.6136 14.3054 12.2095 14.2794 12.8045C14.2289 13.9605 13.1073 14.7124 12.0407 14.332C11.3617 14.09 10.9047 13.4039 10.8994 12.5891C10.896 12.08 10.8997 11.5707 10.9033 11.0617C10.9055 10.7619 10.9077 10.4619 10.9084 10.1623C10.9093 9.78376 10.8969 9.77425 10.5089 9.77352C10.4446 9.77344 10.3803 9.7744 10.316 9.77536C10.1755 9.77745 10.0349 9.77954 9.89495 9.77084C9.6617 9.75646 9.58615 9.86053 9.59078 10.0828C9.59768 10.4141 9.59627 10.7455 9.59486 11.077Z" fill="#FEFAFA"/>
</svg>
