<svg width="24" height="24" viewBox="0 0 24 24" fill="none" xmlns="http://www.w3.org/2000/svg">
<path d="M22.9975 3.09747C23.0012 2.0598 22.6226 1.35742 21.6416 1H2.34617C1.66841 1.21969 1.2228 1.67153 1 2.34617V21.7161C1.02399 21.7382 1.05921 21.756 1.07042 21.7834C1.4185 22.6301 1.94107 22.9872 2.83728 22.9872C8.91593 22.9875 14.9949 22.9688 21.0732 23.004C22.2362 23.0109 23.0046 22.095 22.9999 21.0717C22.9728 15.0803 22.9753 9.08887 22.9975 3.09747Z" fill="#D52E2F"/>
<path d="M6.4225 11.7743C6.25239 11.7743 6.08227 11.7737 5.91215 11.773C5.49706 11.7714 5.08197 11.7698 4.66687 11.7777C4.39546 11.783 4.27829 11.679 4.2892 11.4051C4.30073 11.1065 4.30197 10.8068 4.28888 10.5085C4.27611 10.2106 4.41696 10.1193 4.69647 10.1218L5.13275 10.1259C6.07059 10.1349 7.0088 10.144 7.94599 10.1259C9.39686 10.0975 10.3875 8.73982 9.96898 7.38711C9.71221 6.55728 8.89485 5.95275 7.95658 5.93374C7.24845 5.91935 6.54003 5.91654 5.83162 5.91374C5.48172 5.91235 5.13173 5.91097 4.78186 5.90819C4.33126 5.90476 4.29325 5.86487 4.29138 5.41864C4.2867 4.29122 4.2867 4.28219 5.40695 4.29434C5.67899 4.29726 5.95179 4.29562 6.2247 4.29397C6.99934 4.2893 7.77483 4.28462 8.53618 4.3844C10.2793 4.61281 11.538 6.18895 11.5451 7.98136C11.5526 9.87067 10.365 11.3926 8.58012 11.6852C8.09574 11.7645 7.60007 11.775 7.10438 11.7856C6.87715 11.7904 6.64991 11.7953 6.42375 11.8067C6.42375 11.7955 6.42313 11.7849 6.4225 11.7743Z" fill="#FEFAFA"/>
<path fill-rule="evenodd" clip-rule="evenodd" d="M15.8121 11.7726C13.6215 11.7717 11.988 10.1824 11.988 8.05318C11.988 5.91862 13.647 4.29449 15.8302 4.292C18.0202 4.28919 19.6948 5.91488 19.6886 8.03791C19.682 10.1528 17.9999 11.7735 15.8121 11.7726ZM15.503 10.2659C14.439 10.1057 13.6604 9.19855 13.65 8.04006C13.6381 6.75808 14.5767 5.77899 15.8179 5.7793C15.9626 5.77933 16.103 5.79233 16.2382 5.8173C17.2661 6.00707 17.9915 6.88913 17.9956 8.03043C18.0003 9.34201 17.0953 10.2921 15.8417 10.2912C15.7583 10.2911 15.6762 10.2867 15.5957 10.2779C15.5645 10.2746 15.5336 10.2706 15.503 10.2659Z" fill="#FEFAFA"/>
<path d="M10.8442 19.6937C11.0284 19.6917 11.22 19.6897 11.4219 19.6897C11.3666 19.6122 11.3209 19.547 11.281 19.4901C11.2096 19.3883 11.1567 19.3128 11.1003 19.24C10.215 18.0989 9.32876 16.959 8.44191 15.8195C8.11253 15.396 8.11129 15.3844 8.50392 14.9937C8.79412 14.7049 9.08452 14.4164 9.37491 14.1278C9.89745 13.6086 10.42 13.0894 10.9414 12.569C10.9978 12.5126 11.0486 12.4506 11.1153 12.3692C11.1524 12.324 11.1946 12.2724 11.2452 12.2128C11.0663 12.2128 10.8982 12.2147 10.7374 12.2164C10.3893 12.2202 10.0758 12.2236 9.76346 12.2072C9.37177 12.1867 9.08103 12.3135 8.80993 12.6014C8.21886 13.2301 7.61447 13.8463 7.01003 14.4626C6.80316 14.6735 6.59628 14.8845 6.38993 15.0959C6.332 15.1552 6.2709 15.2115 6.19104 15.2851C6.14849 15.3243 6.10053 15.3685 6.04498 15.4206C6.04098 15.3404 6.03693 15.2735 6.0334 15.2151C6.02731 15.1143 6.02274 15.0387 6.02254 14.9631C6.02216 14.8038 6.0216 14.6446 6.02104 14.4853C6.01885 13.8597 6.01665 13.2342 6.02534 12.6086C6.02908 12.3222 5.92656 12.1966 5.63271 12.2097C5.30957 12.2241 4.98486 12.2178 4.6611 12.2113C4.41929 12.2066 4.29028 12.2932 4.29059 12.5572C4.29402 14.8242 4.29339 17.0918 4.29152 19.3588C4.29152 19.5947 4.4037 19.6987 4.6343 19.6969C4.98299 19.6938 5.332 19.6919 5.6807 19.6975C5.94183 19.7019 6.02908 19.5685 6.02347 19.3242C6.02015 19.1817 6.02343 19.0388 6.02672 18.896C6.03205 18.6642 6.03738 18.4327 6.01444 18.2036C5.9571 17.6302 6.15435 17.2043 6.59155 16.8328C6.85268 16.6113 6.9929 16.5782 7.20979 16.8727C7.82211 17.7047 8.45313 18.5233 9.09194 19.3351C9.20755 19.4825 9.38922 19.662 9.55126 19.6735C9.96499 19.7029 10.3812 19.6985 10.8442 19.6937Z" fill="#FEFAFA"/>
<path d="M11.9894 13.8825C11.9887 14.0569 11.9879 14.2317 11.9879 14.4061L11.9707 14.4068L11.9544 14.4072L11.9518 14.4073C11.9638 14.6445 11.9685 14.8829 11.9732 15.1213C11.9835 15.6441 11.9938 16.167 12.0811 16.6768C12.3986 18.5306 14.0218 19.7465 16.0015 19.6942C17.817 19.6462 19.4358 18.2688 19.6063 16.4739C19.6941 15.5491 19.6896 14.6152 19.685 13.6816C19.6832 13.2934 19.6813 12.9052 19.686 12.5177C19.6885 12.3039 19.5636 12.2082 19.3486 12.2142C19.1669 12.2192 18.9849 12.218 18.803 12.2168C18.7232 12.2162 18.6433 12.2157 18.5636 12.2157C18.041 12.2164 18.0392 12.2164 18.0317 12.7277C18.0264 13.0871 18.0241 13.4466 18.0218 13.806C18.0169 14.5679 18.0119 15.3305 17.9787 16.0913C17.9142 17.5693 16.4802 18.5306 15.1165 18.0442C14.2484 17.7347 13.6641 16.8575 13.6572 15.8158C13.6529 15.1649 13.6576 14.5136 13.6623 13.8627C13.6651 13.4796 13.6679 13.096 13.6688 12.7131C13.67 12.2291 13.6541 12.217 13.158 12.216C13.0759 12.2159 12.9936 12.2172 12.9114 12.2184C12.7317 12.2211 12.552 12.2237 12.3731 12.2126C12.0749 12.1942 11.9783 12.3273 11.9842 12.6115C11.993 13.035 11.9912 13.4588 11.9894 13.8825Z" fill="#FEFAFA"/>
</svg>
