<svg width="149" height="120" viewBox="0 0 149 120" fill="none" xmlns="http://www.w3.org/2000/svg">
<path d="M70.4203 2.57244C63.4022 -0.538494 61.7509 9.92958 61.7804 12.3918C61.8099 14.8392 61.692 17.6553 58.006 19.6752C50.7668 23.6413 56.3105 31.4702 56.3105 31.4702C55.013 35.2151 59.8343 39.7857 59.8343 39.7857C59.7458 37.7953 68.8722 25.1451 73.7819 22.2701C75.0203 20.6188 75.5806 17.6258 75.6248 17.3899C75.3005 19.7637 74.8287 21.0906 74.4306 21.8278C78.6473 18.3188 76.9665 4.84298 74.4158 3.22116" fill="#13375B"/>
<path d="M147.176 50.534L98.2417 42.764C96.1628 42.4397 94.2019 43.8551 93.8775 45.9339L91.7102 59.5719C91.607 60.2059 91.7692 61.9752 91.7692 61.9752L93.5384 62.2405C93.6416 62.2553 93.7448 62.2848 93.848 62.2848C94.1724 62.3143 94.4968 62.27 94.8359 62.1521C96.4577 61.5623 98.2564 61.3854 100.085 61.7245C105.23 62.6681 108.842 67.4746 108.297 72.6791C107.692 78.4734 102.37 82.4985 96.6788 81.5991C94.541 81.26 92.6685 80.2722 91.2236 78.8715C90.9435 78.6061 90.6044 78.4587 90.2653 78.4144L88.4223 78.1343L86.1223 94.7653C85.7979 96.8147 87.1986 98.7461 89.248 99.0705L138.138 106.84C140.188 107.165 142.119 105.764 142.443 103.715" fill="#8F1011"/>
<path d="M145.378 50.2537L96.4433 42.4838C94.3644 42.1594 92.4035 43.5748 92.0791 45.6537L89.9118 59.2917C89.6317 61.0609 91.3419 62.4763 93.0227 61.8718C94.6445 61.2821 96.4433 61.1051 98.2715 61.4442C103.417 62.3878 107.029 67.1943 106.484 72.3988C105.879 78.1931 100.557 82.2182 94.8657 81.3188C92.7278 80.9797 90.8554 79.9919 89.4105 78.5912C88.4816 77.6771 86.9041 78.1931 86.6977 79.4906L84.3092 94.4997C83.9848 96.5491 85.3855 98.4806 87.4348 98.8049L101.412 101.031L122.26 104.349L136.325 106.59C138.375 106.914 140.306 105.513 140.63 103.464" fill="#D52E2F"/>
<path d="M78.0137 117.043C78.1464 118.252 79.8567 118.208 81.7734 117.913C83.7048 117.618 83.2035 118.134 85.9163 118.075C88.6292 118.016 89.5286 117.102 89.6465 116.704C89.7497 116.35 88.4375 116.114 87.0221 115.819C86.8452 115.79 86.6683 115.745 86.4914 115.701C84.899 115.347 83.8227 114.212 82.4368 113.224C81.1246 112.295 80.24 108.02 80.24 108.02L76.3771 107.99C76.3771 107.99 77.5861 111.853 78.2201 113.195C78.5887 113.991 78.1906 115.008 78.0727 115.76C78.0432 116.202 77.9695 116.63 78.0137 117.043Z" fill="#FF9792"/>
<path d="M81.7876 117.928C83.719 117.633 83.2177 118.149 85.9306 118.09C88.6434 118.031 89.5428 117.117 89.6608 116.719C89.764 116.365 88.4518 116.129 87.0364 115.834L87.0216 115.864C87.0216 115.864 85.3114 116.866 83.0703 116.704C81.2421 116.586 79.3549 115.879 78.1017 115.79C78.0279 116.203 77.969 116.63 78.0132 117.058C78.1459 118.252 79.8562 118.208 81.7876 117.928Z" fill="#1B2251"/>
<path d="M47.8621 116.851C47.9506 118.06 49.6461 118.09 51.5923 117.869C53.5385 117.647 53.0077 118.134 55.7205 118.193C58.4334 118.237 59.377 117.353 59.5097 116.969C59.6276 116.63 58.3154 116.335 56.9295 115.981C56.7526 115.937 56.5757 115.893 56.3987 115.849C54.8212 115.436 53.7891 114.256 52.4474 113.224C51.1795 112.236 52.2263 108.167 52.2263 108.167L49.307 106.781C49.307 106.781 48.9089 110.983 48.6878 113.106C48.5993 113.976 48.1717 114.846 48.0095 115.598C47.9211 116.011 47.8326 116.438 47.8621 116.851Z" fill="#FF9792"/>
<path d="M51.5924 117.868C53.5385 117.647 53.0078 118.134 55.7206 118.193C58.4335 118.237 59.3771 117.352 59.5098 116.969C59.6277 116.63 58.3155 116.335 56.9296 115.981L56.9149 116.01C56.9149 116.01 55.1603 116.939 52.934 116.703C51.1206 116.512 49.2628 115.745 48.0096 115.598C47.9212 116.01 47.8474 116.423 47.8769 116.851C47.9507 118.075 49.6609 118.089 51.5924 117.868Z" fill="#1B2251"/>
<path d="M54.4384 56.4315C54.4384 56.4315 53.6275 60.3533 52.8166 80.2574C52.8166 80.2574 51.3127 83.9433 50.2217 88.4549C49.1306 92.9665 48.364 111.765 48.364 111.765C48.364 111.765 48.8063 112.399 50.1185 112.472C51.1948 112.531 52.0351 112.06 52.0351 112.06C52.0351 112.06 59.6282 87.4376 63.3289 77.8689C67.0296 68.3002 69.1969 54.6475 69.1969 54.6475L54.4384 56.4315Z" fill="#0E0E0E"/>
<path d="M63.5644 58.1122C63.5644 58.1122 64.1689 62.0783 70.2876 81.024C70.2876 81.024 70.1549 85.0048 70.6857 89.6049C71.2164 94.2049 77.4236 112.34 77.4236 112.34C77.4236 112.34 78.2492 112.62 79.4877 112.296C80.6377 111.986 81.5371 111.308 81.5371 111.308C81.5371 111.308 79.1633 85.3882 79.3108 75.1412C79.4729 64.8943 76.7748 51.3301 76.7748 51.3301L63.5644 58.1122Z" fill="#0E0E0E"/>
<path d="M50.7813 107.4L50.0588 107.754H51.7396C51.8723 107.754 51.9903 107.739 52.123 107.725L66.9404 104.54C68.9603 104.098 70.2578 102.107 69.8155 100.087L66.852 86.2871C66.5718 85.0044 67.7366 83.8839 69.0046 84.223C70.4642 84.5916 72.0418 84.6505 73.6194 84.3114C79.8265 82.9697 83.4387 76.1876 80.5489 70.0542C79.0893 66.9728 75.0348 64.4073 71.629 64.4073C69.1078 64.4073 66.8815 65.2625 65.1564 66.6631C64.1686 67.4593 62.6942 66.9433 62.4141 65.6901L59.4211 51.8014C58.9788 49.7815 56.9884 48.4841 54.9685 48.9264L6.60898 59.3355C4.63332 59.7631 3.36536 61.7092 3.79293 63.6849L14.202 111.985C14.4969 113.371 15.5142 114.403 16.7674 114.816L16.1335 114.993H18.0059H18.0207C18.2566 114.993 18.4777 114.964 18.7136 114.905L19.7604 114.684L32.1747 112.015" fill="#830566"/>
<path d="M50.413 107.71L65.2305 104.525C67.2504 104.083 68.5478 102.092 68.1055 100.073L65.142 86.2724C64.8619 84.9897 66.0266 83.8692 67.2946 84.2083C68.7542 84.5769 70.3318 84.6359 71.9094 84.2968C78.1165 82.9551 81.7287 76.173 78.839 70.0396C77.3793 66.9581 73.3248 64.3927 69.919 64.3927C67.3978 64.3927 65.1715 65.2478 63.4465 66.6485C62.4587 67.4447 60.9843 66.9286 60.7041 65.6754L57.7112 51.7868C57.2688 49.7669 55.2784 48.4694 53.2585 48.9118L4.89902 59.3208C2.92336 59.7484 1.6554 61.6946 2.08296 63.6702L12.4921 111.986C12.9344 114.035 14.9543 115.347 17.0184 114.905L30.4794 112L50.413 107.71Z" fill="#AB22AF"/>
<path d="M91.8278 42.8966C91.5329 42.8376 90.2207 42.6754 88.5399 42.4101C85.4732 41.9235 81.1828 41.0831 79.7379 39.7562C79.3545 39.4023 78.4404 37.4119 77.4968 35.1414C76.5385 40.169 76.7744 51.3448 77.9096 58.0827C77.9096 58.0827 72.3512 62.3289 61.2639 60.4122C60.1582 55.2224 58.5216 49.9884 58.5216 49.9884C60.3056 46.3909 60.512 43.3831 59.996 39.7709C59.8043 38.4292 59.0671 36.5863 58.8017 34.5221C58.7722 34.3452 58.7575 34.1683 58.7428 33.9914C55.8235 36.3946 52.4619 39.0337 52.3882 39.5645C52.2555 40.4491 54.526 50.2685 54.526 50.2685C53.9658 51.5659 51.5183 51.2858 51.5183 51.2858C49.2183 49.6492 45.8567 40.3754 46.1221 38.3113C46.3875 36.2619 54.7472 24.5406 56.7818 21.7393C58.787 18.9675 66.0852 19.0412 66.2473 19.0412C72.0564 22.5207 72.5724 19.631 72.5724 19.631C72.5724 19.631 77.8064 20.6335 78.7058 22.1669C79.6052 23.715 83.5565 35.4363 83.8366 35.8638C84.4264 36.7337 93.9656 40.1837 94.1278 41.1863C94.29 42.1889 92.6829 43.0735 91.8278 42.8966Z" fill="#4F4F4F"/>
<path d="M61.2792 60.412L58.5369 49.9882C60.3356 46.3907 60.1587 43.383 59.6427 39.7855C59.451 38.4438 59.0087 36.8515 58.8023 34.7874C58.7875 34.581 58.7433 33.9912 58.7433 33.9912C58.7433 33.9912 63.8741 38.031 63.9626 42.3952C64.0068 44.6509 61.6626 58.1415 61.2792 60.412Z" fill="#393939"/>
<path d="M72.8973 20.9137C72.9268 20.9285 70.5973 22.1375 68.8428 21.6509C67.1915 21.2086 66.1299 19.0708 66.1447 19.0708C66.8376 18.9381 67.044 17.9797 67.0293 13.8662L67.3389 13.9252L72.4402 14.9425L72.6319 14.9867C72.6319 14.9867 72.514 16.6528 72.514 18.2156C72.514 18.5547 72.514 18.8791 72.5287 19.174C72.5729 20.0733 72.6761 20.7958 72.8973 20.9137Z" fill="#FF9792"/>
<path d="M72.5286 18.2009C72.5286 18.54 72.5286 18.8644 72.5434 19.1593C69.5799 19.0413 67.8696 15.6503 67.2209 14.1611L72.4697 14.9278L72.6613 14.972C72.6466 14.9573 72.5286 16.6233 72.5286 18.2009Z" fill="#FF7D78"/>
<path d="M74.0914 3.7373C75.3004 4.54821 77.0549 6.31746 75.094 11.1682L74.5927 12.8047L66.808 13.3502C66.808 13.3502 65.2599 10.9028 64.8766 8.79441" fill="#13375B"/>
<path d="M76.4947 8.92707C76.6274 10.4162 74.7697 17.5669 72.9562 17.4342C72.9562 17.4342 66.0119 16.5201 66.6459 12.2002C67.2799 7.88027 66.8228 4.8578 71.2754 5.25588" fill="#FF9792"/>
<path d="M91.7397 40.626C91.7397 40.626 94.7622 41.1273 95.5436 43.0882C96.3397 45.0491 95.234 46.376 94.8064 46.376C94.3788 46.376 93.5679 46.0517 93.1846 45.0344C92.816 44.0023 91.7397 40.626 91.7397 40.626Z" fill="#FF9792"/>
<path d="M50.2213 49.3691C50.2213 49.3691 53.6123 49.3691 54.8213 51.3595C56.0451 53.3647 55.072 55.016 54.6149 55.0897C54.1431 55.1634 53.1995 54.9718 52.6098 53.925C51.9905 52.8782 50.2213 49.3691 50.2213 49.3691Z" fill="#FF9792"/>
<path d="M88.7317 42.4395C85.6208 41.953 81.2861 41.1126 79.8265 39.7856C79.4284 39.4318 78.5143 37.4414 77.556 35.1708C77.556 35.1708 77.2168 31.5144 78.1752 31.6471C79.1335 31.7798 80.5342 38.267 81.5368 38.6799C82.4509 39.0484 87.4195 40.9504 88.7317 42.4395Z" fill="#393939"/>
<path d="M73.7816 4.81357C73.7816 4.81357 71.1278 9.59055 68.1053 9.91491C65.0828 10.2245 63.9328 9.26619 63.9328 9.26619C63.9328 9.26619 66.4245 7.8213 67.3533 4.79883" fill="#13375B"/>
<path d="M126.529 61.4639L137.751 63.4937C138.245 63.583 138.692 63.7479 139.045 64.1199C139.531 64.589 139.756 65.2685 139.647 65.9325C139.428 67.2043 139.194 68.4677 138.972 69.7276L135.549 88.6835C135.479 89.0688 135.4 89.4467 135.163 89.7626C134.746 90.3652 134.056 90.7111 133.328 90.6747C133.133 90.6675 132.941 90.644 132.751 90.6097L110.672 86.6104C110.422 86.5652 110.17 86.5028 109.923 86.4414C108.791 86.1356 108.12 84.9776 108.421 83.8439C109.783 76.3119 111.155 68.7872 112.508 61.2478C112.626 60.5912 112.918 60.0612 113.488 59.6991C113.909 59.4166 114.417 59.3067 114.914 59.3797C115.246 59.4287 115.578 59.4886 115.909 59.5485L126.528 61.4693L126.529 61.4639Z" fill="#D52E2F"/>
<path d="M118.782 64.2385L116.677 63.8576C116.313 63.7919 116.212 63.8576 116.142 64.2093L115.936 65.3489C115.876 65.6799 115.948 65.777 116.268 65.8403L118.903 66.3563C119.384 66.4545 119.869 66.531 120.345 66.6283C120.972 66.753 121.493 67.0657 121.928 67.5423C122.918 68.6403 122.698 70.4107 121.539 71.2715C120.904 71.7505 120.096 71.9407 119.316 71.7885C118.001 71.5618 116.69 71.3134 115.378 71.0705C115.003 71.0027 114.906 71.0748 114.838 71.4493L114.632 72.5888C114.575 72.9371 114.66 73.0534 115.008 73.1163C116.201 73.3322 117.389 73.5526 118.584 73.7631C118.904 73.821 119.228 73.8572 119.555 73.8771C120.726 73.9713 121.893 73.5939 122.778 72.8182C124.154 71.6884 124.758 69.8643 124.326 68.133C123.905 66.1569 122.573 64.9971 120.617 64.5648C120.012 64.4386 119.396 64.3439 118.782 64.2385ZM130.488 66.3502C133.12 66.8262 134.883 69.2859 134.42 71.8472C133.957 74.4085 131.444 76.0947 128.806 75.6177C126.169 75.1407 124.411 72.682 124.874 70.1261C125.336 67.5702 127.845 65.8722 130.488 66.3502ZM129.146 73.7683C130.622 74.0352 132.047 73.0041 132.325 71.4683C132.603 69.9326 131.628 68.473 130.147 68.2051C128.671 67.9381 127.241 68.9683 126.964 70.4986C126.685 72.0397 127.665 73.5003 129.146 73.7683ZM115.981 77.8036C115.914 77.6794 115.964 77.5595 115.984 77.4455L116.554 74.2927C116.57 74.0826 116.509 73.9874 116.327 73.9097C116.259 73.8806 116.191 73.857 116.12 73.8443L114.888 73.6214C114.556 73.567 114.434 73.6515 114.376 73.977L112.857 82.3719C112.799 82.6921 112.869 82.8 113.189 82.8634L114.361 83.0754C114.871 83.1676 114.952 83.1207 115.048 82.5889L115.387 80.7167C115.425 80.5051 115.502 80.3285 115.687 80.205C115.944 80.0218 116.201 79.8385 116.468 79.6681C116.671 79.5367 116.794 79.5702 116.917 79.7885C117.031 79.9941 117.133 80.2032 117.241 80.4132L118.856 83.5689C118.968 83.7854 119.136 83.9391 119.386 83.9843L121.194 84.3057C121.291 84.3233 121.398 84.3538 121.487 84.2018C121.457 84.118 121.423 83.9997 121.369 83.8947L119.428 80.1868L118.644 78.6663C118.516 78.4134 118.544 78.2896 118.777 78.1187C118.81 78.0911 118.842 78.0688 118.874 78.0466L121.043 76.556L122.701 75.4156C122.791 75.348 122.932 75.3118 122.909 75.1338C122.867 75.1151 122.828 75.0855 122.78 75.0713C122.185 74.9525 121.601 74.8356 121.004 74.7276C120.662 74.6658 120.355 74.7504 120.065 74.9613C118.819 75.868 117.561 76.7501 116.303 77.6376C116.211 77.7107 116.131 77.8138 115.981 77.8036ZM123.479 77.8989L123.321 78.7726C123.228 79.3778 123.066 79.9649 123.056 80.5795C122.993 83.0339 124.822 85.13 127.261 85.403C129.807 85.7909 132.199 84.0658 132.641 81.5287C132.9 80.1858 133.127 78.8425 133.37 77.4967L133.402 77.3177C133.417 77.113 133.354 76.9951 133.154 76.9534C132.673 76.8552 132.196 76.7688 131.711 76.6923C131.508 76.6668 131.409 76.7498 131.362 76.9486L131.307 77.2525C131.045 78.6062 130.796 79.9564 130.528 81.3091C130.412 81.8932 130.109 82.4213 129.672 82.8242C128.601 83.8185 126.93 83.7628 125.929 82.6964C125.291 82.0094 125.026 81.0591 125.213 80.146C125.446 78.7982 125.71 77.4618 125.964 76.118C126.032 75.7436 125.96 75.6465 125.586 75.5733L124.387 75.3564C124.028 75.297 123.937 75.3647 123.871 75.7337L123.479 77.8989Z" fill="white"/>
<path d="M40.2823 73.2649C38.0135 72.308 35.6931 71.5012 33.2986 70.9267C31.4793 70.4898 29.6397 70.1851 27.7589 70.2771C26.9283 70.3186 26.1141 70.4423 25.3432 70.7632C23.8155 71.3983 22.9269 72.5893 22.4678 74.1412C21.9951 75.7425 21.934 77.3819 22.0029 79.0304C22.0784 80.8485 22.3631 82.6442 22.7336 84.4228C22.8142 84.8261 22.8902 85.2265 22.9745 85.6291C23.2981 87.1336 23.724 88.6059 24.2747 90.0417C24.818 91.4596 25.4688 92.8133 26.4349 93.9952C27.0613 94.7596 27.7893 95.391 28.7475 95.7357C29.8057 96.1148 30.8545 96.0569 31.9197 95.7899C33.0558 95.5087 34.1055 95.0273 35.123 94.463C36.5387 93.6755 37.8745 92.7603 39.1058 91.7105C40.37 90.631 41.6133 89.5245 42.8223 88.3821C43.8317 87.4272 44.7486 86.3781 45.5729 85.2542C46.3022 84.2581 46.9569 83.2186 47.3458 82.0341C47.8752 80.4254 47.6838 78.9218 46.6677 77.5478C46.0495 76.7081 45.2551 76.055 44.4038 75.4676C43.1104 74.5723 41.7199 73.8712 40.2823 73.2649ZM25.0285 75.5486C24.7683 74.1869 25.6754 73.1086 26.8183 72.8805C27.9306 72.6546 29.2644 73.3049 29.5058 74.7869C29.6981 75.9835 28.8947 77.1148 27.6704 77.3437C26.4566 77.5666 25.27 76.817 25.0285 75.5486ZM34.4699 86.8725C31.9728 87.3982 29.4121 85.816 28.8888 83.1552C28.3915 80.6252 29.958 78.1415 32.6015 77.6099C35.2556 77.0724 37.6653 78.8323 38.1566 81.313C38.6658 83.8833 37.0246 86.3625 34.4699 86.8725Z" fill="white"/>
</svg>
