<svg width="115" height="93" viewBox="0 0 115 93" fill="none" xmlns="http://www.w3.org/2000/svg">
    <path d="M1.84827 63.0334C-5.70437 42.2638 22.8837 34.0055 33.5656 24.0122C44.2474 14.0189 76.7301 -7.36963 95.6372 2.94343C115.077 13.5469 99.7483 31.338 109.636 49.1902C119.523 67.0425 104.077 86.0876 89.6967 78.3956C75.316 70.7036 65.5105 70.3215 50.1554 70.3215C34.8004 70.3215 6.62896 76.1802 1.84827 63.0334Z" fill="#B70F90" fill-opacity="0.15"/>
    <path d="M20.0542 58.3897V14.0132C20.0542 11.2518 22.2928 9.01318 25.0542 9.01318H48.56C50.1021 9.01318 51.558 9.72477 52.5053 10.9416L58.1552 18.1985C59.1025 19.4153 60.5583 20.1269 62.1004 20.1269H94.3317C97.0931 20.1269 99.3317 22.3655 99.3317 25.1269V58.3897C99.3317 61.1511 97.0931 63.3897 94.3317 63.3897H25.0542C22.2928 63.3897 20.0542 61.1511 20.0542 58.3897Z" fill="#1D2124" stroke="#A7A7A7" stroke-width="2.8" stroke-linecap="round" stroke-linejoin="round"/>
    <circle r="22.2063" transform="matrix(-1 0 0 1 77.6798 55.2274)" fill="#1D2124" stroke="#BABABA" stroke-width="2.8"/>
    <circle r="16.6974" transform="matrix(-1 0 0 1 77.6794 55.2273)" fill="#1D2124" stroke="#B70F90" stroke-width="1.8"/>
    <line y1="-1.4" x2="6.909" y2="-1.4" transform="matrix(0.707107 0.707107 0.707107 -0.707107 94.4463 70.3381)" stroke="#BABABA" stroke-width="2.8"/>
    <path d="M103.882 76.0019C102.71 74.8304 100.811 74.8304 99.6394 76.0019L98.4538 77.1875C97.2823 78.3591 97.2823 80.2586 98.4538 81.4302L107.246 90.2226C107.506 90.4826 107.816 90.7016 108.183 90.7227C108.843 90.7605 110.052 90.5593 111.532 89.0796C113.011 87.6 113.212 86.3906 113.175 85.7312C113.154 85.3641 112.934 85.0544 112.674 84.7944L103.882 76.0019Z" stroke="#BABABA" stroke-width="2.8"/>
</svg>
