<svg width="22" height="22" viewBox="0 0 22 22" fill="none" xmlns="http://www.w3.org/2000/svg">
    <path d="M16 1.99981C16.2626 1.73717 16.5744 1.52883 16.9176 1.38669C17.2608 1.24455 17.6286 1.17139 18 1.17139C18.3714 1.17139 18.7392 1.24455 19.0824 1.38669C19.4256 1.52883 19.7374 1.73717 20 1.99981C20.2626 2.26246 20.471 2.57426 20.6131 2.91742C20.7553 3.26058 20.8284 3.62838 20.8284 3.99981C20.8284 4.37125 20.7553 4.73905 20.6131 5.08221C20.471 5.42537 20.2626 5.73717 20 5.99981L6.5 19.4998L1 20.9998L2.5 15.4998L16 1.99981Z" stroke="#7D8389" stroke-width="2" stroke-linecap="round" stroke-linejoin="round" />
</svg>
    