<svg width="36" height="36" viewBox="0 0 36 36" fill="none" xmlns="http://www.w3.org/2000/svg">
<rect width="36" height="36" rx="18" fill="black" fill-opacity="0.5"/>
<path fill-rule="evenodd" clip-rule="evenodd" d="M22 8C22.5523 8 23 8.44772 23 9V11L27 11C27.5523 11 28 11.4477 28 12C28 12.5523 27.5523 13 27 13L23 13V15C23 15.5523 22.5523 16 22 16C21.4477 16 21 15.5523 21 15V9C21 8.44772 21.4477 8 22 8ZM9 11L18 11C18.5523 11 19 11.4477 19 12C19 12.5523 18.5523 13 18 13L9 13C8.44772 13 8 12.5523 8 12C8 11.4477 8.44772 11 9 11ZM14 14C14.5523 14 15 14.4477 15 15V21C15 21.5523 14.5523 22 14 22C13.4477 22 13 21.5523 13 21V19H9C8.44772 19 8 18.5523 8 18C8 17.4477 8.44772 17 9 17H13V15C13 14.4477 13.4477 14 14 14ZM17 18C17 17.4477 17.4477 17 18 17H27C27.5523 17 28 17.4477 28 18C28 18.5523 27.5523 19 27 19H18C17.4477 19 17 18.5523 17 18ZM20 20C20.5523 20 21 20.4477 21 21V23H27C27.5523 23 28 23.4477 28 24C28 24.5523 27.5523 25 27 25H21V27C21 27.5523 20.5523 28 20 28C19.4477 28 19 27.5523 19 27V24.0014C19 24.0009 19 24.0005 19 24C19 23.9995 19 23.9991 19 23.9986V21C19 20.4477 19.4477 20 20 20ZM8 24C8 23.4477 8.44772 23 9 23H16C16.5523 23 17 23.4477 17 24C17 24.5523 16.5523 25 16 25H9C8.44772 25 8 24.5523 8 24Z" fill="white"/>
</svg>
