<svg width="161" height="160" viewBox="0 0 161 160" fill="none" xmlns="http://www.w3.org/2000/svg">
<g id="Frame" clip-path="url(#clip0_2238_10517)">
<path id="Vector 27" d="M35.5436 146.291C13.169 117.156 3.6841 68.7362 7.92439 29.607C9.38745 19.229 22.9442 13.099 28.1437 11.2821C42.577 6.2344 56.9372 7.55696 102.351 25.4738C147.765 43.3906 150.201 67.1726 145.743 76.8241C143.89 83.5711 131.638 104.485 97.4523 134.164C63.267 163.843 41.9359 154.615 35.5436 146.291Z" fill="#F4EDFB"/>
<path id="color_x5F_1" d="M105.034 109.515C105.329 111.454 105.981 115.263 106.633 119.072L108.233 128.628L62.0973 135.649L49.3827 52.1L95.5183 45.079L97.9035 60.7529C98.0755 61.8848 98.7867 64.9515 98.959 66.0837C86.8246 67.7744 61.8348 71.4647 58.9514 72.7004C55.3472 74.2451 54.5749 75.2749 55.6047 81.9684C56.6344 88.662 59.9812 108.485 59.9812 110.03C59.9812 111.575 61.2684 116.981 65.3876 116.466C68.6828 116.054 93.1916 111.66 105.034 109.515Z" fill="#A358E7"/>
<g id="Vector">
<path d="M99.8759 66.2799C99.8983 66.4268 99.7774 66.5097 99.6189 66.5387L98.9599 66.0838C98.7876 64.9516 98.0764 61.8849 97.9045 60.7529L95.5192 45.079L49.3836 52.1L62.0982 135.649L108.234 128.628L105.035 109.515L105.774 108.559L105.933 109.513L107.46 118.682L107.46 118.683L109.145 128.804C109.15 128.835 109.146 128.862 109.139 128.888C109.154 128.949 109.112 129.003 108.985 129.036C108.921 129.061 108.845 129.074 108.764 129.074L62.0135 136.189C61.7913 136.311 61.3577 136.247 61.2715 136.04C61.1783 135.962 61.1437 135.875 61.2302 135.815L48.4702 51.9667C48.3507 51.8621 48.3379 51.7439 48.5873 51.6959C48.6856 51.6397 48.8268 51.6213 48.9623 51.6364L95.6534 44.5309C95.9042 44.4484 96.3224 44.5357 96.3534 44.7394L98.1148 55.5106L99.8759 66.2799Z" fill="#340679"/>
<path fill-rule="evenodd" clip-rule="evenodd" d="M63.9564 87.2972L71.0954 86.1947C71.7168 86.0988 72.8409 84.9598 71.6509 85.1436L64.5119 86.2461C63.8911 86.342 62.7664 87.481 63.9564 87.2972ZM88.7622 82.5011L75.9042 84.4868C75.2828 84.5827 74.1587 85.7216 75.3487 85.5379L88.2066 83.5522C88.8275 83.4563 89.9521 82.3173 88.7622 82.5011ZM77.7638 88.4653L64.9058 90.4509C64.2844 90.5469 63.1603 91.6858 64.3502 91.502L77.2082 89.5164C77.829 89.4205 78.9537 88.2815 77.7638 88.4653Z" fill="#340679"/>
<path fill-rule="evenodd" clip-rule="evenodd" d="M119.239 95.1869L119.675 98.0147C119.678 98.0255 119.684 98.0334 119.686 98.0448C120.181 100.214 120.916 103.657 118.776 105.285C117.537 106.227 116.348 106.366 114.859 106.609C111.425 107.171 107.978 107.806 104.522 108.245C96.4158 109.794 88.1518 110.766 79.9985 112.012C79.7227 112.054 79.4476 112.096 79.1718 112.138C75.289 112.89 71.3295 113.375 67.4158 113.931C66.2206 114.101 64.7024 114.488 63.5938 113.773C61.3504 112.329 61.0374 109.721 60.8345 107.246C60.8339 107.238 60.836 107.231 60.8354 107.223L60.1701 102.915L59.981 101.687L57.0389 82.6348C57.0373 82.6288 57.0347 82.6242 57.0333 82.6188C56.3333 79.555 56.4736 77.0699 58.1278 75.5668L59.47 74.7226C60.0304 74.4735 60.6747 74.2792 61.4323 74.1572C65.8131 73.4502 70.1979 72.7687 74.583 72.0852C78.0965 71.537 81.6148 70.9345 85.1364 70.3495L86.8967 70.0577C91.0826 69.372 95.2745 68.729 99.4738 68.2513C102.669 67.7023 105.901 67.2912 109.103 66.8297C110.321 66.6546 111.999 66.1879 113.14 66.9223C115.368 68.3574 115.673 70.9314 115.875 73.3959L115.875 73.3991L119.055 93.9931L119.239 95.1869ZM114.964 75.2884L115.843 80.98L115.983 81.8932L118.507 98.2406C118.508 98.2482 118.508 98.2558 118.508 98.2633C118.509 98.2876 118.51 98.3118 118.516 98.3371L118.524 98.3712L118.525 98.3748C118.528 98.3899 118.532 98.4052 118.535 98.4195L118.662 99.2394C118.664 99.2548 118.669 99.2683 118.673 99.2815C118.676 99.2896 118.679 99.2977 118.681 99.3062L118.696 99.3987C118.702 99.4376 118.729 99.464 118.767 99.4843L118.768 99.4866C119.19 101.586 118.929 105.107 116.422 105.553C115.266 105.758 114.106 105.942 112.946 106.126C112.941 106.127 112.937 106.128 112.932 106.129C112.925 106.13 112.917 106.131 112.91 106.132C112.654 106.173 112.398 106.213 112.143 106.254C111.346 106.381 110.549 106.515 109.751 106.648L109.748 106.649L109.746 106.649C109.581 106.677 109.416 106.704 109.251 106.732C108.096 106.925 106.939 107.115 105.781 107.285C105.667 107.264 105.533 107.263 105.374 107.295C105.22 107.325 105.065 107.353 104.91 107.381L104.908 107.382L104.906 107.382C104.779 107.405 104.653 107.429 104.527 107.453C104.398 107.469 104.269 107.487 104.14 107.504C103.895 107.537 103.65 107.57 103.405 107.599C103.248 107.616 103.121 107.669 103.008 107.736C99.0134 108.453 94.9792 109.024 90.9516 109.594L90.9504 109.594C88.7095 109.911 86.4698 110.228 84.2409 110.569C83.2916 110.715 82.3421 110.859 81.3926 111.003C81.3868 111.004 81.381 111.005 81.3751 111.006L81.3733 111.006C80.7016 111.108 80.0299 111.21 79.3583 111.312L79.3504 111.313L79.3407 111.315C78.6483 111.421 77.956 111.526 77.2637 111.632C75.0484 111.971 72.8331 112.31 70.617 112.643L70.362 112.682L70.3587 112.682C69.0708 112.876 67.7829 113.07 66.4938 113.255C66.3359 113.278 66.1885 113.284 66.0439 113.284C65.5987 113.274 65.221 113.169 64.8897 113.001C63.5668 112.283 62.3435 109.809 62.1123 108.026C62.1307 107.96 62.14 107.89 62.129 107.819L62.0064 107.025L62.0055 107.017C62.0034 106.996 62.0012 106.974 61.9996 106.953C61.9978 106.93 61.9927 106.909 61.9875 106.889C61.9853 106.88 61.9831 106.871 61.9811 106.862L59.4776 90.6505L59.339 89.7452L58.4589 84.0457L58.3193 83.1419L58.1991 82.364C58.1966 82.3476 58.1984 82.3311 58.1946 82.3142C58.1911 82.2998 58.1872 82.2823 58.1843 82.2678L58.1432 82.0018C58.1386 81.972 58.1281 81.9481 58.1203 81.9219L58.0175 81.2566C58.0126 81.225 57.987 81.204 57.9516 81.1889C57.5365 79.0819 57.8061 75.5093 60.2718 75.0961C61.5656 74.8789 62.8617 74.6762 64.1573 74.4705C68.6246 73.7619 73.0939 73.0655 77.5631 72.3691L77.5672 72.3685L77.5754 72.3672C83.8398 71.3923 90.9537 70.0868 97.0547 69.2966C97.1384 69.2981 97.228 69.2929 97.3326 69.2724C97.407 69.2578 97.4819 69.2463 97.5564 69.2323C98.0759 69.1664 98.591 69.1043 99.0944 69.0471C99.2512 69.0291 99.4014 68.9685 99.5365 68.8829C101.508 68.5622 103.493 68.3048 105.463 68.0087C107.019 67.774 108.575 67.5407 110.134 67.3285C113.034 66.9337 114.395 70.5198 114.642 72.8616C114.624 72.9074 114.613 72.9528 114.62 72.999L114.676 73.36C114.676 73.3804 114.673 73.4009 114.676 73.4216L114.721 73.712C114.721 73.715 114.721 73.7181 114.721 73.7212C114.722 73.7248 114.723 73.7278 114.724 73.7314L114.823 74.3766L114.964 75.2884Z" fill="#340679"/>
<path fill-rule="evenodd" clip-rule="evenodd" d="M65.3193 96.1228L72.4583 95.0203C73.0797 94.9243 74.2038 93.7854 73.0139 93.9692L65.8749 95.0717C65.254 95.1676 64.1294 96.3066 65.3193 96.1228ZM79.3862 97.3168L66.5282 99.3025C65.9068 99.3985 64.7827 100.537 65.9727 100.354L78.8307 98.3679C79.4515 98.272 80.5761 97.133 79.3862 97.3168ZM79.6649 101.978L66.8069 103.964C66.1855 104.06 65.0614 105.199 66.2513 105.015L79.1093 103.029C79.7301 102.933 80.8548 101.794 79.6649 101.978Z" fill="#340679"/>
<path fill-rule="evenodd" clip-rule="evenodd" d="M95.7841 77.085L63.8586 82.0153C63.2371 82.1113 62.1479 83.476 63.3379 83.2923L95.2634 78.3619C95.8842 78.2661 96.974 76.9012 95.7841 77.085Z" fill="#340679"/>
<path fill-rule="evenodd" clip-rule="evenodd" d="M101.721 88.3747C99.7372 86.6342 100.029 84.2226 101.881 82.5155C101.962 82.4408 102.077 82.386 102.2 82.3501C104.032 81.3135 106.672 80.8048 108.241 82.5892C109.611 84.1478 109.457 86.3164 107.995 87.775C106.329 89.4357 103.634 90.0534 101.721 88.3747ZM107.163 83.2699C108.218 84.3278 108.194 85.9946 107.389 87.1735C104.875 90.8514 99.4059 86.1711 102.591 82.9518C104.114 82.0285 105.853 81.9576 107.163 83.2699Z" fill="#340679"/>
<path fill-rule="evenodd" clip-rule="evenodd" d="M115.843 80.98L114.964 75.2884L114.823 74.3766L114.724 73.7314C114.723 73.7278 114.722 73.7248 114.721 73.7212C114.721 73.7181 114.721 73.715 114.721 73.712L114.676 73.4216C114.673 73.4009 114.676 73.3804 114.676 73.36L114.62 72.999C114.613 72.9528 114.624 72.9074 114.642 72.8616C114.395 70.5198 113.034 66.9337 110.134 67.3285C108.575 67.5407 107.019 67.774 105.463 68.0087C103.493 68.3048 101.508 68.5622 99.5365 68.8829C99.4014 68.9685 99.2512 69.0291 99.0944 69.0471C98.591 69.1043 98.0759 69.1664 97.5564 69.2323C97.4819 69.2463 97.407 69.2578 97.3326 69.2724C97.228 69.2929 97.1384 69.2981 97.0547 69.2966C90.9537 70.0868 83.8398 71.3923 77.5754 72.3672L77.5672 72.3685L77.5631 72.3691C73.0939 73.0655 68.6246 73.7619 64.1573 74.4705C62.8617 74.6762 61.5656 74.8789 60.2718 75.0961C57.8061 75.5093 57.5365 79.0819 57.9516 81.1889C57.987 81.204 58.0126 81.225 58.0175 81.2566L58.1203 81.9219C58.1281 81.9481 58.1386 81.972 58.1432 82.0018L58.1843 82.2678C58.1872 82.2823 58.1911 82.2998 58.1946 82.3142C58.1984 82.3311 58.1966 82.3476 58.1991 82.364L58.3193 83.1419L58.4589 84.0457L59.339 89.7452L59.4776 90.6505L61.9811 106.862C61.9831 106.871 61.9853 106.88 61.9875 106.889C61.9927 106.909 61.9978 106.93 61.9996 106.953C62.0012 106.974 62.0034 106.996 62.0055 107.017L62.0064 107.025L62.129 107.819C62.14 107.89 62.1307 107.96 62.1123 108.026C62.3435 109.809 63.5668 112.283 64.8897 113.001C65.221 113.169 65.5987 113.274 66.0439 113.284C66.1885 113.284 66.3359 113.278 66.4938 113.255C67.7829 113.07 69.0708 112.876 70.3587 112.682L70.362 112.682L70.617 112.643C72.8331 112.31 75.0484 111.971 77.2637 111.632C77.956 111.526 78.6483 111.421 79.3407 111.315L79.3504 111.313L79.3583 111.312C80.0299 111.21 80.7016 111.108 81.3733 111.006L81.3751 111.006L81.3926 111.003C82.3421 110.859 83.2916 110.715 84.2409 110.569C86.4698 110.228 88.7095 109.911 90.9504 109.594L90.9516 109.594C94.9792 109.024 99.0134 108.453 103.008 107.736C103.121 107.669 103.248 107.616 103.405 107.599C103.65 107.57 103.895 107.537 104.14 107.504C104.269 107.487 104.398 107.469 104.527 107.453C104.653 107.429 104.779 107.405 104.906 107.382L104.908 107.382L104.91 107.381C105.065 107.353 105.22 107.325 105.374 107.295C105.533 107.263 105.667 107.264 105.781 107.285C106.939 107.115 108.096 106.925 109.251 106.732L109.746 106.649L109.748 106.649L109.751 106.648C110.549 106.515 111.346 106.381 112.143 106.254C112.398 106.213 112.654 106.173 112.91 106.132L112.932 106.129L112.946 106.126C114.106 105.942 115.266 105.758 116.422 105.553C118.929 105.107 119.19 101.586 118.768 99.4866L118.767 99.4843C118.729 99.464 118.702 99.4376 118.696 99.3987L118.681 99.3062C118.679 99.2977 118.676 99.2896 118.673 99.2815C118.669 99.2683 118.664 99.2548 118.662 99.2394L118.535 98.4195L118.525 98.3748L118.524 98.3712L118.516 98.3371C118.51 98.3118 118.509 98.2876 118.508 98.2633C118.508 98.2558 118.508 98.2482 118.507 98.2406L115.983 81.8932L115.843 80.98ZM71.0954 86.1947L63.9564 87.2972C62.7664 87.481 63.8911 86.342 64.5119 86.2461L71.6509 85.1436C72.8409 84.9598 71.7168 86.0988 71.0954 86.1947ZM75.9042 84.4868L88.7622 82.5011C89.9521 82.3173 88.8275 83.4563 88.2066 83.5522L75.3487 85.5379C74.1587 85.7216 75.2828 84.5827 75.9042 84.4868ZM64.9058 90.4509L77.7638 88.4653C78.9537 88.2815 77.829 89.4205 77.2082 89.5164L64.3502 91.502C63.1603 91.6858 64.2844 90.5469 64.9058 90.4509ZM73.0139 93.9692C74.2038 93.7854 73.0797 94.9243 72.4583 95.0203L65.3193 96.1228C64.1294 96.3066 65.254 95.1676 65.8749 95.0717L73.0139 93.9692ZM65.9727 100.354C64.7827 100.537 65.9068 99.3985 66.5282 99.3025L79.3862 97.3168C80.5761 97.133 79.4515 98.272 78.8307 98.3679L65.9727 100.354ZM66.2513 105.015C65.0614 105.199 66.1855 104.06 66.8069 103.964L79.6649 101.978C80.8548 101.794 79.7301 102.933 79.1093 103.029L66.2513 105.015ZM63.3379 83.2923C62.1479 83.476 63.2371 82.1113 63.8586 82.0153L95.7841 77.085C96.974 76.9012 95.8842 78.2661 95.2634 78.3619L63.3379 83.2923ZM98.3187 94.1702C98.4751 94.3092 98.6343 94.4408 98.7949 94.5668L99.5071 95.0686C103.538 97.6705 108.559 96.53 111.956 93.3775C112.317 93.3121 112.706 93.0007 112.635 92.6963C112.948 92.3578 113.245 92.0027 113.52 91.6291C116.146 88.0563 115.377 83.2641 112.127 80.4082C108.373 77.1091 102.978 78.2792 99.0651 80.5942C98.8602 80.6559 98.6635 80.7383 98.5908 80.8046C94.3306 84.6765 93.8635 90.2193 98.3187 94.1702Z" fill="#FEFDFF"/>
<path fill-rule="evenodd" clip-rule="evenodd" d="M99.5614 93.6471C100.027 92.9414 100.591 92.3118 101.234 91.7464C101.355 91.6399 101.517 91.5505 101.687 91.5056C105.118 89.579 109.367 89.1239 112.227 92.1807C112.731 91.5022 113.139 90.759 113.414 89.9673C114.503 86.8184 113.694 83.1593 111.022 81.0262C107.446 78.1713 102.995 78.7132 99.2593 81.0234C99.2523 81.0278 99.2448 81.0317 99.2373 81.0355L99.2263 81.0414L99.221 81.0443C95.985 84.2397 95.0915 88.9835 98.4179 92.5711C98.7693 92.9499 99.1531 93.3105 99.5614 93.6471ZM101.881 82.5155C100.029 84.2226 99.7372 86.6342 101.721 88.3747C103.634 90.0534 106.329 89.4357 107.995 87.775C109.457 86.3164 109.611 84.1478 108.241 82.5892C106.672 80.8048 104.032 81.3135 102.2 82.3501C102.077 82.386 101.962 82.4408 101.881 82.5155Z" fill="#FEFDFF"/>
<path d="M111.396 93.1474C108.877 90.2119 105.103 90.4268 101.95 92.3322C101.901 92.3613 101.852 92.3831 101.801 92.401C101.231 92.9438 100.73 93.5491 100.356 94.245C101.738 95.1933 103.343 95.8324 105.012 95.8782C107.351 95.942 109.709 94.859 111.396 93.1474Z" fill="#FEFDFF"/>
<path fill-rule="evenodd" clip-rule="evenodd" d="M101.881 82.5155C100.029 84.2226 99.7372 86.6342 101.721 88.3747C103.634 90.0534 106.329 89.4357 107.995 87.775C109.457 86.3164 109.611 84.1478 108.241 82.5892C106.672 80.8048 104.032 81.3135 102.2 82.3501C102.077 82.386 101.962 82.4408 101.881 82.5155ZM107.163 83.2699C108.218 84.3278 108.194 85.9946 107.389 87.1735C104.875 90.8514 99.4059 86.1711 102.591 82.9518C104.114 82.0285 105.853 81.9576 107.163 83.2699Z" fill="#340679"/>
<path fill-rule="evenodd" clip-rule="evenodd" d="M98.7949 94.5668C98.6343 94.4408 98.4751 94.3092 98.3187 94.1702C93.8635 90.2193 94.3306 84.6765 98.5908 80.8046C98.6635 80.7383 98.8602 80.6559 99.0651 80.5942C102.978 78.2792 108.373 77.1091 112.127 80.4082C115.377 83.2641 116.146 88.0563 113.52 91.6291C113.245 92.0027 112.948 92.3578 112.635 92.6963C112.706 93.0007 112.317 93.3121 111.956 93.3775C108.559 96.53 103.538 97.6705 99.5071 95.0686L98.7949 94.5668ZM101.95 92.3322C105.103 90.4268 108.877 90.2119 111.396 93.1474C109.709 94.859 107.351 95.942 105.012 95.8782C103.343 95.8324 101.738 95.1933 100.356 94.245C100.73 93.5491 101.231 92.9438 101.801 92.401C101.852 92.3831 101.901 92.3613 101.95 92.3322ZM101.234 91.7464C100.591 92.3118 100.027 92.9414 99.5614 93.6471C99.1531 93.3105 98.7693 92.9499 98.4179 92.5711C95.0915 88.9835 95.985 84.2397 99.221 81.0443L99.2263 81.0414L99.2373 81.0355C99.2448 81.0317 99.2523 81.0278 99.2593 81.0234C102.995 78.7132 107.446 78.1713 111.022 81.0262C113.694 83.1593 114.503 86.8184 113.414 89.9673C113.139 90.759 112.731 91.5022 112.227 92.1807C109.367 89.1239 105.118 89.579 101.687 91.5056C101.517 91.5505 101.355 91.6399 101.234 91.7464Z" fill="#340679"/>
<path d="M107.389 87.1735C108.194 85.9946 108.218 84.3278 107.163 83.2699C105.853 81.9576 104.114 82.0285 102.591 82.9518C99.4059 86.1711 104.875 90.8514 107.389 87.1735Z" fill="#FEFDFF"/>
<path d="M98.1148 55.5106C98.7468 59.2616 99.3787 63.0124 99.8759 66.2799L102.959 65.7495L101.403 55.6402C100.885 52.2946 100.367 48.9489 99.8464 45.531C99.8341 45.45 99.867 45.3894 99.9239 45.3456C99.793 45.2928 99.691 45.2044 99.6777 45.083C99.2742 41.4715 98.1453 36.8128 93.5509 37.6605C93.5122 37.6676 93.4712 37.6671 93.4289 37.6641L48.0564 44.5689C48.0043 44.6001 47.936 44.6254 47.8439 44.6364C42.47 45.324 43.8241 51.662 44.3979 55.4851C44.3987 55.4905 44.3977 55.4934 44.3981 55.4982L56.107 132.439C56.108 132.443 56.1099 132.446 56.1106 132.451C56.1415 132.652 56.1727 132.863 56.2043 133.079L56.214 133.142L56.2138 133.145L56.234 133.283C56.7862 137.063 57.5938 142.592 62.453 141.734C62.5132 141.723 62.5773 141.727 62.6413 141.74L108.286 134.794C108.329 134.778 108.379 134.765 108.44 134.758C113.213 134.184 113.012 129.36 112.295 125.652C112.289 125.621 112.29 125.595 112.294 125.57C112.252 125.544 112.223 125.512 112.217 125.473L110.83 117.202C110.315 114.239 109.8 111.276 109.444 108.931L105.933 109.513L107.46 118.682L107.46 118.683C108.141 122.68 108.821 126.677 109.145 128.804C109.15 128.835 109.146 128.862 109.139 128.888C109.154 128.949 109.112 129.003 108.985 129.036C108.921 129.061 108.845 129.074 108.764 129.074L62.0135 136.189C61.7913 136.311 61.3577 136.247 61.2715 136.04C61.1783 135.962 61.1437 135.875 61.2302 135.815L48.4702 51.9667C48.3507 51.8621 48.3379 51.7439 48.5873 51.6959C48.6856 51.6397 48.8268 51.6213 48.9623 51.6364L95.6534 44.5309C95.9042 44.4484 96.3224 44.5357 96.3534 44.7394L98.1148 55.5106Z" fill="#FEFDFF"/>
<path fill-rule="evenodd" clip-rule="evenodd" d="M53.9541 141.413C55.2936 142.979 57.1259 143.204 59.0706 142.861L62.853 142.285C62.9308 142.271 62.9863 142.25 63.0263 142.224L108.523 135.3C108.555 135.302 108.588 135.301 108.623 135.297C110.367 135.088 112.197 134.427 112.982 132.712C114 130.491 113.629 127.922 113.181 125.604C113.171 125.556 113.143 125.515 113.105 125.48L111.644 116.725C111.105 113.601 110.565 110.477 110.184 107.97L109.444 108.931L110.83 117.202C111.345 120.165 111.86 123.128 112.217 125.473C112.223 125.512 112.252 125.544 112.294 125.57C112.29 125.595 112.289 125.621 112.295 125.652C113.012 129.36 113.213 134.184 108.44 134.758C108.379 134.765 108.329 134.778 108.286 134.794L62.6413 141.74C62.5773 141.727 62.5132 141.723 62.453 141.734C57.5938 142.592 56.7862 137.063 56.234 133.283L56.2138 133.145L56.214 133.142L56.2043 133.079C56.1727 132.863 56.1415 132.652 56.1106 132.451C56.1099 132.446 56.108 132.443 56.107 132.439L44.3981 55.4982C44.3977 55.4934 44.3987 55.4905 44.3979 55.4851C43.8241 51.662 42.47 45.324 47.8439 44.6364C47.936 44.6254 48.0043 44.6001 48.0564 44.5689L93.4289 37.6641C93.4712 37.6671 93.5122 37.6676 93.5509 37.6605C98.1453 36.8128 99.2742 41.4715 99.6777 45.083C99.691 45.2044 99.793 45.2928 99.9239 45.3456C99.867 45.3894 99.8341 45.45 99.8464 45.531L101.403 55.6402C101.921 58.9859 102.439 62.3316 102.959 65.7495C103.005 66.0512 103.9 66.0987 103.842 65.7185L102.285 55.6092L102.285 55.6056C101.767 52.2611 101.249 48.9166 100.729 45.4999C100.716 45.416 100.637 45.3529 100.531 45.3116C100.564 45.2778 100.584 45.2354 100.578 45.1822C100.317 42.8406 99.9291 39.8596 98.0388 38.1931C96.653 36.9715 94.9035 36.8243 93.1481 37.1483C93.1027 37.157 93.0667 37.1677 93.0347 37.1805L47.8495 44.0568C47.793 44.0452 47.7321 44.0407 47.6668 44.0495C47.1558 44.1147 46.655 44.2196 46.1819 44.3732C46.0975 44.3292 45.992 44.3065 45.8749 44.3222C39.7795 45.1034 38.9923 50.9767 39.7291 56.1195C39.7298 56.1243 39.7321 56.1273 39.7332 56.132L51.4418 133.071C51.4423 133.077 51.4411 133.08 51.4418 133.085C51.852 135.73 52.1224 139.272 53.9541 141.413ZM52.4322 133.716L52.4323 133.719L52.4524 133.856C53.0045 137.635 53.8123 143.165 58.6722 142.308C58.9994 142.258 59.675 142.166 59.7601 142.192C59.0116 141.956 58.3263 141.526 57.7364 140.837C55.9053 138.696 55.6352 135.154 55.2264 132.508C55.2256 132.502 55.2266 132.499 55.226 132.493L43.5173 55.5534C43.5164 55.5493 43.5144 55.5462 43.5137 55.542C43.1089 52.844 42.4892 49.7616 43.317 47.0848C43.5537 46.3212 43.9628 45.7349 44.4859 45.2865C40.3456 46.8177 40.0283 51.9549 40.6165 56.0593C40.6172 56.0641 40.6159 56.0677 40.6163 56.0719L52.3253 133.013C52.3262 133.018 52.3285 133.021 52.3292 133.025C52.3601 133.226 52.3912 133.437 52.4226 133.653L52.4322 133.716Z" fill="#340679"/>
<path d="M52.4323 133.719L52.4322 133.716L52.4226 133.653C52.3912 133.437 52.3601 133.226 52.3292 133.025C52.3285 133.021 52.3262 133.018 52.3253 133.013L40.6163 56.0719C40.6159 56.0677 40.6172 56.0641 40.6165 56.0593C40.0283 51.9549 40.3456 46.8177 44.4859 45.2865C43.9628 45.7349 43.5537 46.3212 43.317 47.0848C42.4892 49.7616 43.1089 52.844 43.5137 55.542C43.5144 55.5462 43.5164 55.5493 43.5173 55.5534L55.226 132.493C55.2266 132.499 55.2256 132.502 55.2264 132.508C55.6352 135.154 55.9053 138.696 57.7364 140.837C58.3263 141.526 59.0116 141.956 59.7601 142.192C59.675 142.166 58.9994 142.258 58.6722 142.308C53.8123 143.165 53.0045 137.635 52.4524 133.856L52.4323 133.719Z" fill="#FEFDFF"/>
</g>
</g>
<defs>
<clipPath id="clip0_2238_10517">
<rect width="160" height="160" fill="white" transform="translate(0.5)"/>
</clipPath>
</defs>
</svg>
