<svg width="60" height="60" viewBox="0 0 60 60" fill="none" xmlns="http://www.w3.org/2000/svg">
    <g clip-path="url(#clip0)">
        <path d="M54.4227 4.81079H5.5773C2.50204 4.81079 0 7.31283 0 10.3881V40.9165C0 43.9917 2.50204 46.4938 5.5773 46.4938H11.8591V55.1892L31.3617 46.4938H54.4227C57.498 46.4938 60 43.9917 60 40.9165V10.3881C60 7.31283 57.498 4.81079 54.4227 4.81079ZM58.2387 40.9165C58.2387 43.0207 56.5269 44.7325 54.4227 44.7325H30.9867L13.6204 52.4756V44.7326H5.5773C3.47319 44.7326 1.76125 43.0208 1.76125 40.9166V10.3882C1.76125 8.28398 3.47319 6.57216 5.5773 6.57216H54.4227C56.5269 6.57216 58.2387 8.28398 58.2387 10.3882V40.9165ZM38.454 11.0339C35.5206 11.0339 32.9288 12.5254 31.3975 14.7898C30.6955 14.3504 29.9527 13.9962 29.1793 13.7309C29.3703 13.2714 29.4716 12.7753 29.4716 12.2668C29.4716 10.1625 27.7597 8.45071 25.6556 8.45071C23.5515 8.45071 21.8395 10.1625 21.8395 12.2668C21.8395 12.7765 21.9413 13.2736 22.1332 13.734C17.868 15.2003 14.7945 19.252 14.7945 24.0084V28.8812C14.7945 29.6383 14.5443 30.389 14.09 30.9947C13.4085 31.9034 13.0333 33.0292 13.0333 34.165V37.1004H18.9784C19.4623 40.3516 22.272 42.8538 25.6556 42.8538C29.0392 42.8538 31.8488 40.3516 32.3327 37.1004H38.2779V34.165C38.2779 33.0292 37.9026 31.9034 37.2211 30.9947C36.7668 30.389 36.5166 29.6383 36.5166 28.8812V27.8342C37.1395 27.9798 37.7874 28.0593 38.454 28.0593C43.148 28.0593 46.9667 24.2406 46.9667 19.5466C46.9667 14.8526 43.148 11.0339 38.454 11.0339ZM25.6556 10.212C26.7885 10.212 27.7104 11.1338 27.7104 12.2668C27.7104 12.6306 27.613 12.9821 27.4344 13.2916C26.8518 13.1961 26.2576 13.1474 25.6556 13.1474C25.0502 13.1474 24.4565 13.198 23.8779 13.2937C23.6985 12.9837 23.6008 12.6315 23.6008 12.2668C23.6008 11.1338 24.5226 10.212 25.6556 10.212ZM25.6556 41.0926C23.2457 41.0926 21.2294 39.3754 20.7658 37.1004H30.5454C30.0817 39.3755 28.0654 41.0926 25.6556 41.0926ZM36.5166 35.3392H14.7945V34.165C14.7945 33.4079 15.0447 32.6572 15.499 32.0515C16.1805 31.1428 16.5558 30.017 16.5558 28.8812V24.0084C16.5558 18.9909 20.638 14.9086 25.6556 14.9086C27.4187 14.9086 29.1026 15.4047 30.5671 16.3483C30.165 17.3365 29.9413 18.4156 29.9413 19.5466C29.9413 22.9159 31.909 25.8339 34.7554 27.2129V28.8812C34.7554 30.017 35.1306 31.1428 35.8121 32.0515C36.2664 32.6572 36.5166 33.4079 36.5166 34.165V35.3392ZM38.454 26.2981C34.7312 26.2981 31.7025 23.2694 31.7025 19.5466C31.7025 15.8238 34.7312 12.7951 38.454 12.7951C42.1768 12.7951 45.2055 15.8238 45.2055 19.5466C45.2055 23.2694 42.1768 26.2981 38.454 26.2981Z" fill="url(#paint0_linear)"/>
        <path d="M41.7395 19.626C41.7395 20.39 41.6575 21.052 41.4935 21.612C41.3295 22.172 41.1015 22.636 40.8095 23.004C40.5215 23.372 40.1775 23.646 39.7775 23.826C39.3815 24.006 38.9515 24.096 38.4875 24.096C38.0235 24.096 37.5935 24.006 37.1975 23.826C36.8055 23.646 36.4655 23.372 36.1775 23.004C35.8895 22.636 35.6635 22.172 35.4995 21.612C35.3395 21.052 35.2595 20.39 35.2595 19.626C35.2595 18.862 35.3395 18.2 35.4995 17.64C35.6635 17.08 35.8895 16.616 36.1775 16.248C36.4655 15.88 36.8055 15.608 37.1975 15.432C37.5935 15.252 38.0235 15.162 38.4875 15.162C38.9515 15.162 39.3815 15.252 39.7775 15.432C40.1775 15.608 40.5215 15.88 40.8095 16.248C41.1015 16.616 41.3295 17.08 41.4935 17.64C41.6575 18.2 41.7395 18.862 41.7395 19.626ZM39.8195 19.626C39.8195 19.022 39.7815 18.528 39.7055 18.144C39.6295 17.756 39.5275 17.452 39.3995 17.232C39.2755 17.012 39.1335 16.862 38.9735 16.782C38.8135 16.698 38.6515 16.656 38.4875 16.656C38.3235 16.656 38.1615 16.698 38.0015 16.782C37.8455 16.862 37.7055 17.012 37.5815 17.232C37.4615 17.452 37.3635 17.756 37.2875 18.144C37.2155 18.528 37.1795 19.022 37.1795 19.626C37.1795 20.234 37.2155 20.73 37.2875 21.114C37.3635 21.498 37.4615 21.802 37.5815 22.026C37.7055 22.246 37.8455 22.398 38.0015 22.482C38.1615 22.562 38.3235 22.602 38.4875 22.602C38.6515 22.602 38.8135 22.562 38.9735 22.482C39.1335 22.398 39.2755 22.246 39.3995 22.026C39.5275 21.802 39.6295 21.498 39.7055 21.114C39.7815 20.73 39.8195 20.234 39.8195 19.626Z" fill="url(#paint0_linear)"/>
    </g>
    <defs>
        <linearGradient id="paint0_linear" x1="30" y1="4.81079" x2="30" y2="55.1892" gradientUnits="userSpaceOnUse">
            <stop offset="1.1981e-07" stop-color="#960C76"/>
            <stop offset="1" stop-color="#81077F"/>
        </linearGradient>
        <clipPath id="clip0">
            <rect width="60" height="60"/>
        </clipPath>
    </defs>
</svg>
