<svg width="25" height="25" viewBox="0 0 25 25" fill="none" xmlns="http://www.w3.org/2000/svg">
    <g clip-path="url(#clip0_1_1102)">
        <path d="M10.4 4.25074C11.0883 4.08962 11.7931 4.00908 12.5 4.01074C19.5 4.01074 23.5 12.0107 23.5 12.0107C22.893 13.1463 22.1691 14.2155 21.34 15.2007M14.62 14.1307C14.3454 14.4255 14.0141 14.6619 13.6462 14.8259C13.2782 14.9898 12.8809 15.078 12.4781 15.0851C12.0753 15.0922 11.6752 15.0181 11.3016 14.8672C10.9281 14.7163 10.5887 14.4918 10.3038 14.2069C10.019 13.922 9.79439 13.5827 9.64351 13.2091C9.49262 12.8356 9.41853 12.4355 9.42563 12.0326C9.43274 11.6298 9.52091 11.2326 9.68488 10.8646C9.84884 10.4966 10.0853 10.1654 10.38 9.89074M18.44 17.9507C16.7306 19.2537 14.6491 19.9756 12.5 20.0107C5.5 20.0107 1.5 12.0107 1.5 12.0107C2.74389 9.69263 4.46914 7.66734 6.56 6.07074L18.44 17.9507Z" stroke="#C1C1C1" stroke-width="2" stroke-linecap="round" stroke-linejoin="round" />
        <path d="M1.5 1.01074L23.5 23.0107" stroke="#C1C1C1" stroke-width="2" stroke-linecap="round" stroke-linejoin="round" />
    </g>
    <defs>
        <clipPath id="clip0_1_1102">
            <rect width="24" height="24" fill="white" transform="translate(0.5 0.0107422)" />
        </clipPath>
    </defs>
</svg>
    