<svg width="161" height="160" viewBox="0 0 161 160" fill="none" xmlns="http://www.w3.org/2000/svg">
<g clip-path="url(#clip0_1813_9660)">
<path d="M35.5436 146.291C13.169 117.156 3.6841 68.736 7.92439 29.6067C9.38745 19.2288 22.9442 13.0988 28.1437 11.2819C42.577 6.23415 56.9372 7.55672 102.351 25.4735C147.765 43.3904 150.201 67.1724 145.743 76.8238C143.89 83.5708 131.638 104.485 97.4523 134.164C63.267 163.843 41.9359 154.615 35.5436 146.291Z" fill="#F4EDFB"/>
<path d="M45.261 60.9536C45.4239 61.0286 44.9821 61.2231 44.9555 61.2322C44.7716 61.298 44.4941 61.3835 44.3032 61.2952C43.764 61.0468 43.0952 60.5571 43.1968 59.8686C43.2878 59.2513 43.702 58.847 44.1935 58.5009C44.3834 58.3667 44.6826 58.3029 44.9114 58.3082C45.1149 58.3134 45.1181 58.4136 44.9681 58.5194C44.5431 58.819 44.08 59.3463 44.2289 59.9149C44.3676 60.4418 44.788 60.7354 45.261 60.9536ZM63.7848 54.2207C64.1751 55.0794 64.571 55.9398 64.7938 56.8598C65.1081 58.1551 64.6495 58.9486 63.2127 58.9038C62.9952 58.8968 62.0506 59.3074 62.5558 59.3231C63.6934 59.3589 65.3887 59.2282 65.8298 57.9505C66.2628 56.6966 65.2987 55.0465 64.7998 53.9488C64.6849 53.6959 63.7025 54.0392 63.7848 54.2207ZM61.6554 63.9859C60.0631 63.9645 58.221 63.5378 57.7603 61.7934C57.6405 61.3397 56.6252 61.6112 56.7453 62.0649C57.2772 64.0787 59.4416 64.6743 61.2977 64.6996C61.769 64.7055 62.3421 63.995 61.6554 63.9859ZM58.7658 55.7587C58.7658 54.8201 58.7658 53.8819 58.7658 52.943C58.7658 52.6701 57.7508 52.8494 57.7508 53.2152C57.7508 54.1538 57.7508 55.092 57.7508 56.0309C57.7508 56.3042 58.7658 56.1245 58.7658 55.7587ZM68.0202 51.8163C68.0202 51.3563 67.0007 51.5602 67.001 51.9284C67.0014 52.6925 66.979 53.4825 67.2042 54.2203C67.3233 54.6113 68.3358 54.3307 68.2192 53.9488C68.009 53.2593 68.0202 52.5303 68.0202 51.8163ZM56.7555 47.295C55.8099 47.5322 54.933 47.8178 54.212 48.5002C54.0333 48.6691 54.1405 48.9259 54.3458 48.9998C54.6061 49.0941 54.8738 48.9872 55.0637 48.8075C55.5745 48.3244 56.2846 48.1674 56.945 48.0017C57.5771 47.8433 57.3847 47.1377 56.7555 47.295ZM68.3061 47.362C67.6565 46.9415 66.9422 46.7002 66.197 46.5106C65.9482 46.4476 65.6557 46.504 65.4791 46.703C65.3327 46.8683 65.3744 47.1178 65.606 47.1766C66.2828 47.3483 66.9299 47.5529 67.5199 47.9348C67.8818 48.1692 68.7815 47.6699 68.3061 47.362ZM107.257 95.1474C107.095 94.7848 107.092 94.3234 107.395 94.0302C107.922 93.5197 108.693 93.5895 109.349 93.7499C109.586 93.8077 109.623 94.0729 109.48 94.239C109.303 94.4457 109.015 94.493 108.762 94.4313C108.748 94.4278 108.746 94.4275 108.739 94.4254C108.715 94.4205 108.691 94.4159 108.667 94.411C108.628 94.4037 108.589 94.3967 108.549 94.3911C108.478 94.3809 108.406 94.3718 108.335 94.3686C108.333 94.3686 108.333 94.3686 108.332 94.3686C108.304 94.3693 108.276 94.37 108.249 94.3721C108.238 94.3732 108.227 94.3746 108.216 94.3756C108.207 94.3861 108.199 94.3935 108.198 94.3883C108.194 94.3963 108.189 94.4044 108.186 94.4131C108.182 94.4306 108.179 94.4482 108.178 94.4657C108.175 94.4912 108.176 94.5168 108.176 94.5431C108.179 94.5662 108.183 94.6016 108.186 94.616C108.195 94.6563 108.205 94.6962 108.218 94.7354C108.232 94.7757 108.246 94.816 108.263 94.8553C108.265 94.8584 108.267 94.8633 108.27 94.8679C108.277 94.8808 108.283 94.8941 108.291 94.9068C108.337 94.9866 108.388 95.0627 108.447 95.1334C108.481 95.1744 108.517 95.2151 108.555 95.2529C108.571 95.2669 108.587 95.2813 108.604 95.2942C108.668 95.3457 108.738 95.3916 108.81 95.4316C108.834 95.4421 108.863 95.4551 108.877 95.46C108.893 95.4656 108.91 95.4708 108.927 95.4757C108.947 95.4792 108.967 95.4806 108.987 95.4827C108.993 95.4824 108.999 95.482 109.005 95.482C109.013 95.4782 109.021 95.4747 109.028 95.4708C109.051 95.4526 109.093 95.4158 109.108 95.4032C109.138 95.3717 109.168 95.3405 109.195 95.3065C109.209 95.2879 109.223 95.269 109.237 95.2497C109.247 95.2336 109.263 95.2088 109.267 95.2021C109.305 95.1362 109.342 95.0683 109.374 94.9989C109.443 94.8479 109.503 94.6906 109.547 94.5326C109.619 94.2814 109.853 94.143 110.107 94.1234C110.274 94.1108 110.647 94.2029 110.575 94.4538C110.426 94.9807 110.218 95.4908 109.795 95.8573C108.922 96.6133 107.689 96.113 107.257 95.1474ZM108.225 94.3721C108.259 94.3655 108.297 94.3606 108.225 94.3721V94.3721ZM89.942 94.3438C91.1245 94.3585 92.2869 94.5466 93.4508 94.7403C93.7268 94.7862 94.6402 94.3378 94.0877 94.2457C92.8489 94.0396 91.6136 93.8533 90.3555 93.8375C90.0205 93.8333 89.2592 94.3353 89.942 94.3438ZM117.432 97.5088C117.189 97.5088 116.922 97.5736 116.714 97.7011C116.553 97.7992 116.575 97.9131 116.771 97.9131C117.977 97.9131 119.184 97.9131 120.391 97.9131C120.634 97.9131 120.901 97.8483 121.109 97.7207C121.269 97.6227 121.248 97.5088 121.052 97.5088C119.845 97.5088 118.639 97.5088 117.432 97.5088ZM96.8824 86.9854C96.9844 87.4374 98.0011 87.1722 97.8974 86.7139C97.6658 85.687 97.0684 84.8445 96.4476 84.0159C96.1828 83.662 95.2123 84.0495 95.5161 84.4545C96.1022 85.2372 96.6631 86.0153 96.8824 86.9854ZM123.841 90.9069C122.484 91.3077 121.159 91.8626 119.756 92.0907C119.189 92.1828 118.991 92.9841 119.676 92.8726C121.179 92.6285 122.584 92.0725 124.038 91.6429C124.662 91.459 124.47 90.7212 123.841 90.9069ZM109.718 135.003C106.675 136.346 103.294 137.597 99.9055 137.315C96.1999 137.006 93.3099 134.972 90.8985 132.259C89.1047 134.108 87.2815 135.929 85.4376 137.725C85.315 137.844 85.1924 137.964 85.0701 138.083C85.047 138.105 85.0239 138.128 85.0008 138.15C85.1248 140.629 85.863 142.966 86.5917 145.31C87.1347 147.057 87.6693 148.809 87.9307 150.629C87.9391 150.687 87.9206 150.741 87.8866 150.792C87.9503 150.862 87.9689 150.963 87.9097 151.096C85.9541 155.513 82.6268 159.114 77.8075 160.286C73.5409 161.324 69.1343 160.803 64.8513 160.145C62.8067 159.831 60.7638 159.444 58.6989 159.395C58.145 159.381 57.5897 159.387 57.0323 159.431C56.2556 159.492 55.4813 159.584 54.7077 159.688C52.1978 160.025 49.6992 160.502 47.17 160.593C44.6552 160.684 41.9912 160.482 39.8867 158.953C38.6076 158.024 37.5103 156.978 36.2904 156.073C35.7393 155.665 35.1602 155.288 34.5302 154.962C34.2822 154.834 34.0293 154.709 33.763 154.599C33.5325 154.505 33.482 154.292 33.6278 154.095C34.786 152.526 35.8475 150.885 36.8015 149.184C37.3922 148.13 37.9402 147.054 38.4429 145.956C39.392 143.884 40.181 141.74 40.7804 139.538C40.7864 139.516 40.7962 139.496 40.806 139.476C37.9167 132.441 36.6635 124.77 36.6309 117.177C36.6306 117.093 36.7045 117.02 36.8113 116.962C35.1118 116.211 33.6015 115.111 31.9223 114.123C31.7394 114.015 31.7902 113.804 31.8837 113.662C32.6198 112.542 33.2287 111.322 33.7539 110.034L33.7059 109.992C33.6828 109.988 33.6617 109.982 33.6432 109.973C30.1565 108.227 25.6136 108.034 22.5459 105.497C21.2097 104.392 20.4029 103.042 19.9933 101.576C19.5515 100.676 19.3539 99.7408 19.6209 98.8506C19.6335 98.8082 19.6468 98.7644 19.6598 98.7213C19.6962 97.1153 20.0637 95.4705 20.6229 93.9247C21.4837 91.5448 22.843 89.1275 23.2754 86.6204C23.6919 84.2033 23.1629 81.931 22.7985 79.5497C22.4703 77.4035 22.3161 75.1711 23.2183 73.1348C23.9526 71.4777 24.9924 70.0115 26.1573 68.6297C28.7439 65.5621 31.6476 62.718 32.6639 58.71C34.4861 51.5244 33.674 39.6312 39.6432 34.6556C40.0447 34.1756 40.4437 33.8218 40.8169 33.6862C40.9994 33.62 41.2008 33.5569 41.4156 33.4967C42.7805 32.811 44.4146 32.4067 46.3811 32.3615C47.513 31.3543 48.8184 30.7254 50.224 30.395C50.7275 30.1274 51.1398 29.961 51.3269 30.0079C51.5332 30.0594 51.9729 30.0664 52.5951 30.1074C57.2292 30.0016 62.4122 32.296 65.8515 34.4132C66.1718 34.6104 66.4752 34.815 66.7702 35.0245C67.4656 35.4229 68.0938 35.9225 68.6631 36.6245C70.3283 38.315 71.4382 40.3662 72.1227 42.9259C72.9755 46.1154 73.4211 49.9279 72.0856 53.0688C72.1084 53.7765 72.1129 54.4863 72.1052 55.1954C72.0737 58.1884 72.3599 61.4806 71.4679 64.3832C70.8075 66.5329 69.596 68.4665 67.6821 69.712C66.6178 70.4046 65.4511 70.9455 64.2217 71.2745C63.1325 71.5663 61.1387 71.7412 60.7053 73C60.1581 74.5902 60.4541 76.3868 60.9299 78.1126C61.1699 77.9332 61.4274 77.7794 61.694 77.6809C62.2114 77.4893 62.758 77.5005 63.2551 77.903C63.2618 77.9083 63.2688 77.9118 63.2754 77.9174C64.0676 78.5775 64.4666 79.5791 64.9011 80.5254C66.3932 80.565 67.9287 80.7149 69.3413 81.2082C69.8066 81.3711 70.2589 81.5687 70.6912 81.8147C71.5958 82.3297 72.369 82.9673 73.0858 83.6655C73.9785 84.5348 74.7826 85.4993 75.6216 86.4603C79.3322 90.7075 82.6545 95.3815 85.6787 100.137C85.7827 100.301 85.6762 100.456 85.5014 100.56C85.5312 100.595 85.5442 100.641 85.5266 100.701C84.5898 103.982 80.8232 107.471 77.2014 107.684C77.0034 112.871 77.5265 117.912 79.7302 122.75C80.2259 122.152 80.7108 121.545 81.1694 120.917C82.8598 118.602 84.5432 116.081 85.1938 113.248C85.6405 111.303 85.7228 109.353 85.8581 107.37C86.0182 105.027 86.6551 101.435 89.4165 100.728C91.1364 100.288 91.5382 103.08 91.7151 104.167C91.7758 104.538 91.8273 104.911 91.8756 105.284C94.9355 100.525 97.498 95.3527 100.929 90.8431C100.899 90.801 100.898 90.7429 100.94 90.6662C102.326 88.1468 104.979 87.4787 107.691 87.5194C110.398 87.56 113.403 87.4717 115.739 89.0822C118.729 91.144 117.3 94.0256 116.052 96.7979C114.937 99.2742 113.32 101.488 111.94 103.819C111.882 103.916 111.717 103.993 111.538 104.035C111.623 104.039 111.707 104.041 111.792 104.049C111.836 104.053 111.867 104.06 111.893 104.07C112.186 103.892 112.864 103.86 112.783 104.007C110.976 107.305 108.972 110.492 106.778 113.547C104.34 116.942 101.739 120.212 99.0209 123.382C102.004 128.004 109.123 121.317 111.571 119.113C115.213 115.833 118.752 112.205 121.656 108.242C123.156 106.194 124.497 103.364 126.656 101.936C128.05 101.015 130.288 101.011 129.678 103.158C129.314 104.439 128.673 105.609 128.263 106.871C127.989 107.714 127.772 108.571 127.575 109.431C130.029 106.856 134.188 103.165 136.098 105.762C136.261 105.984 136.353 106.223 136.39 106.472C136.969 106.526 138.776 107.394 139.04 107.785C139.594 108.605 139.088 109.977 138.568 110.977C140.07 111.965 140.003 113.383 139.223 114.853C139.466 114.726 139.83 114.672 139.985 114.823C141.654 116.436 138.824 119.313 137.739 120.393C135.384 122.74 132.613 124.799 129.581 126.204C127.309 127.467 124.93 128.544 122.521 129.535C118.221 131.305 113.971 133.126 109.718 135.003ZM61.1243 78.7849C61.3822 79.6425 61.6635 80.4725 61.8846 81.2401C62.0639 81.8627 62.3264 83.1481 61.1198 82.7126C60.2197 82.3875 59.1526 79.6891 58.0774 81.409C57.1703 82.8601 57.8703 84.2265 56.5996 84.8536C57.0491 84.9272 56.1371 85.2982 55.9189 85.2708C53.4906 84.9734 52.126 83.2823 51.3363 81.2394C51.1233 81.2769 50.9296 81.266 50.9121 81.1732C50.8024 80.5969 50.4535 79.9627 49.8243 79.8321C49.2994 79.7228 48.8212 80.3422 48.7119 80.8151C48.4898 81.7744 48.6919 82.7494 48.7091 83.7174C48.7126 83.9024 48.308 84.0327 48.0084 84.0593C47.9639 84.0986 47.9047 84.1357 47.8266 84.1676C46.3341 84.7811 45.0736 85.6282 43.9977 86.6445C43.3891 87.2198 42.8419 87.8497 42.343 88.521C40.1901 91.4194 38.981 95.1072 38.0386 98.6422C36.6884 103.707 35.7726 109.164 32.9369 113.665C35.1567 115.009 37.2538 116.792 39.9438 117.013C42.8026 117.248 45.0364 115.852 47.4885 114.709C47.4892 114.63 47.486 114.552 47.4881 114.473C47.4959 114.152 48.1058 113.976 48.3801 114.139C48.2663 113.545 48.4211 112.523 48.419 112.16C48.4078 110.339 48.3997 108.518 48.3665 106.698C48.3045 103.316 48.6222 99.3008 47.4927 96.058C47.3371 95.612 48.3486 95.3286 48.5077 95.7858C49.5755 98.8527 49.3159 102.681 49.3797 105.876C49.4175 107.77 49.4322 109.665 49.4434 111.559C49.4455 111.951 49.3201 113.461 49.4105 113.925C49.5019 113.973 49.552 114.057 49.5198 114.185C49.5079 114.233 49.5005 114.284 49.4746 114.326C49.3982 114.45 49.263 114.548 49.1134 114.6C49.1274 114.721 49.0517 114.85 48.8324 114.942C48.7263 114.986 48.6208 115.034 48.5154 115.08C48.5157 115.103 48.515 115.126 48.5154 115.149C48.5423 116.066 48.6559 116.966 48.8237 117.857C49.0065 118.83 49.2528 119.793 49.53 120.76C50.7015 124.847 52.0115 128.804 53.56 132.761C54.1591 134.292 54.8521 136.182 56.2608 137.17C56.6248 137.426 57.006 137.609 57.3977 137.735C57.8258 137.872 58.2669 137.937 58.7132 137.947C60.0736 137.979 61.4834 137.493 62.7233 136.899C66.0901 135.287 69.0239 132.711 71.8975 130.352C74.4186 128.284 76.8514 126.068 79.0042 123.611C78.9871 123.599 78.9727 123.586 78.9643 123.569C76.0831 117.611 75.8266 111.333 76.3777 104.858C76.5434 102.913 76.8489 100.896 76.1454 99.0202C75.0397 96.0713 73.0025 93.6406 71.6287 90.828C71.5576 90.6826 72.5295 90.3221 72.6437 90.5565C74.003 93.3393 76.2039 95.7746 77.1604 98.748C77.785 100.691 77.5622 102.581 77.3927 104.586C77.3215 105.423 77.2651 106.257 77.2248 107.088C79.0964 107.066 81.0226 105.854 82.4495 104.289C83.1551 103.515 83.7374 102.657 84.1316 101.813C84.2882 101.477 84.4164 101.144 84.5092 100.82C84.5376 100.72 84.6364 100.638 84.7611 100.579C84.7548 100.571 84.7468 100.565 84.7415 100.556C81.9433 96.1557 78.8823 91.8388 75.5183 87.8508C74.0094 86.0626 72.5372 83.9781 70.5203 82.72C68.882 81.698 67.1009 81.3231 65.2374 81.2054C65.2913 81.3063 65.3442 81.4086 65.4024 81.505C65.5446 81.7414 64.5791 82.096 64.3874 81.7772C64.2666 81.5768 64.1573 81.3708 64.0529 81.1616C64.0024 81.1609 63.9527 81.1599 63.9022 81.1592C63.4517 81.1546 63.5708 80.8778 63.8258 80.688C63.7968 80.6259 63.7663 80.5643 63.7372 80.5023C63.6864 80.3937 63.6349 80.2861 63.5834 80.1779C63.451 79.8993 63.315 79.6222 63.1602 79.3552C62.944 78.9825 62.6904 78.5564 62.3292 78.3014C61.8299 77.9482 61.4442 78.3715 61.1243 78.7849ZM48.5126 114.213C48.5101 114.214 48.508 114.214 48.5056 114.215C48.501 114.232 48.4968 114.248 48.4919 114.266C48.4968 114.247 48.5052 114.23 48.5126 114.213ZM54.9064 42.5156C56.3442 43.4815 58.2045 43.6763 60.1626 43.6627C58.8176 43.5554 57.8121 43.4948 57.6338 43.4948C57.35 43.4952 56.0468 42.9854 54.9064 42.5156ZM48.4807 56.9103L47.8893 56.7131C48.0137 56.7891 48.1359 56.8725 48.2565 56.9608C48.3346 56.9366 48.4113 56.9184 48.4807 56.9103ZM49.0682 79.6141C49.4371 79.4586 49.8295 79.3861 50.2047 79.4043C49.8074 79.103 49.3825 79.0287 49.0682 79.6141ZM47.512 83.5009C47.5659 83.4925 47.6192 83.4897 47.67 83.4942C47.6675 83.4574 47.6647 83.4203 47.6623 83.3835C47.6542 83.2728 47.6451 83.1607 47.6363 83.0482C47.4321 83.2364 47.1784 83.4725 46.887 83.7482C47.0457 83.6771 47.2058 83.6067 47.3694 83.5391C47.417 83.5198 47.4647 83.5082 47.512 83.5009ZM50.8112 79.5227C50.7695 79.3475 50.731 79.1716 50.6949 78.9961C50.7131 79.186 50.7292 79.3545 50.7432 79.4999C50.766 79.5076 50.7888 79.5146 50.8112 79.5227ZM59.6003 32.0427C59.6459 32.0658 59.6897 32.0851 59.7355 32.1089C60.5403 32.5272 61.2974 32.8569 62.0111 33.1368C61.2347 32.7469 60.4271 32.3759 59.6003 32.0427ZM43.0713 33.1281C43.8887 32.9795 44.7225 32.8646 45.3917 32.7833C44.6101 32.8135 43.8197 32.9014 43.0713 33.1281ZM35.3287 47.6717C35.5025 46.5422 35.657 45.4701 35.788 44.5228C35.6013 45.6025 35.4569 46.6662 35.3287 47.6717ZM84.0324 139.093C80.7609 142.273 77.4466 145.431 73.8415 148.228C70.2733 150.996 66.3595 153.779 61.9494 155.007C60.266 155.476 58.5496 155.731 56.868 155.661C55.1765 155.591 53.5211 155.188 51.9715 154.328C51.7294 154.194 51.4895 154.052 51.253 153.896C47.7124 151.549 45.0546 147.87 43.0423 144.18C42.4498 143.093 41.9054 141.985 41.4019 140.859C39.9322 145.604 37.6403 150.053 34.7215 154.075C36.6624 154.966 38.115 156.296 39.762 157.655C42.1054 159.59 44.8304 160.035 47.8182 159.799C50.9324 159.553 53.9997 158.854 57.1178 158.67C59.3607 158.537 61.4978 158.817 63.7074 159.16C65.7986 159.485 67.955 159.855 70.1153 160.04C72.238 160.221 74.3643 160.222 76.4373 159.827C76.4593 159.822 76.4817 159.819 76.5038 159.815C81.5281 158.835 84.8953 155.582 86.9368 150.97C86.9375 150.968 86.9392 150.966 86.9403 150.964C86.9284 150.945 86.9193 150.925 86.9158 150.901C86.3349 146.861 84.415 143.154 84.0324 139.093Z" fill="#FEFDFF"/>
<path d="M73.2984 147.951L66.4814 152.653C67.379 152.156 68.2478 151.615 69.0782 151.056C70.5303 150.078 71.9307 149.035 73.2984 147.951ZM85.0711 138.083C85.048 138.105 85.0249 138.128 85.0018 138.15C85.1258 140.629 85.864 142.966 86.5927 145.31L85.0711 138.083ZM57.0333 159.431C56.2565 159.492 55.4823 159.584 54.7087 159.688C56.1206 159.571 57.5987 159.467 58.6999 159.395C58.146 159.382 57.591 159.387 57.0333 159.431ZM84.0334 139.093C80.7619 142.273 77.4476 145.431 73.8425 148.228C70.2742 150.996 66.3605 153.779 61.9504 155.008C60.267 155.477 58.5506 155.731 56.8689 155.661C55.9496 155.685 55.0233 155.622 54.1313 155.431C53.4559 155.287 52.7268 154.895 51.9725 154.329C51.7304 154.195 51.4904 154.053 51.254 153.896C47.7134 151.549 45.0556 147.871 43.0432 144.18C42.4508 143.094 41.9064 141.985 41.4029 140.86C39.9332 145.605 37.6412 150.054 34.7225 154.076C36.6634 154.966 38.116 156.296 39.7629 157.656C42.1064 159.59 44.8314 160.036 47.8192 159.8C50.9334 159.554 54.0007 158.855 57.1187 158.67C59.3617 158.538 61.4988 158.817 63.7084 159.16C65.7996 159.485 67.956 159.855 70.1162 160.04C71.8746 160.05 74.2461 160.016 76.4382 159.827C76.4603 159.823 76.4827 159.82 76.5048 159.816C81.5291 158.836 84.8963 155.582 86.9378 150.971C86.9385 150.969 86.9402 150.967 86.9413 150.965C86.9294 150.946 86.9202 150.925 86.9167 150.901C86.3359 146.861 84.416 143.155 84.0334 139.093ZM36.2917 156.074C35.7406 155.665 35.1615 155.289 34.5316 154.962C34.9114 155.201 35.5507 155.603 36.2917 156.074ZM36.8025 149.184C37.3932 148.131 37.9411 147.054 38.4439 145.957L37.6647 147.373L36.8025 149.184ZM47.5105 115.736C47.5077 115.673 47.5031 115.611 47.5007 115.548C46.931 115.822 46.3649 116.105 45.797 116.376C46.4805 116.197 47.0617 115.957 47.5105 115.736ZM57.9852 80.457C57.77 80.5288 57.6457 80.7065 57.5644 80.9443C57.8205 80.7016 58.119 80.5057 58.469 80.4216C58.2893 80.4031 58.1242 80.4108 57.9852 80.457ZM38.1612 117.462L38.3654 117.594C38.3654 117.594 38.4274 117.584 38.5353 117.568C38.4092 117.535 38.2852 117.498 38.1612 117.462ZM73.0875 83.6655C71.9538 82.502 70.613 81.4397 69.343 81.2078C69.8083 81.3707 70.2606 81.5683 70.6929 81.8142C71.5972 82.3293 72.3704 82.9669 73.0875 83.6655ZM66.3118 135.795C66.5357 135.593 66.7876 135.367 67.0602 135.124C65.8357 136.012 64.5608 136.818 63.1923 137.43C64.4799 137.027 65.5912 136.443 66.3118 135.795ZM63.2568 77.9023C63.1013 77.4714 62.8739 77.1925 62.5397 77.3039C62.2713 77.3936 61.9805 77.5288 61.6957 77.6802C62.2128 77.4889 62.7597 77.5001 63.2568 77.9023ZM47.4898 114.709C47.4905 114.63 47.4874 114.552 47.4895 114.473C47.4972 114.152 48.1071 113.976 48.3815 114.139C48.2676 113.545 48.4225 112.522 48.4204 112.16C48.4091 110.339 48.4011 108.518 48.3678 106.698C48.3058 103.316 48.6235 99.3007 47.494 96.0579C47.3385 95.6119 48.3499 95.3285 48.509 95.7857C49.5768 98.8527 49.3172 102.681 49.381 105.876C49.4188 107.77 49.4336 109.665 49.4448 111.559C49.4469 111.951 49.3214 113.461 49.4118 113.925C49.5033 113.973 49.5534 114.057 49.5211 114.185C49.5092 114.233 49.5019 114.284 49.4759 114.326C49.3996 114.45 49.2643 114.547 49.1147 114.6C49.1288 114.721 49.0531 114.849 48.8338 114.942C48.7276 114.986 48.6222 115.034 48.5167 115.08C48.517 115.103 48.5163 115.126 48.5167 115.149C48.5202 115.146 48.5258 115.142 48.5258 115.142C48.5258 115.142 48.6176 116.203 48.825 117.857C49.0079 118.83 49.2542 119.793 49.5313 120.76C50.7029 124.847 52.0128 128.804 53.5613 132.761C54.1604 134.292 54.8534 136.182 56.2621 137.17C56.6262 137.425 57.0073 137.609 57.399 137.734C57.8285 137.838 58.2689 137.908 58.7146 137.947C60.075 137.979 61.4848 137.493 62.7246 136.899C66.0915 135.287 69.0253 132.71 71.8988 130.352C74.4199 128.283 76.8527 126.068 79.0056 123.611C78.9884 123.599 78.974 123.586 78.9656 123.569C76.0844 117.611 75.8279 111.333 76.379 104.858C76.5447 102.912 76.8502 100.896 76.1467 99.0201C75.0411 96.0712 73.0038 93.6405 71.6301 90.828C71.559 90.6826 72.5308 90.3221 72.645 90.5564C74.0044 93.3392 76.2053 95.7745 77.1617 98.7479C77.7864 100.691 77.5635 102.581 77.394 104.586C77.3229 105.423 77.2665 106.257 77.2262 107.088C79.0977 107.066 81.0239 105.854 82.4509 104.289L84.1329 101.813C84.2895 101.477 84.4177 101.144 84.5106 100.819C84.5389 100.72 84.6377 100.638 84.7625 100.578C84.7562 100.571 84.7481 100.565 84.7428 100.556C81.9446 96.1557 78.8837 91.8387 75.5196 87.8507C74.0107 86.0626 72.5385 83.978 70.5216 82.7199C68.8834 81.6979 67.1022 81.3231 65.2387 81.2054C65.2927 81.3063 65.3456 81.4085 65.4037 81.5049C65.546 81.7414 64.5804 82.0959 64.3888 81.7771C64.2679 81.5767 64.1586 81.3707 64.0542 81.1616C64.0037 81.1609 63.954 81.1598 63.9036 81.1591C63.453 81.1545 63.5721 80.8778 63.8272 80.6879C63.7981 80.6259 63.7676 80.5642 63.7385 80.5022C63.6446 80.4749 63.5903 80.457 63.5903 80.457C63.5903 80.457 63.5903 80.3502 63.5847 80.1778C63.4523 79.8993 63.3164 79.6221 63.1615 79.3552C62.9454 78.9824 62.6917 78.5564 62.3305 78.3013C61.8306 77.9482 61.4448 78.3714 61.125 78.7848C61.3828 79.6425 61.6641 80.4724 61.8852 81.24C62.0646 81.8626 62.327 83.148 61.1204 82.7125C60.2204 82.3874 59.1532 79.6891 58.078 81.4089C57.1709 82.86 57.8709 84.2264 56.6002 84.8535C57.0497 84.9271 56.1378 85.2981 55.9195 85.2708C53.4913 84.9733 52.1267 83.2822 51.337 81.2393C51.124 81.2768 50.9302 81.266 50.9127 81.1731C50.8031 80.5968 50.4541 79.9627 49.8249 79.832C49.3001 79.7227 48.8218 80.3421 48.7125 80.8151C48.4904 81.7743 48.6926 82.7493 48.7097 83.7173C48.7132 83.9023 48.3086 84.0326 48.009 84.0593C47.9645 84.0985 47.9053 84.1356 47.8272 84.1675C46.3347 84.781 45.0742 85.6281 43.9983 86.6445C43.4255 87.2572 42.859 87.8935 42.3436 88.5209C40.1907 91.4193 38.9817 95.1071 38.0392 98.6421C36.689 103.707 35.7732 109.164 32.9375 113.665C35.1573 115.009 37.2545 116.792 39.9444 117.013C42.8039 117.248 45.0378 115.852 47.4898 114.709ZM55.9237 84.6114C56.0835 84.5834 56.2064 84.4569 56.3073 84.2723C56.2814 84.2842 56.2607 84.3 56.2334 84.3108C55.8705 84.4559 55.5397 84.5077 55.2402 84.5035C55.3978 84.5676 55.5618 84.6237 55.7324 84.6724C55.793 84.6447 55.8575 84.623 55.9237 84.6114ZM53.1945 134.587C52.958 134.079 52.7468 133.557 52.5457 133.032C52.0941 131.854 51.5591 130.687 51.1103 129.501C51.6884 131.441 52.3782 133.226 53.1945 134.587ZM48.4929 114.265C48.4974 114.247 48.5058 114.23 48.5135 114.214C48.5111 114.214 48.509 114.215 48.5065 114.215C48.502 114.232 48.4978 114.249 48.4929 114.265ZM47.513 83.5012C47.5669 83.4928 47.6202 83.49 47.671 83.4945C47.6685 83.4577 47.6657 83.4206 47.6633 83.3838C47.6552 83.2731 47.6461 83.161 47.6373 83.0485C47.4331 83.2367 47.1794 83.4728 46.8879 83.7485C47.0466 83.6774 47.2067 83.607 47.3704 83.5394C47.418 83.5201 47.4657 83.5085 47.513 83.5012ZM49.0692 79.6144C49.4381 79.4589 49.8305 79.3864 50.2057 79.4046C49.8084 79.1033 49.3835 79.029 49.0692 79.6144Z" fill="#A358E7"/>
<path d="M45.261 60.9536C45.4239 61.0286 44.9821 61.2231 44.9555 61.2322C44.7716 61.298 44.4941 61.3835 44.3032 61.2952C43.764 61.0468 43.0952 60.5571 43.1968 59.8686C43.2878 59.2513 43.702 58.847 44.1935 58.5009C44.3834 58.3667 44.6826 58.3029 44.9114 58.3082C45.1149 58.3134 45.1181 58.4136 44.9681 58.5194C44.5431 58.819 44.08 59.3463 44.2289 59.9149C44.3676 60.4418 44.788 60.7354 45.261 60.9536ZM63.7848 54.2207C64.1751 55.0794 64.571 55.9398 64.7938 56.8598C65.1081 58.1551 64.6495 58.9486 63.2127 58.9038C62.9952 58.8968 62.0506 59.3074 62.5558 59.3231C63.6934 59.3589 65.3887 59.2282 65.8298 57.9505C66.2628 56.6966 65.2987 55.0465 64.7998 53.9488C64.6849 53.6959 63.7025 54.0392 63.7848 54.2207ZM61.6554 63.9859C60.0631 63.9645 58.221 63.5378 57.7603 61.7934C57.6405 61.3397 56.6252 61.6112 56.7453 62.0649C57.2772 64.0787 59.4416 64.6743 61.2977 64.6996C61.769 64.7055 62.3421 63.995 61.6554 63.9859ZM58.7658 55.7587C58.7658 54.8201 58.7658 53.8819 58.7658 52.943C58.7658 52.6701 57.7508 52.8494 57.7508 53.2152C57.7508 54.1538 57.7508 55.092 57.7508 56.0309C57.7508 56.3042 58.7658 56.1245 58.7658 55.7587ZM68.0202 51.8163C68.0202 51.3563 67.0007 51.5602 67.001 51.9284C67.0014 52.6925 66.979 53.4825 67.2042 54.2203C67.3233 54.6113 68.3358 54.3307 68.2192 53.9488C68.009 53.2593 68.0202 52.5303 68.0202 51.8163ZM56.7555 47.295C55.8099 47.5322 54.933 47.8178 54.212 48.5002C54.0333 48.6691 54.1405 48.9259 54.3458 48.9998C54.6061 49.0941 54.8738 48.9872 55.0637 48.8075C55.5745 48.3244 56.2846 48.1674 56.945 48.0017C57.5771 47.8433 57.3847 47.1377 56.7555 47.295ZM68.3061 47.362C67.6565 46.9415 66.9422 46.7002 66.197 46.5106C65.9482 46.4476 65.6557 46.504 65.4791 46.703C65.3327 46.8683 65.3744 47.1178 65.606 47.1766C66.2828 47.3483 66.9299 47.5529 67.5199 47.9348C67.8818 48.1692 68.7815 47.6699 68.3061 47.362ZM107.257 95.1474C107.095 94.7848 107.092 94.3234 107.395 94.0302C107.922 93.5197 108.693 93.5895 109.349 93.7499C109.586 93.8077 109.623 94.0729 109.48 94.239C109.303 94.4457 109.015 94.493 108.762 94.4313C108.748 94.4278 108.746 94.4275 108.739 94.4254C108.715 94.4205 108.691 94.4159 108.667 94.411C108.628 94.4037 108.589 94.3967 108.549 94.3911C108.478 94.3809 108.406 94.3718 108.335 94.3686C108.333 94.3686 108.333 94.3686 108.332 94.3686C108.304 94.3693 108.276 94.37 108.249 94.3721C108.238 94.3732 108.227 94.3746 108.216 94.3756C108.207 94.3861 108.199 94.3935 108.198 94.3883C108.194 94.3963 108.189 94.4044 108.186 94.4131C108.182 94.4306 108.179 94.4482 108.178 94.4657C108.175 94.4912 108.176 94.5168 108.176 94.5431C108.179 94.5662 108.183 94.6016 108.186 94.616C108.195 94.6563 108.205 94.6962 108.218 94.7354C108.232 94.7757 108.246 94.816 108.263 94.8553C108.265 94.8584 108.267 94.8633 108.27 94.8679C108.277 94.8808 108.283 94.8941 108.291 94.9068C108.337 94.9866 108.388 95.0627 108.447 95.1334C108.481 95.1744 108.517 95.2151 108.555 95.2529C108.571 95.2669 108.587 95.2813 108.604 95.2942C108.668 95.3457 108.738 95.3916 108.81 95.4316C108.834 95.4421 108.863 95.4551 108.877 95.46C108.893 95.4656 108.91 95.4708 108.927 95.4757C108.947 95.4792 108.967 95.4806 108.987 95.4827C108.993 95.4824 108.999 95.482 109.005 95.482C109.013 95.4782 109.021 95.4747 109.028 95.4708C109.051 95.4526 109.093 95.4158 109.108 95.4032C109.138 95.3717 109.168 95.3405 109.195 95.3065C109.209 95.2879 109.223 95.269 109.237 95.2497C109.247 95.2336 109.263 95.2088 109.267 95.2021C109.305 95.1362 109.342 95.0683 109.374 94.9989C109.443 94.8479 109.503 94.6906 109.547 94.5326C109.619 94.2814 109.853 94.143 110.107 94.1234C110.274 94.1108 110.647 94.2029 110.575 94.4538C110.426 94.9807 110.218 95.4908 109.795 95.8573C108.922 96.6133 107.689 96.113 107.257 95.1474ZM108.225 94.3721C108.259 94.3655 108.297 94.3606 108.225 94.3721V94.3721ZM89.942 94.3438C91.1245 94.3585 92.2869 94.5466 93.4508 94.7403C93.7268 94.7862 94.6402 94.3378 94.0877 94.2457C92.8489 94.0396 91.6136 93.8533 90.3555 93.8375C90.0205 93.8333 89.2592 94.3353 89.942 94.3438ZM117.432 97.5088C117.189 97.5088 116.922 97.5736 116.714 97.7011C116.553 97.7992 116.575 97.9131 116.771 97.9131C117.977 97.9131 119.184 97.9131 120.391 97.9131C120.634 97.9131 120.901 97.8483 121.109 97.7207C121.269 97.6227 121.248 97.5088 121.052 97.5088C119.845 97.5088 118.639 97.5088 117.432 97.5088ZM96.8824 86.9854C96.9844 87.4374 98.0011 87.1722 97.8974 86.7139C97.6658 85.687 97.0684 84.8445 96.4476 84.0159C96.1828 83.662 95.2123 84.0495 95.5161 84.4545C96.1022 85.2372 96.6631 86.0153 96.8824 86.9854ZM123.841 90.9069C122.484 91.3077 121.159 91.8626 119.756 92.0907C119.189 92.1828 118.991 92.9841 119.676 92.8726C121.179 92.6285 122.584 92.0725 124.038 91.6429C124.662 91.459 124.47 90.7212 123.841 90.9069ZM109.718 135.003C106.675 136.346 103.294 137.597 99.9055 137.315C96.1999 137.006 93.3099 134.972 90.8985 132.259C89.1047 134.108 87.2815 135.929 85.4376 137.725C85.315 137.844 85.1924 137.964 85.0701 138.083C85.047 138.105 85.0239 138.128 85.0008 138.15C85.1248 140.629 85.863 142.966 86.5917 145.31C87.1347 147.057 87.6693 148.809 87.9307 150.629C87.9391 150.687 87.9206 150.741 87.8866 150.792C87.9503 150.862 87.9689 150.963 87.9097 151.096C85.9541 155.513 82.6268 159.114 77.8075 160.286C73.5409 161.324 69.1343 160.803 64.8513 160.145C62.8067 159.831 60.7638 159.444 58.6989 159.395C58.145 159.381 57.5897 159.387 57.0323 159.431C56.2556 159.492 55.4813 159.584 54.7077 159.688C52.1978 160.025 49.6992 160.502 47.17 160.593C44.6552 160.684 41.9912 160.482 39.8867 158.953C38.6076 158.024 37.5103 156.978 36.2904 156.073C35.7393 155.665 35.1602 155.288 34.5302 154.962C34.2822 154.834 34.0293 154.709 33.763 154.599C33.5325 154.505 33.482 154.292 33.6278 154.095C34.786 152.526 35.8475 150.885 36.8015 149.184C37.3922 148.13 37.9402 147.054 38.4429 145.956C39.392 143.884 40.181 141.74 40.7804 139.538C40.7864 139.516 40.7962 139.496 40.806 139.476C37.9167 132.441 36.6635 124.77 36.6309 117.177C36.6306 117.093 36.7045 117.02 36.8113 116.962C35.1118 116.211 33.6015 115.111 31.9223 114.123C31.7394 114.015 31.7902 113.804 31.8837 113.662C32.6198 112.542 33.2287 111.322 33.7539 110.034L33.7059 109.992C33.6828 109.988 33.6617 109.982 33.6432 109.973C30.1565 108.227 25.6136 108.034 22.5459 105.497C21.2097 104.392 20.4029 103.042 19.9933 101.576C19.5515 100.676 19.3539 99.7408 19.6209 98.8506C19.6335 98.8082 19.6468 98.7644 19.6598 98.7213C19.6962 97.1153 20.0637 95.4705 20.6229 93.9247C21.4837 91.5448 22.843 89.1275 23.2754 86.6204C23.6919 84.2033 23.1629 81.931 22.7985 79.5497C22.4703 77.4035 22.3161 75.1711 23.2183 73.1348C23.9526 71.4777 24.9924 70.0115 26.1573 68.6297C28.7439 65.5621 31.6476 62.718 32.6639 58.71C34.4861 51.5244 33.674 39.6312 39.6432 34.6556C40.0447 34.1756 40.4437 33.8218 40.8169 33.6862C40.9994 33.62 41.2008 33.5569 41.4156 33.4967C42.7805 32.811 44.4146 32.4067 46.3811 32.3615C47.513 31.3543 48.8184 30.7254 50.224 30.395C50.7275 30.1274 51.1398 29.961 51.3269 30.0079C51.5332 30.0594 51.9729 30.0664 52.5951 30.1074C57.2292 30.0016 62.4122 32.296 65.8515 34.4132C66.1718 34.6104 66.4752 34.815 66.7702 35.0245C67.4656 35.4229 68.0938 35.9225 68.6631 36.6245C70.3283 38.315 71.4382 40.3662 72.1227 42.9259C72.9755 46.1154 73.4211 49.9279 72.0856 53.0688C72.1084 53.7765 72.1129 54.4863 72.1052 55.1954C72.0737 58.1884 72.3599 61.4806 71.4679 64.3832C70.8075 66.5329 69.596 68.4665 67.6821 69.712C66.6178 70.4046 65.4511 70.9455 64.2217 71.2745C63.1325 71.5663 61.1387 71.7412 60.7053 73C60.1581 74.5902 60.4541 76.3868 60.9299 78.1126C61.1699 77.9332 61.4274 77.7794 61.694 77.6809C62.2114 77.4893 62.758 77.5005 63.2551 77.903C63.2618 77.9083 63.2688 77.9118 63.2754 77.9174C64.0676 78.5775 64.4666 79.5791 64.9011 80.5254C66.3932 80.565 67.9287 80.7149 69.3413 81.2082C69.8066 81.3711 70.2589 81.5687 70.6912 81.8147C71.5958 82.3297 72.369 82.9673 73.0858 83.6655C73.9785 84.5348 74.7826 85.4993 75.6216 86.4603C79.3322 90.7075 82.6545 95.3815 85.6787 100.137C85.7827 100.301 85.6762 100.456 85.5014 100.56C85.5312 100.595 85.5442 100.641 85.5266 100.701C84.5898 103.982 80.8232 107.471 77.2014 107.684C77.0034 112.871 77.5265 117.912 79.7302 122.75C80.2259 122.152 80.7108 121.545 81.1694 120.917C82.8598 118.602 84.5432 116.081 85.1938 113.248C85.6405 111.303 85.7228 109.353 85.8581 107.37C86.0182 105.027 86.6551 101.435 89.4165 100.728C91.1364 100.288 91.5382 103.08 91.7151 104.167C91.7758 104.538 91.8273 104.911 91.8756 105.284C94.9355 100.525 97.498 95.3527 100.929 90.8431C100.899 90.801 100.898 90.7429 100.94 90.6662C102.326 88.1468 104.979 87.4787 107.691 87.5194C110.398 87.56 113.403 87.4717 115.739 89.0822C118.729 91.144 117.3 94.0256 116.052 96.7979C114.937 99.2742 113.32 101.488 111.94 103.819C111.882 103.916 111.717 103.993 111.538 104.035C111.623 104.039 111.707 104.041 111.792 104.049C111.836 104.053 111.867 104.06 111.893 104.07C112.186 103.892 112.864 103.86 112.783 104.007C110.976 107.305 108.972 110.492 106.778 113.547C104.34 116.942 101.739 120.212 99.0209 123.382C102.004 128.004 109.123 121.317 111.571 119.113C115.213 115.833 118.752 112.205 121.656 108.242C123.156 106.194 124.497 103.364 126.656 101.936C128.05 101.015 130.288 101.011 129.678 103.158C129.314 104.439 128.673 105.609 128.263 106.871C127.989 107.714 127.772 108.571 127.575 109.431C130.029 106.856 134.188 103.165 136.098 105.762C136.261 105.984 136.353 106.223 136.39 106.472C136.969 106.526 138.776 107.394 139.04 107.785C139.594 108.605 139.088 109.977 138.568 110.977C140.07 111.965 140.003 113.383 139.223 114.853C139.466 114.726 139.83 114.672 139.985 114.823C141.654 116.436 138.824 119.313 137.739 120.393C135.384 122.74 132.613 124.799 129.581 126.204C127.309 127.467 124.93 128.544 122.521 129.535C118.221 131.305 113.971 133.126 109.718 135.003ZM92.0193 106.499C92.0722 106.989 92.1219 107.48 92.1713 107.971C92.2154 108.411 92.2529 108.852 92.3213 109.288C92.4292 109.979 92.4915 109.7 92.1468 109.759C92.2 109.779 92.2463 109.809 92.2824 109.852C92.5483 109.904 92.7382 110.063 92.5192 110.251C92.8331 110.776 93.3344 111.47 93.8957 111.307C94.5572 111.114 95.0606 110.478 95.4537 109.946C96.544 108.469 97.3638 106.804 98.186 105.169C99.2381 103.077 100.417 99.3558 103.024 98.7332C104.425 98.399 105.039 98.9753 105.24 99.8726C105.965 99.6179 106.843 99.4585 107.218 100.053C107.481 100.47 107.5 101.017 107.405 101.588C109.315 101.283 108.939 103.356 108.429 104.887C109.188 104.369 110.11 104.076 111.056 104.033C110.968 103.995 110.931 103.923 110.999 103.808C112.137 101.886 113.48 100.049 114.5 98.0592C115.022 97.0386 115.457 95.9767 115.855 94.9019C116.291 93.7243 117.04 92.2851 116.338 91.0554C114.971 88.6587 111.948 88.2796 109.476 88.1573C107.105 88.0396 104.571 87.861 102.86 89.4245C102.967 89.5149 102.994 89.653 102.847 89.8302C98.6825 94.85 95.8604 100.889 92.2796 106.313C92.2189 106.404 92.1244 106.464 92.0193 106.499ZM61.1243 78.7849C61.3822 79.6425 61.6635 80.4725 61.8846 81.2401C62.0639 81.8627 62.3264 83.1481 61.1198 82.7126C60.2197 82.3875 59.1526 79.6891 58.0774 81.409C57.1703 82.8601 57.8703 84.2265 56.5996 84.8536C57.0491 84.9272 56.1371 85.2982 55.9189 85.2708C53.4906 84.9734 52.126 83.2823 51.3363 81.2394C51.1233 81.2769 50.9296 81.266 50.9121 81.1732C50.8024 80.5969 50.4535 79.9627 49.8243 79.8321C49.2994 79.7228 48.8212 80.3422 48.7119 80.8151C48.4898 81.7744 48.6919 82.7494 48.7091 83.7174C48.7126 83.9024 48.308 84.0327 48.0084 84.0593C47.9639 84.0986 47.9047 84.1357 47.8266 84.1676C46.3341 84.7811 45.0736 85.6282 43.9977 86.6445C43.3891 87.2198 42.8419 87.8497 42.343 88.521C40.1901 91.4194 38.981 95.1072 38.0386 98.6422C36.6884 103.707 35.7726 109.164 32.9369 113.665C35.1567 115.009 37.2538 116.792 39.9438 117.013C42.8026 117.248 45.0364 115.852 47.4885 114.709C47.4892 114.63 47.486 114.552 47.4881 114.473C47.4959 114.152 48.1058 113.976 48.3801 114.139C48.2663 113.545 48.4211 112.523 48.419 112.16C48.4078 110.339 48.3997 108.518 48.3665 106.698C48.3045 103.316 48.6222 99.3008 47.4927 96.058C47.3371 95.612 48.3486 95.3286 48.5077 95.7858C49.5755 98.8527 49.3159 102.681 49.3797 105.876C49.4175 107.77 49.4322 109.665 49.4434 111.559C49.4455 111.951 49.3201 113.461 49.4105 113.925C49.5019 113.973 49.552 114.057 49.5198 114.185C49.5079 114.233 49.5005 114.284 49.4746 114.326C49.3982 114.45 49.263 114.548 49.1134 114.6C49.1274 114.721 49.0517 114.85 48.8324 114.942C48.7263 114.986 48.6208 115.034 48.5154 115.08C48.5157 115.103 48.515 115.126 48.5154 115.149C48.5423 116.066 48.6559 116.966 48.8237 117.857C49.0065 118.83 49.2528 119.793 49.53 120.76C50.7015 124.847 52.0115 128.804 53.56 132.761C54.1591 134.292 54.8521 136.182 56.2608 137.17C56.6248 137.426 57.006 137.609 57.3977 137.735C57.8258 137.872 58.2669 137.937 58.7132 137.947C60.0736 137.979 61.4834 137.493 62.7233 136.899C66.0901 135.287 69.0239 132.711 71.8975 130.352C74.4186 128.284 76.8514 126.068 79.0042 123.611C78.9871 123.599 78.9727 123.586 78.9643 123.569C76.0831 117.611 75.8266 111.333 76.3777 104.858C76.5434 102.913 76.8489 100.896 76.1454 99.0202C75.0397 96.0713 73.0025 93.6406 71.6287 90.828C71.5576 90.6826 72.5295 90.3221 72.6437 90.5565C74.003 93.3393 76.2039 95.7746 77.1604 98.748C77.785 100.691 77.5622 102.581 77.3927 104.586C77.3215 105.423 77.2651 106.257 77.2248 107.088C79.0964 107.066 81.0226 105.854 82.4495 104.289C83.1551 103.515 83.7374 102.657 84.1316 101.813C84.2882 101.477 84.4164 101.144 84.5092 100.82C84.5376 100.72 84.6364 100.638 84.7611 100.579C84.7548 100.571 84.7468 100.565 84.7415 100.556C81.9433 96.1557 78.8823 91.8388 75.5183 87.8508C74.0094 86.0626 72.5372 83.9781 70.5203 82.72C68.882 81.698 67.1009 81.3231 65.2374 81.2054C65.2913 81.3063 65.3442 81.4086 65.4024 81.505C65.5446 81.7414 64.5791 82.096 64.3874 81.7772C64.2666 81.5768 64.1573 81.3708 64.0529 81.1616C64.0024 81.1609 63.9527 81.1599 63.9022 81.1592C63.4517 81.1546 63.5708 80.8778 63.8258 80.688C63.7968 80.6259 63.7663 80.5643 63.7372 80.5023C63.6864 80.3937 63.6349 80.2861 63.5834 80.1779C63.451 79.8993 63.315 79.6222 63.1602 79.3552C62.944 78.9825 62.6904 78.5564 62.3292 78.3014C61.8299 77.9482 61.4442 78.3715 61.1243 78.7849ZM48.5126 114.213C48.5101 114.214 48.508 114.214 48.5056 114.215C48.501 114.232 48.4968 114.248 48.4919 114.266C48.4968 114.247 48.5052 114.23 48.5126 114.213ZM54.9064 42.5156C56.3442 43.4815 58.2045 43.6763 60.1626 43.6627C58.8176 43.5554 57.8121 43.4948 57.6338 43.4948C57.35 43.4952 56.0468 42.9854 54.9064 42.5156ZM48.4807 56.9103L47.8893 56.7131C48.0137 56.7891 48.1359 56.8725 48.2565 56.9608C48.3346 56.9366 48.4113 56.9184 48.4807 56.9103ZM49.0682 79.6141C49.4371 79.4586 49.8295 79.3861 50.2047 79.4043C49.8074 79.103 49.3825 79.0287 49.0682 79.6141ZM47.512 83.5009C47.5659 83.4925 47.6192 83.4897 47.67 83.4942C47.6675 83.4574 47.6647 83.4203 47.6623 83.3835C47.6542 83.2728 47.6451 83.1607 47.6363 83.0482C47.4321 83.2364 47.1784 83.4725 46.887 83.7482C47.0457 83.6771 47.2058 83.6067 47.3694 83.5391C47.417 83.5198 47.4647 83.5082 47.512 83.5009ZM50.8112 79.5227C50.7695 79.3475 50.731 79.1716 50.6949 78.9961C50.7131 79.186 50.7292 79.3545 50.7432 79.4999C50.766 79.5076 50.7888 79.5146 50.8112 79.5227ZM71.0927 54.8839C71.0917 54.6667 71.0896 54.4498 71.0861 54.233C70.8258 54.2708 70.5833 54.2519 70.6292 54.1709C70.7918 53.8861 70.9319 53.5911 71.0608 53.2905C70.989 51.2771 70.7722 49.2896 70.2176 47.3735C68.7955 43.3176 63.6668 44.3364 60.2989 44.3581C57.5249 44.3756 54.7081 44.0396 52.9371 41.968C53.4178 46.3263 52.4774 59.2503 48.0788 57.4418C47.8616 57.5196 47.6213 57.5584 47.5218 57.4775C46.0051 56.2464 43.4893 55.716 42.3402 57.7592C41.7691 58.7741 41.4664 59.9976 41.7992 61.1495C42.4274 63.3244 44.3589 63.288 46.2262 63.7379C47.396 64.0192 49.2231 64.5083 49.8341 65.6886C50.4318 66.8437 50.6216 68.4192 50.8238 69.6902C51.4709 73.755 50.4342 82.5535 55.2385 84.5036C55.3962 84.5677 55.5601 84.6237 55.7307 84.6724C55.7917 84.6448 55.8562 84.6227 55.9224 84.6111C56.0821 84.5831 56.2051 84.4566 56.306 84.272C56.697 83.5601 56.7436 81.9436 57.1409 81.4223C57.2677 81.2555 57.4079 81.0916 57.5631 80.9441C57.8192 80.7013 58.1177 80.5054 58.4676 80.4213C58.4729 80.4199 58.4778 80.4178 58.4834 80.4164C59.3856 80.209 60.1153 80.5068 60.761 81.0474C60.5879 80.4399 60.3949 79.837 60.2012 79.2431C60.0102 79.2358 59.8876 79.1717 60.0011 79.027C60.0305 78.9895 60.0631 78.9506 60.0954 78.912C59.5569 77.2048 58.8443 74.3957 59.8431 72.849C60.8927 71.2237 63.2467 71.2167 64.8709 70.5871C67.638 69.514 69.678 67.4259 70.4583 64.5286C71.2903 61.4375 71.1074 58.0615 71.0927 54.8839ZM59.6003 32.0427C59.6459 32.0658 59.6897 32.0851 59.7355 32.1089C60.5403 32.5272 61.2974 32.8569 62.0111 33.1368C61.2347 32.7469 60.4271 32.3759 59.6003 32.0427ZM43.0713 33.1281C43.8887 32.9795 44.7225 32.8646 45.3917 32.7833C44.6101 32.8135 43.8197 32.9014 43.0713 33.1281ZM35.3287 47.6717C35.5025 46.5422 35.657 45.4701 35.788 44.5228C35.6013 45.6025 35.4569 46.6662 35.3287 47.6717ZM84.0324 139.093C80.7609 142.273 77.4466 145.431 73.8415 148.228C70.2733 150.996 66.3595 153.779 61.9494 155.007C60.266 155.476 58.5496 155.731 56.868 155.661C55.1765 155.591 53.5211 155.188 51.9715 154.328C51.7294 154.194 51.4895 154.052 51.253 153.896C47.7124 151.549 45.0546 147.87 43.0423 144.18C42.4498 143.093 41.9054 141.985 41.4019 140.859C39.9322 145.604 37.6403 150.053 34.7215 154.075C36.6624 154.966 38.115 156.296 39.762 157.655C42.1054 159.59 44.8304 160.035 47.8182 159.799C50.9324 159.553 53.9997 158.854 57.1178 158.67C59.3607 158.537 61.4978 158.817 63.7074 159.16C65.7986 159.485 67.955 159.855 70.1153 160.04C72.238 160.221 74.3643 160.222 76.4373 159.827C76.4593 159.822 76.4817 159.819 76.5038 159.815C81.5281 158.835 84.8953 155.582 86.9368 150.97C86.9375 150.968 86.9392 150.966 86.9403 150.964C86.9284 150.945 86.9193 150.925 86.9158 150.901C86.3349 146.861 84.415 143.154 84.0324 139.093ZM92.9676 129.188C94.6665 127.356 96.3404 125.493 97.9748 123.594C97.9734 123.561 98.0123 123.518 98.0792 123.474C103.188 117.527 107.894 111.219 111.679 104.354C111.49 104.447 111.256 104.522 111.147 104.512C109.491 104.357 108.209 105.462 107.769 107.003C107.743 107.093 107.625 107.17 107.479 107.223C106.454 109.504 105.242 111.7 104.002 113.868C103.835 114.159 102.815 114.265 103.056 113.844C104.154 111.924 105.231 109.987 106.172 107.984C106.43 107.435 108.851 102.012 107.275 102.167C107.084 102.856 106.787 103.528 106.6 103.998C105.239 107.404 103.188 110.444 101.696 113.773C101.572 114.048 100.599 114.145 100.691 113.94C101.799 111.467 103.306 109.167 104.47 106.715C104.852 105.911 107.805 99.503 105.303 100.28C105.399 101.329 105.083 102.649 104.808 103.519C103.796 106.719 102.215 110.464 99.7503 112.839C99.4259 113.152 98.4428 112.979 98.9 112.538C101.376 110.153 103.137 106.174 103.984 102.89C104.074 102.541 104.395 101.359 104.371 100.46C104.187 100.438 104.105 100.37 104.357 100.243C104.308 99.7612 104.134 99.3993 103.719 99.3716C102.285 99.2763 101.485 100.866 100.902 101.914C99.7034 104.071 94.8339 116.454 91.3858 110.344C91.3182 110.224 91.3329 110.11 91.3946 110.014C91.1851 109.484 91.1949 108.642 91.1557 108.244C90.9752 106.421 91.1266 103.013 89.7704 101.585C88.609 100.363 87.0633 105.299 86.9911 105.997C86.7994 107.852 86.8376 109.734 86.5307 111.578C85.1416 119.912 77.8481 126.571 71.5321 131.588C70.0662 132.753 68.6028 134.004 67.0588 135.124C65.8344 136.013 64.5595 136.818 63.191 137.43C63.012 137.511 62.8323 137.588 62.6501 137.662C60.0551 138.705 56.7187 139.433 54.6601 136.972C54.0543 136.248 53.5884 135.436 53.1932 134.587C52.9567 134.079 52.7454 133.557 52.5443 133.033C52.0927 131.854 51.5578 130.687 51.109 129.501C50.98 129.16 50.8571 128.819 50.7467 128.473C49.449 124.42 47.7187 120.06 47.5088 115.736C47.506 115.673 47.5015 115.61 47.499 115.548C46.9293 115.821 46.3632 116.104 45.7953 116.376C43.847 117.308 41.87 118.091 39.5991 117.777C39.2319 117.726 38.878 117.655 38.534 117.568C38.4075 117.535 38.2835 117.498 38.1595 117.461C37.9878 117.41 37.8186 117.355 37.6518 117.296C37.7401 126.422 39.5454 135.894 44.0562 143.907C46.1964 147.71 49.036 151.996 53.0541 154.035C57.5308 156.306 62.3169 154.956 66.4794 152.652C67.377 152.155 68.2458 151.615 69.0761 151.055C70.5283 150.078 71.929 149.034 73.2964 147.95C76.2144 145.638 78.9688 143.125 81.6574 140.541C82.4331 139.796 83.2059 139.048 83.9785 138.298C83.9746 138.208 83.9665 138.118 83.9644 138.028C83.9585 137.764 84.402 137.588 84.7044 137.594C87.5191 134.85 90.2959 132.068 92.9676 129.188ZM101.286 136.807C105.118 136.702 108.498 134.971 111.905 133.406C117.246 130.954 122.968 129.141 128.169 126.382C128.134 126.28 128.202 126.158 128.448 126.054C129.103 125.776 129.749 125.461 130.383 125.12C131.447 124.471 132.486 123.776 133.483 123.006C133.551 122.954 133.684 122.915 133.828 122.893C134.699 122.231 135.53 121.523 136.305 120.778C137.291 119.83 140.657 116.791 139.048 115.236C139.038 115.226 139.033 115.216 139.025 115.205C137.619 117.544 134.604 119.934 133.41 120.864C133.043 121.149 132.207 120.882 132.753 120.459C134.414 119.166 140.707 114.174 138.104 111.785C136.308 114.625 133.781 116.945 131.201 119.064C130.828 119.37 130.004 119.075 130.537 118.637C133.042 116.58 135.816 114.211 137.362 111.31C138.216 109.706 138.813 107.838 136.542 107.309C136.485 107.296 136.417 107.284 136.341 107.272C135.999 108.657 134.49 110.152 133.781 110.878C132.148 112.55 129.759 114.039 128.523 116.039C128.356 116.308 127.339 116.423 127.581 116.031C128.418 114.677 129.912 113.643 131.063 112.578C132.513 111.235 134.726 109.518 135.242 107.503C135.286 107.332 135.306 107.129 135.3 106.918C135.229 106.841 135.184 106.747 135.183 106.626C135.182 106.564 135.205 106.507 135.243 106.457C135.11 105.889 134.746 105.406 134.048 105.526C132.856 105.731 131.756 106.621 130.851 107.372C129.575 108.429 128.376 109.585 127.27 110.82C127.179 111.24 127.088 111.659 126.993 112.078C126.292 115.167 125.345 118.214 122.61 120.078C122.425 120.204 121.405 120.328 121.829 120.039C124.701 118.081 125.484 114.652 126.172 111.419C125.975 111.411 125.85 111.346 125.973 111.205C126.063 111.1 126.172 110.974 126.297 110.832C126.356 110.558 126.414 110.286 126.474 110.018C126.828 108.441 127.268 106.932 127.896 105.443C128.231 104.65 129.13 103.072 128.75 102.191C127.942 100.323 124.55 105.402 124.173 105.953C123.618 106.765 123.047 107.564 122.45 108.346C121.25 109.918 119.961 111.424 118.632 112.888C115.085 116.795 111.195 120.844 106.601 123.527C104.232 124.91 100.474 126.571 98.3675 124.14C96.1425 126.705 93.8418 129.204 91.4857 131.651C91.5852 131.654 91.67 131.678 91.7176 131.732C94.1837 134.55 97.3645 136.915 101.286 136.807Z" fill="#340679"/>
</g>
<defs>
<clipPath id="clip0_1813_9660">
<rect width="160" height="160" fill="white" transform="translate(0.5)"/>
</clipPath>
</defs>
</svg>
