<svg width="16" height="16" viewBox="0 0 16 16" fill="none" xmlns="http://www.w3.org/2000/svg">
<path d="M14.75 2.75L4.25 2.75M4.25 2.75C4.25 2.45333 4.16203 2.16332 3.99721 1.91664C3.83238 1.66997 3.59812 1.47771 3.32403 1.36418C3.04994 1.25065 2.74834 1.22094 2.45737 1.27882C2.16639 1.3367 1.89912 1.47956 1.68934 1.68934C1.47956 1.89912 1.3367 2.16639 1.27882 2.45736C1.22095 2.74834 1.25065 3.04994 1.36418 3.32403C1.47771 3.59811 1.66997 3.83238 1.91664 3.9972C2.16332 4.16203 2.45333 4.25 2.75 4.25C3.14783 4.25 3.52936 4.09196 3.81066 3.81066C4.09197 3.52936 4.25 3.14782 4.25 2.75ZM11.75 8L1.25 8M6.5 13.25L1.25 13.25M9.5 13.25L14.75 13.25M9.5 13.25C9.5 12.9533 9.41203 12.6633 9.2472 12.4166C9.08238 12.17 8.84811 11.9777 8.57402 11.8642C8.29994 11.7506 7.99834 11.7209 7.70736 11.7788C7.41639 11.8367 7.14912 11.9796 6.93934 12.1893C6.72956 12.3991 6.5867 12.6664 6.52882 12.9574C6.47094 13.2483 6.50065 13.5499 6.61418 13.824C6.72771 14.0981 6.91997 14.3324 7.16664 14.4972C7.41332 14.662 7.70333 14.75 8 14.75C8.39782 14.75 8.77936 14.592 9.06066 14.3107C9.34196 14.0294 9.5 13.6478 9.5 13.25ZM14.75 8C14.75 7.70333 14.662 7.41332 14.4972 7.16664C14.3324 6.91997 14.0981 6.72771 13.824 6.61418C13.5499 6.50065 13.2483 6.47094 12.9574 6.52882C12.6664 6.5867 12.3991 6.72956 12.1893 6.93934C11.9796 7.14912 11.8367 7.41639 11.7788 7.70736C11.7209 7.99834 11.7506 8.29994 11.8642 8.57402C11.9777 8.84811 12.17 9.08238 12.4166 9.2472C12.6633 9.41203 12.9533 9.5 13.25 9.5C13.6478 9.5 14.0294 9.34196 14.3107 9.06066C14.592 8.77935 14.75 8.39782 14.75 8Z" stroke="#737373" stroke-width="1.4" stroke-linecap="round" stroke-linejoin="round"/>
</svg>
