<svg width="24" height="24" viewBox="0 0 24 24" fill="none" xmlns="http://www.w3.org/2000/svg">
    <path d="M18.7551 9.40234C21.2334 10.3191 23 12.7035 23 15.5005C23 19.0904 20.0899 22.0005 16.5 22.0005C14.7535 22.0005 13.1679 21.3117 12 20.1909" stroke="white" stroke-width="2" stroke-linecap="round" stroke-linejoin="round"/>
    <path d="M7.5 22C11.0899 22 14 19.0899 14 15.5C14 11.9101 11.0899 9 7.5 9C3.91015 9 1 11.9101 1 15.5C1 19.0899 3.91015 22 7.5 22Z" stroke="white" stroke-width="2" stroke-linecap="round" stroke-linejoin="round"/>
    <path d="M13.781 13.8738C16.7574 13.2789 19 10.6514 19 7.5C19 3.91015 16.0899 1 12.5 1C8.91015 1 6 3.91015 6 7.5C6 8.01627 6.06019 8.51848 6.17393 9" stroke="white" stroke-width="2" stroke-linecap="round" stroke-linejoin="round"/>
</svg>
