<svg width="18" height="20" viewBox="0 0 18 20" fill="none" xmlns="http://www.w3.org/2000/svg">
<path d="M0.257285 2.31214C0.1766 2.38208 0.111778 2.46844 0.0671554 2.56544C0.0225326 2.66245 -0.000862335 2.76786 -0.00146484 2.87464V18.6246C-0.00146484 18.8236 0.0775529 19.0143 0.218205 19.155C0.358857 19.2956 0.549623 19.3746 0.748535 19.3746C0.947447 19.3746 1.13821 19.2956 1.27886 19.155C1.41952 19.0143 1.49854 18.8236 1.49854 18.6246V14.4781C4.0101 12.4943 6.17385 13.564 8.66572 14.7978C10.2032 15.5581 11.8588 16.3775 13.6345 16.3775C14.9404 16.3775 16.3101 15.9321 17.7426 14.69C17.8233 14.62 17.8881 14.5337 17.9327 14.4367C17.9773 14.3396 18.0007 14.2342 18.0013 14.1275V2.87464C18.001 2.73068 17.9592 2.58987 17.881 2.469C17.8028 2.34813 17.6915 2.25233 17.5603 2.19302C17.4292 2.13371 17.2837 2.1134 17.1413 2.13453C16.9989 2.15565 16.8656 2.21731 16.7573 2.31214C14.1323 4.5837 11.9085 3.48308 9.33135 2.20714C6.66135 0.883389 3.63416 -0.613798 0.257285 2.31214ZM16.4985 13.7731C13.987 15.7568 11.8232 14.6862 9.33135 13.4534C6.9876 12.2956 4.38041 11.0037 1.49854 12.6659V3.22995C4.0101 1.2462 6.17385 2.31589 8.66572 3.5487C11.0095 4.70651 13.6176 5.99839 16.4985 4.3362V13.7731Z" fill="#3F3F3F"/>
</svg>
