<svg width="24" height="24" viewBox="0 0 24 24" fill="none" xmlns="http://www.w3.org/2000/svg">
    <path d="M11 2L1 14H10L9 22L19 10H10L11 2Z" stroke="white" stroke-width="2" stroke-linecap="round" stroke-linejoin="round"/>
    <path d="M19.9854 20.3818H18.4498L19.125 18.4173C19.1548 18.3369 19.1852 18.2468 19.2162 18.1471C19.2468 18.2444 19.2768 18.3318 19.3062 18.409L19.9854 20.3818ZM22.2155 23.1496H22.4268L22.3571 22.9501L22.2155 22.9996L22.3571 22.9501L22.357 22.9499L22.3567 22.949L22.3556 22.9458L22.3512 22.9331L22.3338 22.8834L22.2676 22.6945C22.2103 22.5315 22.1282 22.2979 22.0286 22.0156C21.8293 21.4511 21.56 20.6919 21.2797 19.9133C20.9995 19.1348 20.7082 18.3363 20.465 17.6935C20.2272 17.065 20.0298 16.5697 19.9343 16.3966C19.7781 16.053 19.5057 15.8496 19.207 15.8496C18.9047 15.8496 18.637 16.0577 18.4959 16.408L18.4944 16.412L16.0748 22.9475L16 23.1496H16.2155H17.1085C17.237 23.1496 17.3542 23.1104 17.4498 23.0264C17.531 22.9551 17.5923 22.8705 17.6249 22.7717L18.0489 21.5406H20.3821L20.8065 22.7727L20.8063 22.7728L20.8089 22.7794C20.8488 22.8795 20.9094 22.9657 20.9902 23.036L20.9934 23.0387C21.0884 23.1167 21.2053 23.1496 21.331 23.1496H22.2155Z" fill="white" stroke="white" stroke-width="0.3"/>
</svg>
