<svg width="32" height="32" viewBox="0 0 32 32" fill="none" xmlns="http://www.w3.org/2000/svg">
<path d="M10.3361 18.4552C10.821 19.0094 10.7649 19.8518 10.2107 20.3367L7.54795 22.6666H22.666C23.7975 22.6666 24.8444 22.2899 25.5837 21.6739C26.3158 21.0637 26.666 20.294 26.666 19.5555V17.3333C26.666 16.5969 27.263 15.9999 27.9994 15.9999C28.7357 15.9999 29.3327 16.5969 29.3327 17.3333V19.5555C29.3327 21.1744 28.5591 22.6656 27.2908 23.7225C26.0297 24.7734 24.3635 25.3333 22.666 25.3333H7.99935L10.1327 26.9333C10.7218 27.3751 10.8412 28.2108 10.3994 28.7999C9.95752 29.389 9.12179 29.5084 8.53268 29.0666L3.19935 25.0666C2.87772 24.8254 2.6821 24.4519 2.66696 24.0501C2.65182 23.6484 2.81878 23.2612 3.12134 22.9965L8.45468 18.3298C9.00886 17.8449 9.85121 17.9011 10.3361 18.4552Z" fill="white"/>
<path d="M21.5993 3.19992C22.0412 2.61081 22.8769 2.49142 23.466 2.93325L28.7994 6.93325C29.1351 7.18506 29.3327 7.58024 29.3327 7.99992C29.3327 8.41959 29.1351 8.81478 28.7994 9.06658L23.466 13.0666C22.8769 13.5084 22.0412 13.389 21.5993 12.7999C21.1575 12.2108 21.2769 11.3751 21.866 10.9332L23.9994 9.33325H9.33268C8.20117 9.33325 7.15427 9.70992 6.41503 10.326C5.68288 10.9361 5.33268 11.7059 5.33268 12.4444V14.6666C5.33268 15.403 4.73573 15.9999 3.99935 15.9999C3.26297 15.9999 2.66602 15.403 2.66602 14.6666V12.4444C2.66602 10.8254 3.43963 9.33423 4.70787 8.27737C5.96901 7.22641 7.63522 6.66658 9.33268 6.66658H23.9994L21.866 5.06658C21.2769 4.62475 21.1575 3.78902 21.5993 3.19992Z" fill="white"/>
</svg>
