<svg width="24" height="24" viewBox="0 0 24 24" fill="none" xmlns="http://www.w3.org/2000/svg">
<path fill-rule="evenodd" clip-rule="evenodd" d="M20.8049 7.11833C21.13 7.29234 21.333 7.6312 21.333 8V16C21.333 16.3688 21.13 16.7077 20.8049 16.8817C20.4797 17.0557 20.0852 17.0366 19.7783 16.8321L13.7783 12.8321C13.5001 12.6466 13.333 12.3344 13.333 12C13.333 11.6656 13.5001 11.3534 13.7783 11.1679L19.7783 7.16795C20.0852 6.96338 20.4797 6.94431 20.8049 7.11833ZM16.1358 12L19.333 14.1315V9.86852L16.1358 12Z" fill="#3F3F3F"/>
<path fill-rule="evenodd" clip-rule="evenodd" d="M3.93301 7C3.6655 7 3.33301 7.25369 3.33301 7.71429V16.2857C3.33301 16.7463 3.6655 17 3.93301 17H12.733C13.0005 17 13.333 16.7463 13.333 16.2857V7.71429C13.333 7.25369 13.0005 7 12.733 7H3.93301ZM1.33301 7.71429C1.33301 6.28133 2.4332 5 3.93301 5H12.733C14.2328 5 15.333 6.28133 15.333 7.71429V16.2857C15.333 17.7187 14.2328 19 12.733 19H3.93301C2.4332 19 1.33301 17.7187 1.33301 16.2857V7.71429Z" fill="#3F3F3F"/>
<path d="M21 18.606L18.7228 14.6512C18.6659 14.5543 18.5846 14.474 18.4871 14.4182C18.3896 14.3624 18.2792 14.333 18.1668 14.333C18.0544 14.333 17.944 14.3624 17.8465 14.4182C17.749 14.474 17.6677 14.5543 17.6108 14.6512L15.3336 18.606C15.2789 18.6997 15.25 18.8063 15.25 18.9148C15.25 19.0234 15.2789 19.1299 15.3336 19.2237C15.3898 19.3211 15.4709 19.4019 15.5686 19.4577C15.6663 19.5135 15.7771 19.5423 15.8896 19.5411H20.444C20.5564 19.5422 20.6671 19.5133 20.7647 19.4576C20.8623 19.4018 20.9433 19.3211 20.9995 19.2237C21.0543 19.13 21.0832 19.0234 21.0833 18.9149C21.0834 18.8064 21.0547 18.6997 21 18.606Z" fill="#E6094B"/>
<path fill-rule="evenodd" clip-rule="evenodd" d="M17.515 13.8393C17.3166 13.9528 17.1514 14.1162 17.0356 14.3133L14.7564 18.2715C14.6428 18.4667 14.583 18.6886 14.583 18.9145C14.583 19.1406 14.6429 19.3626 14.7567 19.5579C14.8719 19.7571 15.0379 19.9222 15.2377 20.0363C15.437 20.1501 15.6627 20.2091 15.8921 20.2074H20.4411C20.6704 20.209 20.896 20.1498 21.0952 20.036C21.2947 19.922 21.4605 19.7571 21.5756 19.5582C21.6894 19.363 21.7495 19.1411 21.7497 18.9151C21.7499 18.6891 21.6902 18.4672 21.5767 18.2718L19.3002 14.3182L19.2973 14.3133C19.1815 14.1162 19.0163 13.9528 18.8179 13.8393C18.6196 13.7257 18.395 13.666 18.1665 13.666C17.9379 13.666 17.7133 13.7257 17.515 13.8393ZM18.7224 14.6509L20.9997 18.6057C21.0543 18.6994 21.0831 18.806 21.083 18.9146C21.0829 19.0231 21.054 19.1297 20.9991 19.2233C20.943 19.3207 20.862 19.4015 20.7644 19.4572C20.6668 19.513 20.5561 19.5418 20.4437 19.5408H15.8892C15.7767 19.5419 15.666 19.5131 15.5683 19.4574C15.4706 19.4016 15.3895 19.3208 15.3333 19.2233C15.2785 19.1296 15.2497 19.023 15.2497 18.9145C15.2497 18.806 15.2785 18.6994 15.3333 18.6057L17.6105 14.6509C17.6674 14.554 17.7487 14.4737 17.8462 14.4179C17.9437 14.362 18.0541 14.3327 18.1665 14.3327C18.2788 14.3327 18.3892 14.362 18.4868 14.4179C18.5843 14.4737 18.6655 14.554 18.7224 14.6509Z" fill="white"/>
<path fill-rule="evenodd" clip-rule="evenodd" d="M18.166 15.6667C18.3501 15.6667 18.4994 15.7946 18.4994 15.9524V17.381C18.4994 17.5387 18.3501 17.6667 18.166 17.6667C17.9819 17.6667 17.8327 17.5387 17.8327 17.381L17.8327 15.9524C17.8327 15.7946 17.9819 15.6667 18.166 15.6667Z" fill="white"/>
<path d="M18.4993 18.1667C18.4993 18.3508 18.3501 18.5 18.166 18.5C17.9819 18.5 17.8327 18.3508 17.8327 18.1667C17.8327 17.9826 17.9819 17.8333 18.166 17.8333C18.3501 17.8333 18.4993 17.9826 18.4993 18.1667Z" fill="white"/>
</svg>
