<svg width="161" height="160" viewBox="0 0 161 160" fill="none" xmlns="http://www.w3.org/2000/svg">
<g clip-path="url(#clip0_831_5368)">
<path d="M37.9815 149.497C15.8253 120.647 6.43301 72.6993 10.6319 33.9521C12.0807 23.6754 25.5051 17.6053 30.6538 15.8061C44.9463 10.8076 59.1663 12.1173 104.137 29.8592C149.107 47.6011 151.52 71.151 147.105 80.7082C145.27 87.3894 133.138 108.099 99.2859 137.488C65.4343 166.878 44.3115 157.74 37.9815 149.497Z" fill="#F4EDFB"/>
<path d="M113.873 124.047C113.314 124.415 112.565 124.471 111.765 124.444C112.71 124.271 113.483 124.086 113.483 124.086L113.597 123.78C113.684 123.881 113.845 123.917 114.014 123.9C113.955 123.945 113.907 123.995 113.873 124.047ZM151.909 108.899C149.638 99.6327 147.328 90.3871 145.516 81.0147C144.82 77.4197 143.288 73.565 140.07 71.5058C136.81 69.4194 132.924 69.3805 129.21 69.9478C129.202 69.9488 129.197 69.9485 129.189 69.9495C129.087 69.9943 128.977 70.019 128.873 70.0067C126.761 69.754 124.998 68.2366 123.677 66.3394C121.793 68.9584 117.464 71.4256 114.874 68.8444C113.551 71.2396 111.633 73.2946 109.224 74.5473C108.01 75.2486 106.359 75.9704 104.688 75.9704C104.372 75.9704 104.062 75.944 103.767 75.8914C103.754 75.8886 103.741 75.8857 103.728 75.884C101.931 75.8988 100.154 75.5186 98.5568 74.7008C94.3272 79.5142 94.6194 86.3936 94.5411 92.4389C94.4878 96.5414 94.7797 100.688 94.2724 104.772C93.8305 108.335 92.982 111.83 92.515 115.389C94.5082 114.859 96.5717 114.613 98.7558 114.841C99.2687 114.895 98.3107 115.282 98.0926 115.259C96.0659 115.047 94.1673 115.287 92.3378 115.793C92.2168 115.859 92.0392 115.903 91.8744 115.926C89.806 116.551 87.822 117.504 85.8397 118.527C85.6667 118.657 85.5231 118.77 85.4062 118.864C85.437 118.868 85.4659 118.872 85.4902 118.882C85.51 118.89 85.527 118.899 85.546 118.907C85.653 118.907 85.7592 118.907 85.8658 118.907C86.1976 118.907 86.2011 119.035 86.0758 119.17C87.7122 120.145 88.116 122.166 87.9649 124.026C87.9441 124.274 87.4588 124.443 87.1633 124.387C87.0419 124.459 86.9201 124.523 86.7969 124.582C86.5707 124.81 86.2661 124.952 85.9548 125.038C87.4753 125.208 89.0079 125.365 90.4992 125.696C90.6118 125.304 90.7756 124.918 90.9048 124.619C92.1705 121.693 94.2198 119.101 97.6405 119.002C97.8829 118.995 97.9281 119.046 97.8773 119.113C97.8808 119.113 97.8847 119.114 97.8879 119.114C99.6919 117.697 101.869 117.387 103.947 118.474C105.259 115.125 104.284 111.865 102.582 108.799C101.111 106.15 98.8684 103.379 98.4008 100.31C97.4474 94.0569 103.35 89.8107 103.505 83.7791C103.514 83.4195 104.535 83.2525 104.528 83.5052C104.37 89.6483 97.5049 94.6424 99.6517 101.002C101.623 106.847 107.684 111.977 104.864 118.577C107.209 117.572 110.041 117.737 112.619 117.777C112.662 117.747 112.708 117.722 112.757 117.701C112.834 117.559 113.013 117.433 113.249 117.43C120.309 117.339 127.81 113.635 134.998 113.555C133.781 110.495 133.685 107.235 132.881 104.062C131.996 100.566 130.943 97.0822 130.874 93.4491C130.866 93.0647 131.891 92.8695 131.897 93.1755C131.966 96.8439 133.125 100.242 133.904 103.788C134.625 107.068 134.816 110.456 136.14 113.576C138.462 113.682 140.748 114.205 142.97 115.405C143.449 115.664 142.534 116.16 142.174 115.965C133.21 111.125 122.837 117.819 113.507 118.108C114.292 119.794 114.829 121.602 114.576 123.479C114.563 123.579 114.507 123.663 114.429 123.73C114.504 123.722 114.577 123.727 114.642 123.751C117.809 124.926 121.018 126.029 124.268 126.953C128.134 128.052 132.157 128.805 136.098 129.586C137.723 129.907 139.492 130.253 141.282 130.434C143.267 130.397 146.003 130.222 148.635 129.65C148.837 129.564 149.038 129.477 149.234 129.377C156.435 125.697 153.422 115.076 151.909 108.899ZM110.034 125.036C109.242 124.993 108.268 125.081 108.067 126.027C108.019 126.25 107.953 126.474 107.838 126.674L111.747 126.917C113.544 126.954 115.341 126.993 117.137 126.998C117.475 126.999 117.454 127.117 117.309 127.237L122.613 127.179C119.802 126.393 117.015 125.512 114.232 124.487C112.932 125.183 111.542 125.117 110.034 125.036ZM120.187 68.6541C119.532 68.9174 118.738 69.1606 117.888 69.2552C117.714 69.2746 117.55 69.2778 117.393 69.2743C118.308 69.4388 119.284 69.1673 120.187 68.6541Z" fill="#A358E7"/>
<path d="M108.12 55.9865C107.284 56.4778 106.398 56.7634 105.422 56.6296C104.733 56.535 105.256 55.7973 105.771 55.8679C106.48 55.9653 107.06 55.7161 107.661 55.3632C108.172 55.0638 108.717 55.6364 108.12 55.9865ZM110.557 48.1661C110.705 47.5636 110.829 46.9509 111.098 46.3875C111.331 45.8976 110.301 45.9675 110.133 46.3194C109.838 46.9396 109.691 47.6063 109.527 48.2696C109.419 48.7083 110.459 48.5629 110.557 48.1661ZM101.602 47.234C101.75 46.6311 101.874 46.0187 102.143 45.4553C102.376 44.9654 101.346 45.0353 101.178 45.3872C100.883 46.0074 100.735 46.6741 100.572 47.3377C100.465 47.7768 101.504 47.631 101.602 47.234ZM108.962 43.016C109.68 42.794 110.397 42.7859 111.068 43.1551C111.354 43.3121 112.299 42.8956 111.885 42.6676C110.951 42.154 109.82 42.2126 108.829 42.5194C108.689 42.5624 108.327 42.6913 108.384 42.9048C108.439 43.1113 108.822 43.0591 108.962 43.016ZM101.64 41.3461C101.414 41.3415 101.105 41.4276 100.963 41.6186C100.818 41.8152 101.087 41.8925 101.234 41.8953C101.562 41.902 101.842 42.0707 102.109 42.2465C102.307 42.3771 102.574 42.3298 102.783 42.2444C102.858 42.2137 103.257 41.9843 103.061 41.8554C102.611 41.5586 102.189 41.357 101.64 41.3461ZM152.91 127.485C147.899 133.47 138.46 130.933 132.014 129.504C128.832 128.798 125.708 128.045 122.614 127.179C119.803 126.393 117.016 125.512 114.232 124.487C112.931 125.183 111.543 125.117 110.034 125.036C109.242 124.993 108.268 125.081 108.067 126.027C108.019 126.25 107.953 126.474 107.838 126.674C107.828 126.692 107.82 126.71 107.809 126.727C107.78 126.772 107.747 126.815 107.717 126.859C109.061 126.866 110.404 126.89 111.747 126.917C113.544 126.954 115.341 126.993 117.137 126.998C117.476 126.999 117.454 127.117 117.309 127.236C117.308 127.237 117.306 127.238 117.305 127.239C117.387 127.292 117.443 127.374 117.443 127.494C117.443 128.686 117.443 129.878 117.443 131.071C117.443 131.185 117.374 131.282 117.271 131.352C117.731 131.358 116.782 131.735 116.59 131.734C96.0737 131.73 75.5596 131.32 55.0437 131.306C54.7595 131.517 54.1609 131.538 54.1609 131.163C54.1609 129.92 54.1609 128.676 54.1609 127.433C54.1609 127.058 55.0507 126.869 55.1753 127.24C57.92 127.24 60.6654 127.242 63.4097 127.242C62.792 126.687 63.3349 125.375 63.6621 124.619C64.8827 121.796 66.836 119.292 70.0416 119.028C70.1571 118.97 70.2802 118.93 70.3784 118.93C75.0086 118.929 79.6388 118.913 84.2691 118.909C84.2941 118.892 84.3248 118.874 84.3622 118.855C86.7014 117.631 89.0475 116.463 91.4908 115.687C92.0153 111.685 93.0922 107.753 93.3802 103.72C93.676 99.5724 93.4935 95.3989 93.5383 91.2434C93.6022 85.3651 93.6707 78.9534 97.973 74.4241C97.9812 74.4156 97.9935 74.4065 98.0062 74.3984C97.4655 74.0782 96.947 73.7079 96.4613 73.2784C94.7797 71.792 93.2694 69.784 92.5998 67.6171C92.3887 66.9352 92.2694 66.2293 92.2073 65.5145C92.0086 64.5551 91.9729 63.6928 92.159 63.0766C92.1734 63.0289 92.1883 62.9763 92.2031 62.9209C92.2398 62.4031 92.2927 61.8888 92.3534 61.3841C92.6122 59.2292 93.0181 57.0969 93.5112 54.9837C93.544 54.7409 93.5631 54.594 93.5645 54.5849L93.7328 54.0678C94.2083 52.1339 94.748 50.2151 95.3173 48.3112C95.3187 48.3073 95.3219 48.3034 95.3237 48.2996C94.9781 47.4411 95.0971 46.3159 95.1486 45.3918C95.2001 44.4727 95.2615 43.6704 96.1994 43.2232C96.3886 43.1328 96.5799 43.0615 96.7719 42.9983C98.3384 39.8273 97.0331 36.0593 98.5794 32.8646C98.8463 32.3137 99.1484 31.787 99.4834 31.2869C99.4566 31.2064 99.4746 31.1065 99.567 30.9883C104.487 24.7019 113.601 22.4955 121.01 25.0873C120.588 24.0009 120.679 22.9907 121.122 22.1422C121.189 21.9163 121.323 21.7179 121.514 21.5418C122.26 20.6075 123.472 19.9471 124.855 19.7194C128.357 19.1423 130.89 19.6435 133.398 22.2555C134.695 23.6052 136.142 25.2935 136.921 27.1515C137.005 27.3329 137.081 27.514 137.146 27.6944C137.222 27.9054 137.274 28.1162 137.31 28.3258C137.402 28.7056 137.464 29.09 137.483 29.4793C137.613 32.1216 135.74 33.6246 133.506 34.5162C136.176 37.5185 135.405 41.5469 136.223 45.3773C137.187 49.8943 141.151 52.2143 144.265 55.1941C147.327 58.1227 149.273 62.9202 148.21 67.1855C147.541 69.8768 145.72 72.0412 142.827 72.2484C142.693 72.258 142.593 72.2382 142.524 72.1997L142.408 72.2241C144.52 74.3055 145.845 77.1526 146.408 80.0663C148.238 89.5227 150.538 98.8555 152.829 108.206C153.698 111.754 154.507 115.375 154.69 119.034C154.828 121.794 154.796 125.233 152.91 127.485ZM94.017 126.344C93.6019 126.705 93.1367 127.034 92.6439 127.249C93.1794 127.249 93.7145 127.249 94.2503 127.249C94.0547 127.007 93.9905 126.697 94.017 126.344ZM84.4367 125.081C83.9034 125.094 83.3556 125.066 82.7905 125.036C81.9984 124.993 81.0246 125.081 80.8234 126.027C80.7719 126.269 80.7002 126.515 80.5657 126.727C80.4478 126.912 80.3155 127.085 80.1704 127.245C83.6673 127.246 87.1637 127.247 90.6613 127.248C90.4103 127.028 90.3454 126.686 90.3818 126.304C88.4154 125.782 86.347 125.645 84.3336 125.398C84.0266 125.36 84.19 125.204 84.4367 125.081ZM77.5291 127.82C77.6883 128.027 77.9711 128.069 78.4338 127.82C78.132 127.82 77.8306 127.82 77.5291 127.82ZM71.6127 125.92C71.1535 126.439 70.6491 126.906 70.1091 127.243C70.7031 127.243 71.2964 127.243 71.8912 127.244C71.6438 126.876 71.5714 126.418 71.6127 125.92ZM65.4149 127.242C65.9433 127.242 66.4714 127.242 66.9998 127.243C66.8084 127.002 66.746 126.693 66.7724 126.344C66.3619 126.701 65.902 127.028 65.4149 127.242ZM148.636 129.651C148.837 129.565 149.039 129.477 149.235 129.377C156.435 125.698 153.423 115.076 151.909 108.899C149.639 99.6327 147.328 90.3874 145.516 81.0147C144.82 77.4198 143.288 73.565 140.07 71.5061C136.81 69.4197 132.925 69.3809 129.21 69.9481C129.203 69.9492 129.197 69.9488 129.19 69.9499C129.088 69.9947 128.977 70.0194 128.873 70.0071C126.761 69.7544 124.998 68.2369 123.677 66.3397C121.793 68.9588 117.464 71.426 114.875 68.8448C113.551 71.24 111.633 73.2946 109.224 74.5473C108.01 75.2487 106.359 75.9705 104.688 75.9705C104.372 75.9705 104.062 75.944 103.767 75.8914C103.754 75.8886 103.741 75.8858 103.728 75.884C101.931 75.8988 100.154 75.5187 98.5568 74.7009C94.3272 79.5143 94.6195 86.394 94.5411 92.4392C94.4882 96.5418 94.7797 100.688 94.2725 104.772C93.8306 108.336 92.9821 111.83 92.5151 115.389C94.5083 114.859 96.5718 114.613 98.7559 114.841C99.2688 114.895 98.3108 115.282 98.0927 115.259C96.066 115.047 94.1673 115.287 92.3379 115.793C92.2168 115.859 92.0393 115.903 91.8745 115.926C89.8061 116.551 87.822 117.504 85.8398 118.528C85.6043 118.65 85.3689 118.772 85.1331 118.895C85.232 118.869 85.328 118.857 85.4063 118.865C85.437 118.868 85.466 118.872 85.4903 118.882C85.5101 118.89 85.527 118.899 85.5461 118.907C85.653 118.907 85.7593 118.907 85.8659 118.907C86.1977 118.907 86.2012 119.035 86.0759 119.17C87.7123 120.145 88.1161 122.166 87.965 124.026C87.9445 124.274 87.4592 124.443 87.1634 124.387C87.042 124.459 86.9202 124.524 86.797 124.582C86.3749 124.783 85.9428 124.911 85.5006 124.986C85.6523 125.004 85.8031 125.022 85.9548 125.039C87.4754 125.209 89.008 125.365 90.4993 125.697C90.6119 125.305 90.7757 124.918 90.9049 124.619C92.1706 121.693 94.2199 119.102 97.6405 119.002C97.883 118.995 97.9282 119.046 97.8774 119.113C97.87 119.123 97.8597 119.134 97.8481 119.144C97.8611 119.134 97.8749 119.125 97.888 119.115C99.692 117.697 101.869 117.388 103.947 118.475C105.259 115.126 104.284 111.866 102.582 108.8C101.111 106.151 98.8685 103.38 98.4005 100.31C97.4475 94.0576 103.35 89.8114 103.505 83.7799C103.514 83.4202 104.535 83.2536 104.528 83.5063C104.37 89.649 97.505 94.6432 99.6518 101.003C101.623 106.848 107.684 111.978 104.864 118.578C107.209 117.573 110.041 117.738 112.619 117.777C112.662 117.748 112.708 117.722 112.757 117.702C112.834 117.559 113.013 117.434 113.249 117.43C120.309 117.34 127.81 113.635 134.998 113.556C133.781 110.496 133.685 107.235 132.882 104.062C131.996 100.566 130.943 97.0829 130.874 93.4501C130.866 93.0658 131.891 92.8702 131.896 93.1762C131.966 96.845 133.124 100.243 133.904 103.789C134.625 107.069 134.815 110.457 136.14 113.577C138.462 113.683 140.747 114.206 142.969 115.406C143.449 115.665 142.533 116.16 142.173 115.966C133.209 111.126 122.836 117.82 113.506 118.108C114.291 119.795 114.828 121.603 114.576 123.48C114.562 123.58 114.507 123.663 114.429 123.731C114.504 123.723 114.576 123.727 114.641 123.751C117.809 124.926 121.018 126.03 124.268 126.954C128.133 128.053 132.156 128.806 136.098 129.587C137.723 129.908 139.492 130.254 141.281 130.435C143.813 130.691 146.38 130.61 148.636 129.651ZM47.1443 132.036C46.7034 132.217 46.2343 132.373 45.7557 132.49C45.7529 132.491 45.7511 132.493 45.7483 132.493C44.5934 132.942 43.2708 132.964 42.0485 132.997C39.9201 133.055 37.7857 132.985 35.6626 132.826C33.2338 132.643 28.8521 132.941 27.4928 130.447C25.5472 126.877 25.7495 121.824 26.4607 117.752C20.9269 117.752 15.3938 117.752 9.85992 117.752C9.77909 117.781 9.69826 117.797 9.63014 117.795C7.29702 117.715 6.54873 115.699 6.73934 113.631C6.7351 101.887 6.52861 90.1453 6.52473 78.4014C6.31154 76.046 7.47633 73.7838 10.0346 73.6829C10.1903 73.6765 10.2708 73.7027 10.3018 73.7443C28.6643 73.7443 47.0267 73.7443 65.3892 73.7443C65.4855 73.7048 65.5851 73.6801 65.6666 73.6829C65.8456 73.6903 66.0132 73.7132 66.1756 73.7443C67.0051 73.7443 67.8331 73.7443 68.6622 73.7443C68.759 73.7048 68.8585 73.6801 68.9397 73.6829C71.3268 73.7778 72.2325 76.0675 72.0461 78.1832C72.0412 89.8227 71.8389 101.46 71.8326 113.1C72.0281 115.362 70.9089 117.443 68.5726 117.68C68.5006 117.702 68.4395 117.715 68.4035 117.715C59.2084 117.715 50.0128 117.715 40.8187 117.715C40.685 118.593 40.5787 119.477 40.5159 120.371C40.2296 124.392 40.0164 134.347 46.7327 131.588C47.2032 131.393 47.8033 131.765 47.1443 132.036ZM42.6739 52.0297C43.8874 47.5463 45.1006 43.0629 46.3141 38.5799C46.3571 38.4207 46.6275 38.3032 46.8799 38.264C47.1541 38.1277 47.5837 38.0744 47.6808 38.2816C47.6917 38.3063 47.7072 38.3307 47.7192 38.355C53.6509 39.96 59.5811 41.5653 65.5127 43.1709C65.7877 43.0058 66.734 42.9853 66.2963 43.3199C66.2755 43.3358 66.2515 43.3492 66.2303 43.3647C66.2765 43.3774 66.3228 43.3898 66.369 43.4021C66.5458 43.4501 66.5977 43.5327 66.5766 43.6231C66.5755 43.6305 66.5773 43.6372 66.5748 43.6453C65.3613 48.1287 64.1481 52.6121 62.9346 57.0955C62.9184 57.1548 62.87 57.2085 62.804 57.2544C62.6258 57.4065 62.3187 57.5258 62.1232 57.4728C55.8343 55.7708 49.5448 54.0692 43.256 52.3668C43.1243 52.3312 43.0633 52.2757 43.0484 52.2126C42.8218 52.233 42.6326 52.1829 42.6739 52.0297ZM35.4635 50.9719C35.5652 51.022 35.5969 51.0884 35.5832 51.1593C35.5821 51.1667 35.5835 51.1727 35.581 51.1805C34.8091 53.7995 34.0372 56.4185 33.2645 59.0376C33.2624 59.045 33.2564 59.051 33.2532 59.058C33.2447 59.0767 33.2338 59.0954 33.22 59.1145C33.0803 59.3065 32.6864 59.4869 32.4523 59.4177C28.7794 58.3344 25.106 57.2515 21.432 56.1683C21.3282 56.1376 21.2693 56.0952 21.2407 56.0472C21.0818 56.0384 20.9713 55.9823 21.0063 55.864C21.7786 53.2453 22.5509 50.627 23.3228 48.008C23.3627 47.8718 23.5692 47.7673 23.7863 47.7161C24.0566 47.595 24.4428 47.5555 24.542 47.7429C28.0064 48.7648 31.4718 49.7856 34.9362 50.8078C35.2514 50.7707 35.605 50.8102 35.4635 50.9719ZM64.4732 24.3105C65.8339 22.493 67.1957 20.6756 68.5567 18.8585C68.6421 18.7445 68.9083 18.6609 69.1433 18.6393C69.4105 18.567 69.6996 18.5825 69.7144 18.741C69.7166 18.7615 69.7208 18.7823 69.7226 18.8027C72.127 20.6036 74.531 22.4044 76.9361 24.2053C77.2217 24.1869 77.3477 24.3239 77.2722 24.4651C77.3078 24.5007 77.3297 24.5367 77.3389 24.5734C77.3407 24.5812 77.3424 24.5889 77.3435 24.5967C77.3548 24.6973 77.2824 24.7958 77.1698 24.8752C75.8667 26.615 74.5635 28.3548 73.2603 30.0949C73.2212 30.367 72.5975 30.6092 72.3476 30.4217C69.7981 28.5122 67.2486 26.6026 64.6988 24.6931C64.6257 24.6384 64.5929 24.5801 64.5858 24.5226C64.4506 24.4986 64.3804 24.4336 64.4732 24.3105ZM69.8697 61.3364C72.6642 60.2253 75.4593 59.1134 78.2541 58.0023C78.3516 57.7097 79.2089 57.5678 79.2728 57.7948C79.3695 57.811 79.4468 57.8519 79.4768 57.9271C80.3158 60.0375 81.1559 62.1475 81.9949 64.2583C82.0097 64.2954 82.0058 64.3335 81.9875 64.3705C81.9878 64.4655 81.9059 64.5682 81.6963 64.6515C78.7363 65.8287 75.7767 67.0058 72.817 68.1833C72.7189 68.2225 72.6172 68.2348 72.5219 68.2299C72.2671 68.304 71.9812 68.3001 71.9145 68.1339C71.0755 66.0238 70.2361 63.9138 69.3975 61.8038C69.36 61.7081 69.4423 61.611 69.5747 61.5341C69.5941 61.5154 69.6167 61.4974 69.6421 61.479C69.6887 61.4278 69.7607 61.3798 69.8697 61.3364Z" fill="white"/>
<path d="M108.233 57.149C107.397 57.6403 106.51 57.9259 105.534 57.7921C104.846 57.6975 105.368 56.9598 105.883 57.0304C106.592 57.1278 107.173 56.8786 107.773 56.5256C108.285 56.2263 108.83 56.7988 108.233 57.149ZM110.669 49.3286C110.818 48.7261 110.941 48.1134 111.211 47.55C111.444 47.0601 110.414 47.13 110.246 47.4819C109.95 48.1021 109.804 48.7688 109.64 49.4321C109.532 49.8708 110.571 49.7254 110.669 49.3286ZM101.714 48.3964C101.862 47.7936 101.987 47.1812 102.256 46.6178C102.489 46.1279 101.459 46.1978 101.291 46.5497C100.995 47.1699 100.848 47.8366 100.685 48.5002C100.577 48.9393 101.617 48.7935 101.714 48.3964ZM109.074 44.1785C109.792 43.9565 110.51 43.9483 111.181 44.3175C111.467 44.4746 112.411 44.0581 111.997 43.8301C111.063 43.3165 109.933 43.3751 108.941 43.6819C108.802 43.7249 108.439 43.8537 108.496 44.0673C108.551 44.2738 108.935 44.2215 109.074 44.1785ZM101.753 42.5086C101.526 42.504 101.217 42.5901 101.076 42.7811C100.93 42.9777 101.199 43.055 101.347 43.0578C101.675 43.0645 101.955 43.2332 102.222 43.409C102.42 43.5396 102.687 43.4923 102.895 43.4069C102.97 43.3762 103.369 43.1468 103.174 43.0179C102.724 42.7211 102.301 42.5195 101.753 42.5086ZM153.023 128.648C148.011 134.632 138.572 132.095 132.127 130.666C128.944 129.961 125.821 129.207 122.726 128.342C119.915 127.555 117.128 126.675 114.345 125.649C113.044 126.345 111.656 126.279 110.146 126.198C109.354 126.156 108.381 126.243 108.18 127.189C108.132 127.413 108.065 127.637 107.951 127.836C107.941 127.854 107.933 127.873 107.922 127.889C107.893 127.935 107.86 127.977 107.83 128.021C109.173 128.029 110.516 128.052 111.86 128.08C113.656 128.116 115.453 128.156 117.25 128.16C117.588 128.161 117.567 128.279 117.421 128.399C117.42 128.4 117.419 128.401 117.418 128.402C117.5 128.455 117.556 128.537 117.556 128.656C117.556 129.849 117.556 131.041 117.556 132.233C117.556 132.348 117.486 132.444 117.383 132.514C117.844 132.52 116.895 132.898 116.702 132.897C96.1863 132.893 75.6721 132.482 55.1562 132.468C54.8721 132.679 54.2734 132.7 54.2734 132.325C54.2734 131.082 54.2734 129.839 54.2734 128.596C54.2734 128.22 55.1633 128.032 55.2879 128.403C58.0325 128.403 60.7779 128.404 63.5223 128.405C62.9046 127.849 63.4474 126.538 63.7746 125.781C64.9952 122.959 66.9485 120.455 70.1542 120.191C70.2696 120.133 70.3928 120.093 70.4909 120.093C75.1211 120.092 79.7514 120.076 84.3816 120.071C84.4067 120.055 84.4374 120.037 84.4748 120.018C86.8139 118.793 89.1601 117.625 91.6033 116.85C92.1278 112.848 93.2047 108.915 93.4927 104.883C93.7885 100.735 93.606 96.5614 93.6509 92.4059C93.7148 86.5275 93.7832 80.1159 98.0856 75.5866C98.0937 75.5781 98.106 75.569 98.1187 75.5608C97.578 75.2407 97.0595 74.8704 96.5738 74.4409C94.8923 72.9545 93.3819 70.9465 92.7123 68.7796C92.5013 68.0977 92.382 67.3918 92.3198 66.677C92.1211 65.7176 92.0855 64.8553 92.2715 64.2391C92.286 64.1914 92.3008 64.1388 92.3156 64.0834C92.3523 63.5656 92.4053 63.0513 92.466 62.5466C92.7247 60.3917 93.1306 58.2594 93.6237 56.1462C93.6565 55.9034 93.6756 55.7565 93.677 55.7474L93.8454 55.2303C94.3208 53.2963 94.8605 51.3776 95.4298 49.4737C95.4312 49.4698 95.4344 49.4659 95.4362 49.4621C95.0906 48.6036 95.2096 47.4784 95.2611 46.5543C95.3127 45.6352 95.3741 44.8329 96.3119 44.3857C96.5011 44.2953 96.6924 44.224 96.8844 44.1608C98.4509 40.9898 97.1456 37.2218 98.692 34.0271C98.9588 33.4761 99.261 32.9495 99.5959 32.4494C99.5691 32.3689 99.5871 32.269 99.6796 32.1507C104.6 25.8644 113.713 23.658 121.123 26.2498C120.701 25.1634 120.791 24.1532 121.235 23.3047C121.302 23.0788 121.435 22.8804 121.627 22.7043C122.372 21.77 123.585 21.1096 124.968 20.8819C128.469 20.3048 131.002 20.806 133.511 23.418C134.807 24.7677 136.254 26.456 137.033 28.314C137.117 28.4954 137.194 28.6765 137.259 28.8569C137.334 29.0679 137.386 29.2786 137.422 29.4883C137.514 29.8681 137.577 30.2525 137.595 30.6418C137.725 33.2841 135.853 34.7871 133.619 35.6787C136.288 38.681 135.518 42.7094 136.335 46.5398C137.299 51.0568 141.263 53.3768 144.378 56.3566C147.439 59.2851 149.386 64.0827 148.323 68.3479C147.653 71.0393 145.832 73.2037 142.94 73.4109C142.805 73.4204 142.706 73.4007 142.636 73.3622L142.52 73.3866C144.632 75.468 145.957 78.3151 146.521 81.2288C148.35 90.6852 150.651 100.018 152.941 109.368C153.811 112.916 154.619 116.537 154.802 120.196C154.941 122.956 154.909 126.396 153.023 128.648ZM94.1295 127.506C93.7144 127.867 93.2492 128.196 92.7565 128.411C93.2919 128.411 93.827 128.411 94.3628 128.411C94.1673 128.17 94.103 127.859 94.1295 127.506ZM84.5492 126.243C84.0159 126.256 83.4681 126.229 82.903 126.198C82.1109 126.156 81.1371 126.243 80.9359 127.189C80.8844 127.432 80.8127 127.677 80.6783 127.889C80.5604 128.075 80.428 128.247 80.2829 128.408C83.7798 128.409 87.2763 128.41 90.7738 128.411C90.5229 128.19 90.4579 127.848 90.4943 127.467C88.5279 126.945 86.4595 126.807 84.4462 126.56C84.1391 126.522 84.3025 126.367 84.5492 126.243ZM77.6417 128.982C77.8009 129.189 78.0836 129.232 78.5463 128.982C78.2445 128.982 77.9431 128.982 77.6417 128.982ZM71.7252 127.083C71.266 127.601 70.7616 128.069 70.2216 128.406C70.8156 128.406 71.409 128.406 72.0037 128.406C71.7563 128.038 71.6839 127.581 71.7252 127.083ZM65.5275 128.405C66.0559 128.405 66.5839 128.405 67.1123 128.405C66.921 128.164 66.8585 127.856 66.885 127.506C66.4745 127.864 66.0146 128.19 65.5275 128.405ZM148.748 130.813C148.95 130.727 149.152 130.64 149.348 130.539C156.547 126.86 153.535 116.239 152.022 110.062C149.751 100.795 147.441 91.5499 145.629 82.1772C144.933 78.5822 143.401 74.7275 140.183 72.6686C136.923 70.5822 133.037 70.5434 129.323 71.1106C129.315 71.1117 129.309 71.1113 129.302 71.1124C129.2 71.1572 129.09 71.1819 128.986 71.1696C126.874 70.9169 125.111 69.3994 123.79 67.5022C121.906 70.1213 117.577 72.5885 114.987 70.0073C113.663 72.4025 111.745 74.4571 109.337 75.7098C108.123 76.4111 106.472 77.133 104.8 77.133C104.484 77.133 104.175 77.1065 103.879 77.0539C103.866 77.0511 103.854 77.0483 103.841 77.0465C102.043 77.0613 100.267 76.6812 98.6694 75.8633C94.4398 80.6768 94.732 87.5564 94.6537 93.6017C94.6007 97.7043 94.8923 101.851 94.3851 105.934C93.9431 109.498 93.0946 112.992 92.6276 116.552C94.6208 116.022 96.6843 115.776 98.8685 116.004C99.3813 116.057 98.4234 116.444 98.2052 116.421C96.1785 116.21 94.2799 116.45 92.4504 116.955C92.3294 117.022 92.1518 117.066 91.987 117.088C89.9186 117.713 87.9346 118.667 85.9523 119.69C85.7169 119.812 85.4814 119.934 85.2457 120.058C85.3445 120.032 85.4405 120.02 85.5189 120.027C85.5496 120.03 85.5785 120.035 85.6029 120.045C85.6226 120.052 85.6396 120.062 85.6586 120.069C85.7656 120.069 85.8718 120.069 85.9784 120.069C86.3102 120.069 86.3137 120.198 86.1884 120.332C87.8248 121.308 88.2286 123.328 88.0775 125.189C88.057 125.437 87.5717 125.606 87.2759 125.549C87.1545 125.622 87.0327 125.686 86.9095 125.745C86.4874 125.946 86.0554 126.074 85.6131 126.149C85.7649 126.167 85.9156 126.185 86.0674 126.201C87.588 126.371 89.1205 126.528 90.6118 126.859C90.7244 126.467 90.8882 126.081 91.0174 125.782C92.2831 122.856 94.3325 120.264 97.7531 120.165C97.9956 120.158 98.0407 120.208 97.9899 120.276C97.9825 120.285 97.9723 120.296 97.9606 120.307C97.9737 120.297 97.9874 120.288 98.0005 120.278C99.8045 118.86 101.981 118.55 104.059 119.637C105.372 116.288 104.396 113.029 102.694 109.962C101.223 107.313 98.981 104.543 98.513 101.473C97.56 95.2201 103.462 90.9739 103.617 84.9424C103.626 84.5827 104.647 84.4161 104.64 84.6688C104.482 90.8115 97.6175 95.8057 99.7643 102.166C101.736 108.01 107.796 113.141 104.976 119.74C107.322 118.735 110.154 118.901 112.732 118.94C112.774 118.911 112.82 118.885 112.87 118.864C112.946 118.722 113.125 118.596 113.362 118.593C120.421 118.502 127.923 114.798 135.111 114.718C133.894 111.658 133.797 108.398 132.994 105.225C132.108 101.729 131.056 98.2454 130.986 94.6126C130.979 94.2283 132.004 94.0327 132.009 94.3387C132.078 98.0075 133.237 101.406 134.017 104.951C134.738 108.232 134.928 111.619 136.252 114.739C138.574 114.845 140.86 115.369 143.082 116.569C143.561 116.827 142.646 117.323 142.286 117.128C133.322 112.289 122.949 118.982 113.619 119.271C114.404 120.957 114.94 122.766 114.688 124.642C114.675 124.742 114.619 124.826 114.541 124.893C114.616 124.886 114.689 124.89 114.753 124.914C117.921 126.089 121.13 127.193 124.38 128.117C128.246 129.215 132.269 129.969 136.21 130.749C137.835 131.071 139.604 131.416 141.394 131.597C143.926 131.853 146.493 131.772 148.748 130.813Z" fill="white"/>
<path d="M108.233 55.9932C107.397 56.4846 106.51 56.7701 105.534 56.6363C104.846 56.5417 105.368 55.804 105.883 55.8746C106.592 55.972 107.173 55.7229 107.773 55.3699C108.285 55.0706 108.83 55.6431 108.233 55.9932ZM110.669 48.1729C110.818 47.5704 110.941 46.9576 111.211 46.3943C111.444 45.9043 110.414 45.9742 110.246 46.3261C109.95 46.9463 109.804 47.6131 109.64 48.2763C109.532 48.715 110.571 48.5696 110.669 48.1729ZM101.714 47.2407C101.862 46.6378 101.987 46.0254 102.256 45.4621C102.489 44.9722 101.459 45.042 101.291 45.394C100.995 46.0141 100.848 46.6809 100.685 47.3445C100.577 47.7835 101.617 47.6378 101.714 47.2407ZM109.074 43.0227C109.792 42.8007 110.51 42.7926 111.181 43.1618C111.467 43.3189 112.411 42.9024 111.997 42.6743C111.063 42.1608 109.933 42.2194 108.941 42.5261C108.802 42.5692 108.439 42.698 108.496 42.9115C108.551 43.118 108.935 43.0658 109.074 43.0227ZM101.753 41.3528C101.526 41.3482 101.217 41.4344 101.076 41.6253C100.93 41.8219 101.199 41.8992 101.347 41.902C101.675 41.9088 101.955 42.0775 102.222 42.2532C102.42 42.3838 102.687 42.3365 102.895 42.2511C102.97 42.2204 103.369 41.991 103.174 41.8622C102.724 41.5653 102.301 41.3638 101.753 41.3528ZM153.023 127.492C148.011 133.476 138.572 130.939 132.127 129.51C128.944 128.805 125.821 128.051 122.726 127.186C119.915 126.399 117.128 125.519 114.345 124.493C113.044 125.189 111.656 125.124 110.146 125.043C109.354 125 108.381 125.088 108.18 126.034C108.132 126.257 108.065 126.481 107.951 126.68C107.941 126.698 107.933 126.717 107.922 126.734C107.893 126.779 107.86 126.822 107.83 126.866C109.173 126.873 110.516 126.897 111.86 126.924C113.656 126.961 115.453 127 117.25 127.005C117.588 127.005 117.567 127.123 117.421 127.243C117.42 127.244 117.419 127.245 117.418 127.246C117.5 127.299 117.556 127.381 117.556 127.501C117.556 128.693 117.556 129.885 117.556 131.077C117.556 131.192 117.486 131.288 117.383 131.359C117.844 131.365 116.895 131.742 116.702 131.741C96.1862 131.737 75.6721 131.326 55.1562 131.313C54.8721 131.523 54.2734 131.545 54.2734 131.17C54.2734 129.927 54.2734 128.683 54.2734 127.44C54.2734 127.065 55.1633 126.876 55.2879 127.247C58.0325 127.247 60.7779 127.249 63.5223 127.249C62.9046 126.693 63.4474 125.382 63.7746 124.625C64.9952 121.803 66.9485 119.299 70.1542 119.035C70.2696 118.977 70.3928 118.937 70.4909 118.937C75.1211 118.936 79.7514 118.92 84.3816 118.915C84.4067 118.899 84.4374 118.881 84.4748 118.862C86.8139 117.637 89.1601 116.469 91.6033 115.694C92.1278 111.692 93.2047 107.759 93.4927 103.727C93.7885 99.5791 93.606 95.4056 93.6509 91.2501C93.7148 85.3718 93.7832 78.9601 98.0856 74.4308C98.0937 74.4224 98.106 74.4132 98.1187 74.4051C97.578 74.0849 97.0595 73.7147 96.5738 73.2851C94.8923 71.7988 93.3819 69.7907 92.7123 67.6239C92.5013 66.9419 92.382 66.236 92.3198 65.5212C92.1211 64.5619 92.0855 63.6996 92.2715 63.0833C92.286 63.0356 92.3008 62.983 92.3156 62.9276C92.3523 62.4098 92.4053 61.8955 92.466 61.3908C92.7247 59.2359 93.1306 57.1037 93.6237 54.9904C93.6565 54.7476 93.6756 54.6008 93.677 54.5916L93.8454 54.0745C94.3208 52.1406 94.8605 50.2218 95.4298 48.3179C95.4312 48.3141 95.4344 48.3102 95.4362 48.3063C95.0906 47.4479 95.2096 46.3226 95.2611 45.3985C95.3127 44.4794 95.3741 43.6771 96.3119 43.2299C96.5011 43.1396 96.6924 43.0682 96.8844 43.0051C98.4509 39.834 97.1456 36.0661 98.692 32.8714C98.9588 32.3204 99.261 31.7938 99.5959 31.2936C99.5691 31.2131 99.5871 31.1132 99.6796 30.995C104.6 24.7086 113.713 22.5022 121.123 25.0941C120.701 24.0076 120.791 22.9974 121.235 22.1489C121.302 21.923 121.435 21.7246 121.627 21.5485C122.372 20.6142 123.585 19.9538 124.968 19.7261C128.469 19.149 131.002 19.6502 133.511 22.2622C134.807 23.612 136.254 25.3002 137.033 27.1582C137.117 27.3397 137.194 27.5207 137.259 27.7011C137.334 27.9122 137.386 28.1229 137.422 28.3326C137.514 28.7123 137.577 29.0967 137.595 29.4861C137.725 32.1284 135.853 33.6313 133.619 34.5229C136.288 37.5252 135.518 41.5537 136.335 45.3841C137.299 49.901 141.263 52.2211 144.378 55.2008C147.439 58.1294 149.386 62.9269 148.323 67.1922C147.653 69.8836 145.832 72.048 142.94 72.2552C142.805 72.2647 142.706 72.2449 142.636 72.2064L142.52 72.2308C144.632 74.3122 145.957 77.1593 146.521 80.073C148.35 89.5294 150.651 98.8622 152.941 108.213C153.811 111.76 154.619 115.381 154.802 119.041C154.941 121.801 154.909 125.24 153.023 127.492ZM107.746 44.6485C109.268 43.352 111.653 44.0968 113.591 44.538C113.116 43.9429 112.64 43.3467 112.148 42.7647C110.029 40.2533 107.351 36.9206 107.208 33.4675L107.096 33.4834C106.204 35.1381 104.998 36.5811 104.929 38.5492C104.918 38.8718 103.894 39.09 103.908 38.6844C103.979 36.6372 105.259 35.1427 106.18 33.4153C106.153 33.4216 106.124 33.4301 106.094 33.4393C105.719 33.7443 105.328 34.0309 104.938 34.3154C104.313 34.8918 103.439 35.5991 102.784 36.1166C102.51 36.4152 102.257 36.7381 102.04 37.0989C101.995 37.173 101.919 37.2323 101.829 37.276C101.645 39.1923 101.202 41.0687 100.715 42.9366C101.398 43.0541 102.079 43.1985 102.752 43.3097C103.021 43.1494 103.598 43.0446 103.64 43.2126C103.659 43.2853 103.666 43.3647 103.678 43.4417C103.775 43.4671 103.765 43.5155 103.7 43.5702C103.799 44.4462 103.555 45.5344 103.389 46.414C104.529 46.0685 105.682 46.3466 106.697 47.0518C106.831 46.1444 107.093 45.2037 107.746 44.6485ZM107.66 49.4238C107.874 50.1989 108.777 50.4234 109.486 50.5219C111.054 50.7397 114.227 51.1 114.601 48.9872C114.825 47.7214 114.495 46.3399 113.98 45.1546C112.333 44.8945 108.819 43.4498 108.126 45.3802C107.695 46.5831 107.31 48.1588 107.66 49.4238ZM99.6118 47.253C99.4551 47.9449 99.3005 48.6737 99.1678 49.4234C99.519 49.4601 99.8716 49.4767 100.219 49.4774C100.716 49.4781 101.236 49.4799 101.725 49.3737C101.737 49.3708 101.747 49.3606 101.759 49.3535C101.854 49.0804 101.942 48.8192 102.013 48.5753C102.247 47.5061 102.414 46.4211 102.527 45.3329C102.575 44.8716 102.697 44.3029 102.662 43.8031C102.13 43.7124 101.391 43.5183 100.607 43.3457C100.264 44.6478 99.9079 45.9464 99.6118 47.253ZM117.507 69.281C118.422 69.4455 119.396 69.1741 120.3 68.6612C121.477 67.9931 122.53 66.9172 123.161 65.8636C123.198 65.804 123.276 65.7528 123.374 65.7111C122.391 64.1291 121.7 62.365 121.349 60.8744C120.891 58.9257 120.828 57.1241 122.322 55.6099C123.111 54.8108 124.565 53.8225 124.555 52.5758C124.546 51.4601 124.025 50.7534 123.285 50.4855C122.572 50.4287 121.885 50.6147 121.873 50.6186L121.825 50.6253H121.493C121.39 50.7238 121.153 50.8251 120.946 50.8706C120.618 51.0644 119.972 50.9002 120.117 50.6271C120.116 50.6263 120.115 50.626 120.113 50.6253H119.804L119.752 50.567C119.724 50.5353 119.638 50.44 119.512 50.2999C118.011 49.4319 116.774 48.2777 115.639 47.0063C115.835 48.3038 115.627 49.602 114.478 50.374C112.976 51.3831 110.02 51.2384 108.377 50.8695C106.859 50.5293 106.42 49.8131 106.566 48.2C106.58 48.0486 106.594 47.8884 106.611 47.7239C106.41 47.7804 106.199 47.7906 106.093 47.7038C105.301 47.0554 104.277 46.5083 103.29 46.9996C103.206 47.6628 103.174 48.6123 102.768 49.1668C102.148 50.9338 101.276 53.2704 103.012 53.5521C103.584 53.6449 102.685 54.1345 102.38 54.0851C100.284 53.7452 100.968 51.6182 101.607 49.7845C100.855 49.9843 99.9549 50.0394 99.0749 49.9769C98.5829 53.0668 98.5367 56.4383 100.291 59.0065C101.81 61.2281 104.067 61.9774 106.486 62.2051C106.915 62.2016 107.361 62.1885 107.799 62.1737C108.286 62.1575 108.789 62.1405 109.249 62.1405C110.006 62.1405 110.538 62.1875 110.929 62.2884C111.869 62.3459 112.779 62.5895 113.364 63.425C114.298 64.7588 114.7 66.3521 115.54 67.7361C115.546 67.7449 115.541 67.7569 115.533 67.7693C115.533 67.7732 115.535 67.7767 115.532 67.7809C115.51 67.8293 115.484 67.8766 115.462 67.925C115.479 67.9362 115.494 67.949 115.505 67.9645C116.09 68.7449 116.779 69.1501 117.507 69.281ZM96.2808 46.4793C96.3415 47.504 96.259 48.5498 97.3443 48.9903C97.6038 49.0955 97.8727 49.1785 98.1459 49.2459C98.5264 47.2382 99.1092 45.2171 99.6411 43.2094L99.4904 43.1893L98.1184 43.027C98.004 43.0305 97.8925 43.0386 97.7862 43.0513C97.7746 43.0732 97.7647 43.0954 97.7527 43.1173C97.6479 43.3054 97.1304 43.3923 96.8777 43.3697C96.8092 43.4212 96.7422 43.4756 96.6875 43.5412C96.08 44.2673 96.229 45.6071 96.2808 46.4793ZM64.2854 126.594C64.8544 127.835 66.3986 126.049 66.8889 125.492C66.9287 125.446 67.0184 125.404 67.1275 125.369C67.6241 124.041 68.7134 122.522 68.9297 121.807C69.0663 121.356 70.0853 121.359 69.9113 121.936C69.587 123.007 68.8344 123.924 68.3325 124.914C68.1761 125.223 67.6276 126.091 67.8885 126.445C68.1624 126.817 68.5044 127.119 68.9918 126.949C70.6102 126.382 71.8163 124.437 72.7269 123.072C72.7319 123.065 72.7382 123.059 72.7439 123.052C72.8187 122.912 72.8939 122.775 72.9677 122.644C73.136 122.348 74.1642 122.243 73.9217 122.672C73.848 122.802 73.7604 122.967 73.6665 123.155C73.669 123.224 73.6471 123.302 73.5878 123.391C73.5508 123.447 73.5098 123.507 73.471 123.566C72.9228 124.773 72.3493 126.533 73.0736 127.251C73.8088 127.251 74.544 127.251 75.2796 127.251C75.8408 126.905 76.3092 126.302 76.7024 125.707C76.7391 125.613 76.7741 125.525 76.8051 125.449C76.832 125.382 76.8962 125.325 76.9784 125.277C77.0967 125.088 77.2079 124.906 77.3113 124.743C77.8499 123.893 78.3624 123.018 79.0557 122.283C79.2929 122.032 80.2932 122.019 79.8781 122.458C79.1136 123.269 78.469 124.507 77.7183 125.62C77.5697 126.091 77.4377 126.747 77.4701 127.251C78.0737 127.251 78.6776 127.251 79.2812 127.252C79.8008 126.649 79.8124 125.937 80.3006 125.229C81.5826 123.371 85.1232 125.219 86.8037 124.014C86.8605 123.974 86.9576 123.943 87.0663 123.922C87.164 122.142 86.7066 120.24 84.9587 119.473C80.0013 119.476 75.0438 119.495 70.086 119.496C69.9562 119.496 69.876 119.476 69.8347 119.444C67.479 119.645 65.9782 121.808 65.0644 123.811C64.7573 124.489 63.943 125.847 64.2854 126.594ZM94.1295 126.351C93.7144 126.712 93.2492 127.04 92.7565 127.255C93.2919 127.255 93.827 127.256 94.3628 127.256C94.1673 127.014 94.103 126.704 94.1295 126.351ZM84.5492 125.087C84.0159 125.1 83.4681 125.073 82.903 125.043C82.1109 125 81.1371 125.088 80.9359 126.033C80.8844 126.276 80.8127 126.521 80.6783 126.734C80.5604 126.919 80.428 127.092 80.2829 127.252C83.7798 127.253 87.2763 127.254 90.7738 127.255C90.5229 127.034 90.4579 126.692 90.4943 126.311C88.5279 125.789 86.4595 125.651 84.4462 125.405C84.1391 125.367 84.3025 125.211 84.5492 125.087ZM77.6417 127.826C77.8009 128.033 78.0836 128.076 78.5463 127.826C78.2445 127.826 77.9431 127.826 77.6417 127.826ZM71.7252 125.927C71.266 126.446 70.7616 126.913 70.2216 127.25C70.8156 127.25 71.409 127.25 72.0037 127.251C71.7563 126.883 71.6839 126.425 71.7252 125.927ZM65.5275 127.249C66.0559 127.249 66.5839 127.249 67.1123 127.249C66.921 127.009 66.8585 126.7 66.885 126.35C66.4745 126.708 66.0146 127.034 65.5275 127.249ZM116.59 131.356C116.548 131.306 116.521 131.243 116.521 131.161C116.521 129.969 116.521 128.777 116.521 127.585C116.521 127.55 116.529 127.518 116.542 127.487C115.732 127.483 114.922 127.473 114.112 127.46C114.112 128.663 114.112 129.866 114.112 131.069C114.112 131.184 114.028 131.28 113.909 131.349C114.803 131.351 115.697 131.355 116.59 131.356ZM107.434 127.351C107.285 127.503 107.125 127.644 106.949 127.769C106.206 128.291 105.209 128.727 104.291 128.453C103.712 128.281 103.544 127.811 103.562 127.275C102.871 127.86 102.055 128.211 101.024 128.106C99.3439 127.934 98.878 127.03 98.9697 125.929C98.0284 126.99 96.9007 127.858 95.6624 127.773C95.5781 127.767 95.5011 127.757 95.4242 127.747C95.3183 127.797 95.2085 127.831 95.1171 127.831C89.95 127.831 84.784 127.829 79.6172 127.827C78.8848 128.322 77.9308 128.717 77.0483 128.453C76.6823 128.343 76.4836 128.114 76.3883 127.826C76.0837 127.826 75.7784 127.826 75.4737 127.826C74.9778 128.06 74.4215 128.172 73.7809 128.106C73.3379 128.061 72.9811 127.963 72.6955 127.826C66.8984 127.824 61.1012 127.822 55.3045 127.822C55.3045 128.857 55.3045 129.893 55.3045 130.929C74.5874 130.935 93.8676 131.295 113.15 131.348C113.11 131.303 113.084 131.245 113.084 131.171C113.084 129.928 113.084 128.685 113.084 127.442C111.199 127.404 109.317 127.362 107.434 127.351ZM113.986 124.054C114.02 124.002 114.068 123.952 114.127 123.907C113.959 123.924 113.797 123.887 113.711 123.787C113.661 123.73 113.637 123.652 113.65 123.552C113.894 121.736 113.357 119.969 112.576 118.345C110.084 118.307 107.156 117.985 104.935 119.193C104.883 119.368 104.608 119.526 104.354 119.559C104.036 119.788 103.734 120.054 103.458 120.368C103.249 120.606 102.223 120.684 102.509 120.359C102.877 119.939 103.277 119.589 103.7 119.292C101.662 118.036 99.6414 118.403 97.9574 120.211C97.6652 120.526 96.6755 120.409 97.1103 119.943C97.3712 119.662 97.644 119.408 97.9253 119.182C97.7735 119.294 97.4615 119.42 97.3136 119.424C94.8213 119.497 93.2549 121.742 92.3114 123.811C92.0022 124.489 91.1875 125.847 91.5302 126.594C92.0985 127.836 93.6428 126.049 94.133 125.492C94.1726 125.447 94.2626 125.404 94.3723 125.37C94.8686 124.042 95.9579 122.523 96.1739 121.807C96.3105 121.357 97.3295 121.36 97.1548 121.937C96.8311 123.007 96.0789 123.925 95.577 124.915C95.4203 125.224 94.8721 126.091 95.133 126.446C95.4065 126.818 95.7486 127.12 96.2367 126.949C97.8547 126.382 99.0612 124.438 99.9715 123.073C99.9764 123.065 99.9824 123.06 99.9884 123.053C100.063 122.913 100.138 122.776 100.212 122.645C100.38 122.349 101.408 122.244 101.166 122.672C101.092 122.803 101.005 122.968 100.911 123.156C100.914 123.224 100.891 123.302 100.832 123.391C100.795 123.447 100.754 123.508 100.715 123.567C99.9521 125.248 99.1342 128.007 101.852 127.518C102.724 127.362 103.405 126.525 103.948 125.709C103.984 125.614 104.019 125.526 104.05 125.45C104.077 125.384 104.141 125.326 104.224 125.278C104.342 125.089 104.453 124.907 104.556 124.744C105.095 123.894 105.608 123.019 106.301 122.284C106.538 122.033 107.538 122.02 107.123 122.46C106.359 123.27 105.714 124.508 104.963 125.621C104.614 126.73 104.353 128.863 106.113 127.624C107.064 126.955 106.953 126.089 107.546 125.23C108.396 123.997 110.242 124.396 111.878 124.451C112.679 124.478 113.428 124.422 113.986 124.054ZM148.748 129.657C148.95 129.571 149.152 129.484 149.348 129.383C156.547 125.704 153.535 115.083 152.022 108.906C149.751 99.6395 147.441 90.3942 145.629 81.0215C144.933 77.4265 143.401 73.5717 140.183 71.5129C136.923 69.4265 133.037 69.3876 129.323 69.9549C129.315 69.9559 129.309 69.9556 129.302 69.9566C129.2 70.0015 129.09 70.0262 128.986 70.0138C126.874 69.7611 125.111 68.2437 123.79 66.3465C121.906 68.9655 117.577 71.4327 114.987 68.8515C113.663 71.2467 111.745 73.3013 109.337 74.554C108.123 75.2554 106.472 75.9772 104.8 75.9772C104.484 75.9772 104.175 75.9507 103.879 75.8981C103.866 75.8953 103.854 75.8925 103.841 75.8907C102.043 75.9056 100.267 75.5254 98.6694 74.7076C94.4398 79.521 94.732 86.4007 94.6537 92.446C94.6007 96.5485 94.8923 100.695 94.3851 104.779C93.9431 108.342 93.0946 111.837 92.6276 115.396C94.6208 114.866 96.6843 114.62 98.8685 114.848C99.3813 114.901 98.4234 115.288 98.2052 115.266C96.1785 115.054 94.2799 115.294 92.4504 115.799C92.3294 115.866 92.1518 115.91 91.987 115.932C89.9186 116.558 87.9346 117.511 85.9523 118.535C85.7169 118.656 85.4814 118.778 85.2457 118.902C85.3445 118.876 85.4405 118.864 85.5189 118.872C85.5496 118.874 85.5785 118.879 85.6029 118.889C85.6226 118.896 85.6396 118.906 85.6586 118.914C85.7656 118.914 85.8718 118.913 85.9784 118.913C86.3102 118.913 86.3137 119.042 86.1884 119.177C87.8248 120.152 88.2286 122.173 88.0775 124.033C88.057 124.281 87.5717 124.45 87.2759 124.393C87.1545 124.466 87.0327 124.53 86.9095 124.589C86.4874 124.79 86.0554 124.918 85.6131 124.993C85.7649 125.011 85.9156 125.029 86.0674 125.045C87.588 125.215 89.1205 125.372 90.6118 125.703C90.7244 125.312 90.8882 124.925 91.0174 124.626C92.2831 121.7 94.3325 119.108 97.7531 119.009C97.9956 119.002 98.0407 119.053 97.9899 119.12C97.9825 119.13 97.9723 119.141 97.9606 119.151C97.9737 119.141 97.9874 119.132 98.0005 119.122C99.8045 117.704 101.981 117.394 104.059 118.481C105.372 115.132 104.396 111.873 102.694 108.806C101.223 106.158 98.981 103.387 98.513 100.317C97.56 94.0643 103.462 89.8181 103.617 83.7866C103.626 83.4269 104.647 83.2603 104.64 83.5131C104.482 89.6558 97.6175 94.6499 99.7643 101.01C101.736 106.854 107.796 111.985 104.976 118.585C107.322 117.579 110.154 117.745 112.732 117.784C112.774 117.755 112.82 117.729 112.87 117.709C112.946 117.566 113.125 117.441 113.362 117.437C120.421 117.346 127.923 113.642 135.111 113.563C133.894 110.502 133.797 107.242 132.994 104.069C132.108 100.573 131.056 97.0896 130.986 93.4569C130.979 93.0725 132.004 92.8769 132.009 93.183C132.078 96.8517 133.237 100.25 134.017 103.796C134.738 107.076 134.928 110.464 136.252 113.583C138.574 113.689 140.86 114.213 143.082 115.413C143.561 115.671 142.646 116.167 142.286 115.973C133.322 111.133 122.949 117.826 113.619 118.115C114.404 119.802 114.94 121.61 114.688 123.486C114.675 123.587 114.619 123.67 114.541 123.737C114.616 123.73 114.689 123.734 114.753 123.758C117.921 124.933 121.13 126.037 124.38 126.961C128.246 128.06 132.269 128.813 136.21 129.593C137.835 129.915 139.604 130.26 141.394 130.442C143.926 130.697 146.493 130.617 148.748 129.657Z" fill="#340679"/>
<path d="M77.6517 127.827C77.8109 128.033 78.0936 128.076 78.5564 127.827C78.2546 127.827 77.9531 127.827 77.6517 127.827ZM71.7352 125.927C71.276 126.446 70.7717 126.913 70.2316 127.25C70.8257 127.25 71.419 127.25 72.0137 127.251C71.7663 126.883 71.6939 126.425 71.7352 125.927ZM65.5375 127.249C66.0659 127.249 66.5939 127.249 67.1223 127.249C66.931 127.009 66.8685 126.7 66.895 126.35C66.4845 126.708 66.0246 127.034 65.5375 127.249ZM47.2668 132.043C46.826 132.224 46.3569 132.38 45.8782 132.497C45.8754 132.498 45.8737 132.499 45.8708 132.5C44.7159 132.949 43.3934 132.971 42.171 133.004C40.0426 133.061 37.9082 132.992 35.7851 132.833C33.3564 132.65 28.9746 132.948 27.6153 130.454C25.6698 126.884 25.872 121.831 26.5833 117.758C21.0494 117.758 15.5163 117.758 9.98248 117.758C9.90165 117.787 9.82082 117.804 9.7527 117.802C7.41958 117.722 6.67129 115.706 6.86189 113.638C6.85766 101.894 6.65117 90.1522 6.64729 78.4082C6.4341 76.0529 7.59889 73.7907 10.1572 73.6897C10.3129 73.6834 10.3933 73.7095 10.4244 73.7512C28.7868 73.7512 47.1493 73.7512 65.5117 73.7512C65.6081 73.7116 65.7076 73.6869 65.7892 73.6897C65.9681 73.6972 66.1358 73.7201 66.2981 73.7512C67.1276 73.7512 67.9557 73.7512 68.7848 73.7512C68.8815 73.7116 68.981 73.6869 69.0622 73.6897C71.4493 73.7847 72.3551 76.0744 72.1687 78.1901C72.1638 89.8296 71.9615 101.467 71.9551 113.107C72.1507 115.369 71.0314 117.45 68.6951 117.687C68.6231 117.708 68.5621 117.721 68.5261 117.721C59.3309 117.721 50.1354 117.721 40.9413 117.721C40.8075 118.6 40.7013 119.484 40.6384 120.377C40.3522 124.399 40.139 134.354 46.8553 131.594C47.3258 131.4 47.9258 131.772 47.2668 132.043ZM67.3782 74.1853C68.5762 74.9876 69.0326 76.6338 68.8949 78.189C68.8903 89.8941 68.6852 101.597 68.6803 113.302C68.8384 115.071 68.1618 116.628 66.7605 117.325C67.3023 117.325 67.8441 117.325 68.3859 117.325C68.5268 117.231 68.7004 117.157 68.8278 117.152C70.4677 117.09 70.9718 115.147 70.9485 113.736C70.9383 113.722 70.9305 113.706 70.9305 113.687C70.9305 113.583 70.9315 113.48 70.9319 113.376C70.9312 113.369 70.9312 113.363 70.9305 113.356C70.9298 113.35 70.9319 113.345 70.9319 113.34C70.9397 101.695 71.1426 90.0512 71.1458 78.4068C71.1458 78.3987 71.1493 78.3902 71.1504 78.3821C71.1483 78.3676 71.1454 78.3538 71.1468 78.338C71.2976 76.6751 70.677 74.3261 68.6584 74.246C68.5317 74.2411 68.453 74.2181 68.4106 74.1849C68.0665 74.1853 67.722 74.1853 67.3782 74.1853ZM26.6676 117.287C26.7089 117.066 26.7506 116.845 26.7947 116.631C28.257 109.506 30.4183 102.514 28.3908 95.2596C28.2948 94.9151 29.1493 94.655 29.3696 94.9084C33.554 94.9084 37.7385 94.9084 41.9229 94.9084C42.2063 94.7693 42.6295 94.7499 42.6952 94.9857C44.1152 100.069 43.5907 105.152 42.4806 110.243C41.9635 112.613 41.3871 114.955 41.0027 117.335C41.0299 117.33 41.0542 117.326 41.0715 117.326C49.0867 117.326 57.1023 117.326 65.1175 117.326C65.2586 117.233 65.4327 117.158 65.5611 117.154C67.272 117.095 67.7495 115.145 67.6652 113.725C67.6592 113.715 67.6556 113.703 67.6556 113.689C67.6556 113.652 67.656 113.614 67.656 113.576C67.656 113.574 67.656 113.571 67.6556 113.569C67.6553 113.567 67.6564 113.565 67.656 113.563C67.6617 101.845 67.8674 90.1271 67.8706 78.4082C67.8706 78.4001 67.8741 78.3916 67.8752 78.3839C67.8731 78.3694 67.8703 78.3556 67.8717 78.339C68.0227 76.6769 67.4019 74.3275 65.3832 74.2474C65.2565 74.2425 65.1778 74.2195 65.1355 74.1864C46.7522 74.1864 28.3693 74.1864 9.98601 74.1864C9.90306 74.222 9.82012 74.2446 9.75129 74.2474C7.95292 74.3187 7.54136 76.7394 7.66878 78.135C7.67266 89.8952 7.87985 101.655 7.88338 113.415C7.88338 113.423 7.88021 113.431 7.87879 113.439C7.88091 113.454 7.88409 113.468 7.88232 113.484C7.72843 115.101 8.18129 117.177 10.1551 117.245C10.2589 117.248 10.3273 117.265 10.3732 117.288C15.8057 117.287 21.2365 117.287 26.6676 117.287ZM42.7142 132.43C42.1004 132.188 41.5473 131.774 41.1104 131.127C39.6117 128.91 39.4691 125.95 39.4941 123.356C39.5852 113.86 44.3093 104.84 41.6928 95.3358C37.6287 95.3358 33.5657 95.3358 29.5016 95.3358C31.1485 101.635 29.7441 107.759 28.3615 113.983C27.3852 118.377 26.5331 123.448 27.7399 127.883C28.1681 129.454 28.7035 131.081 30.4119 131.475C32.0486 131.852 33.7326 132.031 35.405 132.166C37.3248 132.32 39.2537 132.424 41.181 132.418C41.6617 132.416 42.1841 132.432 42.7142 132.43ZM42.7965 52.0366C44.01 47.5532 45.2231 43.0698 46.4366 38.5867C46.4797 38.4275 46.7501 38.31 47.0024 38.2708C47.2767 38.1346 47.7063 38.0813 47.8033 38.2885C47.8143 38.3132 47.8298 38.3375 47.8418 38.3619C53.7734 39.9668 59.7036 41.5721 65.6353 43.1778C65.9102 43.0126 66.8565 42.9921 66.4188 43.3267C66.398 43.3426 66.374 43.356 66.3528 43.3716C66.3991 43.3843 66.4453 43.3966 66.4916 43.409C66.6684 43.457 66.7203 43.5396 66.6991 43.6299C66.698 43.6373 66.6998 43.6441 66.6973 43.6522C65.4838 48.1356 64.2707 52.619 63.0572 57.1024C63.0409 57.1617 62.9926 57.2153 62.9266 57.2612C62.7483 57.4133 62.4413 57.5326 62.2457 57.4797C55.9569 55.7777 49.6674 54.076 43.3785 52.3737C43.2469 52.338 43.1858 52.2826 43.171 52.2194C42.9444 52.2399 42.7552 52.1898 42.7965 52.0366ZM48.5347 39.3417C48.7426 39.587 48.954 39.8257 49.1305 40.0547C50.0094 41.1923 50.8936 42.3257 51.7799 43.4577C52.9404 44.9402 54.1035 46.4212 55.2689 47.8994C56.7934 47.2161 58.3179 46.5317 59.8399 45.8434C61.2853 45.1901 63.3064 44.5501 64.7677 43.7351C59.3567 42.2703 53.9457 40.8062 48.5347 39.3417ZM43.8589 51.7365C43.9041 51.7348 43.9479 51.7369 43.9856 51.7471C50.0542 53.3895 56.1235 55.0322 62.1921 56.6742C63.3381 52.4386 64.4842 48.2037 65.6307 43.9681C65.5813 43.9547 65.5322 43.9416 65.4831 43.9282C64.049 44.7372 62.2891 45.2839 60.8741 45.9239C58.9119 46.8116 56.948 47.6958 54.9823 48.5757C54.6174 48.7395 54.1395 48.5757 54.3636 48.3477C53.0357 46.6637 51.7107 44.9772 50.3906 43.2872C49.4305 42.0592 48.0822 40.7423 47.2107 39.347C46.0939 43.4771 44.9764 47.6068 43.8589 51.7365ZM35.5861 50.9787C35.6877 51.0288 35.7195 51.0952 35.7057 51.1662C35.7047 51.1736 35.7061 51.1796 35.7036 51.1873C34.9317 53.8064 34.1597 56.4254 33.3871 59.0444C33.385 59.0518 33.379 59.0578 33.3758 59.0649C33.3673 59.0836 33.3564 59.1023 33.3426 59.1213C33.2028 59.3134 32.8089 59.4937 32.5749 59.4245C28.9019 58.3413 25.2286 57.2584 21.5545 56.1751C21.4508 56.1444 21.3918 56.1021 21.3632 56.0541C21.2044 56.0452 21.0939 55.9891 21.1288 55.8709C21.9011 53.2522 22.6734 50.6339 23.4454 48.0149C23.4853 47.8786 23.6917 47.7741 23.9088 47.7229C24.1792 47.6019 24.5653 47.5624 24.6645 47.7498C28.1289 48.7716 31.5943 49.7924 35.0587 50.8146C35.3739 50.7775 35.7276 50.8171 35.5861 50.9787ZM25.2547 48.7307C25.7608 49.4363 26.3923 50.1136 26.8692 50.7521C27.5299 51.637 28.1928 52.5205 28.8567 53.4029C29.7127 53.0422 30.5683 52.6804 31.4228 52.3168C32.151 52.0069 33.1887 51.6656 33.9797 51.3035C31.0712 50.4454 28.1631 49.5884 25.2547 48.7307ZM34.62 51.5488C33.7891 51.9473 32.864 52.242 32.0564 52.5858C30.9149 53.0718 29.7723 53.5557 28.6291 54.0372C28.2969 54.177 27.8684 54.0531 27.9595 53.8642C27.231 52.8957 26.5031 51.9261 25.7785 50.9544C25.2939 50.3049 24.6575 49.6219 24.1601 48.9057C23.5061 51.1231 22.8524 53.3404 22.1983 55.5581C25.6451 56.5743 29.0911 57.5909 32.5385 58.6071C33.2325 56.2549 33.926 53.902 34.62 51.5488ZM64.5958 24.3173C65.9565 22.4999 67.3182 20.6824 68.6793 18.8654C68.7647 18.7514 69.0308 18.6677 69.2659 18.6462C69.5331 18.5738 69.8222 18.5893 69.837 18.7478C69.8391 18.7683 69.8433 18.7891 69.8451 18.8096C72.2495 20.6104 74.6536 22.4113 77.0587 24.2121C77.3443 24.1938 77.4703 24.3307 77.3947 24.4719C77.4304 24.5075 77.4523 24.5436 77.4614 24.5803C77.4632 24.588 77.465 24.5958 77.466 24.6036C77.4773 24.7042 77.405 24.8026 77.2924 24.882C75.9892 26.6218 74.6861 28.3616 73.3829 30.1017C73.3437 30.3739 72.72 30.616 72.4701 30.4286C69.9206 28.519 67.3712 26.6095 64.8213 24.6999C64.7483 24.6452 64.7154 24.587 64.7084 24.5294C64.5732 24.5054 64.5029 24.4405 64.5958 24.3173ZM70.1705 20.1978C70.3453 20.7424 70.55 21.2828 70.6993 21.7908C70.9622 22.688 71.2273 23.5852 71.4942 24.4818C72.2905 24.4475 73.0864 24.413 73.8827 24.3759C74.3687 24.3537 75.0694 24.354 75.6952 24.3353C73.8534 22.9566 72.0116 21.5776 70.1705 20.1978ZM65.6469 24.1726C68.0453 25.9692 70.4444 27.7658 72.8436 29.5628C74.0214 27.9906 75.1986 26.4182 76.3761 24.846C76.3595 24.8337 76.3429 24.821 76.3259 24.809C75.5395 24.8933 74.7065 24.8563 73.9452 24.8919C72.8722 24.9421 71.7988 24.9897 70.7254 25.0352C70.4236 25.0483 70.3993 24.9484 70.4967 24.8316C70.4949 24.827 70.491 24.8238 70.4896 24.8189C70.1949 23.8281 69.9019 22.8362 69.6121 21.8444C69.4191 21.1861 69.125 20.4696 68.9486 19.7654C67.848 21.2345 66.7467 22.7035 65.6469 24.1726ZM69.9923 61.3433C72.7867 60.2321 75.5819 59.1203 78.3767 58.0091C78.4741 57.7165 79.3315 57.5746 79.3954 57.8016C79.4921 57.8178 79.5694 57.8588 79.5994 57.934C80.4384 60.0444 81.2784 62.1544 82.1174 64.2651C82.1323 64.3022 82.1284 64.3403 82.11 64.3774C82.1104 64.4723 82.0285 64.5751 81.8188 64.6584C78.8588 65.8355 75.8992 67.0126 72.9396 68.1901C72.8415 68.2293 72.7398 68.2417 72.6445 68.2367C72.3897 68.3109 72.1037 68.307 72.037 68.1407C71.198 66.0307 70.3587 63.9207 69.52 61.8106C69.4826 61.715 69.5648 61.6179 69.6972 61.5409C69.7166 61.5222 69.7392 61.5042 69.7646 61.4859C69.8112 61.4347 69.8832 61.3867 69.9923 61.3433ZM78.8846 58.9844C78.5839 59.517 78.2341 60.038 77.9623 60.5322C77.466 61.4347 76.9676 62.3365 76.4675 63.2373C76.3355 63.4748 75.5187 63.6076 75.4922 63.3545C74.5435 63.1014 73.594 62.8469 72.6463 62.59C72.0663 62.4329 71.4102 62.3178 70.7875 62.1502C71.4977 63.9362 72.2072 65.7222 72.9177 67.5082C75.6108 66.437 78.3043 65.3661 80.9975 64.2948C80.2933 62.5243 79.5888 60.7549 78.8846 58.9844ZM71.191 61.5558C71.9407 61.8028 72.7797 61.9341 73.504 62.1297C74.2674 62.3358 75.0313 62.5405 75.7954 62.7446C76.1699 62.0697 76.5437 61.3945 76.9161 60.7185C77.2447 60.1224 77.6852 59.4867 78.0205 58.8397C75.7443 59.7447 73.4676 60.6508 71.191 61.5558Z" fill="#340679"/>
<path fill-rule="evenodd" clip-rule="evenodd" d="M5.05602 25.0256C5.05602 28.9613 8.25701 32.1635 12.1927 32.1635H46.5763C50.5117 32.1635 53.7135 28.9617 53.7135 25.0256C53.7135 21.0915 50.5121 17.8893 46.5763 17.8893H12.1927C8.25742 17.8893 5.05602 21.0911 5.05602 25.0256ZM16.373 25.7815H13.1732C12.3822 25.7815 13.3024 25.2313 13.6643 25.2309H16.1028C15.3921 24.5211 14.6814 23.8104 13.9707 23.0997C13.6149 22.7439 14.7356 22.2895 15.0612 22.6151C15.3959 22.9495 15.7304 23.2841 16.0648 23.6186C16.2333 23.7872 16.4017 23.9557 16.5702 24.1241V21.8152C16.5702 21.3368 17.7609 21.1257 17.7609 21.7052V24.3939C17.9631 24.1917 18.1654 23.9896 18.3676 23.7875C18.67 23.4853 18.9724 23.1831 19.2744 22.8808C19.4965 22.6587 20.6477 22.5426 20.3552 22.8356C19.9556 23.2352 19.5561 23.6345 19.1567 24.0339C18.7572 24.4332 18.3577 24.8326 17.9582 25.2322H21.1579C21.9489 25.2322 21.0296 25.7831 20.6665 25.7831H18.2288C18.5841 26.1385 18.9394 26.4936 19.2946 26.8487C19.6499 27.2039 20.0051 27.559 20.3605 27.9144C20.7162 28.2701 19.5956 28.7245 19.27 28.3989L17.7609 26.8899V29.1988C17.7609 29.6768 16.5702 29.8879 16.5702 29.3093V26.6197C16.4441 26.7458 16.318 26.872 16.1918 26.9981C16.1904 26.9995 16.1891 27.0009 16.1877 27.0023C15.8107 27.3794 15.4337 27.7564 15.0567 28.1328C14.8346 28.3557 13.6834 28.471 13.976 28.178C14.3756 27.7785 14.775 27.3791 15.1745 26.9798C15.5739 26.5804 15.9734 26.181 16.373 25.7815ZM28.2551 25.7815H25.0554C24.2644 25.7815 25.1841 25.2313 25.5468 25.2309H27.9849C27.4559 24.7025 26.9271 24.1736 26.3981 23.6446C26.3961 23.6426 26.3942 23.6406 26.3922 23.6386C26.3902 23.6367 26.3882 23.6347 26.3863 23.6327C26.2086 23.455 26.031 23.2774 25.8533 23.0997C25.4975 22.7439 26.6182 22.2895 26.9438 22.6151C27.274 22.9451 27.6041 23.2752 27.9341 23.6053C27.9387 23.6099 27.9433 23.6145 27.9479 23.6191C28.1162 23.7875 28.2845 23.9558 28.4528 24.1241V21.8152C28.4528 21.3368 29.6435 21.1257 29.6435 21.7052V24.3939C29.7696 24.2678 29.8958 24.1416 30.0219 24.0155C30.0233 24.0141 30.0246 24.0127 30.026 24.0113C30.403 23.6343 30.78 23.2572 31.157 22.8808C31.3791 22.6587 32.5303 22.5426 32.2377 22.8356C31.9184 23.1549 31.5992 23.474 31.2799 23.7931C31.2744 23.7987 31.2688 23.8042 31.2633 23.8098C30.789 24.2838 30.3148 24.7579 29.8407 25.2322H33.0405C33.8315 25.2322 32.9117 25.7831 32.5491 25.7831H30.1105C30.4659 26.1385 30.8212 26.4936 31.1766 26.8487C31.5319 27.2039 31.8873 27.559 32.2426 27.9144C32.5984 28.2701 31.4777 28.7245 31.1521 28.3989C30.8169 28.064 30.4819 27.7289 30.147 27.3939C29.979 27.2259 29.8111 27.0579 29.6431 26.8899V29.1988C29.6431 29.6768 28.4524 29.8879 28.4524 29.3093V26.6197C27.9479 27.1242 27.443 27.6291 26.9389 28.1328C26.7168 28.3557 25.5656 28.471 25.8582 28.178C26.2577 27.7785 26.6572 27.3791 27.0566 26.9798C27.4561 26.5804 27.8556 26.181 28.2551 25.7815ZM40.1377 25.7815H36.9379C36.1465 25.7815 37.0663 25.2313 37.4298 25.2309H39.8675C39.1568 24.5211 38.4461 23.8104 37.7358 23.0997C37.3801 22.7439 38.5007 22.2895 38.8263 22.6151L38.8344 22.6233C39.3342 23.1234 39.8352 23.6248 40.3353 24.1241V21.8152C40.3353 21.3368 41.5261 21.1257 41.5261 21.7052V24.3939C42.0302 23.8894 42.5351 23.3845 43.0396 22.8808C43.2617 22.6587 44.4129 22.5426 44.1203 22.8356C43.3208 23.6347 42.522 24.433 41.7229 25.2322H44.9235C45.7141 25.2322 44.7947 25.7831 44.432 25.7831H41.9935C42.3488 26.1385 42.7042 26.4936 43.0595 26.8487C43.4149 27.2039 43.7702 27.559 44.1256 27.9144C44.4813 28.2701 43.3607 28.7245 43.0351 28.3989C42.5318 27.896 42.0285 27.3928 41.5261 26.8899V29.1988C41.5261 29.6768 40.3353 29.8879 40.3353 29.3093V26.6189C40.21 26.7442 40.0847 26.8696 39.9593 26.995C39.5799 27.3745 39.2002 27.7542 38.821 28.1328C38.5989 28.3557 37.4481 28.471 37.7407 28.178C38.1403 27.7785 38.5397 27.3791 38.9392 26.9798C39.3387 26.5804 39.7381 26.181 40.1377 25.7815Z" fill="white"/>
<path fill-rule="evenodd" clip-rule="evenodd" d="M12.1927 16.6667C7.5834 16.6667 3.8335 20.4162 3.8335 25.0256C3.8335 29.6353 7.5834 33.3856 12.1927 33.386H46.5763C51.1861 33.386 54.936 29.6357 54.936 25.0256C54.936 20.4162 51.1861 16.6667 46.5763 16.6667H12.1927ZM12.1927 32.1635C8.25701 32.1635 5.05602 28.9613 5.05602 25.0256C5.05602 21.0911 8.25742 17.8893 12.1927 17.8893H46.5763C50.5121 17.8893 53.7135 21.0915 53.7135 25.0256C53.7135 28.9617 50.5117 32.1635 46.5763 32.1635H12.1927ZM16.373 25.7815H13.1732C12.3822 25.7815 13.3024 25.2313 13.6643 25.2309H16.1028C15.3921 24.5211 14.6814 23.8104 13.9707 23.0997C13.6149 22.7439 14.7356 22.2895 15.0612 22.6151C15.3959 22.9495 15.7304 23.2841 16.0648 23.6186L16.5702 24.1241V21.8152C16.5702 21.3368 17.7609 21.1257 17.7609 21.7052V24.3939L18.3676 23.7875C18.67 23.4853 18.9724 23.1831 19.2744 22.8808C19.4965 22.6587 20.6477 22.5426 20.3552 22.8356L19.1567 24.0339L17.9582 25.2322H21.1579C21.9489 25.2322 21.0296 25.7831 20.6665 25.7831H18.2288L19.2946 26.8487L20.3605 27.9144C20.7162 28.2701 19.5956 28.7245 19.27 28.3989L17.7609 26.8899V29.1988C17.7609 29.6768 16.5702 29.8879 16.5702 29.3093V26.6197L16.1918 26.9981L16.1877 27.0023C15.8107 27.3794 15.4337 27.7564 15.0567 28.1328C14.8346 28.3557 13.6834 28.471 13.976 28.178L15.1745 26.9798L16.373 25.7815ZM28.2551 25.7815H25.0554C24.2644 25.7815 25.1841 25.2313 25.5468 25.2309H27.9849C27.4559 24.7025 26.9271 24.1736 26.3981 23.6446L26.3922 23.6386L26.3863 23.6327L25.8533 23.0997C25.4975 22.7439 26.6182 22.2895 26.9438 22.6151C27.274 22.9451 27.6041 23.2752 27.9341 23.6053L27.9479 23.6191L28.4528 24.1241V21.8152C28.4528 21.3368 29.6435 21.1257 29.6435 21.7052V24.3939L30.0219 24.0155L30.026 24.0113C30.403 23.6343 30.78 23.2572 31.157 22.8808C31.3791 22.6587 32.5303 22.5426 32.2377 22.8356L31.2799 23.7931L31.2633 23.8098C30.789 24.2838 30.3148 24.7579 29.8407 25.2322H33.0405C33.8315 25.2322 32.9117 25.7831 32.5491 25.7831H30.1105C30.4659 26.1385 30.8212 26.4936 31.1766 26.8487C31.5319 27.2039 31.8873 27.559 32.2426 27.9144C32.5984 28.2701 31.4777 28.7245 31.1521 28.3989C30.8169 28.064 30.4819 27.7289 30.147 27.3939L29.6431 26.8899V29.1988C29.6431 29.6768 28.4524 29.8879 28.4524 29.3093V26.6197C27.9479 27.1242 27.443 27.6291 26.9389 28.1328C26.7168 28.3557 25.5656 28.471 25.8582 28.178L27.0566 26.9798L28.2551 25.7815ZM40.1377 25.7815H36.9379C36.1465 25.7815 37.0663 25.2313 37.4298 25.2309H39.8675C39.1568 24.5211 38.4461 23.8104 37.7358 23.0997C37.3801 22.7439 38.5007 22.2895 38.8263 22.6151L38.8344 22.6233C39.3342 23.1234 39.8352 23.6248 40.3353 24.1241V21.8152C40.3353 21.3368 41.5261 21.1257 41.5261 21.7052V24.3939C42.0302 23.8894 42.5351 23.3845 43.0396 22.8808C43.2617 22.6587 44.4129 22.5426 44.1203 22.8356C43.3208 23.6347 42.522 24.433 41.7229 25.2322H44.9235C45.7141 25.2322 44.7947 25.7831 44.432 25.7831H41.9935C42.3488 26.1385 42.7042 26.4936 43.0595 26.8487C43.4149 27.2039 43.7702 27.559 44.1256 27.9144C44.4813 28.2701 43.3607 28.7245 43.0351 28.3989C42.5318 27.896 42.0285 27.3928 41.5261 26.8899V29.1988C41.5261 29.6768 40.3353 29.8879 40.3353 29.3093V26.6189L39.9593 26.995C39.5799 27.3745 39.2002 27.7542 38.821 28.1328C38.5989 28.3557 37.4481 28.471 37.7407 28.178L38.9392 26.9798L40.1377 25.7815Z" fill="#340679"/>
</g>
<defs>
<clipPath id="clip0_831_5368">
<rect width="160" height="160" fill="white" transform="translate(0.5)"/>
</clipPath>
</defs>
</svg>
