<svg width="42" height="14" viewBox="0 0 42 14" fill="none" xmlns="http://www.w3.org/2000/svg">
<path opacity="0.3" d="M2.66423 13.7789L6.92838 11.3178L11.1925 8.85439C11.4428 8.70962 11.6506 8.50156 11.7951 8.2511C11.9396 8.00064 12.0156 7.71659 12.0156 7.42745C12.0156 7.13831 11.9396 6.85424 11.7951 6.60378C11.6506 6.35332 11.4428 6.14529 11.1925 6.00052L6.92838 3.53935L2.66423 1.07818C2.41369 0.933181 2.12936 0.856749 1.83988 0.856577C1.55041 0.856405 1.26598 0.932508 1.01527 1.07721C0.764551 1.22191 0.556397 1.4301 0.411733 1.68083C0.267068 1.93157 0.190999 2.216 0.191214 2.50547L0.191213 12.3516C0.191223 12.641 0.267421 12.9253 0.412138 13.1759C0.556856 13.4265 0.765009 13.6346 1.01565 13.7793C1.26629 13.9239 1.55058 14.0001 1.83997 14C2.12936 13.9999 2.41365 13.9237 2.66423 13.7789Z" fill="white"/>
<path opacity="0.65" d="M17.5597 13.7789L21.8239 11.3178L26.0858 8.85439C26.3367 8.71008 26.545 8.50218 26.6899 8.25167C26.8348 8.00115 26.9111 7.71686 26.9111 7.42745C26.9111 7.13805 26.8348 6.85376 26.6899 6.60324C26.545 6.35272 26.3367 6.14483 26.0858 6.00052L21.8239 3.53935L17.5597 1.07818C17.3092 0.933181 17.0248 0.856749 16.7354 0.856577C16.4459 0.856405 16.1615 0.932508 15.9108 1.07721C15.6601 1.22191 15.4519 1.4301 15.3072 1.68083C15.1626 1.93157 15.0865 2.216 15.0867 2.50547L15.0867 12.3516C15.0867 12.641 15.1629 12.9253 15.3076 13.1759C15.4524 13.4265 15.6605 13.6346 15.9111 13.7793C16.1618 13.9239 16.4461 14.0001 16.7355 14C17.0249 13.9999 17.3091 13.9237 17.5597 13.7789Z" fill="white"/>
<path d="M32.6095 13.7789L36.8737 11.3178L41.1356 8.85439C41.3865 8.71008 41.5948 8.50218 41.7397 8.25167C41.8846 8.00115 41.9609 7.71686 41.9609 7.42745C41.9609 7.13805 41.8846 6.85376 41.7397 6.60324C41.5948 6.35272 41.3865 6.14483 41.1356 6.00052L36.8737 3.53935L32.6095 1.07818C32.359 0.933181 32.0747 0.856749 31.7852 0.856577C31.4957 0.856405 31.2113 0.932508 30.9606 1.07721C30.7099 1.22191 30.5017 1.4301 30.357 1.68083C30.2124 1.93157 30.1363 2.216 30.1365 2.50547L30.1365 12.3516C30.1365 12.641 30.2127 12.9253 30.3575 13.1759C30.5022 13.4265 30.7103 13.6346 30.9609 13.7793C31.2116 13.9239 31.4959 14.0001 31.7853 14C32.0747 13.9999 32.3589 13.9237 32.6095 13.7789Z" fill="white"/>
</svg>
