<svg width="14" height="42" viewBox="0 0 14 42" fill="none" xmlns="http://www.w3.org/2000/svg">
    <path opacity="0.3" d="M13.3497 2.50533L10.8886 6.56216L8.42519 10.619C8.28042 10.8571 8.07236 11.0548 7.8219 11.1922C7.57144 11.3297 7.28739 11.402 6.99825 11.402C6.70911 11.402 6.42504 11.3297 6.17458 11.1922C5.92413 11.0548 5.71609 10.8571 5.57132 10.619L3.11015 6.56216L0.648981 2.50533C0.503982 2.26697 0.42755 1.99649 0.427379 1.72109C0.427207 1.44569 0.503309 1.1751 0.648011 0.936572C0.792712 0.698047 1.0009 0.499993 1.25164 0.362363C1.50237 0.224733 1.7868 0.152384 2.07628 0.152588L11.9224 0.152588C12.2118 0.152598 12.4961 0.225091 12.7467 0.362771C12.9973 0.500452 13.2054 0.698485 13.3501 0.936937C13.4947 1.17539 13.5709 1.44586 13.5708 1.72118C13.5707 1.9965 13.4945 2.26694 13.3497 2.50533Z" fill="white"/>
    <path opacity="0.65" d="M13.3507 16.937L10.8895 21.2012L8.42616 25.4631C8.28185 25.7139 8.07396 25.9223 7.82344 26.0672C7.57292 26.2121 7.28863 26.2884 6.99923 26.2884C6.70983 26.2884 6.42554 26.2121 6.17502 26.0672C5.9245 25.9223 5.71661 25.7139 5.5723 25.4631L3.11113 21.2012L0.649958 16.937C0.504959 16.6865 0.428527 16.4021 0.428355 16.1127C0.428183 15.8232 0.504286 15.5388 0.648988 15.288C0.793689 15.0373 1.00187 14.8292 1.25261 14.6845C1.50335 14.5398 1.78778 14.4638 2.07725 14.464L11.9234 14.464C12.2128 14.464 12.4971 14.5402 12.7477 14.6849C12.9983 14.8296 13.2064 15.0378 13.3511 15.2884C13.4957 15.5391 13.5718 15.8234 13.5718 16.1128C13.5717 16.4021 13.4955 16.6864 13.3507 16.937Z" fill="white"/>
    <path d="M13.3507 31.9933L10.8895 36.2574L8.42616 40.5194C8.28185 40.7702 8.07396 40.9786 7.82344 41.1235C7.57292 41.2684 7.28863 41.3447 6.99923 41.3447C6.70983 41.3447 6.42554 41.2684 6.17502 41.1235C5.9245 40.9786 5.71661 40.7702 5.5723 40.5194L3.11113 36.2574L0.649958 31.9933C0.504959 31.7427 0.428527 31.4584 0.428355 31.1689C0.428183 30.8795 0.504286 30.595 0.648988 30.3443C0.793689 30.0936 1.00187 29.8854 1.25261 29.7408C1.50335 29.5961 1.78778 29.52 2.07725 29.5203L11.9234 29.5203C12.2128 29.5203 12.4971 29.5965 12.7477 29.7412C12.9983 29.8859 13.2064 30.0941 13.3511 30.3447C13.4957 30.5953 13.5718 30.8796 13.5718 31.169C13.5717 31.4584 13.4955 31.7427 13.3507 31.9933Z" fill="white"/>
</svg>
