<svg width="24" height="25" viewBox="0 0 24 25" fill="none" xmlns="http://www.w3.org/2000/svg">
<path d="M23 21.4911V19.4911C22.9993 18.6048 22.7044 17.7439 22.1614 17.0434C21.6184 16.343 20.8581 15.8427 20 15.6211" stroke="#717171" stroke-width="2" stroke-linecap="round" stroke-linejoin="round"/>
<path d="M17 21.4902V19.4902C17 18.4294 16.5786 17.412 15.8284 16.6618C15.0783 15.9117 14.0609 15.4902 13 15.4902H5C3.93913 15.4902 2.92172 15.9117 2.17157 16.6618C1.42143 17.412 1 18.4294 1 19.4902V21.4902" stroke="#717171" stroke-width="2" stroke-linecap="round" stroke-linejoin="round"/>
<path d="M16 3.62109C16.8604 3.84139 17.623 4.34179 18.1676 5.0434C18.7122 5.74501 19.0078 6.60792 19.0078 7.49609C19.0078 8.38426 18.7122 9.24717 18.1676 9.94878C17.623 10.6504 16.8604 11.1508 16 11.3711" stroke="#717171" stroke-width="2" stroke-linecap="round" stroke-linejoin="round"/>
<path d="M9 11.4902C11.2091 11.4902 13 9.69937 13 7.49023C13 5.2811 11.2091 3.49023 9 3.49023C6.79086 3.49023 5 5.2811 5 7.49023C5 9.69937 6.79086 11.4902 9 11.4902Z" stroke="#717171" stroke-width="2" stroke-linecap="round" stroke-linejoin="round"/>
</svg>
