<svg width="33" height="34" viewBox="0 0 33 34" fill="none" xmlns="http://www.w3.org/2000/svg">
<path d="M16.5009 32.3348C24.9701 32.3348 31.8358 25.4692 31.8358 17C31.8358 8.53078 24.9701 1.66514 16.5009 1.66514C8.03175 1.66514 1.16612 8.53078 1.16612 17C1.16612 25.4692 8.03175 32.3348 16.5009 32.3348Z" fill="#FCEA2B"/>
<path fill-rule="evenodd" clip-rule="evenodd" d="M16.501 2.66524C8.58413 2.66524 2.16622 9.08315 2.16622 17C2.16622 24.9169 8.58413 31.3348 16.501 31.3348C24.4179 31.3348 30.8358 24.9169 30.8358 17C30.8358 9.08315 24.4179 2.66524 16.501 2.66524ZM0.166016 17C0.166016 7.97847 7.47944 0.665039 16.501 0.665039C25.5226 0.665039 32.836 7.97847 32.836 17C32.836 26.0216 25.5226 33.335 16.501 33.335C7.47944 33.335 0.166016 26.0216 0.166016 17Z" fill="black"/>
<path fill-rule="evenodd" clip-rule="evenodd" d="M9.0861 22.462C9.35755 21.981 9.96757 21.8111 10.4486 22.0825C12.2358 23.0911 14.2996 23.6669 16.501 23.6669C18.7024 23.6669 20.7663 23.091 22.5534 22.0825C23.0345 21.8111 23.6445 21.981 23.9159 22.462C24.1874 22.943 24.0175 23.5531 23.5365 23.8245C21.4572 24.9978 19.0557 25.6671 16.501 25.6671C13.9463 25.6671 11.5449 24.9979 9.46557 23.8245C8.98454 23.553 8.81464 22.943 9.0861 22.462Z" fill="black"/>
<path d="M12.5006 13.6664C12.5006 14.771 11.604 15.6666 10.5004 15.6666C9.39676 15.6666 8.5002 14.7709 8.5002 13.6664C8.5002 12.5628 9.39676 11.6662 10.5004 11.6662C11.604 11.6662 12.5006 12.5628 12.5006 13.6664Z" fill="black"/>
<path d="M24.5018 13.6664C24.5018 14.771 23.6053 15.6666 22.5016 15.6666C21.398 15.6666 20.5014 14.7709 20.5014 13.6664C20.5014 12.5628 21.398 11.6662 22.5016 11.6662C23.6053 11.6662 24.5018 12.5628 24.5018 13.6664Z" fill="black"/>
</svg>
