<svg width="21" height="20" viewBox="0 0 21 20" fill="none" xmlns="http://www.w3.org/2000/svg">
    <path d="M21 10.2297C21 9.54995 20.9438 8.8665 20.8238 8.19775H11.2006V12.0486H16.7113C16.4827 13.2905 15.7479 14.3892 14.672 15.0873V17.586H17.9597C19.8903 15.8443 21 13.2722 21 10.2297Z" fill="#4285F4"/>
    <path d="M11.2005 19.9998C13.9522 19.9998 16.2727 19.1143 17.9634 17.5857L14.6757 15.0871C13.761 15.697 12.5801 16.0424 11.2043 16.0424C8.54261 16.0424 6.28581 14.2824 5.47606 11.916H2.08337V14.4918C3.81533 17.8686 7.34298 19.9998 11.2005 19.9998Z" fill="#34A853"/>
    <path d="M5.4724 11.9163C5.04503 10.6743 5.04503 9.32947 5.4724 8.0875V5.51172H2.08345C0.636407 8.33737 0.636407 11.6664 2.08345 14.4921L5.4724 11.9163Z" fill="#FBBC04"/>
    <path d="M11.2005 3.95756C12.6551 3.93552 14.0609 4.47198 15.1143 5.45674L18.0271 2.60169C16.1827 0.904099 13.7347 -0.0292099 11.2005 0.000185607C7.34298 0.000185607 3.81533 2.13136 2.08337 5.51185L5.47232 8.08764C6.27831 5.71762 8.53886 3.95756 11.2005 3.95756Z" fill="#EA4335"/>
</svg>
