<svg width="20" height="20" viewBox="0 0 20 20" fill="none" xmlns="http://www.w3.org/2000/svg">
<path fill-rule="evenodd" clip-rule="evenodd" d="M10 2C5.58172 2 2 5.58172 2 10C2 14.4183 5.58172 18 10 18C14.4183 18 18 14.4183 18 10C18 5.58172 14.4183 2 10 2ZM0 10C0 4.47715 4.47715 0 10 0C15.5228 0 20 4.47715 20 10C20 15.5228 15.5228 20 10 20C4.47715 20 0 15.5228 0 10Z" fill="#3F3F3F"/>
<path fill-rule="evenodd" clip-rule="evenodd" d="M10.3194 6.1644C10.4102 5.61963 10.0422 5.1044 9.49741 5.01361C8.95264 4.92281 8.43741 5.29083 8.34661 5.8356L8.15255 7H7C6.44772 7 6 7.44772 6 8C6 8.55229 6.44772 9 7 9H7.81921L7.48588 11H6C5.44772 11 5 11.4477 5 12C5 12.5523 5.44772 13 6 13H7.15255L7.01328 13.8356C6.92249 14.3804 7.29051 14.8956 7.83528 14.9864C8.38005 15.0772 8.89527 14.7092 8.98607 14.1644L9.18013 13H10.1663L10.0133 13.8356C9.92249 14.3804 10.2905 14.8956 10.8353 14.9864C11.38 15.0772 11.8953 14.7092 11.9861 14.1644L12.1801 13H13C13.5523 13 14 12.5523 14 12C14 11.4477 13.5523 11 13 11H12.5135L12.8468 9H14C14.5523 9 15 8.55229 15 8C15 7.44772 14.5523 7 14 7H13.1801L13.3194 6.1644C13.4102 5.61963 13.0422 5.1044 12.4974 5.01361C11.9526 4.92281 11.4374 5.29083 11.3466 5.8356L11.1525 7H10.1801L10.3194 6.1644ZM9.8468 9L9.51347 11H10.4859L10.8192 9H9.8468Z" fill="#3F3F3F"/>
</svg>
