<svg id="Layer_1" data-name="Layer 1" xmlns="http://www.w3.org/2000/svg" viewBox="0 0 27.21 27.21"><circle cx="13.6" cy="13.6" r="13.6" fill="#ab22af" fill-opacity="0.9"/><path d="M16,16.57l-.63,3.33h-.92a.55.55,0,0,1-.42-.19.71.71,0,0,1-.18-.49v-.15l.48-2.5H12.66l-.47,2.6a.79.79,0,0,1-.34.56,1,1,0,0,1-.58.17h-.89L11,16.57h-.93a.58.58,0,0,1-.4-.12A.54.54,0,0,1,9.53,16a1.28,1.28,0,0,1,0-.26l.11-.64h1.55l.42-2.25H9.89L10,12a.72.72,0,0,1,.25-.45,1,1,0,0,1,.64-.16h.91l.5-2.63a.88.88,0,0,1,.3-.5.91.91,0,0,1,.56-.18h.91l-.62,3.31h1.67l.63-3.31h.9a.65.65,0,0,1,.46.16.54.54,0,0,1,.18.42.41.41,0,0,1,0,.12l-.5,2.61h1.65l-.15.84a.75.75,0,0,1-.26.47,1,1,0,0,1-.63.15h-.82l-.41,2.25h1.15a.54.54,0,0,1,.4.13.54.54,0,0,1,.14.42,1.22,1.22,0,0,1,0,.26l-.1.64Zm-3.12-1.45h1.67L15,12.87H13.29Z" transform="translate(0 -0.27)" fill="#fff"/></svg>