<svg width="20" height="20" viewBox="0 0 20 20" fill="none" xmlns="http://www.w3.org/2000/svg">
    <path d="M20.0002 6.67946C19.9611 5.11306 19.3517 3.63259 18.2853 2.51149C17.2072 1.37868 15.7736 0.726337 14.2502 0.679462C12.6525 0.624775 11.133 1.23415 10.0002 2.33962C8.9025 1.27321 7.44547 0.667743 5.91422 0.67165C4.37125 0.679462 2.91422 1.30056 1.80094 2.42556C0.644686 3.59743 -0.0115644 5.22243 0.000154308 6.88649C0.0118731 8.50759 0.625154 10.031 1.73062 11.1834L9.29703 19.0271C9.48844 19.2263 9.74234 19.324 10.0002 19.324C10.2423 19.324 10.4884 19.2341 10.6798 19.0506C11.0666 18.6756 11.0783 18.0584 10.7033 17.6677L3.13687 9.83181C2.38297 9.04274 1.96109 7.99196 1.95328 6.87087C1.94547 5.72243 2.39469 4.60524 3.18765 3.80056C3.92984 3.04665 4.9025 2.62868 5.92203 2.62477H5.93765C7.22672 2.62477 8.44156 3.28884 9.18765 4.39821C9.36734 4.66774 9.67203 4.8279 9.99625 4.8279C10.3205 4.8279 10.6252 4.66774 10.8048 4.39821C11.5822 3.24587 12.8439 2.58181 14.1798 2.62477C15.1877 2.65602 16.1408 3.09352 16.8634 3.85134C17.5978 4.62087 18.0158 5.6404 18.0392 6.71852C18.0666 7.87087 17.6603 8.95681 16.8986 9.78102C16.8986 9.78493 16.8947 9.78493 16.8947 9.78884L11.9728 14.9021C11.5978 15.2888 11.6095 15.9099 12.0002 16.281C12.3869 16.656 13.008 16.6443 13.3791 16.2537L18.3166 11.1209L18.3478 11.0896C19.4533 9.90212 20.0392 8.33571 20.0002 6.67946Z" fill="#DDDDDD" />
</svg>
    