<svg width="25" height="24" viewBox="0 0 25 24" fill="none" xmlns="http://www.w3.org/2000/svg">
<path d="M12.5 22C18.0228 22 22.5 17.5228 22.5 12C22.5 6.47715 18.0228 2 12.5 2C6.97715 2 2.5 6.47715 2.5 12C2.5 17.5228 6.97715 22 12.5 22Z" stroke="#717171" stroke-width="2" stroke-linecap="round" stroke-linejoin="round"/>
<path d="M12.5 17H12.51" stroke="#717171" stroke-width="2" stroke-linecap="round" stroke-linejoin="round"/>
<path d="M9.59009 8.99996C9.82519 8.33163 10.2892 7.76807 10.9 7.40909C11.5108 7.05012 12.229 6.9189 12.9273 7.03867C13.6255 7.15844 14.2589 7.52148 14.7152 8.06349C15.1714 8.60549 15.4211 9.29148 15.4201 9.99996C15.4201 12 12.4201 13 12.4201 13" stroke="#717171" stroke-width="2" stroke-linecap="round" stroke-linejoin="round"/>
</svg>
