<svg width="20" height="20" viewBox="0 0 20 20" fill="none" xmlns="http://www.w3.org/2000/svg">
    <path d="M10.0003 18.3333C14.6027 18.3333 18.3337 14.6023 18.3337 9.99996C18.3337 5.39759 14.6027 1.66663 10.0003 1.66663C5.39795 1.66663 1.66699 5.39759 1.66699 9.99996C1.66699 14.6023 5.39795 18.3333 10.0003 18.3333Z" stroke="#DDDDDD" stroke-width="2" stroke-linecap="round" stroke-linejoin="round" />
    <path d="M10.0003 13.3333C11.8413 13.3333 13.3337 11.8409 13.3337 9.99996C13.3337 8.15901 11.8413 6.66663 10.0003 6.66663C8.15938 6.66663 6.66699 8.15901 6.66699 9.99996C6.66699 11.8409 8.15938 13.3333 10.0003 13.3333Z" stroke="#DDDDDD" stroke-width="2" stroke-linecap="round" stroke-linejoin="round" />
    <path d="M12.3584 12.3583L15.8917 15.8916" stroke="#DDDDDD" stroke-width="2" stroke-linecap="round" stroke-linejoin="round" />
    <path d="M4.1084 15.8916L7.64173 12.3583" stroke="#DDDDDD" stroke-width="2" stroke-linecap="round" stroke-linejoin="round" />
    <path d="M12.3584 7.64161L15.8917 4.10828" stroke="#DDDDDD" stroke-width="2" stroke-linecap="round" stroke-linejoin="round" />
    <path d="M12.3584 7.64162L15.3001 4.69995" stroke="#DDDDDD" stroke-width="2" stroke-linecap="round" stroke-linejoin="round" />
    <path d="M4.1084 4.10828L7.64173 7.64161" stroke="#DDDDDD" stroke-width="2" stroke-linecap="round" stroke-linejoin="round" />
</svg>
    