<svg width="32" height="32" viewBox="0 0 32 32" fill="none" xmlns="http://www.w3.org/2000/svg">
<path fill-rule="evenodd" clip-rule="evenodd" d="M15.9993 2.66669C8.63555 2.66669 2.66602 8.63622 2.66602 16C2.66602 23.3638 8.63555 29.3334 15.9993 29.3334C23.3631 29.3334 29.3327 23.3638 29.3327 16C29.3327 8.63622 23.3631 2.66669 15.9993 2.66669ZM14.666 5.41588C9.40427 6.07201 5.33268 10.5605 5.33268 16C5.33268 21.4395 9.40427 25.928 14.666 26.5842V5.41588ZM17.3327 26.5842C18.7096 26.4125 20.0051 25.9783 21.1674 25.3334H17.3327V26.5842ZM24.3265 22.6667C24.9695 21.8646 25.499 20.9676 25.8907 20H17.3327V22.6667H24.3265ZM17.3327 17.3334H26.5835C26.638 16.8966 26.666 16.4516 26.666 16C26.666 15.5485 26.638 15.1035 26.5835 14.6667H17.3327V17.3334ZM17.3327 12H25.8907C25.499 11.0325 24.9695 10.1355 24.3265 9.33335H17.3327V12ZM17.3327 6.66669H21.1674C20.0051 6.02173 18.7096 5.58758 17.3327 5.41588V6.66669Z" fill="#D9DDE3"/>
</svg>
