<svg width="24" height="24" viewBox="0 0 24 24" fill="none" xmlns="http://www.w3.org/2000/svg">
<path d="M9.88 9L14.09 3L19 6.44L17.21 9H9.88ZM9.88 9H5.58L9.09 4L12 6L9.88 9ZM21 10V20C21 20.2652 20.8946 20.5196 20.7071 20.7071C20.5196 20.8946 20.2652 21 20 21H4C3.73478 21 3.48043 20.8946 3.29289 20.7071C3.10536 20.5196 3 20.2652 3 20V10C3 9.73478 3.10536 9.48043 3.29289 9.29289C3.48043 9.10536 3.73478 9 4 9H20C20.2652 9 20.5196 9.10536 20.7071 9.29289C20.8946 9.48043 21 9.73478 21 10ZM21 13H16C15.7348 13 15.4804 13.1054 15.2929 13.2929C15.1054 13.4804 15 13.7348 15 14V16C15 16.2652 15.1054 16.5196 15.2929 16.7071C15.4804 16.8946 15.7348 17 16 17H21V13Z" stroke="#3F3F3F" stroke-width="1.4" stroke-linecap="round" stroke-linejoin="round"/>
<g clip-path="url(#clip0_1881_6704)">
<path d="M5.00065 23.1673C7.30184 23.1673 9.16732 21.3018 9.16732 19.0007C9.16732 16.6995 7.30184 14.834 5.00065 14.834C2.69946 14.834 0.833984 16.6995 0.833984 19.0007C0.833984 21.3018 2.69946 23.1673 5.00065 23.1673Z" fill="white" stroke="#3F3F3F" stroke-width="1.4" stroke-linecap="round" stroke-linejoin="round"/>
<path d="M4.58203 17.333V19.833" stroke="#3F3F3F" stroke-width="1.4" stroke-linecap="round" stroke-linejoin="round"/>
<path d="M4.58203 19.833H7.08203" stroke="#3F3F3F" stroke-width="1.4" stroke-linecap="round" stroke-linejoin="round"/>
</g>
<defs>
<clipPath id="clip0_1881_6704">
<rect width="10" height="10" fill="white" transform="translate(0 14)"/>
</clipPath>
</defs>
</svg>
