<svg width="72" height="22" viewBox="0 0 72 22" fill="none" xmlns="http://www.w3.org/2000/svg">
    <path d="M36.1295 4.42578C34.3916 4.42756 32.7254 5.12205 31.4965 6.35685C30.2677 7.59165 29.5765 9.26587 29.5747 11.0121C29.5747 11.087 29.5747 11.161 29.5805 11.2359C29.5805 11.2474 29.5805 11.2589 29.5805 11.2714V20.2373C29.601 20.6691 29.7862 21.0763 30.0976 21.3746C30.4089 21.6729 30.8226 21.8393 31.2528 21.8393C31.683 21.8393 32.0967 21.6729 32.4081 21.3746C32.7195 21.0763 32.9047 20.6691 32.9252 20.2373V16.7554C33.799 17.247 34.7733 17.5308 35.7733 17.5851C36.7733 17.6393 37.7723 17.4626 38.6937 17.0684C39.6151 16.6741 40.4343 16.073 41.0884 15.311C41.7425 14.5491 42.2142 13.6466 42.467 12.6729C42.7199 11.6993 42.7474 10.6804 42.5472 9.69439C42.3471 8.70842 41.9247 7.78166 41.3126 6.98529C40.7004 6.18891 39.9148 5.54411 39.0159 5.10042C38.1171 4.65672 37.129 4.42594 36.1276 4.42578H36.1295ZM36.1276 14.2252C35.4949 14.2252 34.8766 14.0367 34.3506 13.6835C33.8246 13.3303 33.4146 12.8284 33.1725 12.2411C32.9304 11.6538 32.8671 11.0076 32.9905 10.3842C33.1139 9.76073 33.4185 9.18806 33.8659 8.73858C34.3132 8.2891 34.8831 7.98298 35.5036 7.85897C36.124 7.73496 36.7671 7.79862 37.3516 8.04188C37.9361 8.28513 38.4356 8.69707 38.787 9.2256C39.1385 9.75414 39.3261 10.3755 39.3261 11.0112C39.3251 11.8633 38.9878 12.6802 38.3882 13.2827C37.7885 13.8852 36.9756 14.2241 36.1276 14.2252Z" fill="white"/>
    <path d="M50.9171 4.42578C49.1792 4.42756 47.513 5.12205 46.2841 6.35685C45.0552 7.59165 44.3641 9.26588 44.3623 11.0121C44.3623 11.087 44.3623 11.161 44.368 11.2359C44.368 11.2474 44.368 11.2589 44.368 11.2714V20.2373C44.3572 20.4647 44.3925 20.692 44.4716 20.9053C44.5508 21.1187 44.6722 21.3137 44.8286 21.4785C44.9849 21.6433 45.173 21.7745 45.3813 21.8641C45.5896 21.9538 45.8138 22 46.0404 22C46.267 22 46.4913 21.9538 46.6996 21.8641C46.9079 21.7745 47.0959 21.6433 47.2523 21.4785C47.4086 21.3137 47.5301 21.1187 47.6092 20.9053C47.6884 20.692 47.7236 20.4647 47.7128 20.2373V16.7554C48.5866 17.247 49.5609 17.5308 50.5609 17.5851C51.5609 17.6393 52.5599 17.4626 53.4813 17.0684C54.4027 16.6741 55.2219 16.073 55.876 15.311C56.5301 14.5491 57.0018 13.6466 57.2546 12.6729C57.5075 11.6993 57.535 10.6804 57.3348 9.69439C57.1347 8.70842 56.7123 7.78166 56.1002 6.98529C55.488 6.18891 54.7024 5.54411 53.8035 5.10042C52.9047 4.65672 51.9166 4.42594 50.9152 4.42578H50.9171ZM50.9152 14.2252C50.2825 14.2252 49.6641 14.0367 49.1381 13.6835C48.6121 13.3303 48.2022 12.8284 47.9601 12.2411C47.718 11.6538 47.6547 11.0076 47.7781 10.3842C47.9015 9.76073 48.2061 9.18806 48.6535 8.73858C49.1008 8.2891 49.6707 7.98298 50.2912 7.85897C50.9116 7.73496 51.5547 7.79862 52.1392 8.04188C52.7237 8.28513 53.2232 8.69707 53.5746 9.2256C53.9261 9.75414 54.1137 10.3755 54.1137 11.0112C54.1127 11.8633 53.7754 12.6802 53.1758 13.2827C52.5761 13.8852 51.7631 14.2241 50.9152 14.2252Z" fill="white"/>
    <path d="M13.1086 11.0112C13.1094 9.8626 12.8111 8.73379 12.2432 7.73693C11.6754 6.74008 10.8578 5.9099 9.87178 5.3289C8.88572 4.74791 7.76551 4.43632 6.62248 4.42512C5.47945 4.41392 4.35338 4.7035 3.35623 5.26506V1.68236C3.35623 1.23617 3.17983 0.808253 2.86584 0.492749C2.55185 0.177245 2.12599 0 1.68194 0H1.6743C1.23025 0 0.804382 0.177245 0.490392 0.492749C0.176402 0.808253 0 1.23617 0 1.68236V15.8278C0 16.274 0.176402 16.7019 0.490392 17.0174C0.804382 17.3329 1.23025 17.5102 1.6743 17.5102H1.68194C2.12599 17.5102 2.55185 17.3329 2.86584 17.0174C3.17983 16.7019 3.35623 16.274 3.35623 15.8278V11.0093C3.37146 10.1666 3.71548 9.36371 4.31418 8.77348C4.91289 8.18324 5.71838 7.85292 6.55712 7.85368C7.39587 7.85444 8.20075 8.18621 8.7984 8.77752C9.39605 9.36883 9.73863 10.1724 9.75235 11.015C9.75235 11.0227 9.75235 11.0304 9.75235 11.0381V15.8278C9.75235 16.274 9.92876 16.7019 10.2427 17.0174C10.5567 17.3329 10.9826 17.5102 11.4267 17.5102H11.4343C11.8783 17.5102 12.3042 17.3329 12.6182 17.0174C12.9322 16.7019 13.1086 16.274 13.1086 15.8278V11.0371C13.1086 11.0295 13.1086 11.0218 13.1086 11.0141V11.0112Z" fill="white"/>
    <path d="M27.8937 11.2416V6.10326C27.8937 5.65707 27.7173 5.22914 27.4033 4.91364C27.0893 4.59814 26.6634 4.4209 26.2194 4.4209H26.2108C25.7669 4.42141 25.3413 4.59882 25.0274 4.91421C24.7135 5.22961 24.537 5.65722 24.5365 6.10326V11.2502C24.522 12.0929 24.1787 12.8961 23.5805 13.4868C22.9823 14.0776 22.1771 14.4086 21.3384 14.4086C20.4997 14.4086 19.6945 14.0776 19.0963 13.4868C18.4981 12.8961 18.1549 12.0929 18.1404 11.2502V6.10326C18.1396 5.6573 17.9629 5.22983 17.6491 4.91449C17.3353 4.59915 16.9099 4.42166 16.4661 4.4209H16.4556C16.0115 4.4209 15.5856 4.59814 15.2716 4.91364C14.9577 5.22914 14.7812 5.65707 14.7812 6.10326V11.2464C14.7836 12.6993 15.2632 14.1109 16.1457 15.2619C17.0282 16.4129 18.2641 17.239 19.6617 17.6119V20.243C19.6823 20.6747 19.8674 21.082 20.1788 21.3803C20.4902 21.6786 20.9039 21.845 21.3341 21.845C21.7643 21.845 22.178 21.6786 22.4894 21.3803C22.8008 21.082 22.9859 20.6747 23.0065 20.243V17.6119C24.4039 17.2388 25.6397 16.4127 26.522 15.2617C27.4043 14.1107 27.8838 12.6992 27.886 11.2464" fill="white"/>
    <path d="M66.1766 12.3043L67.1151 11.8491L68.453 11.2L68.8992 10.983L70.9682 9.97952C71.2884 9.82267 71.5352 9.54654 71.656 9.20979C71.7768 8.87305 71.7621 8.50223 71.6152 8.17616C71.6152 8.16752 71.6085 8.15888 71.6047 8.15024C71.6009 8.1416 71.5941 8.13008 71.5894 8.11951C71.554 8.04654 71.5158 7.97451 71.4785 7.90345C71.4623 7.87368 71.447 7.84296 71.4307 7.81319C71.3954 7.7479 71.3571 7.68356 71.318 7.62115C71.2969 7.58562 71.2759 7.54913 71.2539 7.5136C71.2215 7.46175 71.188 7.41084 71.1584 7.36091C71.1288 7.31097 71.0972 7.26489 71.0628 7.22263C71.0284 7.18038 71.0122 7.1535 70.9873 7.11989C70.9434 7.06036 70.9004 7.00178 70.8555 6.94417C70.8421 6.92688 70.8287 6.91152 70.8153 6.89423C70.2818 6.22604 69.623 5.66947 68.8763 5.25604L68.8601 5.2474C68.774 5.20035 68.688 5.15138 68.6001 5.11105C68.5552 5.08896 68.5045 5.0688 68.4635 5.04671C68.4224 5.02463 68.3679 5.00061 68.3173 4.97949C68.2312 4.94204 68.1443 4.90651 68.0564 4.87194L68.0286 4.86042C67.2305 4.55488 66.3805 4.4097 65.5268 4.4331H65.4704C65.3949 4.4331 65.3204 4.44079 65.2439 4.44656L65.1244 4.45519C65.0671 4.45999 65.0107 4.46672 64.9534 4.47344C64.896 4.48016 64.8368 4.48687 64.7785 4.49456L64.6514 4.51473C64.5797 4.52626 64.5071 4.53873 64.4354 4.55314L64.3351 4.57426C64.2567 4.59059 64.1774 4.60883 64.1 4.62899L64.0044 4.65588C63.9299 4.67604 63.8553 4.69717 63.7808 4.72022L63.7359 4.73367L63.6336 4.76823L63.4884 4.81817C63.4177 4.84313 63.3489 4.87098 63.2801 4.89883L63.1921 4.93339C63.0953 4.97372 62.9997 5.01662 62.9054 5.06207L62.894 5.06783C62.7901 5.11712 62.6882 5.1693 62.5882 5.22436H62.5834C61.4444 5.84541 60.5162 6.79444 59.9181 7.94955L59.9076 7.96971C59.8751 8.03117 59.8455 8.09454 59.812 8.16176C59.7958 8.19633 59.7786 8.2309 59.7623 8.26643C59.7461 8.30196 59.7317 8.33749 59.7155 8.37206C59.6878 8.4364 59.6591 8.49977 59.6343 8.56411L59.6266 8.58427C59.1423 9.79225 59.0284 11.1182 59.2998 12.3917V12.3974C59.3234 12.5095 59.3501 12.6208 59.38 12.7316V12.7431C59.4074 12.8449 59.4374 12.9461 59.4699 13.0466C59.4795 13.0763 59.49 13.1061 59.5005 13.1359C59.5244 13.2069 59.5492 13.277 59.576 13.3471C59.5941 13.3951 59.6132 13.4432 59.6323 13.4902C59.6457 13.5238 59.6581 13.5574 59.6725 13.5862C59.6782 13.6006 59.6859 13.615 59.6916 13.6294C59.7231 13.7014 59.7556 13.7725 59.7872 13.8426L59.8311 13.9386C59.8674 14.0116 59.9047 14.0827 59.9429 14.1537C59.9592 14.1835 59.9754 14.2142 59.9917 14.244C60.027 14.3083 60.0653 14.3717 60.1035 14.4361C60.1255 14.4725 60.1475 14.51 60.1704 14.5465C60.1933 14.583 60.2354 14.6425 60.2659 14.6953C60.2965 14.7481 60.33 14.7913 60.3615 14.8374C60.393 14.8835 60.4093 14.9027 60.4332 14.9335C60.4781 14.9939 60.523 15.0544 60.5698 15.114L60.6062 15.1582C61.1434 15.8253 61.8057 16.3799 62.5557 16.7906L62.5834 16.805C62.6656 16.8501 62.7487 16.8933 62.8328 16.9337C62.8815 16.9577 62.9284 16.9798 62.98 17.0018C63.0316 17.0239 63.0698 17.0441 63.1157 17.0643C63.2055 17.1036 63.2972 17.1401 63.3899 17.1747L63.4052 17.1805C64.2036 17.4816 65.0529 17.6225 65.9052 17.5953H65.9692C66.0419 17.5953 66.1155 17.5866 66.1881 17.5818L66.3152 17.5722C66.3706 17.5665 66.4251 17.5597 66.4805 17.553C66.5359 17.5463 66.6009 17.5386 66.6611 17.53L66.7844 17.5098C66.858 17.4973 66.9306 17.4848 67.0032 17.4695L67.1093 17.4464C67.1877 17.4292 67.266 17.4109 67.3444 17.3907L67.3779 17.3831L67.4734 17.3552C67.526 17.3398 67.5785 17.3264 67.6311 17.3101C67.719 17.2832 67.8066 17.2541 67.8939 17.2227L67.9407 17.2064C68.0363 17.1718 68.1271 17.1353 68.2179 17.0979L68.2771 17.0719C68.3593 17.0364 68.4415 16.9999 68.5227 16.9606L68.5533 16.9471L68.5887 16.9289C68.6489 16.8991 68.7081 16.8684 68.7664 16.8376L68.8419 16.7973C68.8944 16.7685 68.947 16.7378 68.9996 16.708L69.0951 16.6523L69.2194 16.5745L69.3417 16.4939L69.4248 16.4362C69.4774 16.3998 69.53 16.3633 69.5806 16.3258L69.6207 16.2951C70.111 15.9269 70.5475 15.4915 70.9175 15.0016C71.1665 14.644 71.2678 14.2032 71.2 13.7721C71.1322 13.341 70.9007 12.9531 70.5542 12.6899C70.2076 12.4268 69.773 12.3089 69.3418 12.3611C68.9105 12.4133 68.5162 12.6314 68.2417 12.9697C68.237 12.9765 68.2303 12.9832 68.2255 12.9899C68.1815 13.0469 68.1357 13.1023 68.0879 13.156L68.0583 13.1887C68.0105 13.2405 67.9627 13.2914 67.9111 13.3394L67.8681 13.3798C67.8203 13.4239 67.7725 13.4662 67.7219 13.5075C67.6999 13.5257 67.677 13.543 67.655 13.5603C67.611 13.5949 67.5661 13.6285 67.5202 13.6563C67.4744 13.6842 67.4543 13.7005 67.4247 13.7216C67.395 13.7427 67.3473 13.7716 67.3071 13.7946C67.267 13.8177 67.2221 13.8416 67.1781 13.8637C67.1342 13.8858 67.1055 13.9021 67.0682 13.9194L66.9727 13.9626C66.9258 13.9828 66.8771 14.002 66.8322 14.0203L66.7366 14.0529C66.6821 14.0712 66.6277 14.0884 66.5722 14.1038L66.4891 14.1268C66.4442 14.1384 66.3983 14.148 66.3534 14.1576L66.2578 14.1768L66.1346 14.195C66.0973 14.2008 66.0591 14.2056 66.0218 14.2094L65.9262 14.2171C65.8813 14.2171 65.8354 14.2229 65.7905 14.2238H65.7169C65.6634 14.2238 65.6109 14.2238 65.5583 14.2238H65.5077C65.4484 14.2238 65.3892 14.2152 65.3309 14.2075L65.2955 14.2027C65.2334 14.1941 65.1713 14.1845 65.1092 14.1729L65.0766 14.1662C65.0155 14.1537 64.9543 14.1393 64.8941 14.124L64.8521 14.1115C64.7957 14.0961 64.7403 14.0788 64.6858 14.0606L64.6237 14.0375C64.5768 14.0203 64.5281 14.003 64.4841 13.9838C64.4545 13.9713 64.4259 13.9578 64.3962 13.9444C64.3666 13.931 64.3236 13.9117 64.2883 13.8945C64.2529 13.8772 64.2127 13.8551 64.1755 13.834L64.099 13.7917C64.0541 13.7658 64.0111 13.7379 63.9681 13.7091L63.9155 13.6746C63.8678 13.6419 63.82 13.6083 63.776 13.5728L63.7378 13.544L63.7034 13.5142L64.6428 13.059L66.1766 12.3043ZM63.2017 9.01254C63.2409 8.96357 63.282 8.91652 63.323 8.86851L63.3469 8.84066L63.4081 8.77632L63.4712 8.71295L63.5075 8.67741C63.5457 8.64093 63.5859 8.6054 63.626 8.57083L63.6824 8.52282C63.7177 8.49401 63.7541 8.46712 63.7904 8.43927L63.8706 8.37974L63.9662 8.31732C64.0006 8.29523 64.036 8.27219 64.0713 8.25106L64.1564 8.20305C64.1965 8.18096 64.2376 8.15888 64.2797 8.13776L64.3666 8.09647C64.4074 8.07726 64.4482 8.05934 64.4889 8.04269L64.5941 8.00236L64.7011 7.96492C64.7431 7.95051 64.7862 7.93803 64.8292 7.92555L64.9247 7.89961C64.9696 7.88809 65.0155 7.87849 65.0604 7.86889L65.156 7.84968L65.2792 7.83144L65.392 7.818L65.4876 7.81031C65.5325 7.81031 65.5784 7.80454 65.6233 7.80358H65.6969C65.7494 7.80358 65.8029 7.80358 65.8565 7.80358H65.9062C65.9654 7.80358 66.0247 7.81224 66.0839 7.81992L66.1193 7.82471L66.2148 7.83816L66.3104 7.85448L66.3419 7.86121C66.4056 7.87401 66.4665 7.88809 66.5245 7.90345L66.5656 7.91594C66.6219 7.9313 66.6773 7.94859 66.7328 7.96779L66.794 7.98987C66.8417 8.00716 66.8895 8.02445 66.9354 8.04461L67.0223 8.08302C67.0587 8.09934 67.095 8.11567 67.1303 8.13392C67.1657 8.15216 67.2058 8.17328 67.2422 8.19345L67.3196 8.23666C67.3635 8.26259 67.4075 8.29044 67.4505 8.31829L67.503 8.35285L62.5184 10.7717C62.5274 10.6558 62.5423 10.5404 62.5633 10.426C62.5633 10.4107 62.5681 10.3963 62.571 10.3809C62.5738 10.3655 62.5776 10.3502 62.5815 10.3339C62.5929 10.2772 62.6063 10.2215 62.6216 10.1658C62.6273 10.1456 62.6331 10.1255 62.6388 10.1063C62.6531 10.0563 62.6684 10.0103 62.6856 9.95744C62.6952 9.92959 62.7057 9.9027 62.7162 9.87486C62.7267 9.84701 62.7468 9.79515 62.763 9.75578C62.7793 9.71641 62.7955 9.68281 62.8127 9.64728C62.8299 9.61175 62.8395 9.5887 62.8538 9.55989C62.8768 9.51476 62.9007 9.47155 62.9245 9.42738L62.957 9.36976C62.9867 9.31983 63.0182 9.27374 63.0526 9.22285L63.0775 9.18539C63.1128 9.13354 63.1501 9.0836 63.1883 9.03367L63.2084 9.00678" fill="white"/>
</svg>
