<svg width="25" height="24" viewBox="0 0 25 24" fill="none" xmlns="http://www.w3.org/2000/svg">
<path d="M15.0814 10.8183L12.9187 9.46928L10.7559 8.12114C10.6287 8.04182 10.4844 8.00004 10.3375 8C10.1906 7.99996 10.0463 8.04166 9.91902 8.1209C9.79176 8.20015 9.68604 8.31417 9.61249 8.45149C9.53894 8.58882 9.50015 8.74462 9.5 8.90326V14.2967C9.50015 14.4554 9.53894 14.6112 9.61249 14.7485C9.68604 14.8858 9.79176 14.9998 9.91902 15.0791C10.0463 15.1583 10.1906 15.2 10.3375 15.2C10.4844 15.2 10.6287 15.1582 10.7559 15.0789L12.9187 13.7325L15.0814 12.3844C15.2087 12.305 15.3144 12.1909 15.3878 12.0534C15.4613 11.916 15.5 11.7601 15.5 11.6014C15.5 11.4426 15.4613 11.2867 15.3878 11.1493C15.3144 11.0118 15.2087 10.8977 15.0814 10.8183Z" fill="#717171"/>
<path d="M15.7653 4.73956C9.04898 0.756428 6.85124 2.20335 6.35509 2.49781C5.80325 2.82236 3.5 4.10894 3.5 12.0103C3.5 19.9765 5.88657 21.2356 6.35509 21.5168C6.77755 21.7691 9.04814 23.2642 15.7653 19.2815C22.5 15.2902 22.5 12.8094 22.5 12.0112C22.5 11.2129 22.4958 8.73171 15.7653 4.73956ZM11.7123 17.9437C10.177 17.9437 8.70456 17.3175 7.61894 16.203C6.53331 15.0884 5.92341 13.5767 5.92341 12.0004C5.92341 11.2199 6.07314 10.4471 6.36406 9.726C6.65498 9.00492 7.08139 8.34974 7.61894 7.79785C8.70456 6.68326 10.177 6.05709 11.7123 6.05709C12.4725 6.05709 13.2253 6.21082 13.9276 6.5095C14.63 6.80818 15.2681 7.24596 15.8057 7.79785C16.3432 8.34974 16.7696 9.00492 17.0605 9.726C17.3515 10.4471 17.5012 11.2199 17.5012 12.0004C17.5012 13.5767 16.8913 15.0884 15.8057 16.203C14.72 17.3175 13.2476 17.9437 11.7123 17.9437Z" fill="#717171"/>
</svg>
