<svg width="24" height="24" viewBox="0 0 24 24" fill="none" xmlns="http://www.w3.org/2000/svg">
<path fill-rule="evenodd" clip-rule="evenodd" d="M15.2653 4.73956C8.65869 0.821497 6.42425 2.15753 5.88078 2.48248L5.85509 2.49781L5.84108 2.50604C5.26541 2.84403 3 4.17412 3 12.0103C3 19.8224 5.29511 21.1844 5.82577 21.4993L5.85509 21.5168L5.87634 21.5295C6.34988 21.8146 8.65351 23.2017 15.2653 19.2815C22 15.2902 22 12.8094 22 12.0112C22 11.2129 21.9958 8.73171 15.2653 4.73956ZM11.2123 17.9437C9.67699 17.9437 8.20456 17.3175 7.11894 16.203C6.03331 15.0884 5.42341 13.5767 5.42341 12.0004C5.42341 11.2199 5.57314 10.4471 5.86406 9.726C6.15498 9.00492 6.58139 8.34974 7.11894 7.79785C8.20456 6.68326 9.67699 6.05709 11.2123 6.05709C11.9725 6.05709 12.7253 6.21082 13.4276 6.5095C14.13 6.80818 14.7681 7.24596 15.3057 7.79785C15.8432 8.34974 16.2696 9.00492 16.5605 9.726C16.8515 10.4471 17.0012 11.2199 17.0012 12.0004C17.0012 13.5767 16.3913 15.0884 15.3057 16.203C14.22 17.3175 12.7476 17.9437 11.2123 17.9437Z" fill="#BE31BC"/>
<g clip-path="url(#clip0_2656_123394)">
<path d="M9.07921 9.879C9.20936 9.7488 9.20933 9.53775 9.07913 9.40759C8.94894 9.27744 8.73789 9.27747 8.60773 9.40766C7.92034 10.0953 7.53418 11.0277 7.53418 12C7.53418 12.9723 7.92034 13.9047 8.60773 14.5923C8.73789 14.7225 8.94894 14.7226 9.07913 14.5924C9.20933 14.4622 9.20936 14.2512 9.07921 14.121C8.51679 13.5584 8.20085 12.7955 8.20085 12C8.20085 11.2045 8.51679 10.4416 9.07921 9.879Z" fill="#BE31BC"/>
<path d="M13.7925 9.40766C13.6624 9.27747 13.4513 9.27744 13.3211 9.40759C13.1909 9.53775 13.1909 9.7488 13.3211 9.879C13.8835 10.4416 14.1994 11.2045 14.1994 12C14.1994 12.7955 13.8835 13.5584 13.3211 14.121C13.1909 14.2512 13.1909 14.4622 13.3211 14.5924C13.4513 14.7226 13.6624 14.7225 13.7925 14.5923C14.4799 13.9047 14.8661 12.9723 14.8661 12C14.8661 11.0277 14.4799 10.0953 13.7925 9.40766Z" fill="#BE31BC"/>
<path d="M10.0224 10.8192C10.1526 10.6891 10.1527 10.478 10.0226 10.3478C9.89253 10.2175 9.68148 10.2174 9.55123 10.3475C9.33429 10.5642 9.16218 10.8215 9.04476 11.1048C8.92733 11.3881 8.86689 11.6917 8.86689 11.9983C8.86689 12.305 8.92733 12.6086 9.04476 12.8919C9.16218 13.1751 9.33429 13.4325 9.55123 13.6492C9.68148 13.7793 9.89253 13.7791 10.0226 13.6489C10.1527 13.5187 10.1526 13.3076 10.0224 13.1775C9.86741 13.0227 9.74448 12.8389 9.66061 12.6366C9.57673 12.4342 9.53356 12.2174 9.53356 11.9983C9.53356 11.7793 9.57673 11.5624 9.66061 11.3601C9.74448 11.1578 9.86741 10.974 10.0224 10.8192Z" fill="#BE31BC"/>
<path d="M12.849 10.3508C12.7188 10.2207 12.5077 10.2208 12.3776 10.3511C12.2475 10.4813 12.2476 10.6924 12.3779 10.8225C12.5329 10.9773 12.6558 11.1611 12.7397 11.3634C12.8235 11.5658 12.8667 11.7826 12.8667 12.0017C12.8667 12.2207 12.8235 12.4376 12.7397 12.6399C12.6558 12.8422 12.5329 13.026 12.3779 13.1808C12.2476 13.3109 12.2475 13.522 12.3776 13.6522C12.5077 13.7825 12.7188 13.7826 12.849 13.6525C13.066 13.4358 13.2381 13.1785 13.3555 12.8952C13.4729 12.6119 13.5334 12.3083 13.5334 12.0017C13.5334 11.695 13.4729 11.3914 13.3555 11.1081C13.2381 10.8249 13.066 10.5675 12.849 10.3508Z" fill="#BE31BC"/>
<path d="M10.2002 12C10.2002 11.4477 10.6479 11 11.2002 11C11.7524 11 12.2002 11.4477 12.2002 12C12.2002 12.5523 11.7524 13 11.2002 13C10.6479 13 10.2002 12.5523 10.2002 12Z" fill="#BE31BC"/>
</g>
<defs>
<clipPath id="clip0_2656_123394">
<rect width="8" height="8" fill="white" transform="translate(7.2002 8)"/>
</clipPath>
</defs>
</svg>
