<svg width="70" height="70" viewBox="0 0 70 70" fill="none" xmlns="http://www.w3.org/2000/svg">
<circle cx="35" cy="35" r="30" fill="#AB22AF" stroke="#FDFDFD" stroke-width="10"/>
<path d="M41.3805 28.5188C39.7793 27.4037 38.1153 26.3992 36.3586 25.5667C35.0238 24.9339 33.6531 24.4024 32.1896 24.1782C31.5431 24.0799 30.8967 24.0492 30.2533 24.1813C28.9783 24.4424 28.1104 25.2441 27.5178 26.3992C26.9073 27.5911 26.608 28.8782 26.4075 30.193C26.186 31.643 26.1292 33.1083 26.1412 34.5736C26.1412 34.9054 26.1382 35.2341 26.1412 35.5658C26.1591 36.8069 26.2609 38.0388 26.4644 39.2614C26.6649 40.4687 26.9582 41.6421 27.5208 42.7296C27.886 43.4331 28.3498 44.0475 29.0352 44.4714C29.7924 44.9383 30.6094 45.0581 31.4713 45.0151C32.3901 44.9721 33.273 44.7571 34.1439 44.4714C35.356 44.072 36.5262 43.559 37.6365 42.9231C38.7767 42.2688 39.905 41.5899 41.0124 40.8772C41.9371 40.2813 42.805 39.5962 43.6131 38.8375C44.3284 38.1647 44.9928 37.4459 45.4746 36.5704C46.13 35.3815 46.2138 34.162 45.6422 32.9148C45.295 32.1529 44.7833 31.5109 44.2176 30.9119C43.3587 29.9995 42.395 29.2254 41.3805 28.5188ZM29.2746 27.9167C29.2836 26.7985 30.1485 26.0889 31.0643 26.0889C31.9562 26.0859 32.8839 26.8108 32.842 28.0212C32.8061 28.9981 32.013 29.766 31.0344 29.7537C30.0647 29.7384 29.2656 28.9581 29.2746 27.9167ZM34.8083 38.3644C32.8031 38.3859 31.0733 36.7301 31.0793 34.5429C31.0853 32.4632 32.6744 30.746 34.7933 30.7429C36.9212 30.7368 38.5074 32.5093 38.5044 34.549C38.5014 36.6625 36.8554 38.3644 34.8083 38.3644Z" fill="white"/>
</svg>
