<svg width="19" height="20" viewBox="0 0 19 20" fill="none" xmlns="http://www.w3.org/2000/svg">
<path fill-rule="evenodd" clip-rule="evenodd" d="M12.2653 2.73956C5.65869 -1.1785 3.42425 0.157527 2.88078 0.482485L2.85509 0.49781L2.84108 0.50604C2.26541 0.844032 0 2.17412 0 10.0103C0 17.8224 2.29511 19.1844 2.82577 19.4993L2.85509 19.5168L2.87634 19.5295C3.34988 19.8146 5.65351 21.2017 12.2653 17.2815C19 13.2902 19 10.8094 19 10.0112C19 9.21289 18.9958 6.73171 12.2653 2.73956ZM8.2123 15.9437C6.67699 15.9437 5.20456 15.3175 4.11894 14.203C3.03331 13.0884 2.42341 11.5767 2.42341 10.0004C2.42341 9.21992 2.57314 8.44707 2.86406 7.726C3.15498 7.00492 3.58139 6.34974 4.11894 5.79785C5.20456 4.68326 6.67699 4.05709 8.2123 4.05709C8.97251 4.05709 9.72527 4.21082 10.4276 4.5095C11.13 4.80818 11.7681 5.24596 12.3057 5.79785C12.8432 6.34974 13.2696 7.00492 13.5605 7.726C13.8515 8.44707 14.0012 9.21992 14.0012 10.0004C14.0012 11.5767 13.3913 13.0884 12.3057 14.203C11.22 15.3175 9.74761 15.9437 8.2123 15.9437Z" fill="#BE31BC"/>
<path d="M6.07923 7.879C6.20938 7.74881 6.20935 7.53776 6.07916 7.4076C5.94896 7.27744 5.73791 7.27748 5.60775 7.40767C4.92036 8.09527 4.5342 9.02774 4.5342 10C4.5342 10.9723 4.92036 11.9047 5.60775 12.5923C5.73791 12.7225 5.94896 12.7226 6.07916 12.5924C6.20935 12.4623 6.20938 12.2512 6.07923 12.121C5.51681 11.5584 5.20087 10.7955 5.20087 10C5.20087 9.20451 5.51681 8.44159 6.07923 7.879Z" fill="#BE31BC"/>
<path d="M10.7926 7.40767C10.6624 7.27748 10.4514 7.27744 10.3212 7.4076C10.191 7.53776 10.1909 7.74881 10.3211 7.879C10.8835 8.44159 11.1994 9.20451 11.1994 10C11.1994 10.7955 10.8835 11.5584 10.3211 12.121C10.1909 12.2512 10.191 12.4623 10.3212 12.5924C10.4514 12.7226 10.6624 12.7225 10.7926 12.5923C11.48 11.9047 11.8661 10.9723 11.8661 10C11.8661 9.02774 11.48 8.09527 10.7926 7.40767Z" fill="#BE31BC"/>
<path d="M7.02239 8.81917C7.15264 8.68907 7.15276 8.47801 7.02266 8.34777C6.89255 8.21752 6.6815 8.2174 6.55125 8.3475C6.33431 8.56421 6.1622 8.82155 6.04478 9.10481C5.92736 9.38807 5.86692 9.6917 5.86692 9.99834C5.86692 10.305 5.92736 10.6086 6.04478 10.8919C6.1622 11.1751 6.33431 11.4325 6.55125 11.6492C6.6815 11.7793 6.89255 11.7792 7.02266 11.6489C7.15276 11.5187 7.15264 11.3076 7.02239 11.1775C6.86743 11.0227 6.7445 10.8389 6.66063 10.6366C6.57675 10.4342 6.53358 10.2174 6.53358 9.99834C6.53358 9.77931 6.57675 9.56243 6.66063 9.3601C6.7445 9.15777 6.86743 8.97396 7.02239 8.81917Z" fill="#BE31BC"/>
<path d="M9.84906 8.35084C9.71881 8.22074 9.50776 8.22085 9.37766 8.3511C9.24755 8.48135 9.24767 8.6924 9.37792 8.8225C9.53288 8.97729 9.65581 9.16111 9.73969 9.36344C9.82356 9.56577 9.86673 9.78265 9.86673 10.0017C9.86673 10.2207 9.82356 10.4376 9.73969 10.6399C9.65581 10.8422 9.53288 11.026 9.37792 11.1808C9.24767 11.3109 9.24755 11.522 9.37766 11.6522C9.50776 11.7825 9.71881 11.7826 9.84906 11.6525C10.066 11.4358 10.2381 11.1785 10.3555 10.8952C10.473 10.6119 10.5334 10.3083 10.5334 10.0017C10.5334 9.69504 10.473 9.39141 10.3555 9.10814C10.2381 8.82488 10.066 8.56754 9.84906 8.35084Z" fill="#BE31BC"/>
<path d="M7.20018 10C7.20018 9.44772 7.64789 9.00001 8.20018 9.00001C8.75246 9.00001 9.20018 9.44772 9.20018 10C9.20018 10.5523 8.75246 11 8.20018 11C7.64789 11 7.20018 10.5523 7.20018 10Z" fill="#BE31BC"/>
</svg>
