<svg width="16" height="16" viewBox="0 0 16 16" fill="none" xmlns="http://www.w3.org/2000/svg">
<path fill-rule="evenodd" clip-rule="evenodd" d="M4.29612 13.5433C5.39245 14.2758 6.68138 14.6668 7.99992 14.6668C9.76744 14.6649 11.462 13.9619 12.7118 12.7121C13.9616 11.4622 14.6646 9.76768 14.6666 8.00017C14.6666 6.68162 14.2756 5.39269 13.5431 4.29636C12.8105 3.20004 11.7693 2.34555 10.5511 1.84097C9.33297 1.33638 7.99253 1.20436 6.69932 1.4616C5.40611 1.71883 4.21823 2.35377 3.28588 3.28612C2.35353 4.21847 1.71859 5.40636 1.46135 6.69956C1.20412 7.99277 1.33614 9.33322 1.84072 10.5514C2.34531 11.7696 3.19979 12.8108 4.29612 13.5433Z" fill="#AB22AF"/>
<path fill-rule="evenodd" clip-rule="evenodd" d="M11.6094 5.99995C11.8698 6.2603 11.8698 6.68241 11.6094 6.94276L7.7475 10.8047C7.48715 11.065 7.06504 11.065 6.80469 10.8047L4.99995 8.94276C4.7396 8.68241 4.7396 8.2603 4.99995 7.99995C5.2603 7.7396 5.68241 7.7396 5.94276 7.99995L7.27609 9.39047L10.6666 5.99995C10.927 5.7396 11.3491 5.7396 11.6094 5.99995Z" fill="white"/>
</svg>
