<svg width="24" height="24" viewBox="0 0 24 24" fill="none" xmlns="http://www.w3.org/2000/svg">
<path d="M16.6084 20.3478C17.1126 20.3478 17.5214 19.939 17.5214 19.4348C17.5214 18.9305 17.1126 18.5217 16.6084 18.5217C16.1041 18.5217 15.6953 18.9305 15.6953 19.4348C15.6953 19.939 16.1041 20.3478 16.6084 20.3478Z" stroke="white" stroke-width="1.82609" stroke-linecap="round" stroke-linejoin="round"/>
<path d="M7.47847 20.3478C7.98273 20.3478 8.39152 19.939 8.39152 19.4348C8.39152 18.9305 7.98273 18.5217 7.47847 18.5217C6.97421 18.5217 6.56543 18.9305 6.56543 19.4348C6.56543 19.939 6.97421 20.3478 7.47847 20.3478Z" stroke="white" stroke-width="1.82609" stroke-linecap="round" stroke-linejoin="round"/>
<path d="M2 4.82605H4.98814L6.9902 14.6063C7.05851 14.9426 7.24562 15.2447 7.51876 15.4597C7.7919 15.6747 8.13368 15.7889 8.48427 15.7823H15.7455C16.096 15.7889 16.4378 15.6747 16.711 15.4597C16.9841 15.2447 17.1712 14.9426 17.2395 14.6063L18.4348 8.47813H5.73518" stroke="white" stroke-width="1.82609" stroke-linecap="round" stroke-linejoin="round"/>
</svg>
