<svg width="24" height="24" viewBox="0 0 24 24" fill="none" xmlns="http://www.w3.org/2000/svg">
<path d="M22.8433 11.1053C22.7021 10.0042 22.1762 8.94644 21.3637 8.12732C19.033 5.77729 14.6748 2.69193 10.062 1.73111C9.69777 1.65528 9.32675 1.61711 8.95475 1.61719C8.77426 1.61702 8.59388 1.62613 8.41433 1.64449C6.55298 1.82903 4.97032 2.97062 4.29715 4.65359C3.63574 6.30877 3.30857 8.3208 3.22007 10.3262C3.14461 12.0558 3.23842 13.7886 3.50017 15.4999C3.53155 15.6948 3.56434 15.8848 3.59855 16.07C3.64563 16.3232 3.69615 16.5665 3.75013 16.7996C3.87291 17.3565 4.04009 17.9026 4.25007 18.4327C5.03669 20.336 5.40341 21.4554 7.16543 21.6287C7.32595 21.6447 7.49778 21.6527 7.68325 21.6527C7.96652 21.6521 8.24948 21.6343 8.5306 21.5995C9.11625 21.5208 9.69758 21.4127 10.2724 21.2756C10.4885 21.2252 10.713 21.1702 10.9437 21.1104C11.1367 21.0605 11.3336 21.0071 11.5345 20.9503C13.0785 20.5153 14.809 19.8878 16.1685 19.1092C16.2038 19.0894 16.2387 19.0687 16.2735 19.0485C18.736 17.6032 20.812 15.9127 21.9696 14.4105C22.687 13.4775 22.9977 12.3039 22.8433 11.1053ZM20.8497 13.5509C19.6704 15.0818 17.1284 16.7309 14.5416 18.0081C12.9086 18.8145 11.2577 19.4721 9.92026 19.8582C9.71972 19.9161 9.52577 19.9678 9.34076 20.013C9.09221 20.0738 8.85825 20.1227 8.6417 20.159C8.54441 20.1756 8.45026 20.1893 8.35925 20.1999C6.56428 20.4202 6.33785 19.8031 5.63878 18.1003L5.55452 17.8956C5.47732 17.7073 5.40294 17.4973 5.33233 17.2643C5.27207 17.068 5.21464 16.8561 5.1605 16.6311C4.81968 15.2188 4.5956 13.2826 4.61161 11.2748C4.62667 9.13992 4.91053 6.92594 5.60771 5.18178C6.28701 3.48187 8.12435 2.77055 9.77386 3.11326C13.8407 3.96063 17.947 6.68774 20.3606 9.12156C21.5605 10.3319 21.883 12.2069 20.8497 13.5509Z" fill="#F7BA14"/>
<path opacity="0.46" d="M5.16193 16.1756L3.50065 15.0486C3.23891 13.3373 3.1451 11.6046 3.22056 9.875L4.61304 10.8193C4.59797 12.8271 4.82111 14.7652 5.16193 16.1756Z" fill="#FFE97A"/>
<path opacity="0.46" d="M16.7268 18.916C15.3673 19.6946 13.6368 20.3221 12.0927 20.7571L10.4785 19.6626C11.8159 19.2766 13.4668 18.6189 15.0999 17.8125L16.7268 18.916Z" fill="#FFE97A"/>
<path d="M8.81918 4.65966C9.11315 4.65957 9.40055 4.74666 9.64502 4.90993C9.88949 5.0732 10.08 5.30531 10.1926 5.57689C10.3051 5.84848 10.3346 6.14734 10.2773 6.43567C10.2199 6.72401 10.0784 6.98887 9.87052 7.19674C9.66265 7.40462 9.3978 7.54617 9.10947 7.6035C8.82114 7.66083 8.52228 7.63136 8.2507 7.51881C7.97912 7.40627 7.74702 7.21571 7.58376 6.97124C7.42049 6.72676 7.3334 6.43936 7.33349 6.14538C7.33349 5.95027 7.37192 5.75707 7.44658 5.57682C7.52124 5.39656 7.63068 5.23278 7.76864 5.09482C7.9066 4.95686 8.07038 4.84742 8.25063 4.77276C8.43088 4.69809 8.62407 4.65966 8.81918 4.65966ZM11.9591 14.8059C11.3382 14.8059 10.7312 14.6218 10.2149 14.2768C9.69863 13.9319 9.29624 13.4415 9.05862 12.8679C8.82101 12.2942 8.75884 11.663 8.87997 11.054C9.00111 10.445 9.30011 9.88555 9.73917 9.44648C10.1782 9.00742 10.7376 8.70841 11.3466 8.58727C11.9556 8.46613 12.5868 8.52831 13.1605 8.76593C13.7341 9.00355 14.2245 9.40594 14.5694 9.92223C14.9144 10.4385 15.0985 11.0455 15.0985 11.6664C15.0985 12.4991 14.7678 13.2976 14.179 13.8864C13.5902 14.4752 12.7917 14.8059 11.9591 14.8059ZM20.3591 9.1234C17.9456 6.68957 13.8393 3.96247 9.77245 3.1151C9.306 3.01825 8.82604 3.00518 8.35502 3.0765C7.35797 3.22761 6.43153 3.76098 5.8751 4.65542C5.77119 4.82305 5.68219 4.99948 5.60913 5.18267C4.91195 6.92542 4.62809 9.1394 4.61302 11.2743C4.59796 13.2821 4.82109 15.2202 5.16192 16.6306C5.21605 16.8556 5.27349 17.0675 5.33374 17.2638C5.40435 17.4968 5.47873 17.7082 5.55594 17.8951L5.6402 18.0998C6.33926 19.8026 6.5657 20.4197 8.36067 20.1994C8.45074 20.1884 8.54489 20.1748 8.64312 20.1585C8.85966 20.1222 9.09363 20.0733 9.34218 20.0125C9.52719 19.9654 9.72114 19.9155 9.92167 19.8576C11.2591 19.4716 12.91 18.814 14.543 18.0076C16.6572 16.9634 18.7421 15.6712 20.0767 14.3964C20.3554 14.1338 20.6137 13.8505 20.8497 13.549C21.1835 13.1171 21.3914 12.6013 21.4503 12.0586C21.5671 11.0215 21.1594 9.92793 20.3591 9.1234Z" fill="#FEDB1F"/>
<path opacity="0.46" d="M21.4341 12.7601C21.3254 13.0753 21.1664 13.3708 20.9633 13.6353C20.8494 13.7831 20.7239 13.9317 20.5867 14.0811L20.4422 13.8208L6.34277 4.26764L6.22461 4.18761C6.90531 3.53514 6.81587 3.60952 7.65804 3.24609L7.80633 3.34919L21.1719 12.657L21.3004 12.7512L21.4341 12.7601Z" fill="#FFE97A"/>
<path d="M11.9592 8.52344C12.5801 8.52353 13.1871 8.70774 13.7033 9.05277C14.2195 9.39779 14.6218 9.88815 14.8594 10.4618C15.0969 11.0355 15.159 11.6667 15.0378 12.2757C14.9166 12.8847 14.6176 13.444 14.1785 13.8831C13.7394 14.3221 13.18 14.621 12.5711 14.7421C11.9621 14.8632 11.3309 14.801 10.7573 14.5634C10.1836 14.3258 9.69334 13.9234 9.34839 13.4071C9.00345 12.8908 8.81934 12.2838 8.81934 11.6629C8.81934 11.2506 8.90056 10.8423 9.05836 10.4614C9.21616 10.0805 9.44745 9.73434 9.73902 9.44281C10.0306 9.15127 10.3767 8.92003 10.7577 8.76228C11.1386 8.60453 11.5469 8.52338 11.9592 8.52344Z" fill="#BA7510"/>
<path d="M8.81918 4.65625C9.11316 4.65616 9.40056 4.74325 9.64503 4.90652C9.8895 5.06979 10.0801 5.3019 10.1926 5.57348C10.3051 5.84506 10.3346 6.14393 10.2773 6.43226C10.22 6.7206 10.0784 6.98545 9.87053 7.19333C9.66266 7.4012 9.3978 7.54276 9.10947 7.60009C8.82114 7.65742 8.52229 7.62795 8.25071 7.5154C7.97913 7.40286 7.74703 7.2123 7.58376 6.96782C7.4205 6.72335 7.3334 6.43595 7.3335 6.14197C7.3335 5.94686 7.37192 5.75366 7.44659 5.57341C7.52125 5.39315 7.63069 5.22937 7.76864 5.09141C7.9066 4.95344 8.07038 4.84401 8.25064 4.76934C8.43089 4.69468 8.62408 4.65625 8.81918 4.65625Z" fill="#BA7510"/>
<path d="M7.87539 1.61719C8.05556 1.61712 8.23562 1.62623 8.41487 1.64449C6.55352 1.82903 4.97086 2.97062 4.29769 4.65358C2.57521 8.96432 3.12081 15.6929 4.25061 18.4308C5.03724 20.3341 5.40395 21.4536 7.16597 21.6268C6.97484 21.6428 6.78654 21.6508 6.60107 21.6508C4.38478 21.6508 4.02654 20.5073 3.16836 18.4308C2.03856 15.6924 1.49296 8.96432 3.21543 4.65358C3.95498 2.80962 5.78338 1.61719 7.87539 1.61719Z" fill="#BA7510"/>
<path opacity="0.46" d="M14.5412 18.0067C12.9082 18.8131 11.2573 19.4708 9.91986 19.8568L5.16152 16.6297C4.82069 15.2175 4.59662 13.2812 4.61262 11.2734L14.5412 18.0067Z" fill="#FFE97A" stroke="#FFE97A" stroke-width="0.0470755" stroke-miterlimit="10"/>
<path opacity="0.46" d="M9.34052 20.0105C9.09197 20.0712 8.858 20.1202 8.64146 20.1564L5.63995 18.0978L5.55569 17.893C5.47849 17.7047 5.40411 17.4947 5.3335 17.2617L9.34052 20.0105Z" fill="#FFE97A"/>
<path d="M6.60281 21.7709C4.41383 21.7709 3.94967 20.6411 3.1814 18.7693L3.06136 18.4784C1.92309 15.7216 1.37513 8.94976 3.10843 4.61219C3.86352 2.72397 5.73475 1.5 7.87525 1.5C8.05951 1.49999 8.24365 1.50926 8.42697 1.52777L8.40296 1.76315C8.22765 1.74486 8.05152 1.73559 7.87525 1.73538C5.83173 1.73538 4.04617 2.8991 3.32686 4.70116C1.61521 8.98507 2.15517 15.6698 3.27979 18.3899C3.32059 18.4894 3.36044 18.5865 3.39936 18.6813C4.18033 20.5827 4.572 21.5369 6.60329 21.5369C6.78358 21.5369 6.96953 21.5289 7.15689 21.5134L7.17619 21.7488C6.98224 21.7624 6.7897 21.7709 6.60281 21.7709Z" fill="#BA7510"/>
<path d="M7.68324 21.7709C7.49494 21.7709 7.31841 21.7624 7.15459 21.7464C5.41281 21.575 4.98019 20.5191 4.26183 18.7689L4.14179 18.4784C3.00304 15.7226 2.45509 8.95117 4.18886 4.61219C4.87145 2.90051 6.48754 1.7189 8.40208 1.52778C8.58586 1.50912 8.77048 1.49985 8.95521 1.5C9.33479 1.50004 9.71338 1.539 10.085 1.61628C14.7247 2.58275 19.1055 5.68317 21.448 8.04355C22.2784 8.88056 22.8155 9.96237 22.9605 11.0894C23.1191 12.319 22.8 13.5237 22.0628 14.4817C20.8967 15.9951 18.8085 17.6965 16.3333 19.1492C13.9668 20.538 10.2884 21.503 8.54707 21.7153C8.26051 21.7512 7.97204 21.7698 7.68324 21.7709ZM22.727 11.1209C22.5886 10.0447 22.075 9.01143 21.2809 8.21067C18.9615 5.87194 14.6254 2.80212 10.0384 1.84695C9.68227 1.77277 9.31946 1.73539 8.95568 1.73538C8.27598 1.73534 7.60285 1.8684 6.97429 2.12705C6.08723 2.49162 5.33201 3.11732 4.80884 3.92112C4.65006 4.1676 4.51543 4.42882 4.40682 4.70116C2.6947 8.98507 3.23512 15.6698 4.35975 18.3899C4.4007 18.4888 4.44071 18.5862 4.47979 18.6813C5.18732 20.4047 5.57758 21.3547 7.17813 21.512C7.33395 21.5275 7.50389 21.5355 7.68371 21.5355C7.96289 21.535 8.24177 21.5176 8.51882 21.4832C10.238 21.2719 13.8764 20.3195 16.2137 18.9473C18.2281 17.7652 19.9797 16.4202 21.1787 15.1506C21.4246 14.892 21.6573 14.6211 21.8759 14.339C22.2163 13.8975 22.4664 13.3933 22.6121 12.8552C22.7644 12.2903 22.8034 11.7009 22.727 11.1209Z" fill="#BA7510"/>
<path d="M21.5826 11.2705C21.4763 10.4466 21.078 9.64633 20.4608 9.02493C18.2544 6.80013 14.1391 3.88142 9.80259 2.97756C9.27053 2.86696 8.72194 2.86184 8.18791 2.9625C7.87024 3.02203 7.56114 3.12053 7.2676 3.25578C6.64538 3.53665 6.12012 3.99525 5.7579 4.57391C5.64765 4.75027 5.55313 4.93599 5.47545 5.12893C4.76132 6.91782 4.40685 9.40342 4.47699 12.1329C4.53677 14.4528 4.90066 16.6814 5.4232 17.9491C5.46227 18.0433 5.49946 18.1346 5.53571 18.2231C6.13356 19.6763 6.42448 20.3839 7.74258 20.3839C7.95447 20.3822 8.16607 20.3678 8.37621 20.3406C9.91745 20.1523 12.4976 19.2107 14.9752 17.9491C16.9853 16.9262 18.9295 15.6923 20.1939 14.4787C20.3317 14.3462 20.461 14.2144 20.5818 14.0832C20.7202 13.9342 20.8458 13.7856 20.9584 13.6374C21.1615 13.373 21.3205 13.0775 21.4292 12.7623C21.4985 12.5637 21.5477 12.3587 21.5761 12.1503C21.6171 11.8586 21.6194 11.5627 21.5826 11.2705ZM20.7376 13.4651C20.6473 13.5828 20.5476 13.7021 20.4387 13.8229C20.2944 13.9839 20.1338 14.1479 19.9571 14.3149C18.8038 15.407 17.0037 16.6032 14.826 17.7076C12.3677 18.9551 9.82236 19.8787 8.34138 20.0614C6.67869 20.2652 6.47438 19.7677 5.79933 18.1186C5.76308 18.0296 5.72542 17.9383 5.68635 17.8432C5.18264 16.6244 4.81969 14.3812 4.76179 12.1282C4.69212 9.43449 5.03954 6.98702 5.74001 5.23438C5.80918 5.06086 5.89313 4.89359 5.99092 4.73444C6.09318 4.56878 6.21093 4.41321 6.34257 4.2698C6.74164 3.84136 7.24638 3.52542 7.80613 3.3537C8.04342 3.27936 8.28729 3.22797 8.53439 3.20023C8.68022 3.18388 8.82685 3.17571 8.9736 3.17575C9.23279 3.17557 9.49132 3.20192 9.74515 3.25437C14.0205 4.14505 18.0817 7.02656 20.2603 9.22265C21.0403 10.0093 21.4038 11.0214 21.3186 11.9695C21.2978 12.2045 21.2485 12.4361 21.1717 12.6592C21.0718 12.9497 20.9252 13.2219 20.7376 13.4651Z" fill="#BA7510"/>
<path d="M8.81937 7.6759C8.51612 7.6759 8.21969 7.58598 7.96755 7.4175C7.71541 7.24902 7.51889 7.00956 7.40284 6.72939C7.2868 6.44922 7.25643 6.14094 7.31559 5.84351C7.37475 5.54609 7.52078 5.27289 7.73521 5.05846C7.94963 4.84403 8.22283 4.698 8.52025 4.63884C8.81767 4.57968 9.12595 4.61004 9.40611 4.72609C9.68627 4.84214 9.92573 5.03866 10.0942 5.2908C10.2627 5.54295 10.3526 5.83939 10.3526 6.14264C10.3522 6.54917 10.1906 6.93894 9.90311 7.2264C9.61566 7.51387 9.22589 7.67553 8.81937 7.6759ZM8.81937 4.704C8.53472 4.704 8.25647 4.78841 8.01981 4.94656C7.78314 5.10472 7.59869 5.3295 7.48978 5.59249C7.38088 5.85548 7.3524 6.14486 7.40797 6.42404C7.46354 6.70321 7.60064 6.95964 7.80195 7.16088C8.00325 7.36212 8.25972 7.49915 8.5389 7.55462C8.81809 7.6101 9.10746 7.58153 9.37041 7.47254C9.63336 7.36354 9.85808 7.17901 10.0162 6.94229C10.1742 6.70557 10.2585 6.42729 10.2585 6.14264C10.258 5.76116 10.1062 5.39545 9.83637 5.12575C9.56659 4.85605 9.20084 4.70437 8.81937 4.704Z" fill="#BA7510" stroke="#BA7510" stroke-width="0.0353066" stroke-miterlimit="10"/>
<path d="M11.959 14.8497C11.3287 14.8497 10.7127 14.6628 10.1886 14.3127C9.66462 13.9625 9.2562 13.4648 9.01502 12.8826C8.77384 12.3003 8.71074 11.6596 8.83369 11.0415C8.95664 10.4233 9.26013 9.85554 9.70577 9.40989C10.1514 8.96424 10.7192 8.66075 11.3373 8.53779C11.9554 8.41484 12.5961 8.47794 13.1784 8.71913C13.7607 8.96031 14.2583 9.36874 14.6085 9.89277C14.9586 10.4168 15.1455 11.0329 15.1455 11.6631C15.1445 12.508 14.8084 13.3179 14.2111 13.9153C13.6137 14.5127 12.8038 14.8487 11.959 14.8497ZM11.959 8.57072C11.3474 8.57072 10.7495 8.75208 10.2409 9.09188C9.73241 9.43168 9.33606 9.91465 9.102 10.4797C8.86795 11.0448 8.80671 11.6666 8.92603 12.2664C9.04535 12.8663 9.33987 13.4173 9.77234 13.8498C10.2048 14.2823 10.7558 14.5768 11.3557 14.6961C11.9555 14.8154 12.5773 14.7542 13.1424 14.5202C13.7074 14.2861 14.1904 13.8897 14.5302 13.3812C14.87 12.8726 15.0513 12.2748 15.0513 11.6631C15.0503 10.8433 14.7242 10.0573 14.1445 9.47756C13.5648 8.89784 12.7788 8.57171 11.959 8.57072Z" fill="#BA7510" stroke="#BA7510" stroke-width="0.0353066" stroke-miterlimit="10"/>
<path opacity="0.46" d="M20.7852 13.8352L21.7431 14.5056C21.9719 14.2791 22.2906 13.7524 22.5109 13.1446L21.4701 12.6484C21.2314 13.324 21.037 13.5744 20.7852 13.8352Z" fill="#FFE97A"/>
<path d="M20.4533 9.58424C20.3864 9.50516 20.3167 9.42544 20.2442 9.3451C17.8891 6.73191 13.0441 3.84098 9.39062 3.28125C10.8368 3.42483 12.7584 4.09237 14.776 5.16146C17.0639 6.37225 19.041 7.86833 20.2019 9.26601C20.2913 9.37334 20.3746 9.47926 20.4533 9.58424Z" fill="#BA7510"/>
<path d="M8.832 3.10938C8.32218 3.10938 7.88109 3.1894 7.5332 3.36264C7.75633 3.33661 7.9808 3.32388 8.20543 3.32451C13.2627 3.32451 21.6877 9.30315 21.4133 11.9394C22.0253 8.63279 13.0664 3.11032 8.832 3.11032V3.10938Z" fill="#BA7510"/>
<path d="M11.7291 14.9611C13.4505 14.9611 14.846 13.541 14.846 11.7892C14.846 10.0373 13.4505 8.61719 11.7291 8.61719C10.0078 8.61719 8.6123 10.0373 8.6123 11.7892C8.6123 13.541 10.0078 14.9611 11.7291 14.9611Z" fill="#FFE97A"/>
<path d="M11.7294 8.66494C13.4241 8.66494 14.7991 10.0669 14.7991 11.7898C14.7991 13.5128 13.4222 14.9147 11.7294 14.9147C10.0365 14.9147 8.66007 13.5128 8.66007 11.7894C8.66007 10.0659 10.037 8.66494 11.7294 8.66494ZM11.7294 8.57031C9.98241 8.57031 8.56592 10.0118 8.56592 11.7894C8.56592 13.5669 9.98241 15.0089 11.7294 15.0089C13.4763 15.0089 14.8933 13.5674 14.8933 11.7894C14.8933 10.0113 13.4768 8.57031 11.7294 8.57031Z" fill="#BA7510"/>
<path d="M8.749 7.64555C9.53859 7.64555 10.1787 6.99386 10.1787 6.18996C10.1787 5.38606 9.53859 4.73438 8.749 4.73438C7.95942 4.73438 7.31934 5.38606 7.31934 6.18996C7.31934 6.99386 7.95942 7.64555 8.749 7.64555Z" fill="#FFE97A"/>
<path d="M8.74875 4.76856C9.5189 4.76856 10.1459 5.40644 10.1459 6.19119C10.1459 6.97595 9.5189 7.61383 8.74875 7.61383C7.97861 7.61383 7.35157 6.97548 7.35157 6.19119C7.35157 5.40691 7.97814 4.76856 8.74875 4.76856ZM8.74875 4.70312C7.94095 4.70312 7.28613 5.36925 7.28613 6.19119C7.28613 7.01314 7.94095 7.67926 8.74875 7.67926C9.55656 7.67926 10.2109 7.01314 10.2109 6.19119C10.2109 5.36925 9.55656 4.70312 8.74875 4.70312Z" fill="#BA7510"/>
<path opacity="0.46" d="M5.33676 17.7229L3.83554 16.6025C3.78188 16.3694 3.72774 16.1317 3.68066 15.8789L5.07314 16.8675C5.14187 17.1424 5.30946 17.6565 5.33676 17.7229Z" fill="#FFE97A"/>
<path opacity="0.46" d="M11.1558 20.9359C10.9251 20.9956 10.5989 21.0818 10.3828 21.1322L9.03174 20.2297C9.24828 20.1935 9.55804 20.0998 9.80659 20.0391L11.1558 20.9359Z" fill="#FFE97A"/>
<path d="M5.60107 18.9637C5.75924 19.3563 5.92494 19.7593 6.20975 20.0794C6.50632 20.4132 6.91587 20.5798 7.35273 20.625C7.60357 20.6475 7.8561 20.6427 8.10593 20.6109C8.19537 20.601 8.19631 20.4593 8.10593 20.4697C7.69261 20.5168 7.25858 20.5215 6.86456 20.3699C6.47807 20.2206 6.21163 19.9076 6.01956 19.5512C5.91395 19.3482 5.81966 19.1395 5.73711 18.9261C5.70369 18.8427 5.56717 18.879 5.60107 18.9637Z" fill="#FFE97A"/>
<path d="M8.36212 20.5787C8.38084 20.5787 8.39881 20.5713 8.41205 20.558C8.42529 20.5448 8.43273 20.5268 8.43273 20.5081C8.43273 20.4894 8.42529 20.4714 8.41205 20.4582C8.39881 20.4449 8.38084 20.4375 8.36212 20.4375C8.34339 20.4375 8.32543 20.4449 8.31219 20.4582C8.29894 20.4714 8.2915 20.4894 8.2915 20.5081C8.2915 20.5268 8.29894 20.5448 8.31219 20.558C8.32543 20.5713 8.34339 20.5787 8.36212 20.5787Z" fill="#FFE97A"/>
<path d="M7.42956 2.95643C8.19393 2.69366 9.01222 2.62792 9.80873 2.7653C10.0367 2.8054 10.2615 2.86172 10.4814 2.93383C10.4993 2.93878 10.518 2.94015 10.5365 2.93787C10.5549 2.93559 10.5727 2.9297 10.5888 2.92054C10.605 2.91139 10.6192 2.89914 10.6306 2.88449C10.642 2.86985 10.6504 2.8531 10.6554 2.83521C10.6603 2.81731 10.6617 2.79861 10.6594 2.78019C10.6571 2.76176 10.6512 2.74396 10.6421 2.72781C10.6329 2.71166 10.6207 2.69747 10.606 2.68605C10.5914 2.67463 10.5747 2.66621 10.5568 2.66126C9.74602 2.3994 8.88266 2.34454 8.0453 2.50167C7.81079 2.54559 7.57982 2.60664 7.35424 2.68433C7.31865 2.69507 7.28856 2.71911 7.27023 2.75147C7.25191 2.78382 7.24676 2.82199 7.25585 2.85804C7.26586 2.89411 7.28977 2.92474 7.32234 2.94319C7.35492 2.96164 7.39348 2.9664 7.42956 2.95643Z" fill="#FFE97A"/>
<path d="M10.8855 3.06371C11.0672 3.06371 11.0672 2.78125 10.8855 2.78125C10.7038 2.78125 10.7033 3.06371 10.8855 3.06371Z" fill="#FFE97A"/>
</svg>
