<svg width="24" height="24" viewBox="0 0 24 24" fill="none" xmlns="http://www.w3.org/2000/svg">
<path d="M20.5769 10.9905L19.2085 9.62043C18.9745 9.38608 18.7854 8.92639 18.7854 8.60191V6.65498C18.7854 5.86179 18.1373 5.21282 17.3451 5.21282H15.4096C15.0855 5.21282 14.6264 5.02354 14.3923 4.78918L13.024 3.41913C12.4658 2.86029 11.5476 2.86029 10.9895 3.41913L9.60314 4.78918C9.37809 5.02354 8.91897 5.21282 8.58589 5.21282H6.65041C5.85821 5.21282 5.21005 5.86179 5.21005 6.65498V8.59289C5.21005 8.91738 5.021 9.37707 4.78694 9.61142L3.4186 10.9815C2.86047 11.5403 2.86047 12.4597 3.4186 13.0185L4.78694 14.3886C5.021 14.6229 5.21005 15.0826 5.21005 15.4071V17.345C5.21005 18.1382 5.85821 18.7872 6.65041 18.7872H8.58589C8.90997 18.7872 9.36909 18.9765 9.60314 19.2108L10.9715 20.5809C11.5296 21.1397 12.4478 21.1397 13.006 20.5809L14.3743 19.2108C14.6084 18.9765 15.0675 18.7872 15.3916 18.7872H17.3271C18.1193 18.7872 18.7674 18.1382 18.7674 17.345V15.4071C18.7674 15.0826 18.9565 14.6229 19.1905 14.3886L20.5589 13.0185C21.144 12.4687 21.144 11.5493 20.5769 10.9905Z" stroke="#3F3F3F" stroke-width="2"/>
<path d="M15 9L9 15" stroke="#3F3F3F" stroke-width="2" stroke-linecap="round" stroke-linejoin="round"/>
<path d="M14.5 16C15.3284 16 16 15.3284 16 14.5C16 13.6716 15.3284 13 14.5 13C13.6716 13 13 13.6716 13 14.5C13 15.3284 13.6716 16 14.5 16Z" fill="#3F3F3F"/>
<path d="M9.5 11C10.3284 11 11 10.3284 11 9.5C11 8.67157 10.3284 8 9.5 8C8.67157 8 8 8.67157 8 9.5C8 10.3284 8.67157 11 9.5 11Z" fill="#3F3F3F"/>
</svg>
