<svg width="20" height="20" viewBox="0 0 20 20" fill="none" xmlns="http://www.w3.org/2000/svg">
<path d="M19.5289 8.8689L18.0089 7.34891C17.7489 7.08891 17.5389 6.57891 17.5389 6.21891V4.05891C17.5389 3.17891 16.8189 2.45891 15.9389 2.45891H13.7889C13.4289 2.45891 12.9189 2.24891 12.6589 1.98891L11.1389 0.468906C10.5189 -0.151094 9.49889 -0.151094 8.87889 0.468906L7.33891 1.98891C7.08891 2.24891 6.57891 2.45891 6.20891 2.45891H4.05891C3.17891 2.45891 2.45891 3.17891 2.45891 4.05891V6.20891C2.45891 6.56891 2.24891 7.07891 1.98891 7.33891L0.468906 8.8589C-0.151094 9.4789 -0.151094 10.4989 0.468906 11.1189L1.98891 12.6389C2.24891 12.8989 2.45891 13.4089 2.45891 13.7689V15.9189C2.45891 16.7989 3.17891 17.5189 4.05891 17.5189H6.20891C6.56891 17.5189 7.07891 17.7289 7.33891 17.9889L8.8589 19.5089C9.4789 20.1289 10.4989 20.1289 11.1189 19.5089L12.6389 17.9889C12.8989 17.7289 13.4089 17.5189 13.7689 17.5189H15.9189C16.7989 17.5189 17.5189 16.7989 17.5189 15.9189V13.7689C17.5189 13.4089 17.7289 12.8989 17.9889 12.6389L19.5089 11.1189C20.1589 10.5089 20.1589 9.4889 19.5289 8.8689ZM5.99891 6.99891C5.99891 6.44891 6.44891 5.99891 6.99891 5.99891C7.54891 5.99891 7.99891 6.44891 7.99891 6.99891C7.99891 7.54891 7.55891 7.99891 6.99891 7.99891C6.44891 7.99891 5.99891 7.54891 5.99891 6.99891ZM7.5289 13.5289C7.3789 13.6789 7.18891 13.7489 6.99891 13.7489C6.80891 13.7489 6.61891 13.6789 6.46891 13.5289C6.17891 13.2389 6.17891 12.7589 6.46891 12.4689L12.4689 6.46891C12.7589 6.17891 13.2389 6.17891 13.5289 6.46891C13.8189 6.75891 13.8189 7.23891 13.5289 7.52891L7.5289 13.5289ZM12.9989 13.9989C12.4389 13.9989 11.9889 13.5489 11.9889 12.9989C11.9889 12.4489 12.4389 11.9989 12.9889 11.9989C13.5389 11.9989 13.9889 12.4489 13.9889 12.9989C13.9889 13.5489 13.5489 13.9989 12.9989 13.9989Z" fill="#AB22AF"/>
</svg>
