<svg width="36" height="36" viewBox="0 0 36 36" fill="none" xmlns="http://www.w3.org/2000/svg">
<rect width="36" height="36" rx="18" fill="black" fill-opacity="0.5"/>
<path fill-rule="evenodd" clip-rule="evenodd" d="M15.5 10C15.9107 10 16.2796 10.2511 16.4303 10.6331L17.7953 14.0941C17.9881 14.583 18.0284 14.6662 18.0733 14.7289C18.128 14.8052 18.1948 14.872 18.2711 14.9267C18.3338 14.9716 18.417 15.0119 18.9059 15.2047L22.3669 16.5697C22.7489 16.7204 23 17.0893 23 17.5C23 17.9107 22.7489 18.2796 22.3669 18.4303L18.9059 19.7953C18.417 19.9881 18.3338 20.0284 18.2711 20.0733C18.1948 20.128 18.128 20.1948 18.0733 20.2711C18.0284 20.3338 17.9881 20.417 17.7953 20.9059L16.4303 24.3669C16.2796 24.7489 15.9107 25 15.5 25C15.0893 25 14.7204 24.7489 14.5697 24.3669L13.2047 20.9059C13.0119 20.417 12.9716 20.3338 12.9267 20.2711C12.872 20.1948 12.8052 20.128 12.7289 20.0733C12.6662 20.0284 12.583 19.9881 12.0941 19.7953L8.63311 18.4303C8.25108 18.2796 8 17.9107 8 17.5C8 17.0893 8.25108 16.7204 8.63311 16.5697L12.0941 15.2047C12.583 15.0119 12.6662 14.9716 12.7289 14.9267C12.8052 14.872 12.872 14.8052 12.9267 14.7289C12.9716 14.6662 13.0119 14.583 13.2047 14.0941L14.5697 10.6331C14.7204 10.2511 15.0893 10 15.5 10ZM15.5 13.7256L15.0653 14.8279C15.055 14.854 15.0448 14.8799 15.0346 14.9057C14.891 15.271 14.7603 15.6035 14.5527 15.8934C14.3705 16.1478 14.1478 16.3705 13.8934 16.5527C13.6035 16.7603 13.271 16.891 12.9057 17.0346C12.8799 17.0448 12.854 17.055 12.8279 17.0653L11.7256 17.5L12.8279 17.9347C12.854 17.945 12.8799 17.9552 12.9057 17.9654C13.271 18.109 13.6035 18.2397 13.8934 18.4473C14.1478 18.6295 14.3705 18.8522 14.5527 19.1066C14.7603 19.3965 14.891 19.729 15.0346 20.0943C15.0448 20.12 15.055 20.146 15.0653 20.1721L15.5 21.2744L15.9347 20.1721C15.945 20.146 15.9552 20.1201 15.9654 20.0943C16.109 19.729 16.2397 19.3965 16.4473 19.1066C16.6295 18.8522 16.8522 18.6295 17.1066 18.4473C17.3965 18.2397 17.729 18.109 18.0943 17.9654C18.1201 17.9552 18.146 17.945 18.1721 17.9347L19.2744 17.5L18.1721 17.0653C18.146 17.055 18.1201 17.0448 18.0943 17.0346C17.729 16.8911 17.3965 16.7603 17.1066 16.5527C16.8522 16.3705 16.6295 16.1478 16.4473 15.8934C16.2397 15.6035 16.109 15.271 15.9654 14.9057C15.9552 14.8799 15.945 14.854 15.9347 14.8279L15.5 13.7256Z" fill="white"/>
<path d="M25.691 10.6728C25.5119 10.628 25.372 10.4881 25.3272 10.309L24.9851 8.94029C24.8588 8.43531 24.1412 8.43531 24.0149 8.94029L23.6728 10.309C23.628 10.4881 23.4881 10.628 23.309 10.6728L21.9403 11.0149C21.4353 11.1412 21.4353 11.8588 21.9403 11.9851L23.309 12.3272C23.4881 12.372 23.628 12.5119 23.6728 12.691L24.0149 14.0597C24.1412 14.5647 24.8588 14.5647 24.9851 14.0597L25.3272 12.691C25.372 12.5119 25.5119 12.372 25.691 12.3272L27.0597 11.9851C27.5647 11.8588 27.5647 11.1412 27.0597 11.0149L25.691 10.6728Z" fill="white"/>
<path d="M22.691 23.6728C22.5119 23.628 22.372 23.4881 22.3272 23.309L21.9851 21.9403C21.8588 21.4353 21.1412 21.4353 21.0149 21.9403L20.6728 23.309C20.628 23.4881 20.4881 23.628 20.309 23.6728L18.9403 24.0149C18.4353 24.1412 18.4353 24.8588 18.9403 24.9851L20.309 25.3272C20.4881 25.372 20.628 25.5119 20.6728 25.691L21.0149 27.0597C21.1412 27.5647 21.8588 27.5647 21.9851 27.0597L22.3272 25.691C22.372 25.5119 22.5119 25.372 22.691 25.3272L24.0597 24.9851C24.5647 24.8588 24.5647 24.1412 24.0597 24.0149L22.691 23.6728Z" fill="white"/>
</svg>
