<svg width="36" height="36" viewBox="0 0 36 36" fill="none" xmlns="http://www.w3.org/2000/svg">
<rect width="36" height="36" rx="18" fill="black" fill-opacity="0.5"/>
<path fill-rule="evenodd" clip-rule="evenodd" d="M19.8814 9.12252C19.9359 8.6811 19.6923 8.25674 19.2836 8.08118C18.8749 7.90563 18.3994 8.0211 18.1168 8.36451L9.2279 19.1645C8.98202 19.4633 8.93054 19.877 9.09572 20.2269C9.2609 20.5768 9.6131 20.8 10 20.8H16.869L16.1187 26.8775C16.0642 27.3189 16.3078 27.7433 16.7164 27.9188C17.1251 28.0944 17.6006 27.9789 17.8832 27.6355L26.7721 16.8355C27.018 16.5367 27.0695 16.123 26.9043 15.7731C26.7391 15.4232 26.3869 15.2 26 15.2H19.1311L19.8814 9.12252ZM18 18.8H12.1182L17.4749 12.2916L17.0075 16.0775C16.9724 16.3619 17.061 16.6477 17.2508 16.8624C17.4406 17.0771 17.7134 17.2 18 17.2H23.8818L18.5251 23.7084L18.9925 19.9225C19.0276 19.6381 18.939 19.3523 18.7492 19.1376C18.5594 18.9229 18.2866 18.8 18 18.8Z" fill="white"/>
<path fill-rule="evenodd" clip-rule="evenodd" d="M24.8221 21C24.3682 21 23.9586 21.2727 23.7836 21.6916L22.0787 25.7711L21.7233 26.6097C21.5078 27.1182 21.7452 27.7052 22.2537 27.9207C22.7622 28.1362 23.3492 27.8987 23.5647 27.3903L23.6627 27.1591H25.9816L26.0796 27.3903C26.2951 27.8987 26.882 28.1362 27.3905 27.9207C27.899 27.7052 28.1365 27.1182 27.921 26.6097L27.5655 25.7712L25.8607 21.6916C25.6856 21.2727 25.2761 21 24.8221 21ZM25.1421 25.1591H24.5021L24.8221 24.3934L25.1421 25.1591Z" fill="white"/>
</svg>
