<svg width="28" height="28" viewBox="0 0 28 28" fill="none" xmlns="http://www.w3.org/2000/svg">
<path fill-rule="evenodd" clip-rule="evenodd" d="M9.33268 8.6665C8.96449 8.6665 8.66602 8.96498 8.66602 9.33317C8.66602 9.70136 8.96449 9.99984 9.33268 9.99984C9.70087 9.99984 9.99935 9.70136 9.99935 9.33317C9.99935 8.96498 9.70087 8.6665 9.33268 8.6665ZM5.99935 9.33317C5.99935 7.49222 7.49173 5.99984 9.33268 5.99984C11.1736 5.99984 12.666 7.49222 12.666 9.33317C12.666 11.1741 11.1736 12.6665 9.33268 12.6665C7.49173 12.6665 5.99935 11.1741 5.99935 9.33317Z" fill="white"/>
<path fill-rule="evenodd" clip-rule="evenodd" d="M4.66602 0.666504C2.45688 0.666504 0.666016 2.45736 0.666016 4.6665V23.3332C0.666016 25.5423 2.45688 27.3332 4.66602 27.3332H23.3327C25.5418 27.3332 27.3327 25.5423 27.3327 23.3332V4.6665C27.3327 2.45736 25.5418 0.666504 23.3327 0.666504H4.66602ZM4.66602 3.33317C3.92964 3.33317 3.33268 3.93012 3.33268 4.6665V23.3332C3.33268 23.9049 3.69255 24.3926 4.19813 24.5821L14.6186 14.1616C17.2221 11.5581 21.4432 11.5581 24.0467 14.1616L24.666 14.7809V4.6665C24.666 3.93012 24.0691 3.33317 23.3327 3.33317H4.66602ZM9.33268 5.99984C7.49173 5.99984 5.99935 7.49222 5.99935 9.33317C5.99935 11.1741 7.49173 12.6665 9.33268 12.6665C11.1736 12.6665 12.666 11.1741 12.666 9.33317C12.666 7.49222 11.1736 5.99984 9.33268 5.99984ZM8.66602 9.33317C8.66602 8.96498 8.96449 8.6665 9.33268 8.6665C9.70087 8.6665 9.99935 8.96498 9.99935 9.33317C9.99935 9.70136 9.70087 9.99984 9.33268 9.99984C8.96449 9.99984 8.66602 9.70136 8.66602 9.33317ZM23.3327 24.6665C24.0691 24.6665 24.666 24.0695 24.666 23.3332V18.5521L22.1611 16.0472C20.599 14.4851 18.0664 14.4851 16.5043 16.0472L7.88497 24.6665H23.3327Z" fill="white"/>
</svg>
