<svg width="24" height="25" viewBox="0 0 24 25" fill="none" xmlns="http://www.w3.org/2000/svg">
<g clip-path="url(#clip0_2755_12916)">
<path d="M6.5038 3.80616C6.84109 3.5073 6.841 3.02281 6.50361 2.72403C6.16623 2.42526 5.6193 2.42533 5.28201 2.7242C3.50069 4.30261 2.5 6.44312 2.5 8.675C2.5 10.9069 3.50069 13.0474 5.28201 14.6258C5.6193 14.9247 6.16623 14.9247 6.50361 14.626C6.841 14.3272 6.84109 13.8427 6.5038 13.5438C5.04636 12.2524 4.22761 10.5011 4.22761 8.675C4.22761 6.84892 5.04636 5.09759 6.5038 3.80616Z" fill="#3F3F3F"/>
<path d="M18.718 2.7242C18.3807 2.42533 17.8338 2.42526 17.4964 2.72403C17.159 3.02281 17.1589 3.5073 17.4962 3.80616C18.9536 5.09759 19.7724 6.84892 19.7724 8.675C19.7724 10.5011 18.9536 12.2524 17.4962 13.5438C17.1589 13.8427 17.159 14.3272 17.4964 14.626C17.8338 14.9247 18.3807 14.9247 18.718 14.6258C20.4993 13.0474 21.5 10.9069 21.5 8.675C21.5 6.44312 20.4993 4.30261 18.718 2.7242Z" fill="#3F3F3F"/>
<path d="M8.94793 5.96435C9.28546 5.6657 9.28576 5.18121 8.94861 4.88222C8.61146 4.58324 8.06453 4.58297 7.72701 4.88162C7.16482 5.37907 6.71882 5.96981 6.41453 6.62005C6.11024 7.27029 5.95361 7.96728 5.95361 8.67118C5.95361 9.37507 6.11024 10.0721 6.41453 10.7223C6.71882 11.3725 7.16482 11.9633 7.72701 12.4607C8.06453 12.7594 8.61146 12.7591 8.94861 12.4601C9.28576 12.1611 9.28546 11.6767 8.94793 11.378C8.54637 11.0227 8.2278 10.6007 8.01045 10.1363C7.7931 9.67181 7.68122 9.17396 7.68122 8.67118C7.68122 8.16839 7.7931 7.67054 8.01045 7.20608C8.2278 6.74163 8.54637 6.31967 8.94793 5.96435Z" fill="#3F3F3F"/>
<path d="M16.273 4.88927C15.9355 4.59062 15.3885 4.59089 15.0514 4.88988C14.7142 5.18886 14.7145 5.67335 15.0521 5.972C15.4536 6.32733 15.7722 6.74928 15.9896 7.21374C16.2069 7.67819 16.3188 8.17604 16.3188 8.67883C16.3188 9.18161 16.2069 9.67946 15.9896 10.1439C15.7722 10.6084 15.4536 11.0303 15.0521 11.3856C14.7145 11.6843 14.7142 12.1688 15.0514 12.4678C15.3885 12.7668 15.9355 12.767 16.273 12.4684C16.8352 11.9709 17.2812 11.3802 17.5855 10.73C17.8898 10.0797 18.0464 9.38272 18.0464 8.67883C18.0464 7.97493 17.8898 7.27794 17.5855 6.6277C17.2812 5.97746 16.8352 5.38673 16.273 4.88927Z" fill="#3F3F3F"/>
<path d="M13.7892 7.1302C13.3808 6.85306 12.9563 6.60341 12.5082 6.39652C12.1677 6.23925 11.818 6.10717 11.4447 6.05144C11.2798 6.02701 11.1149 6.01938 10.9507 6.0522C10.6255 6.1171 10.4041 6.31636 10.2529 6.60341C10.0972 6.89963 10.0208 7.21952 9.9697 7.54628C9.9132 7.90662 9.8987 8.27079 9.90175 8.63496C9.90175 8.71741 9.90099 8.7991 9.90175 8.88155C9.90633 9.18998 9.93229 9.49613 9.9842 9.79998C10.0354 10.1 10.1102 10.3917 10.2537 10.6619C10.3468 10.8367 10.4652 10.9894 10.64 11.0948C10.8332 11.2108 11.0416 11.2406 11.2615 11.2299C11.4958 11.2192 11.7211 11.1658 11.9432 11.0948C12.2524 10.9955 12.5509 10.868 12.8342 10.71C13.125 10.5474 13.4129 10.3787 13.6953 10.2016C13.9312 10.0534 14.1526 9.8832 14.3588 9.69462C14.5412 9.52743 14.7107 9.34878 14.8336 9.1312C15.0008 8.83574 15.0222 8.53265 14.8764 8.22269C14.7878 8.03336 14.6573 7.8738 14.513 7.72492C14.2939 7.49818 14.048 7.30579 13.7892 7.1302ZM10.7011 6.98056C10.7034 6.70266 10.924 6.52631 11.1576 6.52631C11.3851 6.52554 11.6218 6.70572 11.6111 7.00652C11.602 7.24929 11.3996 7.44016 11.15 7.4371C10.9026 7.43329 10.6988 7.23937 10.7011 6.98056ZM12.1127 9.57705C11.6012 9.5824 11.1599 9.1709 11.1614 8.62732C11.163 8.11047 11.5684 7.6837 12.1089 7.68293C12.6517 7.68141 13.0563 8.12192 13.0556 8.62885C13.0548 9.1541 12.6349 9.57705 12.1127 9.57705Z" fill="#3F3F3F"/>
<mask id="path-3-outside-1_2755_12916" maskUnits="userSpaceOnUse" x="3.5" y="15.9668" width="17" height="7" fill="black">
<rect fill="white" x="3.5" y="15.9668" width="17" height="7"/>
<path d="M4.95154 20.9468L6.92485 20.9507C6.99546 20.9507 7.06085 20.9651 7.121 20.9939C7.18377 21.02 7.23738 21.0566 7.28185 21.1037C7.32892 21.1482 7.36554 21.2018 7.39169 21.2646C7.41785 21.3273 7.43092 21.394 7.43092 21.4646C7.43092 21.5353 7.41785 21.602 7.39169 21.6647C7.36554 21.7249 7.32892 21.7785 7.28185 21.8256C7.23738 21.87 7.18377 21.9053 7.121 21.9315C7.06085 21.9576 6.99546 21.9694 6.92485 21.9668H4.44154H4.418C4.39185 21.9668 4.37223 21.9655 4.35915 21.9629C4.35392 21.9603 4.34608 21.959 4.33562 21.959C4.21792 21.9354 4.12115 21.8792 4.04531 21.7903C3.96946 21.6987 3.93154 21.5902 3.93154 21.4646V21.4568V21.4372V17.4474C3.93154 17.3768 3.94462 17.3114 3.97077 17.2513C3.99692 17.1885 4.03354 17.1349 4.08062 17.0904C4.12769 17.046 4.18131 17.0106 4.24146 16.9845C4.30423 16.9583 4.37092 16.9453 4.44154 16.9453C4.51215 16.9453 4.57754 16.9583 4.63769 16.9845C4.70046 17.0106 4.75538 17.046 4.80246 17.0904C4.84954 17.1349 4.88615 17.1885 4.91231 17.2513C4.93846 17.3114 4.95154 17.3768 4.95154 17.4474V20.9468ZM9.32638 21.4646C9.32638 21.5353 9.31331 21.602 9.28715 21.6647C9.261 21.7249 9.22438 21.7772 9.17731 21.8216C9.13023 21.8661 9.07531 21.9014 9.01254 21.9276C8.95238 21.9537 8.887 21.9668 8.81638 21.9668C8.74577 21.9668 8.67907 21.9537 8.61631 21.9276C8.55615 21.9014 8.50254 21.8661 8.45546 21.8216C8.40838 21.7772 8.37177 21.7249 8.34561 21.6647C8.31946 21.602 8.30638 21.5353 8.30638 21.4646V17.4474C8.30638 17.3768 8.31946 17.3114 8.34561 17.2513C8.37177 17.1885 8.40838 17.1349 8.45546 17.0904C8.50254 17.046 8.55615 17.0106 8.61631 16.9845C8.67907 16.9583 8.74577 16.9453 8.81638 16.9453C8.887 16.9453 8.95238 16.9583 9.01254 16.9845C9.07531 17.0106 9.13023 17.046 9.17731 17.0904C9.22438 17.1349 9.261 17.1885 9.28715 17.2513C9.31331 17.3114 9.32638 17.3768 9.32638 17.4474V21.4646ZM10.5522 17.6475C10.5235 17.5821 10.5104 17.5154 10.513 17.4474C10.513 17.3794 10.5248 17.3166 10.5483 17.2591C10.5745 17.199 10.6111 17.1453 10.6581 17.0983C10.7078 17.0486 10.7667 17.0106 10.8347 16.9845C10.8975 16.9583 10.9615 16.9466 11.0269 16.9492C11.0923 16.9492 11.1538 16.9623 11.2113 16.9884C11.2715 17.012 11.3251 17.0473 11.3721 17.0943C11.4192 17.1388 11.4571 17.1937 11.4859 17.2591L12.7413 20.1936L13.9888 17.2591C14.015 17.1963 14.0516 17.1414 14.0987 17.0943C14.1484 17.0473 14.202 17.012 14.2595 16.9884C14.3197 16.9623 14.3825 16.9492 14.4478 16.9492C14.5132 16.9466 14.5786 16.9583 14.644 16.9845C14.7094 17.0106 14.7656 17.0473 14.8127 17.0943C14.8598 17.1414 14.8951 17.195 14.9186 17.2552C14.9448 17.3153 14.9578 17.3794 14.9578 17.4474C14.9605 17.5154 14.9474 17.5821 14.9186 17.6475L13.2081 21.653C13.1663 21.7523 13.1035 21.8295 13.0198 21.8844C12.9361 21.9367 12.8446 21.9642 12.7452 21.9668H12.706L12.655 21.959C12.5713 21.9459 12.4941 21.9132 12.4235 21.8609C12.3555 21.8086 12.3032 21.7393 12.2666 21.653L10.5522 17.6475ZM16.4572 21.9668C16.3238 21.9537 16.2113 21.9014 16.1198 21.8099C16.0309 21.7183 15.9864 21.6033 15.9864 21.4646V17.4553C15.9864 17.3846 15.9995 17.3193 16.0256 17.2591C16.0518 17.1963 16.0871 17.1414 16.1316 17.0943C16.1786 17.0473 16.2336 17.0106 16.2963 16.9845C16.3591 16.9583 16.4258 16.9453 16.4964 16.9453H19.1366C19.2073 16.9453 19.2726 16.9583 19.3328 16.9845C19.3956 17.0106 19.4492 17.0473 19.4936 17.0943C19.5381 17.1414 19.5734 17.1963 19.5996 17.2591C19.6257 17.3193 19.6388 17.3846 19.6388 17.4553C19.6388 17.5259 19.6257 17.5926 19.5996 17.6553C19.5734 17.7155 19.5381 17.7691 19.4936 17.8162C19.4492 17.8633 19.3956 17.8999 19.3328 17.926C19.2726 17.9522 19.2073 17.9653 19.1366 17.9653H17.0064V18.8754H18.7012C18.7718 18.8728 18.8372 18.8859 18.8973 18.9146C18.9601 18.9408 19.015 18.9774 19.0621 19.0245C19.1092 19.0716 19.1458 19.1278 19.172 19.1932C19.1981 19.256 19.2112 19.3226 19.2112 19.3933C19.2112 19.4639 19.1981 19.5293 19.172 19.5894C19.1458 19.6496 19.1092 19.7032 19.0621 19.7503C19.015 19.7947 18.9601 19.83 18.8973 19.8562C18.8372 19.8797 18.7718 19.8915 18.7012 19.8915H17.0064V20.9468H19.1366C19.2073 20.9468 19.2726 20.9612 19.3328 20.99C19.3956 21.0161 19.4492 21.0527 19.4936 21.0998C19.5381 21.1469 19.5734 21.2018 19.5996 21.2646C19.6257 21.3273 19.6388 21.394 19.6388 21.4646C19.6388 21.5353 19.6257 21.602 19.5996 21.6647C19.5734 21.7249 19.5381 21.7785 19.4936 21.8256C19.4492 21.87 19.3956 21.9053 19.3328 21.9315C19.2726 21.9576 19.2073 21.9694 19.1366 21.9668H16.4572Z"/>
</mask>
<path d="M4.95154 20.9468L6.92485 20.9507C6.99546 20.9507 7.06085 20.9651 7.121 20.9939C7.18377 21.02 7.23738 21.0566 7.28185 21.1037C7.32892 21.1482 7.36554 21.2018 7.39169 21.2646C7.41785 21.3273 7.43092 21.394 7.43092 21.4646C7.43092 21.5353 7.41785 21.602 7.39169 21.6647C7.36554 21.7249 7.32892 21.7785 7.28185 21.8256C7.23738 21.87 7.18377 21.9053 7.121 21.9315C7.06085 21.9576 6.99546 21.9694 6.92485 21.9668H4.44154H4.418C4.39185 21.9668 4.37223 21.9655 4.35915 21.9629C4.35392 21.9603 4.34608 21.959 4.33562 21.959C4.21792 21.9354 4.12115 21.8792 4.04531 21.7903C3.96946 21.6987 3.93154 21.5902 3.93154 21.4646V21.4568V21.4372V17.4474C3.93154 17.3768 3.94462 17.3114 3.97077 17.2513C3.99692 17.1885 4.03354 17.1349 4.08062 17.0904C4.12769 17.046 4.18131 17.0106 4.24146 16.9845C4.30423 16.9583 4.37092 16.9453 4.44154 16.9453C4.51215 16.9453 4.57754 16.9583 4.63769 16.9845C4.70046 17.0106 4.75538 17.046 4.80246 17.0904C4.84954 17.1349 4.88615 17.1885 4.91231 17.2513C4.93846 17.3114 4.95154 17.3768 4.95154 17.4474V20.9468ZM9.32638 21.4646C9.32638 21.5353 9.31331 21.602 9.28715 21.6647C9.261 21.7249 9.22438 21.7772 9.17731 21.8216C9.13023 21.8661 9.07531 21.9014 9.01254 21.9276C8.95238 21.9537 8.887 21.9668 8.81638 21.9668C8.74577 21.9668 8.67907 21.9537 8.61631 21.9276C8.55615 21.9014 8.50254 21.8661 8.45546 21.8216C8.40838 21.7772 8.37177 21.7249 8.34561 21.6647C8.31946 21.602 8.30638 21.5353 8.30638 21.4646V17.4474C8.30638 17.3768 8.31946 17.3114 8.34561 17.2513C8.37177 17.1885 8.40838 17.1349 8.45546 17.0904C8.50254 17.046 8.55615 17.0106 8.61631 16.9845C8.67907 16.9583 8.74577 16.9453 8.81638 16.9453C8.887 16.9453 8.95238 16.9583 9.01254 16.9845C9.07531 17.0106 9.13023 17.046 9.17731 17.0904C9.22438 17.1349 9.261 17.1885 9.28715 17.2513C9.31331 17.3114 9.32638 17.3768 9.32638 17.4474V21.4646ZM10.5522 17.6475C10.5235 17.5821 10.5104 17.5154 10.513 17.4474C10.513 17.3794 10.5248 17.3166 10.5483 17.2591C10.5745 17.199 10.6111 17.1453 10.6581 17.0983C10.7078 17.0486 10.7667 17.0106 10.8347 16.9845C10.8975 16.9583 10.9615 16.9466 11.0269 16.9492C11.0923 16.9492 11.1538 16.9623 11.2113 16.9884C11.2715 17.012 11.3251 17.0473 11.3721 17.0943C11.4192 17.1388 11.4571 17.1937 11.4859 17.2591L12.7413 20.1936L13.9888 17.2591C14.015 17.1963 14.0516 17.1414 14.0987 17.0943C14.1484 17.0473 14.202 17.012 14.2595 16.9884C14.3197 16.9623 14.3825 16.9492 14.4478 16.9492C14.5132 16.9466 14.5786 16.9583 14.644 16.9845C14.7094 17.0106 14.7656 17.0473 14.8127 17.0943C14.8598 17.1414 14.8951 17.195 14.9186 17.2552C14.9448 17.3153 14.9578 17.3794 14.9578 17.4474C14.9605 17.5154 14.9474 17.5821 14.9186 17.6475L13.2081 21.653C13.1663 21.7523 13.1035 21.8295 13.0198 21.8844C12.9361 21.9367 12.8446 21.9642 12.7452 21.9668H12.706L12.655 21.959C12.5713 21.9459 12.4941 21.9132 12.4235 21.8609C12.3555 21.8086 12.3032 21.7393 12.2666 21.653L10.5522 17.6475ZM16.4572 21.9668C16.3238 21.9537 16.2113 21.9014 16.1198 21.8099C16.0309 21.7183 15.9864 21.6033 15.9864 21.4646V17.4553C15.9864 17.3846 15.9995 17.3193 16.0256 17.2591C16.0518 17.1963 16.0871 17.1414 16.1316 17.0943C16.1786 17.0473 16.2336 17.0106 16.2963 16.9845C16.3591 16.9583 16.4258 16.9453 16.4964 16.9453H19.1366C19.2073 16.9453 19.2726 16.9583 19.3328 16.9845C19.3956 17.0106 19.4492 17.0473 19.4936 17.0943C19.5381 17.1414 19.5734 17.1963 19.5996 17.2591C19.6257 17.3193 19.6388 17.3846 19.6388 17.4553C19.6388 17.5259 19.6257 17.5926 19.5996 17.6553C19.5734 17.7155 19.5381 17.7691 19.4936 17.8162C19.4492 17.8633 19.3956 17.8999 19.3328 17.926C19.2726 17.9522 19.2073 17.9653 19.1366 17.9653H17.0064V18.8754H18.7012C18.7718 18.8728 18.8372 18.8859 18.8973 18.9146C18.9601 18.9408 19.015 18.9774 19.0621 19.0245C19.1092 19.0716 19.1458 19.1278 19.172 19.1932C19.1981 19.256 19.2112 19.3226 19.2112 19.3933C19.2112 19.4639 19.1981 19.5293 19.172 19.5894C19.1458 19.6496 19.1092 19.7032 19.0621 19.7503C19.015 19.7947 18.9601 19.83 18.8973 19.8562C18.8372 19.8797 18.7718 19.8915 18.7012 19.8915H17.0064V20.9468H19.1366C19.2073 20.9468 19.2726 20.9612 19.3328 20.99C19.3956 21.0161 19.4492 21.0527 19.4936 21.0998C19.5381 21.1469 19.5734 21.2018 19.5996 21.2646C19.6257 21.3273 19.6388 21.394 19.6388 21.4646C19.6388 21.5353 19.6257 21.602 19.5996 21.6647C19.5734 21.7249 19.5381 21.7785 19.4936 21.8256C19.4492 21.87 19.3956 21.9053 19.3328 21.9315C19.2726 21.9576 19.2073 21.9694 19.1366 21.9668H16.4572Z" fill="#3F3F3F"/>
<path d="M4.95154 20.9468H4.72487V21.173L4.95109 21.1735L4.95154 20.9468ZM6.92485 20.9507L6.9244 21.1774H6.92485V20.9507ZM7.121 20.9939L7.02307 21.1986L7.03382 21.2031L7.121 20.9939ZM7.28185 21.1037L7.11679 21.2596L7.12621 21.2685L7.28185 21.1037ZM7.39169 21.2646L7.18246 21.3517L7.18246 21.3517L7.39169 21.2646ZM7.39169 21.6647L7.59959 21.7551L7.60092 21.7519L7.39169 21.6647ZM7.28185 21.8256L7.44212 21.9858H7.44212L7.28185 21.8256ZM7.121 21.9315L7.03381 21.7222L7.03062 21.7236L7.121 21.9315ZM6.92485 21.9668L6.93324 21.7401H6.92485V21.9668ZM4.35915 21.9629L4.25779 22.1656L4.28494 22.1792L4.3147 22.1851L4.35915 21.9629ZM4.33562 21.959L4.29116 22.1812L4.31317 22.1856H4.33562V21.959ZM4.04531 21.7903L3.87075 21.9349L3.87285 21.9374L4.04531 21.7903ZM3.97077 17.2513L4.17866 17.3416L4.18 17.3384L3.97077 17.2513ZM4.08062 17.0904L4.23625 17.2552L4.23625 17.2552L4.08062 17.0904ZM4.24146 16.9845L4.15427 16.7752L4.15108 16.7766L4.24146 16.9845ZM4.63769 16.9845L4.5473 17.1924L4.55051 17.1937L4.63769 16.9845ZM4.80246 17.0904L4.64683 17.2552L4.64683 17.2552L4.80246 17.0904ZM4.91231 17.2513L4.70305 17.3384L4.70444 17.3416L4.91231 17.2513ZM4.95109 21.1735L6.9244 21.1774L6.9253 20.7241L4.95199 20.7201L4.95109 21.1735ZM6.92485 21.1774C6.96366 21.1774 6.99538 21.185 7.0232 21.1984L7.2188 20.7894C7.12632 20.7452 7.02726 20.7241 6.92485 20.7241V21.1774ZM7.03382 21.2031C7.06875 21.2177 7.09551 21.2365 7.11706 21.2594L7.44664 20.9481C7.37926 20.8767 7.29879 20.8224 7.20818 20.7846L7.03382 21.2031ZM7.12621 21.2685C7.14902 21.2901 7.16791 21.3168 7.18246 21.3517L7.60092 21.1774C7.56317 21.0868 7.50882 21.0063 7.43748 20.9389L7.12621 21.2685ZM7.18246 21.3517C7.19666 21.3858 7.20426 21.4228 7.20426 21.4646H7.65759C7.65759 21.3653 7.63903 21.2688 7.60092 21.1774L7.18246 21.3517ZM7.20426 21.4646C7.20426 21.5065 7.19666 21.5435 7.18246 21.5775L7.60092 21.7519C7.63903 21.6604 7.65759 21.564 7.65759 21.4646H7.20426ZM7.18382 21.5743C7.16918 21.608 7.14885 21.638 7.12157 21.6653L7.44212 21.9858C7.509 21.919 7.5619 21.8417 7.59956 21.7551L7.18382 21.5743ZM7.12157 21.6653C7.0997 21.6872 7.07151 21.7066 7.03382 21.7223L7.20818 22.1407C7.29603 22.1041 7.37507 22.0529 7.44212 21.9858L7.12157 21.6653ZM7.03062 21.7236C7.00394 21.7352 6.97262 21.7417 6.93324 21.7403L6.91646 22.1933C7.01831 22.1971 7.11775 22.1801 7.21138 22.1394L7.03062 21.7236ZM6.92485 21.7401H4.44154V22.1935H6.92485V21.7401ZM4.44154 21.7401H4.418V22.1935H4.44154V21.7401ZM4.418 21.7401C4.40842 21.7401 4.40222 21.7399 4.39875 21.7397C4.3971 21.7395 4.39664 21.7395 4.39719 21.7395C4.39766 21.7396 4.39995 21.7399 4.40361 21.7406L4.3147 22.1851C4.35043 22.1923 4.38826 22.1935 4.418 22.1935V21.7401ZM4.46052 21.7601C4.40793 21.7338 4.35765 21.7323 4.33562 21.7323V22.1856C4.33201 22.1856 4.32362 22.1854 4.31208 22.1835C4.30116 22.1817 4.28117 22.1773 4.25779 22.1656L4.46052 21.7601ZM4.38007 21.7367C4.31082 21.7228 4.25964 21.6923 4.21776 21.6432L3.87285 21.9374C3.98267 22.0661 4.12503 22.148 4.29116 22.1812L4.38007 21.7367ZM4.21985 21.6456C4.17968 21.5972 4.15821 21.5406 4.15821 21.4646H3.70487C3.70487 21.6398 3.75925 21.8003 3.87077 21.9349L4.21985 21.6456ZM4.15821 21.4646V21.4568H3.70487V21.4646H4.15821ZM4.15821 21.4568V21.4372H3.70487V21.4568H4.15821ZM4.15821 21.4372V17.4474H3.70487V21.4372H4.15821ZM4.15821 17.4474C4.15821 17.4055 4.16581 17.3711 4.17864 17.3416L3.7629 17.1609C3.72342 17.2517 3.70487 17.3481 3.70487 17.4474H4.15821ZM4.18 17.3384C4.19455 17.3035 4.21344 17.2767 4.23625 17.2552L3.92498 16.9256C3.85364 16.993 3.79929 17.0735 3.76154 17.1641L4.18 17.3384ZM4.23625 17.2552C4.26398 17.229 4.29545 17.2082 4.33184 17.1924L4.15108 16.7766C4.06716 16.8131 3.9914 16.8629 3.92498 16.9256L4.23625 17.2552ZM4.32864 17.1937C4.36272 17.1795 4.39967 17.1719 4.44154 17.1719V16.7186C4.34217 16.7186 4.24574 16.7372 4.15428 16.7753L4.32864 17.1937ZM4.44154 17.1719C4.48347 17.1719 4.51781 17.1795 4.54731 17.1924L4.72807 16.7766C4.63727 16.7371 4.54084 16.7186 4.44154 16.7186V17.1719ZM4.55051 17.1937C4.58925 17.2099 4.62068 17.2305 4.64683 17.2552L4.9581 16.9256C4.89009 16.8614 4.81168 16.8114 4.72487 16.7753L4.55051 17.1937ZM4.64683 17.2552C4.66964 17.2767 4.68852 17.3035 4.70308 17.3384L5.12154 17.1641C5.08378 17.0735 5.02944 16.993 4.9581 16.9256L4.64683 17.2552ZM4.70444 17.3416C4.71727 17.3711 4.72487 17.4055 4.72487 17.4474H5.17821C5.17821 17.3481 5.15966 17.2517 5.12018 17.1609L4.70444 17.3416ZM4.72487 17.4474V20.9468H5.17821V17.4474H4.72487ZM9.28715 21.6647L9.49505 21.7551L9.49638 21.7519L9.28715 21.6647ZM9.17731 21.8216L9.33294 21.9864L9.17731 21.8216ZM9.01254 21.9276L8.92535 21.7183L8.92216 21.7197L9.01254 21.9276ZM8.61631 21.9276L8.52592 22.1355L8.52913 22.1368L8.61631 21.9276ZM8.45546 21.8216L8.29982 21.9864L8.45546 21.8216ZM8.34561 21.6647L8.13636 21.7519L8.13774 21.7551L8.34561 21.6647ZM8.34561 17.2513L8.55351 17.3416L8.55484 17.3384L8.34561 17.2513ZM8.45546 17.0904L8.61109 17.2552L8.61109 17.2552L8.45546 17.0904ZM8.61631 16.9845L8.52912 16.7752L8.52593 16.7766L8.61631 16.9845ZM9.01254 16.9845L8.92215 17.1924L8.92536 17.1937L9.01254 16.9845ZM9.17731 17.0904L9.02167 17.2552L9.02167 17.2552L9.17731 17.0904ZM9.28715 17.2513L9.0779 17.3384L9.07928 17.3416L9.28715 17.2513ZM9.09972 21.4646C9.09972 21.5065 9.09212 21.5435 9.07792 21.5775L9.49638 21.7519C9.53449 21.6604 9.55305 21.564 9.55305 21.4646H9.09972ZM9.07928 21.5743C9.06517 21.6068 9.04619 21.6337 9.02167 21.6569L9.33294 21.9864C9.40257 21.9207 9.45682 21.843 9.49502 21.7551L9.07928 21.5743ZM9.02167 21.6569C8.99552 21.6815 8.96409 21.7022 8.92536 21.7183L9.09972 22.1368C9.18652 22.1006 9.26493 22.0507 9.33294 21.9864L9.02167 21.6569ZM8.92216 21.7197C8.89265 21.7325 8.85831 21.7401 8.81638 21.7401V22.1935C8.91568 22.1935 9.01211 22.1749 9.10291 22.1354L8.92216 21.7197ZM8.81638 21.7401C8.77452 21.7401 8.73757 21.7325 8.70348 21.7183L8.52913 22.1368C8.62058 22.1749 8.71701 22.1935 8.81638 22.1935V21.7401ZM8.70668 21.7197C8.67029 21.7039 8.63883 21.683 8.61109 21.6569L8.29982 21.9864C8.36624 22.0492 8.44201 22.0989 8.52593 22.1354L8.70668 21.7197ZM8.61109 21.6569C8.58657 21.6337 8.56759 21.6068 8.55348 21.5743L8.13774 21.7551C8.17594 21.843 8.23019 21.9207 8.29982 21.9864L8.61109 21.6569ZM8.55484 21.5775C8.54064 21.5435 8.53305 21.5065 8.53305 21.4646H8.07972C8.07972 21.564 8.09828 21.6604 8.13638 21.7519L8.55484 21.5775ZM8.53305 21.4646V17.4474H8.07972V21.4646H8.53305ZM8.53305 17.4474C8.53305 17.4055 8.54065 17.3711 8.55348 17.3416L8.13774 17.1609C8.09826 17.2517 8.07972 17.3481 8.07972 17.4474H8.53305ZM8.55484 17.3384C8.5694 17.3035 8.58828 17.2767 8.61109 17.2552L8.29982 16.9256C8.22848 16.993 8.17414 17.0735 8.13638 17.1641L8.55484 17.3384ZM8.61109 17.2552C8.63883 17.229 8.67029 17.2082 8.70668 17.1924L8.52593 16.7766C8.44201 16.8131 8.36624 16.8629 8.29982 16.9256L8.61109 17.2552ZM8.70348 17.1937C8.73757 17.1795 8.77452 17.1719 8.81638 17.1719V16.7186C8.71701 16.7186 8.62058 16.7372 8.52913 16.7753L8.70348 17.1937ZM8.81638 17.1719C8.85831 17.1719 8.89265 17.1795 8.92216 17.1924L9.10291 16.7766C9.01211 16.7371 8.91568 16.7186 8.81638 16.7186V17.1719ZM8.92536 17.1937C8.96409 17.2099 8.99552 17.2305 9.02167 17.2552L9.33294 16.9256C9.26493 16.8614 9.18652 16.8114 9.09972 16.7753L8.92536 17.1937ZM9.02167 17.2552C9.04448 17.2767 9.06337 17.3035 9.07792 17.3384L9.49638 17.1641C9.45863 17.0735 9.40428 16.993 9.33294 16.9256L9.02167 17.2552ZM9.07928 17.3416C9.09211 17.3711 9.09972 17.4055 9.09972 17.4474H9.55305C9.55305 17.3481 9.5345 17.2517 9.49502 17.1609L9.07928 17.3416ZM9.09972 17.4474V21.4646H9.55305V17.4474H9.09972ZM10.5522 17.6475L10.7606 17.5583L10.7597 17.5562L10.5522 17.6475ZM10.513 17.4474L10.7397 17.4561V17.4474H10.513ZM10.5483 17.2591L10.3404 17.1687L10.3385 17.1733L10.5483 17.2591ZM10.6581 17.0983L10.8184 17.2585V17.2585L10.6581 17.0983ZM10.8347 16.9845L10.9161 17.1961L10.9219 17.1937L10.8347 16.9845ZM11.0269 16.9492L11.0178 17.1758H11.0269V16.9492ZM11.2113 16.9884L11.1174 17.1951L11.1287 17.1995L11.2113 16.9884ZM11.3721 17.0943L11.2118 17.2547L11.2165 17.2591L11.3721 17.0943ZM11.4859 17.2591L11.6943 17.1699L11.6934 17.1678L11.4859 17.2591ZM12.7413 20.1936L12.5329 20.2827L12.742 20.7714L12.9499 20.2822L12.7413 20.1936ZM13.9888 17.2591L14.1974 17.3478L14.1981 17.3463L13.9888 17.2591ZM14.0987 17.0943L13.9427 16.9297L13.9384 16.9341L14.0987 17.0943ZM14.2595 16.9884L14.3454 17.1983L14.3499 17.1963L14.2595 16.9884ZM14.4478 16.9492V17.176L14.4569 17.1757L14.4478 16.9492ZM14.9186 17.2552L14.7074 17.3378L14.7107 17.3456L14.9186 17.2552ZM14.9578 17.4474H14.731L14.7313 17.4561L14.9578 17.4474ZM14.9186 17.6475L14.7111 17.5562L14.7102 17.5585L14.9186 17.6475ZM13.2081 21.653L12.9997 21.5639L12.9992 21.565L13.2081 21.653ZM13.0198 21.8844L13.14 22.0767L13.1442 22.0739L13.0198 21.8844ZM12.7452 21.9668V22.1935L12.7512 22.1934L12.7452 21.9668ZM12.706 21.9668L12.6715 22.1908L12.6887 22.1935H12.706V21.9668ZM12.655 21.959L12.62 22.1829L12.6205 22.183L12.655 21.959ZM12.4235 21.8609L12.2853 22.0406L12.2886 22.043L12.4235 21.8609ZM12.2666 21.653L12.4753 21.5644L12.475 21.5638L12.2666 21.653ZM10.7597 17.5562C10.7441 17.5207 10.7383 17.4881 10.7395 17.4561L10.2865 17.4387C10.2825 17.5428 10.3028 17.6435 10.3448 17.7388L10.7597 17.5562ZM10.7397 17.4474C10.7397 17.4061 10.7467 17.3728 10.7581 17.3449L10.3385 17.1733C10.3028 17.2605 10.2863 17.3528 10.2863 17.4474H10.7397ZM10.7562 17.3495C10.7708 17.3158 10.7911 17.2858 10.8184 17.2585L10.4979 16.938C10.431 17.0049 10.3781 17.0821 10.3404 17.1687L10.7562 17.3495ZM10.8184 17.2585C10.8449 17.2321 10.8765 17.2112 10.9161 17.196L10.7533 16.7729C10.6568 16.81 10.5708 16.865 10.4979 16.938L10.8184 17.2585ZM10.9219 17.1937C10.9554 17.1797 10.9867 17.1744 11.0179 17.1757L11.036 16.7227C10.9363 16.7187 10.8395 16.7369 10.7475 16.7753L10.9219 17.1937ZM11.0269 17.1758C11.0611 17.1758 11.0904 17.1825 11.1175 17.1948L11.3051 16.7821C11.2171 16.7421 11.1235 16.7225 11.0269 16.7225V17.1758ZM11.1287 17.1995C11.1588 17.2113 11.1862 17.229 11.2119 17.2546L11.5324 16.9341C11.4639 16.8656 11.3841 16.8126 11.2939 16.7773L11.1287 17.1995ZM11.2165 17.2591C11.2394 17.2807 11.2606 17.3099 11.2784 17.3504L11.6934 17.1678C11.6537 17.0776 11.599 16.9969 11.5278 16.9295L11.2165 17.2591ZM11.2775 17.3483L12.5329 20.2827L12.9497 20.1044L11.6943 17.17L11.2775 17.3483ZM12.9499 20.2822L14.1974 17.3478L13.7802 17.1704L12.5327 20.1049L12.9499 20.2822ZM14.1981 17.3463C14.2131 17.3102 14.2333 17.2803 14.259 17.2546L13.9384 16.9341C13.8699 17.0025 13.8169 17.0824 13.7796 17.1719L14.1981 17.3463ZM14.2546 17.2589C14.286 17.2291 14.3163 17.2101 14.3454 17.1982L14.1737 16.7786C14.0877 16.8138 14.0108 16.8654 13.9428 16.9298L14.2546 17.2589ZM14.3499 17.1963C14.3816 17.1825 14.4137 17.1758 14.4478 17.1758V16.7225C14.3513 16.7225 14.2577 16.742 14.1692 16.7805L14.3499 17.1963ZM14.4569 17.1757C14.488 17.1744 14.5217 17.1797 14.5598 17.1949L14.7282 16.774C14.6355 16.737 14.5384 16.7187 14.4388 16.7227L14.4569 17.1757ZM14.5598 17.1949C14.5984 17.2104 14.6283 17.2305 14.6524 17.2546L14.973 16.9341C14.9029 16.864 14.8204 16.8109 14.7282 16.774L14.5598 17.1949ZM14.6524 17.2546C14.6781 17.2803 14.6957 17.3076 14.7075 17.3378L15.1297 17.1726C15.0944 17.0824 15.0415 17.0026 14.973 16.9341L14.6524 17.2546ZM14.7107 17.3456C14.724 17.3761 14.7312 17.4093 14.7312 17.4474H15.1845C15.1845 17.3495 15.1655 17.2545 15.1265 17.1648L14.7107 17.3456ZM14.7313 17.4561C14.7326 17.4881 14.7268 17.5207 14.7111 17.5562L15.1261 17.7388C15.168 17.6435 15.1883 17.5428 15.1843 17.4387L14.7313 17.4561ZM14.7102 17.5585L12.9997 21.5639L13.4166 21.742L15.1271 17.7365L14.7102 17.5585ZM12.9992 21.565C12.9735 21.6262 12.9386 21.6666 12.8955 21.6949L13.1442 22.0739C13.2685 21.9924 13.3591 21.8784 13.417 21.7409L12.9992 21.565ZM12.8997 21.6922C12.8506 21.7229 12.7985 21.7386 12.7393 21.7402L12.7512 22.1934C12.8907 22.1897 13.0217 22.1505 13.14 22.0766L12.8997 21.6922ZM12.7452 21.7401H12.706V22.1935H12.7452V21.7401ZM12.7405 21.7428L12.6895 21.7349L12.6205 22.183L12.6715 22.1908L12.7405 21.7428ZM12.69 21.735C12.6439 21.7278 12.6008 21.7101 12.5584 21.6787L12.2886 22.043C12.3875 22.1163 12.4987 22.164 12.62 22.1829L12.69 21.735ZM12.5617 21.6812C12.5275 21.6549 12.4981 21.6182 12.4753 21.5644L12.0579 21.7415C12.1084 21.8603 12.1836 21.9623 12.2853 22.0405L12.5617 21.6812ZM12.475 21.5638L10.7606 17.5583L10.3438 17.7367L12.0582 21.7421L12.475 21.5638ZM16.4572 21.9668L16.4351 22.1924L16.4461 22.1935H16.4572V21.9668ZM16.1198 21.8099L15.9572 21.9678L15.9595 21.9702L16.1198 21.8099ZM16.0256 17.2591L16.2335 17.3495L16.2349 17.3463L16.0256 17.2591ZM16.1316 17.0943L15.9712 16.934L15.9668 16.9387L16.1316 17.0943ZM19.3328 16.9845L19.2424 17.1924L19.2456 17.1937L19.3328 16.9845ZM19.4936 17.0943L19.6584 16.9387V16.9387L19.4936 17.0943ZM19.5996 17.2591L19.3903 17.3463L19.3917 17.3495L19.5996 17.2591ZM19.5996 17.6553L19.8075 17.7457L19.8088 17.7425L19.5996 17.6553ZM19.4936 17.8162L19.6584 17.9718V17.9718L19.4936 17.8162ZM19.3328 17.926L19.2456 17.7168L19.2424 17.7182L19.3328 17.926ZM17.0064 17.9653V17.7386H16.7798V17.9653H17.0064ZM17.0064 18.8754H16.7798V19.1021H17.0064V18.8754ZM18.7012 18.8754V19.1022L18.7096 19.1019L18.7012 18.8754ZM18.8973 18.9146L18.7994 19.1194L18.8102 19.1239L18.8973 18.9146ZM19.0621 19.0245L19.2224 18.8642V18.8642L19.0621 19.0245ZM19.172 19.1932L18.9615 19.2774L18.9627 19.2804L19.172 19.1932ZM19.0621 19.7503L19.2178 19.9151L19.2224 19.9105L19.0621 19.7503ZM18.8973 19.8562L18.98 20.0673L18.9845 20.0654L18.8973 19.8562ZM17.0064 19.8915V19.6648H16.7798V19.8915H17.0064ZM17.0064 20.9468H16.7798V21.1735H17.0064V20.9468ZM19.3328 20.99L19.2349 21.1947L19.2456 21.1992L19.3328 20.99ZM19.4936 21.0998L19.6584 20.9442V20.9442L19.4936 21.0998ZM19.5996 21.6647L19.8075 21.7551L19.8088 21.7519L19.5996 21.6647ZM19.4936 21.8256L19.654 21.9859L19.6584 21.9812L19.4936 21.8256ZM19.3328 21.9315L19.2456 21.7222L19.2424 21.7236L19.3328 21.9315ZM19.1366 21.9668L19.145 21.7401H19.1366V21.9668ZM16.4793 21.7412C16.3961 21.7331 16.3331 21.7026 16.2801 21.6496L15.9595 21.9702C16.0896 22.1002 16.2515 22.1744 16.4351 22.1924L16.4793 21.7412ZM16.2824 21.6519C16.2383 21.6065 16.2131 21.5499 16.2131 21.4646H15.7598C15.7598 21.6567 15.8235 21.8301 15.9572 21.9678L16.2824 21.6519ZM16.2131 21.4646V17.4553H15.7598V21.4646H16.2131ZM16.2131 17.4553C16.2131 17.4133 16.2207 17.379 16.2335 17.3495L15.8178 17.1687C15.7783 17.2595 15.7598 17.356 15.7598 17.4553H16.2131ZM16.2349 17.3463C16.251 17.3075 16.2717 17.2761 16.2964 17.25L15.9668 16.9387C15.9026 17.0067 15.8526 17.0851 15.8164 17.1719L16.2349 17.3463ZM16.2919 17.2546C16.3175 17.2289 16.3475 17.2087 16.3835 17.1937L16.2092 16.7753C16.1197 16.8125 16.0398 16.8656 15.9713 16.9341L16.2919 17.2546ZM16.3835 17.1937C16.4176 17.1795 16.4546 17.1719 16.4964 17.1719V16.7186C16.3971 16.7186 16.3006 16.7372 16.2092 16.7753L16.3835 17.1937ZM16.4964 17.1719H19.1366V16.7186H16.4964V17.1719ZM19.1366 17.1719C19.1786 17.1719 19.2129 17.1795 19.2424 17.1924L19.4232 16.7766C19.3324 16.7371 19.236 16.7186 19.1366 16.7186V17.1719ZM19.2456 17.1937C19.2806 17.2083 19.3073 17.2272 19.3289 17.25L19.6584 16.9387C19.5911 16.8674 19.5106 16.813 19.42 16.7753L19.2456 17.1937ZM19.3289 17.25C19.3536 17.2761 19.3742 17.3075 19.3903 17.3463L19.8088 17.1719C19.7726 17.0851 19.7227 17.0067 19.6584 16.9387L19.3289 17.25ZM19.3917 17.3495C19.4045 17.379 19.4121 17.4133 19.4121 17.4553H19.8655C19.8655 17.356 19.8469 17.2595 19.8074 17.1687L19.3917 17.3495ZM19.4121 17.4553C19.4121 17.4971 19.4045 17.5341 19.3903 17.5682L19.8088 17.7425C19.8469 17.6511 19.8655 17.5546 19.8655 17.4553H19.4121ZM19.3917 17.565C19.3759 17.6013 19.3551 17.6328 19.3289 17.6605L19.6584 17.9718C19.7212 17.9054 19.771 17.8296 19.8074 17.7457L19.3917 17.565ZM19.3289 17.6605C19.3073 17.6834 19.2806 17.7022 19.2456 17.7168L19.42 18.1353C19.5106 18.0975 19.5911 18.0432 19.6584 17.9718L19.3289 17.6605ZM19.2424 17.7182C19.2129 17.731 19.1786 17.7386 19.1366 17.7386V18.1919C19.236 18.1919 19.3324 18.1734 19.4232 18.1339L19.2424 17.7182ZM19.1366 17.7386H17.0064V18.1919H19.1366V17.7386ZM16.7798 17.9653V18.8754H17.2331V17.9653H16.7798ZM17.0064 19.1021H18.7012V18.6487H17.0064V19.1021ZM18.7096 19.1019C18.7458 19.1006 18.7745 19.1071 18.7995 19.1191L18.9951 18.7102C18.8999 18.6646 18.7978 18.645 18.6928 18.6489L18.7096 19.1019ZM18.8102 19.1239C18.8462 19.1389 18.8761 19.1591 18.9018 19.1848L19.2224 18.8642C19.1539 18.7957 19.074 18.7427 18.9845 18.7054L18.8102 19.1239ZM18.9018 19.1848C18.926 19.2089 18.9461 19.2388 18.9615 19.2774L19.3824 19.109C19.3455 19.0168 19.2924 18.9342 19.2224 18.8642L18.9018 19.1848ZM18.9627 19.2804C18.9769 19.3144 18.9845 19.3514 18.9845 19.3933H19.4379C19.4379 19.2939 19.4193 19.1975 19.3812 19.106L18.9627 19.2804ZM18.9845 19.3933C18.9845 19.4352 18.9769 19.4695 18.9641 19.499L19.3798 19.6798C19.4193 19.589 19.4379 19.4926 19.4379 19.3933H18.9845ZM18.9641 19.499C18.9494 19.5327 18.9291 19.5627 18.9018 19.59L19.2224 19.9105C19.2893 19.8437 19.3422 19.7664 19.3798 19.6798L18.9641 19.499ZM18.9065 19.5855C18.8803 19.6102 18.8489 19.6308 18.8102 19.647L18.9845 20.0654C19.0713 20.0292 19.1497 19.9793 19.2177 19.915L18.9065 19.5855ZM18.8147 19.6451C18.7833 19.6574 18.7462 19.6648 18.7012 19.6648V20.1182C18.7974 20.1182 18.8911 20.102 18.9799 20.0673L18.8147 19.6451ZM18.7012 19.6648H17.0064V20.1182H18.7012V19.6648ZM16.7798 19.8915V20.9468H17.2331V19.8915H16.7798ZM17.0064 21.1735H19.1366V20.7201H17.0064V21.1735ZM19.1366 21.1735C19.1755 21.1735 19.2072 21.1811 19.235 21.1944L19.4306 20.7855C19.3381 20.7412 19.2391 20.7201 19.1366 20.7201V21.1735ZM19.2456 21.1992C19.2806 21.2137 19.3073 21.2326 19.3289 21.2554L19.6584 20.9442C19.5911 20.8728 19.5106 20.8185 19.42 20.7807L19.2456 21.1992ZM19.3289 21.2554C19.3536 21.2816 19.3742 21.313 19.3903 21.3517L19.8088 21.1774C19.7726 21.0906 19.7227 21.0122 19.6584 20.9442L19.3289 21.2554ZM19.3903 21.3517C19.4045 21.3858 19.4121 21.4228 19.4121 21.4646H19.8655C19.8655 21.3653 19.8469 21.2688 19.8088 21.1774L19.3903 21.3517ZM19.4121 21.4646C19.4121 21.5065 19.4045 21.5435 19.3903 21.5775L19.8088 21.7519C19.8469 21.6604 19.8655 21.564 19.8655 21.4646H19.4121ZM19.3917 21.5743C19.3759 21.6107 19.3551 21.6422 19.3289 21.6699L19.6584 21.9812C19.7212 21.9148 19.771 21.839 19.8074 21.7551L19.3917 21.5743ZM19.3334 21.6653C19.3115 21.6872 19.2833 21.7066 19.2456 21.7223L19.42 22.1407C19.5078 22.1041 19.5869 22.0529 19.6539 21.9858L19.3334 21.6653ZM19.2424 21.7236C19.2157 21.7352 19.1844 21.7417 19.145 21.7403L19.1283 22.1933C19.2301 22.1971 19.3296 22.1801 19.4232 22.1394L19.2424 21.7236ZM19.1366 21.7401H16.4572V22.1935H19.1366V21.7401Z" fill="#3F3F3F" mask="url(#path-3-outside-1_2755_12916)"/>
</g>
<defs>
<clipPath id="clip0_2755_12916">
<rect width="24" height="24" fill="white" transform="translate(0 0.5)"/>
</clipPath>
</defs>
</svg>
