<svg width="20" height="18" viewBox="0 0 20 18" fill="none" xmlns="http://www.w3.org/2000/svg">
<path fill-rule="evenodd" clip-rule="evenodd" d="M14.2617 0C13.5082 0 12.7621 0.148453 12.0661 0.436879C11.37 0.725276 10.7375 1.14813 10.2049 1.68097L9.99938 1.88644L9.79375 1.6808C8.71784 0.604898 7.2586 0.000460446 5.73704 0.000460505C4.21549 0.000460505 2.75625 0.604897 1.68034 1.6808C0.604437 2.75671 0 4.21595 0 5.7375C0 7.25906 0.604437 8.7183 1.68034 9.79421L9.29228 17.4061C9.6828 17.7967 10.316 17.7967 10.7065 17.4061L18.3184 9.79421C18.8513 9.26158 19.274 8.62919 19.5623 7.93317C19.8508 7.23708 19.9992 6.49099 19.9992 5.7375C19.9992 4.98402 19.8508 4.23793 19.5623 3.54184C19.274 2.84589 18.851 2.21323 18.3183 1.68064C17.7857 1.14788 17.1533 0.725246 16.4574 0.436879C15.7613 0.148454 15.0152 0 14.2617 0ZM16.9044 3.09518C17.2515 3.44212 17.5268 3.85404 17.7147 4.30742C17.9025 4.7608 17.9992 5.24675 17.9992 5.7375C17.9992 6.22826 17.9025 6.71421 17.7147 7.16759C17.5783 7.4967 17.3958 7.80397 17.1733 8.08039C17.0893 8.18476 16.9995 8.28474 16.9044 8.37983L9.99938 15.2848L3.09455 8.37999C2.39372 7.67916 2 6.72863 2 5.7375C2 4.74638 2.39372 3.79585 3.09455 3.09502C3.79539 2.39418 4.74592 2.00046 5.73704 2.00046C6.72817 2.00046 7.6787 2.39418 8.37953 3.09502L9.29228 4.00776C9.6828 4.39828 10.316 4.39828 10.7065 4.00776L11.6192 3.09502C11.9662 2.74792 12.3783 2.47241 12.8316 2.28455C12.9559 2.23306 13.0826 2.18842 13.2112 2.15074C13.5518 2.05095 13.9055 2 14.2617 2C14.7525 2 15.2384 2.09669 15.6918 2.28455C16.1452 2.47241 16.5574 2.74808 16.9044 3.09518Z" fill="#3F3F3F"/>
</svg>
