<svg width="36" height="36" viewBox="0 0 36 36" fill="none" xmlns="http://www.w3.org/2000/svg">
<circle cx="18" cy="18" r="18" fill="black" fill-opacity="0.5"/>
<path d="M22.2627 9.26465C21.5092 9.26465 20.7631 9.41563 20.067 9.70896C19.371 10.0023 18.7385 10.4323 18.2058 10.9742L18.0004 11.1832L17.7947 10.974C16.7188 9.87983 15.2596 9.26512 13.738 9.26512C12.2165 9.26512 10.7572 9.87983 9.68132 10.974C8.60541 12.0682 8.00098 13.5523 8.00098 15.0997C8.00098 16.6471 8.60541 18.1312 9.68132 19.2254L17.2933 26.9668C17.6838 27.3639 18.3169 27.3639 18.7075 26.9668L26.3192 19.2256C26.8521 18.6839 27.2749 18.0406 27.5633 17.3327C27.8517 16.6248 28.0002 15.866 28.0002 15.0997C28.0002 14.3334 27.8517 13.5746 27.5633 12.8667C27.275 12.1589 26.852 11.5155 26.3192 10.9739C25.7866 10.432 25.1543 10.0022 24.4584 9.70896C23.7623 9.41563 23.0162 9.26465 22.2627 9.26465Z" stroke="#FDFDFD" stroke-width="2" stroke-linecap="round" stroke-linejoin="round"/>
<path d="M22.2627 9.26465C21.5092 9.26465 20.7631 9.41563 20.067 9.70896C19.371 10.0023 18.7385 10.4323 18.2058 10.9742L18.0004 11.1832L17.7947 10.974C16.7188 9.87983 15.2596 9.26512 13.738 9.26512C12.2165 9.26512 10.7572 9.87983 9.68132 10.974C8.60541 12.0682 8.00098 13.5523 8.00098 15.0997C8.00098 16.6471 8.60541 18.1312 9.68132 19.2254L17.2933 26.9668C17.6838 27.3639 18.3169 27.3639 18.7075 26.9668L26.3192 19.2256C26.8521 18.6839 27.2749 18.0406 27.5633 17.3327C27.8517 16.6248 28.0002 15.866 28.0002 15.0997C28.0002 14.3334 27.8517 13.5746 27.5633 12.8667C27.275 12.1589 26.852 11.5155 26.3192 10.9739C25.7866 10.432 25.1543 10.0022 24.4584 9.70896C23.7623 9.41563 23.0162 9.26465 22.2627 9.26465Z" fill="#FA4545"/>
</svg>
