<svg width="20" height="19" viewBox="0 0 20 19" fill="none" xmlns="http://www.w3.org/2000/svg">
<path d="M14.2625 0.264587C13.509 0.264587 12.7629 0.415565 12.0668 0.708896C11.3708 1.0022 10.7382 1.43224 10.2056 1.97414L10.0001 2.1831L9.79448 1.97397C8.71857 0.879771 7.25934 0.265056 5.73778 0.265056C4.21622 0.265056 2.75698 0.879771 1.68107 1.97397C0.605169 3.06817 0.000732422 4.55222 0.000732422 6.09966C0.000732422 7.64709 0.605169 9.13114 1.68107 10.2253L9.29301 17.9667C9.68353 18.3639 10.3167 18.3639 10.7072 17.9667L18.319 10.2255C18.8518 9.68382 19.2747 9.04051 19.5631 8.33266C19.8515 7.62473 20 6.86595 20 6.09966C20 5.33336 19.8515 4.57458 19.5631 3.86665C19.2747 3.15887 18.8518 2.51546 18.319 1.9738C17.7864 1.43198 17.1541 1.00217 16.4581 0.708896C15.762 0.415565 15.0159 0.264587 14.2625 0.264587Z" fill="#E6094B"/>
</svg>
