<svg width="48" height="48" viewBox="0 0 48 48" fill="none" xmlns="http://www.w3.org/2000/svg">
<path fill-rule="evenodd" clip-rule="evenodd" d="M44.0001 0C46.2092 0 48.0001 1.79086 48.0001 4V44.0002C48.0001 46.2093 46.2092 48.0002 44.0001 48.0002H3.99988C1.79074 48.0002 -0.00012207 46.2093 -0.00012207 44.0002V4C-0.00012207 1.79086 1.79073 0 3.99987 0H44.0001ZM26.9998 15.0002H35.9999V9.00015H23.9998V25.5302C22.7398 24.5702 21.2098 24.0002 19.4998 24.0002C15.3598 24.0002 11.9998 27.3602 11.9998 31.5002C11.9998 35.6403 15.3598 39.0003 19.4998 39.0003C23.6398 39.0003 26.9998 35.6403 26.9998 31.5002V15.0002Z" fill="#D8D8D8"/>
</svg>
