<svg width="40" height="40" viewBox="0 0 40 40" fill="none" xmlns="http://www.w3.org/2000/svg">
<circle cx="20" cy="20" r="20" fill="#AB22AF"/>
<path d="M24.6362 15.1909C23.3612 14.303 22.0362 13.5031 20.6373 12.8401C19.5744 12.3362 18.4829 11.913 17.3175 11.7345C16.8028 11.6562 16.288 11.6317 15.7756 11.7369C14.7604 11.9448 14.0693 12.5833 13.5974 13.5031C13.1113 14.4522 12.873 15.4771 12.7133 16.5241C12.5369 17.6787 12.4917 18.8455 12.5012 20.0123C12.5012 20.2765 12.4988 20.5382 12.5012 20.8024C12.5155 21.7907 12.5965 22.7716 12.7586 23.7452C12.9182 24.7065 13.1518 25.6409 13.5998 26.5069C13.8906 27.0671 14.26 27.5563 14.8057 27.8939C15.4086 28.2657 16.0592 28.3611 16.7456 28.3268C17.4772 28.2926 18.1802 28.1214 18.8737 27.8939C19.8389 27.5759 20.7707 27.1674 21.6549 26.661C22.5629 26.14 23.4613 25.5994 24.3431 25.0319C25.0795 24.5573 25.7706 24.0118 26.414 23.4076C26.9836 22.8719 27.5127 22.2995 27.8964 21.6023C28.4183 20.6557 28.485 19.6845 28.0298 18.6914C27.7534 18.0847 27.3459 17.5735 26.8954 17.0965C26.2115 16.37 25.4441 15.7535 24.6362 15.1909ZM14.9964 14.7115C15.0035 13.8211 15.6922 13.256 16.4215 13.256C17.1317 13.2535 17.8704 13.8308 17.8371 14.7946C17.8085 15.5725 17.1769 16.1841 16.3977 16.1743C15.6255 16.162 14.9892 15.5407 14.9964 14.7115ZM19.4028 23.0309C17.8061 23.048 16.4286 21.7295 16.4334 19.9879C16.4382 18.3318 17.7036 16.9644 19.3909 16.9619C21.0853 16.957 22.3484 18.3685 22.346 19.9927C22.3436 21.6757 21.0329 23.0309 19.4028 23.0309Z" fill="white"/>
</svg>
