<svg width="20" height="20" viewBox="0 0 20 20" fill="none" xmlns="http://www.w3.org/2000/svg">
<path fill-rule="evenodd" clip-rule="evenodd" d="M14.9142 7.5C15.3047 7.89052 15.3047 8.52369 14.9142 8.91421L9.41421 14C9.02369 14.3905 8.39052 14.3905 8 14L5 11C4.60948 10.6095 4.60948 9.97631 5 9.58579C5.39052 9.19526 6.02369 9.19526 6.41421 9.58579L8.70711 11.8787L13.5 7.5C13.8905 7.10948 14.5237 7.10948 14.9142 7.5Z" fill="white"/>
<path fill-rule="evenodd" clip-rule="evenodd" d="M10 2C5.58172 2 2 5.58172 2 10C2 14.4183 5.58172 18 10 18C14.4183 18 18 14.4183 18 10C18 5.58172 14.4183 2 10 2ZM0 10C0 4.47715 4.47715 0 10 0C15.5228 0 20 4.47715 20 10C20 15.5228 15.5228 20 10 20C4.47715 20 0 15.5228 0 10Z" fill="white"/>
</svg>
