<svg width="36" height="36" viewBox="0 0 36 36" fill="none" xmlns="http://www.w3.org/2000/svg">
<rect width="36" height="36" rx="18" fill="black" fill-opacity="0.5"/>
<path fill-rule="evenodd" clip-rule="evenodd" d="M10 24C10 25.1046 10.8954 26 12 26C13.1046 26 14 25.1046 14 24C14 22.8954 13.1046 22 12 22C10.8954 22 10 22.8954 10 24ZM12 28C9.79086 28 8 26.2091 8 24C8 21.7909 9.79086 20 12 20C14.2091 20 16 21.7909 16 24C16 26.2091 14.2091 28 12 28Z" fill="white"/>
<path fill-rule="evenodd" clip-rule="evenodd" d="M22 24C22 25.1046 22.8954 26 24 26C25.1046 26 26 25.1046 26 24C26 22.8954 25.1046 22 24 22C22.8954 22 22 22.8954 22 24ZM24 28C21.7909 28 20 26.2091 20 24C20 21.7909 21.7909 20 24 20C26.2091 20 28 21.7909 28 24C28 26.2091 26.2091 28 24 28Z" fill="white"/>
<path fill-rule="evenodd" clip-rule="evenodd" d="M9.29289 9.29289C9.68342 8.90237 10.3166 8.90237 10.7071 9.29289L22.5871 21.1729C22.9776 21.5634 22.9776 22.1966 22.5871 22.5871C22.1966 22.9776 21.5634 22.9776 21.1729 22.5871L9.29289 10.7071C8.90237 10.3166 8.90237 9.68342 9.29289 9.29289Z" fill="white"/>
<path fill-rule="evenodd" clip-rule="evenodd" d="M19.7735 16.2377C19.3827 15.8476 19.3821 15.2144 19.7723 14.8235L25.2923 9.29353C25.6824 8.90266 26.3156 8.90208 26.7065 9.29225C27.0973 9.68242 27.0979 10.3156 26.7077 10.7065L21.1877 16.2365C20.7976 16.6273 20.1644 16.6279 19.7735 16.2377Z" fill="white"/>
<path fill-rule="evenodd" clip-rule="evenodd" d="M13.4129 22.5871C13.0224 22.1966 13.0224 21.5634 13.4129 21.1729L17.2929 17.2929C17.6834 16.9024 18.3166 16.9024 18.7071 17.2929C19.0976 17.6834 19.0976 18.3166 18.7071 18.7071L14.8271 22.5871C14.4366 22.9776 13.8034 22.9776 13.4129 22.5871Z" fill="white"/>
</svg>
