<svg width="36" height="36" viewBox="0 0 36 36" fill="none" xmlns="http://www.w3.org/2000/svg">
<rect width="36" height="36" rx="18" fill="black" fill-opacity="0.5"/>
<path fill-rule="evenodd" clip-rule="evenodd" d="M19.283 8.08096C19.6918 8.25621 19.9357 8.68037 19.8815 9.12182L19.3571 13.3968C19.2898 13.945 18.7909 14.3349 18.2428 14.2676C17.6946 14.2004 17.3047 13.7015 17.372 13.1533L17.4778 12.2909C17.123 12.6922 16.5112 12.7435 16.094 12.4006C15.6674 12.0499 15.6058 11.4198 15.9564 10.9931L18.1164 8.3651C18.3988 8.0215 18.8742 7.90571 19.283 8.08096ZM8.29289 8.29295C8.68342 7.90243 9.31658 7.90243 9.70711 8.29295L14.9529 13.5387C14.9968 13.5647 15.0394 13.5945 15.08 13.6279C15.173 13.7044 15.2485 13.7941 15.3063 13.8921L27.7071 26.293C28.0976 26.6835 28.0976 27.3166 27.7071 27.7072C27.3166 28.0977 26.6834 28.0977 26.2929 27.7072L21.6476 23.0619L17.8833 27.6355C17.6007 27.979 17.1252 28.0944 16.7165 27.9189C16.3078 27.7433 16.0642 27.319 16.1187 26.8775L16.869 20.8001H10.0002C9.61326 20.8001 9.26106 20.5769 9.09588 20.227C8.9307 19.8771 8.98218 19.4633 9.22806 19.1646L13.0756 14.4898L8.29289 9.70717C7.90237 9.31664 7.90237 8.68348 8.29289 8.29295ZM14.4964 15.9107L12.1184 18.8001H17.3858L14.4964 15.9107ZM18.9393 20.3536L18.5252 23.7085L20.2267 21.641L18.9393 20.3536ZM20.2534 16.2001C20.2534 15.6478 20.7011 15.2001 21.2534 15.2001H26C26.3871 15.2001 26.7394 15.4235 26.9045 15.7736C27.0696 16.1237 27.0178 16.5377 26.7715 16.8363L24.6115 19.4553C24.2601 19.8814 23.6298 19.9419 23.2038 19.5905C22.7777 19.2391 22.7172 18.6089 23.0685 18.1828L23.879 17.2001H21.2534C20.7011 17.2001 20.2534 16.7523 20.2534 16.2001Z" fill="white"/>
</svg>
