<svg width="16" height="16" viewBox="0 0 16 16" fill="none" xmlns="http://www.w3.org/2000/svg">
<path fill-rule="evenodd" clip-rule="evenodd" d="M4.66782 2.28949C4.98246 2.09452 6.27609 1.2929 10.1009 3.64373C13.9976 6.03903 14 7.52774 14 8.00669C14 8.48565 14 9.9741 10.1009 12.3689C6.27308 14.721 4.93941 13.8888 4.66525 13.7177C4.66088 13.715 4.65678 13.7124 4.65295 13.7101C4.6477 13.7068 4.64203 13.7033 4.63597 13.6996C4.32875 13.5106 3 12.6935 3 8.00617C3 3.30447 4.31155 2.50642 4.64483 2.30362C4.64761 2.30194 4.65031 2.30029 4.65295 2.29869C4.65764 2.2958 4.66259 2.29273 4.66782 2.28949Z" fill="#AB22AF"/>
<path fill-rule="evenodd" clip-rule="evenodd" d="M5.87868 10.1213C6.44129 10.6839 7.20435 11 8 11C8.79565 11 9.55871 10.6839 10.1213 10.1213C10.6839 9.55871 11 8.79565 11 8C11 7.60603 10.9224 7.21593 10.7716 6.85195C10.6209 6.48797 10.3999 6.15725 10.1213 5.87868C9.84274 5.6001 9.51203 5.37912 9.14805 5.22836C8.78407 5.0776 8.39396 5 8 5C7.20435 5 6.44129 5.31607 5.87868 5.87868C5.6001 6.15725 5.37912 6.48797 5.22836 6.85195C5.0776 7.21593 5 7.60603 5 8C5 8.79565 5.31607 9.55871 5.87868 10.1213Z" fill="white"/>
<path fill-rule="evenodd" clip-rule="evenodd" d="M9.64893 7.15032C9.84729 7.35077 9.84729 7.67577 9.64893 7.87622L7.7242 9.72596C7.52584 9.92641 7.20423 9.92641 7.00587 9.72596L6.14877 8.87628C5.95041 8.67583 5.95041 8.35083 6.14877 8.15038C6.34713 7.94993 6.66874 7.94993 6.8671 8.15038L7.36503 8.63711L8.93059 7.15032C9.12896 6.94987 9.45056 6.94987 9.64893 7.15032Z" fill="#AB22AF"/>
</svg>
