<svg width="161" height="160" viewBox="0 0 161 160" fill="none" xmlns="http://www.w3.org/2000/svg">
<g clip-path="url(#clip0_1859_21059)">
<path d="M35.5436 146.291C13.169 117.156 3.6841 68.7362 7.92439 29.607C9.38745 19.229 22.9442 13.099 28.1437 11.2821C42.577 6.2344 56.9372 7.55696 102.351 25.4738C147.765 43.3906 150.201 67.1726 145.743 76.8241C143.89 83.5711 131.638 104.485 97.4523 134.164C63.267 163.843 41.9359 154.615 35.5436 146.291Z" fill="#F4EDFB"/>
<path d="M119.714 97.5501L118.844 99.1656C118.104 100.267 117.146 101.192 116.118 101.713C116.115 101.715 116.112 101.716 116.11 101.718C114.995 102.28 113.746 102.338 112.492 102.117C111.688 101.875 110.983 101.615 110.983 101.615C110.983 101.615 109.499 101.001 107.932 100.334C107.639 100.169 107.356 100.003 107.092 99.8422C104.208 98.0877 101.704 95.6996 99.5312 93.1349C97.8918 91.1998 96.4716 89.0624 95.4019 86.7607C98.0154 83.9225 98.4878 79.2854 95.5133 76.2996C95.4641 76.2501 95.3951 76.2221 95.3172 76.2088C95.2971 76.1927 95.2762 76.1777 95.2561 76.1616C95.2554 76.1299 95.2506 76.0978 95.2356 76.0646C95.0624 75.6736 94.8732 75.2931 94.6758 74.9174C95.3042 75.1705 95.9218 75.4738 96.5123 75.7279C98.7989 76.7122 101.041 77.7986 103.249 78.9493C108.244 81.5522 113.368 84.5468 117.261 88.6812C118.741 90.2537 120.081 92.1773 120.281 94.3843C120.372 95.397 120.15 96.5002 119.714 97.5501ZM114.74 102.47C114.762 102.455 114.792 102.437 114.821 102.419C114.599 102.459 114.374 102.488 114.147 102.51C114.422 102.543 114.638 102.538 114.74 102.47ZM49.1584 95.717C49.7691 95.3406 50.572 94.4977 51.361 93.5578C50.6584 94.3119 49.9214 95.0319 49.1584 95.717ZM29.7273 93.0229C29.7178 93.0407 29.7055 93.0601 29.6962 93.0772C29.3543 93.704 29.4322 94.5216 29.743 95.383C29.5904 94.6063 29.5692 93.8156 29.7273 93.0229ZM51.8965 76.1708L49.4808 77.3078C46.7187 78.6692 44.0209 80.1669 41.4361 81.8111C38.976 83.376 36.538 85.0674 34.4512 87.1156C32.8671 88.671 31.185 90.5566 30.7154 92.7995C30.1949 95.285 31.5033 98.4244 33.4348 100.014C35.3119 101.558 37.5951 101.624 39.7629 100.992L40.4545 100.762L40.6359 100.698C41.1027 100.521 41.5614 100.319 42.0048 100.093C47.9343 97.0682 53.2098 91.4607 56.0623 85.4396C55.7645 84.9434 55.5172 84.4212 55.3307 83.8808C55.1907 83.4792 55.0876 83.0673 55.0162 82.6506C55.008 82.6031 54.9981 82.5567 54.9909 82.5092C54.9813 82.4446 54.9745 82.3798 54.9667 82.3152C54.9533 82.2114 54.9404 82.1079 54.9315 82.0037C54.9308 81.9924 54.9305 81.9815 54.9294 81.9702C54.7689 79.9972 55.3874 77.9694 57.0067 76.344C57.0733 76.2771 57.1652 76.233 57.2652 76.2074C57.2693 76.1951 57.271 76.1838 57.2769 76.1705C57.3411 76.024 57.4121 75.8812 57.4804 75.7367L57.019 74.1216L51.8965 76.1708Z" fill="#A358E7"/>
<path fill-rule="evenodd" clip-rule="evenodd" d="M57.8121 76.7078C55.643 78.9186 55.4148 82.3576 56.81 84.9516C57.0228 84.9329 57.196 84.9636 57.1533 85.0558C57.1119 85.145 57.0655 85.2327 57.0231 85.3215C57.113 85.4667 57.2086 85.6074 57.309 85.7457C57.3251 85.7679 57.3435 85.7901 57.3599 85.812C57.4719 85.9626 57.5932 86.1064 57.7172 86.2481C57.8148 86.3588 57.919 86.4643 58.0245 86.5685C58.1 86.6437 58.1711 86.7225 58.251 86.7943C58.2957 86.8346 58.3446 86.8725 58.391 86.9114C58.4993 87.0036 58.6123 87.0907 58.7278 87.1758C58.8716 87.2813 59.0184 87.3831 59.1721 87.4787C59.2141 87.5047 59.2561 87.5303 59.2985 87.5556C59.4874 87.6662 59.6807 87.7718 59.8846 87.8643C62.1886 88.9146 64.9872 88.9043 66.9412 87.0955C67.9867 86.1279 69.3088 84.0548 69.1428 82.3815C69.1404 82.3583 69.1411 82.3341 69.138 82.3108C69.1291 82.2379 69.113 82.1667 69.0969 82.0957L69.0916 82.0721C69.083 82.0345 69.0789 81.9952 69.0687 81.9584C69.0376 81.8446 68.9983 81.7333 68.9495 81.625C68.9034 81.5229 68.9211 81.4303 68.9758 81.3521C68.4799 79.0727 67.3333 76.882 65.1765 75.7781C62.7078 74.5144 59.985 74.9243 57.8681 76.6685C57.851 76.6839 57.8316 76.6959 57.8121 76.7078ZM63.0784 81.8706V83.1039C63.0784 83.4461 62.0868 83.6528 62.0868 83.2207V81.9874C62.0868 81.6452 63.0784 81.4382 63.0784 81.8706Z" fill="#FEFDFF"/>
<path fill-rule="evenodd" clip-rule="evenodd" d="M87.2217 75.6193C85.0819 76.8519 83.9569 78.9528 83.4784 81.2664C83.5409 81.3238 83.5607 81.4102 83.5067 81.5301C83.3885 81.7927 83.3308 82.081 83.3134 82.3829L83.3137 82.3839C83.3182 82.3986 83.3168 82.4133 83.312 82.4283C83.2373 84.2054 84.7178 86.4759 85.9098 87.3349C88.0971 88.9118 91.0562 89.1636 93.3445 87.574C96.9341 85.0801 97.7774 79.9026 94.6024 76.7157C94.5935 76.7071 94.5891 76.6976 94.5823 76.689C94.5409 76.6798 94.5047 76.6658 94.4774 76.6429C92.4845 75.0015 89.5872 74.2559 87.2217 75.6193ZM89.2136 81.7275C89.2132 81.4935 89.5876 81.3654 89.7645 81.3494C89.9687 81.3303 90.2116 81.3965 90.2119 81.6359C90.2119 81.914 90.217 82.2415 90.4144 82.4584C90.7256 82.8006 89.7826 83.1842 89.5039 82.8781C89.2231 82.5697 89.2139 82.1209 89.2136 81.7275Z" fill="#FEFDFF"/>
<path fill-rule="evenodd" clip-rule="evenodd" d="M82.0439 81.6278C81.6146 79.9009 81.4004 78.1211 81.1576 76.3612H71.1685C70.9113 78.3681 70.7579 80.4098 70.1777 82.3552C70.1797 82.3832 70.178 82.4106 70.1725 82.4372C70.1739 82.4755 70.1777 82.5137 70.178 82.5527C70.2436 82.5608 70.3057 82.5807 70.3594 82.6162C72.1842 83.8239 74.4063 85.023 76.6844 84.6951C78.8122 84.3888 80.4725 83.137 81.979 81.6797C81.9995 81.6595 82.0213 81.6431 82.0439 81.6278ZM77.0454 80.7992C77.3053 80.6909 77.5751 80.5153 77.7118 80.2609C78.0526 79.6256 77.2777 78.9138 76.8606 78.5535C76.723 78.4347 76.362 78.559 76.223 78.6092C76.1772 78.6256 75.96 78.7093 75.9094 78.7994C75.7704 78.8312 75.6348 78.8824 75.5221 78.9535C75.1167 79.2086 74.7011 79.4992 74.4258 79.8995C74.296 80.0877 74.213 80.347 74.3247 80.5632C74.5866 81.07 75.3903 81.1004 75.876 81.0768C76.279 81.057 76.6742 80.9542 77.0454 80.7992Z" fill="#FEFDFF"/>
<path d="M65.2478 61.0395C65.5552 60.7666 65.8643 60.4958 66.1799 60.2328C66.4313 60.0231 66.671 59.7898 67.0078 59.7447C67.0908 59.7338 67.1663 59.7502 67.2353 59.7782C70.1281 59.6734 73.1737 60.4801 74.5699 63.2442C74.6191 63.3415 74.559 63.4385 74.4476 63.5157C74.5088 64.1609 74.4476 64.8812 74.4654 65.4608C74.4845 66.092 74.752 67.3758 74.4391 67.9609C74.4108 68.0142 74.351 68.0596 74.2748 68.0972C74.282 68.2085 74.2905 68.3195 74.295 68.4315C74.3011 68.5951 74.1829 68.7164 74.0269 68.7847C73.896 69.1058 73.7444 69.422 73.5251 69.6871C73.2533 70.016 72.9189 70.2687 72.5668 70.5006H79.455C78.9574 70.0033 78.622 69.4101 78.3446 68.7085C78.2534 68.6939 78.194 68.658 78.1961 68.5965C78.1998 68.493 78.2084 68.3892 78.2152 68.2857C78.1363 68.2683 78.0728 68.2324 78.0396 68.171C77.9116 67.9329 77.986 67.4773 77.9874 67.2201C77.9905 66.7006 78.0021 66.1815 78.0192 65.662C78.0396 65.039 77.9679 64.2565 78.0536 63.5772C77.9426 63.5625 77.8781 63.5205 77.9153 63.4471C79.3549 60.5972 82.6317 59.6901 85.6233 59.8226C85.7585 59.8288 85.834 59.8544 85.8688 59.8896C86.1035 59.9504 86.3367 60.2099 86.5051 60.353C86.9204 60.7045 87.3299 61.0634 87.7347 61.4272C87.9126 61.5874 88.0906 61.7482 88.2675 61.9101C87.844 60.3739 87.3228 58.8755 86.7001 57.4038C85.9136 57.8321 85.1325 58.2396 84.2861 58.5299C83.9719 58.6515 83.6471 58.7512 83.3182 58.8093C83.267 58.8181 83.2089 58.8239 83.1491 58.8287C81.8233 59.0692 80.3597 58.979 79.0554 58.7228C77.6219 58.4418 76.239 58.0118 74.8916 57.4482C74.3182 57.2081 73.2116 56.4956 72.5446 56.7265C72.3635 56.7897 72.2215 57.3683 72.1149 57.523C71.8806 57.8639 71.5613 58.1586 71.1661 58.3028C69.6288 58.8649 67.8767 58.5463 66.2779 58.188C65.9576 59.1477 65.6245 60.1023 65.2478 61.0395Z" fill="#FEFDFF"/>
<path fill-rule="evenodd" clip-rule="evenodd" d="M93.2571 74.4082C92.1638 72.5253 90.8222 70.7896 89.6046 68.9825C87.983 68.2635 86.5007 69.4893 84.8507 69.5013C84.158 69.5064 82.6942 69.0333 82.8718 68.0859C83.2014 66.3287 86.512 65.5704 88.1046 65.6463C87.8054 65.5325 87.5045 65.4229 87.2032 65.316C87.1483 65.3112 87.0998 65.2989 87.0629 65.2754C87.0506 65.2675 87.0379 65.2607 87.0256 65.2531C86.7152 65.1435 86.4057 65.0339 86.0997 64.9219C85.9679 64.8734 85.9102 64.8078 85.9003 64.7371C84.74 64.3962 83.5313 64.6203 82.6921 65.7378C81.6696 67.0992 81.4223 68.7584 81.4749 70.4241C81.4756 70.4508 81.4687 70.4764 81.4585 70.5013H84.892C85.556 70.5013 84.7961 70.975 84.4835 70.975H80.9202C80.7143 71.1209 80.3703 71.2049 80.1917 71.0915C80.133 71.0543 80.081 71.0136 80.0257 70.975H68.9457C68.2818 70.975 69.0417 70.5013 69.3542 70.5013H71.6378C71.6665 70.4774 71.6958 70.4562 71.7194 70.4415C71.744 70.4262 71.7682 70.4094 71.7925 70.3941C71.7068 68.9855 71.3727 67.4995 70.5342 66.3481C70.5503 66.938 69.9034 67.2696 69.2132 67.4315C69.8839 67.8759 70.109 68.4312 69.3405 69.0904C68.5154 69.7984 67.2677 69.9326 66.2731 69.6307C64.7891 69.1806 63.6426 68.7516 62.1897 69.7878C62.0845 69.863 61.9806 69.9388 61.8765 70.0149C61.9475 70.0611 61.9673 70.1348 61.8908 70.2428L61.7968 70.3751C60.6658 71.9674 59.5373 73.5561 58.6533 75.2942C60.5625 74.2736 62.8601 73.9519 64.9186 74.7603C67.4255 75.745 68.9683 77.7587 69.719 80.17C69.9236 78.907 70.0428 77.6266 70.2091 76.3612H70.0277C69.3552 76.3612 69.5636 75.6579 70.1213 75.6579H83.7171C84.3896 75.6579 84.1813 76.3612 83.6235 76.3612H82.1839C82.3632 77.6751 82.5343 78.9972 82.796 80.2991C83.5685 77.8875 85.1471 75.7604 87.6688 74.9113C89.7245 74.219 91.8199 74.3044 93.684 75.1821C93.56 74.9475 93.4326 74.7149 93.3005 74.4851C93.2424 74.4707 93.2335 74.4431 93.2571 74.4082ZM68.6397 74.5114H84.6403C85.1984 74.5114 85.4067 73.8085 84.7339 73.8081H68.7333C68.1755 73.8081 67.9672 74.5114 68.6397 74.5114Z" fill="#F4EDFB"/>
<path d="M88.7248 63.7493C88.5462 63.6223 88.3611 63.5031 88.178 63.3866C88.0947 63.3337 88.054 63.2742 88.0417 63.2135C86.252 62.2527 83.9442 61.67 82.1047 62.694C80.0612 63.8306 79.3044 65.9646 79.1944 68.1853C79.2292 68.2147 79.2579 68.2498 79.275 68.2953C79.5636 69.0617 79.9075 69.6843 80.4803 70.1908C80.5011 68.0839 81.0876 65.663 83.1017 64.6257C84.4829 63.9146 85.9245 63.9047 87.2664 64.5158C87.9806 64.762 88.7409 65.0086 89.4769 65.3057C89.5783 65.0025 89.6063 64.6821 89.4141 64.4048C89.2648 64.1896 89.0752 64.0127 88.8696 63.8538C88.7931 63.8385 88.7378 63.806 88.7248 63.7493Z" fill="#FEFDFF"/>
<path d="M90.9356 67.0865C90.4749 66.7501 89.979 66.4725 89.466 66.2255C89.3686 66.2091 89.287 66.1729 89.2388 66.1152C88.9799 65.9967 88.7163 65.8867 88.4506 65.7812C88.3703 65.9311 87.8645 66.1569 87.6749 66.1377C86.4672 66.0172 82.1105 67.6638 84.6854 68.8851C85.6216 69.3295 87.0786 68.4657 88.0496 68.3188C88.7299 68.216 89.3778 68.1993 90.0063 68.3892C90.1986 68.3496 90.3977 68.3803 90.4933 68.5224C90.5098 68.5468 90.5264 68.5708 90.5431 68.5949L90.5575 68.6156C90.5732 68.6235 90.5893 68.6296 90.6053 68.6382C90.687 68.6826 90.702 68.7355 90.6771 68.7898C91.3356 69.7567 92.0176 70.7086 92.6782 71.6725C92.6727 69.977 92.3916 68.1491 90.9356 67.0865Z" fill="#FEFDFF"/>
<path d="M79.1517 62.9033C78.9485 63.5325 79.0148 64.3706 79.0158 65.0653C79.6551 63.7364 80.6941 62.6506 82.2393 62.1342C83.8903 61.5833 85.5372 61.6041 87.1039 62.0683C87.0407 62.0112 86.9802 61.9515 86.917 61.8948C86.5301 61.5467 86.141 61.2014 85.7449 60.864L85.6962 60.8225C85.5699 60.7149 85.4434 60.6071 85.3138 60.503C85.222 60.4292 85.0611 60.3708 85.1471 60.3732C85.1123 60.3605 85.0829 60.3435 85.0618 60.3209C82.7601 60.2509 80.4185 60.8664 79.1527 62.8634C79.152 62.8777 79.1479 62.8924 79.1408 62.9071L79.1517 62.9033Z" fill="#FEFDFF"/>
<path d="M58.2373 74.2907C58.8753 73.1773 59.5977 72.1154 60.3402 71.0638C60.2808 71.0993 60.2234 71.1373 60.1629 71.1711C59.901 71.3183 58.999 71.306 59.5769 70.9822C61.5974 69.8503 63.0049 68.1132 65.5153 68.7615C66.2957 68.963 67.4009 69.5545 68.2029 69.1997C69.2251 68.7475 68.7989 68.0968 68.1923 67.7088C66.9197 66.8949 65.354 66.5527 63.856 66.619C63.1952 66.6484 63.9722 66.1753 64.269 66.162C64.8759 66.1354 67.2291 66.4735 68.6711 67.1368L68.6816 67.1366C69.0579 67.1319 69.6299 67.1247 69.5673 66.5999C69.5195 66.1992 69.2637 65.8567 68.9754 65.5879C68.291 64.9495 67.3726 64.4679 66.4251 64.3826C66.3073 64.4119 66.1912 64.4478 66.0785 64.4997C65.9367 64.5646 65.5784 64.5912 65.4025 64.5526C64.4353 64.8269 63.4957 65.218 62.6296 65.7132L62.5985 65.8683L61.8471 66.205C59.2049 68.0138 57.4839 70.8644 58.2373 74.2907Z" fill="#FEFDFF"/>
<path d="M63.0445 64.9751C64.5009 64.2961 66.0757 63.8556 67.5946 63.6933C67.9996 63.6503 68.028 63.7992 67.8934 63.9399C68.5116 63.9966 69.1196 64.1674 69.6722 64.469C71.6002 65.5209 72.4824 67.4612 72.728 69.5429C72.937 69.2202 73.0767 68.8598 73.2116 68.5005C73.2246 68.4657 73.2505 68.4339 73.2843 68.4042C73.1822 66.1709 72.3451 63.6865 70.0909 62.779C67.9522 61.918 65.7021 62.406 63.7877 63.5755C63.4243 63.9666 63.1777 64.4461 63.0445 64.9751Z" fill="#FEFDFF"/>
<path d="M67.1649 60.4767C67.1321 60.4958 67.0918 60.5218 67.0423 60.5621C66.8971 60.6802 66.7537 60.8008 66.6113 60.9224C66.2516 61.2308 65.8954 61.5433 65.5429 61.8603C65.4862 61.9108 65.4316 61.9641 65.3752 62.015C66.9877 61.4607 68.7381 61.3114 70.3402 61.9566C71.8386 62.5601 72.8451 63.5926 73.4705 64.8641L73.4709 64.8392C73.4818 64.2478 73.4935 63.6097 73.3305 63.1052L73.3513 63.1042C72.0896 61.0733 69.6903 60.3356 67.3633 60.3595C67.3097 60.4097 67.2414 60.4493 67.1649 60.4767Z" fill="#FEFDFF"/>
<path d="M76.642 126.438C77.4153 128.573 80.2781 124.3 80.7658 123.507C81.6737 122.033 82.9825 119.968 82.8096 118.142C77.0188 124.188 69.0065 129.265 60.8576 126.1C64.4954 129.437 71.3871 130.352 74.9999 126.942C75.1464 126.804 75.4719 126.763 75.696 126.81C75.6816 126.775 75.6663 126.741 75.6523 126.703C75.4893 126.253 76.4754 125.977 76.642 126.438Z" fill="#A358E7"/>
<path fill-rule="evenodd" clip-rule="evenodd" d="M135.626 84.3748H113.708C114.899 85.2672 116.04 86.2177 117.107 87.2403C118.658 88.7267 120.276 90.4877 120.95 92.578C121.621 94.6617 121.069 96.8623 119.962 98.7121L119.968 98.7114C119.981 98.7099 119.994 98.7083 120.006 98.7083H135.544C136.208 98.7083 135.45 99.1848 135.136 99.1848H130.165V114.74H135.297C135.961 114.74 135.203 115.216 134.889 115.216H129.937C129.717 115.328 129.397 115.349 129.25 115.216H115.12V130.524H135.297C135.961 130.524 135.203 131.001 134.889 131.001H130.165V146.308H135.297C135.961 146.308 135.203 146.785 134.889 146.785H130.098C129.889 147.032 129.252 147.108 129.178 146.785H87.6766C87.4679 147.032 86.8306 147.108 86.7565 146.785H19.5045C19.0699 146.785 19.2442 146.581 19.5045 146.44C19.6421 146.365 19.8038 146.308 19.9123 146.308H36.9274V131.001H27.8055C27.7396 131.357 26.8157 131.515 26.8157 131.06V131.001H16.5049C15.8406 131.001 16.5988 130.524 16.9127 130.524H26.8157V115.275C26.8157 115.255 26.8198 115.235 26.8253 115.216H12.5049C12.4869 115.216 12.47 115.216 12.4542 115.215C11.8812 115.191 12.6073 114.74 12.9127 114.74H36.9278V101.957C36.9278 101.892 36.9578 101.833 37.0053 101.782C34.8341 101.846 32.7876 101.139 31.3654 99.1011C31.2544 99.1506 31.14 99.1844 31.0566 99.1844H11.5185C10.8542 99.1844 11.6124 98.708 11.9263 98.708H31.1099C31.0826 98.6636 31.0539 98.6222 31.0276 98.5765C30.4402 97.5682 29.9613 96.4907 29.7438 95.3827C29.5914 94.6064 29.5699 93.8154 29.7284 93.0227C29.7916 92.7067 29.8804 92.3901 30.0047 92.0749C30.8275 89.9863 32.3685 88.2284 34.0066 86.7294C38.1266 82.9581 43.08 80.0915 48.044 77.5842C50.0598 76.5657 52.1032 75.5978 54.1829 74.7166C55.1183 74.3201 56.0965 73.8392 57.0986 73.6138C56.8401 71.0157 57.9699 68.8076 59.7787 67.1327L59.2982 67.3482C59.2982 67.3482 59.2777 67.1907 59.2459 66.9175C59.1759 66.8598 59.1281 66.7781 59.1209 66.6678C59.0266 65.2132 58.8944 63.7097 58.8487 62.2045C58.7312 59.7994 58.7616 57.1979 59.2982 55.9635C59.4532 55.6069 59.6841 55.2248 59.9638 54.8306C61.0243 52.4617 62.8413 50.7024 65.0986 49.3304C64.2546 48.3413 63.451 46.8006 63.9848 45.654C64.0261 45.3152 64.202 45.0577 64.5736 44.944C64.6679 44.8723 64.7707 44.8039 64.8855 44.7401C66.404 43.8989 67.794 44.6653 68.7831 45.818C69.139 44.8897 69.8273 44.1461 70.9533 44.0819C72.9613 43.9672 73.3793 46.014 73.2157 47.6251C73.2393 47.623 73.2628 47.621 73.2895 47.6179C76.2185 46.3668 79.3191 45.3753 82.4701 44.8497C83.2417 44.6287 83.9289 44.4508 84.4583 44.3511C88.2108 43.643 91.3844 44.0604 93.5259 45.4474C93.8988 45.6185 94.2602 45.8122 94.6048 46.0366C99.4585 49.1917 95.4395 54.0618 91.6467 56.3327C91.6491 56.3348 91.6522 56.3361 91.6542 56.3382C94.1014 58.759 93.6656 62.612 92.4111 65.5585C92.3291 66.1845 92.2693 66.702 92.2349 67.0169C93.5887 68.4408 93.7264 70.3787 93.6645 72.262C93.6594 72.4208 93.4941 72.5427 93.3001 72.6028C93.6225 73.0963 93.9371 73.5947 94.2318 74.1053C95.2162 74.3245 96.1998 74.8355 97.1134 75.2289C99.0049 76.0432 100.872 76.9158 102.71 77.8445C106.241 79.6284 109.84 81.5714 113.095 83.9236C113.098 83.9233 113.101 83.9226 113.104 83.9226H136.041C136.702 83.9226 135.925 84.3748 135.626 84.3748ZM83.4784 81.2664C83.9569 78.9528 85.0819 76.8519 87.2217 75.6193C89.5872 74.2559 92.4845 75.0015 94.4774 76.6429C94.5047 76.6658 94.5409 76.6798 94.5823 76.689C94.5891 76.6976 94.5935 76.7071 94.6024 76.7157C97.7774 79.9026 96.9341 85.0801 93.3445 87.574C91.0562 89.1636 88.0971 88.9118 85.9098 87.3349C84.7178 86.4759 83.2373 84.2054 83.312 82.4283C83.3168 82.4133 83.3182 82.3986 83.3137 82.3839L83.3134 82.3829C83.3308 82.081 83.3885 81.7927 83.5067 81.5301C83.5607 81.4102 83.5409 81.3238 83.4784 81.2664ZM86.748 114.74H85.7527C85.9023 114.363 85.1007 114.308 84.864 114.604C84.8278 114.649 84.7899 114.695 84.7534 114.74H37.9148C37.92 114.721 37.9241 114.702 37.9241 114.683V101.857C37.9241 101.801 37.909 101.754 37.8837 101.716C39.8568 101.482 41.875 100.69 43.5752 99.7449C43.8959 99.5663 44.2142 99.3777 44.5309 99.1848H86.7575C86.7521 99.2039 86.748 99.2234 86.748 99.2439V114.74ZM80.7658 123.507C80.2781 124.3 77.4153 128.573 76.642 126.438C76.4754 125.977 75.4893 126.253 75.6523 126.703C75.6663 126.741 75.6816 126.775 75.696 126.81C75.4719 126.763 75.1464 126.804 74.9999 126.942C71.3871 130.352 64.4954 129.437 60.8576 126.1C69.0065 129.265 77.0188 124.188 82.8096 118.142C82.9825 119.968 81.6737 122.033 80.7658 123.507ZM71.466 115.216H84.3654C83.9004 115.779 83.4133 116.345 82.9057 116.908C82.9826 116.747 82.5073 116.684 82.2601 116.673C80.8188 116.646 73.3503 115.347 75.9344 118.87C75.9395 118.877 75.9473 118.882 75.9535 118.888C74.4353 118.789 72.9281 119.389 71.466 120.122V115.216ZM76.5939 117.021C77.1229 116.778 77.8836 116.881 78.4457 116.908C79.5725 116.962 80.6904 117.199 81.8172 117.227C82.0184 117.249 82.4599 117.279 82.6153 117.227C76.811 123.549 68.4515 129.257 60.0082 124.817C59.9249 124.774 59.8122 124.768 59.695 124.786C59.6588 124.736 59.6202 124.686 59.5854 124.635C59.5304 124.553 59.431 124.512 59.3169 124.504C59.5103 124.429 59.6602 124.319 59.6243 124.217C59.5792 124.089 59.498 123.924 59.4679 123.76C61.9581 124.307 64.2174 123.807 66.6318 122.853C67.9696 122.324 69.2951 121.775 70.5988 121.169C70.8676 121.324 71.466 121.146 71.466 120.848V120.747C72.77 120.066 74.3752 119.115 75.7452 119.378C75.9982 119.427 76.8678 119.024 76.5495 118.963C76.4996 118.953 76.4498 118.951 76.3999 118.943C76.6994 118.876 76.9962 118.678 76.8541 118.484C76.6342 118.184 75.9887 117.298 76.5939 117.021ZM94.6386 87.4873C96.7419 91.8023 100.067 95.7803 103.989 98.7083H45.2788C46.6276 97.8285 47.9282 96.8227 49.1591 95.7174C49.9221 95.0323 50.6592 94.3123 51.3617 93.5582C53.4427 91.3242 55.2348 88.8179 56.5863 86.2102C57.4924 87.3985 58.7274 88.3701 60.2114 88.9395C62.5981 89.8555 65.2687 89.3101 67.2954 87.8486C68.0195 87.3267 68.8077 86.3916 69.3778 85.3325H74.3278C74.9203 85.4503 75.5313 85.5131 76.1653 85.506C76.6403 85.5005 77.1045 85.4394 77.556 85.3325H82.4852C82.5729 85.3325 82.798 85.2577 82.9842 85.173C83.4726 86.1744 84.1645 87.0719 84.8217 87.6099C86.9064 89.3155 89.5305 89.6878 92.073 88.8889C93.0385 88.5857 93.8999 88.1003 94.6386 87.4873ZM81.1576 76.3612C81.4004 78.1211 81.6146 79.9009 82.0439 81.6278C82.0213 81.6431 81.9995 81.6595 81.979 81.6797C80.4725 83.137 78.8122 84.3888 76.6844 84.6951C74.4063 85.023 72.1842 83.8239 70.3594 82.6162C70.3057 82.5807 70.2436 82.5608 70.178 82.5527C70.1777 82.5137 70.1739 82.4755 70.1725 82.4372C70.178 82.4106 70.1797 82.3832 70.1777 82.3552C70.7579 80.4098 70.9113 78.3681 71.1685 76.3612H81.1576ZM82.8749 84.9383H78.7391C80.0561 84.3813 81.2491 83.4786 82.2867 82.5185C82.2997 82.5619 82.3103 82.6056 82.3236 82.6486C82.3243 82.6507 82.3267 82.6524 82.3274 82.6544C82.3226 83.3942 82.5388 84.1886 82.8749 84.9383ZM69.5783 84.9383C69.7979 84.4731 69.9693 83.9919 70.0728 83.5161C70.9882 84.0916 71.9288 84.5855 72.9155 84.9383H69.5783ZM89.6046 68.9825C90.8222 70.7896 92.1638 72.5253 93.2571 74.4082C93.2335 74.4431 93.2424 74.4707 93.3005 74.4851C93.4326 74.7149 93.56 74.9475 93.684 75.1821C91.8199 74.3044 89.7245 74.219 87.6688 74.9113C85.1471 75.7604 83.5685 77.8875 82.796 80.2991C82.5343 78.9972 82.3632 77.6751 82.1839 76.3612H83.6235C84.1813 76.3612 84.3896 75.6579 83.7171 75.6579H70.1213C69.5636 75.6579 69.3552 76.3612 70.0277 76.3612H70.2091C70.0428 77.6266 69.9236 78.907 69.719 80.17C68.9683 77.7587 67.4255 75.745 64.9186 74.7603C62.8601 73.9519 60.5625 74.2736 58.6533 75.2942C59.5373 73.5561 60.6658 71.9674 61.7968 70.3751L61.8908 70.2428C61.9673 70.1348 61.9475 70.0611 61.8765 70.0149C61.9806 69.9388 62.0845 69.863 62.1897 69.7878C63.6426 68.7516 64.7891 69.1806 66.2731 69.6307C67.2677 69.9326 68.5154 69.7984 69.3405 69.0904C70.109 68.4312 69.8839 67.8759 69.2132 67.4315C69.9034 67.2696 70.5503 66.938 70.5342 66.3481C71.3727 67.4995 71.7068 68.9855 71.7925 70.3941C71.7682 70.4094 71.744 70.4262 71.7194 70.4415C71.6958 70.4562 71.6665 70.4774 71.6378 70.5013H69.3542C69.0417 70.5013 68.2818 70.975 68.9457 70.975H80.0257C80.081 71.0136 80.133 71.0543 80.1917 71.0915C80.3703 71.2049 80.7143 71.1209 80.9202 70.975H84.4835C84.7961 70.975 85.556 70.5013 84.892 70.5013H81.4585C81.4687 70.4764 81.4756 70.4508 81.4749 70.4241C81.4223 68.7584 81.6696 67.0992 82.6921 65.7378C83.5313 64.6203 84.74 64.3962 85.9003 64.7371C85.9102 64.8078 85.9679 64.8734 86.0997 64.9219C86.4057 65.0339 86.7152 65.1435 87.0256 65.2531C87.0379 65.2607 87.0506 65.2675 87.0629 65.2754C87.0998 65.2989 87.1483 65.3112 87.2032 65.316C87.5045 65.4229 87.8054 65.5325 88.1046 65.6463C86.512 65.5704 83.2014 66.3287 82.8718 68.0859C82.6942 69.0333 84.158 69.5064 84.8507 69.5013C86.5007 69.4893 87.983 68.2635 89.6046 68.9825ZM89.466 66.2255C89.979 66.4725 90.4749 66.7501 90.9356 67.0865C92.3916 68.1491 92.6727 69.977 92.6782 71.6725C92.0176 70.7086 91.3356 69.7567 90.6771 68.7898C90.702 68.7355 90.687 68.6826 90.6053 68.6382C90.5893 68.6296 90.5732 68.6235 90.5575 68.6156L90.5431 68.5949C90.5264 68.5708 90.5098 68.5468 90.4933 68.5224C90.3977 68.3803 90.1986 68.3496 90.0063 68.3892C89.3778 68.1993 88.7299 68.216 88.0496 68.3188C87.0786 68.4657 85.6216 69.3295 84.6854 68.8851C82.1105 67.6638 86.4672 66.0172 87.6749 66.1377C87.8645 66.1569 88.3703 65.9311 88.4506 65.7812C88.7163 65.8867 88.9799 65.9967 89.2388 66.1152C89.287 66.1729 89.3686 66.2091 89.466 66.2255ZM88.178 63.3866C88.3611 63.5031 88.5462 63.6223 88.7248 63.7493C88.7378 63.806 88.7931 63.8385 88.8696 63.8538C89.0752 64.0127 89.2648 64.1896 89.4141 64.4048C89.6063 64.6821 89.5783 65.0025 89.4769 65.3057C88.7409 65.0086 87.9806 64.762 87.2664 64.5158C85.9245 63.9047 84.4829 63.9146 83.1017 64.6257C81.0876 65.663 80.5011 68.0839 80.4803 70.1908C79.9075 69.6843 79.5636 69.0617 79.275 68.2953C79.2579 68.2498 79.2292 68.2147 79.1944 68.1853C79.3044 65.9646 80.0612 63.8306 82.1047 62.694C83.9442 61.67 86.252 62.2527 88.0417 63.2135C88.054 63.2742 88.0947 63.3337 88.178 63.3866ZM79.0158 65.0653C79.0148 64.3706 78.9485 63.5325 79.1517 62.9033L79.1408 62.9071C79.1479 62.8924 79.152 62.8777 79.1527 62.8634C80.4185 60.8664 82.7601 60.2509 85.0618 60.3209C85.0829 60.3435 85.1123 60.3605 85.1471 60.3732C85.0611 60.3708 85.222 60.4292 85.3138 60.503C85.4434 60.6071 85.5699 60.7149 85.6962 60.8225L85.7449 60.864C86.141 61.2014 86.5301 61.5467 86.917 61.8948C86.9802 61.9515 87.0407 62.0112 87.1039 62.0683C85.5372 61.6041 83.8903 61.5833 82.2393 62.1342C80.6941 62.6506 79.6551 63.7364 79.0158 65.0653ZM70.0499 57.9988C69.7227 58.0466 69.3617 58.0445 68.9908 58.0128H69.316C69.5929 58.0128 69.8344 58.008 70.0499 57.9988ZM66.2653 45.0772C66.4453 45.1414 66.6229 45.2158 66.7954 45.2995C66.6191 45.193 66.4412 45.1151 66.2653 45.0772ZM66.1799 60.2328C65.8643 60.4958 65.5552 60.7666 65.2478 61.0395C65.6245 60.1023 65.9576 59.1477 66.2779 58.188C67.8767 58.5463 69.6288 58.8649 71.1661 58.3028C71.5613 58.1586 71.8806 57.8639 72.1149 57.523C72.2215 57.3683 72.3635 56.7897 72.5446 56.7265C73.2116 56.4956 74.3182 57.2081 74.8916 57.4482C76.239 58.0118 77.6219 58.4418 79.0554 58.7228C80.3597 58.979 81.8233 59.0692 83.1491 58.8287C83.2089 58.8239 83.267 58.8181 83.3182 58.8093C83.6471 58.7512 83.9719 58.6515 84.2861 58.5299C85.1325 58.2396 85.9136 57.8321 86.7001 57.4038C87.3228 58.8755 87.844 60.3739 88.2675 61.9101C88.0906 61.7482 87.9126 61.5874 87.7347 61.4272C87.3299 61.0634 86.9204 60.7045 86.5051 60.353C86.3367 60.2099 86.1035 59.9504 85.8688 59.8896C85.834 59.8544 85.7585 59.8288 85.6233 59.8226C82.6317 59.6901 79.3549 60.5972 77.9153 63.4471C77.8781 63.5205 77.9426 63.5625 78.0536 63.5772C77.9679 64.2565 78.0396 65.039 78.0192 65.662C78.0021 66.1815 77.9905 66.7006 77.9874 67.2201C77.986 67.4773 77.9116 67.9329 78.0396 68.171C78.0728 68.2324 78.1363 68.2683 78.2152 68.2857C78.2084 68.3892 78.1998 68.493 78.1961 68.5965C78.194 68.658 78.2534 68.6939 78.3446 68.7085C78.622 69.4101 78.9574 70.0033 79.455 70.5006H72.5668C72.9189 70.2687 73.2533 70.016 73.5251 69.6871C73.7444 69.422 73.896 69.1058 74.0269 68.7847C74.1829 68.7164 74.3011 68.5951 74.295 68.4315C74.2905 68.3195 74.282 68.2085 74.2748 68.0972C74.351 68.0596 74.4108 68.0142 74.4391 67.9609C74.752 67.3758 74.4845 66.092 74.4654 65.4608C74.4476 64.8812 74.5088 64.1609 74.4476 63.5157C74.559 63.4385 74.6191 63.3415 74.5699 63.2442C73.1737 60.4801 70.1281 59.6734 67.2353 59.7782C67.1663 59.7502 67.0908 59.7338 67.0078 59.7447C66.671 59.7898 66.4313 60.0231 66.1799 60.2328ZM67.0423 60.5621C67.0918 60.5218 67.1321 60.4958 67.1649 60.4767C67.2414 60.4493 67.3097 60.4097 67.3633 60.3595C69.6903 60.3356 72.0896 61.0733 73.3513 63.1042L73.3305 63.1052C73.4935 63.6097 73.4818 64.2478 73.4709 64.8392L73.4705 64.8641C72.8451 63.5926 71.8386 62.5601 70.3402 61.9566C68.7381 61.3114 66.9877 61.4607 65.3752 62.015C65.4316 61.9641 65.4862 61.9108 65.5429 61.8603C65.8954 61.5433 66.2516 61.2308 66.6113 60.9224C66.7537 60.8008 66.8971 60.6802 67.0423 60.5621ZM67.5946 63.6933C66.0757 63.8556 64.5009 64.2961 63.0445 64.9751C63.1777 64.4461 63.4243 63.9666 63.7877 63.5755C65.7021 62.406 67.9522 61.918 70.0909 62.779C72.3451 63.6865 73.1822 66.1709 73.2843 68.4042C73.2505 68.4339 73.2246 68.4657 73.2116 68.5005C73.0767 68.8598 72.937 69.2202 72.728 69.5429C72.4824 67.4612 71.6002 65.5209 69.6722 64.469C69.1196 64.1674 68.5116 63.9966 67.8934 63.9399C68.028 63.7992 67.9996 63.6503 67.5946 63.6933ZM60.3402 71.0638C59.5977 72.1154 58.8753 73.1773 58.2373 74.2907C57.4839 70.8644 59.2049 68.0138 61.8471 66.205L62.5985 65.8683L62.6296 65.7132C63.4957 65.218 64.4353 64.8269 65.4025 64.5526C65.5784 64.5912 65.9367 64.5646 66.0785 64.4997C66.1912 64.4478 66.3073 64.4119 66.4251 64.3826C67.3726 64.4679 68.291 64.9495 68.9754 65.5879C69.2637 65.8567 69.5195 66.1992 69.5673 66.5999C69.6299 67.1247 69.0579 67.1319 68.6816 67.1366L68.6711 67.1368C67.2291 66.4735 64.8759 66.1354 64.269 66.162C63.9722 66.1753 63.1952 66.6484 63.856 66.619C65.354 66.5527 66.9197 66.8949 68.1923 67.7088C68.7989 68.0968 69.2251 68.7475 68.2029 69.1997C67.4009 69.5545 66.2957 68.963 65.5153 68.7615C63.0049 68.1132 61.5974 69.8503 59.5769 70.9822C58.999 71.306 59.901 71.3183 60.1629 71.1711C60.2234 71.1373 60.2808 71.0993 60.3402 71.0638ZM56.81 84.9516C55.4148 82.3576 55.643 78.9186 57.8121 76.7078C57.8316 76.6959 57.851 76.6839 57.8681 76.6685C59.985 74.9243 62.7078 74.5144 65.1765 75.7781C67.3333 76.882 68.4799 79.0727 68.9758 81.3521C68.9211 81.4303 68.9034 81.5229 68.9495 81.625C68.9983 81.7333 69.0376 81.8446 69.0687 81.9584C69.0789 81.9952 69.083 82.0345 69.0916 82.0721L69.0969 82.0957C69.113 82.1667 69.1291 82.2379 69.138 82.3108C69.1411 82.3341 69.1404 82.3583 69.1428 82.3815C69.3088 84.0548 67.9867 86.1279 66.9412 87.0955C64.9872 88.9043 62.1886 88.9146 59.8846 87.8643C59.6807 87.7718 59.4874 87.6662 59.2985 87.5556C59.2561 87.5303 59.2141 87.5047 59.1721 87.4787C59.0184 87.3831 58.8716 87.2813 58.7278 87.1758C58.6123 87.0907 58.4993 87.0036 58.391 86.9114C58.3446 86.8725 58.2957 86.8346 58.251 86.7943C58.1711 86.7225 58.1 86.6437 58.0245 86.5685C57.919 86.4643 57.8148 86.3588 57.7172 86.2481C57.5932 86.1064 57.4719 85.9626 57.3599 85.812C57.3435 85.7901 57.3251 85.7679 57.309 85.7457C57.2086 85.6074 57.113 85.4667 57.0231 85.3215C57.0655 85.2327 57.1119 85.145 57.1533 85.0558C57.196 84.9636 57.0228 84.9329 56.81 84.9516ZM40.6366 100.699C40.3483 100.808 40.0573 100.908 39.7636 100.993C37.5955 101.624 35.3123 101.558 33.4348 100.015C31.5034 98.4252 30.1949 95.2857 30.7154 92.8003C31.1851 90.5574 32.8672 88.6717 34.4512 87.1163C36.5381 85.0681 38.976 83.3768 41.4361 81.8118C44.0209 80.1677 46.7188 78.67 49.4808 77.3086C51.3894 76.3676 53.3276 75.4899 55.2837 74.6818C55.7984 74.469 56.6942 74.0742 57.0713 73.9994C57.0935 73.9949 57.116 73.9888 57.1382 73.9823C57.1953 74.3659 57.282 74.7573 57.4016 75.1562C57.4296 75.2505 57.5518 75.285 57.7011 75.2798C57.6249 75.4308 57.5536 75.5845 57.4811 75.7375C57.4128 75.882 57.3418 76.0247 57.2776 76.1713C57.2718 76.1846 57.2701 76.1958 57.266 76.2081C57.1659 76.2338 57.074 76.2778 57.0074 76.3448C55.3882 77.9702 54.7696 79.9979 54.9302 81.971C54.9312 81.9823 54.9315 81.9932 54.9322 82.0045C54.9411 82.1086 54.9541 82.2121 54.9674 82.316C54.9752 82.3805 54.9821 82.4454 54.9916 82.51C54.9988 82.5574 55.0087 82.6039 55.0169 82.6513C55.0883 83.068 55.1914 83.4799 55.3315 83.8816C55.518 84.4219 55.7652 84.9441 56.0631 85.4404C53.2105 91.4615 47.935 97.0689 42.0055 100.093C41.5622 100.319 41.1035 100.522 40.6366 100.699ZM37.9237 131H86.7476V146.308H37.9237V131ZM114.124 115.275V130.524H113.425C88.2581 130.524 63.0909 130.524 37.9244 130.523V130.467C37.9244 130.014 37.006 130.169 36.9349 130.523H27.8127V115.215H70.4799C70.4745 115.234 70.4704 115.254 70.4704 115.274V120.638C69.5544 121.123 68.6599 121.608 67.7954 121.948C66.6799 122.385 65.588 122.868 64.4432 123.229C63.5651 123.505 62.6726 123.609 61.7504 123.591C60.9512 123.575 60.2159 123.213 59.445 123.139C59.2124 123.116 58.9354 123.191 58.7452 123.326C58.0717 123.806 58.4136 123.858 58.6352 124.482C58.6636 124.563 58.7691 124.593 58.9003 124.591C58.6919 124.692 58.5509 124.867 58.6742 125.051C62.0845 130.14 71.3027 131.442 75.8152 127.184C75.8316 127.168 75.8422 127.154 75.8548 127.14C76.8787 128.9 79.107 126.979 80.081 125.88C81.8075 123.931 84.1157 120.558 83.7953 117.805C83.7714 117.601 83.5713 117.533 83.3571 117.56C84.0744 116.785 84.7551 115.999 85.3944 115.215H86.8292C86.9768 115.348 87.2961 115.327 87.5161 115.215H88.4284C88.1158 115.978 87.6889 116.692 87.0871 117.328C86.6694 117.769 87.6319 117.844 87.8996 117.561C88.5694 116.852 89.0462 116.062 89.3922 115.216H114.134C114.128 115.235 114.124 115.254 114.124 115.275ZM114.124 131.06C114.124 131.514 115.048 131.357 115.114 131H129.169V146.308H87.7442V131H114.124V131.06ZM119.63 99.235C119.642 99.2186 119.652 99.2015 119.663 99.1848H129.179C129.173 99.2039 129.169 99.2234 129.169 99.2439V114.74H89.5695C89.9004 113.783 90.0872 112.767 90.2109 111.723C90.2655 111.263 89.261 111.425 89.2142 111.821C89.0954 112.824 88.9246 113.812 88.6077 114.74H87.7439V99.1848H104.307C104.375 99.1848 104.465 99.1612 104.557 99.1257C105.498 99.7941 106.469 100.404 107.465 100.941C109.576 102.08 111.947 102.721 114.148 102.51C114.374 102.488 114.599 102.459 114.821 102.42C116.672 102.085 118.365 101.099 119.63 99.235ZM96.5127 75.7283C98.7993 76.7126 101.042 77.7991 103.249 78.9497C108.244 81.553 113.369 84.5473 117.261 88.6816C118.741 90.2538 120.082 92.1777 120.281 94.3847C120.373 95.3971 120.151 96.5006 119.715 97.5505C119.481 98.112 119.186 98.6578 118.844 99.166C118.105 100.267 117.147 101.193 116.118 101.714L116.114 101.716L116.113 101.717L116.11 101.718C114.996 102.281 113.747 102.339 112.493 102.118C110.888 101.835 109.279 101.092 107.933 100.334C107.64 100.169 107.357 100.004 107.092 99.8426C104.209 98.0881 101.704 95.7 99.5316 93.1354C97.8922 91.2002 96.472 89.0628 95.4023 86.7611C98.0158 83.9229 98.4882 79.2858 95.5137 76.3C95.4648 76.2505 95.3955 76.2225 95.3176 76.2092C95.2975 76.1931 95.2766 76.1781 95.2565 76.162C95.2558 76.1303 95.2507 76.0985 95.236 76.065C95.0628 75.6743 94.8736 75.2938 94.6762 74.9178C95.3043 75.1709 95.9221 75.4742 96.5127 75.7283Z" fill="#340679"/>
<path d="M78.4457 116.908C77.8836 116.881 77.1229 116.778 76.5939 117.021C75.9887 117.298 76.6342 118.184 76.8541 118.484C76.9962 118.678 76.6994 118.876 76.3999 118.943C76.4498 118.951 76.4996 118.953 76.5495 118.963C76.8678 119.024 75.9982 119.427 75.7452 119.378C74.3752 119.115 72.77 120.066 71.466 120.747V120.848C71.466 121.146 70.8676 121.324 70.5988 121.169C69.2951 121.775 67.9696 122.324 66.6318 122.853C64.2174 123.807 61.9581 124.307 59.4679 123.76C59.498 123.924 59.5792 124.089 59.6243 124.217C59.6602 124.319 59.5103 124.429 59.3169 124.504C59.431 124.512 59.5304 124.553 59.5854 124.635C59.6202 124.686 59.6588 124.736 59.695 124.786C59.8122 124.768 59.9249 124.774 60.0082 124.817C68.4515 129.257 76.811 123.549 82.6153 117.227C82.4599 117.279 82.0184 117.249 81.8172 117.227C80.6904 117.199 79.5725 116.962 78.4457 116.908Z" fill="#A358E7"/>
<path d="M88.4861 119.51C87.9604 121.437 86.5926 122.837 84.7462 123.564C84.144 123.801 85.0918 123.741 85.3067 123.656C87.2944 122.873 88.8857 121.428 89.4591 119.324C89.5046 119.158 88.5489 119.279 88.4861 119.51Z" fill="#340679"/>
<path d="M16.2692 85.1675H35.26C35.6275 85.1675 36.3147 84.6098 35.646 84.6098H16.6551C16.2873 84.6098 15.6001 85.1675 16.2692 85.1675Z" fill="#340679"/>
<path d="M84.6403 74.5114H68.6397C67.9672 74.5114 68.1755 73.8081 68.7333 73.8081H84.7339C85.4067 73.8085 85.1984 74.5114 84.6403 74.5114Z" fill="#340679"/>
<path fill-rule="evenodd" clip-rule="evenodd" d="M77.7118 80.2609C77.5751 80.5153 77.3053 80.6909 77.0454 80.7992C76.6742 80.9542 76.279 81.057 75.876 81.0768C75.3903 81.1004 74.5866 81.07 74.3247 80.5632C74.213 80.347 74.296 80.0877 74.4258 79.8995C74.7011 79.4992 75.1167 79.2086 75.5221 78.9535C75.6348 78.8824 75.7704 78.8312 75.9094 78.7994C75.96 78.7093 76.1772 78.6256 76.223 78.6092C76.362 78.559 76.723 78.4347 76.8606 78.5535C77.2777 78.9138 78.0526 79.6256 77.7118 80.2609ZM76.7404 79.8965C76.7848 80.0153 76.8056 80.1431 76.792 80.2694C76.7896 80.2787 76.7821 80.3159 76.7797 80.3261C76.7725 80.3514 76.7626 80.3763 76.7524 80.4002C76.7421 80.4241 76.7295 80.4474 76.7162 80.4696C76.7114 80.4779 76.6978 80.4962 76.6871 80.5104L76.6827 80.5164C76.6537 80.5495 76.6209 80.5802 76.5864 80.6089L76.5652 80.6229C76.5584 80.627 76.5556 80.6291 76.5508 80.6321C76.5396 80.6383 76.5283 80.6427 76.517 80.6482C76.5129 80.6496 76.5088 80.6513 76.5051 80.653C76.5003 80.6544 76.4955 80.6554 76.4907 80.6567C76.4682 80.6612 76.4453 80.6653 76.4224 80.669C76.3886 80.6721 76.3548 80.6748 76.321 80.6769C76.3107 80.6776 76.3005 80.6783 76.2903 80.6786C76.2237 80.6789 76.1564 80.6762 76.0898 80.6711L76.0485 80.667C76.0146 80.6625 75.9812 80.6571 75.9477 80.6509C75.8524 80.6328 75.7581 80.6076 75.6673 80.5741C75.6639 80.5724 75.6649 80.5727 75.6581 80.5696C75.6366 80.5608 75.6154 80.5498 75.5945 80.5396C75.5546 80.5201 75.5163 80.4966 75.4798 80.4713C75.449 80.4501 75.42 80.4259 75.3923 80.4006C75.378 80.3866 75.3643 80.3719 75.351 80.3572C75.3496 80.3555 75.3496 80.3558 75.3496 80.3558C75.3479 80.3531 75.3445 80.3476 75.3377 80.3377C75.2947 80.2742 75.2704 80.2008 75.2632 80.1246C75.2545 80.033 75.2593 80.0205 75.2945 79.9295L75.3001 79.9149C75.3193 79.8644 75.3452 79.8172 75.3729 79.7715C75.3882 79.7455 75.4057 79.7202 75.4231 79.6956C75.4306 79.6854 75.4381 79.6745 75.446 79.6646C75.449 79.6605 75.448 79.6618 75.4497 79.6591C75.4521 79.6567 75.4514 79.6577 75.4566 79.6516C75.6731 79.3913 75.8811 79.2404 76.1345 79.0774C76.3856 79.3114 76.6195 79.5761 76.7404 79.8965Z" fill="#340679"/>
<path d="M63.0784 83.1039V81.8706C63.0784 81.4382 62.0868 81.6452 62.0868 81.9874V83.2207C62.0868 83.6528 63.0784 83.4461 63.0784 83.1039Z" fill="#340679"/>
<path d="M89.7645 81.3494C89.5876 81.3654 89.2132 81.4935 89.2136 81.7275C89.2139 82.1209 89.2231 82.5697 89.5039 82.8781C89.7826 83.1842 90.7256 82.8006 90.4144 82.4584C90.217 82.2415 90.2119 81.914 90.2119 81.6359C90.2116 81.3965 89.9687 81.3303 89.7645 81.3494Z" fill="#340679"/>
<path d="M103.989 98.7083C100.067 95.7803 96.7419 91.8023 94.6386 87.4873C93.8999 88.1003 93.0385 88.5857 92.073 88.8889C89.5305 89.6878 86.9064 89.3155 84.8217 87.6099C84.1645 87.0719 83.4726 86.1744 82.9842 85.173C82.798 85.2577 82.5729 85.3325 82.4852 85.3325H77.556C77.1045 85.4394 76.6403 85.5005 76.1653 85.506C75.5313 85.5131 74.9203 85.4503 74.3278 85.3325H69.3778C68.8077 86.3916 68.0195 87.3267 67.2954 87.8486C65.2687 89.3101 62.5981 89.8555 60.2114 88.9395C58.7274 88.3701 57.4924 87.3985 56.5863 86.2102C55.2348 88.8179 53.4427 91.3242 51.3617 93.5582C50.6592 94.3123 49.9221 95.0323 49.1591 95.7174C47.9282 96.8227 46.6276 97.8285 45.2788 98.7083H103.989Z" fill="#F4EDFB"/>
<path d="M85.7527 114.74H86.748V99.2439C86.748 99.2234 86.7521 99.2039 86.7575 99.1848H44.5309C44.2142 99.3777 43.8959 99.5663 43.5752 99.7449C41.875 100.69 39.8568 101.482 37.8837 101.716C37.909 101.754 37.9241 101.801 37.9241 101.857V114.683C37.9241 114.702 37.92 114.721 37.9148 114.74H84.7534C84.7899 114.695 84.8278 114.649 84.864 114.604C85.1007 114.308 85.9023 114.363 85.7527 114.74Z" fill="#F4EDFB"/>
<path d="M119.663 99.1848C119.652 99.2015 119.642 99.2186 119.63 99.235C118.365 101.099 116.672 102.085 114.821 102.42C114.599 102.459 114.374 102.488 114.148 102.51C111.947 102.721 109.576 102.08 107.465 100.941C106.469 100.404 105.498 99.7941 104.557 99.1257C104.465 99.1612 104.375 99.1848 104.307 99.1848H87.7439V114.74H88.6077C88.9246 113.812 89.0954 112.824 89.2142 111.821C89.261 111.425 90.2655 111.263 90.2109 111.723C90.0872 112.767 89.9004 113.783 89.5695 114.74H129.169V99.2439C129.169 99.2234 129.173 99.2039 129.179 99.1848H119.663Z" fill="#F4EDFB"/>
<path d="M86.7476 131H37.9237V146.308H86.7476V131Z" fill="#F4EDFB"/>
</g>
<defs>
<clipPath id="clip0_1859_21059">
<rect width="160" height="160" fill="white" transform="translate(0.5)"/>
</clipPath>
</defs>
</svg>
