<svg width="20" height="20" viewBox="0 0 20 20" fill="none" xmlns="http://www.w3.org/2000/svg">
<path fill-rule="evenodd" clip-rule="evenodd" d="M0 10C0 4.47715 4.47715 0 10 0C15.5228 0 20 4.47715 20 10C20 15.5228 15.5228 20 10 20C4.47715 20 0 15.5228 0 10ZM10 9C10.5523 9 11 9.44771 11 10V13C11 13.5523 10.5523 14 10 14C9.44771 14 9 13.5523 9 13V10C9 9.44771 9.44771 9 10 9ZM9 7C9 6.44772 9.44771 6 10 6H10.01C10.5623 6 11.01 6.44772 11.01 7C11.01 7.55228 10.5623 8 10.01 8H10C9.44771 8 9 7.55228 9 7Z" fill="white"/>
</svg>
