<svg width="16" height="16" viewBox="0 0 16 16" fill="none" xmlns="http://www.w3.org/2000/svg">
    <path d="M7.99984 0.666667C6.54944 0.666667 5.13162 1.09676 3.92566 1.90256C2.7197 2.70835 1.77977 3.85367 1.22472 5.19366C0.669681 6.53365 0.524457 8.00814 0.807415 9.43067C1.09037 10.8532 1.78881 12.1599 2.81439 13.1855C3.83998 14.211 5.14665 14.9095 6.56918 15.1924C7.9917 15.4754 9.46619 15.3302 10.8062 14.7751C12.1462 14.2201 13.2915 13.2802 14.0973 12.0742C14.9031 10.8682 15.3332 9.4504 15.3332 8.00001C15.3309 6.05579 14.5575 4.19186 13.1828 2.81709C11.808 1.44231 9.94406 0.668961 7.99984 0.666667ZM7.99984 14C6.81315 14 5.65311 13.6481 4.66642 12.9888C3.67972 12.3295 2.91069 11.3925 2.45656 10.2961C2.00244 9.19975 1.88362 7.99335 2.11513 6.82946C2.34664 5.66558 2.91808 4.59648 3.7572 3.75736C4.59631 2.91825 5.66541 2.3468 6.8293 2.11529C7.99318 1.88378 9.19958 2.0026 10.2959 2.45672C11.3923 2.91085 12.3294 3.67989 12.9887 4.66658C13.6479 5.65328 13.9998 6.81332 13.9998 8.00001C13.9979 9.59071 13.3651 11.1157 12.2403 12.2405C11.1155 13.3653 9.59054 13.9981 7.99984 14Z" fill="#E12A2A"/>
    <path d="M8.00016 6C7.82335 6 7.65378 6.07024 7.52876 6.19526C7.40373 6.32029 7.3335 6.48986 7.3335 6.66667V11.3333C7.3335 11.5101 7.40373 11.6797 7.52876 11.8047C7.65378 11.9298 7.82335 12 8.00016 12C8.17697 12 8.34654 11.9298 8.47157 11.8047C8.59659 11.6797 8.66683 11.5101 8.66683 11.3333V6.66667C8.66683 6.48986 8.59659 6.32029 8.47157 6.19526C8.34654 6.07024 8.17697 6 8.00016 6Z" fill="#E12A2A"/>
    <path d="M8.00016 5.33333C8.36835 5.33333 8.66683 5.03486 8.66683 4.66667C8.66683 4.29848 8.36835 4 8.00016 4C7.63197 4 7.3335 4.29848 7.3335 4.66667C7.3335 5.03486 7.63197 5.33333 8.00016 5.33333Z" fill="#E12A2A"/>
</svg>
