<svg width="161" height="160" viewBox="0 0 161 160" fill="none" xmlns="http://www.w3.org/2000/svg">
<g clip-path="url(#clip0_2549_23375)">
<path d="M35.5436 146.291C13.169 117.156 3.6841 68.7362 7.92439 29.607C9.38745 19.229 22.9442 13.099 28.1437 11.2821C42.577 6.2344 56.9372 7.55696 102.351 25.4738C147.765 43.3906 150.201 67.1726 145.743 76.8241C143.89 83.5711 131.638 104.485 97.4523 134.164C63.267 163.843 41.9359 154.615 35.5436 146.291Z" fill="#F4EDFB"/>
<path fill-rule="evenodd" clip-rule="evenodd" d="M122.502 105.254C122.579 104.81 122.617 104.365 122.615 103.913L122.344 70.5873V70.5396V70.4684C122.344 70.3665 122.279 70.2945 122.177 70.2435L121.604 69.6047C121.043 68.9782 120.481 68.3517 119.918 67.7257L119.493 67.2509C111.791 58.6662 104.087 50.0807 96.3836 41.4968C96.1134 41.1951 96.4838 40.7385 95.9144 40.9948C96.3827 40.6519 95.8176 40.6656 94.9117 40.6656H51.8956C51.4629 40.6656 50.744 40.7552 50.4383 41.0812C49.8996 41.1257 49.8213 41.6723 49.607 41.9125C41.6945 50.7299 33.7827 59.5474 25.8704 68.3654L24.6037 70.2269C24.4969 70.3458 24.4799 70.4372 24.5196 70.5075C24.5188 70.5172 24.5147 70.5253 24.5147 70.535V87.0202L24.5131 97.7498C24.5139 100.333 24.5139 102.917 24.5139 105.501V105.561V106.186C24.5139 106.424 24.8439 106.515 25.2564 106.49C25.8153 107.113 26.3742 107.736 26.9331 108.359C27.4919 108.982 28.0508 109.605 28.6097 110.227L30.2087 112.008C32.8823 114.988 35.5558 117.967 38.2294 120.947C38.3295 121.058 38.4296 121.17 38.5298 121.281C42.5119 125.719 46.494 130.157 50.4767 134.594C50.7161 134.861 49.6852 134.808 50.2223 134.616C50.3266 134.654 50.4755 134.677 50.6857 134.677H66.3249L68.5337 134.676H75.4911L77.8351 134.674H94.7141C94.8953 134.674 95.1218 134.611 95.3466 134.515C95.7405 134.743 96.6389 134.575 96.9899 134.184C105.288 124.937 112.748 116.299 121.047 107.053C121.599 106.911 122.124 106.608 122.124 106.208L122.344 105.921V105.795L122.502 105.254ZM94.7149 41.4712H50.896C43.8568 49.3145 36.8181 57.1595 29.7799 65.0038L25.1953 70.1136V104.955L31.2826 111.739C31.3098 111.769 31.337 111.8 31.3643 111.83C37.887 119.099 44.4099 126.66 50.9332 133.929C51.1759 133.819 51.4274 133.745 51.6239 133.745H95.654C95.7777 133.745 95.8764 133.755 95.9613 133.769C100.481 128.733 104.999 123.406 109.518 118.37C109.594 118.285 109.671 118.2 109.747 118.114C113.546 113.881 117.345 109.647 121.144 105.414V70.5722C116.842 65.7793 112.542 60.986 108.241 56.1927C103.941 51.4008 99.6415 46.6089 95.3418 41.8174C95.1768 41.6338 95.2673 41.43 95.4849 41.2496C95.2172 41.3798 94.9333 41.4712 94.7149 41.4712Z" fill="#340679"/>
<path fill-rule="evenodd" clip-rule="evenodd" d="M28.7282 72.5999V103.374V103.429V103.989C28.7282 104.215 29.0274 104.307 29.4108 104.294C32.4478 107.678 35.4845 111.062 38.5213 114.447L38.8895 114.857C43.1243 119.576 47.3592 124.296 51.5948 129.015C51.8213 129.268 52.402 129.234 52.9205 129.066C53.0192 129.092 53.1453 129.108 53.3168 129.108H92.0831C92.2473 129.108 92.4486 129.056 92.6525 128.975C93.1353 129.139 94.4076 128.933 94.736 128.566C98.3829 124.503 102.029 120.439 105.676 116.376C109.322 112.312 112.968 108.248 116.615 104.185C117.138 104.034 117.612 103.742 117.612 103.36V103.031V102.904V72.0895V72.0418V71.9707C117.612 71.8688 117.548 71.7968 117.446 71.7458C112.913 66.6939 108.38 61.642 103.847 56.5901C100.813 53.2094 97.7791 49.8286 94.7457 46.4478C94.5321 46.2101 94.0048 46.2262 93.5122 46.3686C93.7759 46.0871 93.7549 45.8251 93.0237 45.8251L54.179 46.4503C53.7698 46.4503 53.2068 46.1397 52.88 46.4503C52.3664 46.5061 51.8067 46.6711 51.6054 46.8967C45.9396 53.2097 40.2748 59.5232 34.6099 65.8368L28.8187 72.2909C28.712 72.409 28.6958 72.5004 28.7346 72.5708C28.7322 72.5813 28.7282 72.5902 28.7282 72.5999ZM93.2492 46.4845C93.089 46.5387 92.1325 46.9001 92.0022 46.9001C79.1818 46.9001 65.3369 47.3166 52.5165 47.3158C44.9994 55.6926 37.2962 64.3369 29.7799 72.7145V103.363L52.3563 128.2C52.5625 128.118 52.7663 128.064 52.9321 128.064H92.9361C92.981 128.064 93.0452 128.062 93.0818 128.064C93.1184 128.067 94.0767 127.693 94.0909 127.694C97.7718 123.593 100.375 120.477 104.056 116.376C104.225 116.187 105.405 114.958 105.575 114.77C109.086 110.857 112.597 106.509 116.109 102.596L116.615 72.6698C112.902 68.5309 109.017 63.9236 105.303 59.785C101.447 55.4883 97.9354 52.028 94.0804 47.7314C93.9729 47.6117 93.1756 46.6098 93.2492 46.4845Z" fill="#340679"/>
<path fill-rule="evenodd" clip-rule="evenodd" d="M50.896 41.4712H94.7149C94.9333 41.4712 95.2172 41.3798 95.4849 41.2496C95.2673 41.43 95.1768 41.6338 95.3418 41.8174C99.6415 46.6089 103.941 51.4008 108.241 56.1927C112.542 60.986 116.842 65.7793 121.144 70.5722V105.414C117.345 109.647 113.546 113.881 109.747 118.114L109.518 118.37C104.999 123.406 100.481 128.733 95.9613 133.769C95.8764 133.755 95.7777 133.745 95.654 133.745H51.6239C51.4274 133.745 51.1759 133.819 50.9332 133.929C44.4099 126.66 37.887 119.099 31.3643 111.83L31.2826 111.739L25.1953 104.955V70.1136L29.7799 65.0038C36.8181 57.1595 43.8568 49.3145 50.896 41.4712ZM28.7282 103.374V72.5999C28.7282 72.5902 28.7322 72.5813 28.7346 72.5708C28.6958 72.5004 28.712 72.409 28.8187 72.2909L34.6099 65.8368C40.2748 59.5232 45.9396 53.2097 51.6054 46.8967C51.8067 46.6711 52.3664 46.5061 52.88 46.4503C53.2068 46.1397 53.7698 46.4503 54.179 46.4503L93.0237 45.8251C93.7549 45.8251 93.7759 46.0871 93.5122 46.3686C94.0048 46.2262 94.5321 46.2101 94.7457 46.4478C97.7791 49.8286 100.813 53.2094 103.847 56.5901C108.38 61.642 112.913 66.6939 117.446 71.7458C117.548 71.7968 117.612 71.8688 117.612 71.9707V72.0418V72.0895V102.904V103.031V103.36C117.612 103.742 117.138 104.034 116.615 104.185C112.968 108.248 109.322 112.312 105.676 116.376C102.029 120.439 98.3829 124.503 94.736 128.566C94.4076 128.933 93.1353 129.139 92.6525 128.975C92.4486 129.056 92.2473 129.108 92.0831 129.108H53.3168C53.1453 129.108 53.0192 129.092 52.9205 129.066C52.402 129.234 51.8213 129.268 51.5948 129.015C47.3592 124.296 43.1243 119.576 38.8895 114.857L38.5213 114.447C35.4845 111.062 32.4478 107.678 29.4108 104.294C29.0274 104.307 28.7282 104.215 28.7282 103.989V103.429V103.374Z" fill="#FEFDFF"/>
<path fill-rule="evenodd" clip-rule="evenodd" d="M81.3799 57.045H65.4663V97.7807H81.3799V57.045ZM66.2326 97.1925H80.78V57.7068H66.2326V97.1925Z" fill="#340679"/>
<path fill-rule="evenodd" clip-rule="evenodd" d="M92.0022 46.9001C92.1325 46.9001 93.089 46.5387 93.2492 46.4845C93.1756 46.6098 93.9729 47.6117 94.0804 47.7314C97.9354 52.028 101.447 55.4883 105.303 59.785C109.017 63.9236 112.902 68.5309 116.615 72.6698L116.109 102.596C112.597 106.509 109.086 110.857 105.575 114.77L104.056 116.376C100.375 120.477 97.7718 123.593 94.0909 127.694C94.0767 127.693 93.1184 128.067 93.0818 128.064C93.0452 128.062 92.981 128.064 92.9361 128.064H52.9321C52.7663 128.064 52.5625 128.118 52.3563 128.2L29.7799 103.363V72.7145C37.2962 64.3369 44.9994 55.6926 52.5165 47.3158C65.3369 47.3166 79.1818 46.9001 92.0022 46.9001ZM65.4663 57.045H81.3799V97.7807H65.4663V57.045Z" fill="#A358E7"/>
<path d="M80.78 97.1925H66.2326V57.7068H80.78V97.1925Z" fill="#FEFDFF"/>
<path fill-rule="evenodd" clip-rule="evenodd" d="M81.3799 100.569H65.4663V116.376H81.3799V100.569ZM66.2326 115.481H80.78V101.349H66.2326V115.481Z" fill="#340679"/>
<path d="M80.78 115.481H66.2326V101.349H80.78V115.481Z" fill="#FEFDFF"/>
<path fill-rule="evenodd" clip-rule="evenodd" d="M139.228 143.044C139.221 143.146 139.137 143.257 138.95 143.312C138.446 143.461 137.947 143.602 137.448 143.724C138.1 144.388 139.167 145.577 138.537 146.44C138.052 147.105 137.029 147.272 136.261 147.266C133.676 147.246 130.496 146.029 129.25 143.618C129.185 143.599 129.118 143.585 129.054 143.563C127.397 143.012 127.222 141.685 126.801 140.116C126.21 137.914 125.735 135.685 125.196 133.47C123.94 128.32 121.93 123.392 120.315 118.348C118.857 113.793 117.447 109.223 115.881 104.704C115.501 116.842 114.185 129.614 121.59 140.093C121.624 140.141 121.632 140.195 121.59 140.244C121.163 140.748 120.633 141.139 120.036 141.433C122.054 145.22 115.29 145.589 113.072 145.539C111.493 145.503 108.652 145.507 107.427 144.301C106.184 143.078 110.069 141.532 111.618 140.917C111.152 140.672 110.728 140.397 110.366 140.098C110.344 140.08 110.335 140.061 110.332 140.041C110.228 140.04 110.15 140.015 110.15 139.958C110.141 138.415 110.05 136.881 109.902 135.355L109.864 134.997C109.034 126.951 106.634 119.084 105.987 111.005C105.67 107.046 105.448 103.051 105.653 99.0797C105.804 96.1421 106.006 92.8106 107.576 90.2312C107.591 90.207 107.604 90.1817 107.619 90.1575C107.621 90.1539 107.625 90.1506 107.628 90.1467C107.639 90.1351 107.65 90.1235 107.664 90.1127C107.665 90.1112 107.667 90.1101 107.669 90.1086C107.676 90.1032 107.683 90.098 107.691 90.0931C107.693 90.0919 107.695 90.0903 107.697 90.0888C108.221 87.8979 109.035 85.5353 108.668 83.2548C108.369 81.3935 107.473 79.6068 107.368 77.7247C107.316 77.8086 107.268 77.8943 107.215 77.9772C107.187 78.0202 107.125 78.0578 107.05 78.0874C105.875 79.2155 104.025 80.0649 102.573 78.8715C102.242 78.5996 101.949 78.2517 101.71 77.8619C101.579 77.5001 101.196 76.55 101.196 75.6489C101.196 74.9279 101.539 74.1921 101.71 73.9142C102.047 73.5339 102.47 73.2824 102.9 72.9276C103.667 72.2939 104.389 71.6034 105.087 70.894C106 69.965 106.902 69.0126 107.704 67.984C108.062 67.5234 108.667 66.8902 108.762 66.2676C108.722 66.2499 108.688 66.2241 108.663 66.1876C107.99 65.1857 107.262 63.99 107.431 62.7229C107.591 61.5267 108.283 60.7627 108.992 59.8371C109.848 58.7209 109.805 57.708 109.978 56.5079C110.119 55.408 110.54 54.5094 110.734 54.1976C111.17 53.6067 111.979 53.1473 112.814 52.5958C113.358 52.0842 113.91 51.5842 114.539 51.1676C115.127 50.6019 115.931 50.3279 116.685 50.2025C117.988 49.8634 119.328 49.9458 120.677 50.4824C120.763 50.5167 120.81 50.5615 120.828 50.6101C120.904 50.5738 120.982 50.5478 121.04 50.5442C122.52 50.45 123.761 51.0257 124.646 51.9755C125.428 52.5662 126.03 53.428 125.996 54.6958C126.075 55.0995 126.115 55.5164 126.11 55.9389C126.104 56.4636 126.01 57.0105 125.891 57.5206C125.866 57.6285 125.85 57.7181 125.839 57.801C125.886 58.146 125.962 58.4599 126.072 58.7397C126.093 58.7817 126.114 58.8221 126.137 58.8703C126.675 59.9983 127.586 60.4018 128.751 60.6765C130.278 61.0362 132.302 61.8429 133.189 63.2242C133.797 64.171 133.844 65.1489 133.389 66.1749C132.862 67.3622 132.633 68.3053 133.36 69.4568C134.293 70.9342 134.907 72.969 134.593 74.7297C134.53 75.0803 134.435 75.4019 134.315 75.6991C134.159 76.4017 133.828 77.0017 133.196 77.3387C133.129 77.3745 133.062 77.4092 132.993 77.4435C131.87 78.3153 130.325 78.667 128.786 78.6856C128.476 78.7332 128.274 78.7556 128.227 78.7605C128.245 80.8891 127.989 83.2519 126.641 84.7278C125.827 85.6189 124.702 85.7773 123.6 85.5711C123.439 87.429 123.299 89.1588 123.941 90.9215C124.032 90.9271 124.11 90.9606 124.147 91.0311C126.228 94.9739 127.324 99.3088 128.057 103.684C128.783 108.01 129.031 112.487 130.058 116.754C131.151 121.29 133.416 125.418 134.839 129.847C136.236 134.195 136.903 138.833 139.232 142.83C139.276 142.907 139.268 142.98 139.228 143.044ZM122.84 85.3725C122.848 85.3751 122.856 85.3779 122.864 85.3806C122.871 85.3834 122.879 85.3862 122.887 85.3888L122.884 85.3933C122.883 85.3957 122.882 85.3981 122.881 85.4006C122.87 85.4253 122.86 85.4511 122.858 85.4791L122.851 85.5609C122.679 87.5316 122.522 89.3439 123.23 91.2088C120.05 92.5101 115.441 93.3742 111.817 92.2459C111.38 92.1097 110.957 91.9454 110.553 91.7485C109.754 91.3594 109.03 90.845 108.41 90.1869C108.421 90.166 108.43 90.1444 108.435 90.1215C108.498 89.8562 108.562 89.5923 108.625 89.3298C109.088 87.4136 109.538 85.5548 109.464 83.5429C109.425 82.4907 109.107 81.4909 108.789 80.4932C108.391 79.2417 107.994 77.9936 108.151 76.6499C108.161 76.5645 108.132 76.5029 108.083 76.4604C108.669 75.3155 109.15 74.1236 109.633 72.9273C109.793 72.5302 109.954 72.1325 110.119 71.736C110.576 70.6355 111.164 69.6244 112.059 68.82C112.426 68.4902 112.681 68.1565 112.835 67.768C113.174 67.8298 113.519 67.8231 113.85 67.7221C113.843 68.3674 114.041 68.8203 114.373 69.12C114.491 69.2263 114.627 69.3123 114.776 69.3816C116.184 70.0351 118.828 69.1148 120.109 68.0481C120.152 68.0123 120.195 67.9765 120.234 67.9405C120.242 67.9443 120.247 67.9469 120.247 67.9469C120.247 67.9469 120.376 67.9582 120.595 67.9894C121.099 68.1439 121.624 68.2502 122.145 68.3112C123.041 68.5569 124.099 68.9578 124.961 69.6012C126.293 71.1456 126.904 73.2414 127.224 75.2606C127.373 76.2004 127.468 77.1883 127.49 78.1855C125.918 77.8215 124.19 77.9507 122.634 78.2221C122.446 78.2548 122.254 78.3941 122.238 78.4827C122.201 78.4572 122.163 78.4327 122.125 78.4081C122.112 78.3998 122.099 78.3915 122.086 78.3832C122.082 78.3802 122.077 78.3772 122.072 78.3742C122.067 78.3706 122.061 78.3669 122.056 78.3632C122.113 78.3066 122.141 78.2378 122.114 78.1639C121.63 76.8356 121.68 75.4394 121.731 74.0488C121.744 73.6856 121.757 73.3229 121.761 72.9618C121.764 72.6039 121.012 72.7406 121.009 73.0352C121.006 73.4046 120.992 73.7761 120.979 74.1482C120.934 75.3911 120.888 76.6405 121.206 77.8416C120.923 77.678 120.637 77.5195 120.35 77.3608C119.558 76.9225 118.764 76.4833 118.037 75.937C118.045 75.8757 118.046 75.8118 118.039 75.7449C118.013 75.4915 117.822 75.2778 117.643 75.1141C117.344 74.8388 116.949 74.6583 116.576 74.5077C116.572 74.5059 116.567 74.5053 116.562 74.5047C116.557 74.5042 116.553 74.5036 116.549 74.5023C115.844 73.6392 115.252 72.598 115.088 71.6379C115.068 71.5222 115.059 71.3552 115.049 71.1635C115.026 70.7216 114.996 70.1489 114.807 69.7737C114.718 69.5961 114.594 69.4617 114.417 69.4078C114.371 69.3937 114.322 69.3847 114.269 69.3818C113.613 69.3486 113.267 69.7794 112.983 70.3242C112.844 70.5901 112.742 70.8756 112.64 71.161C112.558 71.3913 112.476 71.6216 112.374 71.8415C112.213 72.1921 111.933 72.4429 111.653 72.6941C111.467 72.8612 111.281 73.0285 111.128 73.2255C109.901 74.8128 110.368 76.4584 112.335 76.9746C112.402 76.9924 112.5 76.9762 112.598 76.9422C112.967 77.1397 113.299 77.4005 113.609 77.6981C113.576 77.7602 113.577 77.8282 113.664 77.8694C113.711 77.8915 113.761 77.8997 113.812 77.9015C114.167 78.2701 114.495 78.6807 114.822 79.0891C115.243 79.6163 115.662 80.1398 116.13 80.5646C117.723 82.0109 119.461 83.4862 121.282 84.6333C121.741 84.9225 122.277 85.1851 122.84 85.3725ZM110.666 69.5734C110.196 70.1283 109.856 70.756 109.558 71.4144C109.243 72.1109 108.956 72.815 108.671 73.5173C108.067 75.0018 107.467 76.4779 106.603 77.8547C106.561 77.8719 106.525 77.8923 106.501 77.9165C105.566 78.8339 104.448 79.4147 103.267 78.5785C102.631 78.1281 102.245 77.3889 102.012 76.6662C101.766 75.903 101.778 75.0392 102.12 74.3095C102.32 73.8835 102.71 73.6137 103.094 73.3483C103.233 73.2521 103.371 73.1565 103.499 73.0543C104.883 71.9492 106.119 70.6208 107.298 69.3049C107.418 69.1714 107.56 69.0222 107.713 68.8609C108.411 68.1278 109.349 67.1434 109.499 66.2398C109.595 66.1953 109.664 66.1366 109.663 66.0681C109.658 65.8331 109.634 65.5795 109.609 65.318C109.529 64.461 109.44 63.5195 109.985 62.8728C110.03 62.82 110.081 62.7788 110.136 62.7425C110.226 62.7044 110.322 62.6817 110.428 62.6817C110.728 62.6817 111.008 62.6822 111.269 62.6887C111.645 62.7901 112.007 62.9565 112.24 63.0734C112.698 63.3035 112.97 63.6393 113.191 64.0963C113.299 64.3208 113.372 64.5603 113.419 64.8052C113.386 65.3533 113.305 65.9347 113.238 66.3542C113.142 66.4986 113.027 66.5416 112.908 66.3245C112.722 65.9848 112.678 65.5861 112.635 65.1903C112.606 64.9305 112.577 64.6719 112.509 64.4321C112.456 64.2464 111.711 64.4516 111.763 64.6319C111.809 64.7916 111.834 65.0164 111.861 65.2627C111.929 65.8745 112.012 66.6195 112.463 66.8328C112.35 66.8848 112.262 66.9595 112.261 67.0511C112.259 67.1258 112.254 67.1982 112.246 67.2679C112.143 67.357 112.098 67.4683 112.189 67.5535C112.026 68.1572 111.604 68.5891 111.166 69.037C110.997 69.2098 110.825 69.385 110.666 69.5734ZM117.216 76.1285C117.214 76.1309 117.213 76.1314 117.212 76.1334C117.193 76.1494 117.174 76.1649 117.155 76.1798C117.153 76.1812 117.151 76.1833 117.151 76.1833C117.149 76.1845 117.148 76.1856 117.146 76.1868L117.144 76.1885C117.126 76.1987 117.086 76.2165 117.055 76.2303C117.047 76.234 117.04 76.2374 117.033 76.2403C116.987 76.255 116.941 76.2691 116.894 76.2789L116.89 76.2793L116.888 76.2795C116.888 76.2795 116.886 76.2797 116.884 76.2799C116.854 76.2835 116.823 76.2854 116.792 76.2869C116.782 76.2874 116.765 76.2872 116.749 76.2872C116.724 76.2854 116.699 76.2835 116.673 76.2802C116.644 76.2763 116.616 76.2709 116.588 76.265L116.584 76.2637C116.577 76.2618 116.57 76.2599 116.564 76.2578C116.534 76.2483 116.505 76.2369 116.477 76.2248C116.463 76.2192 116.45 76.2127 116.436 76.2063C116.401 76.1852 116.367 76.1615 116.334 76.1363C116.318 76.1234 116.303 76.1097 116.287 76.0958C116.285 76.0938 116.283 76.0917 116.281 76.0896C116.279 76.0878 116.278 76.086 116.276 76.0842C116.275 76.0827 116.273 76.0811 116.272 76.0796C116.238 76.0418 116.208 76.0001 116.181 75.9573C116.168 75.9375 116.156 75.9169 116.145 75.896C116.144 75.8937 116.142 75.8904 116.142 75.8904C116.141 75.8886 116.14 75.887 116.139 75.8852C116.139 75.8852 116.138 75.8821 116.137 75.8802C116.135 75.8763 116.133 75.8713 116.131 75.8649C116.117 75.8314 116.107 75.7964 116.097 75.7614C116.095 75.7552 116.093 75.749 116.091 75.7428C116.262 75.7508 116.454 75.687 116.538 75.5286C116.76 75.7392 116.99 75.9372 117.222 76.1208L117.219 76.1241C117.218 76.1257 117.216 76.1285 117.216 76.1285ZM115.331 76.309C115.029 76.7385 114.613 77.0683 114.165 77.3387C113.845 77.0305 113.488 76.764 113.058 76.5768C113.005 76.5539 112.925 76.5609 112.838 76.5822L112.835 76.581C112.821 76.5755 112.808 76.57 112.791 76.5655C111.702 76.2797 110.994 75.6108 111.198 74.432C111.312 73.7768 111.734 73.3717 112.163 72.9598C112.355 72.7761 112.547 72.591 112.715 72.3817C112.721 72.3745 112.726 72.3674 112.732 72.3603C112.745 72.3444 112.758 72.3285 112.77 72.3119C112.815 72.253 112.854 72.192 112.893 72.1308L112.897 72.1242C113.131 71.7595 113.285 71.3599 113.44 70.9582C113.557 70.6576 113.673 70.3558 113.824 70.0667C114.132 69.4766 114.251 70.7601 114.282 71.0949C114.284 71.1151 114.286 71.1319 114.287 71.1445C114.29 71.1758 114.293 71.2068 114.296 71.2377C114.298 71.2603 114.3 71.2828 114.303 71.3052C114.343 71.7242 114.381 72.1141 114.507 72.5277C114.743 73.302 115.219 74.0674 115.805 74.757C115.675 74.7915 115.55 74.8515 115.459 74.9102C115.222 75.0627 115.268 75.4611 115.297 75.7123L115.299 75.7258C115.318 75.8948 115.373 76.0531 115.45 76.2037C115.403 76.2326 115.361 76.266 115.331 76.309ZM113.072 67.2458C113.04 67.2378 113.008 67.2296 112.976 67.2201C112.989 67.1292 112.997 67.0341 113.001 66.9361C113.001 66.9294 113.002 66.9229 113.002 66.9165C113.002 66.9122 113.003 66.9079 113.003 66.9036C113.004 66.8902 113.005 66.8768 113.006 66.8627C113.058 66.8531 113.107 66.841 113.155 66.8274C113.147 66.8725 113.14 66.9046 113.136 66.9255C113.135 66.9317 113.134 66.937 113.133 66.9411C113.132 66.9472 113.131 66.9507 113.131 66.9507L113.072 67.2458ZM114.388 67.3568C114.391 67.3251 114.386 67.295 114.373 67.2672L114.424 67.2528C114.417 67.2714 114.411 67.2902 114.404 67.3091C114.399 67.325 114.393 67.3409 114.388 67.3568ZM119.767 67.6799C118.552 68.992 114.555 70.2215 114.596 67.6189C114.791 67.5996 115.026 67.5231 115.066 67.4114C115.547 66.0859 115.919 64.6205 115.055 63.3744C114.453 62.5059 113.45 61.9853 112.761 61.1884C111.261 59.453 112.014 57.0556 113.21 55.3979C113.911 54.4259 114.803 53.438 115.733 52.6841C115.925 52.5288 116.079 52.4315 116.21 52.371C116.436 52.3726 116.62 52.3785 116.766 52.3865C116.984 52.5469 117.133 52.8674 117.506 52.9493C117.668 52.9848 117.913 52.9491 118.07 52.8412L118.147 52.8793C118.003 52.9998 117.964 53.1548 118.256 53.1816C118.507 53.2047 118.745 53.239 118.966 53.2889L118.967 53.2892C119.854 53.4898 120.443 53.9535 120.318 55.0678C120.203 56.0927 119.758 56.6263 119.113 57.3982L119.093 57.422C118.701 57.8919 118.546 58.2431 118.632 58.6759C118.608 58.989 118.787 59.2369 118.979 59.4643C119.157 59.7426 119.33 59.9465 119.394 60.2565C119.394 60.2583 119.393 60.2622 119.393 60.2622C119.297 60.7455 118.806 61.9502 118.323 63.164C118.059 63.6838 117.823 64.2068 117.721 64.7197C117.709 64.7516 117.697 64.7848 117.685 64.8162C117.573 65.1249 117.606 65.4337 117.729 65.7305C117.834 66.141 118.078 66.5388 118.526 66.916C118.89 67.2231 119.312 67.4752 119.767 67.6799ZM122.508 78.5432C124.119 78.262 125.915 78.1544 127.495 78.6691C127.492 80.2065 127.308 81.7503 126.867 83.158C126.51 84.2994 125.776 85.5038 124.395 85.3612C122.872 85.2036 121.445 84.0875 120.286 83.1814C118.893 82.092 117.478 80.9539 116.202 79.7291C115.821 79.3635 115.496 78.9418 115.171 78.5216C114.942 78.2242 114.713 77.9276 114.466 77.652C114.957 77.3753 115.425 77.0349 115.796 76.6111C116.185 76.8884 116.746 76.9296 117.191 76.7828C117.382 76.7195 117.568 76.6201 117.719 76.4895C117.859 76.5869 117.999 76.6801 118.137 76.7645C118.583 77.0367 119.041 77.2905 119.499 77.5441C120.932 78.3378 122.362 79.1295 123.387 80.4745C123.544 80.6805 124.264 80.4225 124.079 80.1807C123.577 79.5221 122.982 79.0056 122.341 78.5568C122.383 78.5591 122.436 78.5555 122.508 78.5432ZM112.254 141.221C114.386 142.144 117.172 142.467 119.335 141.723C121.042 144.904 115.178 145.037 113.335 145.014C112.105 144.999 110.817 144.922 109.628 144.586C109.15 144.451 108.684 144.295 108.244 144.06C107.444 143.632 108.427 143.077 108.829 142.85C108.841 142.843 108.853 142.836 108.864 142.83C109.616 142.404 110.412 142.05 111.206 141.696C111.557 141.539 111.908 141.383 112.254 141.221ZM137.919 146.318C137.906 146.37 137.887 146.417 137.865 146.461C137.662 146.87 137.102 146.959 136.549 146.944C136.18 146.934 135.815 146.878 135.562 146.84C135.534 146.836 135.507 146.832 135.482 146.828C133.551 146.537 131.365 145.532 130.249 143.845C131.084 143.978 131.958 144.006 132.809 144.034C133.244 144.048 133.672 144.062 134.087 144.09C134.971 144.148 135.819 144.061 136.658 143.899C137.263 144.506 138.149 145.409 137.919 146.318ZM134.223 130.45C134.637 131.74 134.987 133.049 135.336 134.358C136.127 137.318 136.916 140.271 138.445 142.966C136.997 143.381 135.624 143.68 134.091 143.577C133.721 143.553 133.334 143.541 132.937 143.528C131.523 143.484 130 143.436 128.795 142.808C128.171 142.483 127.945 141.52 127.767 140.762C127.725 140.583 127.685 140.415 127.644 140.269C127.362 139.281 127.123 138.28 126.884 137.28C126.742 136.687 126.603 136.093 126.464 135.499C126.105 133.961 125.746 132.423 125.335 130.898C124.578 128.094 123.595 125.34 122.613 122.588C121.971 120.789 121.329 118.991 120.752 117.181C120.48 116.329 120.209 115.477 119.938 114.624C118.566 110.301 117.194 105.978 115.639 101.715C115.526 101.406 114.785 101.619 114.893 101.915C115.001 102.212 115.107 102.51 115.213 102.807C115.225 102.843 115.238 102.879 115.251 102.916C115.274 102.981 115.298 103.047 115.321 103.113C115.238 103.159 115.179 103.219 115.178 103.286C115.135 105.105 115.057 106.93 114.98 108.757C114.697 115.415 114.414 122.105 115.789 128.658C116.643 132.731 118.285 136.58 120.634 140.012C121.164 140.787 119.161 141.337 118.753 141.44C117.762 141.69 116.69 141.652 115.684 141.543C114.672 141.434 113.615 141.194 112.654 140.773C112.604 140.705 112.509 140.656 112.397 140.647C111.917 140.416 111.463 140.142 111.059 139.808C111.02 139.775 110.962 139.76 110.896 139.758C110.863 134.309 109.806 128.98 108.748 123.65C107.941 119.579 107.133 115.508 106.781 111.38C106.465 107.672 106.268 103.948 106.35 100.225C106.417 97.1965 106.511 93.5508 107.956 90.7538C111.825 94.5344 119.031 93.5145 123.584 91.6416C123.593 91.6429 123.602 91.6439 123.612 91.6445C125.639 95.6016 126.652 99.9494 127.383 104.312C127.656 105.94 127.866 107.584 128.075 109.229C128.425 111.974 128.775 114.721 129.42 117.401C130.048 120.007 131.083 122.492 132.119 124.976C132.873 126.786 133.626 128.594 134.223 130.45Z" fill="#340679"/>
<path d="M115.555 55.8624C115.005 56.2556 113.786 56.9608 114.281 57.7881C114.443 58.0585 113.717 58.2958 113.589 58.0819C112.948 57.0105 114.354 56.1624 115.091 55.6356C115.327 55.4667 115.967 55.5684 115.555 55.8624Z" fill="#340679"/>
<path d="M117.591 57.1449C117.787 57.1709 117.974 57.0798 118.076 56.9134C118.093 56.8854 118.11 56.8582 118.127 56.8314C118.217 56.6894 118.299 56.5586 118.319 56.38C118.362 55.9865 117.599 56.0839 117.562 56.4322C117.55 56.5418 117.49 56.6272 117.427 56.7177C117.405 56.7503 117.382 56.7836 117.36 56.819C117.26 56.9837 117.448 57.1261 117.591 57.1449Z" fill="#340679"/>
<path d="M113.358 59.1957C113.363 59.111 112.626 59.1878 112.612 59.3955L112.61 59.415C112.601 59.5469 112.592 59.6715 112.68 59.7807C112.753 59.872 112.959 59.8159 113.063 59.7876L113.08 59.7828C113.105 59.7761 113.484 59.653 113.426 59.5807C113.339 59.472 113.347 59.3477 113.356 59.2162L113.358 59.1957Z" fill="#340679"/>
<path d="M113.333 56.0455C113.489 56.1114 113.723 56.0578 113.86 55.97C114.096 55.8181 114.324 55.6626 114.435 55.3943C114.499 55.2393 114.185 55.2452 114.118 55.2543C113.967 55.2751 113.756 55.3413 113.691 55.4963C113.637 55.6275 113.524 55.6994 113.416 55.7692L113.404 55.7764C113.317 55.8326 113.167 55.9749 113.333 56.0455Z" fill="#340679"/>
<path d="M117.212 76.1334C117.213 76.1314 117.214 76.1309 117.216 76.1285C117.216 76.1285 117.218 76.1257 117.219 76.1241L117.222 76.1208C116.99 75.9372 116.76 75.7392 116.538 75.5286C116.454 75.687 116.262 75.7508 116.091 75.7428L116.097 75.7614C116.107 75.7964 116.117 75.8314 116.131 75.8649C116.133 75.8713 116.135 75.8763 116.137 75.8802L116.139 75.8852C116.14 75.887 116.141 75.8886 116.142 75.8904L116.145 75.896C116.156 75.9169 116.168 75.9375 116.181 75.9573C116.208 76.0001 116.238 76.0418 116.272 76.0796L116.276 76.0842L116.281 76.0896L116.287 76.0958C116.303 76.1097 116.318 76.1234 116.334 76.1363C116.367 76.1615 116.401 76.1852 116.436 76.2063C116.45 76.2127 116.463 76.2192 116.477 76.2248C116.505 76.2369 116.534 76.2483 116.564 76.2578C116.57 76.2599 116.577 76.2618 116.584 76.2637L116.588 76.265C116.616 76.2709 116.644 76.2763 116.673 76.2802C116.699 76.2835 116.724 76.2854 116.749 76.2872C116.765 76.2872 116.782 76.2874 116.792 76.2869C116.823 76.2854 116.854 76.2835 116.884 76.2799L116.888 76.2795L116.89 76.2793L116.894 76.2789C116.941 76.2691 116.987 76.255 117.033 76.2403C117.04 76.2374 117.047 76.234 117.055 76.2303C117.086 76.2165 117.126 76.1987 117.144 76.1885L117.146 76.1868C117.148 76.1856 117.149 76.1845 117.151 76.1833C117.151 76.1833 117.153 76.1812 117.155 76.1798C117.174 76.1649 117.193 76.1494 117.212 76.1334Z" fill="#FEFDFF"/>
<path d="M114.165 77.3387C114.613 77.0683 115.029 76.7385 115.331 76.309C115.361 76.266 115.403 76.2326 115.45 76.2037C115.373 76.0531 115.318 75.8948 115.299 75.7258L115.297 75.7123C115.268 75.4611 115.222 75.0627 115.459 74.9102C115.55 74.8515 115.675 74.7915 115.805 74.757C115.219 74.0674 114.743 73.302 114.507 72.5277C114.381 72.1141 114.343 71.7242 114.303 71.3052L114.296 71.2377C114.293 71.2068 114.29 71.1758 114.287 71.1445C114.286 71.1319 114.284 71.1151 114.282 71.0949C114.251 70.7601 114.132 69.4766 113.824 70.0667C113.673 70.3558 113.557 70.6576 113.44 70.9582C113.285 71.3599 113.131 71.7595 112.897 72.1242L112.893 72.1308C112.854 72.192 112.815 72.253 112.77 72.3119C112.758 72.3285 112.745 72.3444 112.732 72.3603C112.726 72.3674 112.721 72.3745 112.715 72.3817C112.547 72.591 112.355 72.7761 112.163 72.9598C111.734 73.3717 111.312 73.7768 111.198 74.432C110.994 75.6108 111.702 76.2797 112.791 76.5655C112.808 76.57 112.821 76.5755 112.835 76.581L112.838 76.5822C112.925 76.5609 113.005 76.5539 113.058 76.5768C113.488 76.764 113.845 77.0305 114.165 77.3387Z" fill="#FEFDFF"/>
<path fill-rule="evenodd" clip-rule="evenodd" d="M114.596 67.6189C114.555 70.2215 118.552 68.992 119.767 67.6799C119.312 67.4752 118.89 67.2231 118.526 66.916C118.078 66.5388 117.834 66.141 117.729 65.7305C117.606 65.4337 117.573 65.1249 117.685 64.8162C117.697 64.7848 117.709 64.7516 117.721 64.7197C117.823 64.2068 118.059 63.6838 118.323 63.164C118.806 61.9502 119.297 60.7455 119.393 60.2622C119.393 60.2622 119.394 60.2583 119.394 60.2565C119.33 59.9465 119.157 59.7426 118.979 59.4643C118.787 59.2369 118.608 58.989 118.632 58.6759C118.546 58.2431 118.701 57.8919 119.093 57.422L119.113 57.3982C119.758 56.6263 120.203 56.0927 120.318 55.0678C120.443 53.9535 119.854 53.4898 118.967 53.2892L118.966 53.2889C118.745 53.239 118.507 53.2047 118.256 53.1816C117.964 53.1548 118.003 52.9998 118.147 52.8793L118.07 52.8412C117.913 52.9491 117.668 52.9848 117.506 52.9493C117.133 52.8674 116.984 52.5469 116.766 52.3865C116.62 52.3785 116.436 52.3726 116.21 52.371C116.079 52.4315 115.925 52.5288 115.733 52.6841C114.803 53.438 113.911 54.4259 113.21 55.3979C112.014 57.0556 111.261 59.453 112.761 61.1884C113.45 61.9853 114.453 62.5059 115.055 63.3744C115.919 64.6205 115.547 66.0859 115.066 67.4114C115.026 67.5231 114.791 67.5996 114.596 67.6189ZM114.281 57.7881C113.786 56.9608 115.005 56.2556 115.555 55.8624C115.967 55.5684 115.327 55.4667 115.091 55.6356C114.354 56.1624 112.948 57.0105 113.589 58.0819C113.717 58.2958 114.443 58.0585 114.281 57.7881ZM112.612 59.3955C112.626 59.1878 113.363 59.111 113.358 59.1957L113.356 59.2162C113.347 59.3477 113.339 59.472 113.426 59.5807C113.484 59.653 113.105 59.7761 113.08 59.7828L113.063 59.7876C112.959 59.8159 112.753 59.872 112.68 59.7807C112.592 59.6715 112.601 59.5469 112.61 59.415L112.612 59.3955ZM118.076 56.9134C117.974 57.0798 117.787 57.1709 117.591 57.1449C117.448 57.1261 117.26 56.9837 117.36 56.819C117.382 56.7836 117.405 56.7503 117.427 56.7177C117.49 56.6272 117.55 56.5418 117.562 56.4322C117.599 56.0839 118.362 55.9865 118.319 56.38C118.299 56.5586 118.217 56.6894 118.127 56.8314C118.11 56.8582 118.093 56.8854 118.076 56.9134ZM113.86 55.97C113.723 56.0578 113.489 56.1114 113.333 56.0455C113.167 55.9749 113.317 55.8326 113.404 55.7764L113.416 55.7692C113.524 55.6994 113.637 55.6275 113.691 55.4963C113.756 55.3413 113.967 55.2751 114.118 55.2543C114.185 55.2452 114.499 55.2393 114.435 55.3943C114.324 55.6626 114.096 55.8181 113.86 55.97Z" fill="#FEFDFF"/>
<path d="M109.558 71.4144C109.856 70.756 110.196 70.1283 110.666 69.5734C110.825 69.385 110.997 69.2098 111.166 69.037C111.604 68.5891 112.026 68.1572 112.189 67.5535C112.098 67.4683 112.143 67.357 112.246 67.2679C112.254 67.1982 112.259 67.1258 112.261 67.0511C112.262 66.9595 112.35 66.8848 112.463 66.8328C112.012 66.6195 111.929 65.8745 111.861 65.2627C111.834 65.0164 111.809 64.7916 111.763 64.6319C111.711 64.4516 112.456 64.2464 112.509 64.4321C112.577 64.6719 112.606 64.9305 112.635 65.1903C112.678 65.5861 112.722 65.9848 112.908 66.3245C113.027 66.5416 113.142 66.4986 113.238 66.3542C113.305 65.9347 113.386 65.3533 113.419 64.8052C113.372 64.5603 113.299 64.3208 113.191 64.0963C112.97 63.6393 112.698 63.3035 112.24 63.0734C112.007 62.9565 111.645 62.7901 111.269 62.6887C111.008 62.6822 110.728 62.6817 110.428 62.6817C110.322 62.6817 110.226 62.7044 110.136 62.7425C110.081 62.7788 110.03 62.82 109.985 62.8728C109.44 63.5195 109.529 64.461 109.609 65.318C109.634 65.5795 109.658 65.8331 109.663 66.0681C109.664 66.1366 109.595 66.1953 109.499 66.2398C109.349 67.1434 108.411 68.1278 107.713 68.8609C107.56 69.0222 107.418 69.1714 107.298 69.3049C106.119 70.6208 104.883 71.9492 103.499 73.0543C103.371 73.1565 103.233 73.2521 103.094 73.3483C102.71 73.6137 102.32 73.8835 102.12 74.3095C101.778 75.0392 101.766 75.903 102.012 76.6662C102.245 77.3889 102.631 78.1281 103.267 78.5785C104.448 79.4147 105.566 78.8339 106.501 77.9165C106.525 77.8923 106.561 77.8719 106.603 77.8547C107.467 76.4779 108.067 75.0018 108.671 73.5173C108.956 72.815 109.243 72.1109 109.558 71.4144Z" fill="#FEFDFF"/>
<path d="M127.383 104.312C126.652 99.9494 125.639 95.6016 123.612 91.6445C123.602 91.6439 123.593 91.6429 123.584 91.6416C119.031 93.5145 111.825 94.5344 107.956 90.7538C106.511 93.5508 106.417 97.1965 106.35 100.225C106.268 103.948 106.465 107.672 106.781 111.38C107.133 115.508 107.941 119.579 108.748 123.65C109.806 128.98 110.863 134.309 110.896 139.758C110.962 139.76 111.02 139.775 111.059 139.808C111.463 140.142 111.917 140.416 112.397 140.647C112.509 140.656 112.604 140.705 112.654 140.773C113.615 141.194 114.672 141.434 115.684 141.543C116.69 141.652 117.762 141.69 118.753 141.44C119.161 141.337 121.164 140.787 120.634 140.012C118.285 136.58 116.643 132.731 115.789 128.658C114.414 122.105 114.697 115.415 114.98 108.757C115.057 106.93 115.135 105.105 115.178 103.286C115.179 103.219 115.238 103.159 115.321 103.113C115.298 103.047 115.274 102.981 115.251 102.916L115.213 102.807C115.107 102.51 115.001 102.212 114.893 101.915C114.785 101.619 115.526 101.406 115.639 101.715C117.194 105.978 118.566 110.301 119.938 114.624C120.209 115.477 120.48 116.329 120.752 117.181C121.329 118.991 121.971 120.789 122.613 122.588C123.595 125.34 124.578 128.094 125.335 130.898C125.746 132.423 126.105 133.961 126.464 135.499C126.603 136.093 126.742 136.687 126.884 137.28C127.123 138.28 127.362 139.281 127.644 140.269C127.685 140.415 127.725 140.583 127.767 140.762C127.945 141.52 128.171 142.483 128.795 142.808C130 143.436 131.523 143.484 132.937 143.528C133.334 143.541 133.721 143.553 134.091 143.577C135.624 143.68 136.997 143.381 138.445 142.966C136.916 140.271 136.127 137.318 135.336 134.358C134.987 133.049 134.637 131.74 134.223 130.45C133.626 128.594 132.873 126.786 132.119 124.976C131.083 122.492 130.048 120.007 129.42 117.401C128.775 114.721 128.425 111.974 128.075 109.229C127.866 107.584 127.656 105.94 127.383 104.312Z" fill="#FEFDFF"/>
<path d="M137.865 146.461C137.887 146.417 137.906 146.37 137.919 146.318C138.149 145.409 137.263 144.506 136.658 143.899C135.819 144.061 134.971 144.148 134.087 144.09C133.672 144.062 133.244 144.048 132.809 144.034C131.958 144.006 131.084 143.978 130.249 143.845C131.365 145.532 133.551 146.537 135.482 146.828C135.507 146.832 135.534 146.836 135.562 146.84C135.815 146.878 136.18 146.934 136.549 146.944C137.102 146.959 137.662 146.87 137.865 146.461Z" fill="#A358E7"/>
<path fill-rule="evenodd" clip-rule="evenodd" d="M112.976 67.2201C113.008 67.2296 113.04 67.2378 113.072 67.2458L113.131 66.9507L113.133 66.9411L113.136 66.9255C113.14 66.9046 113.147 66.8725 113.155 66.8274C113.107 66.841 113.058 66.8531 113.006 66.8627C113.005 66.8768 113.004 66.8902 113.003 66.9036L113.002 66.9165C113.002 66.9229 113.001 66.9294 113.001 66.9361C112.997 67.0341 112.989 67.1292 112.976 67.2201ZM114.373 67.2672C114.386 67.295 114.391 67.3251 114.388 67.3568C114.393 67.3409 114.399 67.325 114.404 67.3091C114.411 67.2902 114.417 67.2714 114.424 67.2528L114.373 67.2672Z" fill="#FEFDFF"/>
<path d="M119.335 141.723C117.172 142.467 114.386 142.144 112.254 141.221C111.908 141.383 111.557 141.539 111.206 141.696C110.412 142.05 109.616 142.404 108.864 142.83L108.829 142.85C108.427 143.077 107.444 143.632 108.244 144.06C108.684 144.295 109.15 144.451 109.628 144.586C110.817 144.922 112.105 144.999 113.335 145.014C115.178 145.037 121.042 144.904 119.335 141.723Z" fill="#A358E7"/>
<path d="M122.84 85.3725C122.277 85.1851 121.741 84.9225 121.282 84.6333C119.461 83.4862 117.723 82.0109 116.13 80.5646C115.662 80.1398 115.243 79.6163 114.822 79.0891C114.495 78.6807 114.167 78.2701 113.812 77.9015C113.761 77.8997 113.711 77.8915 113.664 77.8694C113.577 77.8282 113.576 77.7602 113.609 77.6981C113.299 77.4005 112.967 77.1397 112.598 76.9422C112.5 76.9762 112.402 76.9924 112.335 76.9746C110.368 76.4584 109.901 74.8128 111.128 73.2255C111.281 73.0285 111.467 72.8612 111.653 72.6941C111.933 72.4429 112.213 72.1921 112.374 71.8415C112.476 71.6216 112.558 71.3913 112.64 71.161C112.742 70.8756 112.844 70.5901 112.983 70.3242C113.267 69.7794 113.613 69.3486 114.269 69.3818C114.322 69.3847 114.371 69.3937 114.417 69.4078C114.594 69.4617 114.718 69.5961 114.807 69.7737C114.996 70.1489 115.026 70.7216 115.049 71.1635C115.059 71.3552 115.068 71.5222 115.088 71.6379C115.252 72.598 115.844 73.6392 116.549 74.5023C116.553 74.5036 116.557 74.5042 116.562 74.5047C116.567 74.5053 116.572 74.5059 116.576 74.5077C116.949 74.6583 117.344 74.8388 117.643 75.1141C117.822 75.2778 118.013 75.4915 118.039 75.7449C118.046 75.8118 118.045 75.8757 118.037 75.937C118.764 76.4833 119.558 76.9225 120.35 77.3608C120.637 77.5195 120.923 77.678 121.206 77.8416C120.888 76.6405 120.934 75.3911 120.979 74.1482C120.992 73.7761 121.006 73.4046 121.009 73.0352C121.012 72.7406 121.764 72.6039 121.761 72.9618C121.757 73.3229 121.744 73.6856 121.731 74.0488C121.68 75.4394 121.63 76.8356 122.114 78.1639C122.141 78.2378 122.113 78.3066 122.056 78.3632L122.072 78.3742L122.086 78.3832C122.099 78.3915 122.112 78.3998 122.125 78.4081C122.163 78.4327 122.201 78.4572 122.238 78.4827C122.254 78.3941 122.446 78.2548 122.634 78.2221C124.19 77.9507 125.918 77.8215 127.49 78.1855C127.468 77.1883 127.373 76.2004 127.224 75.2606C126.904 73.2414 126.293 71.1456 124.961 69.6012C124.099 68.9578 123.041 68.5569 122.145 68.3112C121.624 68.2502 121.099 68.1439 120.595 67.9894C120.376 67.9582 120.247 67.9469 120.247 67.9469C120.247 67.9469 120.242 67.9443 120.234 67.9405C120.195 67.9765 120.152 68.0123 120.109 68.0481C118.828 69.1148 116.184 70.0351 114.776 69.3816C114.627 69.3123 114.491 69.2263 114.373 69.12C114.041 68.8203 113.843 68.3674 113.85 67.7221C113.519 67.8231 113.174 67.8298 112.835 67.768C112.681 68.1565 112.426 68.4902 112.059 68.82C111.164 69.6244 110.576 70.6355 110.119 71.736C109.954 72.1325 109.793 72.5302 109.633 72.9273C109.15 74.1236 108.669 75.3155 108.083 76.4604C108.132 76.5029 108.161 76.5645 108.151 76.6499C107.994 77.9936 108.391 79.2417 108.789 80.4932C109.107 81.4909 109.425 82.4907 109.464 83.5429C109.538 85.5548 109.088 87.4136 108.625 89.3298C108.562 89.5923 108.498 89.8562 108.435 90.1215C108.43 90.1444 108.421 90.166 108.41 90.1869C109.03 90.845 109.754 91.3594 110.553 91.7485C110.957 91.9454 111.38 92.1097 111.817 92.2459C115.441 93.3742 120.05 92.5101 123.23 91.2088C122.522 89.3439 122.679 87.5316 122.851 85.5609L122.858 85.4791C122.86 85.4511 122.87 85.4253 122.881 85.4006C122.882 85.3981 122.883 85.3957 122.884 85.3933L122.887 85.3888C122.879 85.3862 122.871 85.3834 122.864 85.3806C122.856 85.3779 122.848 85.3751 122.84 85.3725Z" fill="#A358E7"/>
<path d="M127.495 78.6691C125.915 78.1544 124.119 78.262 122.508 78.5432C122.436 78.5555 122.383 78.5591 122.341 78.5568C122.982 79.0056 123.577 79.5221 124.079 80.1807C124.264 80.4225 123.544 80.6805 123.387 80.4745C122.362 79.1295 120.932 78.3378 119.499 77.5441C119.041 77.2905 118.583 77.0367 118.137 76.7645C117.999 76.6801 117.859 76.5869 117.719 76.4895C117.568 76.6201 117.382 76.7195 117.191 76.7828C116.746 76.9296 116.185 76.8884 115.796 76.6111C115.425 77.0349 114.957 77.3753 114.466 77.652C114.713 77.9276 114.942 78.2242 115.171 78.5216C115.496 78.9418 115.821 79.3635 116.202 79.7291C117.478 80.9539 118.893 82.092 120.286 83.1814C121.445 84.0875 122.872 85.2036 124.395 85.3612C125.776 85.5038 126.51 84.2994 126.867 83.158C127.308 81.7503 127.492 80.2065 127.495 78.6691Z" fill="#FEFDFF"/>
</g>
<defs>
<clipPath id="clip0_2549_23375">
<rect width="160" height="160" fill="white" transform="translate(0.5)"/>
</clipPath>
</defs>
</svg>
