<svg width="20" height="20" viewBox="0 0 20 20" fill="none" xmlns="http://www.w3.org/2000/svg">
    <rect x="1" y="1" width="18" height="18" rx="6" stroke="#DDDDDD" stroke-width="2" />
    <path d="M4.97595 16.0385C4.8095 16.0383 4.64584 15.9957 4.50051 15.9146C4.35519 15.8334 4.23301 15.7165 4.14558 15.5749C4.05815 15.4332 4.00837 15.2716 4.00097 15.1053C3.99356 14.939 4.02879 14.7736 4.10329 14.6248L9.14236 4.54665C9.1991 4.43093 9.27818 4.32758 9.37505 4.24257C9.47193 4.15756 9.58467 4.09256 9.70678 4.05133C9.82889 4.01009 9.95796 3.99344 10.0865 4.00232C10.2151 4.01121 10.3407 4.04546 10.4559 4.1031C10.5712 4.16074 10.6739 4.24063 10.7582 4.33816C10.8425 4.43569 10.9066 4.54893 10.9469 4.67136C10.9871 4.79379 11.0028 4.92298 10.9929 5.05149C10.983 5.17999 10.9478 5.30527 10.8892 5.42009L5.85017 15.4982C5.76906 15.6606 5.64429 15.7972 5.48987 15.8926C5.33544 15.9881 5.15748 16.0386 4.97595 16.0385Z" fill="#DDDDDD" />
    <path d="M15.054 16.038C14.8725 16.0381 14.6945 15.9876 14.5401 15.8922C14.3857 15.7968 14.2609 15.6602 14.1798 15.4978L9.14074 5.41965C9.0273 5.18829 9.0099 4.92146 9.09234 4.67732C9.17478 4.43318 9.35037 4.23152 9.58085 4.11628C9.81133 4.00104 10.078 3.98157 10.3228 4.0621C10.5676 4.14263 10.7706 4.31665 10.8876 4.54622L15.9267 14.6243C16.0012 14.7732 16.0364 14.9386 16.029 15.1049C16.0216 15.2712 15.9718 15.4328 15.8844 15.5744C15.797 15.7161 15.6748 15.833 15.5295 15.9141C15.3841 15.9953 15.2205 16.0379 15.054 16.038Z" fill="#DDDDDD" />
    <path d="M13.3311 12.5923H6.69824C6.43924 12.5923 6.19085 12.4894 6.00771 12.3063C5.82457 12.1231 5.72168 11.8747 5.72168 11.6157C5.72168 11.3567 5.82457 11.1083 6.00771 10.9252C6.19085 10.742 6.43924 10.6392 6.69824 10.6392H13.3311C13.5901 10.6392 13.8384 10.742 14.0216 10.9252C14.2047 11.1083 14.3076 11.3567 14.3076 11.6157C14.3076 11.8747 14.2047 12.1231 14.0216 12.3063C13.8384 12.4894 13.5901 12.5923 13.3311 12.5923Z" fill="#DDDDDD" />
</svg>
    