<svg width="14" height="14" viewBox="0 0 14 14" fill="none" xmlns="http://www.w3.org/2000/svg">
    <path d="M6.99984 12.2496L6.154 11.4941C3.14984 8.8219 1.1665 7.0579 1.1665 4.89956C1.16643 4.48095 1.2498 4.06651 1.41174 3.68048C1.57368 3.29446 1.81093 2.94458 2.10965 2.6513C2.40836 2.35802 2.76253 2.12722 3.15146 1.97239C3.5404 1.81756 3.95629 1.74181 4.37484 1.74956C4.872 1.7523 5.36296 1.86027 5.81539 2.06638C6.26783 2.27249 6.6715 2.57207 6.99984 2.9454C7.32818 2.57207 7.73184 2.27249 8.18428 2.06638C8.63672 1.86027 9.12767 1.7523 9.62484 1.74956C10.0434 1.74181 10.4593 1.81756 10.8482 1.97239C11.2371 2.12722 11.5913 2.35802 11.89 2.6513C12.1887 2.94458 12.426 3.29446 12.5879 3.68048C12.7499 4.06651 12.8332 4.48095 12.8332 4.89956C12.8332 7.06256 10.8498 8.82481 7.84567 11.5029L6.99984 12.2496Z" fill="white"/>
</svg>
