<svg width="24" height="24" viewBox="0 0 24 24" fill="none" xmlns="http://www.w3.org/2000/svg">
<path d="M11.555 21.8008L10.0245 20.4339C4.5887 15.5987 1 12.4068 1 8.50147C0.99987 7.744 1.15072 6.99411 1.44374 6.29562C1.73675 5.59713 2.16605 4.96405 2.70655 4.43338C3.24705 3.90271 3.8879 3.4851 4.59165 3.20495C5.29539 2.9248 6.04793 2.78773 6.80526 2.80176C7.70484 2.80671 8.59319 3.00208 9.41184 3.37502C10.2305 3.74796 10.9609 4.29002 11.555 4.96554C12.1491 4.29002 12.8795 3.74796 13.6982 3.37502C14.5168 3.00208 15.4052 2.80671 16.3048 2.80176C17.0621 2.78773 17.8146 2.9248 18.5184 3.20495C19.2221 3.4851 19.863 3.90271 20.4035 4.43338C20.944 4.96405 21.3733 5.59713 21.6663 6.29562C21.9593 6.99411 22.1102 7.744 22.11 8.50147C22.11 12.4153 18.5213 15.6039 13.0855 20.4497L11.555 21.8008Z" fill="#B70F90"/>
</svg>
