<svg width="16" height="16" viewBox="0 0 16 16" fill="none" xmlns="http://www.w3.org/2000/svg">
<path fill-rule="evenodd" clip-rule="evenodd" d="M8.51593 1.83378C9.27034 1.10515 10.2808 0.701975 11.3295 0.711089C12.3783 0.720202 13.3816 1.14088 14.1232 1.88251C14.8648 2.62414 15.2855 3.62739 15.2946 4.67618C15.3037 5.72497 14.9006 6.73538 14.1719 7.48979L14.1638 7.49805L12.1639 9.49796C11.7584 9.90362 11.2704 10.2173 10.733 10.4178C10.1956 10.6183 9.62133 10.7008 9.04922 10.6598C8.4771 10.6189 7.92049 10.4553 7.41714 10.1803C6.91378 9.90531 6.47546 9.52527 6.1319 9.06596C5.91136 8.77113 5.97159 8.35334 6.26642 8.1328C6.56126 7.91226 6.97905 7.97249 7.19958 8.26732C7.42863 8.57353 7.72084 8.82689 8.05641 9.01023C8.39198 9.19356 8.76305 9.30259 9.14446 9.3299C9.52587 9.35722 9.9087 9.30219 10.267 9.16854C10.6252 9.0349 10.9506 8.82576 11.2209 8.55532L13.2167 6.55956C13.7 6.05705 13.9674 5.38513 13.9613 4.68777C13.9553 3.98857 13.6748 3.31974 13.1804 2.82532C12.686 2.3309 12.0171 2.05045 11.318 2.04437C10.6203 2.03831 9.94809 2.30591 9.4455 2.78967L8.30244 3.92609C8.04133 4.18568 7.61922 4.18445 7.35963 3.92334C7.10004 3.66223 7.10127 3.24012 7.36238 2.98053L8.50905 1.84053L8.51593 1.83378Z" fill="#9B9B9B"/>
<path fill-rule="evenodd" clip-rule="evenodd" d="M5.26518 5.58217C5.80258 5.3817 6.37682 5.29915 6.94893 5.34012C7.52105 5.3811 8.07766 5.54463 8.58101 5.81964C9.08436 6.09465 9.52269 6.47469 9.86625 6.93399C10.0868 7.22882 10.0266 7.64662 9.73173 7.86715C9.43689 8.08769 9.0191 8.02746 8.79856 7.73263C8.56952 7.42643 8.27731 7.17307 7.94174 6.98973C7.60617 6.80639 7.23509 6.69737 6.85368 6.67005C6.47228 6.64274 6.08945 6.69777 5.73118 6.83141C5.37291 6.96506 5.04757 7.17419 4.77723 7.44463L2.78147 9.44039C2.29811 9.94291 2.03074 10.6148 2.0368 11.3122C2.04288 12.0114 2.32333 12.6802 2.81775 13.1746C3.31217 13.6691 3.98101 13.9495 4.6802 13.9556C5.37756 13.9616 6.04947 13.6943 6.55199 13.2109L7.68767 12.0752C7.94802 11.8149 8.37013 11.8149 8.63048 12.0752C8.89083 12.3356 8.89083 12.7577 8.63048 13.018L7.49048 14.158L7.48222 14.1662C6.72781 14.8948 5.7174 15.298 4.66861 15.2889C3.61982 15.2798 2.61657 14.8591 1.87494 14.1174C1.13331 13.3758 0.712634 12.3726 0.70352 11.3238C0.694407 10.275 1.09758 9.26458 1.82622 8.51017L1.83434 8.50191L3.83425 6.50199C3.83422 6.50202 3.83428 6.50196 3.83425 6.50199C4.23974 6.09638 4.72781 5.78262 5.26518 5.58217Z" fill="#9B9B9B"/>
</svg>
