<svg width="26" height="27" viewBox="0 0 26 27" fill="none" xmlns="http://www.w3.org/2000/svg">
<path d="M16.754 3.83944C7.58 -1.46056 4.57699 0.467435 3.89999 0.855435C3.14599 1.28843 0 3.00044 0 13.5134C0 24.1134 3.25899 25.7884 3.89999 26.1624C4.47799 26.4984 7.58 28.4864 16.755 23.1874C25.955 17.8764 25.955 14.5744 25.955 13.5134C25.955 12.4524 25.949 9.15044 16.754 3.83944ZM11.218 21.4074C9.6539 21.4074 8.12493 20.9436 6.82445 20.0746C5.52396 19.2056 4.51037 17.9705 3.91187 16.5255C3.31336 15.0804 3.15681 13.4903 3.46202 11.9563C3.76723 10.4223 4.5205 9.01319 5.62656 7.90728C6.73261 6.80137 8.14178 6.04828 9.67584 5.74326C11.2099 5.43824 12.8 5.59499 14.2449 6.19368C15.6899 6.79237 16.9249 7.80612 17.7937 9.10671C18.6626 10.4073 19.1262 11.9363 19.126 13.5004C19.1257 15.5976 18.2925 17.6088 16.8094 19.0916C15.3264 20.5744 13.3152 21.4074 11.218 21.4074Z" fill="#B70F90"/>
<path d="M14.927 12.4375L12.344 10.9455L9.76099 9.45453C9.60904 9.3668 9.4367 9.3206 9.26125 9.32056C9.0858 9.32051 8.91342 9.36663 8.76143 9.45427C8.60944 9.54192 8.48318 9.66801 8.39534 9.81989C8.3075 9.97177 8.26117 10.1441 8.26099 10.3195V16.2845C8.26117 16.46 8.3075 16.6323 8.39534 16.7842C8.48318 16.936 8.60944 17.0621 8.76143 17.1498C8.91342 17.2374 9.0858 17.2835 9.26125 17.2835C9.4367 17.2835 9.60904 17.2373 9.76099 17.1495L12.344 15.6605L14.927 14.1695C15.079 14.0818 15.2052 13.9555 15.293 13.8035C15.3807 13.6515 15.4269 13.4791 15.4269 13.3035C15.4269 13.128 15.3807 12.9556 15.293 12.8036C15.2052 12.6515 15.079 12.5253 14.927 12.4375Z" fill="#B70F90"/>
</svg>
