<svg width="72" height="72" viewBox="0 0 72 72" fill="none" xmlns="http://www.w3.org/2000/svg">
<path fill-rule="evenodd" clip-rule="evenodd" d="M62.4156 21.355C63.391 21.877 64 22.8936 64 24V48C64 49.1064 63.391 50.123 62.4156 50.645C61.4401 51.1671 60.2565 51.1099 59.3359 50.4962L41.3359 38.4962C40.5013 37.9398 40 37.0031 40 36C40 34.9969 40.5013 34.0602 41.3359 33.5038L59.3359 21.5038C60.2565 20.8901 61.4401 20.8329 62.4156 21.355ZM48.4083 36L58 42.3944V29.6056L48.4083 36Z" fill="white"/>
<path fill-rule="evenodd" clip-rule="evenodd" d="M11.8 21C10.9975 21 10 21.7611 10 23.1429V48.8571C10 50.2389 10.9975 51 11.8 51H38.2C39.0025 51 40 50.2389 40 48.8571V23.1429C40 21.7611 39.0025 21 38.2 21H11.8ZM4 23.1429C4 18.844 7.30059 15 11.8 15H38.2C42.6994 15 46 18.844 46 23.1429V48.8571C46 53.156 42.6994 57 38.2 57H11.8C7.30059 57 4 53.156 4 48.8571V23.1429Z" fill="white"/>
<path d="M60.6152 42.3943L60.6152 42.3943L60.6109 42.3869C60.3628 41.9646 60.0088 41.6145 59.5838 41.3712C59.1588 41.128 58.6776 41 58.1879 41C57.6982 41 57.217 41.128 56.792 41.3712C56.367 41.6145 56.013 41.9646 55.765 42.3869L55.7649 42.3869L55.7606 42.3943L49.3695 53.4935C49.1275 53.9089 49 54.3811 49 54.8619C49 55.3428 49.1276 55.8151 49.3697 56.2306C49.616 56.6569 49.971 57.0101 50.3985 57.2542C50.8251 57.4978 51.3087 57.624 51.7999 57.6199H64.5762C65.0672 57.6237 65.5505 57.4973 65.9768 57.2536C66.4038 57.0096 66.7583 56.6568 67.0044 56.2311C67.2467 55.8159 67.3747 55.3437 67.3751 54.8629C67.3755 54.3819 67.2483 53.9095 67.0064 53.4937C67.006 53.4929 67.0055 53.492 67.005 53.4912L60.6152 42.3943Z" fill="#E6094B" stroke="white" stroke-width="2"/>
<path fill-rule="evenodd" clip-rule="evenodd" d="M58 46C58.5523 46 59 46.3838 59 46.8571L59 51.1429C59 51.6162 58.5523 52 58 52C57.4477 52 57 51.6162 57 51.1429L57 46.8571C57 46.3838 57.4477 46 58 46Z" fill="white"/>
<path d="M59 53.5C59 54.0523 58.5523 54.5 58 54.5C57.4477 54.5 57 54.0523 57 53.5C57 52.9478 57.4477 52.5 58 52.5C58.5523 52.5 59 52.9478 59 53.5Z" fill="white"/>
</svg>
