<svg width="79" height="116" viewBox="0 0 79 116" fill="none" xmlns="http://www.w3.org/2000/svg">
<g clip-path="url(#clip0_2_2270)">
<path d="M61.9271 79.709H17.073C7.64541 79.709 0 72.0636 0 62.636V17.7819C0 8.35439 7.64541 0.708984 17.073 0.708984H61.9348C71.3546 0.708984 79 8.35439 79 17.7819V62.6437C79 72.0636 71.3546 79.709 61.9271 79.709Z" fill="#AB22AF"/>
<path d="M53.2019 25.0264C49.0745 22.2259 44.785 19.7031 40.2564 17.6124C36.8156 16.0231 33.2822 14.6885 29.5096 14.1253C27.8432 13.8784 26.1768 13.8013 24.5181 14.133C21.2316 14.7888 18.9943 16.8023 17.4668 19.7031C15.8929 22.6965 15.1215 25.929 14.6046 29.2309C14.0337 32.8724 13.8871 36.5523 13.9179 40.2323C13.9179 41.0655 13.9102 41.891 13.9179 42.7242C13.9642 45.841 14.2265 48.9347 14.7511 52.0052C15.268 55.0371 16.0241 57.9842 17.4745 60.7152C18.4157 62.4819 19.6115 64.0249 21.3782 65.0896C23.3301 66.2622 25.4362 66.5631 27.6581 66.4551C30.0265 66.3471 32.3024 65.807 34.5474 65.0896C37.672 64.0866 40.6885 62.7982 43.5507 61.2013C46.49 59.558 49.3985 57.853 52.253 56.0632C54.6369 54.5665 56.8742 52.8461 58.9572 50.9405C60.8011 49.251 62.5138 47.4457 63.7559 45.247C65.4454 42.2613 65.6614 39.1985 64.1879 36.0663C63.293 34.153 61.9737 32.5406 60.5156 31.0362C58.3015 28.7449 55.8173 26.8008 53.2019 25.0264ZM21.9954 23.5142C22.0185 20.706 24.2481 18.9239 26.6089 18.9239C28.9079 18.9162 31.2995 20.7369 31.1915 23.7765C31.0989 26.2299 29.0545 28.1586 26.5317 28.1277C24.0321 28.0891 21.9722 26.1296 21.9954 23.5142ZM36.2601 49.7524C31.0912 49.8064 26.632 45.6481 26.6474 40.1552C26.6629 34.9322 30.7594 30.6196 36.2216 30.6119C41.7068 30.5965 45.7957 35.0479 45.788 40.1706C45.7803 45.4784 41.5371 49.7524 36.2601 49.7524Z" fill="white"/>
<path d="M36.2213 30.6119C30.7515 30.6274 26.6626 34.9323 26.6472 40.1552C26.624 45.6482 31.0909 49.8065 36.2599 49.7525C41.5368 49.7525 45.7877 45.4784 45.7877 40.1706C45.7954 35.048 41.7066 30.5965 36.2213 30.6119Z" fill="#AB22AF"/>
<path d="M31.1919 23.7767C31.2999 20.737 28.9083 18.9163 26.6093 18.924C24.2485 18.9318 22.0189 20.7062 21.9958 23.5144C21.9727 26.1297 24.0248 28.0893 26.5321 28.1278C29.0549 28.1664 31.0993 26.23 31.1919 23.7767Z" fill="#AB22AF"/>
</g>
<path d="M39.7278 99.5957C38.2016 99.5972 36.7384 100.207 35.6592 101.292C34.58 102.376 33.973 103.846 33.9714 105.38C33.9714 105.446 33.9714 105.511 33.9765 105.576C33.9765 105.586 33.9765 105.597 33.9765 105.607V113.481C33.9945 113.86 34.1571 114.218 34.4306 114.48C34.7041 114.742 35.0674 114.888 35.4452 114.888C35.823 114.888 36.1863 114.742 36.4597 114.48C36.7332 114.218 36.8958 113.86 36.9138 113.481V110.424C37.6812 110.855 38.5368 111.105 39.415 111.152C40.2932 111.2 41.1706 111.045 41.9797 110.698C42.7889 110.352 43.5083 109.824 44.0828 109.155C44.6572 108.486 45.0714 107.693 45.2935 106.838C45.5155 105.983 45.5396 105.088 45.3639 104.223C45.1881 103.357 44.8172 102.543 44.2796 101.843C43.742 101.144 43.052 100.578 42.2627 100.188C41.4733 99.7985 40.6056 99.5958 39.7261 99.5957H39.7278ZM39.7261 108.201C39.1706 108.201 38.6275 108.036 38.1656 107.726C37.7037 107.416 37.3436 106.975 37.131 106.459C36.9184 105.943 36.8628 105.376 36.9712 104.828C37.0795 104.281 37.3471 103.778 37.7399 103.383C38.1328 102.988 38.6333 102.72 39.1781 102.611C39.723 102.502 40.2878 102.558 40.8011 102.771C41.3144 102.985 41.753 103.347 42.0617 103.811C42.3703 104.275 42.5351 104.821 42.5351 105.379C42.5342 106.127 42.238 106.845 41.7114 107.374C41.1848 107.903 40.4708 108.201 39.7261 108.201Z" fill="#3F3F3F"/>
<path d="M52.7135 99.5957C51.1873 99.5972 49.7241 100.207 48.6449 101.292C47.5657 102.376 46.9587 103.846 46.9572 105.38C46.9572 105.446 46.9572 105.511 46.9622 105.576C46.9622 105.586 46.9622 105.597 46.9622 105.607V113.481C46.9527 113.681 46.9836 113.881 47.0531 114.068C47.1227 114.255 47.2293 114.427 47.3666 114.571C47.5039 114.716 47.6691 114.831 47.852 114.91C48.0349 114.989 48.2319 115.029 48.4309 115.029C48.6299 115.029 48.8268 114.989 49.0097 114.91C49.1927 114.831 49.3578 114.716 49.4951 114.571C49.6324 114.427 49.7391 114.255 49.8086 114.068C49.8781 113.881 49.9091 113.681 49.8996 113.481V110.424C50.6669 110.855 51.5225 111.105 52.4007 111.152C53.2789 111.2 54.1563 111.045 54.9655 110.698C55.7746 110.352 56.494 109.824 57.0685 109.155C57.6429 108.486 58.0571 107.693 58.2792 106.838C58.5013 105.983 58.5254 105.088 58.3496 104.223C58.1739 103.357 57.8029 102.543 57.2653 101.843C56.7277 101.144 56.0378 100.578 55.2484 100.188C54.4591 99.7985 53.5913 99.5958 52.7119 99.5957H52.7135ZM52.7119 108.201C52.1563 108.201 51.6132 108.036 51.1513 107.726C50.6893 107.416 50.3293 106.975 50.1167 106.459C49.9041 105.943 49.8485 105.376 49.9569 104.828C50.0653 104.281 50.3328 103.778 50.7256 103.383C51.1185 102.988 51.619 102.72 52.1639 102.611C52.7087 102.502 53.2735 102.558 53.7868 102.771C54.3001 102.985 54.7388 103.347 55.0474 103.811C55.3561 104.275 55.5208 104.821 55.5208 105.379C55.5199 106.127 55.2237 106.845 54.6971 107.374C54.1705 107.903 53.4566 108.201 52.7119 108.201Z" fill="#3F3F3F"/>
<path d="M19.5119 105.379C19.5127 104.37 19.2507 103.379 18.752 102.504C18.2533 101.628 17.5353 100.899 16.6694 100.389C15.8034 99.8786 14.8197 99.605 13.8158 99.5951C12.812 99.5853 11.8231 99.8396 10.9474 100.333V97.1864C10.9474 96.7946 10.7925 96.4188 10.5168 96.1417C10.241 95.8646 9.86704 95.709 9.47708 95.709H9.47037C9.08041 95.709 8.70641 95.8646 8.43066 96.1417C8.15492 96.4188 8 96.7946 8 97.1864V109.609C8 110.001 8.15492 110.377 8.43066 110.654C8.70641 110.931 9.08041 111.086 9.47037 111.086H9.47708C9.86704 111.086 10.241 110.931 10.5168 110.654C10.7925 110.377 10.9474 110.001 10.9474 109.609V105.377C10.9608 104.637 11.2629 103.932 11.7887 103.414C12.3145 102.895 13.0219 102.605 13.7585 102.606C14.495 102.607 15.2019 102.898 15.7267 103.417C16.2516 103.937 16.5524 104.642 16.5645 105.382C16.5645 105.389 16.5645 105.396 16.5645 105.403V109.609C16.5645 110.001 16.7194 110.377 16.9952 110.654C17.2709 110.931 17.6449 111.086 18.0349 111.086H18.0416C18.4315 111.086 18.8055 110.931 19.0813 110.654C19.357 110.377 19.5119 110.001 19.5119 109.609V105.402C19.5119 105.395 19.5119 105.388 19.5119 105.382V105.379Z" fill="#3F3F3F"/>
<path d="M32.4961 105.581V101.069C32.4961 100.677 32.3412 100.301 32.0655 100.024C31.7897 99.7472 31.4157 99.5916 31.0258 99.5916H31.0182C30.6284 99.592 30.2547 99.7478 29.979 100.025C29.7034 100.302 29.5483 100.677 29.5479 101.069V105.589C29.5351 106.329 29.2336 107.034 28.7083 107.553C28.183 108.072 27.4759 108.363 26.7393 108.363C26.0028 108.363 25.2956 108.072 24.7703 107.553C24.245 107.034 23.9435 106.329 23.9308 105.589V101.069C23.9301 100.677 23.775 100.302 23.4994 100.025C23.2238 99.7481 22.8502 99.5923 22.4604 99.5916H22.4512C22.0612 99.5916 21.6872 99.7472 21.4115 100.024C21.1358 100.301 20.9808 100.677 20.9808 101.069V105.586C20.9829 106.862 21.4041 108.101 22.1791 109.112C22.9541 110.123 24.0395 110.848 25.2669 111.176V113.486C25.2849 113.866 25.4475 114.223 25.721 114.485C25.9944 114.747 26.3577 114.893 26.7355 114.893C27.1133 114.893 27.4767 114.747 27.7501 114.485C28.0236 114.223 28.1862 113.866 28.2042 113.486V111.176C29.4314 110.848 30.5167 110.123 31.2915 109.112C32.0663 108.101 32.4874 106.862 32.4894 105.586" fill="#3F3F3F"/>
<path d="M66.1168 106.515L66.941 106.115L68.1159 105.545L68.5079 105.355L70.3248 104.473C70.606 104.336 70.8227 104.093 70.9288 103.797C71.0349 103.502 71.0221 103.176 70.893 102.89C70.893 102.882 70.8871 102.875 70.8838 102.867C70.8804 102.859 70.8745 102.849 70.8703 102.84C70.8393 102.776 70.8057 102.713 70.773 102.65C70.7587 102.624 70.7453 102.597 70.731 102.571C70.7 102.514 70.6664 102.457 70.632 102.402C70.6135 102.371 70.5951 102.339 70.5758 102.308C70.5472 102.262 70.5179 102.218 70.4918 102.174C70.4658 102.13 70.4381 102.089 70.4079 102.052C70.3777 102.015 70.3635 101.992 70.3416 101.962C70.303 101.91 70.2653 101.858 70.2258 101.808C70.2141 101.793 70.2023 101.779 70.1905 101.764C69.722 101.177 69.1435 100.688 68.4877 100.325L68.4735 100.318C68.3979 100.276 68.3224 100.233 68.2452 100.198C68.2057 100.179 68.1613 100.161 68.1252 100.141C68.0891 100.122 68.0413 100.101 67.9968 100.082C67.9212 100.049 67.8449 100.018 67.7677 99.9879L67.7433 99.9778C67.0424 99.7095 66.2959 99.582 65.5462 99.6025H65.4967C65.4304 99.6025 65.3649 99.6093 65.2978 99.6144L65.1929 99.6219C65.1425 99.6262 65.093 99.6321 65.0426 99.638C64.9923 99.6439 64.9402 99.6498 64.889 99.6565L64.7774 99.6742C64.7145 99.6844 64.6507 99.6953 64.5878 99.708L64.4996 99.7265C64.4308 99.7408 64.3612 99.7569 64.2932 99.7746L64.2093 99.7982C64.1438 99.8159 64.0783 99.8344 64.0129 99.8547L63.9734 99.8665L63.8836 99.8969L63.7561 99.9407C63.694 99.9626 63.6335 99.9871 63.5731 100.012L63.4959 100.042C63.4109 100.077 63.3269 100.115 63.2441 100.155L63.234 100.16C63.1428 100.203 63.0533 100.249 62.9655 100.297H62.9613C61.9611 100.843 61.1459 101.676 60.6206 102.691L60.6114 102.708C60.5829 102.762 60.5569 102.818 60.5275 102.877C60.5132 102.907 60.4981 102.938 60.4839 102.969C60.4696 103 60.457 103.031 60.4427 103.062C60.4184 103.118 60.3932 103.174 60.3714 103.23L60.3647 103.248C59.9393 104.309 59.8393 105.473 60.0777 106.592V106.597C60.0984 106.695 60.1218 106.793 60.1481 106.89V106.9C60.1722 106.99 60.1985 107.079 60.227 107.167C60.2354 107.193 60.2447 107.219 60.2539 107.245C60.2749 107.308 60.2967 107.369 60.3202 107.431C60.3361 107.473 60.3529 107.515 60.3697 107.556C60.3815 107.586 60.3924 107.615 60.4049 107.641C60.41 107.653 60.4167 107.666 60.4217 107.679C60.4494 107.742 60.478 107.804 60.5057 107.866L60.5443 107.95C60.5762 108.014 60.6089 108.077 60.6425 108.139C60.6567 108.165 60.671 108.192 60.6853 108.218C60.7163 108.275 60.7499 108.331 60.7835 108.387C60.8028 108.419 60.8221 108.452 60.8422 108.484C60.8624 108.516 60.8993 108.568 60.9261 108.615C60.953 108.661 60.9824 108.699 61.0101 108.74C61.0377 108.78 61.052 108.797 61.073 108.824C61.1124 108.877 61.1519 108.93 61.193 108.982L61.2249 109.021C61.6967 109.607 62.2784 110.094 62.9369 110.455L62.9613 110.468C63.0335 110.507 63.1065 110.545 63.1803 110.581C63.2231 110.602 63.2643 110.621 63.3096 110.64C63.3549 110.66 63.3885 110.677 63.4288 110.695C63.5077 110.73 63.5882 110.762 63.6696 110.792L63.683 110.797C64.3841 111.062 65.13 111.185 65.8785 111.162H65.9347C65.9985 111.162 66.0632 111.154 66.1269 111.15L66.2386 111.141C66.2872 111.136 66.3351 111.13 66.3837 111.124C66.4324 111.119 66.4895 111.112 66.5424 111.104L66.6506 111.086C66.7152 111.076 66.779 111.065 66.8428 111.051L66.936 111.031C67.0048 111.016 67.0736 111 67.1424 110.982L67.1718 110.975L67.2557 110.951C67.3019 110.937 67.348 110.925 67.3942 110.911C67.4714 110.887 67.5483 110.862 67.625 110.834L67.6661 110.82C67.75 110.79 67.8298 110.758 67.9095 110.725L67.9615 110.702C68.0337 110.671 68.1059 110.639 68.1772 110.604L68.2041 110.592L68.2351 110.576C68.288 110.55 68.34 110.523 68.3912 110.496L68.4575 110.461C68.5037 110.435 68.5498 110.408 68.596 110.382L68.6799 110.333L68.789 110.265L68.8964 110.194L68.9695 110.144C69.0156 110.112 69.0618 110.08 69.1062 110.047L69.1415 110.02C69.572 109.696 69.9554 109.314 70.2803 108.884C70.499 108.57 70.5879 108.183 70.5284 107.804C70.4689 107.425 70.2656 107.085 69.9612 106.854C69.6569 106.623 69.2752 106.519 68.8965 106.565C68.5178 106.611 68.1715 106.802 67.9305 107.099C67.9263 107.105 67.9204 107.111 67.9162 107.117C67.8776 107.167 67.8373 107.216 67.7953 107.263L67.7693 107.292C67.7274 107.337 67.6854 107.382 67.6401 107.424L67.6023 107.459C67.5604 107.498 67.5184 107.535 67.4739 107.572C67.4546 107.588 67.4345 107.603 67.4152 107.618C67.3766 107.648 67.3371 107.678 67.2968 107.702C67.2565 107.727 67.2389 107.741 67.2129 107.76C67.1869 107.778 67.1449 107.804 67.1097 107.824C67.0744 107.844 67.035 107.865 66.9964 107.885C66.9578 107.904 66.9326 107.918 66.8999 107.933L66.8159 107.971C66.7748 107.989 66.732 108.006 66.6926 108.022L66.6086 108.051C66.5608 108.067 66.513 108.082 66.4643 108.095L66.3913 108.116C66.3519 108.126 66.3116 108.134 66.2721 108.143L66.1882 108.159L66.0799 108.175C66.0472 108.181 66.0136 108.185 65.9809 108.188L65.897 108.195C65.8575 108.195 65.8172 108.2 65.7778 108.201H65.7132C65.6662 108.201 65.62 108.201 65.5739 108.201H65.5294C65.4774 108.201 65.4253 108.193 65.3741 108.186L65.3431 108.182C65.2885 108.175 65.234 108.166 65.1794 108.156L65.1509 108.15C65.0972 108.139 65.0435 108.127 64.9906 108.113L64.9537 108.102C64.9042 108.089 64.8555 108.073 64.8076 108.057L64.7531 108.037C64.712 108.022 64.6692 108.007 64.6305 107.99C64.6045 107.979 64.5794 107.967 64.5534 107.955C64.5273 107.944 64.4896 107.927 64.4585 107.911C64.4275 107.896 64.3922 107.877 64.3595 107.858L64.2923 107.821C64.2529 107.798 64.2151 107.774 64.1774 107.749L64.1312 107.718C64.0892 107.69 64.0473 107.66 64.0087 107.629L63.9751 107.604L63.9449 107.578L64.7699 107.178L66.1168 106.515ZM63.5043 103.624C63.5387 103.581 63.5748 103.54 63.6109 103.498L63.6318 103.473L63.6856 103.417L63.741 103.361L63.7728 103.33C63.8064 103.298 63.8417 103.267 63.8769 103.236L63.9264 103.194C63.9575 103.169 63.9894 103.145 64.0213 103.121L64.0918 103.068L64.1757 103.014C64.2059 102.994 64.237 102.974 64.268 102.955L64.3427 102.913C64.3779 102.894 64.414 102.875 64.451 102.856L64.5273 102.82C64.5631 102.803 64.5989 102.787 64.6347 102.772L64.7271 102.737L64.8211 102.704C64.858 102.692 64.8958 102.681 64.9335 102.67L65.0174 102.647C65.0569 102.637 65.0972 102.628 65.1366 102.62L65.2205 102.603L65.3288 102.587L65.4278 102.575L65.5118 102.568C65.5512 102.568 65.5915 102.563 65.6309 102.562H65.6956C65.7417 102.562 65.7887 102.562 65.8357 102.562H65.8794C65.9314 102.562 65.9834 102.57 66.0355 102.577L66.0665 102.581L66.1504 102.593L66.2344 102.607L66.262 102.613C66.318 102.624 66.3714 102.637 66.4223 102.65L66.4584 102.661C66.5079 102.675 66.5566 102.69 66.6053 102.707L66.659 102.726C66.701 102.741 66.7429 102.756 66.7832 102.774L66.8596 102.808C66.8915 102.822 66.9234 102.837 66.9544 102.853C66.9855 102.869 67.0207 102.887 67.0526 102.905L67.1206 102.943C67.1592 102.966 67.1978 102.99 67.2356 103.015L67.2817 103.045L62.9042 105.169C62.9121 105.067 62.9253 104.966 62.9437 104.866C62.9437 104.852 62.9479 104.839 62.9504 104.826C62.9529 104.812 62.9563 104.799 62.9596 104.785C62.9697 104.735 62.9814 104.686 62.9949 104.637C62.9999 104.619 63.0049 104.602 63.01 104.585C63.0226 104.541 63.036 104.5 63.0511 104.454C63.0595 104.43 63.0687 104.406 63.078 104.381C63.0872 104.357 63.1048 104.311 63.1191 104.277C63.1333 104.242 63.1476 104.213 63.1627 104.182C63.1778 104.15 63.1862 104.13 63.1988 104.105C63.2189 104.065 63.2399 104.027 63.2609 103.989L63.2894 103.938C63.3155 103.894 63.3432 103.854 63.3734 103.809L63.3952 103.776C63.4262 103.73 63.459 103.687 63.4925 103.643L63.5102 103.619" fill="#3F3F3F"/>
<defs>
<clipPath id="clip0_2_2270">
<rect width="79" height="79" fill="white" transform="translate(0 0.708984)"/>
</clipPath>
</defs>
</svg>
