<svg width="80" height="115" viewBox="0 0 80 115" fill="none" xmlns="http://www.w3.org/2000/svg">
    <g clip-path="url(#clip0_1_1768)">
        <path d="M62.4271 79H17.573C8.14541 79 0.5 71.3546 0.5 61.9271V17.073C0.5 7.64541 8.14541 0 17.573 0H62.4348C71.8546 0 79.5 7.64541 79.5 17.073V61.9348C79.5 71.3546 71.8546 79 62.4271 79Z" fill="#AB22AF" />
        <path d="M53.7019 24.3171C49.5745 21.5166 45.285 18.9939 40.7564 16.9032C37.3156 15.3139 33.7822 13.9792 30.0096 13.416C28.3432 13.1692 26.6768 13.092 25.0181 13.4238C21.7316 14.0795 19.4943 16.0931 17.9668 18.9939C16.3929 21.9872 15.6215 25.2198 15.1046 28.5217C14.5337 32.1631 14.3871 35.8431 14.4179 39.5231C14.4179 40.3563 14.4102 41.1818 14.4179 42.015C14.4642 45.1318 14.7265 48.2254 15.2511 51.2959C15.768 54.3279 16.5241 57.2749 17.9745 60.006C18.9157 61.7727 20.1115 63.3157 21.8782 64.3803C23.8301 65.553 25.9362 65.8539 28.1581 65.7459C30.5265 65.6378 32.8024 65.0978 35.0474 64.3803C38.172 63.3774 41.1885 62.089 44.0507 60.492C46.99 58.8488 49.8985 57.1438 52.753 55.354C55.1369 53.8573 57.3742 52.1369 59.4572 50.2313C61.3011 48.5417 63.0138 46.7365 64.2559 44.5377C65.9454 41.5521 66.1614 38.4893 64.6879 35.3571C63.793 33.4438 62.4737 31.8314 61.0156 30.327C58.8015 28.0357 56.3173 26.0915 53.7019 24.3171ZM22.4954 22.805C22.5185 19.9968 24.7481 18.2147 27.1089 18.2147C29.4079 18.207 31.7995 20.0277 31.6915 23.0673C31.5989 25.5206 29.5545 27.4494 27.0317 27.4185C24.5321 27.3799 22.4722 25.4203 22.4954 22.805ZM36.7601 49.0432C31.5912 49.0972 27.132 44.9389 27.1474 39.4459C27.1629 34.223 31.2594 29.9104 36.7216 29.9027C42.2068 29.8872 46.2957 34.3387 46.288 39.4614C46.2803 44.7692 42.0371 49.0432 36.7601 49.0432Z" fill="white" />
        <path d="M36.7217 29.9029C31.2518 29.9183 27.163 34.2232 27.1476 39.4461C27.1244 44.9391 31.5913 49.0974 36.7602 49.0434C42.0372 49.0434 46.2881 44.7694 46.2881 39.4616C46.2958 34.3389 42.2069 29.8874 36.7217 29.9029Z" fill="#AB22AF" />
        <path d="M31.6914 23.0675C31.7994 20.0279 29.4078 18.2072 27.1088 18.2149C24.748 18.2226 22.5185 19.997 22.4953 22.8052C22.4722 25.4205 24.5243 27.3801 27.0316 27.4187C29.5544 27.4573 31.5988 25.5208 31.6914 23.0675Z" fill="#AB22AF" />
    </g>
    <path d="M40.2281 98.8867C38.7019 98.8883 37.2386 99.4982 36.1594 100.583C35.0802 101.667 34.4732 103.137 34.4717 104.671C34.4717 104.737 34.4717 104.802 34.4767 104.867C34.4767 104.877 34.4767 104.888 34.4767 104.899V112.772C34.4948 113.152 34.6574 113.509 34.9308 113.771C35.2043 114.033 35.5676 114.179 35.9454 114.179C36.3232 114.179 36.6865 114.033 36.96 113.771C37.2334 113.509 37.396 113.152 37.4141 112.772V109.715C38.1814 110.146 39.0371 110.396 39.9152 110.443C40.7934 110.491 41.6708 110.336 42.48 109.989C43.2891 109.643 44.0086 109.115 44.583 108.446C45.1575 107.777 45.5716 106.984 45.7937 106.129C46.0158 105.274 46.0399 104.379 45.8641 103.514C45.6884 102.648 45.3175 101.834 44.7799 101.134C44.2423 100.435 43.5523 99.8688 42.7629 99.4792C41.9736 99.0895 41.1058 98.8869 40.2264 98.8867H40.2281ZM40.2264 107.493C39.6708 107.493 39.1278 107.327 38.6658 107.017C38.2039 106.707 37.8438 106.266 37.6312 105.75C37.4186 105.234 37.363 104.667 37.4714 104.119C37.5798 103.572 37.8473 103.069 38.2402 102.674C38.633 102.279 39.1335 102.011 39.6784 101.902C40.2233 101.793 40.7881 101.849 41.3013 102.062C41.8146 102.276 42.2533 102.638 42.5619 103.102C42.8706 103.566 43.0353 104.112 43.0353 104.67C43.0345 105.418 42.7382 106.136 42.2116 106.665C41.6851 107.194 40.9711 107.492 40.2264 107.493Z" fill="white" />
    <path d="M53.2134 98.8867C51.6872 98.8883 50.224 99.4982 49.1448 100.583C48.0656 101.667 47.4586 103.137 47.457 104.671C47.457 104.737 47.457 104.802 47.4621 104.867C47.4621 104.877 47.4621 104.888 47.4621 104.899V112.772C47.4526 112.972 47.4835 113.172 47.553 113.359C47.6225 113.546 47.7292 113.718 47.8665 113.862C48.0038 114.007 48.1689 114.122 48.3519 114.201C48.5348 114.28 48.7318 114.32 48.9308 114.32C49.1298 114.32 49.3267 114.28 49.5096 114.201C49.6925 114.122 49.8577 114.007 49.995 113.862C50.1323 113.718 50.2389 113.546 50.3085 113.359C50.378 113.172 50.4089 112.972 50.3994 112.772V109.715C51.1668 110.146 52.0224 110.396 52.9006 110.443C53.7788 110.491 54.6562 110.336 55.4653 109.989C56.2745 109.643 56.9939 109.115 57.5684 108.446C58.1428 107.777 58.557 106.984 58.7791 106.129C59.0011 105.274 59.0252 104.379 58.8495 103.514C58.6737 102.648 58.3028 101.834 57.7652 101.134C57.2276 100.435 56.5376 99.8688 55.7483 99.4792C54.9589 99.0895 54.0912 98.8869 53.2117 98.8867H53.2134ZM53.2117 107.493C52.6562 107.493 52.1131 107.327 51.6512 107.017C51.1892 106.707 50.8292 106.266 50.6166 105.75C50.404 105.234 50.3484 104.667 50.4568 104.119C50.5651 103.572 50.8327 103.069 51.2255 102.674C51.6184 102.279 52.1189 102.011 52.6637 101.902C53.2086 101.793 53.7734 101.849 54.2867 102.062C54.7999 102.276 55.2386 102.638 55.5473 103.102C55.8559 103.566 56.0207 104.112 56.0207 104.67C56.0198 105.418 55.7236 106.136 55.197 106.665C54.6704 107.194 53.9564 107.492 53.2117 107.493Z" fill="white" />
    <path d="M20.0119 104.67C20.0127 103.661 19.7507 102.67 19.252 101.795C18.7533 100.919 18.0353 100.19 17.1694 99.6798C16.3034 99.1696 15.3197 98.896 14.3158 98.8861C13.312 98.8763 12.3231 99.1306 11.4474 99.6238V96.4774C11.4474 96.0856 11.2925 95.7098 11.0168 95.4327C10.741 95.1557 10.367 95 9.97708 95H9.97037C9.58041 95 9.20641 95.1557 8.93066 95.4327C8.65492 95.7098 8.5 96.0856 8.5 96.4774V108.9C8.5 109.292 8.65492 109.668 8.93066 109.945C9.20641 110.222 9.58041 110.377 9.97037 110.377H9.97708C10.367 110.377 10.741 110.222 11.0168 109.945C11.2925 109.668 11.4474 109.292 11.4474 108.9V104.668C11.4608 103.928 11.7629 103.223 12.2887 102.705C12.8145 102.187 13.5219 101.896 14.2585 101.897C14.995 101.898 15.7019 102.189 16.2267 102.708C16.7516 103.228 17.0524 103.933 17.0645 104.673C17.0645 104.68 17.0645 104.687 17.0645 104.694V108.9C17.0645 109.292 17.2194 109.668 17.4952 109.945C17.7709 110.222 18.1449 110.377 18.5349 110.377H18.5416C18.9315 110.377 19.3055 110.222 19.5813 109.945C19.857 109.668 20.0119 109.292 20.0119 108.9V104.693C20.0119 104.686 20.0119 104.679 20.0119 104.673V104.67Z" fill="white" />
    <path d="M32.9958 104.873V100.36C32.9958 99.9684 32.8408 99.5926 32.5651 99.3155C32.2893 99.0385 31.9153 98.8828 31.5254 98.8828H31.5179C31.128 98.8833 30.7543 99.0391 30.4786 99.316C30.203 99.593 30.0479 99.9686 30.0475 100.36V104.88C30.0348 105.62 29.7333 106.326 29.2079 106.844C28.6826 107.363 27.9755 107.654 27.239 107.654C26.5024 107.654 25.7953 107.363 25.27 106.844C24.7446 106.326 24.4432 105.62 24.4304 104.88V100.36C24.4298 99.9686 24.2746 99.5932 23.999 99.3163C23.7234 99.0394 23.3498 98.8835 22.9601 98.8828H22.9508C22.5609 98.8828 22.1869 99.0385 21.9111 99.3155C21.6354 99.5926 21.4805 99.9684 21.4805 100.36V104.877C21.4825 106.153 21.9037 107.393 22.6787 108.403C23.4537 109.414 24.5391 110.14 25.7665 110.467V112.778C25.7845 113.157 25.9472 113.515 26.2206 113.777C26.4941 114.038 26.8574 114.185 27.2352 114.185C27.613 114.185 27.9763 114.038 28.2497 113.777C28.5232 113.515 28.6858 113.157 28.7038 112.778V110.467C29.931 110.139 31.0163 109.414 31.7911 108.403C32.566 107.392 32.9871 106.153 32.989 104.877" fill="white" />
    <path d="M66.6168 105.806L67.441 105.406L68.6159 104.836L69.0079 104.646L70.8248 103.765C71.106 103.627 71.3227 103.384 71.4288 103.089C71.5349 102.793 71.5221 102.467 71.393 102.181C71.393 102.173 71.3871 102.166 71.3838 102.158C71.3804 102.151 71.3745 102.14 71.3703 102.131C71.3393 102.067 71.3057 102.004 71.273 101.941C71.2587 101.915 71.2453 101.888 71.231 101.862C71.2 101.805 71.1664 101.748 71.132 101.693C71.1135 101.662 71.0951 101.63 71.0758 101.599C71.0472 101.553 71.0179 101.509 70.9918 101.465C70.9658 101.421 70.9381 101.381 70.9079 101.344C70.8777 101.306 70.8635 101.283 70.8416 101.253C70.803 101.201 70.7653 101.15 70.7258 101.099C70.7141 101.084 70.7023 101.07 70.6905 101.055C70.222 100.468 69.6435 99.9795 68.9877 99.6164L68.9735 99.6089C68.8979 99.5675 68.8224 99.5245 68.7452 99.4891C68.7057 99.4697 68.6613 99.452 68.6252 99.4326C68.5891 99.4132 68.5413 99.3921 68.4968 99.3736C68.4212 99.3407 68.3449 99.3095 68.2677 99.2791L68.2433 99.269C67.5424 99.0007 66.7959 98.8732 66.0462 98.8937H65.9967C65.9304 98.8937 65.8649 98.9005 65.7978 98.9056L65.6929 98.9131C65.6425 98.9174 65.593 98.9233 65.5426 98.9292C65.4923 98.9351 65.4402 98.941 65.389 98.9477L65.2774 98.9654C65.2145 98.9755 65.1507 98.9865 65.0878 98.9992L64.9996 99.0177C64.9308 99.032 64.8612 99.0481 64.7932 99.0658L64.7093 99.0894C64.6438 99.1071 64.5783 99.1256 64.5129 99.1459L64.4734 99.1577L64.3836 99.1881L64.2561 99.2319C64.194 99.2538 64.1335 99.2783 64.0731 99.3027L63.9959 99.3331C63.9109 99.3685 63.8269 99.4062 63.7441 99.4461L63.734 99.4512C63.6428 99.4944 63.5533 99.5403 63.4655 99.5886H63.4613C62.4611 100.134 61.6459 100.967 61.1206 101.982L61.1114 102C61.0829 102.054 61.0569 102.109 61.0275 102.168C61.0132 102.199 60.9981 102.229 60.9839 102.26C60.9696 102.291 60.957 102.323 60.9427 102.353C60.9184 102.409 60.8932 102.465 60.8714 102.522L60.8647 102.539C60.4393 103.6 60.3393 104.765 60.5777 105.883V105.888C60.5984 105.986 60.6218 106.084 60.6481 106.181V106.192C60.6722 106.281 60.6985 106.37 60.727 106.458C60.7354 106.484 60.7447 106.51 60.7539 106.536C60.7749 106.599 60.7967 106.66 60.8202 106.722C60.8361 106.764 60.8529 106.806 60.8697 106.848C60.8815 106.877 60.8924 106.907 60.9049 106.932C60.91 106.945 60.9167 106.957 60.9217 106.97C60.9494 107.033 60.978 107.096 61.0057 107.157L61.0443 107.241C61.0762 107.306 61.1089 107.368 61.1425 107.43C61.1567 107.457 61.171 107.484 61.1853 107.51C61.2163 107.566 61.2499 107.622 61.2835 107.678C61.3028 107.71 61.3221 107.743 61.3422 107.775C61.3624 107.807 61.3993 107.86 61.4261 107.906C61.453 107.952 61.4824 107.99 61.5101 108.031C61.5377 108.071 61.552 108.088 61.573 108.115C61.6124 108.168 61.6519 108.221 61.693 108.274L61.7249 108.312C62.1967 108.898 62.7784 109.385 63.4369 109.746L63.4613 109.759C63.5335 109.798 63.6065 109.836 63.6803 109.872C63.7231 109.893 63.7643 109.912 63.8096 109.932C63.8549 109.951 63.8885 109.969 63.9288 109.986C64.0077 110.021 64.0882 110.053 64.1696 110.083L64.183 110.088C64.8841 110.353 65.63 110.477 66.3785 110.453H66.4347C66.4985 110.453 66.5632 110.445 66.6269 110.441L66.7386 110.432C66.7872 110.427 66.8351 110.422 66.8837 110.416C66.9324 110.41 66.9895 110.403 67.0424 110.395L67.1506 110.378C67.2152 110.367 67.279 110.356 67.3428 110.342L67.436 110.322C67.5048 110.307 67.5736 110.291 67.6424 110.273L67.6718 110.266L67.7557 110.242C67.8019 110.228 67.848 110.217 67.8942 110.202C67.9714 110.179 68.0483 110.153 68.125 110.126L68.1661 110.111C68.25 110.081 68.3298 110.049 68.4095 110.016L68.4615 109.993C68.5337 109.962 68.6059 109.93 68.6772 109.895L68.7041 109.884L68.7351 109.867C68.788 109.841 68.84 109.814 68.8912 109.787L68.9575 109.752C69.0037 109.727 69.0498 109.7 69.096 109.674L69.1799 109.625L69.289 109.556L69.3964 109.485L69.4695 109.435C69.5156 109.403 69.5618 109.371 69.6062 109.338L69.6415 109.311C70.072 108.988 70.4554 108.605 70.7803 108.175C70.999 107.861 71.0879 107.474 71.0284 107.095C70.9689 106.717 70.7656 106.376 70.4612 106.145C70.1569 105.914 69.7752 105.81 69.3965 105.856C69.0178 105.902 68.6715 106.094 68.4305 106.391C68.4263 106.397 68.4204 106.402 68.4162 106.408C68.3776 106.458 68.3373 106.507 68.2953 106.554L68.2693 106.583C68.2274 106.628 68.1854 106.673 68.1401 106.715L68.1023 106.751C68.0604 106.789 68.0184 106.827 67.9739 106.863C67.9546 106.879 67.9345 106.894 67.9152 106.909C67.8766 106.94 67.8371 106.969 67.7968 106.994C67.7565 107.018 67.7389 107.032 67.7129 107.051C67.6869 107.069 67.6449 107.095 67.6097 107.115C67.5744 107.135 67.535 107.156 67.4964 107.176C67.4578 107.195 67.4326 107.209 67.3999 107.225L67.3159 107.263C67.2748 107.28 67.232 107.297 67.1926 107.313L67.1086 107.342C67.0608 107.358 67.013 107.373 66.9643 107.387L66.8913 107.407C66.8519 107.417 66.8116 107.425 66.7721 107.434L66.6882 107.451L66.5799 107.467C66.5472 107.472 66.5136 107.476 66.4809 107.479L66.397 107.486C66.3575 107.486 66.3172 107.491 66.2778 107.492H66.2132C66.1662 107.492 66.12 107.492 66.0739 107.492H66.0294C65.9774 107.492 65.9253 107.484 65.8741 107.478L65.8431 107.473C65.7885 107.466 65.734 107.457 65.6794 107.447L65.6509 107.441C65.5972 107.43 65.5435 107.418 65.4906 107.404L65.4537 107.393C65.4042 107.38 65.3555 107.365 65.3076 107.349L65.2531 107.328C65.212 107.313 65.1692 107.298 65.1305 107.281C65.1045 107.27 65.0794 107.258 65.0534 107.247C65.0273 107.235 64.9896 107.218 64.9585 107.203C64.9275 107.188 64.8922 107.168 64.8595 107.15L64.7923 107.112C64.7529 107.09 64.7151 107.065 64.6774 107.04L64.6312 107.01C64.5892 106.981 64.5473 106.951 64.5087 106.92L64.4751 106.895L64.4449 106.869L65.2699 106.469L66.6168 105.806ZM64.0043 102.915C64.0387 102.872 64.0748 102.831 64.1109 102.789L64.1318 102.764L64.1856 102.708L64.241 102.652L64.2728 102.621C64.3064 102.589 64.3417 102.558 64.3769 102.527L64.4264 102.485C64.4575 102.46 64.4894 102.436 64.5213 102.412L64.5918 102.36L64.6757 102.305C64.7059 102.285 64.737 102.265 64.768 102.247L64.8427 102.205C64.8779 102.185 64.914 102.166 64.951 102.147L65.0273 102.111C65.0631 102.094 65.0989 102.078 65.1347 102.064L65.2271 102.028L65.3211 101.995C65.358 101.983 65.3958 101.972 65.4335 101.961L65.5174 101.938C65.5569 101.928 65.5972 101.919 65.6366 101.911L65.7205 101.894L65.8288 101.878L65.9278 101.866L66.0118 101.86C66.0512 101.86 66.0915 101.855 66.1309 101.854H66.1956C66.2417 101.854 66.2887 101.854 66.3357 101.854H66.3794C66.4314 101.854 66.4834 101.861 66.5355 101.868L66.5665 101.872L66.6504 101.884L66.7344 101.898L66.762 101.904C66.818 101.916 66.8714 101.928 66.9223 101.941L66.9584 101.952C67.0079 101.966 67.0566 101.981 67.1053 101.998L67.159 102.017C67.201 102.032 67.2429 102.048 67.2832 102.065L67.3596 102.099C67.3915 102.113 67.4234 102.128 67.4544 102.144C67.4855 102.16 67.5207 102.178 67.5526 102.196L67.6206 102.234C67.6592 102.257 67.6978 102.281 67.7356 102.306L67.7817 102.336L63.4042 104.46C63.4121 104.358 63.4253 104.257 63.4437 104.157C63.4437 104.143 63.4479 104.131 63.4504 104.117C63.4529 104.104 63.4563 104.09 63.4596 104.076C63.4697 104.026 63.4814 103.977 63.4949 103.928C63.4999 103.91 63.5049 103.893 63.51 103.876C63.5226 103.832 63.536 103.792 63.5511 103.745C63.5595 103.721 63.5687 103.697 63.578 103.673C63.5872 103.648 63.6048 103.603 63.6191 103.568C63.6333 103.534 63.6476 103.504 63.6627 103.473C63.6778 103.442 63.6862 103.421 63.6988 103.396C63.7189 103.356 63.7399 103.318 63.7609 103.28L63.7894 103.229C63.8155 103.185 63.8432 103.145 63.8734 103.1L63.8952 103.067C63.9262 103.022 63.959 102.978 63.9925 102.934L64.0102 102.91" fill="white" />
    <defs>
        <clipPath id="clip0_1_1768">
            <rect width="79" height="79" fill="white" transform="translate(0.5)" />
        </clipPath>
    </defs>
</svg>
    