<svg width="810" height="246" viewBox="0 0 810 246" fill="none" xmlns="http://www.w3.org/2000/svg">
<path d="M223 107.5C232.391 96.5292 238.651 83.2291 241.12 69.0002C241.12 68.7802 240.79 68.4202 240.53 68.2202C240.27 68.0202 240.13 68.0402 240.05 68.2202C227.29 102.95 206.36 120.22 176.93 132.22C175.72 127.39 174.67 122.51 173.86 117.59C185.16 114.49 196.16 109.98 205.08 103.47C214.775 96.3583 222.844 87.2633 228.75 76.7902C234.256 67.1513 238.278 56.7377 240.68 45.9002C241.23 43.3302 240.97 42.4102 240.1 41.7402L239.7 41.4402C239.34 41.1702 239.07 41.4402 238.97 41.9302C238.333 44.5678 237.521 47.1602 236.54 49.6902C224.87 81.0302 206.27 99.8802 172.54 107.69C172.022 102.169 171.888 96.6194 172.14 91.0802C195.83 86.0802 215.87 69.6102 226.78 48.1502C231.731 38.1264 235.448 27.5391 237.85 16.6202C237.997 16.1105 237.98 15.5674 237.8 15.0682C237.62 14.5691 237.288 14.1393 236.85 13.8402C236.624 13.6729 236.359 13.5662 236.08 13.5302C235.524 13.2461 234.883 13.1784 234.28 13.3402C223.356 15.739 212.764 19.4597 202.74 24.4202C181.37 35.2702 165 55.1802 159.88 78.7202C154.343 78.9616 148.797 78.8179 143.28 78.2902C151.1 44.8202 169.93 26.2902 201.15 14.6902C203.684 13.7101 206.28 12.8951 208.92 12.2502C209.36 12.1502 209.67 11.8902 209.4 11.5202L209.1 11.1302C208.43 10.2602 207.51 9.99016 204.94 10.5502C194.102 12.9417 183.69 16.9642 174.06 22.4802C163.582 28.3834 154.483 36.4528 147.37 46.1502C140.93 54.9602 136.45 65.8202 133.37 76.9802C128.46 76.1702 123.61 75.1202 118.79 73.9002C130.79 44.6802 148.09 23.9002 182.66 11.1702C182.89 11.0902 182.85 10.8902 182.66 10.6902C182.47 10.4902 182.1 10.0702 181.88 10.1002C167.635 12.5619 154.319 18.8258 143.34 28.2302C129.82 39.6102 118.78 54.0002 110.11 71.5202C105.81 70.2502 101.53 68.8702 97.2898 67.4102C84.4698 63.0002 51.4798 47.8602 38.7398 36.9302C34.7398 33.4902 32.8098 33.0302 30.6798 34.5302C29.5377 35.4873 28.5078 36.5709 27.6098 37.7602C22.5717 44.9084 18.7376 52.8332 16.2598 61.2202C16.0698 61.9402 17.2598 62.6302 18.4598 62.1002C24.4098 59.4502 50.0798 70.6302 57.5198 73.5602C62.3298 75.4502 67.2198 77.1802 72.1198 78.8102C82.3498 82.2302 92.6598 85.3402 103.12 87.8102C102.5 89.4568 101.9 91.1235 101.32 92.8102C99.5598 97.9702 98.0798 103.21 96.8498 108.45C72.1798 104.8 51.2098 98.4502 37.5898 92.7402C27.9998 88.8102 21.9998 87.8402 17.8598 90.0002C17.1698 90.3702 16.4498 91.5702 16.7898 93.4502C17.8648 99.4657 19.7908 105.298 22.5098 110.77C24.7998 115.4 26.0798 113.9 28.2698 113.39C31.3498 112.69 35.0198 113.64 38.0098 114.23C43.8198 115.36 49.5698 116.82 55.3598 118.08C68.0721 120.77 80.9683 122.501 93.9398 123.26C92.8498 130.26 92.1298 137.07 91.6898 143.59C90.0298 143.52 88.3898 143.44 86.7898 143.34C67.8798 142.26 46.5298 137 39.5598 135.18C38.8698 135 38.9098 136.98 39.3898 137.51C42.4698 140.99 48.4798 147.24 49.8398 148.75C53.1726 152.602 57.5056 155.457 62.3598 157C68.5198 159 75.0498 159.37 81.4598 159.6C84.4598 159.71 87.7398 159.76 91.1398 159.75C91.1398 163.28 91.1398 166.65 91.2898 169.75C91.5198 176.17 91.8998 182.75 93.8898 188.85C95.4231 193.699 98.2639 198.031 102.1 201.37C103.61 202.73 109.86 208.74 113.34 211.82C113.87 212.3 115.86 212.35 115.67 211.65C113.85 204.65 108.59 183.33 107.51 164.43C107.41 162.72 107.32 160.97 107.25 159.2C113.76 158.78 120.6 158.07 127.57 156.99C128.324 170.056 130.065 183.047 132.78 195.85C134.03 201.64 135.49 207.39 136.62 213.21C137.21 216.21 138.17 219.86 137.46 222.95C136.95 225.14 135.46 226.41 140.08 228.71C145.554 231.425 151.385 233.35 157.4 234.43C159.28 234.76 160.48 234.05 160.85 233.35C163.04 229.18 162.07 223.2 158.12 213.65C152.41 199.98 146.02 178.92 142.37 154.14C147.776 152.89 153.116 151.368 158.37 149.58C159.93 149.04 161.473 148.487 163 147.92C165.47 158.42 168.6 168.8 172 179.09C173.63 184 175.36 188.88 177.26 193.69C180.18 201.13 191.36 226.81 188.72 232.75C188.18 233.95 188.87 235.14 189.6 234.95C197.986 232.479 205.909 228.644 213.05 223.6C214.238 222.705 215.322 221.678 216.28 220.54C217.78 218.4 217.28 216.49 213.88 212.48C202.95 199.73 187.8 166.74 183.4 153.92C181.92 149.627 180.536 145.293 179.25 140.92C197.05 132.27 211.53 121.16 223 107.5ZM199.18 33.6402C208.18 26.6402 218.64 21.6402 229.43 18.1002L234.7 16.4402C234.18 18.1068 233.653 19.7735 233.12 21.4402C229.55 32.2302 224.61 42.7002 217.58 51.6902C206.28 66.1502 190.7 74.0002 173.8 77.1302C177 60.3502 184.82 44.8802 199.18 33.6402ZM157.9 93.0002C157.54 98.0002 157.47 103 157.59 108.07C157.59 108.75 157.59 109.42 157.67 110.07C151.74 110.71 145.67 111.07 139.59 111.26C139.75 105.15 140.15 99.0902 140.81 93.1602L143.15 93.2502C148.06 93.4102 153 93.3502 157.9 93.0002ZM113.28 90.0002C118.78 91.0002 124.28 91.8902 129.9 92.4602C128.76 99.0302 128.02 105.46 127.58 111.28C122.27 111.13 116.97 110.82 111.76 110.28C110.89 110.2 110.04 110.1 109.19 110.01C110.135 103.262 111.501 96.5785 113.28 90.0002ZM106.92 144C106.92 137.49 107.17 130.74 107.69 123.92C114.14 124.08 120.58 124.06 127 123.92C126.86 130.35 126.84 136.8 127 143.25C120.17 143.73 113.43 144 106.92 144ZM140.82 141.79C140.74 141.03 140.66 140.28 140.58 139.51C140.07 134.19 139.76 128.79 139.58 123.37C145.43 122.94 151.81 122.21 158.38 121.09C158.95 126.68 159.79 132.23 160.83 137.74C154.249 139.487 147.566 140.826 140.82 141.75V141.79Z" fill="url(#paint0_linear_407_2003)"/>
<path d="M302.74 97.06L307.8 91.53L325.85 112.54H332.84L311.27 87.75L331.23 65.96H324.81L302.74 90.48V65.96H297.71V112.54H302.74V97.06Z" fill="#13182B"/>
<path d="M373 107.79H348.63V91.66H370.07V86.77H348.63V70.71H373V65.96H343.6V112.54H373V107.79Z" fill="#13182B"/>
<path d="M392.28 74.25L408.2 97.95L425.17 74.13V112.54H430.2V65.96H424.76L408.52 90.23L392.7 65.96H387.25V112.54H392.28V74.25Z" fill="#13182B"/>
<path d="M474.56 107.79H450.18V91.66H471.62V86.77H450.18V70.71H474.56V65.96H445.15V112.54H474.56V107.79Z" fill="#13182B"/>
<path d="M493.84 73.26L521.7 112.54H527.36V65.96H522.33V105.18L494.54 65.96H488.81V112.54H493.84V73.26Z" fill="#13182B"/>
<path d="M559.28 112.54V70.71H575.69V65.96H537.77V70.71H554.25V112.54H559.28Z" fill="#13182B"/>
<path d="M615.51 107.79H591.13V91.66H612.57V86.77H591.13V70.71H615.51V65.96H586.11V112.54H615.51V107.79Z" fill="#13182B"/>
<path d="M634.79 93.76H646.66L658.81 112.54H664.75L652.07 93.2C653.563 92.9508 654.997 92.4287 656.3 91.66C658.291 90.4561 659.91 88.7258 660.98 86.66C662.122 84.4382 662.696 81.9678 662.65 79.47C662.65 75.0033 661.5 71.6266 659.2 69.34C656.9 67.0533 653.463 65.94 648.89 66H629.76V112.58H634.76L634.79 93.76ZM634.79 70.71H648.34C651.92 70.71 654.363 71.5366 655.67 73.19C657.076 75.1211 657.781 77.4739 657.67 79.86C657.67 82.84 656.797 85.11 655.05 86.67C653.31 88.23 650.5 89.01 646.64 89.01H634.84L634.79 70.71Z" fill="#13182B"/>
<path d="M681.94 65.96H676.91V112.54H681.94V65.96Z" fill="#13182B"/>
<path d="M703.39 98H723.49L729.08 112.52H734.46L716 66H711L692.43 112.58H697.87L703.39 98ZM713.44 71.91L721.63 93.18H705.25L713.44 71.91Z" fill="#13182B"/>
<path d="M749.9 73.26L777.76 112.54H783.42V65.96H778.39V105.18L750.6 65.96H744.87V112.54H749.9V73.26Z" fill="#13182B"/>
<path d="M326.24 127.61C323.473 125.15 319.473 123.917 314.24 123.91H297.71V170.49H302.71V152.68H314.23C319.443 152.68 323.443 151.447 326.23 148.98C329.017 146.513 330.4 142.953 330.38 138.3C330.387 133.64 329.007 130.077 326.24 127.61ZM324.98 141.61C324.714 142.758 324.175 143.824 323.41 144.72C322.456 145.777 321.238 146.561 319.88 146.99C317.858 147.616 315.746 147.9 313.63 147.83H302.74V128.73H313.63C315.746 128.66 317.858 128.944 319.88 129.57C321.238 129.999 322.456 130.783 323.41 131.84C324.19 132.748 324.736 133.833 325 135C325.52 137.203 325.52 139.497 325 141.7L324.98 141.61Z" fill="#13182B"/>
<path d="M369.22 165.75H344.85V149.61H366.29V144.72H344.85V128.66H369.22V123.91H339.82V170.49H369.22V165.75Z" fill="#13182B"/>
<path d="M406.23 149.61C408.225 148.412 409.846 146.68 410.91 144.61C412.06 142.391 412.638 139.919 412.59 137.42C412.59 132.947 411.437 129.57 409.13 127.29C406.823 125.01 403.39 123.87 398.83 123.87H379.7V170.45H384.7V151.71H396.56L408.72 170.49H414.66L402 151.15C403.493 150.904 404.928 150.381 406.23 149.61ZM384.73 128.61H398.27C401.86 128.61 404.27 129.44 405.61 131.09C406.998 133.028 407.686 135.38 407.56 137.76C407.56 140.74 406.687 143.01 404.94 144.57C403.2 146.13 400.39 146.91 396.53 146.91H384.73V128.61Z" fill="#13182B"/>
<path d="M423.07 170.49H437.66C444.927 170.49 450.387 168.537 454.04 164.63C457.693 160.723 459.52 154.903 459.52 147.17C459.52 139.443 457.693 133.633 454.04 129.74C450.387 125.847 444.927 123.903 437.66 123.91H423.07V170.49ZM428.07 128.59H437.29C443.25 128.59 447.583 130.08 450.29 133.06C452.997 136.04 454.347 140.743 454.34 147.17C454.34 153.59 452.99 158.293 450.29 161.28C447.59 164.267 443.257 165.753 437.29 165.74H428.07V128.59Z" fill="#13182B"/>
<path d="M469.86 170.49L475.45 156H495.55L501.14 170.52H506.52L488 123.91H483L464.42 170.49H469.86ZM485.51 129.88L493.7 151.15H477.31L485.51 129.88Z" fill="#13182B"/>
<path d="M531.94 151.43H543.18V164.7C541.49 165.268 539.758 165.703 538 166C536.197 166.282 534.375 166.423 532.55 166.42C529.205 166.549 525.882 165.841 522.88 164.36C520.299 162.973 518.288 160.721 517.2 158C515.883 154.55 515.268 150.871 515.39 147.18C515.266 143.498 515.881 139.829 517.2 136.39C518.293 133.706 520.283 131.483 522.83 130.1C525.83 128.61 529.152 127.889 532.5 128C534.961 127.997 537.408 128.364 539.76 129.09C542.093 129.795 544.381 130.643 546.61 131.63V126.4C544.335 125.329 541.942 124.53 539.48 124.02C536.999 123.507 534.473 123.249 531.94 123.25C527.796 123.12 523.688 124.046 520 125.94C516.77 127.732 514.227 130.546 512.77 133.94C511.039 138.144 510.218 142.666 510.36 147.21C510.221 151.763 511.042 156.295 512.77 160.51C514.238 163.897 516.778 166.708 520 168.51C523.683 170.418 527.795 171.344 531.94 171.2C534.758 171.208 537.568 170.906 540.32 170.3C543.042 169.683 545.688 168.767 548.21 167.57V146.57H531.94V151.43Z" fill="#13182B"/>
<path d="M565.89 156H586L591.59 170.52H597L578.49 123.94H573.49L554.91 170.52H560.36L565.89 156ZM576 129.88L584.19 151.15H567.75L576 129.88Z" fill="#13182B"/>
<path d="M609.32 123.91H603.6V170.49H608.62V131.21L636.49 170.49H642.14V123.91H637.12V163.13L609.32 123.91Z" fill="#13182B"/>
<path d="M673.15 151.43H684.4V164.7C682.689 165.253 680.937 165.671 679.16 165.95C677.357 166.232 675.535 166.373 673.71 166.37C670.365 166.499 667.042 165.791 664.04 164.31C661.487 162.92 659.497 160.686 658.41 157.99C657.093 154.54 656.478 150.861 656.6 147.17C656.476 143.488 657.091 139.819 658.41 136.38C659.506 133.697 661.495 131.476 664.04 130.09C667.043 128.614 670.366 127.906 673.71 128.03C676.171 128.027 678.618 128.394 680.97 129.12C683.303 129.825 685.591 130.673 687.82 131.66V126.43C685.545 125.359 683.152 124.56 680.69 124.05C678.21 123.537 675.683 123.279 673.15 123.28C669.009 123.141 664.9 124.056 661.21 125.94C657.98 127.732 655.437 130.546 653.98 133.94C652.249 138.144 651.428 142.666 651.57 147.21C651.431 151.763 652.252 156.295 653.98 160.51C655.448 163.897 657.988 166.708 661.21 168.51C664.893 170.418 669.005 171.344 673.15 171.2C675.968 171.208 678.778 170.906 681.53 170.3C684.252 169.683 686.898 168.767 689.42 167.57V146.57H673.15V151.43Z" fill="#13182B"/>
<path d="M714.64 123.91L696.06 170.49H701.51L707.1 156H727.2L732.79 170.52H738.17L719.66 123.94L714.64 123.91ZM709 151.15L717.2 129.88L725.39 151.15H709Z" fill="#13182B"/>
<path d="M749.83 131.21L777.7 170.49H783.35V123.91H778.33V163.13L750.53 123.91H744.8V170.49H749.83V131.21Z" fill="#13182B"/>
<path d="M315.84 202.83C316.959 202.057 317.852 201.001 318.43 199.77C319.029 198.497 319.333 197.106 319.32 195.7C319.32 192.873 318.537 190.743 316.97 189.31C315.403 187.877 313.147 187.163 310.2 187.17H297.63V215.47H302.3V204.78H308.3L314.92 215.47H320.73L313.14 204C314.108 203.792 315.026 203.394 315.84 202.83ZM302.3 191.11H309.65C310.324 191.04 311.006 191.118 311.647 191.339C312.287 191.56 312.872 191.919 313.36 192.39C314.139 193.422 314.522 194.699 314.44 195.99C314.494 196.676 314.399 197.366 314.16 198.011C313.922 198.657 313.547 199.243 313.06 199.73C311.865 200.639 310.377 201.077 308.88 200.96H302.3V191.11Z" fill="#595A5C"/>
<path d="M329.25 215.47H347.8V211.53H333.92V203.29H346.02V199.31H333.96V191.11H347.8V187.17H329.25V215.47Z" fill="#595A5C"/>
<path d="M376.22 189.42C374.447 187.92 371.947 187.17 368.72 187.17H357.52V215.47H362.19V205.33H368.72C371.947 205.33 374.447 204.54 376.22 202.96C377.13 202.079 377.839 201.012 378.296 199.831C378.754 198.65 378.949 197.384 378.87 196.12C378.87 193.15 378 190.92 376.22 189.42ZM373.75 198.16C373.594 198.765 373.296 199.324 372.88 199.79C372.401 200.326 371.786 200.724 371.1 200.94C370.129 201.24 369.115 201.376 368.1 201.34H362.16V191.11H368.1C369.117 191.077 370.133 191.223 371.1 191.54C371.785 191.768 372.399 192.171 372.88 192.71C373.302 193.187 373.601 193.76 373.75 194.38C373.91 195.004 373.991 195.646 373.99 196.29C373.992 196.921 373.911 197.55 373.75 198.16Z" fill="#595A5C"/>
<path d="M406.62 204.31C406.62 206.97 406.02 208.95 404.82 210.23C404.139 210.901 403.323 211.42 402.427 211.753C401.531 212.085 400.574 212.224 399.62 212.16C398.662 212.234 397.7 212.099 396.799 211.766C395.898 211.433 395.079 210.909 394.4 210.23C393.24 208.95 392.66 206.97 392.66 204.31V187.17H387.86V204.36C387.86 208.227 388.88 211.147 390.92 213.12C392.96 215.093 395.903 216.077 399.75 216.07C401.848 216.127 403.929 215.681 405.82 214.77C407.506 213.908 408.878 212.536 409.74 210.85C410.719 208.83 411.193 206.603 411.12 204.36V187.17H406.62V204.31Z" fill="#595A5C"/>
<path d="M439.68 201.11C439.147 200.799 438.584 200.541 438 200.34L439 199.64C439.687 199.16 440.272 198.548 440.72 197.84C441.242 196.929 441.492 195.888 441.44 194.84C441.485 193.408 441.139 191.99 440.44 190.74C439.697 189.541 438.59 188.612 437.28 188.09C435.501 187.408 433.603 187.092 431.7 187.16H421.22V215.46H432.68C434.518 215.493 436.348 215.209 438.09 214.62C439.561 214.127 440.843 213.191 441.76 211.94C442.692 210.551 443.155 208.901 443.08 207.23C443.127 205.915 442.797 204.614 442.13 203.48C441.519 202.502 440.678 201.688 439.68 201.11ZM425.89 191.11H431.89C433.129 191.051 434.359 191.353 435.43 191.98C436.157 192.707 436.618 193.658 436.738 194.68C436.858 195.702 436.63 196.734 436.09 197.61C435.647 198.136 435.054 198.513 434.39 198.69C433.698 198.871 432.985 198.962 432.27 198.96H425.9L425.89 191.11ZM437.5 209.85C436.975 210.52 436.244 210.998 435.42 211.21C434.514 211.456 433.579 211.577 432.64 211.57H425.93V202.74H432.51C433.199 202.74 433.888 202.791 434.57 202.89C435.224 202.977 435.857 203.18 436.44 203.49C436.998 203.786 437.463 204.233 437.78 204.78C438.159 205.582 438.331 206.465 438.282 207.35C438.234 208.236 437.965 209.095 437.5 209.85Z" fill="#595A5C"/>
<path d="M456.75 187.17H452.04V215.47H470.24V211.49H456.75V187.17Z" fill="#595A5C"/>
<path d="M482.89 187.17H478.18V215.48H482.89V187.17Z" fill="#595A5C"/>
<path d="M515.02 187.17H509.08L497.7 200.9V187.17H492.99V215.47H497.7V206.27L500.3 203.41L509.8 215.47H515.91L503.52 199.85L515.02 187.17Z" fill="#595A5C"/>
<path d="M544.14 187.17H539.43V215.48H544.14V187.17Z" fill="#595A5C"/>
<path d="M573.77 207.97L558.74 187.17H554.25V215.47H558.7V194.43L574.02 215.47H578.22V187.17H573.77V207.97Z" fill="#595A5C"/>
<path d="M598.26 187.17H588.33V215.47H598.26C602.84 215.47 606.25 214.277 608.49 211.89C610.73 209.503 611.847 205.973 611.84 201.3C611.84 196.633 610.723 193.11 608.49 190.73C606.257 188.35 602.847 187.163 598.26 187.17ZM604.79 209.09C603.29 210.71 600.96 211.53 597.79 211.53H593V191.07H597.8C600.973 191.07 603.307 191.89 604.8 193.53C606.293 195.17 607.027 197.76 607 201.3C607 204.86 606.263 207.457 604.79 209.09Z" fill="#595A5C"/>
<path d="M640.06 188.31C637.844 187.176 635.378 186.622 632.89 186.7C628.61 186.7 625.35 187.93 623.11 190.39C620.87 192.85 619.743 196.517 619.73 201.39C619.634 204.186 620.156 206.969 621.26 209.54C622.192 211.594 623.763 213.292 625.74 214.38C627.95 215.509 630.409 216.063 632.89 215.99C637.19 215.99 640.463 214.76 642.71 212.3C644.957 209.84 646.083 206.203 646.09 201.39C646.183 198.585 645.653 195.795 644.54 193.22C643.612 191.145 642.041 189.424 640.06 188.31ZM640.34 207.41C639.841 208.834 638.866 210.042 637.58 210.83C636.122 211.541 634.522 211.91 632.9 211.91C631.278 211.91 629.678 211.541 628.22 210.83C626.923 210.049 625.939 208.839 625.44 207.41C624.226 203.461 624.226 199.239 625.44 195.29C625.948 193.868 626.929 192.664 628.22 191.88C629.647 191.094 631.261 190.71 632.89 190.77C634.523 190.705 636.143 191.082 637.58 191.86C638.86 192.641 639.835 193.838 640.34 195.25C641.013 197.193 641.321 199.244 641.25 201.3C641.322 203.375 641.014 205.446 640.34 207.41Z" fill="#595A5C"/>
<path d="M674.57 207.97L659.54 187.17H655.04V215.47H659.5V194.43L674.82 215.47H679.02V187.17H674.57V207.97Z" fill="#595A5C"/>
<path d="M689.12 215.47H707.67V211.53H693.79V203.29H705.89V199.31H693.83V191.11H707.67V187.17H689.12V215.47Z" fill="#595A5C"/>
<path d="M733.22 201.83C732.415 201.2 731.531 200.679 730.59 200.28C729.59 199.86 728.59 199.47 727.53 199.14C726.47 198.81 725.3 198.39 724.39 198.01C723.587 197.701 722.868 197.208 722.29 196.57C721.768 195.897 721.506 195.06 721.55 194.21C721.531 193.498 721.737 192.798 722.14 192.21C722.582 191.613 723.186 191.155 723.88 190.89C724.818 190.553 725.815 190.411 726.81 190.47C727.771 190.487 728.725 190.628 729.65 190.89C730.47 191.139 731.261 191.474 732.01 191.89C732.73 192.29 733.45 192.71 734.15 193.16V188.58C733.28 188.15 732.46 187.79 731.71 187.5C730.946 187.196 730.151 186.975 729.34 186.84C728.347 186.687 727.344 186.617 726.34 186.63C724.83 186.592 723.325 186.829 721.9 187.33C720.774 187.719 719.749 188.354 718.9 189.19C718.17 189.938 717.599 190.826 717.22 191.8C716.868 192.709 716.682 193.675 716.67 194.65C716.637 195.8 716.855 196.943 717.31 198C717.698 198.864 718.279 199.627 719.01 200.23C719.729 200.818 720.526 201.303 721.38 201.67C722.26 202.05 723.15 202.41 724.06 202.76C725.25 203.18 726.36 203.6 727.41 204.03C728.344 204.381 729.203 204.907 729.94 205.58C730.266 205.887 730.523 206.26 730.695 206.673C730.868 207.087 730.951 207.532 730.94 207.98C730.969 208.545 730.869 209.11 730.645 209.63C730.421 210.151 730.081 210.612 729.65 210.98C728.504 211.783 727.115 212.164 725.72 212.06C723.993 212.076 722.277 211.788 720.65 211.21C719.208 210.713 717.857 209.983 716.65 209.05V213.71C717.529 214.174 718.434 214.588 719.36 214.95C720.308 215.298 721.29 215.546 722.29 215.69C723.53 215.852 724.779 215.929 726.03 215.92C727.963 216.003 729.885 215.586 731.61 214.71C732.946 214 734.04 212.906 734.75 211.57C735.41 210.29 735.753 208.87 735.75 207.43C735.783 206.274 735.544 205.126 735.05 204.08C734.602 203.212 733.979 202.446 733.22 201.83Z" fill="#595A5C"/>
<path d="M749.43 187.17H744.72V215.48H749.43V187.17Z" fill="#595A5C"/>
<path d="M778.72 215.47H783.64L772.9 187.17H767.9L756.9 215.47H761.57L764.35 207.79H775.92L778.72 215.47ZM765.72 203.97L770.11 191.83L774.53 204L765.72 203.97Z" fill="#595A5C"/>
<defs>
<linearGradient id="paint0_linear_407_2003" x1="75.8498" y1="175.2" x2="237.06" y2="13.9902" gradientUnits="userSpaceOnUse">
<stop stop-color="#1751A4"/>
<stop offset="0.52" stop-color="#307F75"/>
<stop offset="1" stop-color="#49AB48"/>
</linearGradient>
</defs>
</svg>
