<svg width="149" height="33" viewBox="0 0 149 33" fill="none" xmlns="http://www.w3.org/2000/svg">
<path d="M29.1184 14.7477C30.3446 13.3152 31.162 11.5786 31.4843 9.72074C31.4843 9.69201 31.4412 9.64501 31.4073 9.61889C31.3733 9.59278 31.3551 9.59539 31.3446 9.61889C29.6786 14.1536 26.9457 16.4085 23.1031 17.9753C22.9451 17.3447 22.808 16.7075 22.7022 16.0651C24.1777 15.6603 25.6139 15.0715 26.7786 14.2215C28.0445 13.2929 29.098 12.1053 29.8692 10.7379C30.5881 9.47933 31.1132 8.11963 31.4269 6.70458C31.4987 6.36901 31.4647 6.24889 31.3512 6.16141L31.2989 6.12224C31.2519 6.08698 31.2167 6.12224 31.2036 6.18622C31.1204 6.53061 31.0144 6.8691 30.8863 7.19944C29.3626 11.2915 26.934 13.7527 22.5299 14.7725C22.4623 14.0516 22.4448 13.327 22.4776 12.6037C25.5708 11.9509 28.1874 9.80038 29.612 6.99836C30.2584 5.68956 30.7438 4.30718 31.0574 2.8815C31.0766 2.81495 31.0743 2.74404 31.0509 2.67887C31.0274 2.61369 30.984 2.55758 30.9268 2.51852C30.8973 2.49668 30.8627 2.48274 30.8263 2.47804C30.7537 2.44095 30.6699 2.43211 30.5912 2.45323C29.1649 2.76644 27.7819 3.25226 26.4731 3.89994C23.6828 5.31662 21.5454 7.91626 20.8769 10.9899C20.1539 11.0214 19.4297 11.0026 18.7094 10.9337C19.7305 6.56356 22.1891 4.14411 26.2655 2.6295C26.5964 2.50153 26.9353 2.39511 27.28 2.31091C27.3374 2.29785 27.3779 2.2639 27.3427 2.21559L27.3035 2.16467C27.216 2.05108 27.0959 2.01582 26.7603 2.08894C25.3453 2.40121 23.9858 2.92642 22.7283 3.64664C21.3602 4.41742 20.1722 5.47103 19.2434 6.73722C18.4026 7.88754 17.8176 9.30553 17.4155 10.7627C16.7744 10.6569 16.1411 10.5198 15.5118 10.3605C17.0786 6.54528 19.3374 3.83205 23.8512 2.16989C23.8813 2.15945 23.876 2.13334 23.8512 2.10722C23.8264 2.08111 23.7781 2.02627 23.7494 2.03019C21.8894 2.35161 20.1508 3.16949 18.7172 4.39741C16.9519 5.88329 15.5104 7.76219 14.3784 10.0498C13.817 9.88395 13.2581 9.70376 12.7045 9.51313C11.0306 8.93732 6.72311 6.96049 5.05965 5.53337C4.53738 5.08421 4.28538 5.02415 4.00726 5.22C3.85813 5.34498 3.72366 5.48646 3.60641 5.64174C2.94858 6.57508 2.44797 7.60982 2.12445 8.7049C2.09964 8.79891 2.25502 8.88901 2.4117 8.8198C3.18859 8.4738 6.54031 9.93356 7.51175 10.3161C8.13979 10.5629 8.77828 10.7888 9.41807 11.0016C10.7538 11.4482 12.1 11.8542 13.4657 12.1768C13.3848 12.3918 13.3064 12.6094 13.2307 12.8296C13.0009 13.5033 12.8077 14.1875 12.6471 14.8717C9.4259 14.3951 6.68786 13.566 4.9095 12.8205C3.65734 12.3073 2.87392 12.1807 2.33336 12.4627C2.24327 12.511 2.14926 12.6677 2.19365 12.9132C2.33402 13.6986 2.58549 14.4601 2.94051 15.1746C3.23951 15.7792 3.40664 15.5833 3.69259 15.5167C4.09474 15.4253 4.57394 15.5494 4.96434 15.6264C5.72295 15.7739 6.47372 15.9646 7.22972 16.1291C8.88956 16.4803 10.5734 16.7064 12.2671 16.8054C12.1248 17.7194 12.0308 18.6086 11.9733 19.4599C11.7566 19.4508 11.5424 19.4403 11.3335 19.4273C8.86445 19.2863 6.07679 18.5995 5.16672 18.3618C5.07663 18.3383 5.08185 18.5969 5.14452 18.6661C5.54668 19.1204 6.3314 19.9365 6.50898 20.1337C6.94414 20.6366 7.5099 21.0094 8.14371 21.2109C8.94802 21.472 9.80064 21.5203 10.6376 21.5503C11.0293 21.5647 11.4576 21.5712 11.9015 21.5699C11.9015 22.0308 11.9015 22.4709 11.9211 22.8756C11.9511 23.7139 12.0007 24.573 12.2606 25.3695C12.4608 26.0026 12.8317 26.5683 13.3325 27.0042C13.5297 27.1818 14.3458 27.9665 14.8001 28.3687C14.8693 28.4314 15.1292 28.4379 15.1044 28.3465C14.8667 27.4325 14.1799 24.6488 14.0389 22.181C14.0259 21.9577 14.0141 21.7292 14.005 21.4981C14.855 21.4433 15.7481 21.3506 16.6582 21.2096C16.7566 22.9156 16.984 24.6118 17.3384 26.2835C17.5016 27.0395 17.6923 27.7903 17.8398 28.5502C17.9168 28.9419 18.0422 29.4185 17.9495 29.8219C17.8829 30.1079 17.6883 30.2737 18.2916 30.574C19.0064 30.9284 19.7678 31.1799 20.553 31.3209C20.7985 31.364 20.9552 31.2713 21.0035 31.1799C21.2895 30.6354 21.1628 29.8546 20.6471 28.6076C19.9015 26.8227 19.0672 24.0729 18.5906 20.8374C19.2965 20.6742 19.9938 20.4754 20.6797 20.242C20.8834 20.1715 21.0849 20.0993 21.2842 20.0253C21.6067 21.3963 22.0154 22.7516 22.4594 24.0951C22.6722 24.7362 22.8981 25.3734 23.1462 26.0015C23.5274 26.9729 24.9872 30.3259 24.6425 31.1015C24.572 31.2582 24.6621 31.4136 24.7574 31.3888C25.8524 31.0661 26.8868 30.5654 27.8192 29.9068C27.9744 29.7899 28.1159 29.6559 28.241 29.5073C28.4368 29.2278 28.3716 28.9784 27.9276 28.4549C26.5005 26.7901 24.5224 22.4826 23.9479 20.8087C23.7546 20.2481 23.574 19.6823 23.406 19.1113C25.7301 17.9819 27.6208 16.5312 29.1184 14.7477ZM26.0082 5.10379C27.1834 4.18981 28.5491 3.53696 29.958 3.07474L30.6461 2.858C30.5782 3.07561 30.5094 3.29323 30.4398 3.51084C29.9736 4.91969 29.3286 6.28675 28.4107 7.46058C26.9353 9.34861 24.901 10.3736 22.6944 10.7823C23.1122 8.59131 24.1333 6.5714 26.0082 5.10379ZM20.6183 12.8544C20.5713 13.5073 20.5622 14.1601 20.5779 14.8221C20.5779 14.9109 20.5779 14.9984 20.5883 15.0832C19.814 15.1668 19.0215 15.2138 18.2276 15.2386C18.2485 14.4408 18.3007 13.6496 18.3869 12.8753L18.6924 12.887C19.3335 12.9079 19.9785 12.9001 20.6183 12.8544ZM14.7923 12.4627C15.5104 12.5933 16.2286 12.7095 16.9624 12.7839C16.8135 13.6417 16.7169 14.4813 16.6595 15.2412C15.9661 15.2216 15.2741 15.1812 14.5938 15.1106C14.4803 15.1002 14.3693 15.0871 14.2583 15.0754C14.3817 14.1942 14.5601 13.3216 14.7923 12.4627V12.4627ZM13.9619 19.5135C13.9619 18.6634 13.9945 17.7821 14.0624 16.8916C14.9046 16.9125 15.7455 16.9099 16.5837 16.8916C16.5654 17.7312 16.5628 18.5734 16.5837 19.4155C15.6919 19.4782 14.8119 19.5135 13.9619 19.5135ZM18.3882 19.2249C18.3778 19.1257 18.3673 19.0277 18.3569 18.9272C18.2903 18.2326 18.2498 17.5275 18.2263 16.8198C18.9901 16.7637 19.8232 16.6683 20.681 16.5221C20.7554 17.252 20.8651 17.9767 21.0009 18.6961C20.1416 18.9241 19.269 19.099 18.3882 19.2197V19.2249Z" fill="url(#paint0_linear_2_2272)"/>
<path d="M39.5299 13.3815L40.1906 12.6594L42.5474 15.4027H43.4601L40.6437 12.1659L43.2499 9.32076H42.4116L39.5299 12.5223V9.32076H38.8732V15.4027H39.5299V13.3815Z" fill="#13182B"/>
<path d="M48.712 14.7825H45.5301V12.6764H48.3295V12.0379H45.5301V9.94097H48.712V9.32076H44.8733V15.4027H48.712V14.7825Z" fill="#13182B"/>
<path d="M51.2183 10.4032L53.297 13.4977L55.5127 10.3875V15.4027H56.1695V9.32076H55.4592L53.3387 12.4897L51.2731 9.32076H50.5615V15.4027H51.2183V10.4032Z" fill="#13182B"/>
<path d="M61.9666 14.7825H58.7834V12.6764H61.5828V12.0379H58.7834V9.94097H61.9666V9.32076H58.1266V15.4027H61.9666V14.7825Z" fill="#13182B"/>
<path d="M64.4832 10.2739L68.1209 15.4027H68.8599V9.32076H68.2031V14.4417L64.5746 9.32076H63.8264V15.4027H64.4832V10.2739Z" fill="#13182B"/>
<path d="M73.0335 15.4027V9.94097H75.1762V9.32076H70.225V9.94097H72.3768V15.4027H73.0335Z" fill="#13182B"/>
<path d="M80.3756 14.7825H77.1923V12.6764H79.9917V12.0379H77.1923V9.94097H80.3756V9.32076H76.5369V15.4027H80.3756V14.7825Z" fill="#13182B"/>
<path d="M82.8876 12.9514H84.4375L86.0239 15.4035H86.7995L85.1438 12.8783C85.3387 12.8458 85.526 12.7776 85.6961 12.6773C85.9561 12.5201 86.1675 12.2941 86.3072 12.0244C86.4564 11.7343 86.5313 11.4118 86.5253 11.0856C86.5253 10.5024 86.3751 10.0615 86.0748 9.76294C85.7745 9.46437 85.3258 9.319 84.7286 9.32683H82.2308V15.4088H82.8837L82.8876 12.9514ZM82.8876 9.94182H84.6568C85.1243 9.94182 85.4433 10.0498 85.6139 10.2656C85.7975 10.5178 85.8896 10.825 85.875 11.1365C85.875 11.5256 85.761 11.822 85.5329 12.0257C85.3057 12.2294 84.9388 12.3312 84.4349 12.3312H82.8941L82.8876 9.94182Z" fill="#13182B"/>
<path d="M89.0436 9.32076H88.3868V15.4027H89.0436V9.32076Z" fill="#13182B"/>
<path d="M91.8391 13.5048H94.4636L95.1935 15.4006H95.8959L93.4856 9.32653H92.8328L90.4081 15.4085H91.1184L91.8391 13.5048ZM93.1513 10.0982L94.2207 12.8754H92.082L93.1513 10.0982Z" fill="#13182B"/>
<path d="M97.9138 10.2739L101.552 15.4027H102.291V9.32076H101.634V14.4417L98.0052 9.32076H97.2571V15.4027H97.9138V10.2739Z" fill="#13182B"/>
<path d="M42.5983 17.3718C42.2371 17.0506 41.7148 16.8896 41.0315 16.8887H38.8732V22.9707H39.526V20.6452H41.0302C41.7109 20.6452 42.2332 20.4842 42.597 20.1621C42.9609 19.84 43.1415 19.3752 43.1389 18.7676C43.1398 18.1592 42.9596 17.6939 42.5983 17.3718ZM42.4338 19.1998C42.3991 19.3497 42.3287 19.4889 42.2288 19.6059C42.1043 19.7439 41.9452 19.8463 41.7679 19.9023C41.5039 19.984 41.2281 20.0211 40.9518 20.012H39.5299V17.5181H40.9518C41.2281 17.5089 41.5039 17.546 41.7679 17.6278C41.9452 17.6838 42.1043 17.7861 42.2288 17.9241C42.3306 18.0427 42.4019 18.1843 42.4364 18.3367C42.5043 18.6244 42.5043 18.9239 42.4364 19.2116L42.4338 19.1998Z" fill="#13182B"/>
<path d="M48.2153 22.3518H45.0334V20.2444H47.8328V19.6059H45.0334V17.5089H48.2153V16.8887H44.3766V22.9707H48.2153V22.3518Z" fill="#13182B"/>
<path d="M53.038 20.2438C53.2985 20.0874 53.5102 19.8613 53.6491 19.591C53.7993 19.3012 53.8747 18.9785 53.8684 18.6522C53.8684 18.0681 53.7178 17.6272 53.4166 17.3295C53.1155 17.0318 52.6672 16.883 52.0718 16.883H49.574V22.9649H50.2268V20.518H51.7754L53.3631 22.9701H54.1387L52.4857 20.4449C52.6807 20.4127 52.868 20.3445 53.038 20.2438V20.2438ZM50.2307 17.5019H51.9986C52.4674 17.5019 52.7821 17.6102 52.957 17.8257C53.1383 18.0786 53.2281 18.3858 53.2116 18.6966C53.2116 19.0857 53.0976 19.3821 52.8696 19.5857C52.6424 19.7894 52.2755 19.8913 51.7715 19.8913H50.2307V17.5019Z" fill="#13182B"/>
<path d="M55.2507 22.9707H57.1557C58.1045 22.9707 58.8175 22.7156 59.2945 22.2055C59.7715 21.6954 60.01 20.9355 60.01 19.9258C60.01 18.9169 59.7715 18.1583 59.2945 17.65C58.8175 17.1416 58.1045 16.8879 57.1557 16.8887H55.2507V22.9707ZM55.9036 17.4998H57.1074C57.8856 17.4998 58.4514 17.6943 58.8048 18.0834C59.1582 18.4725 59.3345 19.0867 59.3336 19.9258C59.3336 20.764 59.1574 21.3781 58.8048 21.7681C58.4523 22.1581 57.8865 22.3522 57.1074 22.3505H55.9036V17.4998Z" fill="#13182B"/>
<path d="M61.3431 22.9707L62.073 21.0787H64.6974L65.4273 22.9746H66.1298L63.7116 16.8887H63.0588L60.6328 22.9707H61.3431ZM63.3865 17.6682L64.4559 20.4454H62.3159L63.3865 17.6682Z" fill="#13182B"/>
<path d="M69.4527 20.4831H70.9203V22.2158C70.6996 22.29 70.4735 22.3468 70.2439 22.3855C70.0085 22.4224 69.7706 22.4407 69.5323 22.4404C69.0956 22.4572 68.6616 22.3647 68.2697 22.1714C67.9327 21.9902 67.6701 21.6963 67.5281 21.341C67.3561 20.8904 67.2758 20.4102 67.2918 19.9282C67.2755 19.4475 67.3559 18.9684 67.5281 18.5194C67.6708 18.1689 67.9306 17.8787 68.2632 17.6981C68.6549 17.5036 69.0887 17.4093 69.5258 17.4239C69.8471 17.4235 70.1667 17.4715 70.4737 17.5662C70.7784 17.6582 71.0771 17.769 71.3681 17.8978V17.215C71.0711 17.0752 70.7586 16.9709 70.4372 16.9042C70.1133 16.8372 69.7834 16.8035 69.4527 16.8037C68.9116 16.7867 68.3752 16.9076 67.8937 17.1549C67.472 17.3889 67.1399 17.7563 66.9497 18.1995C66.7237 18.7483 66.6165 19.3388 66.635 19.9321C66.6168 20.5266 66.724 21.1183 66.9497 21.6687C67.1413 22.1109 67.473 22.4779 67.8937 22.7132C68.3745 22.9624 68.9115 23.0833 69.4527 23.0645C69.8206 23.0655 70.1875 23.0261 70.5469 22.947C70.9023 22.8663 71.2478 22.7468 71.577 22.5905V19.8486H69.4527V20.4831Z" fill="#13182B"/>
<path d="M73.8876 21.0806H76.5134L77.2433 22.9764H77.9497L75.5328 16.8945H74.88L72.454 22.9764H73.1656L73.8876 21.0806ZM75.2077 17.6701L76.2771 20.4473H74.1305L75.2077 17.6701Z" fill="#13182B"/>
<path d="M79.559 16.8887H78.8121V22.9707H79.4676V17.8419L83.1066 22.9707H83.8443V16.8887H83.1888V22.0097L79.559 16.8887Z" fill="#13182B"/>
<path d="M87.8976 20.4809H89.3665V22.2135C89.1431 22.2857 88.9143 22.3403 88.6823 22.3767C88.4469 22.4136 88.209 22.432 87.9707 22.4316C87.534 22.4484 87.1001 22.3559 86.7081 22.1626C86.3748 21.9811 86.1149 21.6894 85.973 21.3374C85.8011 20.8869 85.7207 20.4066 85.7367 19.9247C85.7205 19.444 85.8008 18.9649 85.973 18.5158C86.1161 18.1656 86.3758 17.8754 86.7081 17.6945C87.1003 17.5018 87.5341 17.4094 87.9707 17.4256C88.2921 17.4252 88.6116 17.4731 88.9187 17.5679C89.2233 17.6599 89.522 17.7707 89.8131 17.8995V17.2166C89.516 17.0768 89.2036 16.9725 88.8821 16.9059C88.5582 16.8389 88.2284 16.8052 87.8976 16.8053C87.3569 16.7872 86.8205 16.9067 86.3386 17.1527C85.9169 17.3866 85.5849 17.7541 85.3946 18.1972C85.1686 18.7461 85.0614 19.3366 85.0799 19.9299C85.0617 20.5244 85.1689 21.1161 85.3946 21.6665C85.5863 22.1087 85.918 22.4757 86.3386 22.711C86.8195 22.9601 87.3564 23.0811 87.8976 23.0622C88.2655 23.0632 88.6325 23.0238 88.9918 22.9447C89.3472 22.8641 89.6927 22.7446 90.022 22.5883V19.8463H87.8976V20.4809Z" fill="#13182B"/>
<path d="M93.3076 16.8887L90.8816 22.9707H91.5932L92.3231 21.0787H94.9475L95.6774 22.9746H96.3799L93.963 16.8926L93.3076 16.8887ZM92.5712 20.4454L93.6418 17.6682L94.7112 20.4454H92.5712Z" fill="#13182B"/>
<path d="M97.9081 17.8419L101.547 22.9707H102.285V16.8887H101.629V22.0097L97.9995 16.8887H97.2513V22.9707H97.9081V17.8419Z" fill="#13182B"/>
<path d="M41.2508 27.193C41.3969 27.092 41.5136 26.9542 41.589 26.7934C41.6672 26.6273 41.7069 26.4456 41.7052 26.262C41.7052 25.8929 41.6029 25.6148 41.3984 25.4277C41.1938 25.2405 40.8992 25.1474 40.5144 25.1482H38.8732V28.8434H39.4829V27.4476H40.2663L41.1307 28.8434H41.8893L40.8983 27.3457C41.0247 27.3186 41.1446 27.2666 41.2508 27.193ZM39.4829 25.6627H40.4426C40.5307 25.6535 40.6196 25.6638 40.7033 25.6926C40.787 25.7215 40.8633 25.7683 40.927 25.8298C41.0287 25.9646 41.0787 26.1314 41.068 26.2999C41.0751 26.3895 41.0626 26.4795 41.0315 26.5638C41.0004 26.6481 40.9514 26.7247 40.8879 26.7882C40.7318 26.9069 40.5375 26.964 40.3421 26.9488H39.4829V25.6627Z" fill="#595A5C"/>
<path d="M42.9965 28.8434H45.4185V28.3289H43.6062V27.253H45.1861V26.7334H43.6114V25.6627H45.4185V25.1482H42.9965V28.8434Z" fill="#595A5C"/>
<path d="M49.1224 25.442C48.8909 25.2462 48.5645 25.1482 48.1432 25.1482H46.6808V28.8434H47.2905V27.5194H48.1432C48.5645 27.5194 48.8909 27.4162 49.1224 27.2099C49.2413 27.095 49.3338 26.9556 49.3935 26.8014C49.4533 26.6472 49.4788 26.4819 49.4684 26.3168C49.4684 25.929 49.3549 25.6379 49.1224 25.442ZM48.7999 26.5832C48.7796 26.6622 48.7406 26.7351 48.6863 26.796C48.6238 26.8661 48.5435 26.9179 48.4539 26.9462C48.3272 26.9854 48.1948 27.0031 48.0622 26.9984H47.2866V25.6627H48.0622C48.1951 25.6584 48.3276 25.6774 48.4539 25.7188C48.5434 25.7486 48.6235 25.8013 48.6863 25.8716C48.7415 25.9339 48.7805 26.0088 48.7999 26.0896C48.8209 26.1711 48.8314 26.2549 48.8313 26.339C48.8316 26.4214 48.821 26.5035 48.7999 26.5832V26.5832Z" fill="#595A5C"/>
<path d="M53.0976 27.3862C53.0976 27.7335 53.0192 27.992 52.8625 28.1592C52.7736 28.2468 52.6671 28.3146 52.5501 28.358C52.4331 28.4015 52.3081 28.4196 52.1836 28.4112C52.0585 28.4208 51.9328 28.4033 51.8152 28.3598C51.6976 28.3163 51.5907 28.2478 51.502 28.1592C51.3505 27.992 51.2748 27.7335 51.2748 27.3862V25.1482H50.6481V27.3927C50.6481 27.8976 50.7813 28.2789 51.0476 28.5365C51.314 28.7942 51.6983 28.9226 52.2005 28.9217C52.4745 28.9291 52.7462 28.8709 52.9931 28.752C53.2133 28.6395 53.3924 28.4603 53.5049 28.2401C53.6328 27.9764 53.6946 27.6856 53.6851 27.3927V25.1482H53.0976V27.3862Z" fill="#595A5C"/>
<path d="M57.4126 26.9694C57.343 26.9288 57.2695 26.8951 57.1933 26.8689L57.3238 26.7775C57.4136 26.7148 57.4899 26.6349 57.5484 26.5425C57.6166 26.4236 57.6492 26.2876 57.6424 26.1508C57.6483 25.9638 57.6032 25.7787 57.5119 25.6154C57.4149 25.4589 57.2703 25.3376 57.0993 25.2694C56.867 25.1804 56.6192 25.1391 56.3707 25.148H55.0023V28.8431H56.4986C56.7387 28.8474 56.9776 28.8103 57.205 28.7334C57.3971 28.6691 57.5645 28.5468 57.6842 28.3835C57.806 28.2022 57.8664 27.9867 57.8566 27.7685C57.8627 27.5968 57.8197 27.4269 57.7325 27.2789C57.6528 27.1511 57.5429 27.0449 57.4126 26.9694ZM55.6121 25.6637H56.3955C56.5573 25.656 56.7179 25.6955 56.8577 25.7773C56.9527 25.8723 57.0129 25.9965 57.0285 26.1299C57.0442 26.2633 57.0144 26.3981 56.9439 26.5124C56.8861 26.5811 56.8086 26.6303 56.7219 26.6534C56.6316 26.6771 56.5385 26.689 56.4451 26.6887H55.6134L55.6121 25.6637ZM57.128 28.1106C57.0594 28.198 56.964 28.2605 56.8564 28.2882C56.7381 28.3203 56.616 28.3361 56.4934 28.3352H55.6173V27.1823H56.4765C56.5665 27.1823 56.6564 27.1889 56.7454 27.2018C56.8308 27.2132 56.9135 27.2398 56.9896 27.2802C57.0625 27.3189 57.1231 27.3772 57.1646 27.4486C57.214 27.5533 57.2366 27.6686 57.2302 27.7842C57.2238 27.8998 57.1887 28.012 57.128 28.1106V28.1106Z" fill="#595A5C"/>
<path d="M59.6424 25.1482H59.0275V28.8434H61.4038V28.3237H59.6424V25.1482Z" fill="#595A5C"/>
<path d="M63.0438 25.1482H62.4288V28.8447H63.0438V25.1482Z" fill="#595A5C"/>
<path d="M67.2515 25.1482H66.4759L64.99 26.941V25.1482H64.375V28.8434H64.99V27.6421L65.3295 27.2687L66.5699 28.8434H67.3677L65.7499 26.8039L67.2515 25.1482Z" fill="#595A5C"/>
<path d="M71.0478 25.1482H70.4329V28.8447H71.0478V25.1482Z" fill="#595A5C"/>
<path d="M74.9219 27.8641L72.9594 25.1482H72.3732V28.8434H72.9542V26.0962L74.9545 28.8434H75.5029V25.1482H74.9219V27.8641Z" fill="#595A5C"/>
<path d="M78.1221 25.1482H76.8256V28.8434H78.1221C78.7201 28.8434 79.1654 28.6875 79.4578 28.3759C79.7503 28.0643 79.8961 27.6034 79.8953 26.9932C79.8953 26.3839 79.7494 25.9238 79.4578 25.6131C79.1662 25.3023 78.721 25.1474 78.1221 25.1482ZM78.9747 28.0103C78.7789 28.2218 78.4747 28.3289 78.0607 28.3289H77.4353V25.6575H78.0621C78.4764 25.6575 78.7811 25.7645 78.976 25.9787C79.171 26.1928 79.2668 26.531 79.2633 26.9932C79.2633 27.458 79.1671 27.7971 78.9747 28.0103V28.0103Z" fill="#595A5C"/>
<path d="M83.5644 25.2959C83.2751 25.1478 82.953 25.0755 82.6282 25.0856C82.0694 25.0856 81.6437 25.2462 81.3512 25.5675C81.0588 25.8887 80.9117 26.3674 80.9099 27.0037C80.8973 27.3688 80.9656 27.7322 81.1097 28.0679C81.2313 28.3361 81.4366 28.5578 81.6946 28.6998C81.9832 28.8473 82.3043 28.9196 82.6282 28.91C83.1897 28.91 83.6171 28.7494 83.9104 28.4282C84.2038 28.107 84.3509 27.6322 84.3517 27.0037C84.3639 26.6376 84.2948 26.2732 84.1493 25.937C84.0281 25.6661 83.8231 25.4413 83.5644 25.2959V25.2959ZM83.601 27.7897C83.5358 27.9757 83.4086 28.1334 83.2406 28.2363C83.0502 28.3291 82.8413 28.3773 82.6295 28.3773C82.4178 28.3773 82.2088 28.3291 82.0185 28.2363C81.8491 28.1343 81.7207 27.9764 81.6555 27.7897C81.497 27.2741 81.497 26.7228 81.6555 26.2072C81.7218 26.0216 81.85 25.8644 82.0185 25.762C82.2048 25.6594 82.4156 25.6093 82.6282 25.6171C82.8414 25.6086 83.053 25.6578 83.2406 25.7594C83.4078 25.8614 83.535 26.0176 83.601 26.202C83.6888 26.4558 83.7291 26.7236 83.7198 26.992C83.7292 27.2629 83.689 27.5333 83.601 27.7897V27.7897Z" fill="#595A5C"/>
<path d="M88.0841 27.8641L86.1216 25.1482H85.5341V28.8434H86.1164V26.0962L88.1167 28.8434H88.6651V25.1482H88.0841V27.8641Z" fill="#595A5C"/>
<path d="M89.975 28.8434H92.397V28.3289H90.5847V27.253H92.1646V26.7334H90.59V25.6627H92.397V25.1482H89.975V28.8434Z" fill="#595A5C"/>
<path d="M95.742 27.0612C95.6369 26.979 95.5215 26.911 95.3986 26.8588C95.2681 26.804 95.1375 26.7531 94.9991 26.71C94.8607 26.6669 94.7079 26.6121 94.5891 26.5624C94.4843 26.5221 94.3903 26.4577 94.3149 26.3744C94.2468 26.2866 94.2125 26.1773 94.2183 26.0663C94.2158 25.9733 94.2428 25.8819 94.2953 25.8051C94.353 25.7272 94.4319 25.6674 94.5225 25.6328C94.645 25.5889 94.7752 25.5702 94.9051 25.5779C95.0305 25.5802 95.1552 25.5986 95.2759 25.6328C95.3829 25.6653 95.4862 25.7091 95.584 25.7634C95.678 25.8156 95.7721 25.8704 95.8635 25.9292V25.3312C95.7499 25.275 95.6428 25.228 95.5449 25.1902C95.4451 25.1505 95.3414 25.1216 95.2354 25.104C95.1058 25.084 94.9748 25.0748 94.8437 25.0766C94.6465 25.0716 94.4501 25.1026 94.264 25.168C94.117 25.2187 93.9831 25.3017 93.8723 25.4108C93.777 25.5085 93.7024 25.6244 93.6529 25.7516C93.607 25.8704 93.5827 25.9964 93.5811 26.1237C93.5768 26.2739 93.6053 26.4231 93.6647 26.5611C93.7153 26.674 93.7912 26.7736 93.8866 26.8523C93.9805 26.9291 94.0847 26.9924 94.1961 27.0403C94.311 27.0899 94.4272 27.1369 94.546 27.1826C94.7014 27.2375 94.8463 27.2923 94.9834 27.3485C95.1054 27.3943 95.2175 27.463 95.3138 27.5509C95.3563 27.591 95.3899 27.6396 95.4124 27.6936C95.4349 27.7476 95.4458 27.8057 95.4443 27.8642C95.4482 27.9381 95.435 28.0118 95.4058 28.0797C95.3766 28.1476 95.3321 28.2079 95.2759 28.2559C95.1263 28.3608 94.9449 28.4106 94.7628 28.3969C94.5373 28.399 94.3132 28.3614 94.1008 28.286C93.9125 28.221 93.7361 28.1258 93.5785 28.0039V28.6124C93.6933 28.6729 93.8114 28.727 93.9323 28.7743C94.0561 28.8198 94.1843 28.8522 94.3149 28.8709C94.4768 28.8921 94.64 28.9021 94.8032 28.9009C95.0556 28.9117 95.3066 28.8573 95.5318 28.743C95.7063 28.6502 95.8491 28.5074 95.9418 28.333C96.0279 28.1658 96.0727 27.9804 96.0724 27.7924C96.0767 27.6414 96.0454 27.4916 95.981 27.355C95.9224 27.2416 95.8411 27.1416 95.742 27.0612V27.0612Z" fill="#595A5C"/>
<path d="M97.849 25.1482H97.234V28.8447H97.849V25.1482Z" fill="#595A5C"/>
<path d="M101.677 28.8434H102.319L100.917 25.1482H100.264L98.8279 28.8434H99.4376L99.8006 27.8406H101.311L101.677 28.8434ZM99.9795 27.3418L100.553 25.7567L101.13 27.3457L99.9795 27.3418Z" fill="#595A5C"/>
<path d="M132.703 21.9186C132.703 21.9186 133.127 22.3124 133.048 22.5343C132.869 23.0449 132.064 23.2822 131.542 23.141C130.708 22.9156 129.945 21.9575 129.953 21.0937C129.964 19.826 131.26 18.7999 132.336 18.1298C133.444 17.4401 134.851 17.2526 136.156 17.2742C137.576 17.2979 139.092 17.5665 140.281 18.3436C140.943 18.7762 141.49 19.4604 141.748 20.2075C141.895 20.631 141.748 21.552 141.748 21.552C141.748 21.552 142.915 19.9409 143.337 19.0463C143.84 17.98 144.578 16.8553 144.437 15.6849C144.372 15.1491 144.018 14.6287 143.581 14.3097C142.181 13.2911 140.27 13.1144 138.54 13.0569C136.75 12.9977 134.931 13.379 133.253 14.0042C132.11 14.4293 130.991 15.0302 130.106 15.8681C129.108 16.8117 128.153 17.9599 127.814 19.2905C127.595 20.1529 127.641 21.163 128.059 21.9491C128.435 22.6589 129.177 23.1775 129.922 23.4771C130.652 23.7705 131.527 23.9021 132.275 23.6604C132.771 23.5006 133.451 23.1722 133.467 22.6518C133.491 21.8858 132.703 21.9184 132.703 21.9184L132.703 21.9186Z" fill="#18D1FF"/>
<path d="M132.3 22.371C132.3 22.371 132.189 22.0303 132.283 21.9081C132.437 21.7101 132.782 21.6564 133.018 21.7442C133.358 21.873 133.663 22.2595 133.663 22.6227C133.664 23.0893 133.254 23.542 132.838 23.7534C131.93 24.2149 130.746 24.0835 129.782 23.7534C128.965 23.4735 128.165 22.9138 127.735 22.1644C127.112 21.0773 126.966 19.6578 127.246 18.4364C127.532 17.189 128.461 16.1441 129.355 15.2278C130.315 14.2427 131.478 13.4077 132.747 12.8748C134.2 12.2647 135.819 12.1016 137.392 11.9886C138.744 11.8915 140.124 11.9196 141.456 12.1719C142.291 12.3304 143.137 12.5658 143.87 12.997C144.158 13.1666 144.615 13.6693 144.615 13.6693C144.615 13.6693 144.414 11.097 144.023 9.88017C143.684 8.82651 143.324 7.68307 142.525 6.91627C141.96 6.37321 141.153 6.10452 140.386 5.94055C138.931 5.62934 137.389 5.70418 135.925 5.96888C134.216 6.27803 132.564 6.94397 131.032 7.76409C129.598 8.53179 128.248 9.49851 127.094 10.6443C126.148 11.5829 125.257 12.6377 124.71 13.8529C124.16 15.0772 123.876 16.4523 123.885 17.7947C123.892 18.8696 124.115 19.977 124.588 20.9421C125.031 21.8451 125.74 22.6214 126.513 23.2646C127.186 23.8241 127.977 24.2608 128.805 24.5442C129.585 24.8111 130.427 24.9615 131.25 24.9146C132.213 24.8599 133.308 24.7845 134.043 24.1594C134.472 23.7941 134.782 23.1805 134.738 22.6189C134.707 22.2253 134.425 21.8357 134.09 21.6278C133.723 21.4006 133.222 21.2607 132.805 21.3725C132.419 21.4761 132.094 21.6833 132.046 22.0062C132.022 22.1595 132.301 22.3712 132.301 22.3712L132.3 22.371Z" fill="#0166FE"/>
<path d="M132.414 22.6449C132.414 22.6449 131.821 22.5251 131.667 22.3036C131.445 21.9832 131.461 21.5315 131.678 21.2087C132.036 20.6772 132.803 20.4736 133.443 20.4487C134.526 20.4043 135.849 20.6394 136.524 21.4869C137.087 22.1945 137.201 23.38 136.792 24.1868C136.382 24.9963 135.317 25.3108 134.447 25.5712C133.086 25.9789 131.593 26.0001 130.19 25.7789C128.74 25.5502 127.324 24.9863 126.071 24.2203C124.691 23.3773 123.425 22.2733 122.472 20.9668C121.449 19.5654 120.685 17.9224 120.326 16.2266C120 14.6916 120.046 13.0579 120.36 11.5196C120.72 9.77607 121.413 8.11855 122.402 6.63823C123.157 5.51373 124.171 4.55153 125.275 3.76554C126.267 3.05966 127.409 2.56246 128.563 2.17346C129.5 1.85749 130.483 1.63723 131.47 1.58506C132.697 1.52027 133.94 1.66492 135.139 1.93117C136.144 2.15427 137.136 2.48827 138.046 2.96937C139.119 3.53703 140.988 5.11533 140.988 5.11533C140.988 5.11533 137.198 4.75311 135.346 5.08055C133.164 5.46659 131.01 6.24859 129.117 7.39949C127.707 8.25646 126.463 9.42179 125.448 10.7221C124.635 11.7635 123.988 12.9613 123.58 14.218C123.166 15.4932 122.947 16.8612 123.026 18.1982C123.08 19.1032 123.317 20.0154 123.719 20.8285C124.119 21.64 124.7 22.3771 125.38 22.9744C126.263 23.7483 127.285 24.3473 128.391 24.7396C129.282 25.0534 130.25 25.1668 131.195 25.1549C132.002 25.1446 132.863 25.1075 133.583 24.7396C134.186 24.4313 134.83 23.9668 135.036 23.3205C135.204 22.7956 135.102 22.1106 134.742 21.6937C134.386 21.2823 133.739 21.1746 133.195 21.1746C132.796 21.1744 132.349 21.2798 132.06 21.5553C131.898 21.7091 131.815 21.9066 131.874 22.1215C131.941 22.3652 132.414 22.6457 132.414 22.6457L132.415 22.6453L132.414 22.6449ZM121.564 27.4985L120.206 28.8023L119.698 29.3166C120.18 29.8669 120.665 30.4152 121.151 30.9615L121.636 31.5595V31.5894L121.307 31.5714L120.972 31.5894C120.908 31.4977 120.84 31.406 120.768 31.3143C120.699 31.2186 120.63 31.1285 120.559 31.0438L119.255 29.5187C119.235 29.5028 119.209 29.4928 119.177 29.4888C119.161 29.4926 119.153 29.4966 119.153 29.5008V31.588L118.89 31.57L118.627 31.588V27.497L118.89 27.5151L119.153 27.497V29.3451C119.157 29.3609 119.175 29.3649 119.207 29.357C119.243 29.3491 119.277 29.3331 119.31 29.3091C119.342 29.2812 119.408 29.2194 119.507 29.1236C119.543 29.0877 119.581 29.0518 119.621 29.016L121.093 27.4973L121.332 27.5153L121.564 27.4985Z" fill="#0100CC"/>
<path d="M125.893 29.4943C125.893 29.2232 125.867 28.984 125.815 28.7766C125.763 28.5654 125.664 28.366 125.516 28.1786C125.368 27.9912 125.185 27.8476 124.966 27.7479C124.75 27.6483 124.519 27.5985 124.272 27.5985C123.75 27.5985 123.337 27.782 123.034 28.1488C122.735 28.5116 122.586 28.9981 122.586 29.6082C122.586 30.1943 122.745 30.6548 123.064 30.9898C123.363 31.3008 123.748 31.4564 124.218 31.4564C124.78 31.4564 125.217 31.2131 125.528 30.7267C125.771 30.348 125.893 29.9373 125.893 29.4946L125.893 29.4943ZM124.2 31.6532C123.534 31.6532 123 31.4618 122.598 31.0791C122.199 30.6923 122 30.1779 122 29.5359C122 28.894 122.213 28.3737 122.639 27.9748C123.05 27.592 123.574 27.4007 124.212 27.4007C124.834 27.4007 125.353 27.5621 125.767 27.885C126.242 28.2558 126.479 28.7762 126.479 29.4462C126.479 30.1081 126.268 30.6423 125.845 31.0489C125.422 31.4525 124.874 31.6543 124.2 31.6543L124.2 31.6532Z" fill="#0100CC"/>
<path d="M131.131 27.5004H131.256C131.34 28.2939 131.392 28.7803 131.412 28.9598C131.476 29.5459 131.527 30.0024 131.567 30.3294C131.61 30.6523 131.668 31.073 131.741 31.5914L131.46 31.5733L131.179 31.5914C131.143 31.1927 131.108 30.8118 131.076 30.4488C131.048 30.086 131.013 29.7272 130.973 29.3722C130.937 29.0174 130.902 28.7283 130.87 28.505C130.626 28.9435 130.415 29.3263 130.236 29.6533C130.028 30.036 129.855 30.367 129.715 30.6462C129.564 30.9532 129.426 31.2462 129.302 31.5253H129.238L128.909 30.8494C128.766 30.5504 128.638 30.2928 128.526 30.0766C128.415 29.8573 128.277 29.5921 128.114 29.2812C127.974 29.022 127.836 28.7629 127.701 28.5037C127.632 29.0739 127.566 29.65 127.504 30.232C127.44 30.8143 127.408 31.2668 127.408 31.5897L127.199 31.5717L126.983 31.5897C127.067 31.0714 127.177 30.3357 127.312 29.3828C127.448 28.4258 127.53 27.7979 127.557 27.4989H127.712C127.919 27.9055 128.089 28.2385 128.22 28.4976C128.38 28.8046 128.569 29.1575 128.787 29.5562C129.026 29.9907 129.232 30.3496 129.403 30.6328C129.977 29.5881 130.551 28.5435 131.126 27.4989L131.131 27.5004ZM132.609 31.5936V27.5026L132.872 27.5206L133.135 27.5026V31.5936L132.872 31.5755L132.609 31.5936ZM137.769 27.5004V31.5914H137.59L137.279 31.2266L134.695 28.3678H134.636V31.5915L134.468 31.5735L134.301 31.5915V27.5005H134.533L137.373 30.5806H137.433V27.5005L137.601 27.5186L137.769 27.5004ZM138.89 31.5936V27.5026H141.013L140.995 27.682L141.013 27.8614C140.894 27.8374 140.796 27.8214 140.72 27.8135C140.644 27.8015 140.563 27.7955 140.475 27.7955L139.877 27.7835H139.416V29.2835H140.343C140.419 29.2835 140.519 29.2795 140.642 29.2715C140.77 29.2595 140.847 29.2535 140.874 29.2535L140.856 29.409L140.874 29.5764C140.803 29.5764 140.703 29.5724 140.575 29.5644C140.448 29.5524 140.37 29.5464 140.343 29.5464H139.416V31.5919L139.153 31.5738L138.89 31.5936Z" fill="#0100CC"/>
<path d="M145.487 29.4943C145.487 29.2232 145.461 28.984 145.409 28.7766C145.357 28.5654 145.258 28.366 145.11 28.1786C144.963 27.9912 144.779 27.8476 144.56 27.7479C144.345 27.6483 144.113 27.5985 143.866 27.5985C143.344 27.5985 142.931 27.782 142.628 28.1488C142.329 28.5116 142.18 28.9981 142.18 29.6082C142.18 30.1943 142.339 30.6548 142.658 30.9898C142.957 31.3008 143.342 31.4564 143.812 31.4564C144.375 31.4564 144.811 31.2131 145.122 30.7267C145.365 30.348 145.487 29.9373 145.487 29.4946L145.487 29.4943ZM143.794 31.6532C143.129 31.6532 142.594 31.4618 142.192 31.0791C141.793 30.6923 141.594 30.1779 141.594 29.5359C141.594 28.894 141.807 28.3737 142.234 27.9748C142.644 27.592 143.169 27.4007 143.807 27.4007C144.429 27.4007 144.947 27.5621 145.362 27.885C145.836 28.2558 146.073 28.7762 146.073 29.4462C146.073 30.1081 145.862 30.6423 145.439 31.0489C145.017 31.4525 144.468 31.6543 143.794 31.6543L143.794 31.6532Z" fill="#0100CC"/>
<defs>
<linearGradient id="paint0_linear_2_2272" x1="9.90509" y1="23.5872" x2="30.9542" y2="2.5381" gradientUnits="userSpaceOnUse">
<stop stop-color="#1751A4"/>
<stop offset="0.52" stop-color="#307F75"/>
<stop offset="1" stop-color="#49AB48"/>
</linearGradient>
</defs>
</svg>
