<svg id="Layer_1" data-name="Layer 1" xmlns="http://www.w3.org/2000/svg" xmlns:xlink="http://www.w3.org/1999/xlink" viewBox="0 0 143.95 30.08"><defs><linearGradient id="linear-gradient" x1="9.9" y1="10.41" x2="30.95" y2="31.46" gradientTransform="matrix(1, 0, 0, -1, 0, 34)" gradientUnits="userSpaceOnUse"><stop offset="0" stop-color="#1751a4"/><stop offset="0.52" stop-color="#307f75"/><stop offset="1" stop-color="#49ab48"/></linearGradient></defs><path d="M29.12,14.75a10.5,10.5,0,0,0,2.36-5s0-.07-.07-.1-.05,0-.07,0A13.29,13.29,0,0,1,23.1,18c-.15-.64-.29-1.27-.4-1.91a12.75,12.75,0,0,0,4.08-1.85,11.09,11.09,0,0,0,3.09-3.48,14.59,14.59,0,0,0,1.56-4c.07-.33,0-.45-.08-.54l-.05,0c-.05,0-.08,0-.1.07a9,9,0,0,1-.31,1c-1.53,4.09-4,6.55-8.36,7.57a14.27,14.27,0,0,1-.05-2.17A10.57,10.57,0,0,0,29.61,7a18.18,18.18,0,0,0,1.45-4.12.34.34,0,0,0,0-.2.33.33,0,0,0-.12-.16.21.21,0,0,0-.1,0,.34.34,0,0,0-.24,0A18.18,18.18,0,0,0,26.47,3.9,10.62,10.62,0,0,0,20.88,11a15.69,15.69,0,0,1-2.17-.06c1-4.37,3.48-6.79,7.56-8.3a9.1,9.1,0,0,1,1-.32c.06,0,.1-.05.06-.09l0-.06c-.08-.11-.2-.14-.54-.07a14.34,14.34,0,0,0-4,1.56,11,11,0,0,0-3.49,3.09,12.47,12.47,0,0,0-1.82,4c-.65-.1-1.28-.24-1.91-.4a13.33,13.33,0,0,1,8.34-8.19s0,0,0-.06S23.78,2,23.75,2a10.43,10.43,0,0,0-5,2.37,17.08,17.08,0,0,0-4.34,5.65L12.7,9.51a32.34,32.34,0,0,1-7.64-4c-.52-.45-.77-.51-1-.31a2.27,2.27,0,0,0-.4.42A10.72,10.72,0,0,0,2.12,8.7c0,.1.14.19.29.12.78-.35,4.13,1.11,5.1,1.5.63.24,1.27.47,1.91.68,1.33.45,2.68.85,4.05,1.18-.09.21-.16.43-.24.65-.23.67-.42,1.36-.58,2a33,33,0,0,1-7.74-2c-1.25-.51-2-.64-2.58-.36a.43.43,0,0,0-.14.45,8.46,8.46,0,0,0,.75,2.26c.3.61.47.41.75.35A3.21,3.21,0,0,1,5,15.63c.76.14,1.51.33,2.27.5a34.11,34.11,0,0,0,5,.68c-.15.91-.24,1.8-.3,2.65l-.64,0a34.54,34.54,0,0,1-6.16-1.07c-.09,0-.09.24,0,.31.41.45,1.19,1.27,1.37,1.46a3.52,3.52,0,0,0,1.63,1.08,9.19,9.19,0,0,0,2.5.34l1.26,0c0,.46,0,.9,0,1.31a9.12,9.12,0,0,0,.34,2.49A3.58,3.58,0,0,0,13.33,27c.2.18,1,1,1.47,1.37.07.06.33.07.3,0A36.05,36.05,0,0,1,14,22.18c0-.22,0-.45,0-.68.84-.06,1.74-.15,2.65-.29a33.21,33.21,0,0,0,.68,5.07c.16.76.35,1.51.5,2.27A3.21,3.21,0,0,1,18,29.82c-.07.29-.26.45.34.75a8.34,8.34,0,0,0,2.26.75c.25,0,.41-.05.45-.14.29-.54.16-1.33-.35-2.57a33.79,33.79,0,0,1-2.06-7.77,21.66,21.66,0,0,0,2.09-.6l.6-.21c.33,1.37.74,2.72,1.18,4.07.21.64.44,1.27.69,1.9.38,1,1.84,4.33,1.49,5.1-.07.16,0,.31.12.29a10.32,10.32,0,0,0,3.06-1.48,2.65,2.65,0,0,0,.42-.4c.2-.28.13-.53-.31-1.06a32.34,32.34,0,0,1-4-7.64c-.2-.56-.38-1.13-.54-1.7A17.14,17.14,0,0,0,29.12,14.75ZM26,5.1a13.22,13.22,0,0,1,3.95-2l.69-.21-.21.65a13,13,0,0,1-2,4,9.14,9.14,0,0,1-5.72,3.32A9.19,9.19,0,0,1,26,5.1Zm-5.39,7.75a18.51,18.51,0,0,0,0,2,2.17,2.17,0,0,0,0,.26c-.78.09-1.57.13-2.36.16,0-.8.07-1.59.16-2.36h.3A17.76,17.76,0,0,0,20.62,12.85Zm-5.83-.39c.72.13,1.44.25,2.17.32-.15.86-.24,1.7-.3,2.46-.69,0-1.39-.06-2.07-.13l-.33,0a21,21,0,0,1,.53-2.62ZM14,19.51c0-.85,0-1.73.1-2.62.84,0,1.69,0,2.52,0,0,.84,0,1.68,0,2.53C15.69,19.48,14.81,19.51,14,19.51Zm4.43-.29,0-.29c-.07-.7-.11-1.4-.13-2.11.76-.06,1.59-.15,2.45-.3.08.73.19,1.46.32,2.18a23.17,23.17,0,0,1-2.61.52Z" transform="translate(-2.12 -1.57)" fill="url(#linear-gradient)"/><path d="M39.53,13.38l.66-.72,2.36,2.74h.91l-2.82-3.23,2.61-2.85h-.84l-2.88,3.2V9.32h-.66V15.4h.66Z" transform="translate(-2.12 -1.57)" fill="#13182b"/><path d="M48.71,14.78H45.53v-2.1h2.8V12h-2.8V9.94h3.18V9.32H44.87V15.4h3.84Z" transform="translate(-2.12 -1.57)" fill="#13182b"/><path d="M51.22,10.4l2.08,3.1,2.21-3.11v5h.66V9.32h-.71l-2.12,3.17L51.27,9.32h-.71V15.4h.66Z" transform="translate(-2.12 -1.57)" fill="#13182b"/><path d="M62,14.78H58.78v-2.1h2.8V12h-2.8V9.94H62V9.32H58.13V15.4H62Z" transform="translate(-2.12 -1.57)" fill="#13182b"/><path d="M64.48,10.27l3.64,5.13h.74V9.32H68.2v5.12L64.57,9.32h-.74V15.4h.65Z" transform="translate(-2.12 -1.57)" fill="#13182b"/><path d="M73,15.4V9.94h2.15V9.32h-5v.62h2.16V15.4Z" transform="translate(-2.12 -1.57)" fill="#13182b"/><path d="M80.38,14.78H77.19v-2.1H80V12h-2.8V9.94h3.19V9.32H76.54V15.4h3.84Z" transform="translate(-2.12 -1.57)" fill="#13182b"/><path d="M82.89,13h1.55L86,15.4h.78l-1.66-2.52a1.56,1.56,0,0,0,.56-.2,1.68,1.68,0,0,0,.61-.66,2,2,0,0,0,.22-.93,1.76,1.76,0,0,0-.46-1.33,1.76,1.76,0,0,0-1.34-.43h-2.5v6.08h.65Zm0-3h1.77a1.15,1.15,0,0,1,1,.33,1.35,1.35,0,0,1,.27.87,1.14,1.14,0,0,1-.35.89,1.63,1.63,0,0,1-1.1.3H82.89Z" transform="translate(-2.12 -1.57)" fill="#13182b"/><path d="M89,9.32h-.65V15.4H89Z" transform="translate(-2.12 -1.57)" fill="#13182b"/><path d="M91.84,13.5h2.62l.73,1.9h.71L93.49,9.33h-.66l-2.42,6.08h.71Zm1.31-3.4,1.07,2.78H92.08Z" transform="translate(-2.12 -1.57)" fill="#13182b"/><path d="M97.91,10.27l3.64,5.13h.74V9.32h-.66v5.12L98,9.32h-.75V15.4h.65Z" transform="translate(-2.12 -1.57)" fill="#13182b"/><path d="M42.6,17.37A2.3,2.3,0,0,0,41,16.89H38.87V23h.66V20.65H41a2.32,2.32,0,0,0,1.57-.49,1.76,1.76,0,0,0,.54-1.39A1.78,1.78,0,0,0,42.6,17.37Zm-.17,1.83a.93.93,0,0,1-.2.41,1.06,1.06,0,0,1-.46.29A2.54,2.54,0,0,1,41,20H39.53V17.52H41a2.54,2.54,0,0,1,.82.11,1.06,1.06,0,0,1,.46.29,1,1,0,0,1,.21.42,2.12,2.12,0,0,1,0,.87Z" transform="translate(-2.12 -1.57)" fill="#13182b"/><path d="M48.22,22.35H45V20.24h2.8v-.63H45v-2.1h3.19v-.62H44.38V23h3.84Z" transform="translate(-2.12 -1.57)" fill="#13182b"/><path d="M53,20.24a1.59,1.59,0,0,0,.61-.65,2,2,0,0,0,.22-.94,1.79,1.79,0,0,0-.45-1.32,1.83,1.83,0,0,0-1.35-.45h-2.5V23h.66V20.52h1.55L53.36,23h.78l-1.65-2.53a1.59,1.59,0,0,0,.55-.2ZM50.23,17.5H52a1.17,1.17,0,0,1,1,.33,1.35,1.35,0,0,1,.25.87,1.13,1.13,0,0,1-.34.89,1.64,1.64,0,0,1-1.1.3H50.23Z" transform="translate(-2.12 -1.57)" fill="#13182b"/><path d="M55.25,23h1.91a2.77,2.77,0,0,0,2.13-.76A3.22,3.22,0,0,0,60,19.93a3.22,3.22,0,0,0-.72-2.28,2.77,2.77,0,0,0-2.13-.76H55.25Zm.65-5.47h1.21a2.16,2.16,0,0,1,1.69.58,2.67,2.67,0,0,1,.53,1.85,2.66,2.66,0,0,1-.53,1.84,2.16,2.16,0,0,1-1.69.58H55.9Z" transform="translate(-2.12 -1.57)" fill="#13182b"/><path d="M61.34,23l.73-1.89H64.7L65.43,23h.7l-2.42-6.08h-.65L60.63,23Zm2-5.3,1.07,2.78H62.32Z" transform="translate(-2.12 -1.57)" fill="#13182b"/><path d="M69.45,20.48h1.47v1.74a5.2,5.2,0,0,1-.68.17,5.52,5.52,0,0,1-.71.05,2.63,2.63,0,0,1-1.26-.27,1.58,1.58,0,0,1-.74-.83,4.26,4.26,0,0,1,0-2.82,1.62,1.62,0,0,1,.73-.82,2.65,2.65,0,0,1,1.27-.28,3,3,0,0,1,.94.15,6.9,6.9,0,0,1,.9.33v-.68a4.45,4.45,0,0,0-.93-.32,5.54,5.54,0,0,0-1-.1,3.39,3.39,0,0,0-1.56.35A2.23,2.23,0,0,0,67,18.2a4.12,4.12,0,0,0-.31,1.73A4.13,4.13,0,0,0,67,21.67a2.16,2.16,0,0,0,.94,1,3.13,3.13,0,0,0,1.56.35,4.52,4.52,0,0,0,1.1-.11,4.85,4.85,0,0,0,1-.36V19.85H69.45Z" transform="translate(-2.12 -1.57)" fill="#13182b"/><path d="M73.89,21.08h2.62l.73,1.9H78l-2.42-6.09h-.65L72.45,23h.72Zm1.32-3.41,1.07,2.78H74.13Z" transform="translate(-2.12 -1.57)" fill="#13182b"/><path d="M79.56,16.89h-.75V23h.66V17.84L83.11,23h.73V16.89h-.65V22Z" transform="translate(-2.12 -1.57)" fill="#13182b"/><path d="M87.9,20.48h1.47v1.73a4.34,4.34,0,0,1-.69.17,5.52,5.52,0,0,1-.71.05,2.5,2.5,0,0,1-1.26-.27,1.6,1.6,0,0,1-.74-.82,3.59,3.59,0,0,1-.23-1.42,3.5,3.5,0,0,1,.23-1.4,1.76,1.76,0,0,1,.74-.83A2.6,2.6,0,0,1,88,17.43a3.08,3.08,0,0,1,1,.14,7.34,7.34,0,0,1,.89.33v-.68a3.77,3.77,0,0,0-.93-.31,4.59,4.59,0,0,0-1-.1,3.23,3.23,0,0,0-1.56.34,2.2,2.2,0,0,0-1,1.05,4.28,4.28,0,0,0-.31,1.73,4.33,4.33,0,0,0,.31,1.74,2.23,2.23,0,0,0,1,1,3.13,3.13,0,0,0,1.56.35A5,5,0,0,0,89,22.94a5.21,5.21,0,0,0,1-.35V19.85H87.9Z" transform="translate(-2.12 -1.57)" fill="#13182b"/><path d="M93.31,16.89,90.88,23h.71l.73-1.89H95L95.68,23h.7L94,16.89Zm-.74,3.56,1.07-2.78,1.07,2.78Z" transform="translate(-2.12 -1.57)" fill="#13182b"/><path d="M97.91,17.84,101.55,23h.74V16.89h-.66V22L98,16.89h-.75V23h.66Z" transform="translate(-2.12 -1.57)" fill="#13182b"/><path d="M41.25,27.19a1,1,0,0,0,.34-.4,1.18,1.18,0,0,0,.12-.53,1.07,1.07,0,0,0-.31-.83,1.27,1.27,0,0,0-.89-.28H38.87v3.69h.61V27.45h.79l.86,1.39h.76l-1-1.49A1,1,0,0,0,41.25,27.19Zm-1.77-1.53h1a.57.57,0,0,1,.26,0,.68.68,0,0,1,.23.14.71.71,0,0,1,.14.47.57.57,0,0,1,0,.26.68.68,0,0,1-.14.23.83.83,0,0,1-.55.16h-.86Z" transform="translate(-2.12 -1.57)" fill="#595a5c"/><path d="M43,28.84h2.42v-.51H43.61V27.25h1.58v-.52H43.61V25.66h1.81v-.51H43Z" transform="translate(-2.12 -1.57)" fill="#595a5c"/><path d="M49.12,25.44a1.51,1.51,0,0,0-1-.29H46.68v3.69h.61V27.52h.85a1.41,1.41,0,0,0,1-.31,1.18,1.18,0,0,0,.35-.89A1.1,1.1,0,0,0,49.12,25.44Zm-.32,1.14a.57.57,0,0,1-.11.22.61.61,0,0,1-.24.15,1.27,1.27,0,0,1-.39.05h-.77V25.66h.77a1.23,1.23,0,0,1,.39.06.61.61,0,0,1,.24.15.57.57,0,0,1,.11.22,1,1,0,0,1,0,.25,1,1,0,0,1,0,.24Z" transform="translate(-2.12 -1.57)" fill="#595a5c"/><path d="M53.1,27.39a1.09,1.09,0,0,1-.24.77.85.85,0,0,1-.68.25.87.87,0,0,1-.36-.05.83.83,0,0,1-.32-.2,1.14,1.14,0,0,1-.23-.77V25.15h-.62v2.24a1.52,1.52,0,0,0,.4,1.15,1.61,1.61,0,0,0,1.15.38,1.66,1.66,0,0,0,.79-.17,1.14,1.14,0,0,0,.51-.51,1.89,1.89,0,0,0,.19-.85V25.15H53.1Z" transform="translate(-2.12 -1.57)" fill="#595a5c"/><path d="M57.41,27l-.22-.1.13-.09a1,1,0,0,0,.23-.24.66.66,0,0,0,.09-.39,1,1,0,0,0-.13-.53.87.87,0,0,0-.41-.35,1.81,1.81,0,0,0-.73-.12H55v3.69h1.5a1.92,1.92,0,0,0,.71-.11.9.9,0,0,0,.47-.35,1.06,1.06,0,0,0,0-1.1A.86.86,0,0,0,57.41,27Zm-1.8-1.31h.79a.93.93,0,0,1,.46.12.64.64,0,0,1,.17.35.63.63,0,0,1-.09.38.37.37,0,0,1-.22.14.84.84,0,0,1-.27,0h-.84Zm1.52,2.45a.54.54,0,0,1-.27.18,1.5,1.5,0,0,1-.37.05h-.87V27.18h.86l.27,0a.75.75,0,0,1,.24.08.46.46,0,0,1,.17.17.64.64,0,0,1,.07.33.75.75,0,0,1-.1.33Z" transform="translate(-2.12 -1.57)" fill="#595a5c"/><path d="M59.64,25.15H59v3.69H61.4v-.52H59.64Z" transform="translate(-2.12 -1.57)" fill="#595a5c"/><path d="M63,25.15h-.61v3.69H63Z" transform="translate(-2.12 -1.57)" fill="#595a5c"/><path d="M67.25,25.15h-.77L65,26.94V25.15h-.61v3.69H65v-1.2l.34-.37,1.24,1.57h.8l-1.62-2Z" transform="translate(-2.12 -1.57)" fill="#595a5c"/><path d="M71.05,25.15h-.62v3.69h.62Z" transform="translate(-2.12 -1.57)" fill="#595a5c"/><path d="M74.92,27.86l-2-2.71h-.59v3.69H73V26.1l2,2.74h.55V25.15h-.58Z" transform="translate(-2.12 -1.57)" fill="#595a5c"/><path d="M78.12,25.15H76.83v3.69h1.29a1.76,1.76,0,0,0,1.34-.46A2,2,0,0,0,79.9,27a2,2,0,0,0-.44-1.38A1.76,1.76,0,0,0,78.12,25.15ZM79,28a1.18,1.18,0,0,1-.91.32h-.62V25.66h.62A1.17,1.17,0,0,1,79,26a1.44,1.44,0,0,1,.28,1A1.45,1.45,0,0,1,79,28Z" transform="translate(-2.12 -1.57)" fill="#595a5c"/><path d="M83.56,25.3a1.87,1.87,0,0,0-.93-.21,1.64,1.64,0,0,0-1.28.48A2.07,2.07,0,0,0,80.91,27a2.61,2.61,0,0,0,.2,1.07,1.37,1.37,0,0,0,.58.63,1.91,1.91,0,0,0,.94.21,1.64,1.64,0,0,0,1.28-.48A2.07,2.07,0,0,0,84.35,27a2.56,2.56,0,0,0-.2-1.06,1.36,1.36,0,0,0-.59-.64Zm0,2.49a.84.84,0,0,1-.36.45,1.4,1.4,0,0,1-1.22,0,.84.84,0,0,1-.36-.45,2.66,2.66,0,0,1,0-1.58.81.81,0,0,1,.36-.45,1.17,1.17,0,0,1,.61-.14,1.19,1.19,0,0,1,.61.14.82.82,0,0,1,.36.44,2.14,2.14,0,0,1,.12.79,2.19,2.19,0,0,1-.12.8Z" transform="translate(-2.12 -1.57)" fill="#595a5c"/><path d="M88.08,27.86l-2-2.71h-.59v3.69h.59V26.1l2,2.74h.55V25.15h-.59Z" transform="translate(-2.12 -1.57)" fill="#595a5c"/><path d="M90,28.84H92.4v-.51H90.58V27.25h1.58v-.52H90.59V25.66H92.4v-.51H90Z" transform="translate(-2.12 -1.57)" fill="#595a5c"/><path d="M95.74,27.06a1.45,1.45,0,0,0-.34-.2,2.74,2.74,0,0,0-.4-.15,3.91,3.91,0,0,1-.41-.15.67.67,0,0,1-.28-.19.45.45,0,0,1-.09-.3.38.38,0,0,1,.08-.26.49.49,0,0,1,.22-.18,1,1,0,0,1,.39-.05,1.57,1.57,0,0,1,.37.05,2.71,2.71,0,0,1,.3.13l.28.17v-.6a2.84,2.84,0,0,0-.32-.14,1.49,1.49,0,0,0-.3-.09,1.79,1.79,0,0,0-.4,0,1.47,1.47,0,0,0-.58.09,1.06,1.06,0,0,0-.39.24,1.11,1.11,0,0,0-.22.34,1.21,1.21,0,0,0-.07.37,1.32,1.32,0,0,0,.08.44.92.92,0,0,0,.23.29,1.08,1.08,0,0,0,.31.19l.35.14.43.17a.79.79,0,0,1,.33.2.33.33,0,0,1,.1.14.36.36,0,0,1,0,.17.53.53,0,0,1,0,.22.59.59,0,0,1-.13.18.87.87,0,0,1-.52.14,2.12,2.12,0,0,1-.66-.11,1.78,1.78,0,0,1-.52-.29v.61a2.21,2.21,0,0,0,.35.16,1.78,1.78,0,0,0,.38.1l.49,0a1.4,1.4,0,0,0,.73-.16.9.9,0,0,0,.41-.41,1.11,1.11,0,0,0,.13-.54.85.85,0,0,0-.09-.44,1,1,0,0,0-.24-.29Z" transform="translate(-2.12 -1.57)" fill="#595a5c"/><path d="M97.85,25.15h-.62v3.69h.62Z" transform="translate(-2.12 -1.57)" fill="#595a5c"/><path d="M101.68,28.84h.64l-1.4-3.69h-.66l-1.43,3.69h.61l.36-1h1.51Zm-1.7-1.5.57-1.58.58,1.59Z" transform="translate(-2.12 -1.57)" fill="#595a5c"/><path d="M132.7,21.92s.43.39.35.61a1.35,1.35,0,0,1-1.51.61A2.33,2.33,0,0,1,130,21.09c0-1.26,1.31-2.29,2.39-3a7.06,7.06,0,0,1,3.82-.86,8,8,0,0,1,4.12,1.07,3.82,3.82,0,0,1,1.47,1.87,3.8,3.8,0,0,1,0,1.34,23.94,23.94,0,0,0,1.59-2.5c.5-1.07,1.24-2.19,1.1-3.37a2.13,2.13,0,0,0-.86-1.37,9,9,0,0,0-5-1.25,14.1,14.1,0,0,0-5.29.94,9.26,9.26,0,0,0-3.14,1.87,7.54,7.54,0,0,0-2.3,3.42,3.87,3.87,0,0,0,.25,2.66,4,4,0,0,0,4.21,1.71c.5-.16,1.18-.49,1.2-1a.71.71,0,0,0-.77-.73Z" transform="translate(-2.12 -1.57)" fill="#18d1ff"/><path d="M132.3,22.37s-.11-.34,0-.46a.72.72,0,0,1,.74-.17,1,1,0,0,1,.64.88,1.43,1.43,0,0,1-.82,1.13,4.1,4.1,0,0,1-3.06,0,3.73,3.73,0,0,1-2-1.59,5.27,5.27,0,0,1-.49-3.72,7.17,7.17,0,0,1,2.1-3.21,10.66,10.66,0,0,1,3.4-2.36,14.57,14.57,0,0,1,4.64-.88,15.87,15.87,0,0,1,4.07.18,7.58,7.58,0,0,1,2.41.83,4.78,4.78,0,0,1,.75.67,23.74,23.74,0,0,0-.6-3.79,6.88,6.88,0,0,0-1.5-3,4.27,4.27,0,0,0-2.13-1,11.54,11.54,0,0,0-4.46,0A16.88,16.88,0,0,0,131,7.76a17.42,17.42,0,0,0-3.94,2.88,11.32,11.32,0,0,0-2.38,3.21,9.57,9.57,0,0,0-.82,3.94,7.11,7.11,0,0,0,.7,3.15,7.17,7.17,0,0,0,1.92,2.32,7.39,7.39,0,0,0,2.29,1.28,6.44,6.44,0,0,0,2.45.37,4.67,4.67,0,0,0,2.79-.75,2,2,0,0,0,.7-1.54,1.37,1.37,0,0,0-.65-1,1.75,1.75,0,0,0-1.29-.26c-.38.11-.71.31-.75.64,0,.15.25.36.25.36Z" transform="translate(-2.12 -1.57)" fill="#0166fe"/><path d="M132.41,22.64s-.59-.11-.74-.34a1,1,0,0,1,0-1.09,2.22,2.22,0,0,1,1.76-.76,3.75,3.75,0,0,1,3.08,1,2.67,2.67,0,0,1,.27,2.7c-.41.81-1.47,1.12-2.34,1.38a9.73,9.73,0,0,1-4.26.21,11.34,11.34,0,0,1-4.12-1.56,12.7,12.7,0,0,1-3.6-3.25,12.49,12.49,0,0,1-2.14-4.74,11.67,11.67,0,0,1,0-4.71,13.81,13.81,0,0,1,2-4.88,11.23,11.23,0,0,1,2.88-2.87,12.48,12.48,0,0,1,3.28-1.6,11.13,11.13,0,0,1,2.91-.58,13.33,13.33,0,0,1,3.67.34,11.62,11.62,0,0,1,2.91,1A24.24,24.24,0,0,1,141,5.12a29.11,29.11,0,0,0-5.64,0,18.19,18.19,0,0,0-6.23,2.32,13.84,13.84,0,0,0-3.67,3.32,11.58,11.58,0,0,0-1.87,3.5,11,11,0,0,0-.55,4A6.78,6.78,0,0,0,125.38,23a9.16,9.16,0,0,0,3,1.77,8.08,8.08,0,0,0,2.81.41,5.35,5.35,0,0,0,2.38-.41A2.74,2.74,0,0,0,135,23.32a1.83,1.83,0,0,0-.3-1.63,2,2,0,0,0-1.54-.52,1.67,1.67,0,0,0-1.14.39.58.58,0,0,0-.19.56c.07.25.54.53.54.53h0ZM121.56,27.5l-1.35,1.3-.51.52L121.15,31l.49.6v0l-.33,0-.34,0-.2-.28-.21-.27-1.31-1.52a.08.08,0,0,0-.07,0h0v2.09l-.26,0-.26,0V27.5l.26,0,.26,0v1.85h.06l.1-.05.2-.19.11-.1,1.47-1.52.24,0Z" transform="translate(-2.12 -1.57)" fill="#0100cc"/><path d="M125.89,29.49a3,3,0,0,0-.07-.71,1.88,1.88,0,0,0-.3-.6,1.53,1.53,0,0,0-.55-.43,1.66,1.66,0,0,0-.7-.15,1.53,1.53,0,0,0-1.24.55,2.27,2.27,0,0,0-.44,1.46,2,2,0,0,0,.47,1.38,1.55,1.55,0,0,0,1.16.47,1.49,1.49,0,0,0,1.31-.73,2.27,2.27,0,0,0,.36-1.24Zm-1.69,2.16a2.22,2.22,0,0,1-1.6-.57,2.26,2.26,0,0,1,0-3.11,2.21,2.21,0,0,1,1.57-.57,2.44,2.44,0,0,1,1.56.49,1.88,1.88,0,0,1,.71,1.56,2.13,2.13,0,0,1-.63,1.6,2.33,2.33,0,0,1-1.65.6Z" transform="translate(-2.12 -1.57)" fill="#0100cc"/><path d="M131.13,27.5h.13c.08.79.13,1.28.15,1.46.07.59.12,1,.16,1.37s.1.74.17,1.26l-.28,0-.28,0c0-.4-.07-.78-.1-1.14s-.07-.72-.11-1.08-.07-.64-.1-.87l-.63,1.15c-.21.39-.39.72-.53,1s-.28.6-.41.88h-.06l-.33-.68c-.14-.3-.27-.56-.38-.77s-.25-.49-.42-.8l-.41-.78c-.07.57-.13,1.15-.2,1.73s-.09,1-.09,1.36l-.21,0-.22,0c.09-.52.2-1.25.33-2.21s.22-1.58.25-1.88h.15l.51,1,.57,1.06c.24.43.44.79.61,1.07l1.73-3.13Zm1.48,4.09V27.5l.26,0,.26,0v4.09h-.52Zm5.16-4.09v4.09h-.18l-.31-.36-2.58-2.86h-.06v3.22l-.17,0-.17,0V27.5h.23l2.84,3.08h.06V27.5l.17,0Zm1.12,4.09V27.5H141l0,.18,0,.18-.29-.05h-.24l-.6,0h-.46v1.5h1.22l.23,0v.33l-.3,0h-1.15v2l-.27,0Z" transform="translate(-2.12 -1.57)" fill="#0100cc"/><path d="M145.49,29.49a3,3,0,0,0-.08-.71,1.54,1.54,0,0,0-.3-.6,1.45,1.45,0,0,0-.55-.43,1.62,1.62,0,0,0-.69-.15,1.5,1.5,0,0,0-1.24.55,2.22,2.22,0,0,0-.45,1.46,1.93,1.93,0,0,0,.48,1.38,1.53,1.53,0,0,0,1.15.47,1.48,1.48,0,0,0,1.31-.73,2.2,2.2,0,0,0,.37-1.24Zm-1.7,2.16a2.24,2.24,0,0,1-1.6-.57,2,2,0,0,1-.6-1.54,2.07,2.07,0,0,1,.64-1.57,2.24,2.24,0,0,1,1.58-.57,2.4,2.4,0,0,1,1.55.49,1.85,1.85,0,0,1,.71,1.56,2.13,2.13,0,0,1-.63,1.6,2.29,2.29,0,0,1-1.65.6Z" transform="translate(-2.12 -1.57)" fill="#0100cc"/></svg>