<svg width="113" height="36" viewBox="0 0 113 36" fill="none" xmlns="http://www.w3.org/2000/svg">
<path d="M56.8159 8.03003C54.2254 8.03268 51.7418 9.06789 49.91 10.9085C48.0783 12.7491 47.048 15.2447 47.0454 17.8476C47.0454 17.9593 47.0454 18.0695 47.0539 18.1812C47.0539 18.1983 47.0539 18.2155 47.0539 18.2341V31.5986C47.0846 32.2422 47.3606 32.8493 47.8247 33.2939C48.2889 33.7385 48.9055 33.9866 49.5468 33.9866C50.188 33.9866 50.8047 33.7385 51.2688 33.2939C51.733 32.8493 52.009 32.2422 52.0396 31.5986V26.4086C53.3421 27.1413 54.7944 27.5644 56.2849 27.6453C57.7755 27.7261 59.2647 27.4626 60.6381 26.875C62.0116 26.2874 63.2327 25.3913 64.2077 24.2555C65.1827 23.1198 65.8857 21.7746 66.2626 20.3232C66.6396 18.8719 66.6805 17.3531 66.3822 15.8834C66.0839 14.4137 65.4543 13.0323 64.5418 11.8452C63.6293 10.6581 62.4582 9.69701 61.1184 9.03564C59.7786 8.37427 58.3058 8.03026 56.813 8.03003H56.8159ZM56.813 22.637C55.8701 22.637 54.9483 22.356 54.1642 21.8296C53.3802 21.3032 52.7691 20.5549 52.4082 19.6796C52.0474 18.8042 51.9529 17.8409 52.1369 16.9116C52.3209 15.9823 52.775 15.1287 53.4418 14.4587C54.1085 13.7887 54.9581 13.3324 55.8829 13.1475C56.8078 12.9627 57.7664 13.0576 58.6376 13.4202C59.5088 13.7828 60.2534 14.3968 60.7773 15.1846C61.3011 15.9725 61.5808 16.8987 61.5808 17.8462C61.5793 19.1163 61.0765 20.334 60.1827 21.2321C59.2889 22.1302 58.077 22.6354 56.813 22.637Z" fill="white"/>
<path d="M78.8568 8.03003C76.2663 8.03268 73.7827 9.06789 71.9509 10.9085C70.1192 12.7491 69.0889 15.2447 69.0863 17.8476C69.0863 17.9593 69.0863 18.0695 69.0948 18.1812C69.0948 18.1983 69.0948 18.2155 69.0948 18.2341V31.5986C69.0787 31.9377 69.1312 32.2764 69.2492 32.5944C69.3672 32.9125 69.5482 33.2031 69.7813 33.4488C70.0144 33.6944 70.2946 33.89 70.6051 34.0236C70.9156 34.1572 71.2499 34.2261 71.5877 34.2261C71.9255 34.2261 72.2597 34.1572 72.5702 34.0236C72.8807 33.89 73.161 33.6944 73.3941 33.4488C73.6271 33.2031 73.8081 32.9125 73.9261 32.5944C74.0441 32.2764 74.0967 31.9377 74.0805 31.5986V26.4086C75.383 27.1413 76.8353 27.5644 78.3258 27.6453C79.8164 27.7261 81.3056 27.4626 82.6791 26.875C84.0525 26.2874 85.2736 25.3913 86.2486 24.2555C87.2236 23.1198 87.9266 21.7746 88.3036 20.3232C88.6805 18.8719 88.7214 17.3531 88.4231 15.8834C88.1248 14.4137 87.4952 13.0323 86.5827 11.8452C85.6702 10.6581 84.4991 9.69701 83.1593 9.03564C81.8195 8.37427 80.3467 8.03026 78.8539 8.03003H78.8568ZM78.8539 22.637C77.911 22.637 76.9892 22.356 76.2051 21.8296C75.4211 21.3032 74.81 20.5549 74.4491 19.6796C74.0883 18.8042 73.9938 17.8409 74.1778 16.9116C74.3618 15.9823 74.8159 15.1287 75.4827 14.4587C76.1494 13.7887 76.999 13.3324 77.9238 13.1475C78.8487 12.9627 79.8073 13.0576 80.6785 13.4202C81.5497 13.7828 82.2943 14.3968 82.8182 15.1846C83.3421 15.9725 83.6217 16.8987 83.6217 17.8462C83.6202 19.1163 83.1174 20.334 82.2236 21.2321C81.3298 22.1302 80.118 22.6354 78.8539 22.637Z" fill="white"/>
<path d="M22.5019 17.8464C22.5032 16.1343 22.0585 14.4517 21.2121 12.9657C20.3656 11.4798 19.147 10.2424 17.6772 9.37634C16.2073 8.51031 14.5376 8.04586 12.8338 8.02916C11.13 8.01247 9.45146 8.44412 7.9651 9.28118V3.94081C7.9651 3.27572 7.70216 2.63787 7.23412 2.16758C6.76609 1.69729 6.13131 1.43309 5.46941 1.43309H5.45802C4.79612 1.43309 4.16132 1.69729 3.69329 2.16758C3.22525 2.63787 2.96231 3.27572 2.96231 3.94081V25.026C2.96231 25.6911 3.22525 26.329 3.69329 26.7992C4.16132 27.2695 4.79612 27.5337 5.45802 27.5337H5.46941C6.13131 27.5337 6.76609 27.2695 7.23412 26.7992C7.70216 26.329 7.9651 25.6911 7.9651 25.026V17.8435C7.9878 16.5875 8.50059 15.3906 9.39302 14.5108C10.2854 13.631 11.4861 13.1386 12.7363 13.1398C13.9866 13.1409 15.1863 13.6354 16.0772 14.5168C16.968 15.3983 17.4787 16.596 17.4991 17.8521C17.4991 17.8635 17.4991 17.875 17.4991 17.8864V25.026C17.4991 25.6911 17.7621 26.329 18.2301 26.7992C18.6982 27.2695 19.333 27.5337 19.9949 27.5337H20.0062C20.6681 27.5337 21.3029 27.2695 21.771 26.7992C22.239 26.329 22.5019 25.6911 22.5019 25.026V17.885C22.5019 17.8736 22.5019 17.8621 22.5019 17.8507V17.8464Z" fill="white"/>
<path d="M44.5411 18.1898V10.5306C44.5411 9.86555 44.2782 9.22769 43.8101 8.7574C43.3421 8.28711 42.7073 8.02292 42.0454 8.02292H42.0326C41.371 8.02368 40.7366 8.28812 40.2687 8.75825C39.8009 9.22838 39.5377 9.86578 39.5369 10.5306V18.2027C39.5153 19.4587 39.0036 20.656 38.1119 21.5366C37.2203 22.4171 36.0201 22.9106 34.7699 22.9106C33.5197 22.9106 32.3195 22.4171 31.4278 21.5366C30.5362 20.656 30.0245 19.4587 30.0029 18.2027V10.5306C30.0017 9.8659 29.7384 9.22871 29.2706 8.75866C28.8029 8.28862 28.1687 8.02405 27.5072 8.02292H27.4915C26.8296 8.02292 26.1948 8.28711 25.7268 8.7574C25.2587 9.22769 24.9958 9.86555 24.9958 10.5306V18.197C24.9992 20.3628 25.7142 22.4668 27.0296 24.1825C28.3451 25.8982 30.1874 27.1296 32.2706 27.6854V31.6072C32.3013 32.2509 32.5773 32.858 33.0414 33.3026C33.5056 33.7472 34.1222 33.9952 34.7635 33.9952C35.4047 33.9952 36.0214 33.7472 36.4856 33.3026C36.9497 32.858 37.2257 32.2509 37.2563 31.6072V27.6854C39.3393 27.1293 41.1813 25.8979 42.4965 24.1822C43.8116 22.4665 44.5264 20.3626 44.5297 18.197" fill="white"/>
<path d="M101.607 19.7745L103.006 19.096L105 18.1284L105.666 17.8049L108.75 16.3092C109.227 16.0754 109.595 15.6638 109.775 15.1618C109.955 14.6599 109.933 14.1071 109.714 13.6211C109.714 13.6082 109.704 13.5953 109.698 13.5825C109.693 13.5696 109.683 13.5524 109.676 13.5367C109.623 13.4279 109.566 13.3205 109.51 13.2146C109.486 13.1702 109.463 13.1244 109.439 13.0801C109.386 12.9827 109.329 12.8868 109.271 12.7938C109.24 12.7408 109.208 12.6864 109.176 12.6335C109.127 12.5562 109.077 12.4803 109.033 12.4059C108.989 12.3315 108.942 12.2628 108.891 12.1998C108.839 12.1368 108.815 12.0967 108.778 12.0466C108.713 11.9579 108.648 11.8706 108.582 11.7847C108.562 11.7589 108.542 11.736 108.522 11.7103C107.726 10.7143 106.744 9.88463 105.631 9.26837L105.607 9.2555C105.479 9.18537 105.351 9.11237 105.22 9.05225C105.153 9.01933 105.077 8.98927 105.016 8.95635C104.955 8.92343 104.874 8.88764 104.798 8.85615C104.67 8.80032 104.54 8.74736 104.409 8.69584L104.368 8.67867C103.178 8.22323 101.911 8.00681 100.639 8.04171H100.555C100.442 8.04171 100.331 8.05317 100.217 8.06176L100.039 8.07462C99.9534 8.08178 99.8694 8.09182 99.7839 8.10184C99.6984 8.11186 99.6101 8.12186 99.5233 8.13331L99.3338 8.16338C99.227 8.18056 99.1187 8.19916 99.0119 8.22063L98.8623 8.25212C98.7455 8.27645 98.6273 8.30364 98.5119 8.3337L98.3694 8.37377C98.2583 8.40383 98.1472 8.43532 98.0361 8.46968L97.9691 8.48973L97.8167 8.54125L97.6002 8.61568C97.4948 8.6529 97.3922 8.6944 97.2897 8.73591L97.1586 8.78744C97.0143 8.84755 96.8718 8.91149 96.7313 8.97924L96.7142 8.98782C96.5594 9.0613 96.4074 9.13908 96.2584 9.22115H96.2512C94.5535 10.1469 93.1699 11.5615 92.2783 13.2833L92.2627 13.3134C92.2142 13.405 92.1701 13.4994 92.1202 13.5996C92.096 13.6512 92.0704 13.7027 92.0462 13.7557C92.0219 13.8086 92.0006 13.8616 91.9763 13.9131C91.935 14.009 91.8923 14.1035 91.8553 14.1994L91.8439 14.2294C91.1219 16.03 90.9522 18.0065 91.3567 19.9047V19.9133C91.3918 20.0803 91.4317 20.2463 91.4763 20.4114V20.4286C91.5172 20.5803 91.5618 20.7311 91.6103 20.8809C91.6245 20.9253 91.6402 20.9697 91.6558 21.014C91.6914 21.1199 91.7285 21.2244 91.7684 21.3289C91.7954 21.4005 91.8239 21.4721 91.8524 21.5422C91.8724 21.5923 91.8909 21.6424 91.9122 21.6853C91.9208 21.7068 91.9322 21.7283 91.9407 21.7497C91.9877 21.8571 92.0362 21.963 92.0832 22.0675L92.1487 22.2106C92.2028 22.3194 92.2584 22.4253 92.3154 22.5313C92.3396 22.5756 92.3638 22.6214 92.388 22.6658C92.4407 22.7617 92.4977 22.8562 92.5547 22.9521C92.5875 23.0065 92.6202 23.0623 92.6544 23.1167C92.6886 23.1711 92.7512 23.2598 92.7968 23.3385C92.8424 23.4173 92.8923 23.4817 92.9393 23.5504C92.9863 23.6191 93.0105 23.6477 93.0461 23.6935C93.1131 23.7837 93.18 23.8739 93.2498 23.9626L93.304 24.0285C94.1048 25.0229 95.092 25.8496 96.2099 26.4617L96.2512 26.4832C96.3737 26.5505 96.4976 26.6149 96.623 26.675C96.6956 26.7108 96.7654 26.7437 96.8424 26.7766C96.9193 26.8096 96.9763 26.8396 97.0447 26.8697C97.1786 26.9284 97.3153 26.9827 97.4535 27.0343L97.4763 27.0429C98.6662 27.4918 99.9323 27.7018 101.203 27.6612H101.298C101.406 27.6612 101.516 27.6483 101.624 27.6412L101.814 27.6269C101.896 27.6183 101.978 27.6082 102.06 27.5982C102.143 27.5882 102.24 27.5768 102.329 27.5639L102.513 27.5338C102.623 27.5152 102.731 27.4966 102.839 27.4737L102.998 27.4394C103.114 27.4136 103.231 27.3864 103.348 27.3563L103.398 27.3449L103.54 27.3034C103.619 27.2805 103.697 27.2604 103.775 27.2361C103.906 27.196 104.037 27.1526 104.167 27.1058L104.237 27.0815C104.379 27.03 104.515 26.9756 104.65 26.9198L104.738 26.8811C104.861 26.8282 104.983 26.7738 105.104 26.7151L105.15 26.695L105.203 26.6679C105.292 26.6235 105.381 26.5777 105.468 26.5319L105.58 26.4718C105.658 26.4288 105.737 26.383 105.815 26.3386L105.958 26.2556L106.143 26.1397L106.325 26.0194L106.449 25.9336C106.527 25.8792 106.606 25.8248 106.681 25.769L106.741 25.7232C107.472 25.1743 108.123 24.5254 108.674 23.7951C109.045 23.262 109.196 22.6051 109.095 21.9624C108.994 21.3198 108.649 20.7415 108.132 20.3493C107.616 19.957 106.968 19.7813 106.325 19.8591C105.682 19.9369 105.095 20.2621 104.686 20.7664C104.678 20.7764 104.668 20.7864 104.661 20.7965C104.596 20.8814 104.527 20.9639 104.456 21.0441L104.412 21.0927C104.341 21.17 104.27 21.2459 104.193 21.3175L104.129 21.3776C104.057 21.4434 103.986 21.5064 103.911 21.568C103.878 21.5951 103.844 21.6209 103.811 21.6467C103.745 21.6982 103.678 21.7483 103.61 21.7898C103.542 21.8313 103.512 21.8557 103.468 21.8872C103.423 21.9186 103.352 21.9616 103.292 21.9959C103.233 22.0303 103.166 22.0661 103.1 22.099C103.035 22.1319 102.992 22.1562 102.936 22.182L102.794 22.2464C102.724 22.2765 102.651 22.3051 102.584 22.3323L102.442 22.381C102.361 22.4082 102.28 22.4339 102.197 22.4568L102.073 22.4912C102.006 22.5084 101.938 22.5227 101.871 22.537L101.728 22.5656L101.545 22.5928C101.489 22.6014 101.432 22.6085 101.376 22.6143L101.234 22.6257C101.167 22.6257 101.099 22.6343 101.032 22.6357H100.922C100.842 22.6357 100.764 22.6357 100.686 22.6357H100.61C100.522 22.6357 100.433 22.6229 100.347 22.6114L100.294 22.6042C100.201 22.5914 100.109 22.5771 100.016 22.5599L99.9677 22.5499C99.8765 22.5313 99.7854 22.5098 99.6956 22.4869L99.6329 22.4683C99.5489 22.4454 99.4663 22.4196 99.3851 22.3924L99.2925 22.3581C99.2227 22.3323 99.15 22.3065 99.0845 22.2779C99.0403 22.2593 98.9976 22.2393 98.9535 22.2192C98.9093 22.1992 98.8452 22.1706 98.7925 22.1448C98.7398 22.119 98.6799 22.0861 98.6244 22.0546L98.5104 21.9916C98.4435 21.953 98.3794 21.9115 98.3153 21.8685L98.2369 21.817C98.1657 21.7684 98.0945 21.7183 98.029 21.6653L97.972 21.6224L97.9207 21.578L99.321 20.8995L101.607 19.7745ZM97.1729 14.8678C97.2313 14.7948 97.2925 14.7247 97.3538 14.6531L97.3894 14.6116L97.4806 14.5157L97.5745 14.4212L97.6287 14.3683C97.6856 14.3139 97.7455 14.2609 97.8053 14.2094L97.8894 14.1378C97.9421 14.0949 97.9962 14.0548 98.0503 14.0133L98.17 13.9246L98.3124 13.8315C98.3637 13.7986 98.4164 13.7642 98.4692 13.7327L98.5959 13.6612C98.6557 13.6283 98.717 13.5953 98.7797 13.5639L98.9093 13.5023C98.9701 13.4737 99.0308 13.447 99.0916 13.4222L99.2483 13.362L99.4079 13.3062C99.4706 13.2848 99.5347 13.2661 99.5988 13.2475L99.7412 13.2089C99.8081 13.1917 99.8765 13.1774 99.9434 13.1631L100.086 13.1344L100.27 13.1073L100.438 13.0872L100.58 13.0758C100.647 13.0758 100.716 13.0672 100.782 13.0657H100.892C100.971 13.0657 101.05 13.0657 101.13 13.0657H101.204C101.292 13.0657 101.381 13.0786 101.469 13.0901L101.522 13.0972L101.664 13.1173L101.807 13.1416L101.854 13.1516C101.949 13.1707 102.039 13.1917 102.126 13.2146L102.187 13.2332C102.271 13.2561 102.354 13.2819 102.436 13.3105L102.527 13.3434C102.599 13.3692 102.67 13.395 102.738 13.425L102.868 13.4823C102.922 13.5066 102.976 13.5309 103.029 13.5581C103.082 13.5853 103.141 13.6168 103.196 13.6469L103.311 13.7113C103.376 13.7499 103.442 13.7914 103.506 13.833L103.584 13.8845L96.1544 17.49C96.1677 17.3172 96.19 17.1452 96.2213 16.9748C96.2213 16.9519 96.2284 16.9304 96.2327 16.9075C96.237 16.8846 96.2427 16.8617 96.2484 16.8374C96.2654 16.7529 96.2854 16.6699 96.3082 16.5869C96.3167 16.5568 96.3253 16.5268 96.3338 16.4981C96.3552 16.4237 96.378 16.355 96.4036 16.2763C96.4179 16.2348 96.4336 16.1947 96.4492 16.1532C96.4649 16.1117 96.4948 16.0344 96.519 15.9757C96.5432 15.917 96.5674 15.8669 96.5931 15.8139C96.6187 15.761 96.633 15.7266 96.6543 15.6837C96.6885 15.6164 96.7241 15.552 96.7598 15.4862L96.8082 15.4003C96.8523 15.3259 96.8994 15.2571 96.9506 15.1813L96.9877 15.1255C97.0404 15.0482 97.0959 14.9737 97.1529 14.8993L97.1828 14.8592" fill="white"/>
</svg>
