<svg id="Layer_1" data-name="Layer 1" xmlns="http://www.w3.org/2000/svg" xmlns:xlink="http://www.w3.org/1999/xlink" viewBox="0 0 143.42 30.12"><defs><linearGradient id="linear-gradient" x1="8.32" y1="10.09" x2="29.37" y2="31.14" gradientTransform="matrix(1, 0, 0, -1, 0, 32)" gradientUnits="userSpaceOnUse"><stop offset="0" stop-color="#1751a4"/><stop offset="0.52" stop-color="#307f75"/><stop offset="1" stop-color="#49ab48"/></linearGradient></defs><path d="M130.58,20.35s.43.39.35.61a1.35,1.35,0,0,1-1.51.61,2.32,2.32,0,0,1-1.54-2.05c0-1.26,1.31-2.29,2.39-3a7.07,7.07,0,0,1,3.82-.86,8,8,0,0,1,4.12,1.07,3.82,3.82,0,0,1,1.47,1.87,3.77,3.77,0,0,1,0,1.34,24,24,0,0,0,1.59-2.5c.5-1.07,1.24-2.19,1.1-3.37a2.15,2.15,0,0,0-.86-1.37,9,9,0,0,0-5-1.25,14.06,14.06,0,0,0-5.29.94,9.2,9.2,0,0,0-3.14,1.87,7.49,7.49,0,0,0-2.3,3.42,3.82,3.82,0,0,0,.25,2.66,4,4,0,0,0,4.21,1.71c.5-.16,1.18-.49,1.2-1a.71.71,0,0,0-.69-.73h-.08Z" transform="translate(-0.54 0.03)" fill="#18d1ff"/><path d="M130.18,20.8s-.11-.34,0-.46a.72.72,0,0,1,.74-.17,1,1,0,0,1,.64.88,1.44,1.44,0,0,1-.82,1.13,4.15,4.15,0,0,1-3.06,0,3.75,3.75,0,0,1-2-1.59,5.28,5.28,0,0,1-.49-3.72,7.2,7.2,0,0,1,2.1-3.21,10.71,10.71,0,0,1,3.4-2.36,14.73,14.73,0,0,1,4.64-.88,15.85,15.85,0,0,1,4.07.18,7.66,7.66,0,0,1,2.41.83,5.28,5.28,0,0,1,.75.67,24.31,24.31,0,0,0-.6-3.79,6.81,6.81,0,0,0-1.5-3,4.25,4.25,0,0,0-2.13-1,11.54,11.54,0,0,0-4.46,0,16.84,16.84,0,0,0-5,1.88,17.42,17.42,0,0,0-3.94,2.88,11.37,11.37,0,0,0-2.38,3.21,9.53,9.53,0,0,0-.82,3.94,7.14,7.14,0,0,0,.7,3.15,7.17,7.17,0,0,0,1.92,2.32A7.49,7.49,0,0,0,126.65,23a6.41,6.41,0,0,0,2.45.37,4.67,4.67,0,0,0,2.79-.75,2,2,0,0,0,.7-1.54,1.35,1.35,0,0,0-.65-1,1.77,1.77,0,0,0-1.29-.26c-.38.11-.71.31-.75.64,0,.15.25.36.25.36Z" transform="translate(-0.54 0.03)" fill="#0166fe"/><path d="M130.29,21.07s-.59-.11-.74-.34a1,1,0,0,1,0-1.09,2.2,2.2,0,0,1,1.76-.76,3.75,3.75,0,0,1,3.08,1,2.68,2.68,0,0,1,.27,2.7c-.41.81-1.47,1.12-2.34,1.38a9.73,9.73,0,0,1-4.26.21,11.53,11.53,0,0,1-4.12-1.56,12.7,12.7,0,0,1-3.6-3.25,12.42,12.42,0,0,1-2.14-4.74,11.67,11.67,0,0,1,0-4.71,13.92,13.92,0,0,1,2-4.88,11.23,11.23,0,0,1,2.88-2.87,12.48,12.48,0,0,1,3.28-1.6A11.13,11.13,0,0,1,129.27,0a13.33,13.33,0,0,1,3.67.34,11.52,11.52,0,0,1,2.91,1,23.63,23.63,0,0,1,3,2.23,29.52,29.52,0,0,0-5.64,0A18.13,18.13,0,0,0,127,5.87a13.84,13.84,0,0,0-3.67,3.32,11.58,11.58,0,0,0-1.87,3.5,10.86,10.86,0,0,0-.55,4,6.8,6.8,0,0,0,2.34,4.74,9.12,9.12,0,0,0,3,1.77,8.15,8.15,0,0,0,2.81.41,5.26,5.26,0,0,0,2.38-.41,2.71,2.71,0,0,0,1.43-1.45,1.83,1.83,0,0,0-.3-1.63A2,2,0,0,0,131,19.6a1.63,1.63,0,0,0-1.14.39.59.59,0,0,0-.19.56c.07.25.54.53.54.53h0Zm-10.85,4.86-1.35,1.3-.51.52L119,29.43l.49.6h-.67l-.2-.28-.21-.27L117.13,28a.09.09,0,0,0-.07,0h0v2.09h-.52V25.93h.52v1.85h.06l.1-.05.2-.19.11-.1L119,25.92h.44Z" transform="translate(-0.54 0.03)" fill="#0100cc"/><path d="M123.77,27.92a3.35,3.35,0,0,0-.07-.71,1.69,1.69,0,0,0-.3-.6,1.64,1.64,0,0,0-.55-.43,1.69,1.69,0,0,0-.7-.15,1.52,1.52,0,0,0-1.24.55,2.25,2.25,0,0,0-.44,1.46,2,2,0,0,0,.47,1.38,1.56,1.56,0,0,0,1.16.47,1.48,1.48,0,0,0,1.31-.73A2.27,2.27,0,0,0,123.77,27.92Zm-1.69,2.16a2.13,2.13,0,0,1-1.6-3.68,2.21,2.21,0,0,1,1.57-.57,2.44,2.44,0,0,1,1.56.49,1.9,1.9,0,0,1,.71,1.56,2.12,2.12,0,0,1-.63,1.6,2.33,2.33,0,0,1-1.65.6Z" transform="translate(-0.54 0.03)" fill="#0100cc"/><path d="M129,25.93h.13c.08.79.13,1.28.15,1.46.07.59.12,1,.16,1.37s.1.74.17,1.26h-.56c0-.4-.07-.78-.1-1.14s-.07-.72-.11-1.08-.07-.64-.1-.87l-.63,1.15c-.21.39-.39.72-.53,1s-.28.6-.41.88h-.06l-.33-.68c-.14-.3-.27-.56-.38-.77s-.25-.49-.42-.8l-.41-.78c-.07.57-.13,1.15-.2,1.73a11,11,0,0,0-.09,1.36h-.43c.09-.52.2-1.25.33-2.21s.22-1.58.25-1.88h.15l.51,1,.57,1.06c.24.43.44.79.61,1.07L129,25.93ZM130.49,30V25.93H131V30Zm5.16-4.09V30h-.18l-.31-.36-2.58-2.86h-.06V30h-.34V25.93h.23L135.25,29h.06V25.93h.34ZM136.77,30V25.93h2.11v.36l-.29-.05h-1.3v1.5h1.45v.33h-1.45v2H137Z" transform="translate(-0.54 0.03)" fill="#0100cc"/><path d="M143.37,27.92a3.36,3.36,0,0,0-.08-.71,1.54,1.54,0,0,0-.3-.6,1.45,1.45,0,0,0-.55-.43,1.65,1.65,0,0,0-.69-.15,1.51,1.51,0,0,0-1.24.55,2.21,2.21,0,0,0-.45,1.46,1.93,1.93,0,0,0,.48,1.38,1.55,1.55,0,0,0,1.15.47,1.48,1.48,0,0,0,1.31-.73,2.28,2.28,0,0,0,.37-1.24Zm-1.7,2.16a2.24,2.24,0,0,1-1.6-.57,2,2,0,0,1-.6-1.54,2.07,2.07,0,0,1,.64-1.57,2.24,2.24,0,0,1,1.58-.57,2.39,2.39,0,0,1,1.55.49,1.86,1.86,0,0,1,.71,1.56,2.12,2.12,0,0,1-.63,1.6A2.28,2.28,0,0,1,141.67,30.08Z" transform="translate(-0.54 0.03)" fill="#0100cc"/><path d="M27.53,13.08a10.47,10.47,0,0,0,2.37-5,.15.15,0,0,0-.08-.1s-.05,0-.06,0a13.3,13.3,0,0,1-8.24,8.35c-.16-.63-.3-1.26-.4-1.91a12.46,12.46,0,0,0,4.07-1.84,11.07,11.07,0,0,0,3.09-3.48,14.29,14.29,0,0,0,1.56-4c.07-.33,0-.45-.07-.54l-.06,0s-.08,0-.09.07a9.1,9.1,0,0,1-.32,1c-1.52,4.09-3.95,6.55-8.36,7.57a17.43,17.43,0,0,1-.05-2.17A10.61,10.61,0,0,0,28,5.33a18.15,18.15,0,0,0,1.44-4.12.27.27,0,0,0,0-.2.28.28,0,0,0-.12-.16.18.18,0,0,0-.1,0,.31.31,0,0,0-.23,0,18.18,18.18,0,0,0-4.12,1.45,10.63,10.63,0,0,0-5.6,7.09,15.73,15.73,0,0,1-2.17-.06c1-4.37,3.48-6.79,7.56-8.3a7.39,7.39,0,0,1,1-.32c.06,0,.1-.05.07-.1l0-.05c-.09-.11-.21-.14-.55-.07a14.34,14.34,0,0,0-4,1.56,11,11,0,0,0-3.48,3.09,12.39,12.39,0,0,0-1.83,4c-.64-.1-1.27-.24-1.9-.4A13.26,13.26,0,0,1,22.27.5s0,0,0-.06-.08-.08-.11-.08a10.43,10.43,0,0,0-5,2.37,17.21,17.21,0,0,0-4.34,5.65c-.56-.17-1.12-.35-1.67-.54a32.4,32.4,0,0,1-7.65-4C3,3.41,2.7,3.35,2.42,3.55A2.65,2.65,0,0,0,2,4,10.32,10.32,0,0,0,.54,7c0,.1.13.19.29.12C1.6,6.8,5,8.26,5.93,8.65c.62.24,1.26.47,1.9.68,1.34.45,2.68.85,4.05,1.18l-.24.65c-.22.67-.42,1.36-.58,2a33.54,33.54,0,0,1-7.74-2c-1.25-.51-2-.64-2.57-.36a.41.41,0,0,0-.14.45,8.44,8.44,0,0,0,.74,2.26c.3.61.47.41.76.35A3,3,0,0,1,3.38,14c.76.14,1.51.33,2.26.5a33,33,0,0,0,5,.67c-.14.92-.24,1.81-.29,2.66l-.64,0a34.69,34.69,0,0,1-6.17-1.07c-.09,0-.08.24,0,.31.4.45,1.19,1.27,1.36,1.46a3.55,3.55,0,0,0,1.64,1.08,9.07,9.07,0,0,0,2.49.34l1.27,0c0,.46,0,.9,0,1.3a9.13,9.13,0,0,0,.33,2.5,3.6,3.6,0,0,0,1.08,1.63c.19.18,1,1,1.46,1.37.07.06.33.07.31,0a34.87,34.87,0,0,1-1.07-6.17l0-.68c.85-.06,1.74-.15,2.65-.29a34.69,34.69,0,0,0,.68,5.07c.17.76.36,1.51.5,2.27a3,3,0,0,1,.11,1.27c-.06.29-.26.45.35.75a8.12,8.12,0,0,0,2.26.75.43.43,0,0,0,.45-.14c.28-.55.16-1.33-.36-2.57A34.31,34.31,0,0,1,17,19.17c.71-.17,1.41-.37,2.09-.6l.61-.22c.32,1.38.73,2.73,1.17,4.07.22.65.44,1.28.69,1.91.38,1,1.84,4.33,1.5,5.1-.07.16,0,.31.11.29a10.45,10.45,0,0,0,3.06-1.48,2.72,2.72,0,0,0,.43-.4c.19-.28.13-.53-.32-1.06a32.72,32.72,0,0,1-4-7.64c-.19-.56-.37-1.13-.54-1.7A17.14,17.14,0,0,0,27.53,13.08ZM24.42,3.43a13.34,13.34,0,0,1,3.95-2l.69-.21-.21.65a12.77,12.77,0,0,1-2,4,9.11,9.11,0,0,1-5.71,3.32A9.22,9.22,0,0,1,24.42,3.43ZM19,11.18c0,.66-.05,1.31,0,2a2.17,2.17,0,0,0,0,.26c-.77.09-1.56.13-2.36.16,0-.8.07-1.59.16-2.37l.31,0A17.58,17.58,0,0,0,19,11.18Zm-5.82-.39c.71.13,1.43.25,2.17.32-.15.86-.25,1.7-.31,2.46-.69,0-1.38-.06-2.06-.13l-.34,0A21.21,21.21,0,0,1,13.21,10.79Zm-.83,7.05c0-.85,0-1.73.1-2.62q1.26,0,2.52,0,0,1.26,0,2.52C14.11,17.81,13.23,17.84,12.38,17.84Zm4.42-.29,0-.29c-.07-.7-.11-1.4-.13-2.11.76-.06,1.6-.15,2.46-.3.07.73.18,1.46.32,2.18a23.34,23.34,0,0,1-2.62.52Z" transform="translate(-0.54 0.03)" fill="url(#linear-gradient)"/><path d="M37.94,11.71,38.6,11,41,13.73h.91L39.06,10.5l2.6-2.85h-.83l-2.89,3.2V7.65h-.65v6.08h.65Z" transform="translate(-0.54 0.03)" fill="#fff"/><path d="M47.13,13.11H43.94V11h2.8v-.64h-2.8V8.27h3.19V7.65H43.29v6.08h3.84Z" transform="translate(-0.54 0.03)" fill="#fff"/><path d="M49.63,8.73l2.08,3.1,2.22-3.11v5h.65V7.65h-.71l-2.12,3.17L49.69,7.65H49v6.08h.65Z" transform="translate(-0.54 0.03)" fill="#fff"/><path d="M60.38,13.11H57.2V11H60v-.64H57.2V8.27h3.18V7.65H56.54v6.08h3.84Z" transform="translate(-0.54 0.03)" fill="#fff"/><path d="M62.9,8.6l3.63,5.13h.74V7.65h-.65v5.12L63,7.65h-.75v6.08h.66Z" transform="translate(-0.54 0.03)" fill="#fff"/><path d="M71.45,13.73V8.27h2.14V7.65h-5v.62h2.15v5.46Z" transform="translate(-0.54 0.03)" fill="#fff"/><path d="M78.79,13.11H75.61V11h2.8v-.64h-2.8V8.27h3.18V7.65H75v6.08h3.84Z" transform="translate(-0.54 0.03)" fill="#fff"/><path d="M81.3,11.28h1.55l1.59,2.45h.77l-1.65-2.52a1.59,1.59,0,0,0,.55-.2,1.68,1.68,0,0,0,.61-.66,1.91,1.91,0,0,0,.22-.94,1.79,1.79,0,0,0-.45-1.32,1.79,1.79,0,0,0-1.35-.43h-2.5v6.08h.66Zm0-3h1.77a1.19,1.19,0,0,1,1,.32,1.45,1.45,0,0,1,.26.88,1.15,1.15,0,0,1-.34.89,1.66,1.66,0,0,1-1.1.3H81.31Z" transform="translate(-0.54 0.03)" fill="#fff"/><path d="M87.46,7.65H86.8v6.08h.66Z" transform="translate(-0.54 0.03)" fill="#fff"/><path d="M90.25,11.83h2.63l.73,1.9h.7L91.9,7.66h-.65l-2.43,6.08h.71Zm1.32-3.4,1.06,2.77H90.5Z" transform="translate(-0.54 0.03)" fill="#fff"/><path d="M96.33,8.6,100,13.73h.74V7.65h-.66v5.12L96.42,7.65h-.75v6.08h.66Z" transform="translate(-0.54 0.03)" fill="#fff"/><path d="M41,15.7a2.28,2.28,0,0,0-1.56-.48H37.29V21.3h.65V19h1.5A2.3,2.3,0,0,0,41,18.49a1.74,1.74,0,0,0,.54-1.39A1.78,1.78,0,0,0,41,15.7Zm-.16,1.83a1.07,1.07,0,0,1-.21.41,1,1,0,0,1-.46.29,2.48,2.48,0,0,1-.81.11H37.94V15.85h1.43a2.48,2.48,0,0,1,.81.11,1,1,0,0,1,.46.29.93.93,0,0,1,.21.42,1.83,1.83,0,0,1,0,.87Z" transform="translate(-0.54 0.03)" fill="#fff"/><path d="M46.63,20.68H43.45V18.57h2.8v-.63h-2.8v-2.1h3.18v-.62H42.79V21.3h3.84Z" transform="translate(-0.54 0.03)" fill="#fff"/><path d="M51.45,18.57a1.59,1.59,0,0,0,.61-.65,1.91,1.91,0,0,0,.22-.94,1.79,1.79,0,0,0-.45-1.32,1.82,1.82,0,0,0-1.34-.45H48v6.08h.65V18.85h1.55l1.59,2.45h.77L50.9,18.77A1.59,1.59,0,0,0,51.45,18.57Zm-2.81-2.74h1.77a1.19,1.19,0,0,1,1,.32,1.47,1.47,0,0,1,.26.88,1.15,1.15,0,0,1-.35.89,1.61,1.61,0,0,1-1.09.3H48.64Z" transform="translate(-0.54 0.03)" fill="#fff"/><path d="M53.66,21.3h1.91a2.8,2.8,0,0,0,2.14-.77,3.2,3.2,0,0,0,.71-2.27A3.21,3.21,0,0,0,57.71,16a2.79,2.79,0,0,0-2.14-.76H53.66Zm.66-5.47h1.2a2.19,2.19,0,0,1,1.7.58,2.72,2.72,0,0,1,.53,1.85,2.71,2.71,0,0,1-.53,1.84,2.19,2.19,0,0,1-1.7.58h-1.2Z" transform="translate(-0.54 0.03)" fill="#fff"/><path d="M59.76,21.3l.73-1.89h2.62l.73,1.89h.7l-2.41-6.08h-.66L59.05,21.3Zm2-5.3,1.07,2.77H60.73Z" transform="translate(-0.54 0.03)" fill="#fff"/><path d="M67.87,18.81h1.46v1.74a3.84,3.84,0,0,1-.67.16,4.34,4.34,0,0,1-.71.06,2.67,2.67,0,0,1-1.27-.27,1.62,1.62,0,0,1-.74-.83,3.57,3.57,0,0,1-.23-1.41,3.57,3.57,0,0,1,.23-1.41,1.6,1.6,0,0,1,.74-.82,2.61,2.61,0,0,1,1.26-.28,3.09,3.09,0,0,1,1,.15,7.34,7.34,0,0,1,.89.33v-.69a4.23,4.23,0,0,0-.93-.31,5.34,5.34,0,0,0-1-.1,3.36,3.36,0,0,0-1.56.35,2.25,2.25,0,0,0-1,1.05,4.28,4.28,0,0,0-.31,1.73A4.29,4.29,0,0,0,65.36,20a2.23,2.23,0,0,0,1,1,3.13,3.13,0,0,0,1.56.35A5,5,0,0,0,69,21.28a4.66,4.66,0,0,0,1-.36V18.18H67.87Z" transform="translate(-0.54 0.03)" fill="#fff"/><path d="M72.3,19.41h2.63l.73,1.9h.7L74,15.22h-.66l-2.42,6.09h.71ZM73.62,16l1.07,2.78H72.54Z" transform="translate(-0.54 0.03)" fill="#fff"/><path d="M78,15.22h-.74V21.3h.65V16.17l3.64,5.13h.74V15.22H81.6v5.12Z" transform="translate(-0.54 0.03)" fill="#fff"/><path d="M86.31,18.81h1.47v1.73a4,4,0,0,1-.68.17,5.81,5.81,0,0,1-.72.05,2.52,2.52,0,0,1-1.26-.27,1.62,1.62,0,0,1-.73-.82,3.6,3.6,0,0,1-.24-1.42,3.34,3.34,0,0,1,.24-1.4,1.61,1.61,0,0,1,.73-.83,2.75,2.75,0,0,1,1.26-.27,3,3,0,0,1,1,.15,6.9,6.9,0,0,1,.9.33v-.68a3.91,3.91,0,0,0-.93-.31,4.77,4.77,0,0,0-1-.11,3.36,3.36,0,0,0-1.56.35,2.18,2.18,0,0,0-.94,1.05,4.29,4.29,0,0,0-.32,1.73A4.33,4.33,0,0,0,83.81,20a2.16,2.16,0,0,0,.94,1,3.13,3.13,0,0,0,1.56.35,5.08,5.08,0,0,0,1.1-.12,5.44,5.44,0,0,0,1-.35V18.18H86.31Z" transform="translate(-0.54 0.03)" fill="#fff"/><path d="M91.72,15.22,89.3,21.3H90l.73-1.89h2.62l.73,1.89h.7l-2.41-6.08ZM91,18.77,92.06,16l1.07,2.77Z" transform="translate(-0.54 0.03)" fill="#fff"/><path d="M96.32,16.17,100,21.3h.74V15.22H100v5.12l-3.63-5.12h-.74V21.3h.65Z" transform="translate(-0.54 0.03)" fill="#fff"/><path d="M39.66,25.52a.94.94,0,0,0,.34-.4,1.21,1.21,0,0,0,.12-.53,1,1,0,0,0-.31-.83,1.24,1.24,0,0,0-.88-.28H37.29v3.69h.61V25.78h.78l.86,1.39h.76l-1-1.49A.86.86,0,0,0,39.66,25.52ZM37.9,24h1a.6.6,0,0,1,.26,0,.64.64,0,0,1,.22.14.71.71,0,0,1,.14.47.57.57,0,0,1,0,.26.7.7,0,0,1-.15.23.8.8,0,0,1-.54.16H37.9Z" transform="translate(-0.54 0.03)" fill="#c1c1c1"/><path d="M41.41,27.17h2.42v-.51H42V25.58H43.6v-.52H42V24h1.8v-.51H41.41Z" transform="translate(-0.54 0.03)" fill="#c1c1c1"/><path d="M47.54,23.77a1.53,1.53,0,0,0-1-.29H45.09v3.69h.61V25.85h.86a1.42,1.42,0,0,0,1-.31,1.22,1.22,0,0,0,.27-.41,1.12,1.12,0,0,0,.07-.48A1.1,1.1,0,0,0,47.54,23.77Zm-.33,1.14a.65.65,0,0,1-.11.22.51.51,0,0,1-.23.15,1.74,1.74,0,0,1-.39,0H45.7V24h.78a1.32,1.32,0,0,1,.39.06.51.51,0,0,1,.23.15.46.46,0,0,1,.11.22,1,1,0,0,1,0,.25A.67.67,0,0,1,47.21,24.91Z" transform="translate(-0.54 0.03)" fill="#c1c1c1"/><path d="M51.51,25.72a1.14,1.14,0,0,1-.23.77,1,1,0,0,1-.32.2.87.87,0,0,1-.36,0,.92.92,0,0,1-.37,0,.72.72,0,0,1-.31-.2,1.09,1.09,0,0,1-.23-.77V23.48h-.63v2.24a1.56,1.56,0,0,0,.4,1.15,1.63,1.63,0,0,0,1.15.38,1.7,1.7,0,0,0,.8-.17,1.14,1.14,0,0,0,.51-.51,1.78,1.78,0,0,0,.18-.85V23.48h-.59Z" transform="translate(-0.54 0.03)" fill="#c1c1c1"/><path d="M55.83,25.3a1.07,1.07,0,0,0-.22-.1l.13-.09a1,1,0,0,0,.22-.24.76.76,0,0,0,.1-.39,1.13,1.13,0,0,0-.13-.54.94.94,0,0,0-.42-.34,1.81,1.81,0,0,0-.73-.12H53.42v3.69h1.49a1.92,1.92,0,0,0,.71-.11.93.93,0,0,0,.48-.35,1,1,0,0,0,.17-.61.94.94,0,0,0-.12-.49A.86.86,0,0,0,55.83,25.3ZM54,24h.78a.83.83,0,0,1,.46.12.53.53,0,0,1,.17.35.56.56,0,0,1-.08.38.44.44,0,0,1-.22.14.9.9,0,0,1-.28,0H54Zm1.51,2.45a.5.5,0,0,1-.27.18,1.11,1.11,0,0,1-.36,0H54V25.51h.86l.27,0a.68.68,0,0,1,.24.08.42.42,0,0,1,.18.17.63.63,0,0,1,.06.33A.64.64,0,0,1,55.54,26.44Z" transform="translate(-0.54 0.03)" fill="#c1c1c1"/><path d="M58.06,23.48h-.62v3.69h2.38v-.52H58.06Z" transform="translate(-0.54 0.03)" fill="#c1c1c1"/><path d="M61.46,23.48h-.62v3.69h.62Z" transform="translate(-0.54 0.03)" fill="#c1c1c1"/><path d="M65.67,23.48h-.78L63.4,25.27V23.48h-.61v3.69h.61V26l.34-.37L65,27.17h.8l-1.62-2Z" transform="translate(-0.54 0.03)" fill="#c1c1c1"/><path d="M69.46,23.48h-.61v3.69h.61Z" transform="translate(-0.54 0.03)" fill="#c1c1c1"/><path d="M73.34,26.19l-2-2.71h-.58v3.69h.58V24.43l2,2.74h.55V23.48h-.58Z" transform="translate(-0.54 0.03)" fill="#c1c1c1"/><path d="M76.54,23.48h-1.3v3.69h1.3a1.75,1.75,0,0,0,1.33-.46,2,2,0,0,0,.44-1.39,2,2,0,0,0-.44-1.38A1.73,1.73,0,0,0,76.54,23.48Zm.85,2.86a1.21,1.21,0,0,1-.92.32h-.62V24h.63a1.15,1.15,0,0,1,.91.32,1.44,1.44,0,0,1,.29,1A1.5,1.5,0,0,1,77.39,26.34Z" transform="translate(-0.54 0.03)" fill="#c1c1c1"/><path d="M82,23.63a1.8,1.8,0,0,0-.94-.21,1.62,1.62,0,0,0-1.27.48,2.08,2.08,0,0,0-.45,1.43,2.61,2.61,0,0,0,.2,1.07,1.39,1.39,0,0,0,.59.63,1.89,1.89,0,0,0,.93.21,1.64,1.64,0,0,0,1.28-.48,2.08,2.08,0,0,0,.45-1.43,2.42,2.42,0,0,0-.21-1.06A1.34,1.34,0,0,0,82,23.63Zm0,2.49a.91.91,0,0,1-.37.45,1.4,1.4,0,0,1-.61.14,1.43,1.43,0,0,1-.61-.14.84.84,0,0,1-.36-.45,2.66,2.66,0,0,1,0-1.58.85.85,0,0,1,.36-.45A1.19,1.19,0,0,1,81,24a1.15,1.15,0,0,1,.61.14.88.88,0,0,1,.37.44,2.36,2.36,0,0,1,.11.79A2.42,2.42,0,0,1,82,26.12Z" transform="translate(-0.54 0.03)" fill="#c1c1c1"/><path d="M86.5,26.19l-2-2.71H84v3.69h.58V24.43l2,2.74h.55V23.48H86.5Z" transform="translate(-0.54 0.03)" fill="#c1c1c1"/><path d="M88.39,27.17h2.42v-.51H89V25.58h1.58v-.52H89V24h1.81v-.51H88.39Z" transform="translate(-0.54 0.03)" fill="#c1c1c1"/><path d="M94.16,25.39a1.51,1.51,0,0,0-.35-.2,2.74,2.74,0,0,0-.4-.15,3.91,3.91,0,0,1-.41-.15.64.64,0,0,1-.27-.19.45.45,0,0,1-.1-.3.5.5,0,0,1,.08-.27.66.66,0,0,1,.23-.17,1,1,0,0,1,.38-.05,1.57,1.57,0,0,1,.37.05,1.69,1.69,0,0,1,.31.13l.28.17v-.6L94,23.52a1.58,1.58,0,0,0-.31-.09,1.7,1.7,0,0,0-.39,0,1.41,1.41,0,0,0-.58.09,1,1,0,0,0-.39.24,1,1,0,0,0-.22.34,1,1,0,0,0-.07.37,1,1,0,0,0,.08.44.89.89,0,0,0,.22.29,1.23,1.23,0,0,0,.31.19l.35.14.44.17a.94.94,0,0,1,.33.2.71.71,0,0,1,.1.14.55.55,0,0,1,0,.17.54.54,0,0,1,0,.22.46.46,0,0,1-.13.18.84.84,0,0,1-.51.14,2.19,2.19,0,0,1-.67-.11,1.91,1.91,0,0,1-.52-.29v.61a2.83,2.83,0,0,0,.36.16,1.64,1.64,0,0,0,.38.1,3.91,3.91,0,0,0,.49,0,1.44,1.44,0,0,0,.73-.16,1,1,0,0,0,.41-.41,1.23,1.23,0,0,0,.13-.54,1.12,1.12,0,0,0-.09-.44A1,1,0,0,0,94.16,25.39Z" transform="translate(-0.54 0.03)" fill="#c1c1c1"/><path d="M96.26,23.48h-.61v3.69h.61Z" transform="translate(-0.54 0.03)" fill="#c1c1c1"/><path d="M100.09,27.17h.64l-1.4-3.69h-.65l-1.44,3.69h.61l.36-1h1.52Zm-1.7-1.5L99,24.09l.57,1.59Z" transform="translate(-0.54 0.03)" fill="#c1c1c1"/></svg>