<svg width="36" height="37" viewBox="0 0 36 37" fill="none" xmlns="http://www.w3.org/2000/svg">
<path d="M27.2638 8.25183C24.4182 6.32112 21.461 4.58187 18.3388 3.14048C15.9667 2.04481 13.5307 1.12466 10.9298 0.736394C9.78093 0.566193 8.63207 0.513005 7.48853 0.741713C5.22273 1.19381 3.68029 2.58201 2.62717 4.58187C1.54214 6.64556 1.01026 8.87413 0.653901 11.1506C0.260311 13.661 0.159253 16.1981 0.180529 18.7351C0.180529 19.3096 0.17521 19.8787 0.180529 20.4531C0.212441 22.6019 0.39328 24.7347 0.754957 26.8516C1.11132 28.9419 1.63256 30.9737 2.63249 32.8565C3.28138 34.0745 4.10579 35.1383 5.32379 35.8723C6.66944 36.6807 8.12147 36.8882 9.65328 36.8137C11.2861 36.7392 12.8552 36.3669 14.403 35.8723C16.5571 35.1808 18.6367 34.2926 20.61 33.1916C22.6364 32.0587 24.6416 30.8832 26.6096 29.6493C28.2531 28.6174 29.7955 27.4314 31.2316 26.1176C32.5028 24.9528 33.6835 23.7082 34.5399 22.1924C35.7047 20.134 35.8536 18.0224 34.8377 15.863C34.2207 14.544 33.3112 13.4323 32.306 12.3952C30.7795 10.8155 29.0668 9.47515 27.2638 8.25183ZM5.74929 7.20935C5.76525 5.27331 7.30238 4.04468 8.92992 4.04468C10.5149 4.03936 12.1637 5.29459 12.0893 7.39019C12.0255 9.08156 10.616 10.4113 8.87674 10.39C7.15345 10.3634 5.73334 9.01242 5.74929 7.20935ZM15.5837 25.2985C12.0201 25.3358 8.94588 22.4689 8.95652 18.682C8.96716 15.0811 11.7914 12.1079 15.5571 12.1026C19.3388 12.092 22.1577 15.1609 22.1524 18.6926C22.1471 22.3519 19.2218 25.2985 15.5837 25.2985Z" fill="#AB22AF"/>
</svg>
