<svg width="113" height="36" viewBox="0 0 113 36" fill="none" xmlns="http://www.w3.org/2000/svg">
<path d="M56.8161 7.42114C54.2256 7.4238 51.7419 8.459 49.9102 10.2996C48.0784 12.1402 47.0482 14.6358 47.0455 17.2388C47.0455 17.3504 47.0455 17.4606 47.0541 17.5723C47.0541 17.5894 47.0541 17.6066 47.0541 17.6252V30.9897C47.0847 31.6334 47.3608 32.2404 47.8249 32.685C48.289 33.1297 48.9057 33.3777 49.5469 33.3777C50.1882 33.3777 50.8048 33.1297 51.269 32.685C51.7331 32.2404 52.0091 31.6334 52.0398 30.9897V25.7997C53.3423 26.5325 54.7945 26.9555 56.2851 27.0364C57.7757 27.1173 59.2649 26.8538 60.6383 26.2661C62.0117 25.6785 63.2328 24.7824 64.2079 23.6467C65.1829 22.5109 65.8859 21.1657 66.2628 19.7144C66.6398 18.263 66.6807 16.7442 66.3824 15.2745C66.0841 13.8048 65.4545 12.4234 64.542 11.2363C63.6295 10.0493 62.4584 9.08812 61.1186 8.42675C59.7788 7.76538 58.3059 7.42137 56.8132 7.42114H56.8161ZM56.8132 22.0281C55.8702 22.0281 54.9485 21.7471 54.1644 21.2207C53.3804 20.6943 52.7692 19.9461 52.4084 19.0707C52.0475 18.1953 51.9531 17.232 52.1371 16.3027C52.321 15.3734 52.7751 14.5198 53.4419 13.8498C54.1087 13.1798 54.9582 12.7235 55.8831 12.5386C56.8079 12.3538 57.7666 12.4487 58.6377 12.8113C59.5089 13.1739 60.2535 13.7879 60.7774 14.5757C61.3013 15.3636 61.581 16.2898 61.581 17.2373C61.5794 18.5075 61.0767 19.7251 60.1829 20.6232C59.2891 21.5213 58.0772 22.0266 56.8132 22.0281Z" fill="#202020"/>
<path d="M78.857 7.42114C76.2665 7.4238 73.7828 8.459 71.9511 10.2996C70.1193 12.1402 69.0891 14.6358 69.0864 17.2388C69.0864 17.3504 69.0864 17.4606 69.095 17.5723C69.095 17.5894 69.095 17.6066 69.095 17.6252V30.9897C69.0789 31.3288 69.1314 31.6675 69.2494 31.9856C69.3674 32.3036 69.5484 32.5942 69.7815 32.8399C70.0145 33.0856 70.2948 33.2811 70.6053 33.4147C70.9158 33.5484 71.2501 33.6172 71.5878 33.6172C71.9256 33.6172 72.2598 33.5484 72.5703 33.4147C72.8808 33.2811 73.1611 33.0856 73.3942 32.8399C73.6273 32.5942 73.8083 32.3036 73.9263 31.9856C74.0443 31.6675 74.0968 31.3288 74.0807 30.9897V25.7997C75.3832 26.5325 76.8354 26.9555 78.326 27.0364C79.8166 27.1173 81.3058 26.8538 82.6792 26.2661C84.0526 25.6785 85.2737 24.7824 86.2488 23.6467C87.2238 22.5109 87.9268 21.1657 88.3037 19.7144C88.6807 18.263 88.7216 16.7442 88.4233 15.2745C88.125 13.8048 87.4954 12.4234 86.5829 11.2363C85.6704 10.0493 84.4993 9.08812 83.1595 8.42675C81.8197 7.76538 80.3468 7.42137 78.8541 7.42114H78.857ZM78.8541 22.0281C77.9111 22.0281 76.9893 21.7471 76.2053 21.2207C75.4212 20.6943 74.8101 19.9461 74.4493 19.0707C74.0884 18.1953 73.994 17.232 74.178 16.3027C74.3619 15.3734 74.816 14.5198 75.4828 13.8498C76.1496 13.1798 76.9991 12.7235 77.924 12.5387C78.8488 12.3538 79.8075 12.4487 80.6786 12.8113C81.5498 13.1739 82.2944 13.7879 82.8183 14.5758C83.3422 15.3636 83.6219 16.2898 83.6219 17.2373C83.6203 18.5075 83.1176 19.7251 82.2238 20.6232C81.33 21.5213 80.1181 22.0266 78.8541 22.0281Z" fill="#202020"/>
<path d="M22.502 17.2375C22.5033 15.5254 22.0586 13.8428 21.2122 12.3568C20.3657 10.8709 19.1471 9.63347 17.6773 8.76744C16.2074 7.90141 14.5377 7.43696 12.8339 7.42026C11.13 7.40357 9.45155 7.83521 7.96519 8.67228V3.33191C7.96519 2.66682 7.70225 2.02897 7.23422 1.55868C6.76618 1.08839 6.1314 0.824188 5.4695 0.824188H5.45811C4.79622 0.824188 4.16141 1.08839 3.69338 1.55868C3.22535 2.02897 2.9624 2.66682 2.9624 3.33191V24.4171C2.9624 25.0822 3.22535 25.7201 3.69338 26.1903C4.16141 26.6606 4.79622 26.9248 5.45811 26.9248H5.4695C6.1314 26.9248 6.76618 26.6606 7.23422 26.1903C7.70225 25.7201 7.96519 25.0822 7.96519 24.4171V17.2346C7.98789 15.9786 8.50068 14.7817 9.39311 13.9019C10.2855 13.0221 11.4862 12.5297 12.7364 12.5309C13.9867 12.532 15.1864 13.0265 16.0773 13.9079C16.9681 14.7894 17.4788 15.9871 17.4992 17.2432C17.4992 17.2546 17.4992 17.2661 17.4992 17.2775V24.4171C17.4992 25.0822 17.7622 25.7201 18.2302 26.1903C18.6982 26.6606 19.333 26.9248 19.9949 26.9248H20.0063C20.6682 26.9248 21.303 26.6606 21.7711 26.1903C22.2391 25.7201 22.502 25.0822 22.502 24.4171V17.2761C22.502 17.2647 22.502 17.2532 22.502 17.2418V17.2375Z" fill="#202020"/>
<path d="M44.5413 17.5809V9.92175C44.5413 9.25666 44.2783 8.6188 43.8103 8.14851C43.3423 7.67822 42.7075 7.41403 42.0456 7.41403H42.0328C41.3711 7.41479 40.7368 7.67924 40.2689 8.14936C39.801 8.61949 39.5378 9.2569 39.5371 9.92175V17.5938C39.5155 18.8498 39.0037 20.0471 38.1121 20.9277C37.2204 21.8083 36.0203 22.3017 34.7701 22.3017C33.5199 22.3017 32.3196 21.8083 31.428 20.9277C30.5364 20.0471 30.0247 18.8498 30.003 17.5938V9.92175C30.0019 9.25701 29.7386 8.61982 29.2708 8.14978C28.803 7.67973 28.1689 7.41517 27.5073 7.41403H27.4917C26.8298 7.41403 26.195 7.67822 25.7269 8.14851C25.2589 8.6188 24.996 9.25666 24.996 9.92175V17.5881C24.9994 19.7539 25.7144 21.858 27.0298 23.5737C28.3452 25.2894 30.1876 26.5207 32.2708 27.0765V30.9984C32.3014 31.642 32.5774 32.2491 33.0416 32.6937C33.5057 33.1383 34.1224 33.3863 34.7636 33.3863C35.4049 33.3863 36.0216 33.1383 36.4857 32.6937C36.9499 32.2491 37.2258 31.642 37.2565 30.9984V27.0765C39.3394 26.5204 41.1815 25.289 42.4966 23.5733C43.8118 21.8576 44.5266 19.7537 44.5299 17.5881" fill="#202020"/>
<path d="M101.607 19.1656L103.006 18.4871L105 17.5195L105.666 17.196L108.75 15.7003C109.227 15.4665 109.595 15.0549 109.775 14.5529C109.955 14.051 109.933 13.4982 109.714 13.0122C109.714 12.9993 109.704 12.9864 109.698 12.9736C109.693 12.9607 109.683 12.9435 109.676 12.9278C109.623 12.819 109.566 12.7116 109.51 12.6057C109.486 12.5613 109.463 12.5155 109.439 12.4712C109.386 12.3738 109.329 12.2779 109.271 12.1849C109.24 12.1319 109.208 12.0775 109.176 12.0246C109.127 11.9473 109.077 11.8714 109.033 11.797C108.989 11.7226 108.942 11.6539 108.891 11.5909C108.839 11.5279 108.815 11.4878 108.778 11.4377C108.713 11.349 108.649 11.2617 108.582 11.1758C108.562 11.15 108.542 11.1271 108.522 11.1014C107.726 10.1054 106.745 9.27573 105.631 8.65947L105.607 8.6466C105.479 8.57646 105.351 8.50347 105.22 8.44335C105.153 8.41043 105.077 8.38037 105.016 8.34745C104.955 8.31453 104.874 8.27873 104.798 8.24724C104.67 8.19142 104.54 8.13846 104.409 8.08693L104.368 8.06977C103.178 7.61433 101.911 7.39791 100.639 7.43281H100.555C100.442 7.43281 100.331 7.44427 100.217 7.45286L100.039 7.46572C99.9535 7.47288 99.8695 7.48291 99.784 7.49293C99.6985 7.50295 99.6102 7.51296 99.5233 7.52441L99.3339 7.55448C99.227 7.57166 99.1188 7.59025 99.0119 7.61173L98.8623 7.64322C98.7455 7.66755 98.6273 7.69474 98.512 7.72479L98.3695 7.76487C98.2584 7.79493 98.1473 7.82642 98.0362 7.86077L97.9692 7.88082L97.8168 7.93235L97.6003 8.00678C97.4949 8.04399 97.3923 8.0855 97.2898 8.12701L97.1587 8.17853C97.0143 8.23865 96.8719 8.30259 96.7314 8.37034L96.7142 8.37892C96.5594 8.4524 96.4075 8.53018 96.2584 8.61225H96.2513C94.5535 9.53798 93.17 10.9526 92.2784 12.6744L92.2627 12.7045C92.2143 12.7961 92.1702 12.8905 92.1203 12.9907C92.0961 13.0423 92.0705 13.0938 92.0462 13.1468C92.022 13.1997 92.0006 13.2527 91.9764 13.3042C91.9351 13.4001 91.8924 13.4946 91.8554 13.5905L91.844 13.6205C91.122 15.4211 90.9523 17.3976 91.3568 19.2958V19.3044C91.3919 19.4714 91.4318 19.6374 91.4764 19.8025V19.8197C91.5172 19.9714 91.5619 20.1222 91.6103 20.272C91.6246 20.3164 91.6402 20.3608 91.6559 20.4051C91.6915 20.511 91.7286 20.6155 91.7685 20.72C91.7955 20.7916 91.824 20.8632 91.8525 20.9333C91.8724 20.9834 91.8909 21.0335 91.9123 21.0764C91.9208 21.0979 91.9323 21.1194 91.9408 21.1408C91.9878 21.2482 92.0363 21.3541 92.0833 21.4586L92.1488 21.6017C92.2029 21.7105 92.2585 21.8164 92.3155 21.9224C92.3397 21.9667 92.3639 22.0125 92.3881 22.0569C92.4408 22.1528 92.4978 22.2473 92.5548 22.3432C92.5875 22.3976 92.6203 22.4534 92.6545 22.5078C92.6887 22.5622 92.7513 22.6509 92.7969 22.7296C92.8425 22.8084 92.8924 22.8728 92.9394 22.9415C92.9864 23.0102 93.0106 23.0388 93.0462 23.0846C93.1132 23.1748 93.1801 23.265 93.2499 23.3537L93.304 23.4196C94.1048 24.414 95.0921 25.2407 96.21 25.8528L96.2513 25.8743C96.3738 25.9416 96.4977 26.006 96.6231 26.0661C96.6957 26.1019 96.7655 26.1348 96.8424 26.1677C96.9193 26.2007 96.9764 26.2307 97.0447 26.2608C97.1786 26.3195 97.3154 26.3738 97.4536 26.4254L97.4763 26.434C98.6663 26.8828 99.9323 27.0929 101.203 27.0523H101.298C101.406 27.0523 101.516 27.0394 101.624 27.0323L101.814 27.018C101.897 27.0094 101.978 26.9993 102.06 26.9893C102.143 26.9793 102.24 26.9679 102.33 26.955L102.513 26.9249C102.623 26.9063 102.731 26.8877 102.84 26.8648L102.998 26.8305C103.114 26.8047 103.231 26.7775 103.348 26.7474L103.398 26.736L103.54 26.6945C103.619 26.6716 103.697 26.6515 103.775 26.6272C103.906 26.5871 104.037 26.5437 104.167 26.4969L104.237 26.4726C104.379 26.4211 104.515 26.3667 104.65 26.3109L104.738 26.2722C104.861 26.2193 104.983 26.1649 105.104 26.1062L105.15 26.0861L105.203 26.059C105.292 26.0146 105.381 25.9688 105.468 25.923L105.58 25.8629C105.659 25.8199 105.737 25.7741 105.815 25.7297L105.958 25.6467L106.143 25.5308L106.325 25.4105L106.449 25.3247C106.528 25.2703 106.606 25.2159 106.681 25.1601L106.741 25.1143C107.472 24.5654 108.123 23.9165 108.674 23.1862C109.045 22.6531 109.196 21.9961 109.095 21.3535C108.994 20.7109 108.649 20.1326 108.133 19.7404C107.616 19.3481 106.968 19.1724 106.325 19.2502C105.683 19.328 105.095 19.6532 104.686 20.1575C104.679 20.1675 104.669 20.1775 104.661 20.1876C104.596 20.2725 104.528 20.355 104.456 20.4352L104.412 20.4838C104.341 20.5611 104.27 20.637 104.193 20.7086L104.129 20.7687C104.057 20.8345 103.986 20.8975 103.911 20.9591C103.878 20.9862 103.844 21.012 103.811 21.0378C103.746 21.0893 103.679 21.1394 103.61 21.1809C103.542 21.2224 103.512 21.2468 103.468 21.2783C103.424 21.3097 103.352 21.3527 103.293 21.387C103.233 21.4214 103.166 21.4572 103.1 21.4901C103.035 21.523 102.992 21.5473 102.936 21.5731L102.794 21.6375C102.724 21.6676 102.651 21.6962 102.585 21.7234L102.442 21.7721C102.361 21.7993 102.28 21.825 102.197 21.8479L102.073 21.8823C102.006 21.8995 101.938 21.9138 101.871 21.9281L101.728 21.9567L101.545 21.9839C101.489 21.9925 101.432 21.9996 101.377 22.0054L101.234 22.0168C101.167 22.0168 101.099 22.0254 101.032 22.0268H100.922C100.842 22.0268 100.764 22.0268 100.686 22.0268H100.61C100.522 22.0268 100.434 22.014 100.347 22.0025L100.294 21.9953C100.201 21.9825 100.109 21.9682 100.016 21.951L99.9677 21.941C99.8766 21.9224 99.7854 21.9009 99.6957 21.878L99.633 21.8594C99.549 21.8365 99.4663 21.8107 99.3851 21.7835L99.2925 21.7492C99.2227 21.7234 99.1501 21.6976 99.0846 21.669C99.0404 21.6504 98.9977 21.6304 98.9535 21.6103C98.9094 21.5903 98.8453 21.5616 98.7926 21.5359C98.7399 21.5101 98.68 21.4772 98.6245 21.4457L98.5105 21.3827C98.4436 21.3441 98.3795 21.3026 98.3154 21.2596L98.237 21.2081C98.1658 21.1595 98.0946 21.1094 98.029 21.0564L97.972 21.0135L97.9208 20.9691L99.3211 20.2906L101.607 19.1656ZM97.1729 14.2589C97.2313 14.1859 97.2926 14.1158 97.3538 14.0442L97.3894 14.0027L97.4806 13.9068L97.5746 13.8123L97.6287 13.7594C97.6857 13.705 97.7456 13.652 97.8054 13.6005L97.8894 13.5289C97.9421 13.486 97.9963 13.4459 98.0504 13.4044L98.1701 13.3157L98.3125 13.2226C98.3638 13.1897 98.4165 13.1553 98.4692 13.1238L98.596 13.0523C98.6558 13.0194 98.7171 12.9864 98.7797 12.955L98.9094 12.8934C98.9702 12.8648 99.0309 12.8381 99.0917 12.8133L99.2484 12.7531L99.408 12.6973C99.4706 12.6759 99.5347 12.6572 99.5988 12.6386L99.7413 12.6C99.8082 12.5828 99.8766 12.5685 99.9435 12.5542L100.086 12.5255L100.27 12.4984L100.438 12.4783L100.58 12.4669C100.647 12.4669 100.716 12.4583 100.783 12.4568H100.892C100.971 12.4568 101.05 12.4568 101.13 12.4568H101.204C101.293 12.4568 101.381 12.4697 101.469 12.4812L101.522 12.4883L101.664 12.5084L101.807 12.5327L101.854 12.5427C101.949 12.5618 102.039 12.5828 102.126 12.6057L102.187 12.6243C102.271 12.6472 102.354 12.673 102.436 12.7016L102.528 12.7345C102.599 12.7603 102.67 12.7861 102.738 12.8161L102.868 12.8734C102.922 12.8977 102.976 12.922 103.029 12.9492C103.082 12.9764 103.142 13.0079 103.196 13.038L103.311 13.1024C103.377 13.141 103.442 13.1825 103.506 13.2241L103.585 13.2756L96.1544 16.8811C96.1678 16.7083 96.1901 16.5363 96.2214 16.3659C96.2214 16.343 96.2285 16.3215 96.2328 16.2986C96.2371 16.2757 96.2427 16.2528 96.2484 16.2285C96.2655 16.144 96.2855 16.061 96.3082 15.978C96.3168 15.9479 96.3253 15.9179 96.3339 15.8892C96.3553 15.8148 96.3781 15.7461 96.4037 15.6674C96.418 15.6259 96.4336 15.5858 96.4493 15.5443C96.465 15.5028 96.4949 15.4255 96.5191 15.3668C96.5433 15.3081 96.5675 15.258 96.5932 15.205C96.6188 15.1521 96.633 15.1177 96.6544 15.0748C96.6886 15.0075 96.7242 14.9431 96.7598 14.8773L96.8083 14.7914C96.8524 14.717 96.8994 14.6482 96.9507 14.5724L96.9878 14.5166C97.0405 14.4393 97.096 14.3648 97.153 14.2904L97.1829 14.2503" fill="#202020"/>
</svg>
