<svg width="36" height="34" viewBox="0 0 36 34" fill="none" xmlns="http://www.w3.org/2000/svg">
<g filter="url(#filter0_d_5613_5866)">
<path fill-rule="evenodd" clip-rule="evenodd" d="M22.2617 6C21.5082 6 20.7621 6.14845 20.0661 6.43688C19.37 6.72528 18.7375 7.14813 18.2049 7.68097L17.9994 7.88644L17.7937 7.6808C16.7178 6.6049 15.2586 6.00046 13.737 6.00046C12.2155 6.00046 10.7562 6.6049 9.68034 7.6808C8.60444 8.75671 8 10.2159 8 11.7375C8 13.2591 8.60444 14.7183 9.68034 15.7942L17.2923 23.4061C17.6828 23.7967 18.316 23.7967 18.7065 23.4061L26.3184 15.7942C26.8513 15.2616 27.274 14.6292 27.5623 13.9332C27.8508 13.2371 27.9992 12.491 27.9992 11.7375C27.9992 10.984 27.8508 10.2379 27.5623 9.54184C27.274 8.84589 26.851 8.21323 26.3183 7.68064C25.7857 7.14788 25.1533 6.72525 24.4574 6.43688C23.7613 6.14845 23.0152 6 22.2617 6ZM24.9044 9.09518C25.2515 9.44212 25.5268 9.85404 25.7147 10.3074C25.9025 10.7608 25.9992 11.2467 25.9992 11.7375C25.9992 12.2283 25.9025 12.7142 25.7147 13.1676C25.5783 13.4967 25.3958 13.804 25.1733 14.0804C25.0893 14.1848 24.9995 14.2847 24.9044 14.3798L17.9994 21.2848L11.0946 14.38C10.3937 13.6792 10 12.7286 10 11.7375C10 10.7464 10.3937 9.79585 11.0946 9.09502C11.7954 8.39418 12.7459 8.00046 13.737 8.00046C14.7282 8.00046 15.6787 8.39418 16.3795 9.09502L17.2923 10.0078C17.6828 10.3983 18.316 10.3983 18.7065 10.0078L19.6192 9.09502C19.9662 8.74792 20.3783 8.47241 20.8316 8.28455C20.9559 8.23306 21.0826 8.18842 21.2112 8.15074C21.5518 8.05095 21.9055 8 22.2617 8C22.7525 8 23.2384 8.09669 23.6918 8.28455C24.1452 8.47241 24.5574 8.74808 24.9044 9.09518Z" fill="white"/>
</g>
<defs>
<filter id="filter0_d_5613_5866" x="0" y="0" width="35.999" height="33.6991" filterUnits="userSpaceOnUse" color-interpolation-filters="sRGB">
<feFlood flood-opacity="0" result="BackgroundImageFix"/>
<feColorMatrix in="SourceAlpha" type="matrix" values="0 0 0 0 0 0 0 0 0 0 0 0 0 0 0 0 0 0 127 0" result="hardAlpha"/>
<feOffset dy="2"/>
<feGaussianBlur stdDeviation="4"/>
<feComposite in2="hardAlpha" operator="out"/>
<feColorMatrix type="matrix" values="0 0 0 0 0 0 0 0 0 0 0 0 0 0 0 0 0 0 0.3 0"/>
<feBlend mode="normal" in2="BackgroundImageFix" result="effect1_dropShadow_5613_5866"/>
<feBlend mode="normal" in="SourceGraphic" in2="effect1_dropShadow_5613_5866" result="shape"/>
</filter>
</defs>
</svg>
