<svg width="70" height="70" viewBox="0 0 70 70" fill="none" xmlns="http://www.w3.org/2000/svg">
<path d="M35 70C54.33 70 70 54.33 70 35C70 15.67 54.33 0 35 0C15.67 0 0 15.67 0 35C0 54.33 15.67 70 35 70Z" fill="#E6094B"/>
<path d="M34.9055 65.643C51.8814 65.643 65.643 51.8814 65.643 34.9055C65.643 17.9296 51.8814 4.16797 34.9055 4.16797C17.9296 4.16797 4.16797 17.9296 4.16797 34.9055C4.16797 51.8814 17.9296 65.643 34.9055 65.643Z" fill="#E6094B"/>
<path d="M34.905 61.4373C49.557 61.4373 61.4349 49.5595 61.4349 34.9074C61.4349 20.2553 49.557 8.37744 34.905 8.37744C20.2529 8.37744 8.375 20.2553 8.375 34.9074C8.375 49.5595 20.2529 61.4373 34.905 61.4373Z" stroke="#FDFDFD" stroke-width="8.95779"/>
</svg>
