<svg width="12" height="14" viewBox="0 0 12 14" fill="none" xmlns="http://www.w3.org/2000/svg">
<path fill-rule="evenodd" clip-rule="evenodd" d="M5.70267 13.5722L5.69912 13.5698L5.6869 13.5611C5.67651 13.5538 5.6617 13.5432 5.64276 13.5296C5.60488 13.5023 5.55044 13.4624 5.48181 13.4108C5.34462 13.3076 5.15038 13.1569 4.9181 12.9643C4.45437 12.5796 3.83467 12.0239 3.21315 11.3405C1.99193 9.99775 0.666992 8.05673 0.666992 5.88897C0.666992 4.41554 1.2289 3.00245 2.22909 1.96057C3.22928 0.918694 4.58584 0.333374 6.00033 0.333374C7.41481 0.333374 8.77137 0.918694 9.77156 1.96057C10.7718 3.00245 11.3337 4.41554 11.3337 5.88897C11.3337 8.05673 10.0087 9.99775 8.7875 11.3405C8.16599 12.0239 7.54628 12.5796 7.08255 12.9643C6.85027 13.1569 6.65603 13.3076 6.51884 13.4108C6.45021 13.4624 6.39578 13.5023 6.35789 13.5296C6.33895 13.5432 6.32414 13.5538 6.31376 13.5611L6.30153 13.5698L6.29798 13.5722L6.29685 13.573C6.29685 13.573 6.29617 13.5735 6.00033 13.1112L6.29617 13.5735C6.11702 13.6979 5.88334 13.6977 5.7042 13.5733L5.70267 13.5722ZM6.00033 7.33337C7.1049 7.33337 8.00033 6.43794 8.00033 5.33337C8.00033 4.2288 7.1049 3.33337 6.00033 3.33337C4.89576 3.33337 4.00033 4.2288 4.00033 5.33337C4.00033 6.43794 4.89576 7.33337 6.00033 7.33337Z" fill="white"/>
</svg>
