<svg width="12" height="14" viewBox="0 0 12 14" fill="none" xmlns="http://www.w3.org/2000/svg">
<path fill-rule="evenodd" clip-rule="evenodd" d="M5.70218 13.5719L5.69863 13.5694L5.68641 13.5608C5.67602 13.5534 5.66121 13.5429 5.64227 13.5292C5.60439 13.5019 5.54995 13.4621 5.48133 13.4104C5.34413 13.3072 5.1499 13.1566 4.91761 12.9639C4.45388 12.5792 3.83418 12.0236 3.21266 11.3402C1.99144 9.99739 0.666504 8.05637 0.666504 5.88861C0.666504 4.41517 1.22841 3.00208 2.2286 1.9602C3.22879 0.918328 4.58535 0.333008 5.99984 0.333008C7.41432 0.333008 8.77088 0.918328 9.77107 1.9602C10.7713 3.00208 11.3332 4.41517 11.3332 5.88861C11.3332 8.05637 10.0082 9.99739 8.78701 11.3402C8.1655 12.0236 7.54579 12.5792 7.08207 12.9639C6.84978 13.1566 6.65555 13.3072 6.51835 13.4104C6.44972 13.4621 6.39529 13.5019 6.35741 13.5292C6.33846 13.5429 6.32365 13.5534 6.31327 13.5608L6.30104 13.5694L6.29749 13.5719L6.29636 13.5727C6.29636 13.5727 6.29568 13.5731 5.99984 13.1109L6.29568 13.5731C6.11653 13.6975 5.88285 13.6973 5.70371 13.5729L5.70218 13.5719ZM5.99984 7.33301C7.10441 7.33301 7.99984 6.43758 7.99984 5.33301C7.99984 4.22844 7.10441 3.33301 5.99984 3.33301C4.89527 3.33301 3.99984 4.22844 3.99984 5.33301C3.99984 6.43758 4.89527 7.33301 5.99984 7.33301Z" fill="#3F3F3F"/>
</svg>
