<svg width="12" height="16" viewBox="0 0 12 16" fill="none" xmlns="http://www.w3.org/2000/svg">
<path fill-rule="evenodd" clip-rule="evenodd" d="M5.66114 15.0952L5.66514 15.0979L5.66685 15.099C5.86839 15.2334 6.13128 15.2336 6.33282 15.0992L6 14.6C6.33282 15.0992 6.33359 15.0987 6.33359 15.0987L6.33486 15.0979L6.33886 15.0952L6.35261 15.0859C6.36429 15.078 6.38095 15.0666 6.40227 15.0518C6.44488 15.0223 6.50612 14.9793 6.58333 14.9235C6.73767 14.812 6.95618 14.6493 7.21751 14.4412C7.7392 14.0258 8.43637 13.4257 9.13557 12.6876C10.5094 11.2375 12 9.14117 12 6.8C12 5.2087 11.3679 3.68258 10.2426 2.55736C9.11742 1.43214 7.5913 0.800003 6 0.800003C4.4087 0.800003 2.88258 1.43214 1.75736 2.55736C0.632141 3.68258 3.57628e-08 5.2087 0 6.8C0 9.14117 1.49056 11.2375 2.86443 12.6876C3.56363 13.4257 4.2608 14.0258 4.78249 14.4412C5.04382 14.6493 5.26233 14.812 5.41667 14.9235C5.49388 14.9793 5.55512 15.0223 5.59773 15.0518C5.61905 15.0666 5.63571 15.078 5.64739 15.0859L5.66114 15.0952ZM6 5.6C5.33726 5.6 4.8 6.13726 4.8 6.8C4.8 7.46274 5.33726 8 6 8C6.66274 8 7.2 7.46274 7.2 6.8C7.2 6.13726 6.66274 5.6 6 5.6Z" fill="white"/>
</svg>
