<svg width="16" height="16" viewBox="0 0 16 16" fill="none" xmlns="http://www.w3.org/2000/svg">
<path fill-rule="evenodd" clip-rule="evenodd" d="M7.66114 15.0952L7.66514 15.0979L7.66685 15.0991C7.86839 15.2334 8.13128 15.2336 8.33282 15.0993L8 14.6C8.33282 15.0993 8.33359 15.0988 8.33359 15.0988L8.33486 15.0979L8.33886 15.0952L8.35261 15.0859C8.36429 15.078 8.38095 15.0666 8.40227 15.0518C8.44488 15.0223 8.50612 14.9793 8.58333 14.9236C8.73767 14.8121 8.95618 14.6494 9.21751 14.4413C9.7392 14.0259 10.4364 13.4257 11.1356 12.6877C12.5094 11.2375 14 9.14121 14 6.80005C14 5.20875 13.3679 3.68263 12.2426 2.55741C11.1174 1.43219 9.5913 0.800049 8 0.800049C6.4087 0.800049 4.88258 1.43219 3.75736 2.55741C2.63214 3.68263 2 5.20875 2 6.80005C2 9.14121 3.49056 11.2375 4.86443 12.6877C5.56363 13.4257 6.2608 14.0259 6.78249 14.4413C7.04382 14.6494 7.26233 14.8121 7.41667 14.9236C7.49388 14.9793 7.55512 15.0223 7.59773 15.0518C7.61905 15.0666 7.63571 15.078 7.64739 15.0859L7.66114 15.0952ZM8 5.60005C7.33726 5.60005 6.8 6.13731 6.8 6.80005C6.8 7.46279 7.33726 8.00005 8 8.00005C8.66274 8.00005 9.2 7.46279 9.2 6.80005C9.2 6.13731 8.66274 5.60005 8 5.60005Z" fill="#717171"/>
</svg>
