<svg width="29" height="29" viewBox="0 0 29 29" fill="none" xmlns="http://www.w3.org/2000/svg">
    <path d="M14.5 29C22.5081 29 29 22.5081 29 14.5C29 6.49187 22.5081 0 14.5 0C6.49187 0 0 6.49187 0 14.5C0 22.5081 6.49187 29 14.5 29Z" fill="#E12A2A"/>
    <path fill-rule="evenodd" clip-rule="evenodd" d="M17.4022 13.7096L13.3882 17.7235C13.9489 17.9384 14.5599 17.9863 15.1473 17.8613C15.7347 17.7364 16.2732 17.4439 16.6979 17.0192C17.1225 16.5946 17.415 16.056 17.54 15.4687C17.665 14.8813 17.6171 14.2703 17.4022 13.7096ZM20.492 10.6201C21.7029 11.5751 22.7222 12.7508 23.4958 14.0849C23.6329 14.3063 23.7056 14.5615 23.7056 14.8218C23.7056 15.0822 23.6329 15.3374 23.4958 15.5588C21.4342 19.0633 18.0715 21.1553 14.5002 21.1553C13.2087 21.1524 11.9317 20.8825 10.7495 20.3623L12.3994 18.7125C13.2369 19.1652 14.1982 19.3355 15.1403 19.198C16.0824 19.0605 16.9549 18.6226 17.6281 17.9493C18.3012 17.2761 18.7391 16.4036 18.8766 15.4615C19.0141 14.5195 18.8438 13.5582 18.391 12.7207L20.492 10.6201ZM16.5101 10.8831L15.5102 11.8827C14.9598 11.6937 14.3673 11.663 13.8002 11.7942C13.2332 11.9253 12.7144 12.2131 12.3028 12.6246C11.8913 13.0362 11.6036 13.555 11.4724 14.1221C11.3413 14.6891 11.372 15.2816 11.5611 15.8321L10.5612 16.8316C10.136 15.9994 9.98542 15.0538 10.1311 14.1306C10.2768 13.2075 10.7113 12.3543 11.3722 11.6935C12.0331 11.0326 12.8863 10.5982 13.8095 10.4526C14.7326 10.307 15.6782 10.4577 16.5104 10.883L16.5101 10.8831ZM5.50484 14.0849C7.56577 10.5802 10.9291 8.48799 14.5001 8.48799C15.756 8.49048 16.9986 8.74603 18.1537 9.23938L20.9587 6.43454C21.0822 6.31175 21.2492 6.24283 21.4234 6.24283C21.5975 6.24283 21.7646 6.31175 21.888 6.43454C22.0108 6.55808 22.0797 6.7252 22.0797 6.89939C22.0797 7.07358 22.0108 7.24069 21.888 7.36424L19.3875 9.86492L17.5905 11.6617L16.6616 12.5911L12.2697 16.9829L11.3404 17.9122L9.52644 19.7262L6.68682 22.5656C6.56324 22.6884 6.3961 22.7573 6.22188 22.7573C6.04767 22.7573 5.88053 22.6884 5.75695 22.5656C5.63416 22.4421 5.56523 22.275 5.56523 22.1008C5.56523 21.9266 5.63416 21.7595 5.75695 21.6359L8.4309 18.962C7.25431 18.0175 6.26238 16.8636 5.50507 15.5586C5.36771 15.3373 5.29492 15.0821 5.29492 14.8217C5.29492 14.5613 5.36771 14.306 5.50507 14.0848L5.50484 14.0849Z" fill="white"/>
</svg>
