<svg width="20" height="21" viewBox="0 0 20 21" fill="none" xmlns="http://www.w3.org/2000/svg">
    <path d="M10.0003 16.9187C10.4605 16.9187 10.8336 16.5456 10.8336 16.0853C10.8336 15.6251 10.4605 15.252 10.0003 15.252C9.54008 15.252 9.16699 15.6251 9.16699 16.0853C9.16699 16.5456 9.54008 16.9187 10.0003 16.9187Z" stroke="white" stroke-width="2" stroke-linecap="round" stroke-linejoin="round"/>
    <path d="M10.0003 11.0854C10.4605 11.0854 10.8336 10.7123 10.8336 10.2521C10.8336 9.79179 10.4605 9.4187 10.0003 9.4187C9.54008 9.4187 9.16699 9.79179 9.16699 10.2521C9.16699 10.7123 9.54008 11.0854 10.0003 11.0854Z" stroke="white" stroke-width="2" stroke-linecap="round" stroke-linejoin="round"/>
    <path d="M10.0003 5.25187C10.4605 5.25187 10.8336 4.87878 10.8336 4.41855C10.8336 3.95831 10.4605 3.58521 10.0003 3.58521C9.54008 3.58521 9.16699 3.95831 9.16699 4.41855C9.16699 4.87878 9.54008 5.25187 10.0003 5.25187Z" stroke="white" stroke-width="2" stroke-linecap="round" stroke-linejoin="round"/>
</svg>
