<svg width="13" height="13" viewBox="0 0 13 13" fill="none" xmlns="http://www.w3.org/2000/svg">
<path fill-rule="evenodd" clip-rule="evenodd" d="M12.776 0.484077C12.9181 0.604414 13 0.781156 13 0.967327V9.20071C13 10.5998 11.8658 11.7341 10.4667 11.7341C9.06752 11.7341 7.9333 10.5998 7.9333 9.20071C7.9333 7.80158 9.06752 6.66736 10.4667 6.66736C10.9281 6.66736 11.3607 6.79073 11.7333 7.00628V1.71496L5.39995 2.77052V10.4674C5.39995 11.8665 4.26573 13.0007 2.8666 13.0007C1.46747 13.0007 0.333252 11.8665 0.333252 10.4674C0.333252 9.06826 1.46747 7.93404 2.8666 7.93404C3.32803 7.93404 3.76065 8.0574 4.13328 8.27295V2.234C4.13328 1.9244 4.35711 1.66018 4.66249 1.60928L12.2625 0.342606C12.4462 0.312 12.634 0.363741 12.776 0.484077ZM4.13328 10.4674C4.13328 9.76782 3.56617 9.20071 2.8666 9.20071C2.16704 9.20071 1.59993 9.76782 1.59993 10.4674C1.59993 11.167 2.16704 11.7341 2.8666 11.7341C3.56617 11.7341 4.13328 11.167 4.13328 10.4674ZM11.7333 9.20071C11.7333 8.50115 11.1662 7.93404 10.4667 7.93404C9.76709 7.93404 9.19998 8.50115 9.19998 9.20071C9.19998 9.90028 9.76709 10.4674 10.4667 10.4674C11.1662 10.4674 11.7333 9.90028 11.7333 9.20071Z" fill="white"/>
</svg>
