<svg width="14" height="14" viewBox="0 0 14 14" fill="none" xmlns="http://www.w3.org/2000/svg">
<path fill-rule="evenodd" clip-rule="evenodd" d="M13.7613 0.159967C13.9127 0.288219 14 0.476587 14 0.675005V9.45C14 10.9412 12.7912 12.15 11.3 12.15C9.80883 12.15 8.6 10.9412 8.6 9.45C8.6 7.95884 9.80883 6.75 11.3 6.75C11.7918 6.75 12.2529 6.88149 12.65 7.11122V1.47182L5.9 2.59682V10.8C5.9 12.2912 4.69117 13.5 3.2 13.5C1.70883 13.5 0.5 12.2912 0.5 10.8C0.5 9.30884 1.70883 8.1 3.2 8.1C3.69179 8.1 4.15287 8.23149 4.55 8.46122V2.02501C4.55 1.69504 4.78855 1.41344 5.11403 1.35919L13.214 0.00918921C13.4097 -0.0234304 13.6099 0.0317143 13.7613 0.159967ZM4.55 10.8C4.55 10.0544 3.94558 9.45 3.2 9.45C2.45442 9.45 1.85 10.0544 1.85 10.8C1.85 11.5456 2.45442 12.15 3.2 12.15C3.94558 12.15 4.55 11.5456 4.55 10.8ZM12.65 9.45C12.65 8.70442 12.0456 8.1 11.3 8.1C10.5544 8.1 9.95 8.70442 9.95 9.45C9.95 10.1956 10.5544 10.8 11.3 10.8C12.0456 10.8 12.65 10.1956 12.65 9.45Z" fill="#717171"/>
</svg>
