<svg width="34" height="33" viewBox="0 0 34 33" fill="none" xmlns="http://www.w3.org/2000/svg">
<path d="M16.8333 1C8.37847 1 1.5 7.87847 1.5 16.3333C1.5 24.7881 8.37847 31.6667 16.8333 31.6667C25.2881 31.6667 32.1667 24.7881 32.1667 16.3333C32.1667 7.87847 25.2881 1 16.8333 1Z" fill="#FCEA2B"/>
<path fill-rule="evenodd" clip-rule="evenodd" d="M16.8333 2C8.91725 2 2.5 8.41725 2.5 16.3333C2.5 24.2494 8.91725 30.6667 16.8333 30.6667C24.7494 30.6667 31.1667 24.2494 31.1667 16.3333C31.1667 8.41725 24.7494 2 16.8333 2ZM0.5 16.3333C0.5 7.31268 7.81268 0 16.8333 0C25.854 0 33.1667 7.31268 33.1667 16.3333C33.1667 25.354 25.854 32.6667 16.8333 32.6667C7.81268 32.6667 0.5 25.354 0.5 16.3333Z" fill="black"/>
<path fill-rule="evenodd" clip-rule="evenodd" d="M9.83333 21C9.83333 20.4477 10.281 20 10.8333 20H22.8333C23.3856 20 23.8333 20.4477 23.8333 21C23.8333 21.5523 23.3856 22 22.8333 22H10.8333C10.281 22 9.83333 21.5523 9.83333 21Z" fill="black"/>
<path d="M12.8333 13C12.8333 14.1045 11.9368 15 10.8333 15C9.7298 15 8.83333 14.1045 8.83333 13C8.83333 11.8965 9.7298 11 10.8333 11C11.9368 11 12.8333 11.8965 12.8333 13Z" fill="black"/>
<path d="M24.8333 13C24.8333 14.1045 23.9369 15 22.8333 15C21.7298 15 20.8333 14.1045 20.8333 13C20.8333 11.8965 21.7298 11 22.8333 11C23.9369 11 24.8333 11.8965 24.8333 13Z" fill="black"/>
</svg>
