<svg width="49" height="48" viewBox="0 0 49 48" fill="none" xmlns="http://www.w3.org/2000/svg">
<path d="M24.4993 8.6665C16.0445 8.6665 9.16602 15.545 9.16602 23.9998C9.16602 32.4546 16.0445 39.3332 24.4993 39.3332C32.9541 39.3332 39.8327 32.4546 39.8327 23.9998C39.8327 15.545 32.9541 8.6665 24.4993 8.6665Z" fill="#FCEA2B"/>
<path d="M24.4993 39.3332C32.9677 39.3332 39.8327 32.4682 39.8327 23.9998C39.8327 15.5315 32.9677 8.6665 24.4993 8.6665C16.031 8.6665 9.16602 15.5315 9.16602 23.9998C9.16602 32.4682 16.031 39.3332 24.4993 39.3332Z" stroke="black" stroke-width="2" stroke-miterlimit="10"/>
<path d="M18.5 28.6665H30.5" stroke="black" stroke-width="2" stroke-miterlimit="10" stroke-linecap="round" stroke-linejoin="round"/>
<path d="M20.5 20.6665C20.5 21.771 19.6035 22.6665 18.5 22.6665C17.3965 22.6665 16.5 21.771 16.5 20.6665C16.5 19.563 17.3965 18.6665 18.5 18.6665C19.6035 18.6665 20.5 19.563 20.5 20.6665Z" fill="black"/>
<path d="M32.5 20.6665C32.5 21.771 31.6035 22.6665 30.5 22.6665C29.3965 22.6665 28.5 21.771 28.5 20.6665C28.5 19.563 29.3965 18.6665 30.5 18.6665C31.6035 18.6665 32.5 19.563 32.5 20.6665Z" fill="black"/>
</svg>
