<svg width="24" height="24" viewBox="0 0 24 24" fill="none" xmlns="http://www.w3.org/2000/svg">
<path d="M4 20C4 20.3844 4.22035 20.7348 4.56681 20.9013C4.91328 21.0678 5.32452 21.021 5.62469 20.7809L15.6247 12.7809C15.8619 12.5911 16 12.3038 16 12C16 11.6962 15.8619 11.4089 15.6247 11.2191L5.62469 3.21912C5.32452 2.97898 4.91328 2.93217 4.56681 3.09869C4.22035 3.26521 4 3.61559 4 3.99999L4 20Z" fill="white"/>
<path d="M18 19C18 19.5523 18.4477 20 19 20C19.5523 20 20 19.5523 20 19L20 5C20 4.44772 19.5523 4 19 4C18.4477 4 18 4.44772 18 5L18 19Z" fill="white"/>
</svg>
