<svg width="120" height="120" viewBox="0 0 120 120" fill="none" xmlns="http://www.w3.org/2000/svg">
<path d="M98.9542 61.7945L98.1824 63.2272C97.5264 64.204 96.6768 65.0245 95.7648 65.4864C95.7624 65.4879 95.7599 65.4891 95.7575 65.4907C94.7692 65.9892 93.6615 66.0407 92.5496 65.8447C91.8366 65.6297 91.2115 65.3998 91.2115 65.3998C91.2115 65.3998 89.8954 64.8552 88.5055 64.263C88.2456 64.1167 87.9948 63.9701 87.7601 63.8272C85.2031 62.2712 82.982 60.1535 81.0553 57.8791C79.6014 56.1629 78.342 54.2674 77.3934 52.2263C79.7111 49.7093 80.13 45.597 77.4921 42.9491C77.4485 42.9052 77.3873 42.8803 77.3183 42.8685C77.3004 42.8543 77.2819 42.841 77.2641 42.8267C77.2635 42.7986 77.2592 42.7701 77.2459 42.7407C77.0923 42.3939 76.9245 42.0565 76.7495 41.7233C77.3068 41.9477 77.8544 42.2167 78.3781 42.4421C80.4059 43.315 82.3947 44.2785 84.3523 45.2989C88.782 47.6072 93.3262 50.2629 96.7782 53.9294C98.0907 55.3239 99.2795 57.0298 99.4564 58.987C99.5376 59.8851 99.341 60.8634 98.9542 61.7945ZM94.5432 66.1573C94.5623 66.1446 94.5893 66.1282 94.6147 66.1128C94.4175 66.1482 94.2179 66.1737 94.0171 66.1934C94.2606 66.2224 94.4521 66.2179 94.5432 66.1573ZM36.3835 60.1689C36.9251 59.8351 37.6372 59.0876 38.3369 58.254C37.7138 58.9228 37.0602 59.5613 36.3835 60.1689ZM19.1516 57.7797C19.1431 57.7955 19.1322 57.8127 19.1241 57.8279C18.8209 58.3837 18.8899 59.1088 19.1655 59.8727C19.0302 59.1839 19.0114 58.4827 19.1516 57.7797ZM38.8118 42.8349L36.6695 43.8432C34.22 45.0505 31.8275 46.3787 29.5352 47.8368C27.3535 49.2246 25.1915 50.7245 23.3409 52.541C21.9361 53.9203 20.4443 55.5926 20.0279 57.5816C19.5663 59.7858 20.7266 62.5699 22.4395 63.9795C24.1041 65.3489 26.129 65.4077 28.0514 64.8473L28.6647 64.6429L28.8256 64.5862C29.2396 64.4293 29.6464 64.2497 30.0395 64.0492C35.298 61.3671 39.9764 56.3943 42.5061 51.0547C42.242 50.6146 42.0227 50.1515 41.8573 49.6723C41.7331 49.3161 41.6417 48.9508 41.5784 48.5813C41.5711 48.5392 41.5623 48.498 41.556 48.4559C41.5475 48.3987 41.5414 48.3411 41.5345 48.2839C41.5226 48.1918 41.5111 48.1 41.5033 48.0076C41.5027 47.9976 41.5023 47.9879 41.5014 47.978C41.3591 46.2282 41.9076 44.4299 43.3436 42.9885C43.4027 42.9291 43.4841 42.89 43.5729 42.8673C43.5765 42.8564 43.578 42.8464 43.5832 42.8346C43.6401 42.7047 43.7031 42.5781 43.7637 42.4499L43.3545 41.0176L38.8118 42.8349Z" fill="#A358E7"/>
<path d="M67.8489 41.363C63.119 41.363 58.3894 41.363 53.6592 41.363C53.0628 41.363 53.2476 40.7394 53.7422 40.7394C58.4721 40.7394 63.2017 40.7394 67.9319 40.7394C68.5286 40.7397 68.3438 41.363 67.8489 41.363ZM7.21581 50.8131C12.8295 50.8131 18.4433 50.8131 24.0573 50.8131C24.3832 50.8131 24.9926 50.3185 24.3996 50.3185C18.7858 50.3185 13.1721 50.3185 7.55808 50.3185C7.23187 50.3185 6.62246 50.8131 7.21581 50.8131ZM113.064 50.1101C106.585 50.1101 100.106 50.1101 93.6265 50.1101C94.683 50.9016 95.6949 51.7445 96.6415 52.6513C98.0169 53.9695 99.4517 55.5312 100.049 57.3849C100.644 59.2328 100.154 61.1843 99.1727 62.8247C99.186 62.8232 99.2 62.8214 99.2121 62.8214C103.805 62.8214 108.398 62.8214 112.991 62.8214C113.58 62.8214 112.908 63.2439 112.63 63.2439C111.16 63.2439 109.691 63.2439 108.221 63.2439C108.221 67.8424 108.221 72.4399 108.221 77.0384C109.738 77.0384 111.256 77.0384 112.772 77.0384C113.362 77.0384 112.689 77.4609 112.411 77.4609C110.947 77.4609 109.483 77.4609 108.019 77.4609C107.824 77.5603 107.541 77.5784 107.41 77.4609C103.233 77.4609 99.0561 77.4609 94.8793 77.4609C94.8793 81.9861 94.8793 86.5112 94.8793 91.0364C100.844 91.0364 106.808 91.0364 112.772 91.0364C113.362 91.0364 112.689 91.4589 112.411 91.4589C111.014 91.4589 109.618 91.4589 108.221 91.4589C108.221 95.9837 108.221 100.509 108.221 105.034C109.738 105.034 111.256 105.034 112.772 105.034C113.362 105.034 112.689 105.457 112.411 105.457C110.994 105.457 109.578 105.457 108.162 105.457C107.977 105.676 107.412 105.744 107.346 105.457C95.0776 105.457 82.8095 105.457 70.5416 105.457C70.3565 105.676 69.7913 105.744 69.7256 105.457C48.9587 105.457 28.1917 105.457 7.42451 105.457C6.83539 105.457 7.5078 105.034 7.78615 105.034C13.7028 105.034 19.6194 105.034 25.536 105.034C25.536 100.509 25.536 95.984 25.536 91.4589C22.8394 91.4589 20.1431 91.4589 17.4465 91.4589C17.388 91.7751 16.5687 91.9147 16.5687 91.5119C16.5687 91.494 16.5687 91.4765 16.5687 91.4589C13.5207 91.4589 10.4728 91.4589 7.42481 91.4589C6.83569 91.4589 7.5081 91.0364 7.78646 91.0364C10.7139 91.0364 13.6413 91.0364 16.5687 91.0364C16.5687 86.5285 16.5687 82.0209 16.5687 77.5133C16.5687 77.4951 16.5723 77.4779 16.5772 77.4609C13.5265 77.4609 10.4755 77.4609 7.42481 77.4609C6.83569 77.4609 7.5081 77.0384 7.78646 77.0384C13.7031 77.0384 19.6197 77.0384 25.5363 77.0384C25.5363 73.2596 25.5363 69.4813 25.5363 65.7022C25.5363 65.6446 25.563 65.5928 25.6051 65.5468C23.6796 65.6037 21.8647 64.9774 20.6035 63.1697C20.505 63.2137 20.4036 63.2436 20.3297 63.2436C15.7364 63.2436 11.1434 63.2436 6.55007 63.2436C5.96095 63.2436 6.63336 62.8211 6.91172 62.8211C11.3999 62.8211 15.8884 62.8211 20.3769 62.8211C20.3527 62.7817 20.3272 62.7451 20.3039 62.7045C19.783 61.8104 19.3583 60.8548 19.1654 59.8722C19.0303 59.1837 19.0112 58.4822 19.1517 57.7792C19.2078 57.4991 19.2865 57.2183 19.3968 56.9387C20.1264 55.0866 21.4931 53.5276 22.9457 52.1982C26.5995 48.8537 30.9922 46.3116 35.3944 44.0881C37.1821 43.1849 38.9942 42.3265 40.8385 41.545C41.6681 41.1934 42.5356 40.7669 43.4243 40.567C43.195 38.2629 44.197 36.3048 45.8011 34.8194L45.3749 35.0105C45.3749 35.0105 45.3567 34.8709 45.3285 34.6286C45.2665 34.5774 45.2241 34.505 45.2177 34.4072C45.1341 33.1172 45.0169 31.7839 44.9763 30.449C44.8721 28.3161 44.8991 26.009 45.3749 24.9143C45.5124 24.5981 45.7172 24.2592 45.9652 23.9097C46.9057 21.8088 48.5171 20.2487 50.5188 19.032C49.7704 18.1548 49.0577 16.7885 49.5311 15.7717C49.5678 15.4712 49.7238 15.2428 50.0533 15.142C50.1369 15.0784 50.2281 15.0178 50.3298 14.9611C51.6765 14.2151 52.9092 14.8948 53.7864 15.9171C54.102 15.0938 54.7123 14.4344 55.711 14.3775C57.4916 14.2757 57.8624 16.0909 57.7173 17.5196C57.7382 17.5178 57.7591 17.516 57.7827 17.5133C60.3803 16.4038 63.1299 15.5245 65.9243 15.0584C66.6086 14.8624 67.218 14.7046 67.6875 14.6161C71.0153 13.9883 73.8297 14.3584 75.7288 15.5884C76.0596 15.7402 76.3801 15.9119 76.6857 16.1109C80.99 18.909 77.4259 23.2279 74.0623 25.2418C74.0645 25.2436 74.0672 25.2448 74.069 25.2466C76.2392 27.3935 75.8527 30.8104 74.7402 33.4234C74.6675 33.9786 74.6145 34.4375 74.5839 34.7167C75.7846 35.9795 75.9066 37.698 75.8518 39.3682C75.8473 39.509 75.7007 39.6171 75.5286 39.6705C75.8146 40.1081 76.0935 40.55 76.3549 41.0029C77.2278 41.1973 78.1002 41.6504 78.9104 41.9994C80.5878 42.7215 82.2437 43.4953 83.8738 44.3189C87.0048 45.9009 90.1966 47.624 93.0828 49.71C93.0856 49.7097 93.0889 49.7091 93.0913 49.7091C99.8718 49.7091 106.652 49.7091 113.432 49.7091C114.019 49.7091 113.329 50.1101 113.064 50.1101ZM70.1381 42.3456C68.2405 43.4387 67.2428 45.3018 66.8185 47.3535C66.8739 47.4044 66.8915 47.481 66.8436 47.5873C66.7388 47.8203 66.6876 48.0759 66.6722 48.3437C66.6722 48.344 66.6722 48.3443 66.6725 48.3446C66.6764 48.3576 66.6752 48.3706 66.671 48.3839C66.6046 49.9599 67.9177 51.9735 68.9747 52.7352C70.9144 54.1337 73.5387 54.3569 75.568 52.9473C78.7514 50.7356 79.4992 46.1441 76.6835 43.3178C76.6757 43.3103 76.6717 43.3018 76.6657 43.2942C76.629 43.286 76.5969 43.2736 76.5727 43.2533C74.8053 41.7976 72.2359 41.1364 70.1381 42.3456ZM68.8354 77.0384C69.1295 77.0384 69.4236 77.0384 69.718 77.0384C69.718 72.4575 69.718 67.8772 69.718 63.2963C69.718 63.2782 69.7217 63.2609 69.7265 63.2439C57.2442 63.2439 44.7615 63.2439 32.2789 63.2439C31.9981 63.4151 31.7158 63.5823 31.4314 63.7407C29.9237 64.5791 28.1339 65.2815 26.3841 65.4886C26.4065 65.5226 26.4198 65.5638 26.4198 65.614C26.4198 69.4056 26.4198 73.1963 26.4198 76.9878C26.4198 77.0054 26.4162 77.022 26.4117 77.0384C40.2576 77.0384 54.1035 77.0384 67.9492 77.0384C67.9816 76.9984 68.0152 76.9578 68.0473 76.9181C68.2572 76.6552 68.9681 76.704 68.8354 77.0384ZM60.7559 87.4126C61.4416 89.3063 63.9804 85.5165 64.4129 84.8138C65.218 83.506 66.3787 81.675 66.2254 80.0558C61.0899 85.4175 53.9845 89.9202 46.7579 87.1127C49.9839 90.072 56.0956 90.8837 59.2996 87.86C59.4295 87.7376 59.7182 87.701 59.9169 87.7431C59.9041 87.7116 59.8905 87.6813 59.8781 87.6477C59.7336 87.2485 60.608 87.0037 60.7559 87.4126ZM67.6051 77.4606C63.792 77.4606 59.979 77.4606 56.1656 77.4606C56.1656 78.9111 56.1656 80.3611 56.1656 81.8113C57.4622 81.1616 58.7989 80.6294 60.1452 80.7176C60.1398 80.7121 60.1328 80.7076 60.1283 80.7012C57.8366 77.5769 64.4599 78.7291 65.7381 78.7527C66.3317 78.7639 65.7217 79.2513 65.3952 79.2455C64.379 79.2264 63.3713 79.0102 62.3554 78.9614C61.8569 78.9372 61.1823 78.846 60.7132 79.0614C60.1764 79.307 60.7489 80.093 60.944 80.3589C61.07 80.5307 60.8067 80.7067 60.5411 80.7663C60.5853 80.773 60.6296 80.7748 60.6738 80.7836C60.9561 80.8378 60.1849 81.1952 59.9605 81.1522C58.7456 80.9187 57.322 81.7619 56.1656 82.3656C56.1656 82.3956 56.1656 82.4253 56.1656 82.4555C56.1656 82.72 55.6349 82.8775 55.3966 82.7397C54.2404 83.2776 53.0649 83.764 51.8785 84.2332C49.7374 85.0798 47.7338 85.5226 45.5254 85.0377C45.5521 85.1831 45.6242 85.33 45.6642 85.4435C45.696 85.5335 45.563 85.631 45.3916 85.6973C45.4927 85.7046 45.5809 85.7407 45.6296 85.8134C45.6605 85.8591 45.6947 85.903 45.7268 85.9481C45.8307 85.9315 45.9307 85.9366 46.0046 85.9754C54.2828 90.3282 62.4702 83.6813 67.6051 77.4606ZM85.0081 62.8214C81.5301 60.2248 78.5808 56.697 76.7157 52.8703C76.0605 53.414 75.2966 53.8444 74.4404 54.1134C72.1857 54.8218 69.8586 54.4917 68.0097 52.9791C67.427 52.502 66.8133 51.706 66.3802 50.818C66.2151 50.8931 66.0155 50.9594 65.9377 50.9594C64.4805 50.9594 63.0236 50.9594 61.5664 50.9594C61.166 51.0542 60.7543 51.1084 60.333 51.1133C59.7709 51.1196 59.229 51.0639 58.7035 50.9594C57.2402 50.9594 55.777 50.9594 54.3137 50.9594C53.8082 51.8987 53.1091 52.728 52.467 53.1908C50.6697 54.4868 48.3014 54.9706 46.1848 54.1582C44.8688 53.6533 43.7735 52.7916 42.97 51.7378C41.7714 54.0504 40.1822 56.273 38.3367 58.2542C37.7136 58.9229 37.06 59.5614 36.3833 60.169C35.2917 61.1492 34.1383 62.0412 32.9422 62.8214C50.2971 62.8214 67.6523 62.8214 85.0081 62.8214ZM65.5463 47.674C65.1656 46.1426 64.9757 44.5642 64.7603 43.0034C61.8075 43.0034 58.8546 43.0034 55.9018 43.0034C55.6737 44.7832 55.5377 46.5939 55.0231 48.3191C55.0249 48.344 55.0234 48.3682 55.0186 48.3918C55.0198 48.4257 55.0231 48.4597 55.0234 48.4942C55.0816 48.5015 55.1367 48.519 55.1842 48.5505C56.8026 49.6215 58.7732 50.685 60.7934 50.3942C62.6804 50.1225 64.1528 49.0124 65.4888 47.72C65.507 47.7021 65.5264 47.6876 65.5463 47.674ZM62.6156 50.6099C63.8381 50.6099 65.0608 50.6099 66.2833 50.6099C65.9852 49.945 65.7935 49.2405 65.7977 48.5845C65.7971 48.5826 65.795 48.5811 65.7944 48.5793C65.7826 48.5411 65.7732 48.5024 65.7617 48.4639C64.8415 49.3153 63.7835 50.1159 62.6156 50.6099ZM54.9301 49.3486C54.8383 49.7706 54.6863 50.1973 54.4915 50.6099C55.478 50.6099 56.4645 50.6099 57.451 50.6099C56.576 50.297 55.7419 49.859 54.9301 49.3486ZM75.4905 41.2715C74.5209 39.6017 73.3312 38.0624 72.2514 36.4598C70.8133 35.8223 69.4987 36.9093 68.0355 36.9199C67.4212 36.9245 66.123 36.505 66.2805 35.6648C66.5728 34.1064 69.5087 33.434 70.9211 33.5012C70.6558 33.4004 70.3889 33.3031 70.1218 33.2083C70.073 33.2041 70.03 33.1932 69.9973 33.1723C69.9864 33.1653 69.9752 33.1593 69.9643 33.1526C69.6889 33.0554 69.4145 32.9581 69.1431 32.8588C69.0262 32.8158 68.975 32.7576 68.9663 32.6949C67.9373 32.3927 66.8654 32.5914 66.1212 33.5824C65.2144 34.7897 64.9951 36.2611 65.0417 37.7383C65.0423 37.762 65.0363 37.7847 65.0272 37.8068C66.0422 37.8068 67.0571 37.8068 68.0721 37.8068C68.6609 37.8068 67.987 38.2269 67.7099 38.2269C66.6564 38.2269 65.603 38.2269 64.5498 38.2269C64.3672 38.3562 64.0622 38.4307 63.9038 38.3302C63.8517 38.2972 63.8056 38.2611 63.7566 38.2269C60.4811 38.2269 57.206 38.2269 53.9306 38.2269C53.3418 38.2269 54.0157 37.8068 54.2928 37.8068C54.968 37.8068 55.6431 37.8068 56.3179 37.8068C56.3434 37.7856 56.3694 37.7668 56.3903 37.7538C56.4121 37.7401 56.4336 37.7253 56.4551 37.7117C56.3791 36.4626 56.0829 35.1447 55.3393 34.1237C55.3535 34.6468 54.7799 34.9409 54.1677 35.0844C54.7626 35.4785 54.9622 35.971 54.2807 36.5556C53.5489 37.1834 52.4425 37.3025 51.5605 37.0347C50.2444 36.6355 49.2276 36.2551 47.9391 37.1741C47.8459 37.2407 47.7538 37.3079 47.6614 37.3755C47.7244 37.4164 47.742 37.4818 47.6741 37.5775C46.6434 39.0289 45.6087 40.4731 44.803 42.0572C46.4962 41.1522 48.5337 40.8669 50.3592 41.5838C52.5824 42.457 53.9506 44.2429 54.6163 46.3812C54.7977 45.2612 54.9035 44.1256 55.051 43.0034C54.9973 43.0034 54.9437 43.0034 54.8901 43.0034C54.2937 43.0034 54.4785 42.3798 54.9731 42.3798C58.9921 42.3798 63.0112 42.3798 67.0302 42.3798C67.6266 42.3798 67.4418 43.0034 66.9472 43.0034C66.5216 43.0034 66.0961 43.0034 65.6705 43.0034C65.8295 44.1686 65.9813 45.3411 66.2133 46.4957C66.8984 44.357 68.2984 42.4707 70.5346 41.7177C72.3577 41.1037 74.2159 41.1794 75.8691 41.9579C75.7591 41.7498 75.6462 41.5435 75.5289 41.3397C75.4774 41.327 75.4696 41.3024 75.4905 41.2715ZM73.4317 34.7785C73.0231 34.4802 72.5833 34.2339 72.1284 34.0149C72.0421 34.0004 71.9697 33.9683 71.927 33.9171C71.6974 33.812 71.4636 33.7145 71.2279 33.6209C71.1567 33.7538 70.7082 33.954 70.5401 33.9371C69.469 33.8302 65.6054 35.2904 67.8889 36.3735C68.7191 36.7676 70.0112 36.0016 70.8723 35.8713C71.4757 35.7802 72.0503 35.7653 72.6076 35.9337C72.7781 35.8986 72.9547 35.9259 73.0395 36.0519C73.0583 36.0797 73.0774 36.107 73.0964 36.1345C73.1104 36.1415 73.1246 36.147 73.1388 36.1545C73.2112 36.1939 73.2246 36.2409 73.2025 36.289C73.7864 37.1465 74.3913 37.9906 74.9771 38.8454C74.9722 37.3419 74.7229 35.7208 73.4317 34.7785ZM71.4711 31.819C71.3127 31.7063 71.1486 31.6006 70.9862 31.4973C70.9123 31.4504 70.8763 31.3977 70.8654 31.3438C69.2782 30.4917 67.2316 29.975 65.6003 30.8831C63.7881 31.8911 63.1169 33.7835 63.0193 35.7529C63.0502 35.779 63.0757 35.8101 63.0908 35.8504C63.3468 36.5301 63.6518 37.0823 64.1597 37.5315C64.1782 35.6629 64.6983 33.5161 66.4844 32.5962C67.7093 31.9656 68.9878 31.9568 70.1778 32.4987C70.8111 32.7171 71.4854 32.9357 72.1381 33.1993C72.2281 32.9303 72.2529 32.6462 72.0824 32.4002C71.95 32.2094 71.7819 32.0525 71.5996 31.9117C71.5317 31.898 71.4827 31.8693 71.4711 31.819ZM62.9815 31.0687C62.8013 31.6267 62.86 32.3699 62.8609 32.986C63.4279 31.8075 64.3493 30.8446 65.7196 30.3866C67.1838 29.8981 68.6443 29.9165 70.0336 30.3282C69.9776 30.2776 69.924 30.2246 69.868 30.1743C69.5248 29.8657 69.1798 29.5594 68.8284 29.2602C68.7021 29.1527 68.5758 29.0442 68.4462 28.94C68.3647 28.8746 68.2221 28.8228 68.2984 28.8249C68.2675 28.8137 68.2414 28.7986 68.2227 28.7786C66.1815 28.7165 64.1049 29.2623 62.9824 31.0333C62.9818 31.046 62.9782 31.059 62.9718 31.0721C62.9745 31.0712 62.9779 31.0699 62.9815 31.0687ZM53.9706 26.7317C54.2995 26.7598 54.6196 26.7617 54.9098 26.7193C54.7187 26.7274 54.5046 26.7317 54.2589 26.7317C54.1611 26.7317 54.0654 26.7317 53.9706 26.7317ZM51.5535 15.2601C51.7131 15.317 51.8706 15.3831 52.0236 15.4573C51.8673 15.3628 51.7095 15.2937 51.5535 15.2601ZM50.6512 29.4159C50.9238 29.1739 51.1979 28.9337 51.4778 28.7004C51.7007 28.5145 51.9133 28.3076 52.212 28.2676C52.2856 28.2579 52.3525 28.2725 52.4137 28.2973C54.9792 28.2043 57.68 28.9197 58.9182 31.371C58.9619 31.4573 58.9085 31.5434 58.8098 31.6118C58.864 32.184 58.8098 32.8228 58.8256 33.3368C58.8425 33.8965 59.0797 35.0351 58.8022 35.5539C58.7771 35.6012 58.7241 35.6414 58.6565 35.6748C58.6629 35.7735 58.6705 35.8719 58.6744 35.9713C58.6799 36.1164 58.5751 36.2239 58.4366 36.2845C58.3206 36.5692 58.1862 36.8497 57.9917 37.0847C57.7506 37.3764 57.4541 37.6005 57.1418 37.8062C59.1781 37.8062 61.2141 37.8062 63.2505 37.8062C62.8091 37.3652 62.5117 36.8391 62.2658 36.2169C62.1849 36.2039 62.1322 36.1721 62.134 36.1176C62.1373 36.0258 62.1449 35.9337 62.151 35.8419C62.081 35.8265 62.0247 35.7947 61.9953 35.7402C61.8817 35.5291 61.9477 35.125 61.9489 34.8969C61.9517 34.4362 61.962 33.9759 61.9771 33.5152C61.9953 32.9627 61.9317 32.2688 62.0077 31.6663C61.9093 31.6533 61.852 31.6161 61.885 31.5509C63.1617 29.0236 66.0676 28.2192 68.7206 28.3367C68.8406 28.3421 68.9075 28.3649 68.9384 28.396C69.1465 28.45 69.3533 28.6802 69.5027 28.8071C69.871 29.1187 70.2341 29.4371 70.5931 29.7597C70.7509 29.9017 70.9087 30.0444 71.0656 30.1879C70.69 28.8255 70.2278 27.4968 69.6756 26.1916C68.9781 26.5714 68.2854 26.9328 67.5348 27.1902C67.2561 27.2981 66.9681 27.3865 66.6764 27.438C66.631 27.4459 66.5795 27.451 66.5265 27.4553C65.3507 27.6685 64.0528 27.5885 62.8961 27.3614C61.6248 27.1121 60.3984 26.7308 59.2036 26.231C58.695 26.0181 57.7137 25.3862 57.1221 25.591C56.9616 25.647 56.8356 26.1601 56.7411 26.2973C56.5333 26.5996 56.2501 26.861 55.8997 26.9888C54.5364 27.4874 52.9825 27.2048 51.5647 26.8871C51.2806 27.7382 50.9853 28.5847 50.6512 29.4159ZM52.3513 28.9167C52.3222 28.9337 52.2865 28.9567 52.2426 28.9924C52.1138 29.0972 51.9866 29.2042 51.8603 29.312C51.5414 29.5855 51.2255 29.8626 50.9129 30.1437C50.8626 30.1885 50.8142 30.2358 50.7642 30.2809C52.1941 29.7893 53.7464 29.657 55.1673 30.2291C56.496 30.7643 57.3887 31.68 57.9432 32.8076C57.9529 32.277 57.9657 31.7015 57.8191 31.2477C57.8254 31.2474 57.8315 31.2471 57.8375 31.2468C56.7187 29.4459 54.5909 28.7916 52.5273 28.8128C52.4797 28.8573 52.4192 28.8925 52.3513 28.9167ZM52.3822 28.8991C52.4286 28.8837 52.4237 28.8789 52.3822 28.8991V28.8991ZM48.6973 32.9061C49.9888 32.3039 51.3854 31.9132 52.7323 31.7693C53.0916 31.7311 53.1167 31.8632 52.9974 31.988C53.5456 32.0383 54.0847 32.1897 54.5748 32.4572C56.2846 33.3901 57.067 35.1108 57.2848 36.9569C57.4701 36.6707 57.594 36.3511 57.7137 36.0325C57.7252 36.0016 57.7482 35.9734 57.7782 35.9471C57.6876 33.9665 56.9452 31.7633 54.9462 30.9585C53.0495 30.1949 51.054 30.6277 49.3564 31.6648C49.0341 32.0116 48.8154 32.4369 48.6973 32.9061ZM44.4341 41.1673C44.9999 40.1799 45.6405 39.2382 46.299 38.3056C46.2463 38.3371 46.1954 38.3708 46.1418 38.4007C45.9095 38.5313 45.1096 38.5204 45.622 38.2333C47.4139 37.2295 48.6621 35.689 50.8884 36.2639C51.5805 36.4426 52.5606 36.9672 53.2718 36.6525C54.1783 36.2515 53.8003 35.6745 53.2624 35.3304C52.1338 34.6086 50.7454 34.3051 49.4169 34.3639C48.8308 34.3899 49.5199 33.9704 49.7831 33.9586C50.3214 33.935 52.4083 34.2348 53.6871 34.823C54.0205 34.8188 54.5379 34.8167 54.4818 34.3469C54.4394 33.9916 54.2126 33.6878 53.9569 33.4494C53.3499 32.8833 52.5355 32.4563 51.6953 32.3805C51.5908 32.4066 51.4878 32.4384 51.3878 32.4844C51.2621 32.542 50.9444 32.5656 50.7884 32.5314C49.9306 32.7746 49.0974 33.1214 48.3293 33.5606C48.312 33.6466 48.3017 33.6981 48.3017 33.6981L47.6353 33.9968C45.2922 35.6009 43.7659 38.1288 44.4341 41.1673ZM44.057 43.3109C42.1334 45.2715 41.931 48.3213 43.1684 50.6217C43.357 50.605 43.5106 50.6323 43.4728 50.7141C43.4361 50.7931 43.3949 50.871 43.3574 50.9497C43.437 51.0784 43.5218 51.2032 43.6109 51.3259L43.6112 51.3265C43.6254 51.3462 43.6415 51.3653 43.656 51.3847C43.7553 51.5182 43.8629 51.6457 43.9728 51.7714C44.0594 51.8696 44.1518 51.9632 44.2454 52.0556C44.3124 52.1222 44.3754 52.1922 44.4462 52.2558C44.4465 52.2558 44.4465 52.2561 44.4468 52.2564C44.4865 52.2921 44.5292 52.3251 44.5704 52.3597C44.6664 52.4414 44.7667 52.5187 44.8691 52.5941C44.9966 52.6877 45.1268 52.7779 45.2631 52.8628C45.3004 52.8858 45.3376 52.9085 45.3752 52.9309C45.5427 53.029 45.7141 53.1226 45.895 53.2047C47.9382 54.1361 50.4201 54.127 52.1529 52.5229C53.0801 51.6648 54.2525 49.8263 54.1053 48.3425C54.1032 48.3219 54.1038 48.3004 54.1011 48.2798C54.0923 48.208 54.0757 48.138 54.0599 48.068C54.0523 48.0347 54.0487 47.9999 54.0396 47.9672C54.0121 47.8663 53.9772 47.7676 53.9339 47.6716C53.893 47.581 53.9088 47.4989 53.9572 47.4295C53.5174 45.4081 52.5006 43.4653 50.5879 42.4864C48.3986 41.3657 45.984 41.7292 44.1067 43.276C44.0916 43.2897 44.0743 43.3003 44.057 43.3109ZM28.0512 64.8474C28.3117 64.7717 28.5697 64.6836 28.8254 64.5866C29.2394 64.4298 29.6462 64.2501 30.0394 64.0496C35.2978 61.3676 39.9762 56.3947 42.5059 51.0551C42.2418 50.615 42.0225 50.1519 41.8571 49.6727C41.733 49.3165 41.6415 48.9513 41.5782 48.5817C41.5709 48.5396 41.5621 48.4984 41.5558 48.4563C41.5473 48.3991 41.5412 48.3415 41.5343 48.2843C41.5225 48.1922 41.5109 48.1004 41.5031 48.0081C41.5025 47.9981 41.5022 47.9884 41.5013 47.9784C41.3589 46.2286 41.9074 44.4303 43.3434 42.9889C43.4025 42.9295 43.484 42.8905 43.5727 42.8677C43.5763 42.8568 43.5779 42.8468 43.583 42.835C43.6399 42.7051 43.7029 42.5785 43.7635 42.4504C43.8277 42.3147 43.891 42.1784 43.9586 42.0445C43.8262 42.049 43.7178 42.0184 43.693 41.9348C43.5869 41.5811 43.51 41.234 43.4594 40.8938C43.4397 40.8996 43.4197 40.905 43.4001 40.909C43.0657 40.9753 42.2712 41.3254 41.8147 41.5141C40.0801 42.2308 38.3612 43.0092 36.6687 43.8437C34.2192 45.051 31.8267 46.3791 29.5344 47.8372C27.3527 49.2251 25.1907 50.725 23.3401 52.5414C21.9353 53.9207 20.4436 55.593 20.0271 57.5821C19.5655 59.7862 20.7258 62.5703 22.4387 63.98C24.1037 65.349 26.1285 65.4075 28.0512 64.8474ZM69.7177 91.4586C55.2851 91.4586 40.8522 91.4586 26.4195 91.4586C26.4195 95.9837 26.4195 100.509 26.4195 105.034C40.8522 105.034 55.2851 105.034 69.7177 105.034C69.7177 100.509 69.7177 95.9834 69.7177 91.4586ZM93.996 91.0361C93.996 86.5282 93.996 82.0206 93.996 77.513C93.996 77.4948 93.9997 77.4776 94.0045 77.4606C86.6907 77.4606 79.3768 77.4606 72.063 77.4606C71.7562 78.2112 71.3333 78.9121 70.7394 79.5402C70.5019 79.7916 69.6484 79.7253 70.0188 79.3337C70.5525 78.7694 70.9311 78.1364 71.2082 77.4603C70.9384 77.4603 70.6691 77.4603 70.3992 77.4603C70.2042 77.5597 69.921 77.5778 69.7901 77.4603C69.3661 77.4603 68.942 77.4603 68.5177 77.4603C67.9507 78.1551 67.347 78.8527 66.7109 79.5396C66.9009 79.5157 67.0783 79.5763 67.0995 79.7565C67.3837 82.1981 65.3367 85.1897 63.8056 86.9177C62.9418 87.8927 60.9658 89.5958 60.0577 88.035C60.0465 88.0481 60.0371 88.0605 60.0226 88.0741C56.0208 91.8508 47.8459 90.6959 44.8215 86.1829C44.7122 86.0196 44.8373 85.8645 45.022 85.7746C44.9057 85.7764 44.8121 85.7498 44.787 85.6783C44.5904 85.1246 44.2872 85.0789 44.8845 84.653C45.0532 84.5331 45.2989 84.467 45.5051 84.4867C46.1888 84.5524 46.8409 84.8741 47.5496 84.8883C48.3674 84.9041 49.1589 84.812 49.9376 84.5667C50.9529 84.2468 51.9212 83.8185 52.9105 83.4305C53.6771 83.1295 54.4703 82.6991 55.2827 82.269C55.2827 80.6833 55.2827 79.098 55.2827 77.5124C55.2827 77.4942 55.2863 77.477 55.2911 77.46C42.6783 77.46 30.0654 77.46 17.4528 77.46C17.4528 81.9852 17.4528 86.5103 17.4528 91.0355C20.1494 91.0355 22.8464 91.0355 25.5427 91.0355C25.6057 90.7217 26.4201 90.5839 26.4201 90.9855C26.4201 91.0021 26.4201 91.0185 26.4201 91.0355C48.945 91.0361 71.4705 91.0361 93.996 91.0361ZM94.8738 91.4586C94.8153 91.7748 93.996 91.9144 93.996 91.5116C93.996 91.4937 93.996 91.4762 93.996 91.4586C86.1979 91.4586 78.3997 91.4586 70.6015 91.4586C70.6015 95.9834 70.6015 100.509 70.6015 105.034C82.847 105.034 95.0928 105.034 107.338 105.034C107.338 100.509 107.338 95.9834 107.338 91.4586C103.183 91.4586 99.0285 91.4586 94.8738 91.4586ZM98.908 63.2439C98.8983 63.2588 98.8889 63.2739 98.8789 63.2885C97.7567 64.9413 96.2553 65.8164 94.6142 66.1126C94.417 66.148 94.2174 66.1735 94.0166 66.1932C92.0648 66.3801 89.9625 65.8118 88.09 64.8017C87.2068 64.3256 86.3457 63.7843 85.5112 63.1915C85.4301 63.223 85.3504 63.2439 85.2895 63.2439C80.3933 63.2439 75.4971 63.2439 70.6012 63.2439C70.6012 67.8424 70.6012 72.4399 70.6012 77.0384C70.8566 77.0384 71.1119 77.0384 71.3672 77.0384C71.6483 76.216 71.7998 75.3398 71.9052 74.4499C71.9467 74.0992 72.8375 73.9553 72.789 74.363C72.6794 75.2886 72.5137 76.1903 72.2202 77.0384C83.9259 77.0384 95.6319 77.0384 107.338 77.0384C107.338 72.4575 107.338 67.8772 107.338 63.2963C107.338 63.2782 107.342 63.2609 107.346 63.2439C104.534 63.2439 101.721 63.2439 98.908 63.2439ZM84.3518 45.299C82.3945 44.2786 80.4054 43.3151 78.3776 42.4422C77.8539 42.2168 77.306 41.9479 76.749 41.7234C76.924 42.0569 77.0918 42.3943 77.2454 42.7408C77.2584 42.7705 77.263 42.7987 77.2636 42.8269C77.2814 42.8411 77.2999 42.8544 77.3178 42.8687C77.3869 42.8805 77.4483 42.9053 77.4916 42.9492C80.1295 45.5971 79.7106 49.7094 77.3929 52.2264C78.3416 54.2676 79.601 56.163 81.0548 57.8792C82.9815 60.1536 85.2026 62.2714 87.7596 63.8273C87.9946 63.9706 88.2454 64.1169 88.505 64.2632C89.6987 64.935 91.1262 65.5941 92.5491 65.8449C93.661 66.0408 94.769 65.9893 95.757 65.4908C95.7576 65.4902 95.7585 65.4902 95.7595 65.4896C95.761 65.4887 95.7628 65.4877 95.7643 65.4865C96.6763 65.0246 97.5259 64.2041 98.1819 63.2273C98.4851 62.7766 98.7468 62.2926 98.9537 61.7946C99.3402 60.8635 99.5371 59.8849 99.4559 58.9872C99.2793 57.0299 98.0902 55.3237 96.7778 53.9295C93.3257 50.2631 88.7815 47.6076 84.3518 45.299ZM71.2594 81.2688C70.7933 82.978 69.5802 84.219 67.9428 84.8638C67.4088 85.0743 68.2493 85.021 68.4398 84.9459C70.2026 84.2514 71.6138 82.9701 72.1223 81.1034C72.1626 80.9562 71.3152 81.0641 71.2594 81.2688ZM61.7045 46.4618C61.5834 46.6875 61.3441 46.8432 61.1136 46.9392C60.7843 47.0767 60.4339 47.1679 60.0765 47.1854C59.6458 47.2063 58.9331 47.1794 58.7008 46.7299C58.6017 46.5381 58.6753 46.3083 58.7904 46.1414C59.0345 45.7864 59.4032 45.5286 59.7627 45.3024C59.8626 45.2394 59.9829 45.1939 60.1062 45.1658C60.151 45.0858 60.3436 45.0116 60.3842 44.997C60.5075 44.9525 60.8276 44.8423 60.9497 44.9477C61.3195 45.2672 62.0068 45.8984 61.7045 46.4618ZM60.8888 46.4694C60.9009 46.3573 60.8825 46.244 60.8431 46.1386C60.7359 45.8545 60.5284 45.6198 60.3058 45.4123C60.081 45.5568 59.8966 45.6907 59.7045 45.9215C59.7 45.9269 59.7006 45.926 59.6985 45.9281C59.697 45.9306 59.6979 45.9293 59.6951 45.933C59.6882 45.9418 59.6815 45.9514 59.6749 45.9605C59.6594 45.9823 59.644 46.0048 59.6303 46.0278C59.6058 46.0684 59.5828 46.1102 59.5658 46.155C59.5301 46.2477 59.5249 46.2556 59.5331 46.341C59.5395 46.4085 59.561 46.4736 59.5991 46.53C59.6052 46.5387 59.6082 46.5436 59.6097 46.546C59.6097 46.546 59.6097 46.5457 59.6109 46.5472C59.6228 46.5603 59.6349 46.5733 59.6476 46.5857C59.6721 46.6081 59.6979 46.6296 59.7251 46.6484C59.7575 46.6708 59.7915 46.6917 59.8269 46.709C59.8454 46.7181 59.8642 46.7278 59.8832 46.7356C59.8893 46.7384 59.8884 46.7381 59.8914 46.7396C59.972 46.7692 60.0556 46.7917 60.1401 46.8077C60.1698 46.8132 60.1995 46.818 60.2294 46.822C60.2419 46.8232 60.254 46.8244 60.2661 46.8256C60.3251 46.8301 60.3848 46.8326 60.4439 46.8322C60.453 46.8319 60.4621 46.8313 60.4711 46.8307C60.5011 46.8289 60.5311 46.8265 60.5611 46.8238C60.5814 46.8204 60.6017 46.8168 60.6217 46.8129C60.6259 46.8117 60.6302 46.8107 60.6344 46.8095C60.6377 46.808 60.6414 46.8065 60.645 46.8053C60.655 46.8004 60.665 46.7965 60.675 46.7911C60.6792 46.7883 60.6817 46.7865 60.6877 46.7829C60.6941 46.7786 60.7001 46.7747 60.7065 46.7705C60.7371 46.745 60.7662 46.7178 60.7919 46.6884C60.8016 46.6754 60.8167 46.6554 60.8216 46.6469C60.8334 46.6272 60.8446 46.6066 60.8537 46.5854C60.8628 46.5642 60.8716 46.5421 60.8779 46.5197C60.88 46.5106 60.8867 46.4776 60.8888 46.4694ZM72.3931 47.4271C72.2362 47.4414 71.9043 47.5549 71.9046 47.7624C71.9049 48.1113 71.9131 48.5093 72.162 48.7828C72.4092 49.0542 73.2455 48.7141 72.9695 48.4106C72.7945 48.2183 72.7899 47.9278 72.7899 47.6812C72.7896 47.4689 72.5743 47.4102 72.3931 47.4271ZM48.7273 48.9831C48.7273 48.6187 48.7273 48.254 48.7273 47.8893C48.7273 47.5059 47.848 47.6894 47.848 47.9929C47.848 48.3573 47.848 48.722 47.848 49.0867C47.848 49.4698 48.7273 49.2866 48.7273 48.9831Z" fill="#340679"/>
</svg>
