<svg width="20" height="21" viewBox="0 0 20 21" fill="none" xmlns="http://www.w3.org/2000/svg">
    <path d="M17.3671 4.09367C16.9415 3.66784 16.4361 3.33005 15.8799 3.09958C15.3237 2.86911 14.7275 2.75049 14.1254 2.75049C13.5234 2.75049 12.9272 2.86911 12.371 3.09958C11.8148 3.33005 11.3094 3.66784 10.8838 4.09367L10.0004 4.97701L9.11709 4.09367C8.25735 3.23393 7.09129 2.75093 5.87543 2.75093C4.65957 2.75093 3.4935 3.23393 2.63376 4.09367C1.77402 4.95342 1.29102 6.11948 1.29102 7.33534C1.29102 8.5512 1.77402 9.71726 2.63376 10.577L3.51709 11.4603L10.0004 17.9436L16.4838 11.4603L17.3671 10.577C17.7929 10.1514 18.1307 9.64602 18.3612 9.0898C18.5917 8.53359 18.7103 7.93741 18.7103 7.33534C18.7103 6.73327 18.5917 6.13709 18.3612 5.58088C18.1307 5.02466 17.7929 4.5193 17.3671 4.09367Z" stroke="white" stroke-width="2" stroke-linecap="round" stroke-linejoin="round"/>
</svg>
