<svg width="24" height="25" viewBox="0 0 24 25" fill="none" xmlns="http://www.w3.org/2000/svg">
<path d="M18 8.87183C18 7.28053 17.3679 5.7544 16.2426 4.62919C15.1174 3.50397 13.5913 2.87183 12 2.87183C10.4087 2.87183 8.88258 3.50397 7.75736 4.62919C6.63214 5.7544 6 7.28053 6 8.87183C6 15.8718 3 17.8718 3 17.8718H21C21 17.8718 18 15.8718 18 8.87183Z" stroke="#C1C1C1" stroke-width="2" stroke-linecap="round" stroke-linejoin="round"/>
<path d="M13.73 21.8718C13.5542 22.1749 13.3019 22.4265 12.9982 22.6014C12.6946 22.7762 12.3504 22.8683 12 22.8683C11.6496 22.8683 11.3054 22.7762 11.0018 22.6014C10.6982 22.4265 10.4458 22.1749 10.27 21.8718" stroke="#C1C1C1" stroke-width="2" stroke-linecap="round" stroke-linejoin="round"/>
</svg>
