<svg width="24" height="25" viewBox="0 0 24 25" fill="none" xmlns="http://www.w3.org/2000/svg">
<path fill-rule="evenodd" clip-rule="evenodd" d="M17.1991 3.30078C18.3243 4.426 19.3481 5.80078 19.3481 8.49994C19.3481 12.867 20.7584 15.4161 21.9999 16.814C22.9762 17.9132 22 18.3007 22 18.3007H2.56714C2.56714 18.3007 1.41745 17.9799 2.56709 16.814C3.90336 15.4589 5.34809 12.9619 5.34809 8.49994C5.34809 6.30078 6.22287 4.426 7.34809 3.30078C8.47331 2.17556 10.4086 1.30078 11.9999 1.30078C13.5912 1.30078 15.3481 1.44976 17.1991 3.30078ZM13.731 21.9643C14.2575 21.6132 14.6951 21.1083 15 20.5H8.99999C9.30486 21.1083 9.74246 21.6132 10.269 21.9643C10.7955 22.3153 11.3924 22.5 12 22.5C12.6076 22.5 13.2045 22.3153 13.731 21.9643Z" fill="#B70F90"/>
</svg>
