<svg width="24" height="25" viewBox="0 0 24 25" fill="none" xmlns="http://www.w3.org/2000/svg">
<path fill-rule="evenodd" clip-rule="evenodd" d="M6 2.5C3.79086 2.5 2 4.29086 2 6.5V18.5C2 20.7091 3.79086 22.5 6 22.5H18C20.2091 22.5 22 20.7091 22 18.5V6.5C22 4.29086 20.2091 2.5 18 2.5H6Z" fill="#3F3F3F"/>
<path fill-rule="evenodd" clip-rule="evenodd" d="M12.25 6.5C11.7325 6.5 10.8678 6.69875 10.054 6.92C9.2215 7.145 8.38225 7.41125 7.88875 7.5725C7.68242 7.64064 7.4995 7.7656 7.36099 7.93303C7.22249 8.10045 7.13402 8.30356 7.10575 8.519C6.65875 11.8767 7.696 14.3653 8.9545 16.0115C9.48819 16.7157 10.1245 17.3359 10.8423 17.8512C11.1318 18.056 11.4003 18.2127 11.6283 18.32C11.8383 18.419 12.064 18.5 12.25 18.5C12.436 18.5 12.661 18.419 12.8718 18.32C13.1466 18.1864 13.4096 18.0296 13.6578 17.8512C14.3755 17.3359 15.0118 16.7157 15.5455 16.0115C16.804 14.3653 17.8413 11.8767 17.3943 8.519C17.366 8.30345 17.2776 8.10023 17.1391 7.93267C17.0006 7.76512 16.8176 7.64002 16.6113 7.57175C15.8949 7.33686 15.1729 7.1193 14.446 6.91925C13.6323 6.6995 12.7675 6.5 12.25 6.5ZM10.333 11.8849C9.89646 11.5466 9.27107 11.6228 8.93618 12.055C8.60129 12.4872 8.68372 13.1118 9.12029 13.4501L11.1393 15.0145C11.5759 15.3527 12.2013 15.2766 12.5362 14.8444L15.7444 10.7038C16.0793 10.2716 15.9968 9.64703 15.5603 9.30876C15.1237 8.9705 14.4983 9.04665 14.1634 9.47886L11.5616 12.8368L10.333 11.8849Z" fill="white"/>
</svg>
