<svg id="Layer_1" data-name="Layer 1" xmlns="http://www.w3.org/2000/svg" viewBox="0 0 10.5 12"><path d="M6,0A10.36,10.36,0,0,0,3.8.42C3,.64,2.13.91,1.64,1.07a1.22,1.22,0,0,0-.53.36A1.08,1.08,0,0,0,.86,2,9.87,9.87,0,0,0,2.7,9.51a8.68,8.68,0,0,0,1.89,1.84,5.07,5.07,0,0,0,.79.47A1.55,1.55,0,0,0,6,12a1.55,1.55,0,0,0,.62-.18,4.84,4.84,0,0,0,.79-.47A8.68,8.68,0,0,0,9.3,9.51,9.87,9.87,0,0,0,11.14,2a1.08,1.08,0,0,0-.25-.59,1.22,1.22,0,0,0-.53-.36C9.64.84,8.92.62,8.2.42A10.36,10.36,0,0,0,6,0ZM7.61,3.86a.39.39,0,0,1,.27-.11.38.38,0,0,1,.37.37.39.39,0,0,1-.11.27L5.89,6.64a.32.32,0,0,1-.12.08.4.4,0,0,1-.15,0l-.14,0a.32.32,0,0,1-.12-.08L4.23,5.52a.57.57,0,0,1-.08-.13.34.34,0,0,1,0-.28A.57.57,0,0,1,4.23,5a.57.57,0,0,1,.13-.08.34.34,0,0,1,.28,0A.57.57,0,0,1,4.77,5l.85.86,2-2Z" transform="translate(-0.75)" fill="#fff" fill-rule="evenodd"/></svg>