<svg width="25" height="26" viewBox="0 0 25 26" fill="none" xmlns="http://www.w3.org/2000/svg">
    <g clip-path="url(#clip0)">
        <path d="M23.7985 14.571L22.6207 15.7538V9.86206H20.5198V15.7538L19.342 14.571L17.8564 16.0627L21.5702 19.7919L25.284 16.0627L23.7985 14.571Z" fill="white"/>
        <path d="M13.3986 6.4868C13.1777 6.4868 12.9656 6.52502 12.7684 6.59523V5.85394C12.7684 4.80706 11.9202 3.95536 10.8776 3.95536C10.6317 3.95536 10.3967 4.00274 10.181 4.08885C9.96211 3.28347 9.22711 2.68964 8.3566 2.68964C7.4861 2.68964 6.7511 3.28347 6.53219 4.08885C6.31652 4.00274 6.08148 3.95536 5.83559 3.95536C4.79303 3.95536 3.94484 4.80706 3.94484 5.85394V11.5497H3.73475C2.46051 11.5497 1.42383 12.5906 1.42383 13.8702V17.4564C1.42383 18.7412 1.91908 19.952 2.81832 20.866C3.54479 21.6042 3.94484 22.566 3.94484 23.574V24.2069H12.7684V23.574C12.7684 22.5659 13.1684 21.6042 13.8948 20.866C14.7941 19.9521 15.2894 18.7412 15.2894 17.4564V8.38538C15.2894 7.3385 14.4412 6.4868 13.3986 6.4868ZM14.0289 17.4564C14.0289 18.406 13.6629 19.3009 12.9982 19.9763C12.1895 20.7982 11.6865 21.8333 11.5474 22.9412H5.16584C5.02673 21.8333 4.52374 20.7983 3.715 19.9763C3.05038 19.3009 2.68433 18.406 2.68433 17.4564V13.8702C2.68433 13.2886 3.15555 12.8154 3.73475 12.8154H3.94484V15.9797H5.20534C5.20534 15.5375 5.20534 6.30858 5.20534 5.85394C5.20534 5.50498 5.48807 5.22108 5.83559 5.22108C6.18311 5.22108 6.46585 5.50498 6.46585 5.85394V13.4483H7.72635C7.72635 12.9831 7.72635 5.03151 7.72635 4.58822C7.72635 4.23926 8.00908 3.95536 8.3566 3.95536C8.70412 3.95536 8.98685 4.23926 8.98685 4.58822V13.4483H10.2474V5.85394C10.2474 5.50498 10.5301 5.22108 10.8776 5.22108C11.2251 5.22108 11.5079 5.50498 11.5079 5.85394V13.4483H12.7684V8.38538C12.7684 8.03642 13.0511 7.75252 13.3986 7.75252C13.7461 7.75252 14.0289 8.03642 14.0289 8.38538V17.4564Z" fill="white"/>
    </g>
    <defs>
        <clipPath id="clip0">
            <rect width="25" height="26" fill="white"/>
        </clipPath>
    </defs>
</svg>
