<svg width="45" height="45" viewBox="0 0 45 45" fill="none" xmlns="http://www.w3.org/2000/svg">
    <g opacity="0.8">
        <path d="M29.0498 6.16463C13.1461 -2.79786 7.94042 0.45789 6.76642 1.11852C5.45954 1.85072 0 4.74569 0 22.5236C0 40.4535 5.65189 43.2817 6.76045 43.9133C7.76292 44.4811 13.1402 47.8432 29.0458 38.8836C44.9891 29.9028 45 24.3188 45 22.5246C45 20.7304 44.9901 15.1455 29.0498 6.16463ZM19.4534 35.8726C16.742 35.8726 14.0914 35.0882 11.837 33.6186C9.58254 32.1491 7.82552 30.0603 6.78811 27.6166C5.75071 25.1729 5.47953 22.4839 6.00887 19.8899C6.53821 17.2958 7.84429 14.9131 9.76193 13.0432C11.6796 11.1732 14.1226 9.90005 16.7821 9.38463C19.4416 8.8692 22.198 9.13471 24.7028 10.1476C27.2076 11.1604 29.3482 12.8751 30.8539 15.0748C32.3596 17.2745 33.1627 19.8603 33.1618 22.5053C33.1604 26.0509 31.7156 29.451 29.1449 31.9577C26.5743 34.4644 23.0883 35.8726 19.4534 35.8726Z" fill="white"/>
        <path d="M25.8774 20.7055L21.3995 18.181L16.9216 15.6662C16.6584 15.518 16.3599 15.4399 16.056 15.4399C15.7521 15.4399 15.4536 15.518 15.1904 15.6662C14.9272 15.8144 14.7086 16.0276 14.5567 16.2843C14.4047 16.541 14.3247 16.8322 14.3247 17.1287V27.2112C14.3247 27.5077 14.4047 27.7989 14.5567 28.0556C14.7086 28.3123 14.9272 28.5255 15.1904 28.6737C15.4536 28.8219 15.7521 28.9 16.056 28.9C16.3599 28.9 16.6584 28.8219 16.9216 28.6737L21.3995 26.1511L25.8774 23.6295C26.1405 23.4814 26.3591 23.2683 26.5111 23.0117C26.663 22.7551 26.743 22.4639 26.743 22.1675C26.743 21.8712 26.663 21.58 26.5111 21.3234C26.3591 21.0667 26.1405 20.8536 25.8774 20.7055Z" fill="white"/>
    </g>
</svg>
