<svg width="169" height="152" viewBox="0 0 169 152" fill="none" xmlns="http://www.w3.org/2000/svg">
<path d="M58.0749 138.187C38.2466 112.368 29.8412 69.4584 33.5989 34.7823C34.8955 25.5853 46.9094 20.153 51.5171 18.5428C64.3079 14.0696 77.0338 15.2416 117.279 31.1194C157.525 46.9972 159.684 68.0728 155.733 76.6258C154.091 82.605 143.233 101.139 112.938 127.44C82.6433 153.742 63.7398 145.564 58.0749 138.187Z" fill="#F4EDFB"/>
<path d="M39.82 90.4571L27.9921 91.4033L27.2825 91.8764L24.9169 89.2743L20.8954 87.8549L15.6912 86.9087L10.2504 85.7259L8.12134 84.07L10.0138 83.3603L19.7126 84.3066C21.132 83.9123 24.633 82.9346 27.2825 82.1776C29.9319 81.4206 33.1175 82.6507 34.3792 83.3604L36.0351 84.7797L37.2179 86.6722L39.82 90.4571Z" fill="#FEFDFF"/>
<path d="M81.9272 135.166H74.1208L73.8842 133.984L76.2498 102.048L80.7444 77.4464L83.5831 66.0917L87.6045 54.7369L91.1529 52.6079L89.9701 55.6832V60.8874L88.5508 67.2745L81.2175 119.79L80.2713 132.564L81.9272 135.166Z" fill="#FEFDFF"/>
<path d="M96.5937 58.995L93.9916 55.21L103.217 45.7478L104.164 45.0381L105.346 45.9843L106.293 48.823L96.5937 58.995Z" fill="#FEFDFF"/>
<path d="M110.077 51.1886L107.002 49.5327L106.529 49.2961L97.3034 58.7584L96.3572 59.9412L95.4109 63.253L94.2281 67.7476L91.1529 127.597L90.4432 135.166L102.981 134.457V133.984L102.508 119.317L102.035 105.36V90.9302L103.217 68.9304L105.11 59.4681L106.293 56.6294L110.077 51.1886Z" fill="#FEFDFF"/>
<path d="M168.541 95.8397C168.598 96.8517 168.552 97.8566 168.427 98.8544C168.096 100.354 167.68 102.021 167.242 103.644C165.65 108.103 162.925 112.354 160.792 116.268C158.787 119.948 156.847 123.596 154.541 127.105C152.152 130.741 149.608 134.27 147.249 137.925C141.921 137.337 137.294 133.903 134.827 129.27C135.047 129.159 135.197 128.998 135.138 128.827C134.437 126.791 133.824 124.733 133.276 122.66C135.805 119.309 137.941 115.597 140.105 112.017C142.674 107.768 145.351 103.431 147.288 98.8398C147.547 98.7196 147.729 98.5734 147.635 98.4963C147.585 98.4546 147.533 98.4144 147.483 98.3728C147.483 98.3416 147.453 98.3174 147.396 98.3028C141.14 93.2064 134.431 88.7894 129.226 82.5485C129.226 82.3952 129.224 82.241 129.224 82.0868C129.223 81.5895 128.215 81.7371 127.929 82.0764C127.629 82.1932 127.391 82.3635 127.493 82.4903C127.612 82.6375 127.736 82.778 127.856 82.9232C127.888 96.3195 128.466 109.958 131.887 122.958C131.717 123.182 131.551 123.41 131.377 123.631C131.351 123.664 131.466 123.683 131.64 123.681C131.639 123.705 131.635 123.728 131.638 123.753C132.068 127.889 134.115 131.659 137.096 134.415L136.346 134.057H105.316C105.355 133.966 105.352 133.867 105.285 133.766C104.982 133.312 105.066 131.495 105.019 130.805C104.856 128.386 104.747 125.962 104.643 123.54C104.608 122.721 104.582 121.901 104.551 121.081C105.771 114.456 107.781 107.882 109.521 101.384C110.685 97.0348 112.323 92.6438 112.937 88.1781C113.248 85.9105 112.608 83.6613 112.055 81.484C111.699 80.0874 110.723 78.0407 110.701 76.4931C110.718 76.4832 110.735 76.4723 110.748 76.4614C113.179 74.3528 115.018 71.5997 116.729 68.8997C117.41 67.8233 117.216 67.3142 117.086 66.0226C116.833 63.5043 116.59 60.9844 116.37 58.4627C116.265 57.2625 116.168 56.0617 116.088 54.8595C116.072 54.613 116.045 53.8352 116.005 53.3375C119.196 54.4181 122.509 55.2021 125.781 56.0574C129.274 56.9701 132.701 58.0601 135.924 59.7023C139.406 61.476 142.283 64.1794 144.879 67.055C149.493 72.1679 153.142 78.0293 158.233 82.7174C160.413 84.7239 162.546 86.7772 164.519 88.989C166.19 90.863 168.055 93.09 168.592 95.6212C168.555 95.6883 168.536 95.7612 168.541 95.8397ZM102.969 80.6759C102.95 80.8075 102.932 80.9362 102.913 81.0686C101.887 88.2496 102.344 103.213 102.978 115.414C102.83 110.444 102.733 105.473 102.7 100.502C102.656 93.8995 102.66 87.2773 102.969 80.6759ZM75.8103 112.517C75.1919 105.448 75.3542 98.255 75.2577 91.1639C75.2345 89.4981 75.0154 87.9316 75.5884 86.3661C77.4477 81.2829 79.3525 76.2154 81.3547 71.1857C81.0585 69.8847 80.1861 68.5126 79.6557 67.3015C79.2711 66.4243 79.4883 66.3042 79.9391 65.4279C81.1763 63.0203 82.3714 60.3528 83.928 58.045C83.6105 58.2461 83.2968 58.4509 82.9817 58.6553C81.9565 59.4161 80.6001 60.3883 79.3492 61.1789C78.9054 61.5158 78.4663 61.8588 78.0372 62.2136C73.4404 66.0103 72.0192 72.0776 70.6174 77.6206C69.2884 82.8721 67.9646 88.2013 65.8172 93.1912C64.1206 97.1346 61.913 101.325 57.9795 103.422C57.9308 103.448 57.8821 103.467 57.8333 103.482C58.8595 104.409 59.8886 105.333 60.919 106.256C61.5042 106.78 60.3011 107.431 59.8592 107.036C54.3333 102.091 48.8262 97.1309 43.8301 91.6423L43.471 91.3168C42.3871 91.2827 41.3056 91.2964 40.225 91.3385L37.6328 91.488C34.1843 91.7416 30.7428 92.165 27.2825 92.2232C27.2896 92.227 27.2971 92.2289 27.3038 92.2332C28.004 92.6798 28.5656 94.0102 29.0051 94.6787C30.2962 96.644 31.5741 98.6183 32.8591 100.587C36.0058 105.407 39.1425 110.249 42.5395 114.897C45.6535 119.158 49.2265 122.886 54.355 124.663C57.1644 125.637 60.5438 126.235 63.3735 124.978C65.9629 123.828 67.553 121.656 68.5489 119.127C70.7139 104.75 71.8356 90.1964 75.3726 76.0574C75.4554 75.7276 76.7901 75.5389 76.7229 75.8081C73.2938 89.5161 72.1328 103.613 70.0922 117.562C70.2597 117.588 70.3628 117.663 70.3198 117.798C70.1854 118.223 70.0369 118.629 69.8784 119.018C69.1233 124.016 68.2428 128.992 67.087 133.922C67.0397 134.123 66.5193 134.274 66.1379 134.298L66.0097 135.003H74.2102C74.2102 135.003 74.213 134.974 74.2173 134.931C74.1761 134.873 74.1515 134.802 74.152 134.714C74.1913 127.346 75.0883 120.043 75.9158 112.733C75.8576 112.68 75.8183 112.61 75.8103 112.517ZM88.1675 58.2754C87.0931 61.2376 86.1019 64.2276 85.194 67.2423C86.2798 63.8648 87.3476 60.6807 88.1675 58.2754ZM110.031 94.8164C110.74 92.3652 111.755 89.6755 111.639 87.0904C111.533 84.7121 110.833 82.4023 110.229 80.1106C109.937 79.0016 109.229 77.4786 109.351 76.3115C109.378 76.0536 109.745 75.923 110.095 75.8909C112.421 73.7335 114.248 70.9364 115.875 68.243C116.115 67.846 115.583 65.0726 115.496 64.1865C115.241 61.5631 114.986 58.9378 114.793 56.3091C114.743 55.6278 114.269 53.6323 114.726 52.8843C113.801 52.5417 112.889 52.1684 111.993 51.7568C105.548 58.0053 105.018 68.8552 104.525 77.2615C104.074 84.9482 104.019 92.6585 104.078 100.356C104.118 105.487 104.215 110.618 104.368 115.747C105.548 110.789 107.002 105.861 108.32 100.982C108.876 98.9235 109.437 96.8654 110.031 94.8164ZM91.4618 65.9512C91.3204 66.4432 91.0313 67.4548 90.6552 68.7847C89.7189 72.8927 88.8488 76.9767 88.1813 81.1822C87.209 87.3076 86.2987 93.4486 85.6633 99.6194C84.5454 110.485 82.2148 121.194 82.1633 132.153C82.1633 132.187 82.1533 132.217 82.1457 132.248L84.6211 134.949C85.0554 135.176 85.5233 135.295 86.0191 135.252C86.3934 135.064 86.946 134.788 87.7739 134.374C88.3383 134.092 88.8521 133.73 89.3153 133.339C90.1314 132.519 90.8335 131.559 91.4756 130.672C91.5082 130.626 91.5645 130.584 91.6326 130.547C91.8427 118.605 92.8121 106.7 93.6396 94.7875L94.8427 70.5953C94.8678 69.2739 94.8834 67.9525 94.8881 66.6301C93.8198 66.7096 92.5032 66.3179 91.4618 65.9512ZM95.4199 57.4172C95.1015 56.9899 94.7807 56.5627 94.4779 56.1246C94.433 56.0598 94.3743 55.9865 94.3195 55.9093C93.4669 56.7922 92.4857 57.5567 91.7476 58.5394C91.7722 58.5815 91.7888 58.6288 91.7888 58.6875C91.7883 59.8504 91.7646 61.0109 91.7216 62.1729C91.7041 62.647 91.4699 64.8848 91.6658 64.9487C92.6139 65.2572 93.5913 65.5415 94.5816 65.6716C94.9099 65.6304 95.1242 65.6262 95.2373 65.655C95.3556 65.3958 95.4592 65.1289 95.5505 64.8583C95.8041 64.1108 96.0293 63.3543 96.2417 62.594C96.5147 61.6165 96.7248 60.5866 97.0692 59.6247L96.9845 59.4662C96.4172 58.8289 95.9276 58.0989 95.4199 57.4172ZM86.1298 56.6739C84.13 59.1819 82.7338 62.3863 81.2941 65.2004C80.6923 66.377 80.787 66.3869 81.3329 67.6355C81.781 68.6588 82.529 69.8274 82.7527 70.926C82.7532 70.9279 82.7537 70.9298 82.7542 70.9317C82.7551 70.935 82.7532 70.9383 82.7537 70.9416C82.7679 71.0135 82.7636 71.0958 82.7239 71.1943C80.6999 76.2717 78.7734 81.3894 76.8984 86.5241C76.3931 87.9089 76.6269 89.7072 76.6515 91.4421C76.712 95.7631 76.669 100.125 76.7778 104.471C77.1979 100.315 77.636 96.1624 78.2776 92.0302C80.2074 79.5911 83.329 67.4008 87.8094 55.6383C87.2507 55.9846 86.69 56.329 86.1298 56.6739ZM146.082 98.7541C144.134 97.1673 142.141 95.6462 140.165 94.1148C142.108 95.7148 144.083 97.2818 146.024 98.8866C146.043 98.8421 146.063 98.7986 146.082 98.7541ZM133.019 120.314C132.533 118.752 132.086 117.123 131.672 115.454C132.049 117.471 132.477 119.479 132.975 121.471C133.131 121.249 133.278 121.019 133.431 120.795C133.393 120.749 133.358 120.7 133.338 120.643C133.198 120.599 133.075 120.495 133.019 120.314Z" fill="#A358E7"/>
<path d="M85.6451 39.1508C82.3669 40.0114 82.8443 35.3758 82.858 33.4285C82.8632 32.7732 84.2566 32.5906 84.2513 33.3391C84.2447 34.1722 83.8407 38.5594 85.3788 38.1559C86.2309 37.9321 86.4986 38.9266 85.6451 39.1508ZM94.4456 37.044C94.5388 36.3206 93.1364 36.4929 93.0541 37.1372C92.9207 38.1724 92.422 39.0482 91.3604 39.3103C90.5026 39.5213 90.7709 40.5011 91.623 40.2905C93.2244 39.8955 94.2379 38.6602 94.4456 37.044ZM88.9248 32.786C89.1079 33.3689 87.7396 33.7469 87.5537 33.1536C87.4534 32.8328 87.4037 32.496 87.3446 32.1662C87.3148 32.003 87.2878 31.8393 87.2528 31.6775C87.2429 31.6316 87.2334 31.5867 87.2211 31.5417L87.2197 31.5408C87.0001 31.2631 87.3403 30.9953 87.5542 30.8746C87.8707 30.6963 88.3973 30.7071 88.56 31.0776C88.6173 31.2082 88.6352 31.3615 88.6613 31.501C88.7403 31.9282 88.7942 32.3701 88.9248 32.786ZM87.3327 31.6221C87.3044 31.6042 87.276 31.5886 87.2528 31.5649C87.2712 31.5848 87.294 31.6051 87.3238 31.6221C87.3266 31.6221 87.3294 31.6221 87.3327 31.6221ZM82.3012 33.6537C82.4843 34.2366 81.116 34.6146 80.9301 34.0213C80.8298 33.7005 80.7801 33.3637 80.721 33.0339C80.6912 32.8707 80.6642 32.707 80.6292 32.5452C80.6193 32.4993 80.6098 32.4544 80.5975 32.4094L80.5961 32.4085C80.3765 32.1307 80.7167 31.863 80.9306 31.7423C81.2471 31.564 81.7737 31.5748 81.9364 31.9453C81.9937 32.0759 82.0116 32.2291 82.0377 32.3687C82.1167 32.7959 82.1706 33.2378 82.3012 33.6537ZM80.7091 32.4898C80.6808 32.4719 80.6524 32.4562 80.6292 32.4326C80.6476 32.4525 80.6704 32.4728 80.7002 32.4898C80.703 32.4898 80.7058 32.4898 80.7091 32.4898ZM89.8573 26.4695C88.5245 26.4089 87.3711 26.6261 86.2474 27.3646C85.4753 27.8722 86.6851 27.9508 87.0773 27.6934C87.8295 27.199 88.402 27.128 89.3028 27.1692C89.5985 27.1824 90.0219 27.0509 90.2121 26.811C90.4189 26.5508 90.0361 26.478 89.8573 26.4695ZM168.809 95.9245C168.821 96.031 168.763 96.1275 168.669 96.2103C168.754 103.258 164.369 109.869 161.123 115.827C159.02 119.688 157.012 123.544 154.572 127.213C152.104 130.925 149.51 134.55 147.102 138.302C147.077 138.598 146.615 138.988 146.192 138.961C142.281 138.714 138.64 137.016 135.829 134.417C132.848 131.661 130.802 127.891 130.371 123.755C130.368 123.729 130.372 123.706 130.373 123.683C130.2 123.685 130.085 123.666 130.11 123.633C130.284 123.412 130.451 123.184 130.62 122.96C127.2 109.959 126.621 96.3215 126.589 82.9252C126.469 82.78 126.345 82.6395 126.226 82.4923C126.124 82.3655 126.362 82.1952 126.663 82.0784C126.948 81.7391 127.957 81.592 127.957 82.0888C127.957 82.2425 127.959 82.3968 127.959 82.5505C133.164 88.7909 139.874 93.2079 146.13 98.3048C146.186 98.3194 146.217 98.3436 146.216 98.3748C146.267 98.4164 146.318 98.4566 146.368 98.4983C146.462 98.5749 146.279 98.7216 146.022 98.8418C144.085 103.432 141.407 107.77 138.838 112.019C136.675 115.599 134.539 119.311 132.009 122.662C132.556 124.735 133.169 126.793 133.871 128.829C133.93 128.999 133.78 129.16 133.56 129.272C136.027 133.905 140.655 137.339 145.982 137.927C148.341 134.272 150.886 130.743 153.274 127.107C155.58 123.598 157.521 119.95 159.526 116.27C161.659 112.356 164.384 108.105 165.976 103.646C166.538 102.074 166.957 100.475 167.16 98.8564C167.286 97.8586 167.331 96.8537 167.274 95.8417C167.269 95.7632 167.289 95.6903 167.325 95.6227C166.788 93.0915 164.923 90.8646 163.252 88.9906C161.279 86.7788 159.145 84.7254 156.966 82.719C151.875 78.0309 148.226 72.169 143.612 67.0565C141.017 64.1809 138.139 61.4776 134.657 59.7038C131.434 58.0617 128.006 56.9716 124.514 56.059C121.242 55.2036 117.929 54.4196 114.738 53.339C114.778 53.8368 114.805 54.6141 114.821 54.861C114.901 56.0632 114.998 57.264 115.103 58.4643C115.323 60.9855 115.565 63.5053 115.819 66.0242C115.949 67.3158 116.144 67.8249 115.461 68.9012C113.751 71.6012 111.912 74.3543 109.481 76.463C109.468 76.4739 109.451 76.4847 109.434 76.4947C109.456 78.0422 110.432 80.0889 110.787 81.4856C111.34 83.6633 111.981 85.912 111.67 88.1796C111.056 92.6454 109.418 97.0364 108.253 101.385C106.514 107.883 104.504 114.458 103.283 121.083C103.315 121.902 103.341 122.722 103.376 123.541C103.48 125.964 103.588 128.387 103.752 130.807C103.799 131.497 103.715 133.313 104.018 133.767C104.085 133.868 104.088 133.968 104.049 134.059C103.888 134.438 102.984 134.679 102.752 134.33C102.262 133.595 102.436 132.001 102.381 131.174C102.212 128.596 102.091 126.015 101.986 123.434C101.962 122.855 101.944 122.276 101.922 121.696C101.88 121.658 101.857 121.608 101.87 121.543C101.881 121.476 101.897 121.41 101.909 121.344C101.834 119.368 101.769 117.392 101.711 115.415C101.563 110.446 101.466 105.474 101.433 100.503C101.388 93.901 101.393 87.2788 101.702 80.6775C101.776 79.0708 101.864 77.4641 101.98 75.8598C102.577 67.5845 103.34 57.3596 109.772 51.3004C108.675 50.7535 107.607 50.1394 106.573 49.4425C103.948 53.0287 100.535 55.9478 97.3926 59.0632C97.3665 59.0893 97.3292 59.1125 97.2866 59.1352C97.2852 59.1389 97.2857 59.1418 97.2842 59.1451C96.4464 61.2448 96.2694 63.5886 95.2834 65.6405C95.2058 65.8028 95.1046 65.9343 94.9944 66.0526C94.9324 87.6554 92.0625 109.127 91.7251 130.721C91.7223 130.882 91.4588 131.006 91.1636 131.081C88.0079 135.209 82.9782 138.399 79.5136 132.684C79.4757 132.621 79.5008 132.552 79.5628 132.484C79.524 132.418 79.5018 132.338 79.5022 132.243C79.5538 121.291 81.8418 110.564 83.0028 99.7085C83.6628 93.5396 84.5404 87.3976 85.5207 81.2717C86.4031 75.7552 87.6166 70.4539 88.8822 65.0278C88.9007 64.9488 88.9385 64.8778 88.9901 64.8144C89.0643 62.8273 89.1471 60.8417 89.1481 58.8522C89.1481 58.8224 89.1542 58.7936 89.1646 58.7652C89.1017 58.6862 89.0842 58.5873 89.1694 58.4728C89.1741 58.4667 89.1793 58.4614 89.1841 58.4548C89.168 58.4241 89.1557 58.3895 89.149 58.3512C88.7639 56.2487 89.7603 54.537 90.8381 52.8584C90.0059 53.4346 89.1571 53.991 88.2998 54.537C88.2979 54.5417 88.2979 54.5455 88.296 54.5497C87.8139 55.786 87.3517 57.0289 86.8998 58.2755C85.8254 61.2377 84.8342 64.2278 83.9263 67.2424C81.3299 75.8649 79.4048 84.6857 78.1382 93.6096C77.1745 100.401 76.6479 107.237 75.863 114.049C75.0772 120.875 74.3022 127.704 74.2658 134.584C74.263 135.064 73.2212 135.311 72.9487 134.93C72.9075 134.873 72.8829 134.802 72.8834 134.714C72.9226 127.345 73.8197 120.042 74.6471 112.732C74.5904 112.679 74.5511 112.609 74.5426 112.517C73.9242 105.447 74.0865 98.2546 73.99 91.1636C73.9668 89.4977 73.7477 87.9313 74.3207 86.3657C76.18 81.2826 78.0848 76.2151 80.087 71.1854C79.7908 69.8843 78.9184 68.5123 78.3881 67.3011C78.0034 66.424 78.2206 66.3038 78.6714 65.4276C79.9086 63.0199 81.1037 60.3525 82.6603 58.0446C82.3428 58.2457 82.0291 58.4506 81.714 58.6549C80.4726 59.4592 79.2529 60.29 78.0815 61.1785C77.6377 61.5154 77.1986 61.8584 76.7695 62.2132C72.1727 66.01 70.7515 72.0772 69.3497 77.6202C68.0207 82.8718 66.6969 88.2009 64.5495 93.1909C62.8529 97.1343 60.6453 101.324 56.7118 103.421C56.6631 103.448 56.6144 103.466 56.5657 103.482C57.5918 104.409 58.6209 105.333 59.6513 106.255C60.2366 106.779 59.0334 107.431 58.5915 107.035C53.0656 102.091 47.5585 97.1305 42.5624 91.6419C42.4635 91.5331 42.3609 91.4271 42.262 91.3173C42.2426 91.3169 42.2232 91.3169 42.2033 91.3164C41.1194 91.2823 40.0379 91.296 38.9573 91.3382C38.0924 91.3717 37.2285 91.4243 36.3651 91.4877C32.9166 91.7412 29.4751 92.1647 26.0148 92.2229C26.0219 92.2267 26.0294 92.2286 26.0361 92.2328C26.7363 92.6794 27.2979 94.0098 27.7374 94.6784C29.0285 96.6437 30.3064 98.618 31.5914 100.587C34.7381 105.406 37.8748 110.249 41.2718 114.896C44.3858 119.157 47.9588 122.886 53.0873 124.663C55.8967 125.637 59.2761 126.235 62.1058 124.978C64.6952 123.827 66.2853 121.655 67.2812 119.127C69.4462 104.75 70.5679 90.1961 74.1049 76.057C74.1877 75.7273 75.5224 75.5385 75.4552 75.8077C72.0261 89.5157 70.8651 103.613 68.8245 117.562C68.992 117.588 69.0951 117.662 69.0521 117.798C68.9177 118.223 68.7692 118.628 68.6107 119.017C67.8556 124.015 66.9751 128.992 65.8193 133.922C65.772 134.123 65.2516 134.274 64.8702 134.298C64.6294 134.313 64.4444 134.278 64.469 134.171C65.4025 130.191 66.1519 126.179 66.8053 122.151C60.8223 129.717 48.1423 125.676 42.2298 118.351C38.2959 113.476 34.9107 108.129 31.4821 102.894C29.9326 100.528 28.3969 98.1534 26.846 95.7883C26.3081 94.9679 25.6155 93.3002 24.7587 92.7533C24.533 92.6094 25.0193 92.3095 25.4778 92.2068C25.0326 92.0904 25.8861 91.5567 26.2797 91.5525C26.2878 91.5525 26.2953 91.552 26.3038 91.552C21.4223 85.7729 12.9696 88.7706 7.09446 84.7231C6.95725 84.6289 6.8844 84.4761 6.98612 84.32C8.176 82.5094 10.7753 82.684 12.6668 82.8552C16.5473 83.2058 21.3929 84.3876 25.0108 82.4086C28.1902 80.669 31.158 81.0493 34.4944 82.5113C35.8546 83.1069 36.9238 83.8511 37.458 85.297C38.2935 87.5575 39.0519 89.0218 41.2292 90.3281C41.3754 90.4161 41.4132 90.5178 41.3829 90.619C41.7657 90.6181 42.1484 90.6228 42.5312 90.6323C42.852 90.4861 43.2844 90.4605 43.4902 90.6886C47.3697 94.9892 51.5715 98.9558 55.855 102.84C55.9137 102.771 55.9956 102.704 56.1119 102.642C60.6751 100.209 62.9253 94.3193 64.5282 89.7125C66.2475 84.7699 67.3938 79.6839 68.7592 74.6405C70.1152 69.6302 71.9636 64.2505 76.4365 61.1795C78.9255 59.4706 81.4874 57.8653 84.0313 56.2331C84.0436 56.2194 84.0545 56.2033 84.0668 56.1891C84.1137 56.1356 84.2083 56.0864 84.3242 56.0443C86.8445 54.4239 89.3435 52.7727 91.7303 50.9621C91.8586 50.8647 92.0223 50.8173 92.186 50.8093C91.833 49.4098 91.2251 48.1627 90.0976 47.6276C87.3644 46.3313 84.1018 48.9268 81.6393 46.3152C79.8221 44.3882 79.6002 40.6643 79.2127 38.1767C78.5744 34.0748 77.2918 30.1034 76.9157 25.9585C76.6262 25.888 76.3347 25.809 76.0424 25.7129C72.1992 24.4573 68.5014 20.2404 71.7186 16.2521C74.9315 12.2689 79.8684 13.534 84.2003 14.0199C86.9401 14.327 89.458 14.1538 92.1245 13.4891C93.7004 13.0964 95.1931 12.8097 96.8211 12.7993C98.4419 12.7889 99.858 12.9365 99.5627 14.9056C99.5438 15.0319 99.4686 15.1388 99.3645 15.225C101.517 15.2316 103.795 15.3276 105.556 16.6954C107.89 18.5103 109.664 21.1181 110.259 24.0414C110.9 27.1815 111.394 31.4655 110.235 34.5512C109.084 37.6165 106.267 39.1778 103.838 41.1587L103.837 41.1592C104.708 43.662 105.819 46.0777 106.931 48.4981C106.932 48.5 106.932 48.5019 106.933 48.5038C107.095 48.4877 107.241 48.5038 107.336 48.571C113.564 52.9894 121.164 54.0113 128.312 56.1649C135.182 58.2348 140.684 61.6218 145.378 67.0877C149.974 72.4391 153.92 78.1421 159.092 82.9806C162.613 86.2739 168.225 90.7647 168.809 95.9245ZM39.551 90.6592C37.836 89.475 36.992 88.1139 36.2369 86.07C35.2424 83.379 31.9486 82.2865 29.2565 82.0817C26.7358 81.8905 24.515 83.8355 21.9857 84.1449C19.7872 84.4137 17.5877 84.3006 15.3905 84.0673C13.7692 83.8956 10.0581 82.8827 8.64107 83.9973C8.18878 84.3531 11.3331 85.5624 11.6998 85.6565C12.9909 85.9877 14.2972 86.2006 15.6209 86.3563C20.2253 86.8966 24.7979 87.399 27.8372 91.3083C27.8897 91.376 27.9072 91.4432 27.903 91.5085C31.7934 91.3462 35.6635 90.8102 39.551 90.6592ZM86.5431 55.6388C85.9839 55.9847 85.4232 56.3296 84.8631 56.674C82.8632 59.182 81.4671 62.3864 80.0274 65.2005C79.4256 66.3771 79.5202 66.387 80.0662 67.6356C80.5142 68.6589 81.2622 69.8275 81.486 70.9261C81.4865 70.928 81.4869 70.9299 81.4874 70.9318C81.4884 70.9351 81.4865 70.9384 81.4869 70.9417C81.5011 71.0136 81.4969 71.096 81.4571 71.1944C79.4332 76.2718 77.5066 81.3895 75.6317 86.5242C75.1264 87.909 75.3601 89.7073 75.3847 91.4422C75.4453 95.7632 75.4022 100.125 75.511 104.471C75.9312 100.316 76.3693 96.1625 77.0108 92.0303C78.9411 79.5917 82.0623 67.4019 86.5431 55.6388ZM101.617 29.1052C101.847 29.081 102.08 29.0801 102.31 29.1004C102.053 29.0054 101.816 29.0039 101.617 29.1052ZM74.7195 23.8399C74.3372 23.5688 73.9923 23.3034 73.6796 23.0432C73.9933 23.3384 74.342 23.6038 74.7195 23.8399ZM95.8185 59.5775C95.8128 59.5723 95.8062 59.569 95.801 59.5643C95.7722 59.5335 95.7466 59.499 95.7182 59.4673C95.151 58.83 94.6613 58.0995 94.1532 57.4182C93.8348 56.991 93.514 56.5638 93.2112 56.1257C93.1662 56.0609 93.1076 55.9875 93.0527 55.9104C92.2001 56.7932 91.2189 57.5578 90.4809 58.5404C90.5055 58.5826 90.522 58.6299 90.522 58.6885C90.5215 59.8515 90.4979 61.012 90.4548 62.174C90.4373 62.648 90.2031 64.8859 90.399 64.9497C91.3471 65.2582 92.3246 65.5425 93.3148 65.6727C93.6431 65.6315 93.8575 65.6272 93.9705 65.6561C94.0888 65.3968 94.1924 65.13 94.2837 64.8594C94.5373 64.1119 94.7625 63.3553 94.975 62.595C95.2479 61.6176 95.458 60.5876 95.8024 59.6258C95.8081 59.6097 95.8124 59.5931 95.8185 59.5775ZM93.576 70.5959C93.601 69.2745 93.6167 67.9531 93.6214 66.6307C92.5531 66.7102 91.2364 66.3185 90.1951 65.9518C90.1483 65.9352 90.0986 65.9187 90.0527 65.9021C89.828 66.8658 89.6075 67.8263 89.3884 68.7857C88.4521 72.8938 87.5821 76.9777 86.9145 81.1832C85.9423 87.3086 85.032 93.4497 84.3966 99.6205C83.2786 110.486 80.9481 121.195 80.8965 132.154C80.8965 132.188 80.8866 132.219 80.879 132.249C80.8747 132.265 80.8752 132.282 80.8695 132.298C80.8743 132.304 80.8809 132.309 80.8851 132.316C81.4321 133.219 82.2908 134.396 83.3543 134.95C83.7886 135.177 84.2566 135.296 84.7524 135.253C84.9175 135.238 85.0836 135.212 85.2544 135.158C86.3307 134.821 87.2447 134.147 88.0486 133.339C88.8647 132.519 89.5668 131.56 90.2088 130.672C90.2415 130.627 90.2978 130.585 90.3659 130.548C90.5759 118.606 91.5454 106.7 92.3728 94.7881C92.9321 86.731 93.4265 78.6715 93.576 70.5959ZM105.654 48.9925C105.617 48.9566 105.584 48.9168 105.56 48.8667C105.057 47.7695 104.554 46.6719 104.072 45.5686C100.98 48.9798 97.4427 51.9609 94.3277 55.3517C94.3642 55.3976 94.4134 55.4979 94.4366 55.5319C94.5402 55.6814 94.6447 55.83 94.7516 55.9771C95.0672 56.4129 95.3885 56.8448 95.7116 57.2749C96.0281 57.6955 96.3352 58.1383 96.6659 58.5561C99.7969 55.5002 103.132 52.5929 105.654 48.9925ZM131.708 121.471C131.864 121.249 132.011 121.019 132.165 120.795C134.062 118.031 135.776 115.111 137.488 112.265C138.73 110.201 140 108.119 141.202 105.999C141.31 105.807 141.419 105.615 141.527 105.422C142.717 103.292 143.827 101.121 144.757 98.8872C144.776 98.8422 144.797 98.7987 144.815 98.7547C142.867 97.1679 140.875 95.6468 138.898 94.1153C135.051 91.1366 131.262 88.12 127.967 84.5092C128.034 94.8383 128.505 105.288 130.405 115.454C130.782 117.472 131.21 119.479 131.708 121.471ZM114.229 64.1871C113.974 61.5636 113.719 58.9383 113.526 56.3097C113.476 55.6284 113.003 53.6328 113.459 52.8848C112.534 52.5423 111.622 52.169 110.726 51.7574C104.282 58.0058 103.752 68.8558 103.258 77.2621C102.807 84.9488 102.752 92.6591 102.812 100.357C102.851 105.488 102.948 110.619 103.101 115.748C104.282 110.79 105.735 105.862 107.053 100.983C107.609 98.9236 108.171 96.866 108.764 94.817C109.474 92.3658 110.489 89.6761 110.373 87.091C110.266 84.7127 109.566 82.4029 108.963 80.1112C108.671 79.0022 107.963 77.4792 108.085 76.3121C108.112 76.0542 108.479 75.9236 108.829 75.8914C111.155 73.7341 112.982 70.937 114.609 68.2435C114.848 67.8466 114.315 65.0732 114.229 64.1871Z" fill="#FEFDFF"/>
<path d="M85.6451 39.2182C82.3669 40.0788 82.8443 35.4432 82.858 33.4959C82.8632 32.8406 84.2566 32.658 84.2513 33.4065C84.2447 34.2396 83.8407 38.6268 85.3788 38.2232C86.2309 37.9995 86.4986 38.9939 85.6451 39.2182ZM94.4456 37.1114C94.5388 36.388 93.1364 36.5602 93.0541 37.2046C92.9207 38.2398 92.422 39.1155 91.3604 39.3776C90.5026 39.5886 90.7709 40.5685 91.623 40.3579C93.2244 39.9629 94.2379 38.7276 94.4456 37.1114ZM88.9248 32.8534C89.1079 33.4363 87.7396 33.8143 87.5537 33.221C87.4534 32.9002 87.4037 32.5634 87.3446 32.2336C87.3148 32.0704 87.2878 31.9067 87.2528 31.7449C87.2429 31.699 87.2334 31.654 87.2211 31.6091L87.2197 31.6082C87.0001 31.3304 87.3403 31.0627 87.5542 30.942C87.8707 30.7636 88.3973 30.7745 88.56 31.145C88.6173 31.2756 88.6352 31.4288 88.6613 31.5684C88.7403 31.9956 88.7942 32.4375 88.9248 32.8534ZM87.3327 31.6895C87.3044 31.6716 87.276 31.6559 87.2528 31.6323C87.2712 31.6522 87.294 31.6725 87.3238 31.6895C87.3266 31.6895 87.3294 31.6895 87.3327 31.6895ZM82.3012 33.7211C82.4843 34.304 81.116 34.682 80.9301 34.0887C80.8298 33.7679 80.7801 33.4311 80.721 33.1013C80.6912 32.9381 80.6642 32.7744 80.6292 32.6126C80.6193 32.5667 80.6098 32.5217 80.5975 32.4768L80.5961 32.4758C80.3765 32.1981 80.7167 31.9303 80.9306 31.8097C81.2471 31.6313 81.7737 31.6422 81.9364 32.0127C81.9937 32.1432 82.0116 32.2965 82.0377 32.4361C82.1167 32.8633 82.1706 33.3052 82.3012 33.7211ZM80.7091 32.5572C80.6808 32.5392 80.6524 32.5236 80.6292 32.5C80.6476 32.5198 80.6704 32.5402 80.7002 32.5572C80.703 32.5572 80.7058 32.5572 80.7091 32.5572ZM89.8573 26.5368C88.5245 26.4763 87.3711 26.6934 86.2474 27.432C85.4753 27.9396 86.6851 28.0182 87.0773 27.7608C87.8295 27.2664 88.402 27.1954 89.3028 27.2366C89.5985 27.2498 90.0219 27.1183 90.2121 26.8784C90.4189 26.6182 90.0361 26.5454 89.8573 26.5368ZM168.809 95.9919C168.821 96.0984 168.763 96.1949 168.669 96.2777C168.754 103.325 164.369 109.936 161.123 115.894C159.02 119.755 157.012 123.611 154.572 127.281C152.104 130.992 149.51 134.617 147.102 138.37C147.077 138.665 146.615 139.055 146.192 139.029C142.281 138.782 138.64 137.083 135.829 134.484C132.848 131.728 130.802 127.959 130.371 123.822C130.368 123.797 130.372 123.774 130.373 123.75C130.2 123.752 130.085 123.733 130.11 123.701C130.284 123.479 130.451 123.252 130.62 123.027C127.2 110.027 126.621 96.3889 126.589 82.9926C126.469 82.8474 126.345 82.7069 126.226 82.5597C126.124 82.4329 126.362 82.2626 126.663 82.1457C126.948 81.8065 127.957 81.6594 127.957 82.1562C127.957 82.3099 127.959 82.4642 127.959 82.6179C133.164 88.8583 139.874 93.2753 146.13 98.3721C146.186 98.3868 146.217 98.4109 146.216 98.4422C146.267 98.4838 146.318 98.524 146.368 98.5657C146.462 98.6423 146.279 98.789 146.022 98.9091C144.085 103.5 141.407 107.837 138.838 112.087C136.675 115.666 134.539 119.378 132.009 122.729C132.556 124.803 133.169 126.86 133.871 128.897C133.93 129.067 133.78 129.228 133.56 129.339C136.027 133.973 140.655 137.406 145.982 137.995C148.341 134.339 150.886 130.81 153.274 127.175C155.58 123.665 157.521 120.018 159.526 116.338C161.659 112.424 164.384 108.172 165.976 103.714C166.538 102.141 166.957 100.543 167.16 98.9238C167.286 97.926 167.331 96.9211 167.274 95.9091C167.269 95.8306 167.289 95.7577 167.325 95.6901C166.788 93.1589 164.923 90.932 163.252 89.058C161.279 86.8461 159.145 84.7928 156.966 82.7863C151.875 78.0983 148.226 72.2364 143.612 67.1239C141.017 64.2483 138.139 61.5449 134.657 59.7712C131.434 58.129 128.006 57.039 124.514 56.1264C121.242 55.271 117.929 54.487 114.738 53.4064C114.778 53.9041 114.805 54.6815 114.821 54.9284C114.901 56.1306 114.998 57.3314 115.103 58.5317C115.323 61.0529 115.565 63.5727 115.819 66.0916C115.949 67.3832 116.144 67.8922 115.461 68.9686C113.751 71.6686 111.912 74.4217 109.481 76.5304C109.468 76.5412 109.451 76.5521 109.434 76.562C109.456 78.1096 110.432 80.1563 110.787 81.5529C111.34 83.7307 111.981 85.9794 111.67 88.247C111.056 92.7128 109.418 97.1037 108.253 101.453C106.514 107.95 104.504 114.525 103.283 121.15C103.315 121.97 103.341 122.79 103.376 123.609C103.48 126.031 103.588 128.455 103.752 130.874C103.799 131.564 103.715 133.381 104.018 133.834C104.085 133.936 104.088 134.035 104.049 134.126C103.888 134.505 102.984 134.747 102.752 134.397C102.262 133.663 102.436 132.069 102.381 131.241C102.212 128.663 102.091 126.082 101.986 123.501C101.962 122.922 101.944 122.343 101.922 121.764C101.88 121.726 101.857 121.676 101.87 121.61C101.881 121.543 101.897 121.477 101.909 121.411C101.834 119.435 101.769 117.459 101.711 115.483C101.563 110.513 101.466 105.542 101.433 100.571C101.388 93.9684 101.393 87.3462 101.702 80.7449C101.776 79.1382 101.864 77.5315 101.98 75.9271C102.577 67.6519 103.34 57.4269 109.772 51.3678C108.675 50.8209 107.607 50.2067 106.573 49.5099C103.948 53.0961 100.535 56.0152 97.3926 59.1306C97.3665 59.1567 97.3292 59.1798 97.2866 59.2025C97.2852 59.2063 97.2857 59.2092 97.2842 59.2125C96.4464 61.3122 96.2694 63.656 95.2834 65.7079C95.2058 65.8701 95.1046 66.0017 94.9944 66.1199C94.9324 87.7228 92.0625 109.195 91.7251 130.788C91.7223 130.95 91.4588 131.074 91.1636 131.148C88.0079 135.276 82.9782 138.466 79.5136 132.751C79.4757 132.689 79.5008 132.619 79.5628 132.551C79.524 132.485 79.5018 132.405 79.5022 132.31C79.5538 121.359 81.8418 110.631 83.0028 99.7759C83.6628 93.6069 84.5404 87.465 85.5207 81.3391C86.4031 75.8226 87.6166 70.5213 88.8822 65.0952C88.9007 65.0162 88.9385 64.9452 88.9901 64.8818C89.0643 62.8947 89.1471 60.9091 89.1481 58.9196C89.1481 58.8898 89.1542 58.861 89.1646 58.8326C89.1017 58.7536 89.0842 58.6547 89.1694 58.5402C89.1741 58.534 89.1793 58.5288 89.1841 58.5222C89.168 58.4914 89.1557 58.4569 89.149 58.4186C88.7639 56.3161 89.7603 54.6043 90.8381 52.9257C90.0059 53.502 89.1571 54.0584 88.2998 54.6044C88.2979 54.6091 88.2979 54.6129 88.296 54.6171C87.8139 55.8534 87.3517 57.0962 86.8998 58.3429C85.8254 61.3051 84.8342 64.2951 83.9263 67.3098C81.3299 75.9323 79.4048 84.7531 78.1382 93.677C77.1745 100.468 76.6479 107.304 75.863 114.116C75.0772 120.943 74.3022 127.771 74.2658 134.651C74.263 135.131 73.2212 135.379 72.9487 134.998C72.9075 134.94 72.8829 134.869 72.8834 134.781C72.9226 127.413 73.8197 120.11 74.6471 112.8C74.5904 112.747 74.5511 112.677 74.5426 112.584C73.9242 105.515 74.0865 98.322 73.99 91.231C73.9668 89.5651 73.7477 87.9986 74.3207 86.4331C76.18 81.35 78.0848 76.2824 80.087 71.2528C79.7908 69.9517 78.9184 68.5797 78.3881 67.3685C78.0034 66.4913 78.2206 66.3712 78.6714 65.495C79.9086 63.0873 81.1037 60.4199 82.6603 58.112C82.3428 58.3131 82.0291 58.5179 81.714 58.7223C80.4726 59.5266 79.2529 60.3574 78.0815 61.2459C77.6377 61.5828 77.1986 61.9258 76.7695 62.2806C72.1727 66.0774 70.7515 72.1446 69.3497 77.6876C68.0207 82.9392 66.6969 88.2683 64.5495 93.2583C62.8529 97.2017 60.6453 101.392 56.7118 103.489C56.6631 103.515 56.6144 103.534 56.5657 103.549C57.5918 104.476 58.6209 105.4 59.6513 106.323C60.2366 106.847 59.0334 107.498 58.5915 107.103C53.0656 102.158 47.5585 97.1979 42.5624 91.7093C42.4635 91.6005 42.3609 91.4945 42.262 91.3847C42.2426 91.3843 42.2232 91.3842 42.2033 91.3838C41.1194 91.3497 40.0379 91.3634 38.9573 91.4055C38.0924 91.4391 37.2285 91.4916 36.3651 91.555C32.9166 91.8086 29.4751 92.2321 26.0148 92.2903C26.0219 92.2941 26.0294 92.2959 26.0361 92.3002C26.7363 92.7468 27.2979 94.0772 27.7374 94.7457C29.0285 96.7111 30.3064 98.6853 31.5914 100.654C34.7381 105.474 37.8748 110.316 41.2718 114.964C44.3858 119.225 47.9588 122.953 53.0873 124.73C55.8967 125.704 59.2761 126.302 62.1058 125.045C64.6952 123.895 66.2853 121.723 67.2812 119.194C69.4462 104.817 70.5679 90.2634 74.1049 76.1244C74.1877 75.7947 75.5224 75.6059 75.4552 75.8751C72.0261 89.5831 70.8651 103.68 68.8245 117.629C68.992 117.655 69.0951 117.73 69.0521 117.865C68.9177 118.29 68.7692 118.696 68.6107 119.085C67.8556 124.083 66.9751 129.059 65.8193 133.989C65.772 134.19 65.2516 134.341 64.8702 134.365C64.6294 134.38 64.4444 134.345 64.469 134.238C65.4025 130.258 66.1519 126.246 66.8053 122.219C60.8223 129.785 48.1423 125.744 42.2298 118.418C38.2959 113.544 34.9107 108.196 31.4821 102.962C29.9326 100.596 28.3969 98.2207 26.846 95.8557C26.3081 95.0353 25.6155 93.3676 24.7587 92.8206C24.533 92.6768 25.0193 92.3769 25.4778 92.2742C25.0326 92.1578 25.8861 91.6241 26.2797 91.6199C26.2878 91.6199 26.2953 91.6194 26.3038 91.6194C21.4223 85.8403 12.9696 88.8379 7.09446 84.7905C6.95725 84.6963 6.8844 84.5435 6.98612 84.3874C8.176 82.5768 10.7753 82.7513 12.6668 82.9226C16.5473 83.2732 21.3929 84.455 25.0108 82.476C28.1902 80.7363 31.158 81.1167 34.4944 82.5787C35.8546 83.1743 36.9238 83.9185 37.458 85.3643C38.2935 87.6249 39.0519 89.0892 41.2292 90.3954C41.3754 90.4834 41.4132 90.5852 41.3829 90.6864C41.7657 90.6855 42.1484 90.6902 42.5312 90.6997C42.852 90.5535 43.2844 90.5279 43.4902 90.756C47.3697 95.0566 51.5715 99.0231 55.855 102.907C55.9137 102.839 55.9956 102.772 56.1119 102.71C60.6751 100.276 62.9253 94.3866 64.5282 89.7799C66.2475 84.8373 67.3938 79.7513 68.7592 74.7079C70.1152 69.6976 71.9636 64.3178 76.4365 61.2469C78.9255 59.538 81.4874 57.9327 84.0313 56.3005C84.0436 56.2867 84.0545 56.2706 84.0668 56.2565C84.1137 56.203 84.2083 56.1538 84.3242 56.1117C86.8445 54.4913 89.3435 52.8401 91.7303 51.0295C91.8586 50.932 92.0223 50.8847 92.186 50.8767C91.833 49.4772 91.2251 48.2301 90.0976 47.695C87.3644 46.3987 84.1018 48.9942 81.6393 46.3826C79.8221 44.4556 79.6002 40.7317 79.2127 38.2441C78.5744 34.1422 77.2918 30.1708 76.9157 26.0259C76.6262 25.9554 76.3347 25.8764 76.0424 25.7803C72.1992 24.5247 68.5014 20.3078 71.7186 16.3195C74.9315 12.3363 79.8684 13.6014 84.2003 14.0873C86.9401 14.3944 89.458 14.2212 92.1245 13.5565C93.7004 13.1638 95.1931 12.8771 96.8211 12.8667C98.4419 12.8563 99.858 13.0039 99.5627 14.973C99.5438 15.0993 99.4686 15.2062 99.3645 15.2923C101.517 15.299 103.795 15.395 105.556 16.7628C107.89 18.5776 109.664 21.1854 110.259 24.1088C110.9 27.2489 111.394 31.5329 110.235 34.6186C109.084 37.6839 106.267 39.2452 103.838 41.2261L103.837 41.2266C104.708 43.7293 105.819 46.1451 106.931 48.5655C106.932 48.5674 106.932 48.5693 106.933 48.5712C107.095 48.5551 107.241 48.5712 107.336 48.6384C113.564 53.0568 121.164 54.0787 128.312 56.2323C135.182 58.3022 140.684 61.6892 145.378 67.1551C149.974 72.5065 153.92 78.2094 159.092 83.048C162.613 86.3413 168.225 90.8321 168.809 95.9919ZM39.551 90.7266C37.836 89.5424 36.992 88.1813 36.2369 86.1374C35.2424 83.4463 31.9486 82.3539 29.2565 82.1491C26.7358 81.9579 24.515 83.9029 21.9857 84.2123C19.7872 84.481 17.5877 84.368 15.3905 84.1347C13.7692 83.963 10.0581 82.95 8.64107 84.0647C8.18878 84.4205 11.3331 85.6298 11.6998 85.7239C12.9909 86.0551 14.2972 86.268 15.6209 86.4236C20.2253 86.9639 24.7979 87.4664 27.8372 91.3757C27.8897 91.4434 27.9072 91.5106 27.903 91.5759C31.7934 91.4136 35.6635 90.8775 39.551 90.7266ZM86.5431 55.7062C85.9839 56.0521 85.4232 56.397 84.8631 56.7414C82.8632 59.2494 81.4671 62.4538 80.0274 65.2679C79.4256 66.4445 79.5202 66.4544 80.0662 67.703C80.5142 68.7263 81.2622 69.8949 81.486 70.9935C81.4865 70.9954 81.4869 70.9973 81.4874 70.9992C81.4884 71.0025 81.4865 71.0058 81.4869 71.0091C81.5011 71.081 81.4969 71.1633 81.4571 71.2617C79.4332 76.3392 77.5066 81.4569 75.6317 86.5916C75.1264 87.9764 75.3601 89.7747 75.3847 91.5096C75.4453 95.8306 75.4022 100.192 75.511 104.538C75.9312 100.383 76.3693 96.2299 77.0108 92.0977C78.9411 79.6591 82.0623 67.4693 86.5431 55.7062ZM101.617 29.1726C101.847 29.1484 102.08 29.1475 102.31 29.1678C102.053 29.0727 101.816 29.0713 101.617 29.1726ZM74.7195 23.9073C74.3372 23.6362 73.9923 23.3708 73.6796 23.1105C73.9933 23.4058 74.342 23.6712 74.7195 23.9073ZM92.3544 48.0981C93.663 49.63 93.8882 52.0495 94.0552 54.0981C97.1513 50.8705 100.57 47.9576 103.516 44.5857C103.538 44.5601 103.564 44.5379 103.591 44.5166C102.665 42.3067 101.858 40.0556 101.356 37.691C101.269 37.6423 101.255 37.5604 101.358 37.4383C101.387 37.3532 101.446 37.2775 101.522 37.2117L101.487 37.137C101.487 37.137 101.635 37.0774 101.867 36.9624C103.149 35.7924 104.714 34.3077 104.114 32.4517C103.77 31.3872 102.778 29.7521 101.422 29.851C101.182 29.8685 100.975 29.9447 100.791 30.0592C100.5 30.4571 100.183 30.9359 99.8887 31.4009C99.7113 31.963 99.6446 32.5672 99.6493 33.0109C99.6512 33.2253 99.383 33.3927 99.0835 33.4807C98.7613 33.6175 98.3464 33.6317 98.1756 33.4055C95.9231 30.423 94.0652 26.8746 93.6711 23.1124C88.5018 24.0355 83.6155 26.9144 78.3592 26.2913C78.4652 27.2503 78.6052 28.2055 78.7755 29.156C79.8935 28.4269 81.0413 28.2117 82.3669 28.2717C82.5458 28.2803 82.9285 28.3531 82.7218 28.6133C82.5316 28.8532 82.1081 28.9847 81.8124 28.9715C80.9116 28.9303 80.3392 29.0013 79.5869 29.4952C79.4213 29.6036 79.111 29.6523 78.8654 29.6343C79.4109 32.5407 80.158 35.4186 80.6699 38.3264C81.0753 40.63 81.2963 45.5168 83.818 46.6447C86.6018 47.8904 90.1298 45.4945 92.3544 48.0981ZM95.8185 59.6449C95.8128 59.6397 95.8062 59.6364 95.801 59.6317C95.7722 59.6009 95.7466 59.5664 95.7182 59.5347C95.151 58.8974 94.6613 58.1669 94.1532 57.4856C93.8348 57.0584 93.514 56.6312 93.2112 56.1931C93.1662 56.1283 93.1076 56.0549 93.0527 55.9778C92.2001 56.8606 91.2189 57.6252 90.4809 58.6078C90.5055 58.6499 90.522 58.6973 90.522 58.7559C90.5215 59.9188 90.4979 61.0794 90.4548 62.2414C90.4373 62.7154 90.2031 64.9532 90.399 65.0171C91.3471 65.3256 92.3246 65.6099 93.3148 65.74C93.6431 65.6989 93.8575 65.6946 93.9705 65.7235C94.0888 65.4642 94.1924 65.1974 94.2837 64.9268C94.5373 64.1792 94.7625 63.4227 94.975 62.6624C95.2479 61.685 95.458 60.655 95.8024 59.6932C95.8081 59.6771 95.8124 59.6605 95.8185 59.6449ZM90.4529 57.1454C91.1664 56.4665 91.9134 55.8188 92.501 55.0292C92.5607 54.9488 92.6349 54.883 92.7149 54.8262C92.6624 54.1459 92.6032 53.3449 92.493 52.5217C91.5425 53.9614 90.5017 55.4432 90.4529 57.1454ZM93.576 70.6633C93.601 69.3419 93.6167 68.0204 93.6214 66.6981C92.5531 66.7776 91.2364 66.3858 90.1951 66.0192C90.1483 66.0026 90.0986 65.986 90.0527 65.9695C89.828 66.9332 89.6075 67.8936 89.3884 68.8531C88.4521 72.9612 87.5821 77.0451 86.9145 81.2506C85.9423 87.376 85.032 93.5171 84.3966 99.6879C83.2786 110.553 80.9481 121.262 80.8965 132.222C80.8965 132.255 80.8866 132.286 80.879 132.317C80.8747 132.332 80.8752 132.349 80.8695 132.365C80.8743 132.372 80.8809 132.376 80.8851 132.383C81.4321 133.287 82.2908 134.463 83.3543 135.018C83.7886 135.244 84.2566 135.364 84.7524 135.32C84.9175 135.305 85.0836 135.279 85.2544 135.226C86.3307 134.889 87.2447 134.215 88.0486 133.407C88.8647 132.587 89.5668 131.627 90.2088 130.74C90.2415 130.694 90.2978 130.652 90.3659 130.615C90.5759 118.673 91.5454 106.768 92.3728 94.8555C92.9321 86.7984 93.4265 78.7389 93.576 70.6633ZM105.654 49.0599C105.617 49.024 105.584 48.9842 105.56 48.9341C105.057 47.8369 104.554 46.7393 104.072 45.636C100.98 49.0471 97.4427 52.0282 94.3277 55.419C94.3642 55.4649 94.4134 55.5652 94.4366 55.5993C94.5402 55.7488 94.6447 55.8974 94.7516 56.0445C95.0672 56.4802 95.3885 56.9122 95.7116 57.3423C96.0281 57.7629 96.3352 58.2057 96.6659 58.6235C99.7969 55.5676 103.132 52.6603 105.654 49.0599ZM131.708 121.539C131.864 121.317 132.011 121.087 132.165 120.863C134.062 118.099 135.776 115.179 137.488 112.333C138.73 110.269 140 108.186 141.202 106.067C141.31 105.875 141.419 105.682 141.527 105.489C142.717 103.36 143.827 101.189 144.757 98.9546C144.776 98.9096 144.797 98.8661 144.815 98.8221C142.867 97.2353 140.875 95.7142 138.898 94.1827C135.051 91.204 131.262 88.1874 127.967 84.5766C128.034 94.9056 128.505 105.356 130.405 115.522C130.782 117.539 131.21 119.547 131.708 121.539ZM114.229 64.2544C113.974 61.631 113.719 59.0057 113.526 56.3771C113.476 55.6958 113.003 53.7002 113.459 52.9522C112.534 52.6097 111.622 52.2364 110.726 51.8248C104.282 58.0732 103.752 68.9232 103.258 77.3294C102.807 85.0161 102.752 92.7265 102.812 100.424C102.851 105.555 102.948 110.686 103.101 115.815C104.282 110.857 105.735 105.929 107.053 101.05C107.609 98.991 108.171 96.9334 108.764 94.8844C109.474 92.4332 110.489 89.7435 110.373 87.1584C110.266 84.78 109.566 82.4703 108.963 80.1785C108.671 79.0696 107.963 77.5466 108.085 76.3794C108.112 76.1216 108.479 75.991 108.829 75.9588C111.155 73.8014 112.982 71.0044 114.609 68.3109C114.848 67.914 114.315 65.1406 114.229 64.2544Z" fill="#340679"/>
<mask id="path-6-inside-1_2379_11110" fill="white">
<path fill-rule="evenodd" clip-rule="evenodd" d="M27.3623 33.0175C25.6011 27.597 17.9325 27.597 16.1713 33.0175L16.1425 33.1061L15.9276 32.9489C11.3278 29.5836 5.10892 34.0706 6.85223 39.4969L6.95571 39.819H6.80988C1.12543 39.819 -1.24679 47.0739 3.31538 50.4357L3.24015 50.49C-1.38184 53.8248 0.963781 61.1258 6.66321 61.1446L7.03184 61.1458L6.92741 61.4672C5.16619 66.8877 11.3702 71.3953 15.9811 68.0452L16.016 68.0198C17.7858 73.4033 25.4186 73.4143 27.193 68.0139L27.254 67.8283L27.5524 68.0452C32.1634 71.3953 38.3674 66.8877 36.6062 61.4672L36.5334 61.2433L36.5769 61.2435C42.2761 61.2623 44.6699 53.9769 40.0702 50.6116L40.0234 50.5774L40.1819 50.4623C44.7928 47.1122 42.4232 39.819 36.7237 39.819H36.4572L36.5309 39.5949C38.31 34.1803 32.1209 29.6523 27.4989 32.9871L27.3802 33.0727L27.3623 33.0175Z"/>
</mask>
<path fill-rule="evenodd" clip-rule="evenodd" d="M27.3623 33.0175C25.6011 27.597 17.9325 27.597 16.1713 33.0175L16.1425 33.1061L15.9276 32.9489C11.3278 29.5836 5.10892 34.0706 6.85223 39.4969L6.95571 39.819H6.80988C1.12543 39.819 -1.24679 47.0739 3.31538 50.4357L3.24015 50.49C-1.38184 53.8248 0.963781 61.1258 6.66321 61.1446L7.03184 61.1458L6.92741 61.4672C5.16619 66.8877 11.3702 71.3953 15.9811 68.0452L16.016 68.0198C17.7858 73.4033 25.4186 73.4143 27.193 68.0139L27.254 67.8283L27.5524 68.0452C32.1634 71.3953 38.3674 66.8877 36.6062 61.4672L36.5334 61.2433L36.5769 61.2435C42.2761 61.2623 44.6699 53.9769 40.0702 50.6116L40.0234 50.5774L40.1819 50.4623C44.7928 47.1122 42.4232 39.819 36.7237 39.819H36.4572L36.5309 39.5949C38.31 34.1803 32.1209 29.6523 27.4989 32.9871L27.3802 33.0727L27.3623 33.0175Z" fill="#F4EDFB"/>
<path d="M16.1713 33.0175L17.5198 33.4557V33.4557L16.1713 33.0175ZM27.3623 33.0175L26.0138 33.4557L26.0138 33.4557L27.3623 33.0175ZM16.1425 33.1061L15.3053 34.2504L16.8858 35.4068L17.491 33.5443L16.1425 33.1061ZM15.9276 32.9489L16.7649 31.8045L16.7648 31.8045L15.9276 32.9489ZM6.85223 39.4969L5.50227 39.9306L5.50227 39.9306L6.85223 39.4969ZM6.95571 39.819V41.2369H8.90053L8.30566 39.3853L6.95571 39.819ZM3.31538 50.4357L4.145 51.5856L5.72197 50.4478L4.15653 49.2943L3.31538 50.4357ZM3.24015 50.49L2.41053 49.3401L2.41052 49.3401L3.24015 50.49ZM6.66321 61.1446L6.66791 59.7267H6.6679L6.66321 61.1446ZM7.03184 61.1458L8.38036 61.584L8.98132 59.7344L7.03653 59.7279L7.03184 61.1458ZM6.92741 61.4672L8.27593 61.9054L8.27593 61.9054L6.92741 61.4672ZM15.9811 68.0452L15.1477 66.898L15.1477 66.8981L15.9811 68.0452ZM16.016 68.0198L17.363 67.577L16.7557 65.7298L15.1826 66.8727L16.016 68.0198ZM27.193 68.0139L25.846 67.5713L25.846 67.5713L27.193 68.0139ZM27.254 67.8283L28.0874 66.6812L26.514 65.5381L25.9069 67.3857L27.254 67.8283ZM27.5524 68.0452L28.3859 66.8981L28.3859 66.898L27.5524 68.0452ZM36.6062 61.4672L35.2576 61.9054H35.2576L36.6062 61.4672ZM36.5334 61.2433L36.5381 59.8254L34.5797 59.8189L35.1849 61.6815L36.5334 61.2433ZM36.5769 61.2435L36.5721 62.6614H36.5722L36.5769 61.2435ZM40.0702 50.6116L40.9074 49.4673L40.9074 49.4673L40.0702 50.6116ZM40.0234 50.5774L39.19 49.4303L37.6166 50.5734L39.1862 51.7218L40.0234 50.5774ZM40.1819 50.4623L41.0153 51.6094L41.0153 51.6094L40.1819 50.4623ZM36.4572 39.819L35.1102 39.3764L34.4989 41.2369H36.4572V39.819ZM36.5309 39.5949L35.1838 39.1523V39.1523L36.5309 39.5949ZM27.4989 32.9871L26.6692 31.8373L26.6692 31.8373L27.4989 32.9871ZM27.3802 33.0727L26.0317 33.5109L26.6327 35.3605L28.2099 34.2226L27.3802 33.0727ZM17.5198 33.4557C18.8566 29.3415 24.677 29.3415 26.0138 33.4557L28.7108 32.5794C26.5251 25.8525 17.0084 25.8525 14.8228 32.5794L17.5198 33.4557ZM17.491 33.5443L17.5198 33.4557L14.8228 32.5794L14.794 32.6679L17.491 33.5443ZM15.0904 34.0932L15.3053 34.2504L16.9797 31.9617L16.7649 31.8045L15.0904 34.0932ZM8.20219 39.0632C6.87901 34.9446 11.5991 31.539 15.0904 34.0933L16.7648 31.8045C11.0564 27.6282 3.33884 33.1965 5.50227 39.9306L8.20219 39.0632ZM8.30566 39.3853L8.20219 39.0632L5.50227 39.9306L5.60575 40.2527L8.30566 39.3853ZM6.80988 41.2369H6.95571V38.401H6.80988V41.2369ZM4.15653 49.2943C0.694522 46.7431 2.49622 41.2369 6.80988 41.2369V38.401C-0.245372 38.401 -3.1881 47.4046 2.47423 51.5772L4.15653 49.2943ZM4.06978 51.6399L4.145 51.5856L2.48576 49.2859L2.41053 49.3401L4.06978 51.6399ZM6.6679 59.7267C2.34201 59.7124 0.56171 54.171 4.06979 51.6399L2.41052 49.3401C-3.32538 53.4786 -0.414447 62.5392 6.65853 62.5625L6.6679 59.7267ZM7.03653 59.7279L6.66791 59.7267L6.65852 62.5625L7.02714 62.5638L7.03653 59.7279ZM8.27593 61.9054L8.38036 61.584L5.68332 60.7077L5.57889 61.0291L8.27593 61.9054ZM15.1477 66.8981C11.648 69.4408 6.93914 66.0196 8.27593 61.9054L5.5789 61.0291C3.39323 67.7559 11.0923 73.3498 16.8146 69.1923L15.1477 66.8981ZM15.1826 66.8727L15.1477 66.898L16.8145 69.1923L16.8494 69.167L15.1826 66.8727ZM25.846 67.5713C24.4995 71.6694 18.706 71.6622 17.363 67.577L14.669 68.4627C16.8656 75.1443 26.3378 75.1592 28.5401 68.4565L25.846 67.5713ZM25.9069 67.3857L25.846 67.5713L28.5401 68.4565L28.6011 68.2709L25.9069 67.3857ZM28.3859 66.898L28.0874 66.6812L26.4206 68.9754L26.719 69.1923L28.3859 66.898ZM35.2576 61.9054C36.5944 66.0196 31.8855 69.4408 28.3859 66.8981L26.719 69.1923C32.4412 73.3498 40.1403 67.7559 37.9547 61.0291L35.2576 61.9054ZM35.1849 61.6815L35.2576 61.9054L37.9547 61.0291L37.8819 60.8052L35.1849 61.6815ZM36.5816 59.8256L36.5381 59.8254L36.5287 62.6612L36.5721 62.6614L36.5816 59.8256ZM39.233 51.756C42.7242 54.3102 40.9072 59.8398 36.5816 59.8256L36.5722 62.6614C43.645 62.6847 46.6156 53.6436 40.9074 49.4673L39.233 51.756ZM39.1862 51.7218L39.233 51.756L40.9074 49.4673L40.8606 49.4331L39.1862 51.7218ZM39.3485 49.3152L39.19 49.4303L40.8568 51.7245L41.0153 51.6094L39.3485 49.3152ZM36.7237 41.2369C41.0496 41.2369 42.8482 46.7724 39.3484 49.3152L41.0153 51.6094C46.7374 47.452 43.7968 38.401 36.7237 38.401V41.2369ZM36.4572 41.2369H36.7237V38.401H36.4572V41.2369ZM35.1838 39.1523L35.1102 39.3764L37.8043 40.2616L37.8779 40.0375L35.1838 39.1523ZM28.3285 34.137C31.8366 31.6059 36.5341 35.0426 35.1838 39.1523L37.8779 40.0375C40.0858 33.3179 32.4052 27.6988 26.6692 31.8373L28.3285 34.137ZM28.2099 34.2226L28.3285 34.137L26.6692 31.8373L26.5506 31.9229L28.2099 34.2226ZM26.0138 33.4557L26.0317 33.5109L28.7287 32.6345L28.7108 32.5793L26.0138 33.4557Z" fill="#340679" mask="url(#path-6-inside-1_2379_11110)"/>
<path fill-rule="evenodd" clip-rule="evenodd" d="M32.0207 43.2397C32.4452 43.67 32.4452 44.3677 32.0207 44.798L18.9762 58.0203C18.7709 58.2284 18.4919 58.3446 18.2015 58.343C17.9111 58.3413 17.6334 58.222 17.4304 58.0115L11.0525 51.4004C10.6328 50.9653 10.6405 50.2677 11.0697 49.8422C11.499 49.4167 12.1872 49.4245 12.6069 49.8596L18.2162 55.6741L30.4834 43.2397C30.9079 42.8094 31.5962 42.8094 32.0207 43.2397Z" fill="#A358E7" stroke="#340679" stroke-width="0.708957" stroke-linecap="round" stroke-linejoin="round"/>
</svg>
