<svg width="14" height="14" viewBox="0 0 14 14" fill="none" xmlns="http://www.w3.org/2000/svg">
<path fill-rule="evenodd" clip-rule="evenodd" d="M11.2872 1.66665C11.15 1.66665 11.0141 1.69368 10.8873 1.7462C10.7605 1.79872 10.6453 1.8757 10.5482 1.97274L2.50334 10.0176L1.9491 12.0498L3.9813 11.4956L12.0262 3.4507C12.1232 3.35365 12.2002 3.23845 12.2527 3.11165C12.3053 2.98486 12.3323 2.84896 12.3323 2.71172C12.3323 2.57448 12.3053 2.43858 12.2527 2.31179C12.2002 2.18499 12.1232 2.06979 12.0262 1.97274C11.9292 1.8757 11.8139 1.79872 11.6871 1.7462C11.5604 1.69368 11.4245 1.66665 11.2872 1.66665ZM10.377 0.514358C10.6656 0.394832 10.9749 0.333313 11.2872 0.333313C11.5996 0.333313 11.9088 0.394832 12.1974 0.514358C12.486 0.633884 12.7481 0.809077 12.969 1.02993C13.1899 1.25079 13.3651 1.51298 13.4846 1.80154C13.6041 2.09011 13.6656 2.39939 13.6656 2.71172C13.6656 3.02406 13.6041 3.33333 13.4846 3.6219C13.3651 3.91046 13.1899 4.17265 12.969 4.39351L4.79892 12.5636C4.71688 12.6456 4.61485 12.7048 4.50292 12.7354L1.17437 13.6432C0.943561 13.7061 0.69672 13.6406 0.527553 13.4714C0.358386 13.3022 0.292834 13.0554 0.355782 12.8246L1.26357 9.49601C1.2941 9.38408 1.3533 9.28206 1.43534 9.20002L9.60543 1.02993C9.82628 0.809077 10.0885 0.633884 10.377 0.514358Z" fill="#9B9B9B"/>
</svg>
