<svg width="32" height="32" viewBox="0 0 32 32" fill="none" xmlns="http://www.w3.org/2000/svg">
<path d="M30 14.5H28.5V5.99998C28.4999 5.63385 28.4193 5.27221 28.2641 4.94064C28.1088 4.60906 27.8826 4.31564 27.6014 4.0811C27.3203 3.84657 26.991 3.67665 26.637 3.58337C26.2829 3.49008 25.9127 3.47569 25.5525 3.54123L5.5525 7.17748C4.97668 7.28225 4.45587 7.58571 4.08081 8.03501C3.70574 8.48431 3.5002 9.05096 3.5 9.63623V14.5H2C1.60218 14.5 1.22064 14.658 0.93934 14.9393C0.658035 15.2206 0.5 15.6022 0.5 16C0.5 16.3978 0.658035 16.7793 0.93934 17.0606C1.22064 17.3419 1.60218 17.5 2 17.5H3.5V22.3637C3.5002 22.949 3.70574 23.5157 4.08081 23.965C4.45587 24.4143 4.97668 24.7177 5.5525 24.8225L25.5525 28.4587C25.9127 28.5243 26.2829 28.5099 26.637 28.4166C26.991 28.3233 27.3203 28.1534 27.6014 27.9189C27.8826 27.6843 28.1088 27.3909 28.2641 27.0593C28.4193 26.7278 28.4999 26.3661 28.5 26V17.5H30C30.3978 17.5 30.7794 17.3419 31.0607 17.0606C31.342 16.7793 31.5 16.3978 31.5 16C31.5 15.6022 31.342 15.2206 31.0607 14.9393C30.7794 14.658 30.3978 14.5 30 14.5ZM6.5 10.0537L25.5 6.59998V14.5H6.5V10.0537ZM25.5 25.4L6.5 21.9462V17.5H25.5V25.4Z" fill="#D9DDE3"/>
</svg>
