<svg width="17" height="16" viewBox="0 0 17 16" fill="none" xmlns="http://www.w3.org/2000/svg">
<g id="Frame">
<path id="Vector" d="M8.5 2C9.29565 2 10.0587 2.31607 10.6213 2.87868C11.1839 3.44129 11.5 4.20435 11.5 5C11.5 5.79565 11.1839 6.55871 10.6213 7.12132C10.0587 7.68393 9.29565 8 8.5 8C7.70435 8 6.94129 7.68393 6.37868 7.12132C5.81607 6.55871 5.5 5.79565 5.5 5C5.5 4.20435 5.81607 3.44129 6.37868 2.87868C6.94129 2.31607 7.70435 2 8.5 2ZM8.5 9.5C11.815 9.5 14.5 10.8425 14.5 12.5V14H2.5V12.5C2.5 10.8425 5.185 9.5 8.5 9.5Z" fill="#3F3F3F"/>
</g>
</svg>
