<svg width="78" height="78" viewBox="0 0 78 78" fill="none" xmlns="http://www.w3.org/2000/svg">
    <path d="M38.5909 72.1817C57.1426 72.1817 72.1817 57.1426 72.1817 38.5909C72.1817 20.0391 57.1426 5 38.5909 5C20.0391 5 5 20.0391 5 38.5909C5 57.1426 20.0391 72.1817 38.5909 72.1817Z" fill="#DA25F5" stroke="white" stroke-width="10"/>
    <path d="M39 74C58.33 74 74 58.33 74 39C74 19.67 58.33 4 39 4C19.67 4 4 19.67 4 39C4 58.33 19.67 74 39 74Z" fill="white"/>
    <path d="M39 69.2109C55.6839 69.2109 69.2089 55.6859 69.2089 39.0019C69.2089 22.318 55.6839 8.79297 39 8.79297C22.316 8.79297 8.79102 22.318 8.79102 39.0019C8.79102 55.6859 22.316 69.2109 39 69.2109Z" stroke="#DDDDDD" stroke-width="10.2"/>
</svg>
