<svg width="26" height="27" viewBox="0 0 26 27" fill="none" xmlns="http://www.w3.org/2000/svg">
    <path d="M16.755 3.83878C7.58 -1.46122 4.57799 0.46678 3.89999 0.85578C3.14599 1.28778 0 2.99978 0 13.5138C0 24.1138 3.25899 25.7888 3.89999 26.1618C4.47699 26.4988 7.57901 28.4868 16.755 23.1878C25.955 17.8758 25.955 14.5748 25.955 13.5138C25.955 12.4528 25.949 9.15078 16.755 3.83878ZM11.219 21.4078C9.6549 21.408 8.12588 20.9444 6.82529 20.0755C5.52469 19.2067 4.51092 17.9717 3.91223 16.5267C3.31354 15.0818 3.1568 13.4917 3.46182 11.9576C3.76684 10.4236 4.51994 9.01439 5.62585 7.90833C6.73177 6.80228 8.14084 6.04902 9.67487 5.7438C11.2089 5.43859 12.799 5.59514 14.244 6.19364C15.6891 6.79215 16.9242 7.80574 17.7932 9.10623C18.6622 10.4067 19.126 11.9357 19.126 13.4998C19.126 15.5969 18.293 17.6082 16.8102 19.0912C15.3273 20.5742 13.3162 21.4075 11.219 21.4078Z" fill="#B70F90"/>
    <path d="M14.397 12.2139C14.3538 12.1609 14.3001 12.1173 14.2394 12.0859C14.1786 12.0544 14.1121 12.0358 14.0439 12.0311C13.9756 12.0264 13.9072 12.0358 13.8427 12.0586C13.7782 12.0815 13.7191 12.1173 13.669 12.1639L12.711 13.0539C12.6587 13.1025 12.5964 13.1393 12.5286 13.1619C12.4608 13.1844 12.3889 13.1922 12.3178 13.1846C12.2467 13.177 12.1781 13.1543 12.1166 13.1179C12.055 13.0816 12.002 13.0325 11.961 12.9739L9.80705 9.90088C9.75939 9.83275 9.69548 9.77759 9.62114 9.74038C9.54679 9.70316 9.46433 9.68508 9.38124 9.68776C9.29814 9.69044 9.21701 9.7138 9.14521 9.75573C9.07342 9.79765 9.01321 9.85682 8.97004 9.92787L5.99003 14.8329C5.94384 14.9088 5.91869 14.9956 5.91719 15.0844C5.91568 15.1732 5.93787 15.2608 5.98146 15.3382C6.02505 15.4156 6.08847 15.48 6.1652 15.5248C6.24194 15.5695 6.32921 15.593 6.41804 15.5929H16.101C16.1958 15.5931 16.2888 15.5664 16.369 15.5159C16.4492 15.4653 16.5134 15.393 16.554 15.3074C16.5947 15.2217 16.6102 15.1263 16.5987 15.0322C16.5872 14.9381 16.5491 14.8492 16.489 14.7759L14.397 12.2139Z" fill="#B70F90"/>
    <path d="M12.859 11.0077C13.0025 11.0075 13.1428 10.9647 13.262 10.8848C13.3813 10.8049 13.4742 10.6915 13.529 10.5588C13.5838 10.4261 13.598 10.2802 13.5699 10.1394C13.5418 9.99865 13.4725 9.86938 13.371 9.76795C13.2694 9.66652 13.14 9.59747 12.9992 9.56954C12.8584 9.54161 12.7125 9.55604 12.5799 9.61102C12.4473 9.666 12.334 9.75906 12.2542 9.87843C12.1745 9.99779 12.132 10.1381 12.132 10.2817C12.132 10.3771 12.1508 10.4716 12.1873 10.5597C12.2239 10.6479 12.2774 10.7279 12.345 10.7954C12.4125 10.8628 12.4926 10.9163 12.5808 10.9527C12.669 10.9891 12.7636 11.0078 12.859 11.0077Z" fill="#B70F90"/>
</svg>
