<svg width="18" height="22" viewBox="0 0 18 22" fill="none" xmlns="http://www.w3.org/2000/svg">
    <path d="M16.6922 9.18182C16.6922 15.5455 8.99992 21 8.99992 21C8.99992 21 1.30762 15.5455 1.30762 9.18182C1.30762 7.01187 2.11805 4.93079 3.56064 3.3964C5.00323 1.86201 6.9598 1 8.99992 1C11.0401 1 12.9966 1.86201 14.4392 3.3964C15.8818 4.93079 16.6922 7.01187 16.6922 9.18182Z" stroke="#7D8389" stroke-width="1.2" stroke-linecap="round" stroke-linejoin="round" />
    <path d="M8.9977 11.9101C10.4138 11.9101 11.5618 10.6891 11.5618 9.18284C11.5618 7.67661 10.4138 6.45557 8.9977 6.45557C7.58158 6.45557 6.43359 7.67661 6.43359 9.18284C6.43359 10.6891 7.58158 11.9101 8.9977 11.9101Z" stroke="#7D8389" stroke-width="1.2" stroke-linecap="round" stroke-linejoin="round" />
</svg>
    