<svg width="41" height="41" viewBox="0 0 41 41" fill="none" xmlns="http://www.w3.org/2000/svg">
<path d="M10.25 27.333H10.2667" stroke="#AB22AF" stroke-width="3.41667" stroke-linecap="round" stroke-linejoin="round"/>
<path d="M17.083 27.333H17.0997" stroke="#AB22AF" stroke-width="3.41667" stroke-linecap="round" stroke-linejoin="round"/>
<path d="M23.917 27.333H23.9337" stroke="#AB22AF" stroke-width="3.41667" stroke-linecap="round" stroke-linejoin="round"/>
<path d="M30.75 27.333H30.7667" stroke="#AB22AF" stroke-width="3.41667" stroke-linecap="round" stroke-linejoin="round"/>
<path d="M32.4583 18.792H8.54167C6.65469 18.792 5.125 20.1826 5.125 21.8981V32.7693C5.125 34.4847 6.65469 35.8753 8.54167 35.8753H32.4583C34.3453 35.8753 35.875 34.4847 35.875 32.7693V21.8981C35.875 20.1826 34.3453 18.792 32.4583 18.792Z" stroke="#AB22AF" stroke-width="3.41667" stroke-linecap="round" stroke-linejoin="round"/>
<path d="M11.958 18.7917V13.6667C11.958 11.4013 12.8579 9.22867 14.4598 7.6268C16.0617 6.02492 18.2343 5.125 20.4997 5.125C22.7651 5.125 24.9377 6.02492 26.5395 7.6268C28.1414 9.22867 29.0413 11.4013 29.0413 13.6667V18.7917" stroke="#AB22AF" stroke-width="3.41667" stroke-linecap="round" stroke-linejoin="round"/>
</svg>
