<svg width="45" height="45" viewBox="0 0 45 45" fill="none" xmlns="http://www.w3.org/2000/svg">
    <path opacity="0.8" d="M29.0493 6.164C13.1423 -2.79804 7.93715 0.457542 6.76205 1.12007C5.45506 1.8503 0 4.74512 0 22.5232C0 40.4472 5.65239 43.2802 6.76205 43.9127C7.76262 44.4804 13.1403 47.8444 29.0493 38.8833C45 29.9029 45 24.3212 45 22.5251C45 20.729 44.9901 15.1464 29.0493 6.164ZM19.4502 35.8734C15.8139 35.8734 12.3266 34.4645 9.75538 31.9567C7.18415 29.4488 5.73966 26.0475 5.73966 22.5009C5.73966 20.7448 6.09429 19.0059 6.78331 17.3835C7.47233 15.7611 8.48224 14.2869 9.75538 13.0452C12.3266 10.5373 15.8139 9.12846 19.4502 9.12846C21.2507 9.12846 23.0335 9.47435 24.697 10.1464C26.3604 10.8184 27.8718 11.8034 29.145 13.0452C30.4181 14.2869 31.428 15.7611 32.1171 17.3835C32.8061 19.0059 33.1607 20.7448 33.1607 22.5009C33.1607 26.0475 31.7162 29.4488 29.145 31.9567C26.5738 34.4645 23.0864 35.8734 19.4502 35.8734Z" fill="white"/>
    <g opacity="0.8" filter="url(#filter0_d)">
        <path d="M15.3746 15.4297C14.8372 15.4594 14.3337 15.6954 13.9741 16.0862C13.6145 16.4769 13.4282 16.9906 13.4558 17.515V26.8C13.4294 27.0458 13.453 27.2943 13.5251 27.5312C13.5972 27.7681 13.7164 27.9888 13.876 28.1808C14.0356 28.3727 14.2324 28.5321 14.4552 28.6498C14.6779 28.7676 14.9223 28.8413 15.1743 28.8669C15.4264 28.8927 15.6811 28.8697 15.9241 28.7994C16.1671 28.7291 16.3934 28.6128 16.5903 28.4572C16.7872 28.3015 16.9507 28.1096 17.0715 27.8923C17.1923 27.675 17.2681 27.4366 17.2945 27.1908C17.3081 27.0622 17.3081 26.9325 17.2945 26.8039V17.5188C17.3229 16.9937 17.1368 16.4791 16.777 16.0875C16.4171 15.6959 15.9129 15.4594 15.3746 15.4297Z" fill="white"/>
    </g>
    <g opacity="0.8" filter="url(#filter1_d)">
        <path d="M23.48 15.4297C22.9424 15.4594 22.4388 15.6954 22.0791 16.0861C21.7194 16.4768 21.5328 16.9905 21.5601 17.515V26.8C21.5048 27.2968 21.654 27.7946 21.975 28.184C22.296 28.5735 22.7624 28.8226 23.2717 28.8766C23.524 28.9033 23.7792 28.8813 24.0227 28.8118C24.2662 28.7423 24.4933 28.6267 24.691 28.4716C24.8887 28.3165 25.0532 28.1249 25.175 27.9078C25.2968 27.6907 25.3735 27.4523 25.4008 27.2063C25.4157 27.0712 25.4157 26.9351 25.4008 26.8V17.515C25.4281 16.9904 25.2414 16.4765 24.8815 16.0858C24.5216 15.6951 24.0177 15.4592 23.48 15.4297Z" fill="white"/>
    </g>
    <defs>
        <filter id="filter0_d" x="11.4453" y="14.4297" width="7.85936" height="17.4475" filterUnits="userSpaceOnUse" color-interpolation-filters="sRGB">
            <feFlood flood-opacity="0" result="BackgroundImageFix"/>
            <feColorMatrix in="SourceAlpha" type="matrix" values="0 0 0 0 0 0 0 0 0 0 0 0 0 0 0 0 0 0 127 0"/>
            <feOffset dy="1"/>
            <feGaussianBlur stdDeviation="1"/>
            <feColorMatrix type="matrix" values="0 0 0 0 0 0 0 0 0 0 0 0 0 0 0 0 0 0 0.15 0"/>
            <feBlend mode="normal" in2="BackgroundImageFix" result="effect1_dropShadow"/>
            <feBlend mode="normal" in="SourceGraphic" in2="effect1_dropShadow" result="shape"/>
        </filter>
        <filter id="filter1_d" x="19.5488" y="14.4297" width="7.86312" height="17.4579" filterUnits="userSpaceOnUse" color-interpolation-filters="sRGB">
            <feFlood flood-opacity="0" result="BackgroundImageFix"/>
            <feColorMatrix in="SourceAlpha" type="matrix" values="0 0 0 0 0 0 0 0 0 0 0 0 0 0 0 0 0 0 127 0"/>
            <feOffset dy="1"/>
            <feGaussianBlur stdDeviation="1"/>
            <feColorMatrix type="matrix" values="0 0 0 0 0 0 0 0 0 0 0 0 0 0 0 0 0 0 0.15 0"/>
            <feBlend mode="normal" in2="BackgroundImageFix" result="effect1_dropShadow"/>
            <feBlend mode="normal" in="SourceGraphic" in2="effect1_dropShadow" result="shape"/>
        </filter>
    </defs>
</svg>
