<svg width="18" height="18" viewBox="0 0 18 18" fill="none" xmlns="http://www.w3.org/2000/svg">
    <path d="M9.00012 0.666626C7.38385 0.669697 5.80336 1.14272 4.45115 2.02807C3.09893 2.91343 2.03337 4.17291 1.38424 5.6531C0.735111 7.13329 0.530436 8.77031 0.795144 10.3648C1.05985 11.9592 1.78252 13.4423 2.87512 14.6333C3.65547 15.4792 4.60257 16.1542 5.65674 16.616C6.7109 17.0777 7.84927 17.3161 9.00012 17.3161C10.151 17.3161 11.2893 17.0777 12.3435 16.616C13.3977 16.1542 14.3448 15.4792 15.1251 14.6333C16.2177 13.4423 16.9404 11.9592 17.2051 10.3648C17.4698 8.77031 17.2651 7.13329 16.616 5.6531C15.9669 4.17291 14.9013 2.91343 13.5491 2.02807C12.1969 1.14272 10.6164 0.669697 9.00012 0.666626ZM9.00012 15.6666C7.27384 15.664 5.61588 14.9919 4.37512 13.7916C4.75182 12.8746 5.39265 12.0902 6.21617 11.5382C7.03968 10.9862 8.00871 10.6915 9.00012 10.6915C9.99153 10.6915 10.9606 10.9862 11.7841 11.5382C12.6076 12.0902 13.2484 12.8746 13.6251 13.7916C12.3844 14.9919 10.7264 15.664 9.00012 15.6666ZM7.33346 7.33329C7.33346 7.00366 7.4312 6.68142 7.61434 6.40734C7.79747 6.13326 8.05777 5.91964 8.36232 5.79349C8.66686 5.66735 9.00197 5.63434 9.32527 5.69865C9.64857 5.76296 9.94554 5.92169 10.1786 6.15478C10.4117 6.38787 10.5705 6.68484 10.6348 7.00814C10.6991 7.33144 10.6661 7.66655 10.5399 7.9711C10.4138 8.27564 10.2002 8.53594 9.92607 8.71908C9.65199 8.90221 9.32976 8.99996 9.00012 8.99996C8.55809 8.99996 8.13417 8.82436 7.82161 8.5118C7.50905 8.19924 7.33346 7.77532 7.33346 7.33329ZM14.7585 12.3333C14.0139 11.0598 12.868 10.0691 11.5001 9.51663C11.9244 9.03551 12.2009 8.44217 12.2963 7.80782C12.3918 7.17347 12.3022 6.52505 12.0382 5.94037C11.7743 5.35569 11.3473 4.85959 10.8084 4.5116C10.2695 4.1636 9.64161 3.9785 9.00012 3.9785C8.35863 3.9785 7.73076 4.1636 7.19187 4.5116C6.65297 4.85959 6.22593 5.35569 5.962 5.94037C5.69806 6.52505 5.60844 7.17347 5.7039 7.80782C5.79935 8.44217 6.07581 9.03551 6.50012 9.51663C5.13229 10.0691 3.98635 11.0598 3.24179 12.3333C2.64841 11.3225 2.33489 10.172 2.33346 8.99996C2.33346 7.23185 3.03583 5.53616 4.28608 4.28591C5.53632 3.03567 7.23201 2.33329 9.00012 2.33329C10.7682 2.33329 12.4639 3.03567 13.7142 4.28591C14.9644 5.53616 15.6668 7.23185 15.6668 8.99996C15.6654 10.172 15.3518 11.3225 14.7585 12.3333Z" fill="#DDDDDD" />
</svg>
    