<svg width="17" height="20" viewBox="0 0 17 20" fill="none" xmlns="http://www.w3.org/2000/svg">
    <path d="M8.53809 11C8.27287 11 8.01852 11.1054 7.83098 11.2929C7.64344 11.4804 7.53809 11.7348 7.53809 12V15C7.53809 15.2652 7.64344 15.5196 7.83098 15.7071C8.01852 15.8946 8.27287 16 8.53809 16C8.8033 16 9.05766 15.8946 9.24519 15.7071C9.43273 15.5196 9.53809 15.2652 9.53809 15V12C9.53809 11.7348 9.43273 11.4804 9.24519 11.2929C9.05766 11.1054 8.8033 11 8.53809 11ZM13.5381 7V5C13.5381 3.67392 13.0113 2.40215 12.0736 1.46447C11.1359 0.526784 9.86417 0 8.53809 0C7.212 0 5.94023 0.526784 5.00255 1.46447C4.06487 2.40215 3.53809 3.67392 3.53809 5V7C2.74244 7 1.97937 7.31607 1.41677 7.87868C0.854157 8.44129 0.538086 9.20435 0.538086 10V17C0.538086 17.7956 0.854157 18.5587 1.41677 19.1213C1.97937 19.6839 2.74244 20 3.53809 20H13.5381C14.3337 20 15.0968 19.6839 15.6594 19.1213C16.222 18.5587 16.5381 17.7956 16.5381 17V10C16.5381 9.20435 16.222 8.44129 15.6594 7.87868C15.0968 7.31607 14.3337 7 13.5381 7ZM5.53809 5C5.53809 4.20435 5.85416 3.44129 6.41677 2.87868C6.97937 2.31607 7.74244 2 8.53809 2C9.33374 2 10.0968 2.31607 10.6594 2.87868C11.222 3.44129 11.5381 4.20435 11.5381 5V7H5.53809V5ZM14.5381 17C14.5381 17.2652 14.4327 17.5196 14.2452 17.7071C14.0577 17.8946 13.8033 18 13.5381 18H3.53809C3.27287 18 3.01852 17.8946 2.83098 17.7071C2.64344 17.5196 2.53809 17.2652 2.53809 17V10C2.53809 9.73478 2.64344 9.48043 2.83098 9.29289C3.01852 9.10536 3.27287 9 3.53809 9H13.5381C13.8033 9 14.0577 9.10536 14.2452 9.29289C14.4327 9.48043 14.5381 9.73478 14.5381 10V17Z" fill="#707070"/>
</svg>
