<svg width="14" height="14" viewBox="0 0 14 14" fill="none" xmlns="http://www.w3.org/2000/svg">
<path fill-rule="evenodd" clip-rule="evenodd" d="M4.81149 9.18916C5.07184 9.44951 5.07184 9.87162 4.81149 10.132L2.15978 12.7837C1.89943 13.044 1.47732 13.044 1.21697 12.7837C0.956617 12.5233 0.956617 12.1012 1.21697 11.8409L3.86868 9.18916C4.12903 8.92881 4.55114 8.92881 4.81149 9.18916Z" fill="white"/>
<path d="M0.800242 5.29175C2.76914 3.70072 4.60545 4.6222 4.60545 4.6222L8.73503 0.492201C8.78438 0.442091 8.8432 0.402297 8.90807 0.375135C8.97294 0.347973 9.04257 0.333984 9.1129 0.333984C9.18323 0.333984 9.25285 0.347973 9.31773 0.375135C9.3826 0.402297 9.44142 0.442091 9.49077 0.492201L13.5081 4.50955C13.5582 4.5589 13.598 4.61772 13.6252 4.68259C13.6523 4.74746 13.6663 4.81709 13.6663 4.88742C13.6663 4.95775 13.6523 5.02737 13.6252 5.09225C13.598 5.15712 13.5582 5.21594 13.5081 5.26529L9.5509 9.82619C9.97518 11.1918 9.21281 12.5044 8.70898 13.174C8.66312 13.235 8.60463 13.2854 8.53751 13.3217C8.47039 13.358 8.39622 13.3794 8.32007 13.3845C8.24392 13.3895 8.16758 13.378 8.09626 13.3509C8.02495 13.3237 7.96033 13.2814 7.90684 13.227L0.760466 6.08064C0.70754 6.02817 0.666268 5.96513 0.639341 5.89563C0.612413 5.82614 0.600435 5.75175 0.604188 5.67731C0.607941 5.60288 0.627341 5.53007 0.661122 5.46364C0.694903 5.3972 0.742306 5.33864 0.800242 5.29175Z" fill="white"/>
</svg>
