<svg width="20" height="20" viewBox="0 0 20 20" fill="none" xmlns="http://www.w3.org/2000/svg">
<path fill-rule="evenodd" clip-rule="evenodd" d="M0 3.33333C0 1.49238 1.49238 0 3.33333 0H16.6667C18.5076 0 20 1.49238 20 3.33333V16.6667C20 18.5076 18.5076 20 16.6667 20H3.33333C1.49238 20 0 18.5076 0 16.6667V3.33333ZM15.488 8.32648V10.1512C15.488 10.4964 15.7678 10.7762 16.113 10.7762C16.4581 10.7762 16.738 10.4964 16.738 10.1512V6.81787C16.738 6.47269 16.4581 6.19287 16.113 6.19287H12.7796C12.4344 6.19287 12.1546 6.47269 12.1546 6.81787C12.1546 7.16305 12.4344 7.44287 12.7796 7.44287H14.6038L10.8349 11.2118L8.49907 8.87593C8.25499 8.63185 7.85927 8.63185 7.61519 8.87593L3.44852 13.0426C3.20444 13.2867 3.20444 13.6824 3.44852 13.9265C3.6926 14.1706 4.08833 14.1706 4.3324 13.9265L8.05713 10.2018L10.393 12.5376C10.637 12.7817 11.0328 12.7817 11.2768 12.5376L15.488 8.32648Z" fill="#717171"/>
</svg>
