<svg width="16" height="16" viewBox="0 0 16 16" fill="none" xmlns="http://www.w3.org/2000/svg">
<path fill-rule="evenodd" clip-rule="evenodd" d="M8.00008 15.3337C12.0502 15.3337 15.3334 12.0504 15.3334 8.00033C15.3334 3.95024 12.0502 0.666992 8.00008 0.666992C3.94999 0.666992 0.666748 3.95024 0.666748 8.00033C0.666748 12.0504 3.94999 15.3337 8.00008 15.3337ZM11.7071 4.29289C12.0976 4.68342 12.0976 5.31658 11.7071 5.70711L9.41421 8L11.7071 10.2929C12.0976 10.6834 12.0976 11.3166 11.7071 11.7071C11.3166 12.0976 10.6834 12.0976 10.2929 11.7071L8 9.41421L5.70711 11.7071C5.31658 12.0976 4.68342 12.0976 4.29289 11.7071C3.90237 11.3166 3.90237 10.6834 4.29289 10.2929L6.58579 8L4.29289 5.70711C3.90237 5.31658 3.90237 4.68342 4.29289 4.29289C4.68342 3.90237 5.31658 3.90237 5.70711 4.29289L8 6.58579L10.2929 4.29289C10.6834 3.90237 11.3166 3.90237 11.7071 4.29289Z" fill="#ffffff"/>
</svg>
