<svg width="42" height="14" viewBox="0 0 42 14" fill="none" xmlns="http://www.w3.org/2000/svg">
<path opacity="0.3" d="M38.8387 12.9235L34.7818 10.4623L30.725 7.99892C30.4869 7.85415 30.2892 7.64609 30.1518 7.39563C30.0143 7.14517 29.942 6.86112 29.942 6.57198C29.942 6.28284 30.0143 5.99877 30.1518 5.74831C30.2892 5.49786 30.4869 5.28982 30.725 5.14505L34.7818 2.68388L38.8387 0.222711C39.077 0.0777128 39.3475 0.00128062 39.6229 0.00110899C39.8983 0.000937349 40.1689 0.0770396 40.4074 0.221742C40.6459 0.366443 40.844 0.574629 40.9816 0.825366C41.1193 1.0761 41.1916 1.36053 41.1914 1.65001L41.1914 11.4962C41.1914 11.7855 41.1189 12.0698 40.9812 12.3205C40.8435 12.5711 40.6455 12.7792 40.4071 12.9238C40.1686 13.0685 39.8981 13.1446 39.6228 13.1445C39.3475 13.1445 39.0771 13.0682 38.8387 12.9235Z" fill="white"/>
<path opacity="0.65" d="M24.4069 12.9235L20.1427 10.4623L15.8808 7.99892C15.6299 7.85461 15.4216 7.64671 15.2767 7.3962C15.1318 7.14568 15.0555 6.86139 15.0555 6.57198C15.0555 6.28258 15.1318 5.99829 15.2767 5.74777C15.4216 5.49725 15.6299 5.28936 15.8808 5.14505L20.1427 2.68388L24.4069 0.222711C24.6574 0.0777128 24.9417 0.00128062 25.2312 0.00110898C25.5207 0.000937343 25.8051 0.0770396 26.0558 0.221742C26.3065 0.366443 26.5147 0.574629 26.6594 0.825366C26.804 1.0761 26.8801 1.36053 26.8799 1.65001L26.8799 11.4962C26.8799 11.7855 26.8037 12.0698 26.659 12.3205C26.5142 12.5711 26.3061 12.7792 26.0554 12.9238C25.8048 13.0685 25.5205 13.1446 25.2311 13.1445C24.9417 13.1445 24.6574 13.0682 24.4069 12.9235Z" fill="white"/>
<path d="M9.3512 12.9235L5.08706 10.4623L0.825123 7.99892C0.574269 7.85461 0.365899 7.64671 0.221002 7.3962C0.0761066 7.14568 -0.000194 6.86139 -0.000193975 6.57198C-0.00019395 6.28258 0.0761067 5.99829 0.221002 5.74777C0.365899 5.49725 0.574269 5.28936 0.825124 5.14505L5.08706 2.68388L9.3512 0.222711C9.60174 0.0777128 9.88607 0.00128062 10.1755 0.00110898C10.465 0.000937343 10.7495 0.0770396 11.0002 0.221742C11.2509 0.366443 11.459 0.574629 11.6037 0.825366C11.7484 1.0761 11.8244 1.36053 11.8242 1.65001L11.8242 11.4962C11.8242 11.7855 11.748 12.0698 11.6033 12.3205C11.4586 12.5711 11.2504 12.7792 10.9998 12.9238C10.7491 13.0685 10.4648 13.1446 10.1755 13.1445C9.88607 13.1445 9.60178 13.0682 9.3512 12.9235Z" fill="white"/>
</svg>
