<svg width="23" height="21" viewBox="0 0 23 21" fill="none" xmlns="http://www.w3.org/2000/svg">
    <path d="M11.0395 14.543C10.8417 14.543 10.6484 14.6016 10.4839 14.7115C10.3195 14.8214 10.1913 14.9776 10.1156 15.1603C10.04 15.343 10.0201 15.5441 10.0587 15.7381C10.0973 15.9321 10.1926 16.1103 10.3324 16.2501C10.4723 16.39 10.6504 16.4852 10.8444 16.5238C11.0384 16.5624 11.2395 16.5426 11.4222 16.4669C11.6049 16.3912 11.7611 16.263 11.871 16.0986C11.9809 15.9341 12.0395 15.7408 12.0395 15.543C12.0395 15.2778 11.9342 15.0234 11.7466 14.8359C11.5591 14.6484 11.3047 14.543 11.0395 14.543ZM21.7095 16.013L13.6595 2.013C13.3993 1.54651 13.0193 1.15795 12.5587 0.887465C12.0981 0.616976 11.5737 0.474365 11.0395 0.474365C10.5054 0.474365 9.98092 0.616976 9.52033 0.887465C9.05973 1.15795 8.67971 1.54651 8.41952 2.013L0.419518 16.013C0.150314 16.467 0.0056609 16.984 0.000162801 17.5118C-0.0053353 18.0396 0.128516 18.5595 0.388204 19.019C0.647892 19.4786 1.02422 19.8615 1.4792 20.129C1.93418 20.3966 2.4517 20.5394 2.97952 20.543H19.0995C19.6316 20.5482 20.1554 20.4119 20.6174 20.1479C21.0794 19.8839 21.4629 19.5018 21.7285 19.0408C21.9941 18.5798 22.1324 18.0564 22.129 17.5243C22.1257 16.9923 21.9809 16.4707 21.7095 16.013ZM19.9795 18.013C19.8919 18.1689 19.764 18.2985 19.6092 18.3882C19.4544 18.4779 19.2784 18.5245 19.0995 18.523H2.97952C2.80063 18.5245 2.62462 18.4779 2.46984 18.3882C2.31505 18.2985 2.18717 18.1689 2.09952 18.013C2.01175 17.861 1.96554 17.6885 1.96554 17.513C1.96554 17.3375 2.01175 17.165 2.09952 17.013L10.0995 3.013C10.1834 2.84919 10.3109 2.71173 10.468 2.61574C10.625 2.51975 10.8055 2.46896 10.9895 2.46896C11.1736 2.46896 11.354 2.51975 11.5111 2.61574C11.6681 2.71173 11.7956 2.84919 11.8795 3.013L19.9295 17.013C20.0287 17.1628 20.0857 17.3366 20.0945 17.5161C20.1033 17.6956 20.0636 17.8742 19.9795 18.033V18.013ZM11.0395 6.543C10.7743 6.543 10.5199 6.64835 10.3324 6.83589C10.1449 7.02343 10.0395 7.27778 10.0395 7.543V11.543C10.0395 11.8082 10.1449 12.0626 10.3324 12.2501C10.5199 12.4376 10.7743 12.543 11.0395 12.543C11.3047 12.543 11.5591 12.4376 11.7466 12.2501C11.9342 12.0626 12.0395 11.8082 12.0395 11.543V7.543C12.0395 7.27778 11.9342 7.02343 11.7466 6.83589C11.5591 6.64835 11.3047 6.543 11.0395 6.543Z" fill="#707070"/>
</svg>
