<svg width="24" height="24" viewBox="0 0 24 24" fill="none" xmlns="http://www.w3.org/2000/svg">
<path d="M0 0H16C20.4183 0 24 3.58172 24 8V24H8C3.58172 24 0 20.4183 0 16V0Z" fill="#AB22AF"/>
<path d="M17.7263 12.94L12.9463 17.72C12.8225 17.844 12.6755 17.9424 12.5136 18.0095C12.3517 18.0766 12.1782 18.1111 12.003 18.1111C11.8278 18.1111 11.6543 18.0766 11.4924 18.0095C11.3306 17.9424 11.1835 17.844 11.0597 17.72L5.33301 12V5.33337H11.9997L17.7263 11.06C17.9747 11.3099 18.1141 11.6478 18.1141 12C18.1141 12.3523 17.9747 12.6902 17.7263 12.94Z" fill="white"/>
<circle cx="9.5" cy="9.5" r="1.5" fill="#AB22AF"/>
</svg>
