<svg width="24" height="25" viewBox="0 0 24 25" fill="none" xmlns="http://www.w3.org/2000/svg">
<path d="M2 6.5C2 4.29086 3.79086 2.5 6 2.5H18C20.2091 2.5 22 4.29086 22 6.5V18.5C22 20.7091 20.2091 22.5 18 22.5H6C3.79086 22.5 2 20.7091 2 18.5V6.5Z" fill="#3F3F3F"/>
<path fill-rule="evenodd" clip-rule="evenodd" d="M13.1858 17.5642L17.0696 13.6804C17.2714 13.4774 17.3846 13.2029 17.3846 12.9167C17.3846 12.6305 17.2714 12.3559 17.0696 12.1529L12.4167 7.5H7V12.9167L11.6529 17.5642C11.7535 17.6649 11.873 17.7448 12.0045 17.7993C12.136 17.8538 12.277 17.8819 12.4194 17.8819C12.5617 17.8819 12.7027 17.8538 12.8342 17.7993C12.9657 17.7448 13.0852 17.6649 13.1858 17.5642ZM10.3853 12.1041C11.0584 12.1041 11.604 11.5585 11.604 10.8854C11.604 10.2123 11.0584 9.66663 10.3853 9.66663C9.71219 9.66663 9.16653 10.2123 9.16653 10.8854C9.16653 11.5585 9.71219 12.1041 10.3853 12.1041Z" fill="white"/>
</svg>
