<svg width="32" height="32" viewBox="0 0 32 32" fill="none" xmlns="http://www.w3.org/2000/svg">
<path fill-rule="evenodd" clip-rule="evenodd" d="M15.9993 5.33335C10.1083 5.33335 5.33268 10.109 5.33268 16C5.33268 21.8911 10.1083 26.6667 15.9993 26.6667C21.8904 26.6667 26.666 21.8911 26.666 16C26.666 10.109 21.8904 5.33335 15.9993 5.33335ZM2.66602 16C2.66602 8.63622 8.63555 2.66669 15.9993 2.66669C23.3631 2.66669 29.3327 8.63622 29.3327 16C29.3327 23.3638 23.3631 29.3334 15.9993 29.3334C8.63555 29.3334 2.66602 23.3638 2.66602 16ZM22.0302 9.96921C22.3873 10.3263 22.512 10.8545 22.3523 11.3337L19.8083 18.9657C19.751 19.1374 19.6594 19.2956 19.539 19.4308C18.5828 20.5045 17.3206 20.8635 16.116 20.7202C14.9592 20.5826 13.8801 19.9938 13.0597 19.2204C12.2378 18.4455 11.5757 17.391 11.3733 16.2031C11.163 14.9685 11.4675 13.6614 12.4684 12.5595C12.6221 12.3903 12.8168 12.2634 13.0337 12.1911L20.6657 9.64711C21.1448 9.48741 21.673 9.6121 22.0302 9.96921ZM14.2499 14.5966C13.9885 14.9857 13.9372 15.3744 14.0021 15.7553C14.0885 16.2624 14.3998 16.8189 14.889 17.2801C15.3796 17.7426 15.949 18.0148 16.431 18.0722C16.7901 18.1149 17.1032 18.0456 17.3793 17.8197L18.9792 13.0202L14.2499 14.5966Z" fill="#D9DDE3"/>
</svg>
