<svg width="28" height="28" viewBox="0 0 28 28" fill="none" xmlns="http://www.w3.org/2000/svg">
    <path d="M9.33325 23.3334H5.83325C5.52383 23.3334 5.22709 23.2105 5.00829 22.9917C4.7895 22.7729 4.66659 22.4761 4.66659 22.1667V18.6667C4.66659 18.3573 4.54367 18.0605 4.32488 17.8418C4.10608 17.623 3.80934 17.5 3.49992 17.5C3.1905 17.5 2.89375 17.623 2.67496 17.8418C2.45617 18.0605 2.33325 18.3573 2.33325 18.6667V22.1667C2.33325 23.095 2.702 23.9852 3.35838 24.6416C4.01476 25.298 4.90499 25.6667 5.83325 25.6667H9.33325C9.64267 25.6667 9.93942 25.5438 10.1582 25.325C10.377 25.1062 10.4999 24.8095 10.4999 24.5C10.4999 24.1906 10.377 23.8939 10.1582 23.6751C9.93942 23.4563 9.64267 23.3334 9.33325 23.3334ZM3.49992 10.5C3.80934 10.5 4.10608 10.3771 4.32488 10.1583C4.54367 9.93954 4.66659 9.64279 4.66659 9.33337V5.83337C4.66659 5.52396 4.7895 5.22721 5.00829 5.00842C5.22709 4.78962 5.52383 4.66671 5.83325 4.66671H9.33325C9.64267 4.66671 9.93942 4.54379 10.1582 4.325C10.377 4.10621 10.4999 3.80946 10.4999 3.50004C10.4999 3.19062 10.377 2.89388 10.1582 2.67508C9.93942 2.45629 9.64267 2.33337 9.33325 2.33337H5.83325C4.90499 2.33337 4.01476 2.70212 3.35838 3.3585C2.702 4.01488 2.33325 4.90512 2.33325 5.83337V9.33337C2.33325 9.64279 2.45617 9.93954 2.67496 10.1583C2.89375 10.3771 3.1905 10.5 3.49992 10.5ZM22.1666 2.33337H18.6666C18.3572 2.33337 18.0604 2.45629 17.8416 2.67508C17.6228 2.89388 17.4999 3.19062 17.4999 3.50004C17.4999 3.80946 17.6228 4.10621 17.8416 4.325C18.0604 4.54379 18.3572 4.66671 18.6666 4.66671H22.1666C22.476 4.66671 22.7728 4.78962 22.9915 5.00842C23.2103 5.22721 23.3333 5.52396 23.3333 5.83337V9.33337C23.3333 9.64279 23.4562 9.93954 23.675 10.1583C23.8938 10.3771 24.1905 10.5 24.4999 10.5C24.8093 10.5 25.1061 10.3771 25.3249 10.1583C25.5437 9.93954 25.6666 9.64279 25.6666 9.33337V5.83337C25.6666 4.90512 25.2978 4.01488 24.6415 3.3585C23.9851 2.70212 23.0948 2.33337 22.1666 2.33337ZM18.6666 14C18.6666 13.6906 18.5437 13.3939 18.3249 13.1751C18.1061 12.9563 17.8093 12.8334 17.4999 12.8334H15.1666V10.5C15.1666 10.1906 15.0437 9.89388 14.8249 9.67508C14.6061 9.45629 14.3093 9.33337 13.9999 9.33337C13.6905 9.33337 13.3938 9.45629 13.175 9.67508C12.9562 9.89388 12.8333 10.1906 12.8333 10.5V12.8334H10.4999C10.1905 12.8334 9.89375 12.9563 9.67496 13.1751C9.45617 13.3939 9.33325 13.6906 9.33325 14C9.33325 14.3095 9.45617 14.6062 9.67496 14.825C9.89375 15.0438 10.1905 15.1667 10.4999 15.1667H12.8333V17.5C12.8333 17.8095 12.9562 18.1062 13.175 18.325C13.3938 18.5438 13.6905 18.6667 13.9999 18.6667C14.3093 18.6667 14.6061 18.5438 14.8249 18.325C15.0437 18.1062 15.1666 17.8095 15.1666 17.5V15.1667H17.4999C17.8093 15.1667 18.1061 15.0438 18.3249 14.825C18.5437 14.6062 18.6666 14.3095 18.6666 14ZM24.4999 17.5C24.1905 17.5 23.8938 17.623 23.675 17.8418C23.4562 18.0605 23.3333 18.3573 23.3333 18.6667V22.1667C23.3333 22.4761 23.2103 22.7729 22.9915 22.9917C22.7728 23.2105 22.476 23.3334 22.1666 23.3334H18.6666C18.3572 23.3334 18.0604 23.4563 17.8416 23.6751C17.6228 23.8939 17.4999 24.1906 17.4999 24.5C17.4999 24.8095 17.6228 25.1062 17.8416 25.325C18.0604 25.5438 18.3572 25.6667 18.6666 25.6667H22.1666C23.0948 25.6667 23.9851 25.298 24.6415 24.6416C25.2978 23.9852 25.6666 23.095 25.6666 22.1667V18.6667C25.6666 18.3573 25.5437 18.0605 25.3249 17.8418C25.1061 17.623 24.8093 17.5 24.4999 17.5Z" fill="#707070"/>
</svg>
