<svg width="23" height="22" viewBox="0 0 23 22" fill="none" xmlns="http://www.w3.org/2000/svg">
<path fill-rule="evenodd" clip-rule="evenodd" d="M0.400391 10C0.400391 4.47715 4.87754 0 10.4004 0C15.9232 0 20.4004 4.47715 20.4004 10C20.4004 12.0371 19.7904 13.9337 18.7435 15.5147L21.8146 18.5858C22.5957 19.3668 22.5957 20.6332 21.8146 21.4142L21.1075 20.7071L21.8146 21.4142C21.0336 22.1953 19.7672 22.1953 18.9862 21.4142L15.9151 18.3431C14.3341 19.39 12.4375 20 10.4004 20C4.87754 20 0.400391 15.5228 0.400391 10ZM10.4004 4C7.08668 4 4.40039 6.68629 4.40039 10C4.40039 13.3137 7.08668 16 10.4004 16C11.9962 16 13.4447 15.3783 14.5204 14.3619C14.557 14.3185 14.5956 14.2764 14.6362 14.2358C14.6768 14.1952 14.7189 14.1566 14.7623 14.12C15.7787 13.0443 16.4004 11.5958 16.4004 10C16.4004 6.68629 13.7141 4 10.4004 4ZM18.396 10.2673C18.3286 12.3166 17.4895 14.1724 16.1619 15.5502C16.1275 15.5859 16.0906 15.619 16.0513 15.6491L16.0511 15.6493L16.0504 15.65L16.0497 15.6507L16.0495 15.6509C16.0193 15.6902 15.9863 15.7271 15.9506 15.7615C14.5692 17.0925 12.7075 17.9325 10.652 17.9961C12.4441 17.9408 14.0856 17.2972 15.3934 16.251C15.7913 15.9327 16.3649 15.9645 16.7252 16.3248C16.3649 15.9645 16.3331 15.3909 16.6514 14.993C17.6945 13.689 18.3375 12.0532 18.396 10.2673Z" fill="#3F3F3F"/>
</svg>
