<svg width="20" height="20" viewBox="0 0 20 20" fill="none" xmlns="http://www.w3.org/2000/svg">
    <path d="M19.1217 11.5896L18.2897 10.9047C17.7198 10.4355 17.7208 9.56352 18.2897 9.09527L19.1217 8.41035C19.7138 7.92289 19.8652 7.08703 19.4818 6.42277L17.8389 3.57723C17.4554 2.91301 16.6556 2.62629 15.9376 2.89527L14.9284 3.27336C14.2371 3.53227 13.4825 3.09559 13.3613 2.36863L13.1842 1.30559C13.0581 0.549102 12.4099 0 11.643 0H8.35723C7.59023 0 6.94203 0.549102 6.81598 1.30562L6.63879 2.36863C6.51742 3.09687 5.76172 3.53184 5.07176 3.2734L4.06258 2.89527C3.34449 2.62629 2.5448 2.91305 2.16125 3.57723L0.518398 6.42273C0.134921 7.08691 0.286327 7.92281 0.878476 8.41031L1.71047 9.09523C2.28047 9.56445 2.27934 10.4364 1.71047 10.9047L0.878437 11.5896C0.286327 12.0771 0.134882 12.913 0.518359 13.5772L2.16125 16.4227C2.54476 17.0869 3.3443 17.3737 4.06258 17.1047L5.07172 16.7266C5.76309 16.4676 6.51762 16.9046 6.63875 17.6313L6.81594 18.6943C6.94203 19.4509 7.59023 20 8.35719 20H11.6429C12.4099 20 13.0581 19.4509 13.1841 18.6944L13.3613 17.6314C13.4826 16.9034 14.2383 16.4681 14.9284 16.7267L15.9376 17.1047C16.6558 17.3738 17.4554 17.087 17.8389 16.4228L19.4818 13.5772C19.8652 12.913 19.7138 12.0771 19.1217 11.5896ZM16.4857 15.6415L15.4766 15.2634C13.8633 14.6591 12.1027 15.6787 11.8201 17.3745L11.643 18.4375H8.35723L8.18004 17.3745C7.89687 15.6754 6.13371 14.6603 4.52359 15.2634L3.51441 15.6415L1.87156 12.796L2.70355 12.1111C4.03359 11.0161 4.03082 8.9816 2.70355 7.88895L1.87156 7.20402L3.51445 4.35848L4.52359 4.73656C6.13687 5.34086 7.89742 4.32133 8.18004 2.62551L8.35719 1.5625H11.6429L11.8201 2.62551C12.1033 4.3248 13.8665 5.33961 15.4765 4.73656L16.4857 4.35848L18.1289 7.20363C18.1289 7.20363 18.1288 7.20375 18.1285 7.20398L17.2966 7.88891C15.9666 8.98375 15.9692 11.0183 17.2965 12.111L18.1286 12.7959L16.4857 15.6415ZM10.0001 6.14582C7.87488 6.14582 6.1459 7.8748 6.1459 10C6.1459 12.1252 7.87488 13.8542 10.0001 13.8542C12.1253 13.8542 13.8543 12.1252 13.8543 10C13.8543 7.8748 12.1253 6.14582 10.0001 6.14582ZM10.0001 12.2917C8.73644 12.2917 7.7084 11.2636 7.7084 10C7.7084 8.73637 8.73644 7.70832 10.0001 7.70832C11.2637 7.70832 12.2918 8.73637 12.2918 10C12.2918 11.2636 11.2637 12.2917 10.0001 12.2917Z" fill="#C1C1C1"/>
</svg>
