<svg width="20" height="20" viewBox="0 0 20 20" fill="none" xmlns="http://www.w3.org/2000/svg">
<path fill-rule="evenodd" clip-rule="evenodd" d="M10.1117 0.0708365C10.4676 -0.0731449 10.8772 0.00644131 11.1496 0.272484L19.7211 8.64453C19.903 8.82224 20.0036 9.06429 19.9999 9.31558C19.9962 9.56688 19.8886 9.80602 19.7015 9.97859L11.1301 17.8855C10.8537 18.1405 10.4484 18.2105 10.0992 18.0635C9.75 17.9165 9.52381 17.5806 9.52381 17.2092V13.0779C7.05387 13.3651 5.21884 14.7425 3.93399 16.1906C3.21375 17.0023 2.68445 17.8178 2.33551 18.4313C2.16161 18.7371 2.03404 18.9899 1.9512 19.1633C1.90982 19.2499 1.87971 19.3164 1.86067 19.3596C1.85115 19.3812 1.8444 19.3969 1.8404 19.4063L1.83664 19.4152L1.83647 19.4156L1.8364 19.4158C1.66666 19.8294 1.22037 20.0674 0.772279 19.9831C0.323975 19.8988 0 19.5156 0 19.0697C0 15.0595 0.597016 11.5852 2.23392 9.09098C3.78005 6.73514 6.18006 5.36195 9.52381 5.14628V0.930254C9.52381 0.554012 9.75585 0.214818 10.1117 0.0708365ZM2.11389 15.4194C2.23504 15.271 2.36191 15.1216 2.49458 14.9721C4.14497 13.1121 6.76631 11.1628 10.4762 11.1628C11.0022 11.1628 11.4286 11.5792 11.4286 12.093V15.0512L17.6812 9.28324L11.4286 3.17602V6.0465C11.4286 6.56025 11.0022 6.97673 10.4762 6.97673C7.17806 6.97673 5.12453 8.13395 3.8375 10.095C2.95074 11.4462 2.39094 13.2342 2.11389 15.4194Z" fill="#3F3F3F"/>
</svg>
