<svg width="31" height="32" viewBox="0 0 31 32" fill="none" xmlns="http://www.w3.org/2000/svg">
    <path d="M23.25 29.1648C25.3901 29.1648 27.125 27.4299 27.125 25.2898C27.125 23.1497 25.3901 21.4148 23.25 21.4148C21.1099 21.4148 19.375 23.1497 19.375 25.2898C19.375 27.4299 21.1099 29.1648 23.25 29.1648Z" stroke="white" stroke-width="2" stroke-linecap="round" stroke-linejoin="round"/>
    <path d="M7.75 20.123C9.8901 20.123 11.625 18.3882 11.625 16.248C11.625 14.1079 9.8901 12.373 7.75 12.373C5.6099 12.373 3.875 14.1079 3.875 16.248C3.875 18.3882 5.6099 20.123 7.75 20.123Z" stroke="white" stroke-width="2" stroke-linecap="round" stroke-linejoin="round"/>
    <path d="M11.0953 18.1985L19.9174 23.3393" stroke="white" stroke-width="2" stroke-linecap="round" stroke-linejoin="round"/>
    <path d="M23.25 11.0813C25.3901 11.0813 27.125 9.3464 27.125 7.2063C27.125 5.0662 25.3901 3.3313 23.25 3.3313C21.1099 3.3313 19.375 5.0662 19.375 7.2063C19.375 9.3464 21.1099 11.0813 23.25 11.0813Z" stroke="white" stroke-width="2" stroke-linecap="round" stroke-linejoin="round"/>
    <path d="M19.9045 9.15674L11.0953 14.2976" stroke="white" stroke-width="2" stroke-linecap="round" stroke-linejoin="round"/>
</svg>
