<svg width="37" height="36" viewBox="0 0 37 36" fill="none" xmlns="http://www.w3.org/2000/svg">
<g filter="url(#filter0_d_5612_6522)">
<path fill-rule="evenodd" clip-rule="evenodd" d="M18.6117 6.07084C18.9676 5.92686 19.3772 6.00644 19.6496 6.27248L28.2211 14.6445C28.403 14.8222 28.5036 15.0643 28.4999 15.3156C28.4962 15.5669 28.3886 15.806 28.2015 15.9786L19.6301 23.8855C19.3537 24.1405 18.9484 24.2105 18.5992 24.0635C18.25 23.9165 18.0238 23.5806 18.0238 23.2092V19.0779C15.5539 19.3651 13.7188 20.7425 12.434 22.1906C11.7137 23.0023 11.1844 23.8178 10.8355 24.4313C10.6616 24.7371 10.534 24.9899 10.4512 25.1633C10.4098 25.2499 10.3797 25.3164 10.3607 25.3596C10.3511 25.3812 10.3444 25.3969 10.3404 25.4063L10.3366 25.4152L10.3365 25.4156L10.3364 25.4158C10.1667 25.8294 9.72037 26.0674 9.27228 25.9831C8.82398 25.8988 8.5 25.5156 8.5 25.0697C8.5 21.0595 9.09702 17.5852 10.7339 15.091C12.28 12.7351 14.6801 11.362 18.0238 11.1463V6.93025C18.0238 6.55401 18.2558 6.21482 18.6117 6.07084ZM10.6139 21.4194C10.735 21.271 10.8619 21.1216 10.9946 20.9721C12.645 19.1121 15.2663 17.1628 18.9762 17.1628C19.5022 17.1628 19.9286 17.5792 19.9286 18.093V21.0512L26.1812 15.2832L19.9286 9.17602V12.0465C19.9286 12.5603 19.5022 12.9767 18.9762 12.9767C15.6781 12.9767 13.6245 14.134 12.3375 16.095C11.4507 17.4462 10.8909 19.2342 10.6139 21.4194Z" fill="white"/>
</g>
<defs>
<filter id="filter0_d_5612_6522" x="0.5" y="0" width="36" height="36" filterUnits="userSpaceOnUse" color-interpolation-filters="sRGB">
<feFlood flood-opacity="0" result="BackgroundImageFix"/>
<feColorMatrix in="SourceAlpha" type="matrix" values="0 0 0 0 0 0 0 0 0 0 0 0 0 0 0 0 0 0 127 0" result="hardAlpha"/>
<feOffset dy="2"/>
<feGaussianBlur stdDeviation="4"/>
<feComposite in2="hardAlpha" operator="out"/>
<feColorMatrix type="matrix" values="0 0 0 0 0 0 0 0 0 0 0 0 0 0 0 0 0 0 0.3 0"/>
<feBlend mode="normal" in2="BackgroundImageFix" result="effect1_dropShadow_5612_6522"/>
<feBlend mode="normal" in="SourceGraphic" in2="effect1_dropShadow_5612_6522" result="shape"/>
</filter>
</defs>
</svg>
