<svg width="78" height="78" viewBox="0 0 78 78" fill="none" xmlns="http://www.w3.org/2000/svg">
<path d="M38.9991 72.5919C57.5508 72.5919 72.5899 57.5527 72.5899 39.001C72.5899 20.4493 57.5508 5.41016 38.9991 5.41016C20.4473 5.41016 5.4082 20.4493 5.4082 39.001C5.4082 57.5527 20.4473 72.5919 38.9991 72.5919Z" fill="#DA25F5" stroke="#EB3223" stroke-opacity="0.3" stroke-width="10"/>
<path d="M39 74C58.33 74 74 58.33 74 39C74 19.67 58.33 4 39 4C19.67 4 4 19.67 4 39C4 58.33 19.67 74 39 74Z" fill="#EB3223"/>
<path d="M39 69.2109C55.6839 69.2109 69.2089 55.6859 69.2089 39.0019C69.2089 22.318 55.6839 8.79297 39 8.79297C22.316 8.79297 8.79102 22.318 8.79102 39.0019C8.79102 55.6859 22.316 69.2109 39 69.2109Z" stroke="white" stroke-width="10.2"/>
</svg>
