<svg width="135" height="111" viewBox="0 0 135 111" fill="none" xmlns="http://www.w3.org/2000/svg">
<path d="M91.5844 77.2747C92.1478 78.0581 92.5722 79.0434 92.9073 80.0087C93.2543 81.008 93.5601 82.1485 93.8311 83.3435C94.3732 85.7343 94.8095 88.4949 95.1499 91.0811C95.4914 93.6761 95.7422 96.1399 95.9074 97.9519C95.9901 98.859 96.0516 99.6054 96.0926 100.126C96.113 100.387 96.1284 100.591 96.1387 100.731L96.163 101.076H96.8133C97.7694 101.076 98.5444 101.851 98.5444 102.807V103.854C101.129 103.094 103.448 101.84 105.444 99.9962C109.632 96.1254 108.258 88.2161 107.036 81.1832C105.848 74.3448 104.804 68.335 109.157 67.672C123.931 65.422 132.559 55.179 131.814 45.1656C130.576 28.5374 111.308 20.6112 95.6192 17.3262C95.4869 18.3972 95.3291 19.574 95.1449 20.789C94.8033 23.0414 94.3644 25.4685 93.8174 27.6116C93.2965 29.6525 92.5951 31.7891 91.5841 33.1941L91.5809 33.1985C89.6076 35.9283 85.8451 39.8941 82.2449 43.689L82.2384 43.6958C81.462 44.5142 80.6932 45.3246 79.9515 46.1129C77.8058 48.3936 75.8595 50.5148 74.4562 52.2411C73.7516 53.108 73.2318 53.8174 72.9003 54.3591C72.7529 54.6 72.666 54.7701 72.6194 54.877V55.5695C72.6548 55.6473 72.7416 55.8305 72.9359 56.1407C73.2833 56.6952 73.8159 57.4128 74.5266 58.2815C75.9431 60.013 77.8901 62.1322 80.0279 64.406C80.7289 65.1516 81.4536 65.9166 82.1854 66.6893C85.8056 70.5114 89.6017 74.5194 91.5844 77.2747Z" fill="#B70F90" fill-opacity="0.15"/>
<path d="M27.6607 81.4727C29.8007 82.2931 31.9869 83.1811 34.2068 84.115C34.2619 83.8541 34.3181 83.5966 34.3756 83.3432C34.6467 82.1481 34.9528 81.0074 35.3003 80.0079C35.6359 79.0423 36.061 78.0566 36.6255 77.273L36.6273 77.2706C38.6023 74.5363 42.3693 70.5649 45.9722 66.7665C46.748 65.9487 47.5161 65.1389 48.2571 64.3512C50.4029 62.0701 52.3492 59.9487 53.7525 58.2223C54.4571 57.3554 54.6685 57.0417 55 56.5C55.1474 56.2591 54.9533 56.6069 55 56.5L55.5 55.5C55.5 55.5 55.6931 54.8102 55.5 54.5C55.1554 53.9465 54.402 53.0499 53.6934 52.1812C52.2814 50.4503 50.3377 48.3314 48.2013 46.0582C47.4658 45.2756 46.7042 44.4717 45.9354 43.6602C42.3485 39.8741 38.6054 35.9231 36.6306 33.2024L36.6234 33.1924C35.6146 31.7879 34.914 29.652 34.3934 27.6113C33.8467 25.4685 33.4077 23.0417 33.0658 20.7893C33.0285 20.5438 32.9923 20.2998 32.9572 20.058C27.7846 22.1517 22.8602 25.1593 18.1612 29.4727C1.06536 45.1655 -8.33929 67.6721 27.6607 81.4727Z" fill="#B70F90" fill-opacity="0.15"/>
<path d="M72.5841 54.9684C72.5841 54.9684 72.5851 54.964 72.5884 54.9543C72.5859 54.9634 72.5841 54.9684 72.5841 54.9684Z" fill="#B70F90" fill-opacity="0.15"/>
<path d="M96.0823 10.9248L32.0318 10.9248C30.672 10.9248 29.5696 9.82245 29.5696 8.46262C29.5696 7.10279 30.672 6.00043 32.0318 6.00043L96.0823 6.00043C97.4421 6.00043 98.5444 7.10279 98.5444 8.46262C98.5444 9.82245 97.4421 10.9248 96.0823 10.9248Z" stroke="#BABABA" stroke-width="2"/>
<path d="M96.0823 106.925L32.0318 106.925C30.672 106.925 29.5696 105.822 29.5696 104.463C29.5696 103.103 30.672 102 32.0318 102L96.0823 102C97.4421 102 98.5444 103.103 98.5444 104.463C98.5444 105.822 97.4421 106.925 96.0823 106.925Z" stroke="#BABABA" stroke-width="2"/>
<path d="M64.5572 60C64.5572 54.2452 64.9375 52.6447 65.3719 51.8087C65.4831 51.5947 65.6627 51.432 65.852 51.2824C67.3257 50.1173 71.848 45.3985 74.9443 42.1835C75.8984 41.1927 75.1859 39.5 73.8104 39.5H55.8039C54.4284 39.5 53.716 41.1925 54.6703 42.1831C57.7767 45.4076 62.3203 50.1468 63.7777 51.2938C63.9582 51.4358 64.1334 51.5869 64.2241 51.7979C64.5809 52.6281 64.5572 54.1936 64.5572 60Z" fill="#AB22AF"/>
<path d="M60.646 74.4261C55.7668 76.1678 43.8026 91.9715 39.3047 98.0932C38.5642 99.1011 39.2915 100.5 40.5422 100.5H88.0769C89.3267 100.5 90.0553 99.1048 89.316 98.0971C84.9986 92.2116 73.7667 77.3602 68.4655 74.6897C68.3841 74.6487 68.312 74.6051 68.2367 74.5539C65.6119 72.7662 62.0947 73.7161 60.646 74.4261Z" fill="#AB22AF"/>
<path d="M64.5572 60C64.5572 54.2452 64.9375 52.6447 65.3719 51.8087C65.4831 51.5947 65.6627 51.432 65.852 51.2824C67.3257 50.1173 71.848 45.3985 74.9443 42.1835C75.8984 41.1927 75.1859 39.5 73.8104 39.5H55.8039C54.4284 39.5 53.716 41.1925 54.6703 42.1831C57.7767 45.4076 62.3203 50.1468 63.7777 51.2938C63.9582 51.4358 64.1334 51.5869 64.2241 51.7979C64.5809 52.6281 64.5572 54.1936 64.5572 60ZM64.5572 60C64.5572 61.0264 64.5509 61.0221 64.5572 60ZM64.5572 64V66M60.646 74.4261C55.7668 76.1678 43.8026 91.9715 39.3047 98.0932C38.5642 99.1011 39.2915 100.5 40.5422 100.5H88.0769C89.3267 100.5 90.0553 99.1048 89.316 98.0971C84.9986 92.2116 73.7667 77.3602 68.4655 74.6897C68.3841 74.6487 68.312 74.6051 68.2367 74.5539C65.6119 72.7662 62.0947 73.7161 60.646 74.4261Z" stroke="#AB22AF" stroke-width="1.5" stroke-linecap="round" stroke-linejoin="round"/>
<path d="M91.3667 78.1503L91.3666 78.1501C89.4495 75.486 85.7495 71.5787 82.1259 67.7522C81.3873 66.9721 80.6517 66.1954 79.9351 65.4332C77.7979 63.1601 75.8186 61.007 74.3657 59.2311C73.6382 58.3419 73.0606 57.5687 72.6647 56.9367C72.2566 56.285 72.1344 55.9243 72.1194 55.794V54.6727C72.1194 54.6731 72.1197 54.6467 72.1341 54.587C72.1484 54.5284 72.1733 54.4496 72.2142 54.3489C72.297 54.1451 72.4299 53.8879 72.6209 53.5759C73.003 52.9515 73.5705 52.1828 74.2923 51.2948C75.7335 49.5217 77.7138 47.365 79.8591 45.0848C80.6208 44.2752 81.4046 43.4488 82.1915 42.6192C85.7921 38.8231 89.4572 34.9591 91.3653 32.3195L91.3666 32.3177C92.1972 31.1634 92.8449 29.2747 93.3641 27.2404C93.8937 25.1652 94.3239 22.7926 94.6619 20.5638C95.0004 18.3317 95.249 16.2265 95.4129 14.6805C95.4949 13.907 95.5558 13.2724 95.5963 12.8305C95.6166 12.6095 95.6317 12.4366 95.6418 12.3186L95.6532 12.1836L95.6561 12.1484L95.6569 12.1393L95.6571 12.1368L95.6571 12.1361C95.6571 12.1359 95.6572 12.1358 94.6604 12.0557L95.6572 12.1358L95.744 11.0557H94.6604H33.5485H32.4645L32.5517 12.1361L33.5485 12.0557C32.5517 12.1361 32.5517 12.1362 32.5517 12.1364L32.5518 12.1371L32.552 12.1396L32.5527 12.1488L32.5556 12.1839L32.5671 12.3189C32.5772 12.4369 32.5924 12.6098 32.6127 12.8308C32.6533 13.2727 32.7145 13.9073 32.7967 14.6807C32.961 16.2268 33.2101 18.3319 33.5489 20.5639C33.8872 22.7927 34.3175 25.1652 34.8469 27.2403C35.3658 29.2745 36.0127 31.1629 36.8417 32.317L36.8446 32.321C38.7553 34.9534 42.4033 38.8049 45.9908 42.5924C46.7676 43.4125 47.5415 44.2296 48.2944 45.0307C50.4305 47.3036 52.4069 49.4567 53.8558 51.2328C54.5812 52.1222 55.1565 52.8953 55.5499 53.5272C55.9577 54.1822 56.0763 54.5422 56.0894 54.6695V55.7901C56.0894 55.7897 56.0891 55.8161 56.0747 55.8758C56.0605 55.9344 56.0355 56.0132 55.9946 56.1139C55.9119 56.3177 55.7789 56.5749 55.588 56.8869C55.2058 57.5114 54.6383 58.2801 53.9165 59.1681C52.4753 60.9413 50.495 63.0981 48.3497 65.3787C47.5908 66.1855 46.8099 67.0089 46.0258 67.8357C42.4225 71.6354 38.753 75.5048 36.8433 78.1487L36.8426 78.1497C36.4037 78.7589 36.0353 79.5849 35.7172 80.5002C35.3943 81.429 35.1024 82.5117 34.8385 83.6749C34.3107 86.0015 33.8816 88.711 33.5442 91.2767C33.2063 93.846 32.9581 96.2888 32.7945 98.0881C32.7126 98.9882 32.6518 99.7282 32.6114 100.244C32.5912 100.502 32.5761 100.703 32.566 100.841L32.5547 100.999L32.5518 101.039L32.5511 101.05L32.5509 101.053L32.5508 101.053C32.5508 101.054 32.5508 101.054 33.5485 101.122L32.5508 101.054L32.4776 102.122H33.5485H94.6604H95.7315L95.658 101.054L94.6604 101.122C95.658 101.054 95.658 101.053 95.658 101.053L95.6579 101.052L95.6577 101.05L95.657 101.039L95.6541 100.998L95.6427 100.841C95.6326 100.703 95.6175 100.501 95.5972 100.244C95.5567 99.728 95.4957 98.9879 95.4136 98.0879C95.2496 96.2886 95.0009 93.8458 94.6627 91.2766C94.325 88.7109 93.8958 86.0015 93.3682 83.6749C93.1045 82.5118 92.8128 81.4292 92.4903 80.5005C92.1726 79.5853 91.8048 78.7594 91.3667 78.1503Z" stroke="#BABABA" stroke-width="2"/>
</svg>
