<svg width="32" height="24" viewBox="0 0 32 24" fill="none" xmlns="http://www.w3.org/2000/svg">
<rect width="32" height="24" rx="8" fill="black" fill-opacity="0.5"/>
<path fill-rule="evenodd" clip-rule="evenodd" d="M16.6667 7.33334C16.6667 7.07006 16.5117 6.83145 16.2712 6.72434C16.0307 6.61723 15.7497 6.66169 15.554 6.83781L12.7812 9.33334H10.6667C10.2985 9.33334 10 9.63181 10 10V14C10 14.3682 10.2985 14.6667 10.6667 14.6667H12.7812L15.554 17.1622C15.7497 17.3383 16.0307 17.3828 16.2712 17.2757C16.5117 17.1686 16.6667 16.9299 16.6667 16.6667V7.33334ZM13.483 10.4955L15.3333 8.83024V15.1698L13.483 13.5045C13.3606 13.3943 13.2017 13.3333 13.037 13.3333H11.3333V10.6667H13.037C13.2017 10.6667 13.3606 10.6057 13.483 10.4955Z" fill="white"/>
<path d="M22.1953 9.5286C22.4556 9.26825 22.8777 9.26825 23.1381 9.5286C23.3984 9.78895 23.3984 10.2111 23.1381 10.4714L21.6095 12L23.1381 13.5286C23.3984 13.7889 23.3984 14.2111 23.1381 14.4714C22.8777 14.7318 22.4556 14.7318 22.1953 14.4714L20.6667 12.9428L19.1381 14.4714C18.8777 14.7318 18.4556 14.7318 18.1953 14.4714C17.9349 14.2111 17.9349 13.7889 18.1953 13.5286L19.7239 12L18.1953 10.4714C17.9349 10.2111 17.9349 9.78895 18.1953 9.5286C18.4556 9.26825 18.8777 9.26825 19.1381 9.5286L20.6667 11.0572L22.1953 9.5286Z" fill="white"/>
</svg>
