<svg width="32" height="24" viewBox="0 0 32 24" fill="none" xmlns="http://www.w3.org/2000/svg">
<rect width="32" height="24" rx="8" fill="black" fill-opacity="0.5"/>
<path d="M20.3473 6.92273C20.1206 6.63266 19.7016 6.58134 19.4115 6.8081C19.1214 7.03487 19.0701 7.45385 19.2969 7.74392C20.1624 8.8511 20.6667 10.3806 20.6667 12C20.6667 13.6194 20.1624 15.1489 19.2969 16.2561C19.0701 16.5461 19.1214 16.9651 19.4115 17.1919C19.7016 17.4186 20.1206 17.3673 20.3473 17.0772C21.4171 15.7088 22 13.8811 22 12C22 10.1188 21.4171 8.29116 20.3473 6.92273Z" fill="white"/>
<path d="M18.5253 9.25276C18.2985 8.96269 17.8795 8.91137 17.5894 9.13813C17.2994 9.3649 17.2481 9.78388 17.4748 10.0739C17.8565 10.5622 18.089 11.2524 18.089 11.9967C18.089 12.7409 17.8565 13.4312 17.4748 13.9194C17.2481 14.2095 17.2994 14.6285 17.5894 14.8552C17.8795 15.082 18.2985 15.0307 18.5253 14.7406C19.1112 13.9911 19.4223 13.0027 19.4223 11.9967C19.4223 10.9907 19.1112 10.0023 18.5253 9.25276Z" fill="white"/>
<path fill-rule="evenodd" clip-rule="evenodd" d="M16 7.33332C16 7.07005 15.8451 6.83143 15.6046 6.72432C15.3641 6.61721 15.0831 6.66167 14.8874 6.83779L12.1146 9.33332H10C9.63185 9.33332 9.33337 9.6318 9.33337 9.99999V14C9.33337 14.3682 9.63185 14.6667 10 14.6667H12.1146L14.8874 17.1622C15.0831 17.3383 15.3641 17.3828 15.6046 17.2757C15.8451 17.1685 16 16.9299 16 16.6667V7.33332ZM12.8164 10.4955L14.6667 8.83023V15.1697L12.8164 13.5045C12.694 13.3943 12.5351 13.3333 12.3704 13.3333H10.6667V10.6667H12.3704C12.5351 10.6667 12.694 10.6057 12.8164 10.4955Z" fill="white"/>
</svg>
