<svg width="24" height="24" viewBox="0 0 24 24" fill="none" xmlns="http://www.w3.org/2000/svg">
    <path d="M2.5 9.5C2.17555 10.485 2 10.9064 2 12C2 17.5228 6.47715 22 12 22C17.5228 22 22 17.5228 22 12C22 6.47715 17.5228 2 12 2C10.5778 2 9 2.50001 9 2.50001M2.5 9.5C6.5 10.6312 9.5 6.16792 9 2.50001M2.5 9.5L9 2.50001" stroke="white" stroke-width="2" stroke-linecap="round" stroke-linejoin="round"/>
    <path d="M15.3831 9.61885C15.1876 9.42266 14.9556 9.26702 14.7001 9.16084C14.4447 9.05465 14.1709 9 13.8944 9C13.6178 9 13.344 9.05465 13.0886 9.16084C12.8331 9.26702 12.6011 9.42266 12.4056 9.61885L11.9999 10.0258L11.5942 9.61885C11.1994 9.22274 10.6638 9.00021 10.1054 9.00021C9.54705 9.00021 9.01152 9.22274 8.61667 9.61885C8.22182 10.015 8 10.5522 8 11.1124C8 11.6726 8.22182 12.2098 8.61667 12.6059L9.02235 13.0129L11.9999 16L14.9774 13.0129L15.3831 12.6059C15.5787 12.4098 15.7338 12.177 15.8397 11.9207C15.9455 11.6645 16 11.3898 16 11.1124C16 10.835 15.9455 10.5603 15.8397 10.3041C15.7338 10.0478 15.5787 9.81495 15.3831 9.61885V9.61885Z" stroke="white" stroke-width="2" stroke-linecap="round" stroke-linejoin="round"/>
</svg>
