<svg width="27" height="27" viewBox="0 0 27 27" fill="none" xmlns="http://www.w3.org/2000/svg">
    <path d="M17.4105 3.83944C8.23649 -1.46056 5.23349 0.467435 4.55649 0.855435C3.80249 1.28843 0.656494 3.00044 0.656494 13.5134C0.656494 24.1134 3.91549 25.7884 4.55649 26.1624C5.13449 26.4984 8.2365 28.4864 17.4115 23.1874C26.6115 17.8764 26.6115 14.5744 26.6115 13.5134C26.6115 12.4524 26.6055 9.15044 17.4105 3.83944ZM11.8745 21.4074C10.3104 21.4074 8.78143 20.9436 7.48094 20.0746C6.18046 19.2056 5.16687 17.9705 4.56836 16.5255C3.96985 15.0804 3.8133 13.4903 4.11852 11.9563C4.42373 10.4223 5.177 9.01319 6.28305 7.90728C7.3891 6.80137 8.79827 6.04828 10.3323 5.74326C11.8664 5.43824 13.4565 5.59499 14.9014 6.19368C16.3464 6.79237 17.5814 7.80612 18.4502 9.10671C19.3191 10.4073 19.7827 11.9363 19.7825 13.5004C19.7822 15.5976 18.949 17.6088 17.4659 19.0916C15.9829 20.5744 13.9717 21.4074 11.8745 21.4074Z" fill="#B70F90"/>
    <path d="M16.6295 11.9774C16.6021 11.8989 16.5537 11.8293 16.4895 11.7764C16.4253 11.7235 16.3478 11.6893 16.2655 11.6774L13.3655 11.2344L12.0655 8.4624C12.029 8.38406 11.9708 8.31777 11.8979 8.27132C11.825 8.22487 11.7404 8.2002 11.654 8.2002C11.5675 8.2002 11.4829 8.22487 11.41 8.27132C11.3371 8.31777 11.279 8.38406 11.2425 8.4624L9.94247 11.2344L7.04247 11.6774C6.95968 11.6898 6.88193 11.7248 6.81779 11.7786C6.75365 11.8323 6.70563 11.9028 6.67904 11.9822C6.65245 12.0616 6.64831 12.1467 6.66709 12.2283C6.68588 12.3099 6.72685 12.3847 6.78547 12.4444L8.89647 14.6034L8.39647 17.6654C8.38272 17.7494 8.39289 17.8357 8.42581 17.9142C8.45873 17.9927 8.51307 18.0604 8.58264 18.1095C8.6522 18.1587 8.73417 18.1872 8.8192 18.192C8.90423 18.1967 8.98887 18.1775 9.06347 18.1364L11.6565 16.7054L14.2465 18.1364C14.3211 18.178 14.406 18.1978 14.4914 18.1933C14.5767 18.1888 14.6591 18.1603 14.729 18.1111C14.7989 18.0619 14.8535 17.994 14.8864 17.9151C14.9194 17.8363 14.9295 17.7497 14.9155 17.6654L14.4155 14.6034L16.5275 12.4384C16.585 12.378 16.6247 12.3029 16.6423 12.2214C16.66 12.1399 16.6548 12.0552 16.6275 11.9764L16.6295 11.9774Z" fill="#B70F90"/>
</svg>
