<svg width="24" height="17" viewBox="0 0 24 17" fill="none" xmlns="http://www.w3.org/2000/svg">
    <path d="M11.9999 16.3002C5.84989 16.3002 1.12489 9.4002 0.89989 9.1002C0.67489 8.8002 0.67489 8.3502 0.89989 8.0502C1.12489 7.7502 5.84989 0.700195 11.9999 0.700195C18.1499 0.700195 22.8749 7.7502 23.0999 8.0502C23.3249 8.3502 23.3249 8.8002 23.0999 9.1002C22.8749 9.4002 18.1499 16.3002 11.9999 16.3002ZM2.92489 8.5752C4.12489 10.0752 7.79989 14.3502 11.9999 14.3502C16.1999 14.3502 19.9499 10.0752 21.0749 8.5752C19.8749 7.0002 16.1999 2.5752 11.9999 2.5752C7.79989 2.5752 4.04989 7.0002 2.92489 8.5752Z" fill="white" />
    <path d="M11.9998 13.2254C9.37478 13.2254 7.27478 11.1254 7.27478 8.5004C7.27478 5.87539 9.37478 3.77539 11.9998 3.77539C14.6248 3.77539 16.7248 5.87539 16.7248 8.5004C16.7248 11.1254 14.6248 13.2254 11.9998 13.2254ZM11.9998 5.65039C10.4248 5.65039 9.14978 6.9254 9.14978 8.5004C9.14978 10.0754 10.4248 11.3504 11.9998 11.3504C13.5748 11.3504 14.8498 10.0754 14.8498 8.5004C14.8498 6.9254 13.5748 5.65039 11.9998 5.65039Z" fill="white" />
</svg>
    