<svg width="70" height="70" viewBox="0 0 70 70" fill="none" xmlns="http://www.w3.org/2000/svg">
<mask id="path-1-inside-1_2656_122247" fill="white">
<path d="M70 35C70 54.33 54.33 70 35 70C15.67 70 0 54.33 0 35C0 15.67 15.67 0 35 0C54.33 0 70 15.67 70 35ZM4.20959 35C4.20959 52.0051 17.9949 65.7904 35 65.7904C52.0051 65.7904 65.7904 52.0051 65.7904 35C65.7904 17.9949 52.0051 4.20959 35 4.20959C17.9949 4.20959 4.20959 17.9949 4.20959 35Z"/>
</mask>
<path d="M70 35C70 54.33 54.33 70 35 70C15.67 70 0 54.33 0 35C0 15.67 15.67 0 35 0C54.33 0 70 15.67 70 35ZM4.20959 35C4.20959 52.0051 17.9949 65.7904 35 65.7904C52.0051 65.7904 65.7904 52.0051 65.7904 35C65.7904 17.9949 52.0051 4.20959 35 4.20959C17.9949 4.20959 4.20959 17.9949 4.20959 35Z" stroke="white" stroke-width="8" mask="url(#path-1-inside-1_2656_122247)"/>
<circle cx="35.5" cy="34.5" r="27.5" fill="white"/>
<path d="M26.4555 25.4555C27.0412 24.8696 27.0411 23.9199 26.4552 23.3342C25.8694 22.7485 24.9196 22.7486 24.3339 23.3345C21.2406 26.4287 19.5029 30.6248 19.5029 35C19.5029 39.3752 21.2406 43.5713 24.3339 46.6655C24.9196 47.2514 25.8694 47.2515 26.4552 46.6658C27.0411 46.0801 27.0412 45.1304 26.4555 44.5445C23.9247 42.0129 22.5029 38.5797 22.5029 35C22.5029 31.4203 23.9247 27.9871 26.4555 25.4555Z" fill="#E11900"/>
<path d="M47.6655 23.3345C47.0798 22.7486 46.1301 22.7485 45.5442 23.3342C44.9583 23.9199 44.9582 24.8696 45.5439 25.4555C48.0748 27.9871 49.4965 31.4203 49.4965 35C49.4965 38.5797 48.0748 42.0129 45.5439 44.5445C44.9582 45.1304 44.9583 46.0801 45.5442 46.6658C46.1301 47.2515 47.0798 47.2514 47.6655 46.6655C50.7588 43.5713 52.4965 39.3752 52.4965 35C52.4965 30.6248 50.7588 26.4287 47.6655 23.3345Z" fill="#E11900"/>
<path d="M30.6998 29.6862C31.2859 29.1008 31.2864 28.151 30.701 27.5649C30.1155 26.9788 29.1658 26.9783 28.5797 27.5637C27.6034 28.5389 26.8289 29.6969 26.3005 30.9716C25.7721 32.2463 25.5001 33.6126 25.5001 34.9925C25.5001 36.3724 25.7721 37.7387 26.3005 39.0134C26.8289 40.288 27.6034 41.4461 28.5797 42.4212C29.1658 43.0067 30.1155 43.0062 30.701 42.4201C31.2864 41.8339 31.2859 40.8842 30.6998 40.2987C30.0025 39.6022 29.4493 38.775 29.0718 37.8645C28.6944 36.9541 28.5001 35.9781 28.5001 34.9925C28.5001 34.0069 28.6944 33.0309 29.0718 32.1204C29.4493 31.21 30.0025 30.3828 30.6998 29.6862Z" fill="#E11900"/>
<path d="M43.4198 27.5787C42.8337 26.9933 41.8839 26.9938 41.2985 27.5799C40.713 28.166 40.7135 29.1158 41.2997 29.7012C41.997 30.3978 42.5502 31.225 42.9276 32.1354C43.305 33.0459 43.4993 34.0219 43.4993 35.0075C43.4993 35.9931 43.305 36.9691 42.9276 37.8795C42.5502 38.79 41.997 39.6172 41.2997 40.3137C40.7135 40.8992 40.713 41.8489 41.2985 42.4351C41.8839 43.0212 42.8337 43.0217 43.4198 42.4362C44.396 41.4611 45.1705 40.303 45.6989 39.0284C46.2273 37.7537 46.4993 36.3874 46.4993 35.0075C46.4993 33.6276 46.2273 32.2613 45.6989 30.9866C45.1705 29.7119 44.396 28.5539 43.4198 27.5787Z" fill="#E11900"/>
<path d="M31.4998 35C31.4998 32.5147 33.5145 30.5 35.9998 30.5C38.4851 30.5 40.4998 32.5147 40.4998 35C40.4998 37.4853 38.4851 39.5 35.9998 39.5C33.5145 39.5 31.4998 37.4853 31.4998 35Z" fill="#E11900"/>
</svg>
