<svg width="16" height="16" viewBox="0 0 16 16" fill="none" xmlns="http://www.w3.org/2000/svg">
<path d="M12 1.33337H4C2.89333 1.33337 2 2.22004 2 3.31337V10.5867C2 11.68 2.89333 12.5667 4 12.5667H4.50667C5.04 12.5667 5.54667 12.7734 5.92 13.1467L7.06 14.2734C7.58 14.7867 8.42667 14.7867 8.94667 14.2734L10.0867 13.1467C10.46 12.7734 10.9733 12.5667 11.5 12.5667H12C13.1067 12.5667 14 11.68 14 10.5867V3.31337C14 2.22004 13.1067 1.33337 12 1.33337Z" fill="white"/>
<path d="M7.99995 3.83337C8.85995 3.83337 9.55328 4.52671 9.55328 5.38671C9.55328 6.24671 8.85995 6.94004 7.99995 6.94004C7.13995 6.94004 6.44661 6.24004 6.44661 5.38671C6.44661 4.52671 7.13995 3.83337 7.99995 3.83337ZM9.78661 10.04H6.21328C5.67328 10.04 5.35995 9.44004 5.65995 8.99337C6.11328 8.32004 6.99328 7.86671 7.99995 7.86671C9.00661 7.86671 9.88661 8.32004 10.3399 8.99337C10.6399 9.44004 10.3199 10.04 9.78661 10.04Z" fill="#3F3F3F"/>
</svg>
