<svg width="16" height="16" viewBox="0 0 16 16" fill="none" xmlns="http://www.w3.org/2000/svg">
<path d="M12 1.33301H4C2.89333 1.33301 2 2.21967 2 3.31301V10.5863C2 11.6797 2.89333 12.5663 4 12.5663H4.50667C5.04 12.5663 5.54667 12.773 5.92 13.1463L7.06 14.273C7.58 14.7863 8.42667 14.7863 8.94667 14.273L10.0867 13.1463C10.46 12.773 10.9733 12.5663 11.5 12.5663H12C13.1067 12.5663 14 11.6797 14 10.5863V3.31301C14 2.21967 13.1067 1.33301 12 1.33301Z" fill="#3F3F3F"/>
<path d="M7.99995 3.83301C8.85995 3.83301 9.55328 4.52634 9.55328 5.38634C9.55328 6.24634 8.85995 6.93967 7.99995 6.93967C7.13995 6.93967 6.44661 6.23967 6.44661 5.38634C6.44661 4.52634 7.13995 3.83301 7.99995 3.83301ZM9.78661 10.0397H6.21328C5.67328 10.0397 5.35995 9.43967 5.65995 8.99301C6.11328 8.31967 6.99328 7.86634 7.99995 7.86634C9.00661 7.86634 9.88661 8.31967 10.3399 8.99301C10.6399 9.43967 10.3199 10.0397 9.78661 10.0397Z" fill="white"/>
</svg>
