<svg width="20" height="22" viewBox="0 0 20 22" fill="none" xmlns="http://www.w3.org/2000/svg">
<path fill-rule="evenodd" clip-rule="evenodd" d="M10 2C8.93913 2 7.92172 2.42143 7.17157 3.17157C6.42143 3.92172 6 4.93913 6 6V9H14V6C14 4.93913 13.5786 3.92172 12.8284 3.17157C12.0783 2.42143 11.0609 2 10 2ZM16 9V6C16 4.4087 15.3679 2.88258 14.2426 1.75736C13.1174 0.632141 11.5913 0 10 0C8.4087 0 6.88258 0.632141 5.75736 1.75736C4.63214 2.88258 4 4.4087 4 6V9H3C1.34315 9 0 10.3431 0 12V19C0 20.6569 1.34315 22 3 22H17C18.6569 22 20 20.6569 20 19V12C20 10.3431 18.6569 9 17 9H16ZM3 11C2.44772 11 2 11.4477 2 12V19C2 19.5523 2.44772 20 3 20H17C17.5523 20 18 19.5523 18 19V12C18 11.4477 17.5523 11 17 11H3Z" fill="white"/>
</svg>
