<svg width="20" height="20" viewBox="0 0 20 20" fill="none" xmlns="http://www.w3.org/2000/svg">
    <rect x="1" y="1" width="18" height="18" rx="6" stroke="#DDDDDD" stroke-width="2" />
    <path d="M14.4446 15V13.8888C14.4446 13.2995 14.2104 12.7342 13.7937 12.3175C13.3769 11.9008 12.8117 11.6666 12.2223 11.6666H7.77789C7.18852 11.6666 6.62329 11.9008 6.20654 12.3175C5.78979 12.7342 5.55566 13.2995 5.55566 13.8888V15" stroke="#DDDDDD" stroke-width="2" stroke-linecap="round" stroke-linejoin="round" />
    <path d="M9.99957 9.44444C11.2269 9.44444 12.2218 8.44952 12.2218 7.22222C12.2218 5.99492 11.2269 5 9.99957 5C8.77227 5 7.77734 5.99492 7.77734 7.22222C7.77734 8.44952 8.77227 9.44444 9.99957 9.44444Z" stroke="#DDDDDD" stroke-width="2" stroke-linecap="round" stroke-linejoin="round" />
</svg>
    