<svg width="20" height="17" viewBox="0 0 20 17" fill="none" xmlns="http://www.w3.org/2000/svg">
<path d="M13 1.5V3.5M13 7.5V9.5M13 13.5V15.5M3 1.5C2.46957 1.5 1.96086 1.71071 1.58579 2.08579C1.21071 2.46086 1 2.96957 1 3.5V6.5C1.53043 6.5 2.03914 6.71071 2.41421 7.08579C2.78929 7.46086 3 7.96957 3 8.5C3 9.03043 2.78929 9.53914 2.41421 9.91421C2.03914 10.2893 1.53043 10.5 1 10.5V13.5C1 14.0304 1.21071 14.5391 1.58579 14.9142C1.96086 15.2893 2.46957 15.5 3 15.5H17C17.5304 15.5 18.0391 15.2893 18.4142 14.9142C18.7893 14.5391 19 14.0304 19 13.5V10.5C18.4696 10.5 17.9609 10.2893 17.5858 9.91421C17.2107 9.53914 17 9.03043 17 8.5C17 7.96957 17.2107 7.46086 17.5858 7.08579C17.9609 6.71071 18.4696 6.5 19 6.5V3.5C19 2.96957 18.7893 2.46086 18.4142 2.08579C18.0391 1.71071 17.5304 1.5 17 1.5H3Z" stroke="#717171" stroke-width="2" stroke-linecap="round" stroke-linejoin="round"/>
</svg>
