<svg width="21" height="21" viewBox="0 0 21 21" fill="none" xmlns="http://www.w3.org/2000/svg">
<path d="M5.5 14.9998C5.5 14.4475 5.05228 13.9998 4.5 13.9998C3.94772 13.9998 3.5 14.4475 3.5 14.9998V16.4998C3.5 17.052 3.94772 17.4998 4.5 17.4998H6.5C7.05228 17.4998 7.5 17.052 7.5 16.4998C7.5 15.9475 7.05228 15.4998 6.5 15.4998H5.5V14.9998Z" fill="#3F3F3F"/>
<path fill-rule="evenodd" clip-rule="evenodd" d="M11.5944 1.65596C12.2845 0.793434 13.543 0.65359 14.4056 1.34361L17.7523 4.02096C18.2255 4.39959 18.4781 4.94463 18.5011 5.49978H19C20.1046 5.49978 21 6.39521 21 7.49978V15.9998C21 17.1044 20.1046 17.9998 19 17.9998H9.58394C8.81238 19.7657 7.05031 20.9998 5 20.9998C2.23858 20.9998 0 18.7612 0 15.9998C0 13.9494 1.2341 12.1874 3 11.4158V7.49978C3 6.39521 3.89543 5.49978 5 5.49978H5.5L7.6 2.69978C8.26274 1.81613 9.51634 1.63704 10.4 2.29978L10.8246 2.61824L11.5944 1.65596ZM19 15.9998H10C10 13.2384 7.76142 10.9998 5 10.9998V7.49978H19V8.99978H15.5C14.3954 8.99978 13.5 9.89521 13.5 10.9998V12.4998C13.5 13.6044 14.3954 14.4998 15.5 14.4998H19V15.9998ZM5 12.9998H4.98698C3.33612 13.0068 2 14.3472 2 15.9998C2 17.6566 3.34315 18.9998 5 18.9998C6.65685 18.9998 8 17.6566 8 15.9998C8 14.3429 6.65685 12.9998 5 12.9998ZM9.57461 4.18074L9.2 3.89978L8 5.49978H8.51937L9.57461 4.18074ZM11.0806 5.49978H16.3992L13.1562 2.90535L11.0806 5.49978ZM19 10.9998H15.5V12.4998H19V10.9998Z" fill="#3F3F3F"/>
</svg>
