<svg width="18" height="16" viewBox="0 0 18 16" fill="none" xmlns="http://www.w3.org/2000/svg">
<path d="M14 5.69954V1.53288H4.00002C2.57342 1.53288 1.64174 2.20697 1.55189 3.36446M14 5.69954H16.5V8.19954M14 5.69954C12.0123 5.69954 6.91667 5.69954 4.00002 5.69954C1.50004 5.69954 1.5 4.03288 1.55189 3.36446M1.55189 3.36446C1.5173 3.56997 1.5 3.79278 1.5 4.03288V13.1995C1.5 13.6416 1.77437 14.0655 2.26274 14.3781C2.75112 14.6906 3.4135 14.8662 4.10417 14.8662H13.1667H16.5V11.5329M16.5 8.19954C15.6667 8.19954 14 8.19954 14 9.86621C14 11.5329 15.6667 11.5329 16.5 11.5329M16.5 8.19954V11.5329" stroke="#717171" stroke-width="2" stroke-linecap="round" stroke-linejoin="round"/>
</svg>
