<svg width="32" height="32" viewBox="0 0 32 32" fill="none" xmlns="http://www.w3.org/2000/svg">
<path d="M1.96781 8.73748L12.8991 27.7212C13.2157 28.2627 13.6686 28.7119 14.2126 29.024C14.7567 29.3361 15.3731 29.5004 16.0003 29.5004C16.6276 29.5004 17.2439 29.3361 17.788 29.024C18.3321 28.7119 18.7849 28.2627 19.1016 27.7212L30.0328 8.73748C30.34 8.21202 30.502 7.61429 30.502 7.00561C30.502 6.39692 30.34 5.7992 30.0328 5.27374C29.7197 4.72955 29.2674 4.27847 28.7225 3.96676C28.1775 3.65506 27.5594 3.49396 26.9316 3.49998L5.06906 3.49998C4.44168 3.4944 3.82409 3.65571 3.27958 3.9674C2.73507 4.27908 2.28321 4.72992 1.97031 5.27374C1.66271 5.79897 1.50036 6.39659 1.49992 7.00527C1.49948 7.61396 1.66096 8.2118 1.96781 8.73748ZM4.56781 6.77498C4.61865 6.68835 4.69195 6.61707 4.77996 6.56866C4.86797 6.52026 4.96742 6.49653 5.06781 6.49998L26.9316 6.49998C27.0319 6.49653 27.1314 6.52026 27.2194 6.56866C27.3074 6.61707 27.3807 6.68835 27.4316 6.77498C27.4747 6.8451 27.4975 6.9258 27.4975 7.00811C27.4975 7.09042 27.4747 7.17112 27.4316 7.24123L16.5003 26.225C16.4466 26.3089 16.3727 26.3779 16.2853 26.4257C16.1979 26.4735 16.0999 26.4985 16.0003 26.4985C15.9007 26.4985 15.8027 26.4735 15.7153 26.4257C15.628 26.3779 15.554 26.3089 15.5003 26.225L4.56906 7.24123C4.52575 7.17124 4.5027 7.0906 4.50248 7.00829C4.50226 6.92598 4.52488 6.84521 4.56781 6.77498Z" fill="#D9DDE3"/>
</svg>
