<svg width="32" height="32" viewBox="0 0 32 32" fill="none" xmlns="http://www.w3.org/2000/svg">
<path d="M30.0322 23.2625L19.1009 4.27877C18.7843 3.73728 18.3314 3.28813 17.7874 2.976C17.2433 2.66387 16.6269 2.49963 15.9997 2.49963C15.3724 2.49963 14.7561 2.66387 14.212 2.976C13.6679 3.28813 13.2151 3.73728 12.8984 4.27877L1.96719 23.2625C1.65996 23.788 1.49805 24.3857 1.49805 24.9944C1.49805 25.6031 1.65996 26.2008 1.96719 26.7263C2.2803 27.2704 2.73255 27.7215 3.27754 28.0332C3.82253 28.3449 4.44063 28.506 5.06844 28.5H26.9309C27.5583 28.5056 28.1759 28.3443 28.7204 28.0326C29.2649 27.7209 29.7168 27.2701 30.0297 26.7263C30.3373 26.201 30.4996 25.6034 30.5001 24.9947C30.5005 24.386 30.339 23.7882 30.0322 23.2625ZM27.4322 25.225C27.3814 25.3116 27.3081 25.3829 27.22 25.4313C27.132 25.4797 27.0326 25.5035 26.9322 25.5H5.06844C4.96805 25.5035 4.8686 25.4797 4.78059 25.4313C4.69258 25.3829 4.61928 25.3116 4.56844 25.225C4.52532 25.1549 4.50249 25.0742 4.50249 24.9919C4.50249 24.9096 4.52532 24.8289 4.56844 24.7588L15.4997 5.77502C15.5534 5.69115 15.6273 5.62214 15.7147 5.57434C15.8021 5.52654 15.9001 5.50148 15.9997 5.50148C16.0993 5.50148 16.1973 5.52654 16.2847 5.57434C16.372 5.62214 16.446 5.69115 16.4997 5.77502L27.4309 24.7588C27.4742 24.8288 27.4973 24.9094 27.4975 24.9917C27.4977 25.074 27.4751 25.1548 27.4322 25.225Z" fill="#D9DDE3"/>
</svg>
