<svg width="86" height="73" viewBox="0 0 86 73" fill="none" xmlns="http://www.w3.org/2000/svg">
    <path d="M70.3288 39.7763C78.614 33.7378 80.6312 24.7745 77.0132 18.9129C68.7982 5.60367 32.0172 26.8777 20.7627 30.7069C17.8614 31.0107 15.9349 31.2813 18.2749 31.2813C18.837 31.2813 19.6822 31.0745 20.7627 30.7069C24.478 30.3178 29.7919 29.8741 29.7919 29.8741C29.7919 29.8741 32.6531 30.4887 12.096 37.4249C-2.4657 42.3381 -2.14889 66.7067 23.4134 60.6319C43.4574 55.8686 73.2827 74.4929 78.2815 60.6319C80.8993 53.373 65.3768 43.3854 70.3288 39.7763Z" fill="#B70F90" fill-opacity="0.15"/>
    <rect x="15.7152" y="21.8315" width="55.5686" height="38.0457" rx="11" fill="#1D2124"/>
    <path d="M60.292 21.8315H26.707C20.6621 21.8315 15.7152 26.7777 15.7152 32.8234V35.2225C15.7152 29.1768 20.6613 24.2306 26.707 24.2306H60.292C66.3377 24.2306 71.2838 29.1768 71.2838 35.2225V32.8234C71.283 26.7777 66.3369 21.8315 60.292 21.8315Z" fill="#1D2124"/>
    <path d="M26.7068 54.8058C23.6759 54.8058 21.2113 52.3404 21.2113 49.3103V32.8229C21.2113 29.7921 23.6767 27.3274 26.7068 27.3274H60.2917C63.3226 27.3274 65.7873 29.7929 65.7873 32.8229V49.3103C65.7873 52.3412 63.3218 54.8058 60.2917 54.8058H26.7068Z" fill="#1D2124"/>
    <path d="M43.4991 8.46157C45.059 8.46157 46.3236 7.19698 46.3236 5.63704C46.3236 4.07709 45.059 2.8125 43.4991 2.8125C41.9391 2.8125 40.6745 4.07709 40.6745 5.63704C40.6745 7.19698 41.9391 8.46157 43.4991 8.46157Z" fill="#B70F90"/>
    <path d="M46.3467 48.0036C46.3051 47.9508 45.3143 46.7072 43.499 46.7072C41.6501 46.7072 40.7104 47.926 40.6625 47.9884C40.4034 48.3426 39.9067 48.4226 39.5493 48.1651C39.191 47.9068 39.1102 47.407 39.3685 47.0487C39.4253 46.9695 40.7992 45.1078 43.4982 45.1078C46.1284 45.1078 47.5575 46.9551 47.6166 47.0335C47.8821 47.3838 47.8134 47.8804 47.4655 48.1483C47.1192 48.4138 46.617 48.3514 46.3467 48.0036Z" fill="#B70F90"/>
    <path d="M31.0707 38.0906C31.1101 38.1407 32.0505 39.3209 33.7734 39.3209C35.5281 39.3209 36.4199 38.1643 36.4654 38.1051C36.7113 37.7688 37.1826 37.6929 37.5219 37.9373C37.8619 38.1825 37.9386 38.6568 37.6934 38.9968C37.6395 39.072 36.3356 40.8388 33.7741 40.8388C31.2779 40.8388 29.9216 39.0856 29.8654 39.0113C29.6135 38.6788 29.6787 38.2075 30.0089 37.9533C30.3375 37.7013 30.8142 37.7605 31.0707 38.0906Z" fill="#B70F90"/>
    <path d="M49.8844 38.0906C49.9239 38.1407 50.8642 39.3209 52.5871 39.3209C54.3418 39.3209 55.2336 38.1643 55.2791 38.1051C55.525 37.7688 55.9963 37.6929 56.3356 37.9373C56.6756 38.1825 56.7523 38.6568 56.5071 38.9968C56.4532 39.072 55.1493 40.8388 52.5878 40.8388C50.0916 40.8388 48.7353 39.0856 48.6792 39.0113C48.4272 38.6788 48.4925 38.2075 48.8226 37.9533C49.1512 37.7013 49.6279 37.7605 49.8844 38.0906Z" fill="#B70F90"/>
    <path d="M72.0826 33.9897V32.823C72.0826 26.3214 66.7934 21.0314 60.2919 21.0314H50.3484C49.9806 17.8654 47.4647 15.3496 44.2987 14.9817V9.16471C45.9125 8.79845 47.1232 7.35899 47.1232 5.63644C47.1232 3.63799 45.4974 2.01221 43.499 2.01221C41.5006 2.01221 39.8756 3.63799 39.8756 5.63644C39.8756 7.35899 41.0863 8.79845 42.6993 9.16471V14.9817C39.5333 15.3496 37.0174 17.8662 36.6496 21.0314H26.7069C20.2046 21.0314 14.9154 26.3206 14.9154 32.823V33.9897C11.4863 34.388 8.81528 37.3053 8.81528 40.84C8.81528 44.3738 11.4863 47.2911 14.9154 47.6894V49.3104C14.9154 55.8119 20.2046 61.1019 26.7069 61.1019H60.2919C66.7934 61.1019 72.0826 55.8127 72.0826 49.3104V47.6894C75.5117 47.2911 78.1827 44.3738 78.1827 40.84C78.1827 37.3053 75.5117 34.388 72.0826 33.9897ZM41.475 5.63724C41.475 4.52086 42.3834 3.6124 43.499 3.6124C44.6154 3.6124 45.5238 4.52086 45.5238 5.63724C45.5238 6.75362 44.6154 7.66128 43.499 7.66128C42.3834 7.66128 41.475 6.75362 41.475 5.63724ZM43.499 16.5315C46.1492 16.5315 48.3524 18.4876 48.7394 21.0322H38.2594C38.6456 18.4876 40.8488 16.5315 43.499 16.5315ZM10.4147 40.84C10.4147 38.189 12.3707 35.9866 14.9154 35.5995V46.0804C12.3707 45.6925 10.4147 43.4902 10.4147 40.84ZM70.4832 49.3104C70.4832 54.9299 65.9113 59.5025 60.2919 59.5025H26.7069C21.0875 59.5025 16.5148 54.9307 16.5148 49.3104V46.9401V34.7391V32.823C16.5148 27.2035 21.0875 22.6308 26.7069 22.6308H37.3989H49.5991H60.2919C65.9113 22.6308 70.4832 27.2027 70.4832 32.823V34.7391V46.9393V49.3104ZM72.0826 46.0796V35.5987C74.6273 35.9858 76.5833 38.1882 76.5833 40.8392C76.5833 43.4902 74.6273 45.6925 72.0826 46.0796Z" fill="#BABABA"/>
    <path d="M22.3608 5.46811C21.4526 6.16177 20.9317 7.21512 20.9317 8.35781C20.9317 9.50066 21.4526 10.5538 22.3608 11.2477C22.8013 11.5841 23.0539 12.0949 23.0539 12.6493C23.0539 13.2037 22.8013 13.7144 22.3608 14.051C21.9498 14.3649 21.8712 14.9526 22.1852 15.3634C22.3695 15.6047 22.648 15.7314 22.9298 15.7314C23.1279 15.7314 23.3279 15.6686 23.4975 15.539C24.4057 14.8452 24.9265 13.792 24.9265 12.6493C24.9265 11.5067 24.4057 10.4533 23.4975 9.75965C23.057 9.42313 22.8043 8.91229 22.8043 8.35797C22.8043 7.80364 23.057 7.29288 23.4975 6.95628C24.4057 6.26262 24.9265 5.20928 24.9265 4.06659C24.9265 2.9239 24.4057 1.87055 23.4975 1.17689C23.0868 0.863072 22.4988 0.941627 22.185 1.35249C21.8711 1.76343 21.9498 2.35101 22.3606 2.66491C22.8011 3.00142 23.0537 3.51226 23.0537 4.06659C23.0539 4.62075 22.8013 5.1316 22.3608 5.46811Z" fill="#BABABA"/>
    <path d="M17.1442 11.2474C17.5847 11.5839 17.8373 12.0946 17.8373 12.6491C17.8373 13.2035 17.5847 13.7142 17.1442 14.0508C16.7333 14.3647 16.6546 14.9523 16.9685 15.3632C17.1528 15.6045 17.4314 15.7311 17.7132 15.7311C17.9114 15.7311 18.1113 15.6684 18.2809 15.5388C19.1891 14.845 19.71 13.7918 19.71 12.6491C19.71 11.5064 19.1891 10.4531 18.281 9.75941C17.8405 9.4229 17.5879 8.91205 17.5879 8.35773C17.5879 7.8034 17.8405 7.29248 18.281 6.95605C18.6919 6.64215 18.7706 6.0545 18.4566 5.64363C18.1428 5.23269 17.5552 5.15398 17.1442 5.46803C16.2361 6.16169 15.7152 7.21504 15.7152 8.35773C15.7153 9.50034 16.2361 10.5537 17.1442 11.2474Z" fill="#BABABA"/>
    <rect x="21.7113" y="27.3005" width="43.576" height="27.0053" rx="5.5" stroke="#B70F90"/>
</svg>
