<svg width="20" height="20" viewBox="0 0 20 20" fill="none" xmlns="http://www.w3.org/2000/svg">
<path fill-rule="evenodd" clip-rule="evenodd" d="M3.01808 3.45494C3.01808 3.91211 3.12057 4.35871 3.31282 4.76403H1.27263C0.790636 4.76403 0.399902 5.15476 0.399902 5.63675V10.0004C0.399902 10.4824 0.790636 10.8731 1.27263 10.8731H2.14536V18.7277C2.14536 19.2097 2.53609 19.6004 3.01808 19.6004H16.9817C17.4637 19.6004 17.8544 19.2097 17.8544 18.7277V10.8731H18.7272C19.2092 10.8731 19.5999 10.4824 19.5999 10.0004V5.63675C19.5999 5.15476 19.2092 4.76403 18.7272 4.76403H16.687C16.8792 4.35871 16.9817 3.91211 16.9817 3.45494C16.9817 2.64482 16.6599 1.86788 16.0871 1.29505C15.5142 0.722208 14.7373 0.400391 13.9272 0.400391C11.9146 0.400391 10.7045 1.85056 10.0534 3.03435C10.0352 3.06736 10.0174 3.10034 9.99991 3.13327C9.9824 3.10034 9.96457 3.06736 9.94642 3.03435C9.29533 1.85056 8.08523 0.400391 6.07263 0.400391C5.26251 0.400391 4.48558 0.722208 3.91274 1.29505C3.3399 1.86788 3.01808 2.64482 3.01808 3.45494ZM6.07263 2.14585C5.72544 2.14585 5.39247 2.28377 5.14696 2.52927C4.90146 2.77477 4.76354 3.10774 4.76354 3.45494C4.76354 3.80213 4.90146 4.1351 5.14696 4.3806C5.39247 4.62611 5.72544 4.76403 6.07263 4.76403H8.82523C8.71869 4.48529 8.58382 4.17879 8.41702 3.87552C7.86811 2.87749 7.11458 2.14585 6.07263 2.14585ZM11.1746 4.76403H13.9272C14.2744 4.76403 14.6073 4.62611 14.8529 4.3806C15.0984 4.1351 15.2363 3.80213 15.2363 3.45494C15.2363 3.10774 15.0984 2.77477 14.8529 2.52927C14.6073 2.28377 14.2744 2.14585 13.9272 2.14585C12.8852 2.14585 12.1317 2.87749 11.5828 3.87552C11.416 4.17879 11.2811 4.48529 11.1746 4.76403ZM10.8726 6.50948V9.12766H17.8544V6.50948H10.8726ZM9.12718 6.50948V9.12766H2.14536V6.50948H9.12718ZM10.8726 17.8549H16.109V10.8731H10.8726V17.8549ZM9.12718 10.8731V17.8549H3.89081V10.8731H9.12718Z" fill="#3F3F3F"/>
</svg>
