<svg width="20" height="18" viewBox="0 0 20 18" fill="none" xmlns="http://www.w3.org/2000/svg">
    <g filter="url(#filter0_d)">
        <path d="M16.8136 1.8647C15.9236 0.974401 14.7435 0.433112 13.4882 0.339266C12.2328 0.24542 10.9854 0.60525 9.97288 1.35332C8.90624 0.55996 7.57862 0.200214 6.25736 0.346523C4.9361 0.492832 3.71936 1.13433 2.85214 2.14183C1.98492 3.14934 1.53165 4.44801 1.58361 5.77632C1.63557 7.10464 2.18889 8.36394 3.13216 9.30062L9.37767 15.5461C9.4556 15.6247 9.54832 15.6871 9.65048 15.7296C9.75264 15.7722 9.86221 15.7941 9.97288 15.7941C10.0835 15.7941 10.1931 15.7722 10.2953 15.7296C10.3974 15.6871 10.4902 15.6247 10.5681 15.5461L16.8136 9.30062C17.302 8.81249 17.6895 8.23289 17.9539 7.59494C18.2183 6.957 18.3543 6.27321 18.3543 5.58266C18.3543 4.89211 18.2183 4.20832 17.9539 3.57038C17.6895 2.93243 17.302 2.35283 16.8136 1.8647ZM15.6316 8.11859L9.97288 13.7689L4.3142 8.11859C3.81554 7.61786 3.47585 6.98102 3.33774 6.28797C3.19963 5.59493 3.26925 4.87653 3.53787 4.22289C3.80648 3.56926 4.26213 3.0095 4.84766 2.61384C5.43318 2.21818 6.12251 2.00423 6.82916 1.99883C7.77321 2.00114 8.67775 2.37803 9.34414 3.04673C9.42207 3.12531 9.51479 3.18767 9.61695 3.23023C9.7191 3.27279 9.82868 3.29471 9.93935 3.29471C10.05 3.29471 10.1596 3.27279 10.2617 3.23023C10.3639 3.18767 10.4566 3.12531 10.5346 3.04673C11.2206 2.45226 12.1068 2.14062 13.0139 2.1749C13.921 2.20917 14.7812 2.58678 15.4205 3.23132C16.0597 3.87586 16.4301 4.73917 16.4569 5.64653C16.4836 6.55389 16.1646 7.43753 15.5645 8.11859H15.6316Z" fill="white"/>
    </g>
    <defs>
        <filter id="filter0_d" x="0.57959" y="0.314575" width="18.7747" height="17.4795" filterUnits="userSpaceOnUse" color-interpolation-filters="sRGB">
            <feFlood flood-opacity="0" result="BackgroundImageFix"/>
            <feColorMatrix in="SourceAlpha" type="matrix" values="0 0 0 0 0 0 0 0 0 0 0 0 0 0 0 0 0 0 127 0"/>
            <feOffset dy="1"/>
            <feGaussianBlur stdDeviation="0.5"/>
            <feColorMatrix type="matrix" values="0 0 0 0 0 0 0 0 0 0 0 0 0 0 0 0 0 0 0.15 0"/>
            <feBlend mode="normal" in2="BackgroundImageFix" result="effect1_dropShadow"/>
            <feBlend mode="normal" in="SourceGraphic" in2="effect1_dropShadow" result="shape"/>
        </filter>
    </defs>
</svg>
