<svg width="10" height="11" viewBox="0 0 10 11" fill="none" xmlns="http://www.w3.org/2000/svg">
    <path d="M4.99942 10.1149C2.45449 10.1149 0.384033 8.04441 0.384033 5.49948C0.384033 2.95455 2.45449 0.884094 4.99942 0.884094C7.54435 0.884094 9.6148 2.95455 9.6148 5.49948C9.6148 8.04441 7.54435 10.1149 4.99942 10.1149Z" fill="#DA25F5"/>
    <path d="M5 1.26923C2.66715 1.26923 0.769231 3.16715 0.769231 5.5C0.769231 7.83285 2.66715 9.73077 5 9.73077C7.33285 9.73077 9.23077 7.83285 9.23077 5.5C9.23077 3.16715 7.33285 1.26923 5 1.26923ZM5 0.5C7.76142 0.5 10 2.73858 10 5.5C10 8.26142 7.76142 10.5 5 10.5C2.23858 10.5 0 8.26142 0 5.5C0 2.73858 2.23858 0.5 5 0.5Z" fill="#111416"/>
</svg>
