<svg width="30" height="31" viewBox="0 0 30 31" fill="none" xmlns="http://www.w3.org/2000/svg">
    <path d="M22.4228 7.21549C20.0672 5.61716 17.619 4.17735 15.0344 2.98411C13.0706 2.07707 11.054 1.31533 8.90089 0.993904C7.94982 0.853005 6.99875 0.808974 6.05208 0.998307C4.17636 1.37257 2.89945 2.52178 2.02764 4.17735C1.12941 5.88575 0.689097 7.73065 0.394089 9.61518C0.0682591 11.6934 -0.0154003 13.7937 0.00221213 15.894C0.00221213 16.3695 -0.00219097 16.8407 0.00221213 17.3162C0.0286308 19.0951 0.178336 20.8607 0.477748 22.6131C0.772756 24.3436 1.20426 26.0256 2.03204 27.5843C2.56922 28.5926 3.2517 29.4732 4.26002 30.0808C5.374 30.7501 6.57605 30.9218 7.84414 30.8602C9.1959 30.7985 10.4948 30.4903 11.7761 30.0808C13.5594 29.5084 15.281 28.7731 16.9145 27.8616C18.5921 26.9238 20.2521 25.9507 21.8812 24.9292C23.2418 24.075 24.5187 23.0931 25.7075 22.0055C26.7599 21.0412 27.7374 20.0109 28.4463 18.756C29.4106 17.052 29.5338 15.304 28.6928 13.5163C28.1821 12.4244 27.4292 11.5041 26.597 10.6455C25.3333 9.33779 23.9155 8.22821 22.4228 7.21549ZM4.61226 6.35248C4.62547 4.74975 5.89797 3.73264 7.24532 3.73264C8.55744 3.72823 9.92241 4.76736 9.86076 6.50219C9.80793 7.90237 8.6411 9.00315 7.20129 8.98554C5.77468 8.96352 4.59905 7.84513 4.61226 6.35248ZM12.7536 21.3274C9.80352 21.3583 7.25853 18.985 7.26733 15.85C7.27614 12.8691 9.61419 10.4077 12.7316 10.4033C15.8622 10.3945 18.1958 12.9351 18.1914 15.8588C18.187 18.8881 15.7653 21.3274 12.7536 21.3274Z" fill="#B70F90"/>
</svg>
