<svg width="16" height="16" viewBox="0 0 16 16" fill="none" xmlns="http://www.w3.org/2000/svg">
<path d="M8.00004 14.6666C11.6819 14.6666 14.6667 11.6818 14.6667 7.99992C14.6667 4.31803 11.6819 1.33325 8.00004 1.33325C4.31815 1.33325 1.33337 4.31803 1.33337 7.99992C1.33337 11.6818 4.31815 14.6666 8.00004 14.6666Z" fill="#717171"/>
<path fill-rule="evenodd" clip-rule="evenodd" d="M8.00002 4.66659C7.26364 4.66659 6.66669 5.26354 6.66669 5.99992C6.66669 6.7363 7.26364 7.33325 8.00002 7.33325C8.7364 7.33325 9.33336 6.7363 9.33336 5.99992C9.33336 5.26354 8.7364 4.66659 8.00002 4.66659ZM5.33336 5.99992C5.33336 4.52716 6.52726 3.33325 8.00002 3.33325C9.47278 3.33325 10.6667 4.52716 10.6667 5.99992C10.6667 7.47268 9.47278 8.66659 8.00002 8.66659C6.52726 8.66659 5.33336 7.47268 5.33336 5.99992Z" fill="#FDFDFD"/>
<path fill-rule="evenodd" clip-rule="evenodd" d="M9.73362 10.8076C9.25708 10.6714 8.68972 10.6666 8.0001 10.6666C7.31049 10.6666 6.7431 10.6714 6.26654 10.8076C5.83521 10.9308 5.50069 11.156 5.26298 11.6314C5.09832 11.9607 4.69787 12.0942 4.36855 11.9295C4.03923 11.7649 3.90575 11.3644 4.07041 11.0351C4.49936 10.1772 5.16487 9.73567 5.90025 9.52557C6.57425 9.333 7.32058 9.33314 7.95472 9.33325C7.96991 9.33325 7.98504 9.33325 8.0001 9.33325C8.01518 9.33325 8.03033 9.33325 8.04554 9.33325C8.67966 9.33314 9.42595 9.333 10.0999 9.52556C10.8353 9.73566 11.5008 10.1772 11.9297 11.0351C12.0944 11.3644 11.9609 11.7649 11.6316 11.9295C11.3023 12.0942 10.9018 11.9607 10.7371 11.6314C10.4994 11.156 10.1649 10.9308 9.73362 10.8076Z" fill="#FDFDFD"/>
</svg>
