<svg width="201" height="200" viewBox="0 0 201 200" fill="none" xmlns="http://www.w3.org/2000/svg">
<circle opacity="0.1" cx="101.125" cy="100.625" r="66.875" fill="#8036E4"/>
<path d="M69.611 153.084C70.7504 152.515 71.8022 151.988 72.442 151.669C72.4729 151.714 72.505 151.758 72.536 151.803C71.5494 152.242 70.5677 152.653 69.611 153.084ZM80.863 151.39C78.7817 152.534 76.2176 153.128 74.0868 152.669C73.7134 152.807 73.2628 152.837 73.1193 152.637C73.0573 152.55 72.998 152.462 72.9361 152.375C69.592 153.848 66.3789 154.992 64.1807 158.128C64.1405 158.186 64.0627 158.238 63.9671 158.286L67.4302 158.454C72.9442 158.454 78.4577 158.454 83.9717 158.454C83.4727 155.915 83.0118 153.023 80.863 151.39ZM70.3416 83.8185C70.5134 83.694 70.7411 83.6467 70.9591 83.6527C71.3195 79.7634 71.4635 75.8497 71.4706 71.8875C71.4717 71.2021 73.0654 70.9482 73.0644 71.7582C73.0508 79.0002 72.7148 86.2167 71.1472 93.3033C70.5617 95.9516 69.9377 98.5912 69.3463 101.238C69.1104 102.293 68.869 103.349 68.6668 104.412C68.5233 105.164 68.694 105.88 68.145 105.66C68.3391 105.738 68.4358 105.84 68.4679 105.951C71.2787 106.183 73.8819 103.888 75.2881 101.624C78.4262 91.2954 77.6646 80.4364 77.6391 69.7801C77.6385 69.6078 77.7516 69.4627 77.9158 69.3556C77.0287 67.8754 76.1997 66.367 75.4539 64.8265C75.4425 64.8319 75.4344 64.8368 75.4229 64.8412C75.3555 64.8678 75.2876 64.8933 75.2202 64.9189L74.8913 65.1934L74.5119 65.1695C72.823 65.7169 71.0162 65.918 69.3729 65.0407C69.2099 64.9537 69.0555 64.8537 68.8984 64.7575L68.819 64.7493C68.7168 68.906 68.8245 73.0622 68.8364 77.2195C68.8381 77.9011 67.2459 78.1577 67.2432 77.3499C67.2318 73.2285 67.1258 69.1088 67.2236 64.9885C65.6967 65.7087 63.9268 66.1311 62.2521 66.3208C62.0847 66.8067 61.9363 67.3014 61.8031 67.8009C61.6123 68.756 61.3585 70.0774 61.11 71.5299C60.7812 74.5 60.929 77.5549 61.4275 80.4211C62.239 85.0894 66.5246 86.5755 70.3416 83.8185ZM67.5541 107.07C67.5628 107.504 67.8238 107.627 68.2559 107.534C68.2738 107.47 68.2934 107.407 68.3113 107.343C68.3293 107.279 68.3717 107.218 68.4315 107.163C68.2129 107.159 67.9928 107.147 67.7716 107.12C67.6857 107.11 67.6161 107.092 67.5541 107.07ZM90.7958 97.7095C93.3316 101.189 97.8014 103.939 102.201 103.996C102.21 103.985 102.215 103.974 102.225 103.962C103.779 102.169 103.374 98.295 103.322 96.1283C103.222 91.9487 102.819 87.7795 102.341 83.6282C102.008 80.7386 101.628 77.8549 101.258 74.9691C100.459 78.293 99.0918 83.5201 95.4537 84.6849C92.8973 85.503 90.518 84.4382 88.5035 82.8237C88.3633 85.4845 88.4187 88.1752 88.8096 90.8105C89.1428 93.0555 89.4178 95.8185 90.7958 97.7095ZM98.2873 104.383C97.5513 104.194 96.8181 103.953 96.1027 103.657C96.7534 104.076 97.1768 104.33 97.1768 104.33L98.2873 104.383ZM97.5465 80.9158C100.662 74.9115 100.812 67.9233 101.136 61.3128C101.143 61.1715 101.214 61.0508 101.32 60.9519C101.359 58.0264 100.983 55.3155 98.1199 53.8463C96.7229 53.1298 95.1699 52.9309 93.5506 52.988L88.0855 53.93C86.6293 57.754 87.0353 63.0496 88.4622 66.7741C89.2673 63.6225 89.3531 60.3382 89.8005 57.1175C89.8782 56.5609 91.4682 56.2809 91.378 56.9294C90.8616 60.6448 90.8306 64.4449 89.6162 68.0281C89.6037 68.0657 89.5831 68.101 89.5581 68.1352C90.2403 68.9131 90.9371 69.6774 91.6628 70.4166C92.2145 70.9787 90.724 71.625 90.2212 71.1119C87.3006 68.1358 84.8295 64.7667 82.0132 61.6977C80.4717 62.8142 78.7779 63.6681 76.9759 64.3009C79.1905 68.8908 82.1856 72.9959 85.2589 77.0412C85.4617 77.3075 85.6862 77.5967 85.9264 77.8979L88.2078 79.8683L88.1518 80.4249C91.1241 83.4298 95.0199 85.7857 97.5465 80.9158ZM87.2136 154.675C87.2968 154.375 87.4023 154.081 87.5229 153.793C87.331 154.059 87.2115 154.336 87.2115 154.612C87.212 154.632 87.2136 154.655 87.2136 154.675ZM99.8757 153.716C99.4017 153.72 98.8429 153.788 98.2091 153.964C98.0395 154.029 97.865 154.086 97.6818 154.131C97.5747 154.169 97.4687 154.206 97.3584 154.25C97.0703 154.365 96.68 154.363 96.2386 154.291C94.098 154.295 91.5639 153.417 89.8184 152.349C88.5802 154.061 88.0534 156.564 89.0993 158.453C94.2763 158.453 99.4533 158.453 104.63 158.453C103.442 156.618 101.839 154.651 99.8757 153.716Z" fill="#9C52E7"/>
<path d="M162.264 157.523C157.907 157.5 153.554 157.233 149.227 157.876C148.843 157.932 148.639 157.807 148.575 157.618C148.351 157.632 148.177 157.595 148.15 157.482C147.885 156.39 146.928 154.123 145.382 154.955C144.251 155.562 143.453 156.651 143.02 157.838C142.877 158.233 141.458 158.404 141.464 158.139C141.204 158.17 140.953 158.123 140.814 157.959C139.376 156.266 137.71 154.793 135.594 154.165C135.593 154.169 135.593 154.171 135.592 154.174C135.143 155.304 134.548 156.233 133.734 157.129C133.447 157.445 132.847 157.6 132.47 157.358C129.455 155.421 127.597 151.98 124.107 150.904C123.116 152.597 122.185 154.322 121.139 155.982C121.211 156.025 121.283 156.067 121.355 156.11C122.12 156.565 120.741 157.378 120.142 157.023C120.083 156.989 120.023 156.953 119.964 156.917C119.516 156.98 119.099 156.897 119.316 156.567C119.321 156.559 119.326 156.551 119.331 156.542C117.641 155.555 115.845 154.711 114.088 156.052C112.9 156.959 111.748 157.883 110.505 158.707C110.724 159.048 110.387 159.614 109.757 159.614C92.0639 159.614 106.442 159.614 88.7492 159.614C88.491 159.685 88.2219 159.696 88.0491 159.614C71.4254 159.614 54.8024 159.614 38.1793 159.614C37.1106 159.614 37.415 158.454 38.3173 158.454C46.4905 158.454 54.6632 158.454 62.8364 158.454C62.6945 158.413 62.6326 158.327 62.7375 158.177C64.5237 155.628 66.9698 154.276 69.6126 153.085C70.5693 152.654 71.551 152.243 72.5381 151.805C72.5066 151.759 72.4751 151.715 72.4441 151.67C70.247 148.483 68.3472 145.034 66.9013 141.451C65.4157 137.769 63.4061 134.219 62.3961 130.362C60.174 121.876 66.0625 115.306 68.258 107.535C68.276 107.471 68.2955 107.409 68.3135 107.344C68.3314 107.28 68.3738 107.219 68.4336 107.165C68.2151 107.16 67.9949 107.148 67.7737 107.122C67.6884 107.111 67.6188 107.093 67.5568 107.071C67.3459 106.997 67.2617 106.861 67.2665 106.708C67.2551 106.704 67.2426 106.703 67.2312 106.698C65.781 106.118 68.8984 96.3675 69.1859 95.0922C69.9524 91.6873 70.4758 88.2807 70.8335 84.8578C67.5269 86.9484 63.0886 87.1919 60.7382 83.532C59.3635 81.3914 59.4195 78.0299 59.4016 75.5632C59.3782 72.3251 59.7087 69.1795 60.7735 66.1088C60.7898 66.0621 60.8154 66.0197 60.8453 65.9794C60.8871 65.7033 61.2106 65.3869 61.6607 65.3538C61.7509 65.3467 61.8428 65.3364 61.9341 65.3277C60.1973 64.0769 58.3943 62.6478 57.517 60.6671C56.9006 59.276 56.4565 57.0561 56.9756 55.4074C56.6799 55.5254 56.3456 55.5808 56.1461 55.4933C53.8326 54.479 53.1102 51.4747 53.9625 49.2368C54.7279 47.2293 57.2039 46.7396 59.0428 46.4053C62.6587 45.7486 64.5585 42.2491 67.7895 40.7722C70.2383 39.6524 72.4408 39.7448 74.7722 41.0864C77.4521 40.0237 80.6836 40.502 82.4801 43.0503C83.6032 44.6446 83.931 46.1819 83.7641 48.13C83.6244 49.7586 83.139 51.7367 83.6874 53.3516C84.8849 53.3745 86.0922 53.2489 87.3033 53.069C87.5533 52.9787 87.8441 52.9353 88.0654 52.9499C91.9699 52.3129 95.8907 51.3225 99.5794 53.1288C103.075 54.8399 103.004 58.8053 102.865 62.2581C102.86 62.3853 102.783 62.4973 102.668 62.5902C102.566 64.764 102.454 66.9448 102.233 69.1104C102.378 69.2528 102.401 69.448 102.179 69.66C102.178 69.6649 102.178 69.6698 102.177 69.6741C102.427 69.4936 102.26 69.6268 102.307 70.1351C102.345 70.5482 102.389 70.9613 102.438 71.3728C102.601 72.7524 102.784 74.1298 102.963 75.5067C103.468 79.3873 103.967 83.27 104.341 87.1653C104.696 90.8746 105.039 94.6324 104.918 98.3629C104.856 100.282 104.891 102.875 103.547 104.427C103.332 104.675 102.895 104.754 102.551 104.694C102.386 104.774 102.217 104.829 102.083 104.834C101.952 104.839 101.818 104.833 101.686 104.833C102.596 109.056 104.404 113.036 105.565 117.193C106.61 120.939 107.981 124.148 106.603 127.973C103.806 135.733 102.329 143.896 100.179 151.844C100.169 151.883 100.141 151.919 100.106 151.954C100.051 152.13 99.986 152.294 99.911 152.448C102.772 153.25 104.988 155.994 106.491 158.453C117.944 158.453 97.3268 158.453 108.779 158.453C108.825 158.408 108.879 158.362 108.952 158.317C110.848 157.137 112.823 154.742 115.071 154.254C116.872 153.864 118.517 154.516 120.068 155.365C121.026 153.789 121.899 152.163 122.841 150.576C122.892 150.49 123.002 150.414 123.14 150.353C123.268 150.021 123.957 149.625 124.382 149.715C128.192 150.515 130.09 153.819 133.007 155.999C133.454 155.393 133.808 154.751 134.096 154.025C134.126 153.95 134.177 153.883 134.242 153.825C133.74 153.518 134.499 152.765 135.128 152.86C137.983 153.293 140.156 154.897 142.014 157.009C142.846 155.659 144.178 154.659 145.747 154.278C147.762 153.79 149.038 154.84 149.607 156.635C153.852 156.038 158.12 156.291 162.392 156.314C163.454 156.32 163.185 157.528 162.264 157.523ZM99.1462 153.424C98.8717 153.652 98.5564 153.829 98.209 153.964C98.0389 154.011 97.8628 154.067 97.6818 154.131C97.2339 154.241 96.7474 154.291 96.2386 154.291C94.098 154.295 91.5638 153.417 89.8184 152.349C88.5802 154.061 88.0534 156.564 89.0993 158.453C94.2763 158.453 99.4533 158.453 104.63 158.453C103.442 156.618 101.838 154.651 99.8751 153.716C99.6381 153.602 99.3946 153.505 99.1462 153.424ZM75.2875 101.624C78.4256 91.2954 77.6641 80.4364 77.6385 69.7801C77.638 69.6078 77.751 69.4627 77.9152 69.3556C77.0281 67.8754 76.1991 66.367 75.4533 64.8265C75.4419 64.8319 75.4338 64.8368 75.4224 64.8412C75.355 64.8678 75.287 64.8934 75.2196 64.9189C74.9864 65.008 74.75 65.0918 74.5108 65.1695C72.8219 65.7169 71.015 65.918 69.3718 65.0407C69.2087 64.9537 69.0544 64.8537 68.8973 64.7575C68.8712 64.7417 68.8445 64.7265 68.8185 64.7102C68.8185 64.7232 68.8179 64.7368 68.8179 64.7493C68.7157 68.906 68.8233 73.0622 68.8353 77.2195C68.8369 77.9011 67.2448 78.1577 67.2421 77.3499C67.2307 73.2285 67.1247 69.1088 67.2225 64.9885C65.6956 65.7087 63.9257 66.1311 62.251 66.3208C62.0836 66.8067 61.9352 67.3014 61.802 67.8009C61.478 69.0147 61.2492 70.2644 61.1089 71.5299C60.7801 74.5 60.9279 77.5549 61.4264 80.4211C62.239 85.0894 66.524 86.575 70.341 83.8185C70.5128 83.694 70.7405 83.6467 70.9585 83.6527C71.3189 79.7634 71.463 75.8497 71.47 71.8875C71.4711 71.2021 73.0649 70.9482 73.0638 71.7582C73.0502 79.0002 72.7143 86.2167 71.1466 93.3033C70.5612 95.9516 69.9371 98.5912 69.3457 101.238C69.1098 102.293 68.8685 103.349 68.6663 104.412C68.5227 105.164 68.6934 105.88 68.1444 105.66C68.3385 105.738 68.4352 105.84 68.4673 105.951C71.2781 106.183 73.8813 103.888 75.2875 101.624ZM65.1292 59.7647C68.1939 62.045 70.3693 65.6544 74.6266 64.0503C73.0714 62.831 71.7146 61.2585 70.5715 59.6707C69.8545 58.6749 68.2205 56.5642 68.5722 55.2232C68.5923 55.1471 68.6157 55.0786 68.6402 55.0128C67.073 55.3248 65.5026 55.621 63.9236 55.8657C64.3655 56.6604 64.4035 57.8606 64.6014 58.5841C64.7058 58.9662 64.8248 59.3271 64.9411 59.6826C65.0107 59.7 65.0759 59.725 65.1292 59.7647ZM74.3156 52.7934C74.3907 52.8342 74.4629 52.8776 74.5336 52.9244C74.4695 52.5885 74.4374 52.2634 74.4504 51.9622C74.3912 52.2618 74.3466 52.5548 74.3156 52.7934ZM75.268 50.4951C75.0429 50.4315 74.8614 50.649 74.719 50.9985C74.8483 50.7919 75.0272 50.6202 75.268 50.4951ZM70.6324 54.6214C71.0933 54.8584 71.5793 55.2019 72.0408 55.5727C71.8619 55.2014 71.694 54.8263 71.5478 54.442C71.2423 54.5007 70.9373 54.5616 70.6324 54.6214ZM70.4084 56.1521C70.472 56.3098 70.5372 56.4625 70.5976 56.6027C71.7092 59.182 73.965 61.7966 76.223 63.4447C76.2981 63.4996 76.3459 63.5578 76.379 63.616C78.4566 62.9104 80.3673 61.8705 82.0284 60.41C82.0339 60.4051 82.042 60.4007 82.048 60.3964C82.0648 58.5759 82.0708 56.5772 81.3462 54.9448C81.2451 54.7165 80.5352 53.7789 80.7342 53.5082C80.5771 53.7218 80.482 53.9936 80.4483 54.2556C80.3629 54.9215 80.4319 55.552 80.7429 56.1554C81.1114 56.8707 79.6035 57.4301 79.2975 56.8359C79.273 56.7881 79.2519 56.7337 79.229 56.6821C79.0475 56.6403 78.9094 56.5375 78.8795 56.3543C78.6354 54.8443 77.8761 52.3498 76.503 51.498C75.5789 50.9251 76.2051 53.0706 76.3383 53.4348C76.6873 54.3904 77.1281 55.3471 77.7483 56.1592C78.2136 56.7685 76.7057 57.3621 76.3008 56.8321C76.2557 56.7734 76.2073 56.7055 76.1578 56.6337C75.6083 55.9695 75.0592 55.3014 74.4477 54.6932C74.0906 54.3388 73.7237 53.98 73.3122 53.6881C73.1877 53.6 73.0589 53.5147 72.9257 53.437C73.3339 54.8068 74.1199 56.0146 74.6412 57.3409C74.7016 57.4942 74.5325 57.6551 74.2857 57.7758C74.3281 58.2873 73.3138 58.7374 72.8926 58.3552C72.0924 57.6307 71.3178 56.8696 70.4698 56.2C70.4492 56.1837 70.4285 56.1679 70.4084 56.1521ZM77.7369 98.2417C81.7039 99.2321 85.441 99.3984 89.3977 98.3559C86.4988 93.8882 86.6352 87.2359 86.9858 82.1497C86.9956 82.0089 87.1359 81.8828 87.3272 81.7877C86.6303 81.1191 85.9889 80.4114 85.416 79.733C83.2167 77.1287 81.1223 74.3646 79.2393 71.4739C79.3198 80.4277 79.7291 89.4945 77.7369 98.2417ZM102.202 103.996C102.211 103.985 102.216 103.974 102.226 103.962C103.779 102.169 103.374 98.295 103.322 96.1283C103.223 91.9487 102.82 87.7795 102.341 83.6282C102.008 80.7386 101.628 77.8549 101.259 74.9691C100.459 78.293 99.0924 83.5201 95.4542 84.6849C92.8978 85.503 90.5185 84.4382 88.5041 82.8237C88.3638 85.4846 88.4192 88.1752 88.8101 90.8105C89.1427 93.0549 89.4178 95.8179 90.7958 97.7085C93.3321 101.189 97.8019 103.939 102.202 103.996ZM93.5511 52.988C91.7943 53.0494 89.9608 53.4114 88.1616 53.749C88.1371 53.8099 88.1089 53.8686 88.0855 53.93C86.6293 57.754 87.0353 63.0496 88.4622 66.7741C89.2672 63.6225 89.3531 60.3382 89.8005 57.1175C89.8782 56.5609 91.4682 56.2809 91.3779 56.9294C90.8615 60.6448 90.8305 64.4449 89.6162 68.0282C89.6037 68.0657 89.583 68.101 89.558 68.1353C90.2402 68.9131 90.9371 69.6774 91.6628 70.4166C92.2145 70.9787 90.724 71.625 90.2212 71.1119C87.3006 68.1358 84.8295 64.7667 82.0132 61.6977C80.4716 62.8142 78.7778 63.6681 76.9759 64.3009C79.1904 68.8908 82.1855 72.9959 85.2589 77.0412C85.4617 77.3075 85.6862 77.5967 85.9264 77.8979C86.5629 78.6958 87.3201 79.5851 88.1524 80.4249C91.1241 83.4282 95.0199 85.7841 97.5464 80.9142C100.662 74.9098 100.812 67.9216 101.136 61.3112C101.143 61.1699 101.214 61.0492 101.32 60.9503C101.359 58.0247 100.983 55.3139 98.1199 53.8446C96.7229 53.1298 95.1699 52.9315 93.5511 52.988ZM84.1908 54.3224C84.2212 54.3643 84.2478 54.4078 84.281 54.4486C84.5224 54.7481 83.645 55.1394 83.1232 55.1264C83.1819 55.3455 83.2292 55.5547 83.2656 55.7412C83.6146 57.5388 83.6342 59.3609 83.6352 61.1862C83.6352 61.1905 83.6336 61.1949 83.6336 61.1992C84.4359 62.0814 85.2132 62.9854 85.9802 63.8986C85.3709 60.6171 85.4464 56.8724 86.5532 54.0354C85.7465 54.1686 84.9561 54.2735 84.1908 54.3224ZM63.8659 65.0385C65.045 64.7884 66.2104 64.3982 67.2187 63.8334C67.2388 63.822 67.2595 63.8144 67.2801 63.8046C67.303 63.7491 67.3367 63.698 67.3791 63.6508C66.7251 63.1039 66.1006 62.5152 65.4668 61.9407C65.4749 62.0478 65.4842 62.1537 65.4863 62.2646C65.4967 62.9001 63.9198 63.217 63.9116 62.6859C63.8953 61.6542 63.655 60.8263 63.3033 59.8723C62.9283 58.8553 62.8799 57.7551 62.4956 56.7452C62.4934 56.7397 62.4912 56.7337 62.4896 56.7283C62.4815 56.7555 62.4695 56.781 62.4619 56.8082C62.2439 57.5969 62.1439 58.4031 62.1336 59.2211C62.1308 59.4739 61.7927 59.6772 61.4302 59.7571C61.0214 60.1077 60.0435 60.1648 60.0223 59.5663C59.9772 58.2748 59.5739 56.7876 58.8835 55.6852C58.7993 55.5515 58.7112 55.4112 58.6161 55.277C58.4911 55.8841 58.4019 56.5131 58.4095 57.1338C58.453 60.741 60.9883 62.937 63.7208 64.8803C63.792 64.932 63.836 64.9852 63.8659 65.0385ZM74.2923 151.615C74.2966 151.617 74.3026 151.617 74.3069 151.619C76.7612 152.663 80.4363 151.203 82.1132 149.247C77.333 142.518 77.7815 134.015 75.2098 126.449C75.1756 126.347 75.2316 126.246 75.3365 126.154C75.3185 126.083 75.3251 125.997 75.3718 125.892C77.6608 120.758 78.7262 114.351 83.2161 110.547C83.4015 110.391 83.7836 110.32 84.112 110.334C86.5923 109.469 87.9643 112.643 88.8601 114.471C90.9289 118.691 93.1815 123.152 94.5475 127.638C94.5894 127.775 94.4133 127.92 94.1665 128.031C93.7996 131.904 91.9574 135.396 91.1708 139.191C90.393 142.946 90.1337 146.748 89.8271 150.562C91.5068 152.15 97.7954 154.82 98.5558 151.967C98.583 151.865 98.6488 151.777 98.7352 151.699C100.813 143.908 102.171 135.806 105.046 128.256C106.607 124.157 104.73 119.911 103.563 115.916C102.5 112.28 100.867 108.865 100.08 105.146C100.052 105.015 100.237 104.883 100.488 104.78C99.7593 104.709 99.0217 104.574 98.2873 104.384C97.5513 104.195 96.818 103.954 96.1027 103.658C93.6425 102.64 91.3926 101.025 89.8929 99.0674C85.6823 100.241 81.6909 100.221 77.4874 99.2691C77.314 99.96 77.1254 100.65 76.9194 101.337C76.9688 101.434 76.9634 101.558 76.8694 101.714C76.8351 101.77 76.7965 101.826 76.7606 101.883C76.7346 101.964 76.6851 102.038 76.6193 102.104C75.0886 104.445 72.661 106.527 69.8877 107.044C69.8909 107.07 69.8893 107.098 69.8806 107.129C67.802 114.716 61.4802 121.657 63.9687 129.939C65.1151 133.755 66.8697 137.388 68.4738 141.028C70.1084 144.736 71.9603 148.299 74.2923 151.615ZM67.4302 158.453C72.9442 158.453 78.4577 158.453 83.9717 158.453C83.4733 155.915 83.0118 153.023 80.863 151.39C78.7817 152.534 76.2176 153.128 74.0868 152.669C73.7134 152.807 73.2627 152.837 73.1192 152.637C73.0573 152.55 72.998 152.462 72.936 152.375C69.592 153.848 66.3789 154.992 64.1807 158.128C64.1404 158.186 64.0627 158.238 63.967 158.286C63.8132 158.361 63.6088 158.42 63.4061 158.454C64.7471 158.453 66.0886 158.453 67.4302 158.453ZM87.3386 158.453C86.8662 157.267 86.8657 155.929 87.2141 154.675C87.2973 154.375 87.4028 154.081 87.5234 153.794C87.8034 153.129 88.1763 152.507 88.6242 151.971C88.6927 151.889 88.8193 151.821 88.9704 151.767C88.6454 151.513 88.3703 151.257 88.1638 151.005C87.9904 150.794 88.0811 150.581 88.285 150.42C88.5948 146.417 88.778 142.318 89.8309 138.43C90.8164 134.792 92.4836 131.321 92.6499 127.507C92.6521 127.45 92.6776 127.396 92.7173 127.345C91.4442 123.964 86.0411 110.596 84.6039 110.789C84.5773 110.821 84.5452 110.854 84.5033 110.889C80.1102 114.609 79.1018 120.946 76.8558 125.984C76.8422 126.015 76.8226 126.044 76.8003 126.072C79.3377 133.577 78.8616 142.093 83.6445 148.748C83.6912 148.813 83.6961 148.88 83.6749 148.945C83.7255 148.999 83.7238 149.074 83.6385 149.178C83.2091 149.698 82.6704 150.187 82.06 150.632C84.5251 152.266 85.0268 155.399 85.5644 158.118C85.5883 158.24 85.4894 158.356 85.3334 158.453C86.0009 158.453 86.67 158.453 87.3386 158.453Z" fill="#3C0B84"/>
</svg>
