<svg width="26" height="26" viewBox="0 0 26 26" fill="none" xmlns="http://www.w3.org/2000/svg">
<path d="M1 22.0815V20.7639C1 15.6701 4.72081 11.5408 9.31065 11.5408" stroke="#717171" stroke-width="2" stroke-linecap="round" stroke-linejoin="round"/>
<path d="M17.3884 11.9538C18.1503 11.0253 19.4667 11.0253 20.2287 11.9538C20.6138 12.4232 21.1673 12.6776 21.7386 12.6479C22.869 12.5893 23.7999 13.6224 23.7471 14.8769C23.7204 15.5109 23.9496 16.1252 24.3725 16.5526C25.2092 17.3983 25.2092 18.8592 24.3725 19.7048C23.9496 20.1323 23.7204 20.7465 23.7471 21.3806C23.7999 22.635 22.869 23.6682 21.7386 23.6095C21.1673 23.5799 20.6138 23.8343 20.2287 24.3036C19.4667 25.2321 18.1503 25.2321 17.3884 24.3036C17.0032 23.8343 16.4497 23.5799 15.8784 23.6095C14.7481 23.6682 13.8172 22.635 13.87 21.3806C13.8967 20.7465 13.6674 20.1323 13.2445 19.7048C12.4079 18.8592 12.4079 17.3983 13.2445 16.5526C13.6674 16.1252 13.8967 15.5109 13.87 14.8769C13.8172 13.6224 14.7481 12.5893 15.8784 12.6479C16.4497 12.6776 17.0032 12.4232 17.3884 11.9538Z" stroke="#717171" stroke-width="2"/>
<path d="M16.8657 18.1287L18.161 19.5661L20.7513 16.6913" stroke="#717171" stroke-width="2" stroke-linecap="round" stroke-linejoin="round"/>
<path d="M9.31065 11.5407C11.9334 11.5407 14.0596 9.18107 14.0596 6.27037C14.0596 3.35963 11.9334 1 9.31065 1C6.68788 1 4.56171 3.35963 4.56171 6.27037C4.56171 9.18107 6.68788 11.5407 9.31065 11.5407Z" stroke="#717171" stroke-width="2" stroke-linecap="round" stroke-linejoin="round"/>
</svg>
