<svg width="100" height="80" viewBox="0 0 100 80" fill="none" xmlns="http://www.w3.org/2000/svg">
    <path d="M98.0218 19.9965C93.6552 8.88561 80.2042 2.22252 68.8116 6.6319C55.8073 11.6651 60.119 32.3493 48.3071 36.5319C41.9265 38.7913 32.4942 30.3514 26.0476 29.0571C14.1685 26.6723 3.41456 35.0542 0.766509 46.6614C-1.93505 58.5032 2.39795 74.3196 15.4085 77.5336C30.9065 81.3622 38.9794 67.4303 51.9806 63.4299C65.3224 59.3247 80.1569 69.0202 91.2021 57.2237C99.3622 48.5088 102.346 30.9989 98.0218 19.9965Z" fill="url(#paint0_linear)"/>
    <path opacity="0.1" d="M93.1338 24.8813C93.1338 17.167 86.8801 10.9131 79.1656 10.9131C73.1891 10.9131 68.0916 14.668 66.0973 19.9463H15.5879C13.4305 19.9463 11.6816 21.6951 11.6816 23.8525V67.0967C11.6816 69.2541 13.4305 71.0029 15.5879 71.0029H84.4111C86.5686 71.0029 88.3174 69.2541 88.3174 67.0967V35.4287C91.2664 32.8676 93.1338 29.0938 93.1338 24.8813Z" fill="#2626BC"/>
    <path d="M84.4111 66.1201H15.5879C13.4305 66.1201 11.6816 64.3713 11.6816 62.2139V18.9697C11.6816 16.8123 13.4305 15.0635 15.5879 15.0635H84.4111C86.5686 15.0635 88.3174 16.8123 88.3174 18.9697V62.2139C88.3174 64.3713 86.5686 66.1201 84.4111 66.1201Z" fill="white"/>
    <path d="M51.1895 33.6934L88.3176 62.2139C88.3176 64.3713 86.5687 66.1201 84.4113 66.1201H15.5879C13.4305 66.1201 11.6816 64.3713 11.6816 62.2139L48.8098 33.6934C49.5115 33.1543 50.4877 33.1543 51.1895 33.6934Z" fill="white"/>
    <path d="M48.8098 47.4904L11.6816 18.9697C11.6816 16.8123 13.4305 15.0635 15.5879 15.0635H84.4111C86.5686 15.0635 88.3174 16.8123 88.3174 18.9697L51.1895 47.4904C50.4877 48.0293 49.5115 48.0293 48.8098 47.4904Z" fill="white"/>
    <path d="M72.4501 60.9227H66.1739C65.6345 60.9227 65.1974 60.4855 65.1974 59.9461V55.6191C65.1974 55.0799 65.6345 54.6426 66.1739 54.6426H72.4501C72.9896 54.6426 73.4267 55.0799 73.4267 55.6191V59.9461C73.4267 60.4855 72.9896 60.9227 72.4501 60.9227Z" fill="#FEDBF6"/>
    <path d="M60.9122 56.9419H55.4761C54.9366 56.9419 54.4995 56.5046 54.4995 55.9653C54.4995 55.4261 54.9366 54.9888 55.4761 54.9888H60.9122C61.4517 54.9888 61.8888 55.4261 61.8888 55.9653C61.8888 56.5046 61.4517 56.9419 60.9122 56.9419Z" fill="#B70F90"/>
    <path d="M60.9122 60.9229H41.8042C41.2647 60.9229 40.8276 60.4855 40.8276 59.9463C40.8276 59.407 41.2647 58.9697 41.8042 58.9697H60.9122C61.4517 58.9697 61.8888 59.407 61.8888 59.9463C61.8888 60.4857 61.4517 60.9229 60.9122 60.9229Z" fill="#B70F90"/>
    <path d="M92.9348 22.235C94.1691 14.6209 88.9972 7.44781 81.3831 6.21351C73.769 4.9792 66.5959 10.1511 65.3616 17.7652C64.1273 25.3793 69.2992 32.5524 76.9133 33.7867C84.5274 35.021 91.7005 29.8491 92.9348 22.235Z" fill="#B70F90"/>
    <path d="M79.1656 34.9432C87.4061 34.9432 94.1103 28.2391 94.1103 19.9984C94.1103 11.7578 87.4062 5.05371 79.1656 5.05371C70.925 5.05371 64.2209 11.7578 64.2209 19.9984C64.2209 24.7922 66.4922 29.0629 70.0125 31.7994L50.5945 46.7158C50.2447 46.985 49.7553 46.9852 49.4047 46.7158L12.6934 18.5154C12.9123 17.115 14.1271 16.04 15.5879 16.04H60.3859C60.9254 16.04 61.3625 15.6027 61.3625 15.0635C61.3625 14.5242 60.9254 14.0869 60.3859 14.0869H15.5879C12.8955 14.0869 10.7051 16.2773 10.7051 18.9697V62.2139C10.7051 64.9063 12.8955 67.0967 15.5879 67.0967H84.4111C87.1035 67.0967 89.2939 64.9063 89.2939 62.2139V36.4053C89.2939 35.866 88.8568 35.4287 88.3174 35.4287C87.7779 35.4287 87.3408 35.866 87.3408 36.4053V60.2322L61.773 40.5918L71.7223 32.9492C73.9156 34.2148 76.4564 34.9432 79.1656 34.9432ZM38.2262 40.5918L12.6582 60.2322V20.9514L38.2262 40.5918ZM87.3023 62.6656C87.084 64.0668 85.8727 65.1436 84.4111 65.1436H15.5879C14.1264 65.1436 12.915 64.0668 12.6967 62.6656L39.8293 41.8232L48.2148 48.2647C48.7402 48.6682 49.3699 48.8701 49.9996 48.8701C50.6293 48.8701 51.2588 48.6684 51.7844 48.2647L60.1699 41.8231L87.3023 62.6656ZM66.174 19.9984C66.174 12.835 72.0019 7.00684 79.1656 7.00684C86.3293 7.00684 92.1572 12.8348 92.1572 19.9984C92.1572 27.1619 86.3293 32.99 79.1656 32.99C72.0019 32.99 66.174 27.1619 66.174 19.9984Z" fill="#B70F90"/>
    <path d="M82.6845 23.705V25H77.0845V23.705H79.1355V17.804C79.1355 17.5707 79.1425 17.3303 79.1565 17.083L77.7005 18.301C77.6165 18.3663 77.5325 18.4083 77.4485 18.427C77.3691 18.441 77.2921 18.441 77.2175 18.427C77.1475 18.413 77.0845 18.3897 77.0285 18.357C76.9725 18.3197 76.9305 18.28 76.9025 18.238L76.3565 17.489L79.4435 14.864H80.8645V23.705H82.6845Z" fill="white"/>
    <path d="M64.6146 5.95132C63.8892 5.95132 63.164 5.67534 62.612 5.12319C61.5077 4.0189 61.5077 2.22222 62.612 1.11812C63.7158 0.014209 65.5128 0.0138184 66.6169 1.11812C67.7212 2.22241 67.7212 4.01909 66.6169 5.12319C66.065 5.67534 65.3398 5.95132 64.6146 5.95132ZM64.6146 2.24214C64.3896 2.24214 64.1644 2.32769 63.9929 2.49917C63.6503 2.84175 63.6503 3.39937 63.9929 3.74214C64.3359 4.08472 64.8929 4.08491 65.2359 3.74214C65.5784 3.39956 65.5784 2.84194 65.2359 2.49917C65.0646 2.32788 64.8394 2.24214 64.6146 2.24214Z" fill="#FEDBF6"/>
    <path d="M42.6829 79.7099C41.9577 79.7099 41.2323 79.4337 40.6804 78.8817C39.5761 77.7774 39.5761 75.9808 40.6804 74.8767C41.7843 73.7726 43.5816 73.7726 44.6855 74.8767C45.7898 75.981 45.7898 77.7776 44.6855 78.8817C44.1335 79.4339 43.4081 79.7099 42.6829 79.7099ZM42.6829 76.0007C42.4579 76.0007 42.2327 76.0862 42.0613 76.2577C41.7187 76.6003 41.7187 77.1579 42.0613 77.5007C42.4042 77.8435 42.9614 77.8435 43.3044 77.5007C43.647 77.1581 43.647 76.6005 43.3044 76.2577C43.1331 76.0864 42.9079 76.0007 42.6829 76.0007Z" fill="#FEDBF6"/>
    <path d="M57.5734 8.46611C57.3236 8.46611 57.0734 8.3708 56.883 8.18017L55.718 7.01533L54.5529 8.18017C54.1719 8.56142 53.5531 8.56142 53.1721 8.18017C52.7906 7.79873 52.7906 7.18037 53.1721 6.79912L55.0275 4.94365C55.4086 4.5624 56.0273 4.5624 56.4084 4.94365L58.2639 6.79912C58.6453 7.18057 58.6453 7.79892 58.2639 8.18017C58.0734 8.3706 57.8234 8.46611 57.5734 8.46611Z" fill="#FEDBF6"/>
    <path d="M85.8873 76.0003C85.6375 76.0003 85.3873 75.905 85.1968 75.7144L84.0318 74.5495L82.8668 75.7144C82.4857 76.0956 81.867 76.0956 81.4859 75.7144C81.1045 75.3329 81.1045 74.7145 81.4859 74.3333L83.3414 72.4778C83.7224 72.0966 84.3412 72.0966 84.7222 72.4778L86.5777 74.3333C86.9591 74.7147 86.9591 75.3331 86.5777 75.7144C86.3873 75.9048 86.1371 76.0003 85.8873 76.0003Z" fill="#FEDBF6"/>
    <path d="M34.9379 76.928C34.6881 76.928 34.4379 76.8327 34.2475 76.6421L33.0825 75.4772L31.9174 76.6421C31.5364 77.0233 30.9176 77.0233 30.5366 76.6421C30.1551 76.2606 30.1551 75.6423 30.5366 75.261L32.392 73.4056C32.7731 73.0243 33.3918 73.0243 33.7729 73.4056L35.6284 75.261C36.0098 75.6425 36.0098 76.2608 35.6284 76.6421C35.4377 76.8325 35.1877 76.928 34.9379 76.928Z" fill="#FEDBF6"/>
    <defs>
        <linearGradient id="paint0_linear" x1="84.4399" y1="88.1727" x2="38.7368" y2="27.626" gradientUnits="userSpaceOnUse">
            <stop stop-color="#FFEDF8" stop-opacity="0"/>
            <stop offset="1" stop-color="#FFDAE3"/>
        </linearGradient>
    </defs>
</svg>
