<svg width="241" height="240" viewBox="0 0 241 240" fill="none" xmlns="http://www.w3.org/2000/svg">
<g id="Frame" clip-path="url(#clip0_2560_26621)">
<path id="Vector 26" d="M56.722 224.246C23.4877 180.97 9.39927 109.049 15.6976 50.9282C17.8708 35.5133 38.0074 26.408 45.7305 23.7093C67.1691 16.2116 88.4992 18.1761 155.955 44.789C223.41 71.4018 227.029 106.727 220.407 121.062C217.655 131.084 199.456 162.149 148.679 206.233C97.9011 250.317 66.2169 236.61 56.722 224.246Z" fill="#F4EDFB"/>
<g id="color_x5F_1">
<path fill-rule="evenodd" clip-rule="evenodd" d="M11.533 77.7504C11.533 83.654 16.3345 88.4572 22.2381 88.4572H73.8135C79.7165 88.4572 84.5192 83.6546 84.5192 77.7504C84.5192 71.8493 79.7171 67.046 73.8135 67.046H22.2381C16.3351 67.046 11.533 71.8486 11.533 77.7504ZM28.5084 78.8843H23.7088C22.5223 78.8843 23.9026 78.0591 24.4454 78.0585H28.1032C27.0371 76.9936 25.9711 75.9276 24.905 74.8616C24.3714 74.3279 26.0524 73.6464 26.5408 74.1348C27.0428 74.6364 27.5445 75.1382 28.0461 75.64C28.2989 75.8928 28.5516 76.1456 28.8043 76.3983V72.9349C28.8043 72.2172 30.5904 71.9006 30.5904 72.7698V76.8029C30.8937 76.4996 31.1971 76.1965 31.5004 75.8933C31.954 75.44 32.4075 74.9868 32.8606 74.5333C33.1938 74.2002 34.9206 74.026 34.4817 74.4655C33.8824 75.0648 33.2832 75.6638 32.684 76.2629C32.0848 76.8619 31.4856 77.461 30.8862 78.0603H35.6859C36.8724 78.0603 35.4933 78.8867 34.9487 78.8867H31.2921C31.8251 79.4197 32.358 79.9524 32.8909 80.4852C33.4238 81.0179 33.9566 81.5506 34.4897 82.0836C35.0233 82.6173 33.3423 83.2988 32.8539 82.8104L30.5904 80.5469V84.0103C30.5904 84.7273 28.8043 85.044 28.8043 84.176V80.1416C28.6151 80.3308 28.4259 80.5201 28.2367 80.7093C28.2346 80.7113 28.2326 80.7134 28.2305 80.7155C27.665 81.2811 27.0995 81.8467 26.534 82.4113C26.2009 82.7456 24.4741 82.9186 24.913 82.4791C25.5123 81.8798 26.1115 81.2807 26.7107 80.6817C27.3099 80.0826 27.9091 79.4836 28.5084 78.8843ZM46.3317 78.8843H41.532C40.3456 78.8843 41.7252 78.0591 42.2692 78.0585H45.9264C45.1328 77.2658 44.3396 76.4724 43.5461 75.6789C43.5432 75.6759 43.5402 75.673 43.5373 75.67C43.5343 75.6671 43.5313 75.6641 43.5284 75.6611C43.2619 75.3946 42.9954 75.1281 42.7289 74.8616C42.1952 74.3279 43.8762 73.6464 44.3646 74.1348C44.86 74.6297 45.3551 75.1249 45.8501 75.62C45.857 75.627 45.8639 75.6339 45.8708 75.6408C46.1232 75.8933 46.3757 76.1458 46.6281 76.3983V72.9349C46.6281 72.2172 48.4142 71.9006 48.4142 72.7698V76.8029C48.6034 76.6137 48.7926 76.4245 48.9818 76.2353C48.9839 76.2332 48.9859 76.2311 48.988 76.2291C49.5535 75.6635 50.119 75.0979 50.6845 74.5333C51.0176 74.2002 52.7444 74.026 52.3055 74.4655C51.8266 74.9444 51.3477 75.4231 50.8689 75.9018C50.8605 75.9101 50.8522 75.9184 50.8439 75.9267C50.1325 76.6378 49.4212 77.3488 48.7101 78.0603H53.5097C54.6962 78.0603 53.3166 78.8867 52.7726 78.8867H49.1148C49.6478 79.4197 50.1808 79.9524 50.7138 80.4852C51.2468 81.0179 51.7799 81.5506 52.3129 82.0836C52.8465 82.6173 51.1655 83.2988 50.6771 82.8104C50.1744 82.308 49.6719 81.8054 49.1695 81.3029C48.9175 81.0508 48.6656 80.7988 48.4136 80.5469V84.0103C48.4136 84.7273 46.6275 85.044 46.6275 84.176V80.1416C45.8708 80.8984 45.1134 81.6557 44.3573 82.4113C44.0241 82.7456 42.2973 82.9186 42.7362 82.4791C43.3356 81.8798 43.9347 81.2807 44.5339 80.6817C45.1331 80.0826 45.7323 79.4836 46.3317 78.8843ZM64.1555 78.8843H59.3559C58.1688 78.8843 59.5484 78.0591 60.0937 78.0585H63.7502C62.6842 76.9936 61.6182 75.9276 60.5527 74.8616C60.0191 74.3279 61.7001 73.6464 62.1885 74.1348L62.2006 74.1469C62.9503 74.8972 63.7017 75.6492 64.452 76.3983V72.9349C64.452 72.2172 66.2381 71.9006 66.2381 72.7698V76.8029C66.9942 76.0462 67.7516 75.2888 68.5083 74.5333C68.8415 74.2002 70.5683 74.026 70.1294 74.4655C68.9301 75.6641 67.732 76.8616 66.5333 78.0603H71.3342C72.5201 78.0603 71.141 78.8867 70.597 78.8867H66.9392C67.4722 79.4197 68.0053 79.9524 68.5383 80.4852C69.0713 81.0179 69.6043 81.5506 70.1373 82.0836C70.671 82.6173 68.99 83.2988 68.5016 82.8104C67.7467 82.0561 66.9918 81.3012 66.2381 80.5469V84.0103C66.2381 84.7273 64.452 85.044 64.452 84.176V80.1404C64.264 80.3284 64.076 80.5165 63.8879 80.7046C63.3188 81.2738 62.7493 81.8434 62.1805 82.4113C61.8474 82.7456 60.1212 82.9186 60.5601 82.4791C61.1594 81.8798 61.7586 81.2807 62.3578 80.6817C62.957 80.0826 63.5562 79.4836 64.1555 78.8843Z" fill="white"/>
<path fill-rule="evenodd" clip-rule="evenodd" d="M227.981 203.637C225.778 207.177 222.181 208.185 218.187 208.091C216.987 208.062 218 206.843 218.815 206.862C228.798 207.098 228.731 195.79 228.684 188.062L228.683 187.782C228.683 187.779 228.682 187.778 228.682 187.776V187.647C228.679 187.205 228.677 186.774 228.678 186.362C228.678 186.353 228.682 186.347 228.682 186.338V28.8592C228.682 28.8506 228.678 28.8439 228.678 28.8341C228.605 20.4446 226.406 10.2646 217.658 8.462C218.841 9.1998 219.838 10.2481 220.544 11.7035C223.014 16.8063 222.713 23.161 222.725 28.6813C222.725 28.6899 222.722 28.6966 222.721 28.7052V186.18C222.722 186.191 222.725 186.198 222.725 186.209C222.713 191.627 223.25 198.795 220.239 203.635C218.036 207.176 214.44 208.185 210.445 208.09C210.285 208.086 210.168 208.06 210.08 208.02H116.96C116.897 208.033 116.829 208.043 116.759 208.045C113.207 208.158 109.345 207.392 107.252 204.201C104.54 200.066 104.5 194.816 104.691 190.042C104.695 189.943 104.739 189.852 104.805 189.771V158.991C104.805 158.843 104.964 158.719 105.184 158.622C104.696 157.824 104.265 157.004 103.911 156.158C103.454 156.719 103.011 157.266 102.632 157.809C102.542 157.936 102.302 158.046 102.031 158.118C99.2974 167.622 98.4241 177.622 97.5671 187.437L97.511 188.08C96.8863 195.228 94.8239 205.73 87.265 208.96C81.4592 211.443 76.346 208.082 72.1649 204.231C72.4088 213.155 75.1198 221.762 75.8087 230.644C75.841 231.049 75.3117 231.35 74.8245 231.428C74.4296 231.492 74.0611 231.41 74.0384 231.117C73.3251 221.923 70.4925 213.03 70.3672 203.775C70.3641 203.546 70.5885 203.355 70.877 203.238C70.9338 203.216 70.9919 203.195 71.053 203.177C70.6294 202.777 70.2064 202.374 69.7865 201.971C66.7736 199.071 63.8432 196.082 60.9665 193.049C60.8009 192.876 60.8339 192.693 60.969 192.537C60.2605 192.734 59.5503 192.921 58.8369 193.091C58.0288 193.282 57.7061 192.846 58.0716 192.515C58.0038 192.49 57.9445 192.456 57.9023 192.407C54.7677 188.752 53.7744 183.582 49.9559 180.487C49.4858 180.105 51.1246 179.412 51.6026 179.801C55.4279 182.902 56.4157 188.067 59.549 191.72C59.6291 191.813 59.6377 191.911 59.5961 192.004C62.3541 191.299 65.0846 190.393 67.7009 189.293C71.6814 187.62 77.541 185.089 78.3191 180.263C78.3411 180.125 78.4609 180.004 78.626 179.907C73.9284 172.567 69.7761 164.063 62.5546 158.848C55.8209 153.987 47.6184 156.056 39.9709 154.224C39.4097 154.088 40.977 153.393 41.4153 153.497C43.2552 153.938 45.1684 154.135 47.1037 154.258C46.2247 150.932 39.1132 149.839 36.428 149.219C33.7928 148.607 31.1314 148.086 28.4559 147.678C28.4442 149.415 28.2535 151.116 27.6447 152.606C26.0371 156.539 24.3457 160.927 24.4631 165.238C24.6935 173.621 26.1239 181.954 27.4491 190.216C28.833 198.846 30.4162 207.516 30.9712 216.249C31.2157 220.103 31.6558 225.062 30.2621 229.034C30.2077 229.189 30.157 229.347 30.0965 229.5C29.7322 230.417 29.2646 231.275 28.66 232.045C28.6454 232.065 28.6233 232.084 28.5989 232.104C28.2016 232.411 26.7046 232.604 27.0518 232.161C30.5672 227.68 29.5078 219.833 29.0341 214.603C28.2578 206.027 26.7608 197.535 25.4124 189.037C24.1813 181.282 22.2057 172.816 22.6978 164.921C22.9465 160.929 24.1941 157.069 25.6997 153.386C26.9045 150.44 26.6777 146.934 26.4534 143.696C26.2003 143.701 25.9631 143.632 25.8219 143.453C23.633 140.696 20.988 137.773 18.6652 134.69L17.6683 133.895C17.6683 133.895 17.6842 133.71 17.5839 133.211C14.8357 129.299 12.7892 125.138 12.9652 120.744C12.7445 118.613 13.354 117.044 14.0698 115.979C14.4426 115.105 14.9047 114.224 15.4916 113.333C18.4177 108.892 23.3212 105.888 28.0793 103.742C33.1589 101.451 38.612 99.5517 44.2344 99.4245C44.3597 99.4221 44.4636 99.4367 44.5559 99.4594C46.6391 99.4545 49.2877 100.035 50.1967 102.126C51.602 105.367 48.6777 108.968 46.2687 111.463C46.3469 111.493 46.416 111.529 46.4753 111.572C46.4882 111.572 46.501 111.571 46.5138 111.572C48.2749 111.769 49.1771 113.634 49.9375 115.026C51.4314 117.764 52.8404 120.534 54.923 122.886C56.214 122.628 57.9182 122.528 58.6841 123.524C59.6951 124.837 58.0404 126.333 57.0844 127.085C56.8601 127.261 56.5624 127.376 56.2635 127.417C56.4634 132.14 59.0735 137.114 55.0287 140.903C53.2237 142.595 50.8458 143.027 48.5952 143.794C45.4197 144.873 44.9533 147.397 46.2644 150.163C46.4044 150.456 46.1636 150.72 45.817 150.868C47.3806 151.609 48.6392 152.588 48.913 153.932C48.943 154.074 48.751 154.219 48.487 154.331C48.4821 154.332 48.4772 154.335 48.4735 154.337C48.4864 154.338 48.4998 154.338 48.5127 154.339C54.0623 154.612 59.6927 154.607 64.2173 158.226C71.3208 163.911 75.5098 171.819 80.3351 179.341C81.3767 176.851 83.0173 174.618 84.7282 172.402C88.1103 168.018 90.2155 163.144 92.63 158.214C91.8763 155.623 90.3451 153.341 89.6257 150.737C89.6147 150.698 89.6128 150.662 89.6128 150.624C89.3158 150.604 89.0175 150.582 88.7192 150.573C88.4863 150.567 88.4276 150.511 88.4728 150.433C88.427 150.415 88.4037 150.392 88.4178 150.359C88.4997 150.18 88.5816 150 88.6623 149.819C88.5932 149.781 88.5297 149.734 88.4796 149.673C87.8713 148.915 87.2106 147.803 87.7008 146.811C88.0584 146.088 88.7002 145.641 89.4111 145.325C89.2455 144.744 89.2381 144.137 89.6098 143.632C89.9955 143.11 90.512 142.772 91.086 142.561C90.9038 141.99 90.8525 141.378 91.1178 140.837C91.5481 139.956 92.4283 139.545 93.3593 139.454C94.5598 136.806 95.7591 134.159 96.959 131.513C96.7689 131.421 96.6393 131.258 96.6436 131.005C97.0427 110.528 97.4431 90.0508 97.841 69.5735C97.8569 68.7654 99.6553 68.5063 99.637 69.4409C99.637 69.4537 99.6363 69.4647 99.6363 69.4782C101.69 69.5589 103.609 69.32 105.407 68.823C105.185 68.8862 105.186 68.2898 105.214 67.9836V26.0107C105.214 25.839 105.354 25.6886 105.552 25.5737C105.475 25.5162 105.423 25.4374 105.419 25.3292C105.228 20.5656 105.097 14.4842 108.371 10.5751C110.771 7.70954 114.226 6.88251 117.836 6.9962C117.93 6.99987 118.005 7.01026 118.073 7.02615H210.555C210.665 6.98581 210.785 6.9583 210.918 6.95586C211.96 6.93079 212.994 6.98825 213.987 7.15146C214.143 7.03776 214.347 6.96013 214.586 6.95586C227.017 6.66306 230.38 18.1725 230.471 28.6844C230.471 28.6942 230.468 28.7009 230.467 28.7107V186.185C230.468 186.196 230.471 186.202 230.471 186.212C230.456 191.629 230.993 198.797 227.981 203.637ZM113.735 63.2867C113.735 63.5874 114.002 63.7164 114.328 63.7262C112.092 65.724 109.613 67.3549 106.835 68.3663C106.936 68.3301 106.979 67.9584 106.989 67.777V25.8041C106.989 25.6385 106.904 25.5272 106.777 25.4569C107.023 25.3114 107.2 25.1036 107.19 24.8567C106.898 17.5093 107.737 7.84646 117.186 8.14354C117.266 8.14598 117.348 8.13253 117.431 8.11358H210.297C210.411 8.16004 210.555 8.18999 210.743 8.18388C221.702 7.92348 220.923 21.0143 220.939 28.8366C220.939 28.8476 220.942 28.8531 220.942 28.8629V186.34C220.942 186.349 220.939 186.356 220.939 186.364C220.938 186.776 220.94 187.207 220.942 187.649V187.779C220.942 187.779 220.944 187.782 220.944 187.784L220.945 188.067C220.991 195.797 221.059 207.102 211.077 206.865C210.954 206.862 210.827 206.89 210.702 206.935H117.279C117.188 206.917 117.085 206.906 116.961 206.91C107.239 207.214 106.171 197.503 106.477 189.867C106.48 189.805 106.47 189.753 106.455 189.704C106.531 189.639 106.578 189.566 106.578 189.487V160.686C107.618 162.094 108.753 163.437 109.818 164.729C111.075 166.256 112.368 167.712 113.738 169.088V195.215C113.738 195.279 113.753 195.332 113.775 195.38C113.764 195.507 113.864 195.602 114.128 195.63C114.264 195.661 114.421 195.662 114.582 195.64H210.268C210.75 195.816 211.598 195.555 211.707 195.116C211.87 194.931 211.913 194.747 211.721 194.652V23.0382C211.929 22.7924 211.918 22.5522 211.405 22.532C211.191 22.4495 210.903 22.4556 210.636 22.5271H115.072C114.545 22.4385 113.735 22.7405 113.735 23.1574V63.2867ZM45.4429 112.61C45.5297 112.682 45.666 112.737 45.872 112.759C47.0542 112.892 48.0762 115.08 48.7259 116.471C48.8761 116.792 49.0064 117.071 49.1141 117.272C50.3128 119.51 51.5757 121.689 53.2591 123.599C53.2457 123.644 53.2408 123.69 53.2542 123.742C53.3478 124.09 54.0214 123.972 54.2481 123.909C55.1204 123.665 56.3374 123.447 57.0331 124.197C57.8149 125.039 56.3986 126.275 55.7696 126.778C55.2341 126.662 54.4523 126.96 54.4688 127.453C54.5221 129.045 54.8008 130.597 55.08 132.152C55.2362 133.022 55.3925 133.893 55.5098 134.772C56.1596 139.652 52.3471 141.446 48.2895 142.654C44.5248 143.775 42.79 146.585 44.3334 150.261C42.8665 149.738 41.3194 149.371 40.1263 149.088C39.7329 148.995 39.378 148.911 39.0772 148.833C35.6333 147.948 32.1069 147.286 28.583 146.8C28.5463 146.795 28.498 146.798 28.4455 146.804C28.4171 145.655 28.3281 144.506 28.2429 143.405L28.2291 143.226C28.3206 143.182 28.4123 143.138 28.5043 143.094C31.2154 141.793 34.0796 140.419 35.5264 137.715C35.6773 137.748 35.8295 137.781 35.9854 137.793C37.8718 137.969 39.5381 136.699 40.5442 135.246C40.653 135.088 39.0925 135.143 38.7997 135.565C38.0142 136.7 37.307 137.454 35.9897 136.677C35.9437 136.65 35.9002 136.619 35.8567 136.589C35.8402 136.577 35.8236 136.565 35.8069 136.554C35.7354 136.504 35.6651 136.451 35.5991 136.394C35.0153 135.902 34.6192 135.199 34.3815 134.485C34.0954 133.626 34.192 132.609 34.5275 131.784C35.06 130.48 36.3589 130.639 37.5166 130.851C37.6022 130.865 37.6939 130.867 37.785 130.865C37.9659 131.45 39.5344 131.085 39.5399 130.526C39.5437 130.072 39.5529 129.614 39.5621 129.155C39.6406 125.252 39.7215 121.228 36.5117 118.517C38.2755 117.792 39.7385 116.617 41.1992 115.444L41.2441 115.408L41.9006 115.148L44.0217 113.368C44.2216 113.244 44.4251 113.127 44.6317 113.013C44.6806 112.987 44.7302 112.961 44.7797 112.936C44.9973 112.822 45.2167 112.712 45.4429 112.61ZM35.3931 117.732L37.1566 117.032C36.6101 117.333 36.0319 117.583 35.42 117.776C35.4041 117.751 35.3931 117.732 35.3931 117.732ZM115.692 62.4303C115.668 62.4538 115.645 62.4775 115.622 62.5013C115.584 62.5395 115.547 62.5778 115.508 62.6155C115.508 60.2982 115.508 57.9797 115.507 55.663V23.5828H209.935V194.586H115.507V170.775C116.397 171.578 117.32 172.354 118.294 173.088C126.441 179.229 135.582 184.543 145.325 187.701C145.361 187.711 145.397 187.717 145.435 187.723C145.591 187.772 145.78 187.781 146.002 187.722C150.915 186.427 155.719 184.926 160.368 182.863C166.137 180.305 172.584 177.178 177.36 173.008C179.626 171.03 181.71 168.81 183.673 166.489C185.325 164.536 186.891 162.515 188.395 160.491C189.663 158.785 190.902 157.019 192.061 155.196C194.422 151.477 196.441 147.516 197.639 143.316C197.642 143.305 197.645 143.297 197.648 143.286C197.649 143.281 197.649 143.276 197.651 143.272C197.672 143.217 197.693 143.162 197.694 143.1L198.892 72.7032C198.903 71.9709 197.814 71.9709 197.326 72.3902C197.066 72.3879 196.807 72.3743 196.549 72.3608L196.516 72.359C193.363 72.1812 190.475 71.1451 187.835 69.5595C181.622 65.8283 176.768 59.0745 172.999 53.3775C172.99 53.3629 172.976 53.3549 172.964 53.3427C172.977 53.1813 172.838 53.0609 172.443 53.0609H123.542C122.988 53.0609 122.205 53.6972 122.383 54.0053C122.355 54.0291 122.331 54.0542 122.314 54.0817C120.36 57.0243 118.181 59.9388 115.692 62.4303ZM93.5402 142.773C93.5518 142.704 93.5433 142.646 93.5261 142.594C95.2071 138.883 96.8881 135.173 98.5697 131.464C101.597 131.651 104.638 132.272 107.592 132.911C106.96 134.939 105.936 136.776 104.912 138.613C104.067 140.128 103.223 141.642 102.598 143.265C101.927 142.779 101.272 142.339 100.704 141.957L100.7 141.954C100.525 141.836 100.357 141.724 100.201 141.617C99.7708 141.326 98.7139 141.599 98.4927 142.076C97.3496 144.537 97.9584 146.855 99.6522 148.852C99.0685 149.416 98.8044 150.283 98.6051 151.107C97.7222 150.968 96.8409 150.803 95.9593 150.638C94.062 150.283 92.1632 149.927 90.243 149.838C90.7458 148.729 91.2483 147.62 91.7507 146.512C91.7585 146.495 91.7662 146.477 91.7739 146.46C91.7815 146.444 91.7891 146.427 91.7967 146.41C92.2839 145.335 92.771 144.26 93.2584 143.185C93.4021 143.075 93.5133 142.937 93.5402 142.773ZM104.203 131.12C104.237 131.047 104.259 130.969 104.257 130.881C104.12 121.237 104.476 111.601 104.833 101.965C105.175 92.7018 105.518 83.4382 105.421 74.1665C114.231 72.4581 120.487 66.0172 125.442 58.7524H168.443C173.824 66.7202 181.009 75.6409 191.456 75.438C191.277 85.9871 191.099 96.5361 190.92 107.085C190.741 117.634 190.563 128.183 190.384 138.732C190.381 138.922 190.456 139.061 190.571 139.158C190.49 139.215 190.429 139.277 190.408 139.345C184.125 159.361 167.154 174.274 147.514 180.717C131.087 175.456 116.218 163.776 107.283 149.026C107.093 147.286 105.589 145.645 103.905 144.267C103.906 144.263 103.908 144.26 103.91 144.257C103.913 144.253 103.915 144.249 103.916 144.245C104.54 142.127 105.603 140.225 106.667 138.323C107.73 136.421 108.794 134.518 109.418 132.4C109.431 132.357 109.421 132.323 109.403 132.293C109.388 132.209 109.299 132.136 109.091 132.091C107.481 131.743 105.847 131.401 104.203 131.12ZM91.1459 144.042C91.1893 143.838 91.3115 143.709 91.468 143.621L91.422 143.722C91.3186 143.95 91.215 144.179 91.1123 144.406C91.111 144.285 91.1196 144.165 91.1459 144.042ZM90.0792 146.685C89.9737 146.918 89.8682 147.151 89.7628 147.384C89.674 147.58 89.5853 147.776 89.4967 147.972C89.3799 147.705 89.317 147.422 89.3641 147.118C89.4075 146.838 89.6568 146.643 89.9435 146.503C89.9479 146.51 89.9523 146.517 89.9567 146.525C89.9604 146.531 89.9641 146.537 89.9678 146.544C89.9778 146.561 89.9878 146.578 89.9979 146.594C90.0205 146.629 90.0487 146.659 90.0792 146.685ZM79.5374 181.824C79.5352 181.834 79.5332 181.845 79.5312 181.855C79.5298 181.862 79.5284 181.87 79.5269 181.877C79.5246 181.889 79.522 181.901 79.519 181.913L79.5149 181.913L79.5103 181.912C79.5046 181.912 79.4988 181.912 79.4928 181.911C79.5068 181.881 79.5239 181.854 79.5374 181.824ZM99.7995 143.146C101.799 144.584 103.718 146.223 105.03 148.305C106.687 150.937 104.252 153.87 102.315 156.203C102.26 156.27 102.205 156.336 102.151 156.401C101.683 156.256 100.768 156.512 100.618 157C98.0299 165.426 96.838 174.5 96.0959 183.268C96.0465 183.852 95.9991 184.443 95.9515 185.038C95.3179 192.947 94.6238 201.612 88.0822 207.043C82.3097 211.834 75.8234 205.523 71.6398 201.451C71.5461 201.36 71.4536 201.27 71.3623 201.182C71.2996 201.121 71.2375 201.06 71.1759 201.001C71.1458 200.971 71.1159 200.942 71.086 200.914C68.1893 198.11 65.3677 195.226 62.5944 192.302C62.5216 192.226 62.4238 192.177 62.3126 192.147C64.7723 191.4 67.1923 190.498 69.5377 189.477C72.5885 188.151 76.5996 186.207 78.7177 183.24C78.8949 183.417 79.0728 183.595 79.2501 183.772C79.2468 183.813 79.2432 183.855 79.2396 183.896C79.2313 183.991 79.223 184.086 79.2183 184.183C79.1957 184.705 79.7391 184.861 80.2342 184.757C80.5683 185.09 80.9024 185.425 81.2365 185.759C81.3994 185.922 81.5622 186.085 81.7251 186.248C82.035 186.559 83.639 185.899 83.3975 185.656C82.8854 185.144 82.3736 184.632 81.8615 184.12C81.5991 183.858 81.3367 183.596 81.0741 183.333C81.5049 179.091 84.0118 175.816 86.5313 172.524L86.5322 172.522C86.9829 171.934 87.4341 171.344 87.8738 170.748C89.9217 167.975 91.3733 164.804 92.8138 161.658L92.8144 161.657C93.3391 160.511 93.8624 159.368 94.4125 158.249C94.5207 158.029 94.4975 157.862 94.399 157.743C94.0298 156.471 93.4756 155.273 92.9215 154.075C92.4297 153.012 91.938 151.949 91.5756 150.835C92.648 150.988 93.7168 151.189 94.7851 151.389L94.7868 151.39C96.1037 151.637 97.4199 151.884 98.7415 152.042C99.0611 152.08 100.088 151.919 100.186 151.513C100.212 151.408 100.242 151.258 100.278 151.083C100.416 150.397 100.634 149.316 100.977 148.92C101.336 148.762 101.589 148.533 101.422 148.343C100.043 146.774 99.4028 145.023 99.7995 143.146ZM111.921 164.515C111.743 164.306 111.562 164.095 111.38 163.881C109.146 161.27 106.646 158.348 105.453 155.153C105.379 154.95 105.22 154.827 105.028 154.764C105.779 153.794 106.465 152.778 106.887 151.697C115.908 165.489 130.115 176.289 145.725 181.471C145.6 181.673 145.838 181.813 146.377 181.683C146.558 181.741 146.738 181.802 146.919 181.859C147.401 182.01 148.515 181.447 148.305 181.073C168.27 174.36 185.722 159.54 192.157 139.036C192.175 138.976 192.141 138.935 192.077 138.905C192.14 138.814 192.179 138.714 192.181 138.6C192.411 125.009 192.641 111.419 192.872 97.8293C192.879 97.4028 192.886 96.9763 192.893 96.5498C193.014 89.3942 193.136 82.2385 193.257 75.0828C193.268 74.3518 192.183 74.3505 191.695 74.7674C181.938 74.5847 174.97 65.3564 170.001 57.9614C169.994 57.9517 169.985 57.9443 169.976 57.9367C169.973 57.9338 169.969 57.9309 169.966 57.9278C169.979 57.7652 169.84 57.6448 169.445 57.6448H125.528C125.209 57.6448 124.811 57.8569 124.567 58.0971C124.387 58.1613 124.241 58.2462 124.171 58.3514C119.682 65.0893 113.795 72.139 105.407 73.5706C105.283 72.7136 103.609 72.9618 103.619 73.776C103.62 73.8141 103.62 73.852 103.62 73.8898C103.62 73.9216 103.62 73.9534 103.62 73.9853C103.62 74.0025 103.62 74.0198 103.621 74.037C103.621 74.0618 103.621 74.0866 103.621 74.1115C103.355 74.2882 103.24 74.4514 103.623 74.4386C103.714 83.6584 103.374 92.8705 103.033 102.083C102.679 111.668 102.324 121.253 102.456 130.846C101.305 130.686 100.152 130.57 99 130.511L99.0202 130.466C99.0642 130.37 98.7897 130.339 98.4456 130.367C98.6396 120.421 98.8334 110.475 99.0272 100.528C99.0325 100.259 99.0377 99.9889 99.043 99.7192C99.2348 89.8749 99.4266 80.0304 99.6186 70.186C110.353 70.1224 118.015 62.7195 123.782 54.1655H171.437C177.36 63.0783 185.392 73.3511 197.091 73.0504C196.693 96.4287 196.296 119.807 195.898 143.185C192.786 153.974 184.656 164.289 176.503 171.825C176.433 171.89 176.361 171.953 176.289 172.016L176.288 172.017L176.287 172.018L176.286 172.019C176.242 172.057 176.198 172.095 176.155 172.134C171.928 175.906 166.238 178.627 161.091 181.034C160.879 181.134 160.668 181.232 160.458 181.33L160.264 181.421C155.679 183.564 150.875 185.04 145.997 186.335C136.821 183.307 128.371 178.356 120.576 172.708C117.275 170.317 114.56 167.613 111.921 164.515Z" fill="#340679"/>
<path d="M114.328 63.7262C114.002 63.7164 113.735 63.5874 113.735 63.2867V23.1574C113.735 22.7405 114.545 22.4385 115.072 22.5271H210.636C210.903 22.4556 211.191 22.4495 211.405 22.532C211.918 22.5522 211.929 22.7924 211.721 23.0382V194.652C211.913 194.747 211.87 194.931 211.707 195.116C211.598 195.555 210.75 195.816 210.268 195.64H114.582C114.421 195.662 114.264 195.661 114.128 195.63C113.864 195.602 113.764 195.507 113.775 195.38C113.753 195.332 113.738 195.279 113.738 195.215V169.088C112.368 167.712 111.075 166.256 109.818 164.729C108.753 163.437 107.618 162.094 106.578 160.686V189.487C106.578 189.566 106.531 189.639 106.455 189.704C106.47 189.753 106.48 189.805 106.477 189.867C106.171 197.503 107.239 207.214 116.961 206.91C117.085 206.906 117.188 206.917 117.279 206.935H210.702C210.827 206.89 210.954 206.862 211.077 206.865C221.059 207.102 220.991 195.797 220.945 188.067L220.944 187.784C220.944 187.782 220.942 187.779 220.942 187.779V187.649C220.94 187.207 220.938 186.776 220.939 186.364C220.939 186.356 220.942 186.349 220.942 186.34V28.8629C220.942 28.8531 220.939 28.8476 220.939 28.8366C220.923 21.0143 221.702 7.92348 210.743 8.18388C210.555 8.18999 210.411 8.16004 210.297 8.11358H117.431C117.348 8.13253 117.266 8.14598 117.186 8.14354C107.737 7.84646 106.898 17.5093 107.19 24.8567C107.2 25.1036 107.023 25.3114 106.777 25.4569C106.904 25.5272 106.989 25.6385 106.989 25.8041V67.777C106.979 67.9584 106.936 68.3301 106.835 68.3663C109.613 67.3549 112.092 65.724 114.328 63.7262Z" fill="white"/>
<path fill-rule="evenodd" clip-rule="evenodd" d="M104.257 130.881C104.259 130.969 104.237 131.047 104.203 131.12C105.847 131.401 107.481 131.743 109.091 132.091C109.299 132.136 109.388 132.209 109.403 132.293C109.421 132.323 109.431 132.357 109.418 132.4C108.794 134.518 107.73 136.421 106.667 138.323C105.603 140.225 104.54 142.127 103.916 144.245C103.915 144.249 103.913 144.253 103.91 144.257C103.908 144.26 103.906 144.263 103.905 144.267C105.589 145.645 107.093 147.286 107.283 149.026C116.218 163.776 131.087 175.456 147.514 180.717C167.154 174.274 184.125 159.361 190.408 139.345C190.429 139.277 190.49 139.215 190.571 139.158C190.456 139.061 190.381 138.922 190.384 138.732C190.563 128.183 190.741 117.634 190.92 107.085C191.099 96.5361 191.277 85.9871 191.456 75.438C181.009 75.6409 173.824 66.7202 168.443 58.7524H125.442C120.487 66.0172 114.231 72.4581 105.421 74.1665C105.518 83.4382 105.175 92.7018 104.833 101.965C104.476 111.601 104.12 121.237 104.257 130.881ZM122.473 145.509C122.473 145.646 122.521 145.748 122.599 145.827C122.549 146.027 122.678 146.185 123.121 146.185H169.17C169.468 146.185 169.816 146.008 170.058 145.791C170.242 145.673 170.369 145.517 170.369 145.334V109.065C170.369 108.479 169.509 108.46 168.984 108.733H164.808C164.809 108.472 164.81 108.207 164.811 107.941C164.858 95.963 164.921 79.7329 149.794 77.9564C142.614 77.1141 135.995 80.0438 132.607 86.5012C129.221 92.9551 129.232 100.943 129.241 108.126L129.242 108.733H123.771C123.279 108.733 122.653 109.216 122.595 109.556C122.52 109.644 122.473 109.743 122.473 109.853V145.509Z" fill="white"/>
<path d="M137.491 108.733H157.831L157.832 108.49L157.835 107.99C157.877 100.423 157.957 85.9015 148.677 84.58C137.289 82.9581 137.417 99.1652 137.483 107.533C137.486 107.954 137.489 108.355 137.491 108.733Z" fill="white"/>
<path fill-rule="evenodd" clip-rule="evenodd" d="M122.599 145.827C122.521 145.748 122.473 145.646 122.473 145.509V109.853C122.473 109.743 122.52 109.644 122.595 109.556C122.653 109.216 123.279 108.733 123.771 108.733H129.242L129.241 108.126C129.232 100.943 129.221 92.9551 132.607 86.5012C135.995 80.0438 142.614 77.1141 149.794 77.9564C164.921 79.7329 164.858 95.963 164.811 107.941C164.81 108.207 164.809 108.472 164.808 108.733H168.984C169.509 108.46 170.369 108.479 170.369 109.065V145.334C170.369 145.517 170.242 145.673 170.058 145.791C169.816 146.008 169.468 146.185 169.17 146.185H123.121C122.678 146.185 122.549 146.027 122.599 145.827ZM135.698 108.733H131.035C131.038 102.323 131.092 95.7252 133.092 89.5752C135.595 81.8709 141.934 78.347 149.893 79.2816C163.242 80.8482 163.115 96.779 163.03 107.386C163.026 107.846 163.023 108.295 163.02 108.733H159.625L159.626 108.218C159.647 99.4563 159.683 84.7744 148.695 83.2096C135.635 81.3509 135.677 99.6234 135.697 108.447L135.698 108.733ZM157.831 108.733H137.491C137.489 108.355 137.486 107.954 137.483 107.533C137.417 99.1652 137.289 82.9581 148.677 84.58C157.957 85.9015 157.877 100.423 157.835 107.99L157.832 108.49L157.831 108.733ZM124.256 145.033V109.886H129.616C129.832 109.962 130.108 109.956 130.36 109.886H163.389C163.605 109.962 163.88 109.956 164.133 109.886H168.586V145.033H124.256Z" fill="#340679"/>
<path fill-rule="evenodd" clip-rule="evenodd" d="M35.3931 117.732L37.1566 117.032C36.6101 117.333 36.0319 117.583 35.42 117.776C35.4041 117.751 35.3931 117.732 35.3931 117.732ZM115.622 62.5013C115.584 62.5395 115.547 62.5778 115.508 62.6155C115.508 60.2982 115.508 57.9797 115.507 55.663V23.5828H209.935V194.586H115.507V170.775C116.397 171.578 117.32 172.354 118.294 173.088C126.441 179.229 135.582 184.543 145.325 187.701C145.361 187.711 145.397 187.717 145.435 187.723C145.591 187.772 145.78 187.781 146.002 187.722C150.915 186.427 155.719 184.926 160.368 182.863C166.137 180.305 172.584 177.178 177.36 173.008C179.626 171.03 181.71 168.81 183.673 166.489C185.325 164.536 186.891 162.515 188.395 160.491C189.663 158.785 190.902 157.019 192.061 155.196C194.422 151.477 196.441 147.516 197.639 143.316C197.642 143.305 197.645 143.297 197.648 143.286C197.649 143.281 197.649 143.276 197.651 143.272C197.672 143.217 197.693 143.162 197.694 143.1L198.892 72.7032C198.903 71.9709 197.814 71.9709 197.326 72.3902C197.066 72.3879 196.807 72.3743 196.549 72.3608L196.516 72.359C193.363 72.1812 190.475 71.1451 187.835 69.5595C181.622 65.8283 176.768 59.0745 172.999 53.3775C172.99 53.3629 172.976 53.3549 172.964 53.3427C172.977 53.1813 172.838 53.0609 172.443 53.0609H123.542C122.988 53.0609 122.205 53.6972 122.383 54.0053C122.355 54.0291 122.331 54.0542 122.314 54.0817C120.36 57.0243 118.181 59.9388 115.692 62.4303C115.668 62.4538 115.645 62.4775 115.622 62.5013ZM91.1459 144.042C91.1893 143.838 91.3115 143.709 91.468 143.621L91.422 143.722C91.3186 143.95 91.215 144.179 91.1123 144.406C91.111 144.285 91.1196 144.165 91.1459 144.042ZM89.7628 147.384L89.4967 147.972C89.3799 147.705 89.317 147.422 89.3641 147.118C89.4075 146.838 89.6568 146.643 89.9435 146.503L89.9567 146.525L89.9678 146.544C89.9778 146.561 89.9878 146.578 89.9979 146.594C90.0205 146.629 90.0487 146.659 90.0792 146.685L89.7628 147.384ZM79.5312 181.855L79.5269 181.877C79.5246 181.889 79.522 181.901 79.519 181.913L79.5149 181.913L79.5103 181.912L79.4928 181.911C79.5068 181.881 79.5239 181.854 79.5374 181.824C79.5352 181.834 79.5332 181.845 79.5312 181.855ZM22.2381 65.2122C15.3241 65.2122 9.69922 70.8364 9.69922 77.7504C9.69922 84.665 15.3241 90.2904 22.2381 90.291H73.8135C80.7281 90.291 86.353 84.6656 86.353 77.7504C86.353 70.8364 80.7281 65.2122 73.8135 65.2122H22.2381ZM22.2381 88.4572C16.3345 88.4572 11.533 83.654 11.533 77.7504C11.533 71.8486 16.3351 67.046 22.2381 67.046H73.8135C79.7171 67.046 84.5192 71.8493 84.5192 77.7504C84.5192 83.6546 79.7165 88.4572 73.8135 88.4572H22.2381ZM28.5084 78.8843H23.7088C22.5223 78.8843 23.9026 78.0591 24.4454 78.0585H28.1032C27.0371 76.9936 25.9711 75.9276 24.905 74.8616C24.3714 74.3279 26.0524 73.6464 26.5408 74.1348C27.0428 74.6364 27.5445 75.1382 28.0461 75.64L28.8043 76.3983V72.9349C28.8043 72.2172 30.5904 71.9006 30.5904 72.7698V76.8029L31.5004 75.8933C31.954 75.44 32.4075 74.9868 32.8606 74.5333C33.1938 74.2002 34.9206 74.026 34.4817 74.4655L32.684 76.2629L30.8862 78.0603H35.6859C36.8724 78.0603 35.4933 78.8867 34.9487 78.8867H31.2921L32.8909 80.4852L34.4897 82.0836C35.0233 82.6173 33.3423 83.2988 32.8539 82.8104L30.5904 80.5469V84.0103C30.5904 84.7273 28.8043 85.044 28.8043 84.176V80.1416L28.2367 80.7093L28.2305 80.7155C27.665 81.2811 27.0995 81.8467 26.534 82.4113C26.2009 82.7456 24.4741 82.9186 24.913 82.4791L26.7107 80.6817L28.5084 78.8843ZM46.3317 78.8843H41.532C40.3456 78.8843 41.7252 78.0591 42.2692 78.0585H45.9264C45.1328 77.2658 44.3396 76.4724 43.5461 75.6789L43.5373 75.67L43.5284 75.6611L42.7289 74.8616C42.1952 74.3279 43.8762 73.6464 44.3646 74.1348C44.86 74.6297 45.3551 75.1249 45.8501 75.62L45.8708 75.6408L46.6281 76.3983V72.9349C46.6281 72.2172 48.4142 71.9006 48.4142 72.7698V76.8029L48.9818 76.2353L48.988 76.2291C49.5535 75.6635 50.119 75.0979 50.6845 74.5333C51.0176 74.2002 52.7444 74.026 52.3055 74.4655L50.8689 75.9018L50.8439 75.9267C50.1325 76.6378 49.4212 77.3488 48.7101 78.0603H53.5097C54.6962 78.0603 53.3166 78.8867 52.7726 78.8867H49.1148C49.6478 79.4197 50.1808 79.9524 50.7138 80.4852C51.2468 81.0179 51.7799 81.5506 52.3129 82.0836C52.8465 82.6173 51.1655 83.2988 50.6771 82.8104C50.1744 82.308 49.6719 81.8054 49.1695 81.3029L48.4136 80.5469V84.0103C48.4136 84.7273 46.6275 85.044 46.6275 84.176V80.1416C45.8708 80.8984 45.1134 81.6557 44.3573 82.4113C44.0241 82.7456 42.2973 82.9186 42.7362 82.4791L44.5339 80.6817L46.3317 78.8843ZM64.1555 78.8843H59.3559C58.1688 78.8843 59.5484 78.0591 60.0937 78.0585H63.7502C62.6842 76.9936 61.6182 75.9276 60.5527 74.8616C60.0191 74.3279 61.7001 73.6464 62.1885 74.1348L62.2006 74.1469C62.9503 74.8972 63.7017 75.6492 64.452 76.3983V72.9349C64.452 72.2172 66.2381 71.9006 66.2381 72.7698V76.8029C66.9942 76.0462 67.7516 75.2888 68.5083 74.5333C68.8415 74.2002 70.5683 74.026 70.1294 74.4655C68.9301 75.6641 67.732 76.8616 66.5333 78.0603H71.3342C72.5201 78.0603 71.141 78.8867 70.597 78.8867H66.9392C67.4722 79.4197 68.0053 79.9524 68.5383 80.4852C69.0713 81.0179 69.6043 81.5506 70.1373 82.0836C70.671 82.6173 68.99 83.2988 68.5016 82.8104C67.7467 82.0561 66.9918 81.3012 66.2381 80.5469V84.0103C66.2381 84.7273 64.452 85.044 64.452 84.176V80.1404L63.8879 80.7046C63.3188 81.2738 62.7493 81.8434 62.1805 82.4113C61.8474 82.7456 60.1212 82.9186 60.5601 82.4791L62.3578 80.6817L64.1555 78.8843ZM43.3077 121.16C42.9159 122.1 44.699 122.085 45.0016 121.361C45.3396 120.55 45.8549 119.802 46.762 119.624C47.1135 119.556 47.5958 119.194 47.4863 118.781C47.3671 118.335 46.7889 118.345 46.438 118.413C44.9716 118.701 43.8689 119.814 43.3077 121.16ZM49.5597 134.52C50.8532 135.01 52.0378 134.941 53.3184 134.457C53.6748 134.321 53.9731 133.843 53.7231 133.493C53.4407 133.098 52.8954 133.186 52.5128 133.332C51.8379 133.587 51.2297 133.518 50.5659 133.268C50.1441 133.107 49.5976 133.251 49.3134 133.604C49.0487 133.933 49.16 134.369 49.5597 134.52Z" fill="#340679"/>
<path fill-rule="evenodd" clip-rule="evenodd" d="M141.792 134.386C141.769 134.331 141.759 134.267 141.776 134.189C142.325 131.593 142.876 128.997 143.424 126.402C143.43 126.374 143.442 126.351 143.454 126.324C139.584 124.77 143.683 120.201 146.417 119.863C148.135 119.651 149.887 120.417 150.641 122.047C151.371 123.623 150.86 125.071 149.519 125.953C149.539 125.987 149.555 126.024 149.563 126.065C150.111 128.661 150.661 131.257 151.21 133.853C151.281 134.194 150.89 134.476 150.456 134.595C150.229 134.733 149.964 134.835 149.753 134.835H142.201C141.65 134.834 141.611 134.618 141.792 134.386ZM145.139 125.931C145.27 125.807 145.283 125.689 145.081 125.618C143.863 125.192 143.388 124.3 143.798 123.075C144.112 122.14 145.124 120.912 146.138 120.706C147.35 120.46 148.523 121.775 148.968 122.733C149.515 123.917 149.187 125.221 148 125.813C147.797 125.915 147.462 126.241 147.791 126.392C147.782 126.44 147.779 126.488 147.791 126.539L149.332 133.817H143.59L144.051 131.639C144.435 129.826 144.818 128.013 145.202 126.201C145.227 126.087 145.199 125.998 145.139 125.931Z" fill="#340679"/>
<path d="M105.03 148.305C103.718 146.223 101.799 144.584 99.7995 143.146C99.4028 145.023 100.043 146.774 101.422 148.343C101.589 148.533 101.336 148.762 100.977 148.92C100.634 149.316 100.416 150.397 100.278 151.083C100.242 151.258 100.212 151.408 100.186 151.513C100.088 151.919 99.0611 152.08 98.7415 152.042C97.4199 151.884 96.1037 151.637 94.7868 151.39L94.7851 151.389C93.7168 151.189 92.648 150.988 91.5756 150.835C91.938 151.949 92.4297 153.012 92.9215 154.075C93.4756 155.273 94.0298 156.471 94.399 157.743C94.4975 157.862 94.5207 158.029 94.4125 158.249C93.8624 159.368 93.3391 160.511 92.8144 161.657L92.8138 161.658C91.3733 164.804 89.9217 167.975 87.8738 170.748C87.4341 171.344 86.9829 171.934 86.5322 172.522L86.5313 172.524C84.0118 175.816 81.5049 179.091 81.0741 183.333L81.8615 184.12C82.3736 184.632 82.8854 185.144 83.3975 185.656C83.639 185.899 82.035 186.559 81.7251 186.248L81.2365 185.759C80.9024 185.425 80.5683 185.09 80.2342 184.757C79.7391 184.861 79.1957 184.705 79.2183 184.183C79.223 184.086 79.2313 183.991 79.2396 183.896C79.2432 183.855 79.2468 183.813 79.2501 183.772C79.0728 183.595 78.8949 183.417 78.7177 183.24C76.5996 186.207 72.5885 188.151 69.5377 189.477C67.1923 190.498 64.7723 191.4 62.3126 192.147C62.4238 192.177 62.5216 192.226 62.5944 192.302C65.3677 195.226 68.1893 198.11 71.086 200.914L71.1759 201.001L71.3623 201.182L71.6398 201.451C75.8234 205.523 82.3097 211.834 88.0822 207.043C94.6238 201.612 95.3179 192.947 95.9515 185.038C95.9991 184.443 96.0465 183.852 96.0959 183.268C96.838 174.5 98.0299 165.426 100.618 157C100.768 156.512 101.683 156.256 102.151 156.401L102.315 156.203C104.252 153.87 106.687 150.937 105.03 148.305Z" fill="white"/>
<path fill-rule="evenodd" clip-rule="evenodd" d="M45.872 112.759C45.666 112.737 45.5297 112.682 45.4429 112.61C45.2167 112.712 44.9973 112.822 44.7797 112.936C44.7302 112.961 44.6806 112.987 44.6317 113.013C44.4251 113.127 44.2216 113.244 44.0217 113.368L41.9006 115.148L41.2441 115.408L41.1992 115.444C39.7385 116.617 38.2755 117.792 36.5117 118.517C39.7215 121.228 39.6406 125.252 39.5621 129.155C39.5529 129.614 39.5437 130.072 39.5399 130.526C39.5344 131.085 37.9659 131.45 37.785 130.865C37.6939 130.867 37.6022 130.865 37.5166 130.851C36.3589 130.639 35.06 130.48 34.5275 131.784C34.192 132.609 34.0954 133.626 34.3815 134.485C34.6192 135.199 35.0153 135.902 35.5991 136.394C35.6651 136.451 35.7354 136.504 35.8069 136.554C35.8236 136.565 35.8402 136.577 35.8567 136.589C35.9002 136.619 35.9437 136.65 35.9897 136.677C37.307 137.454 38.0142 136.7 38.7997 135.565C39.0925 135.143 40.653 135.088 40.5442 135.246C39.5381 136.699 37.8718 137.969 35.9854 137.793C35.8295 137.781 35.6773 137.748 35.5264 137.715C34.0796 140.419 31.2154 141.793 28.5043 143.094L28.2291 143.226L28.2429 143.405C28.3281 144.506 28.4171 145.655 28.4455 146.804C28.498 146.798 28.5463 146.795 28.583 146.8C32.1069 147.286 35.6333 147.948 39.0772 148.833C39.378 148.911 39.7329 148.995 40.1263 149.088C41.3194 149.371 42.8665 149.738 44.3334 150.261C42.79 146.585 44.5248 143.775 48.2895 142.654C52.3471 141.446 56.1596 139.652 55.5098 134.772C55.3925 133.893 55.2362 133.022 55.08 132.152C54.8008 130.597 54.5221 129.045 54.4688 127.453C54.4523 126.96 55.2341 126.662 55.7696 126.778C56.3986 126.275 57.8149 125.039 57.0331 124.197C56.3374 123.447 55.1204 123.665 54.2481 123.909C54.0214 123.972 53.3478 124.09 53.2542 123.742C53.2408 123.69 53.2457 123.644 53.2591 123.599C51.5757 121.689 50.3128 119.51 49.1141 117.272C49.0064 117.071 48.8761 116.792 48.7259 116.471C48.0762 115.08 47.0542 112.892 45.872 112.759ZM49.4155 124.53C49.2242 123.756 48.7828 123.094 48.3299 122.451C47.8439 121.761 46.1636 122.469 46.7131 123.247C47.1019 123.799 47.4796 124.338 47.6453 125.003C47.8574 125.862 49.6301 125.39 49.4155 124.53ZM45.0016 121.361C44.699 122.085 42.9159 122.1 43.3077 121.16C43.8689 119.814 44.9716 118.701 46.438 118.413C46.7889 118.345 47.3671 118.335 47.4863 118.781C47.5958 119.194 47.1135 119.556 46.762 119.624C45.8549 119.802 45.3396 120.55 45.0016 121.361ZM53.3184 134.457C52.0378 134.941 50.8532 135.01 49.5597 134.52C49.16 134.369 49.0487 133.933 49.3134 133.604C49.5976 133.251 50.1441 133.107 50.5659 133.268C51.2297 133.518 51.8379 133.587 52.5128 133.332C52.8954 133.186 53.4407 133.098 53.7231 133.493C53.9731 133.843 53.6748 134.321 53.3184 134.457Z" fill="white"/>
<path d="M48.3299 122.451C48.7828 123.094 49.2242 123.756 49.4155 124.53C49.6301 125.39 47.8574 125.862 47.6453 125.003C47.4796 124.338 47.1019 123.799 46.7131 123.247C46.1636 122.469 47.8439 121.761 48.3299 122.451Z" fill="#340679"/>
<path d="M145.081 125.618C145.283 125.689 145.27 125.807 145.139 125.931C145.199 125.998 145.227 126.087 145.202 126.201C144.818 128.013 144.435 129.826 144.051 131.639L143.59 133.817H149.332L147.791 126.539C147.779 126.488 147.782 126.44 147.791 126.392C147.462 126.241 147.797 125.915 148 125.813C149.187 125.221 149.515 123.917 148.968 122.733C148.523 121.775 147.35 120.46 146.138 120.706C145.124 120.912 144.112 122.14 143.798 123.075C143.388 124.3 143.863 125.192 145.081 125.618Z" fill="#A358E7"/>
<path d="M111.921 164.515C114.56 167.613 117.275 170.317 120.576 172.708C128.371 178.356 136.821 183.307 145.997 186.335C150.875 185.04 155.679 183.564 160.264 181.421L160.458 181.33C160.668 181.232 160.879 181.134 161.091 181.034C166.238 178.627 171.928 175.906 176.155 172.134C176.198 172.095 176.242 172.057 176.286 172.019L176.287 172.018L176.288 172.017L176.289 172.016C176.361 171.953 176.433 171.89 176.503 171.825C184.656 164.289 192.786 153.974 195.898 143.185C196.296 119.807 196.693 96.4287 197.091 73.0504C185.392 73.3511 177.36 63.0783 171.437 54.1655H123.782C118.015 62.7195 110.353 70.1224 99.6186 70.186L99.043 99.7192L99.0272 100.528C98.8334 110.475 98.6396 120.421 98.4456 130.367C98.7897 130.339 99.0642 130.37 99.0202 130.466L99 130.511C100.152 130.57 101.305 130.686 102.456 130.846C102.324 121.253 102.679 111.668 103.033 102.083C103.374 92.8705 103.714 83.6584 103.623 74.4386C103.24 74.4514 103.355 74.2882 103.621 74.1115L103.621 74.037L103.62 73.9853L103.62 73.8898C103.62 73.852 103.62 73.8141 103.619 73.776C103.609 72.9618 105.283 72.7136 105.407 73.5706C113.795 72.139 119.682 65.0893 124.171 58.3514C124.241 58.2462 124.387 58.1613 124.567 58.0971C124.811 57.8569 125.209 57.6448 125.528 57.6448H169.445C169.84 57.6448 169.979 57.7652 169.966 57.9278C169.969 57.9309 169.973 57.9338 169.976 57.9367C169.985 57.9443 169.994 57.9517 170.001 57.9614C174.97 65.3564 181.938 74.5847 191.695 74.7674C192.183 74.3505 193.268 74.3518 193.257 75.0828L192.893 96.5498L192.872 97.8293C192.641 111.419 192.411 125.009 192.181 138.6C192.179 138.714 192.14 138.814 192.077 138.905C192.141 138.935 192.175 138.976 192.157 139.036C185.722 159.54 168.27 174.36 148.305 181.073C148.515 181.447 147.401 182.01 146.919 181.859C146.738 181.802 146.558 181.741 146.377 181.683C145.838 181.813 145.6 181.673 145.725 181.471C130.115 176.289 115.908 165.489 106.887 151.697C106.465 152.778 105.779 153.794 105.028 154.764C105.22 154.827 105.379 154.95 105.453 155.153C106.646 158.348 109.146 161.27 111.38 163.881C111.562 164.095 111.743 164.306 111.921 164.515Z" fill="#FEFDFF"/>
</g>
<path id="color_x5F_2" d="M161.091 181.035C165.306 178.796 170.793 175.698 176.155 172.135C171.928 175.907 166.238 178.628 161.091 181.035ZM115.508 23.5816C115.508 34.275 115.508 44.9672 115.508 55.6606L115.692 62.4297C118.181 59.9382 120.36 57.0237 122.314 54.0811C122.332 54.0536 122.355 54.0285 122.384 54.0047C122.206 53.6966 122.989 53.0603 123.542 53.0603C139.843 53.0603 156.144 53.0603 172.443 53.0603C172.838 53.0603 172.977 53.1807 172.964 53.3421C172.977 53.3543 172.99 53.3622 172.999 53.3769C176.768 59.0739 181.622 65.8289 187.835 69.5588C190.77 70.6836 194.491 71.7845 196.516 72.3584C196.785 72.3725 197.055 72.3872 197.326 72.3896C197.814 71.9703 198.903 71.9703 198.892 72.7026C198.493 96.1683 198.094 119.633 197.694 143.099C197.693 143.178 197.671 143.248 197.639 143.316C196.441 147.516 194.422 151.477 192.061 155.196C190.048 158.993 187.306 163.077 183.673 166.489C181.71 168.81 179.626 171.03 177.36 173.008C172.584 177.178 166.137 180.305 160.369 182.863C155.719 184.926 150.916 186.427 146.002 187.722C145.781 187.781 145.591 187.772 145.436 187.723C145.398 187.717 145.361 187.711 145.325 187.701C135.583 184.543 126.442 179.229 118.294 173.088C117.32 172.354 116.397 171.578 115.507 170.775C115.507 178.712 115.507 186.649 115.507 194.586C146.983 194.586 178.458 194.586 209.935 194.586C209.935 137.584 209.935 80.5842 209.935 23.5828C178.46 23.5816 146.984 23.5816 115.508 23.5816ZM62.5518 158.85C55.8181 153.988 47.6156 156.057 39.9681 154.225C39.4069 154.09 40.9742 153.393 41.4125 153.499C43.2524 153.939 45.1657 154.136 47.1009 154.258C46.2219 150.933 39.1105 149.84 36.4252 149.22C33.79 148.608 31.1286 148.088 28.4531 147.679C28.4415 149.415 28.2508 151.117 27.6419 152.607C26.0343 156.54 24.3429 160.927 24.4609 165.24C24.6907 173.622 26.1211 181.955 27.4463 190.218C28.8302 198.847 30.4134 207.517 30.9684 216.25C31.2129 220.104 31.6531 225.063 30.2594 229.034V229.309L30.0937 229.5C29.7294 230.417 29.2618 231.274 28.6572 232.046C28.6426 232.065 28.6206 232.084 28.5961 232.103H74.9208L74.8211 231.428C74.4263 231.492 74.0577 231.411 74.035 231.117C73.3217 221.924 70.4891 213.031 70.3638 203.775C70.3607 203.546 70.5851 203.355 70.8736 203.238L69.7831 201.972C66.7702 199.072 63.8398 196.083 60.9632 193.05C60.7975 192.877 60.8305 192.695 60.9656 192.537C60.2571 192.734 59.5469 192.923 58.8335 193.091C58.0254 193.283 57.7027 192.847 58.0682 192.516C58.0004 192.491 57.9411 192.456 57.8989 192.407C54.7643 188.752 53.771 183.583 49.9525 180.488C49.4824 180.107 51.1212 179.413 51.5992 179.801C55.4245 182.903 56.4123 188.067 59.5456 191.721C59.6257 191.814 59.6343 191.912 59.5927 192.005C62.3507 191.3 65.0812 190.394 67.6975 189.293C71.678 187.621 77.5376 185.09 78.3157 180.263C78.3377 180.126 78.4575 180.005 78.6226 179.908C73.9268 172.569 69.7745 164.065 62.5518 158.85ZM48.4848 154.329C48.4805 154.331 48.475 154.334 48.4714 154.335C48.4842 154.336 48.4977 154.336 48.5105 154.337C48.5013 154.335 48.4934 154.332 48.4848 154.329Z" fill="#A358E7"/>
</g>
<defs>
<clipPath id="clip0_2560_26621">
<rect width="240" height="240" fill="white" transform="translate(0.5)"/>
</clipPath>
</defs>
</svg>
