<svg width="116" height="104" viewBox="0 0 116 104" fill="none" xmlns="http://www.w3.org/2000/svg">
    <path d="M11.0648 69.3264C11.0435 69.3264 11.0217 69.3256 11 69.3235C11.0217 69.3256 11.0431 69.3264 11.0648 69.3264C11.2592 69.3264 11.4541 69.2526 11.6034 69.1053C11.4541 69.2526 11.2597 69.3264 11.0648 69.3264Z" fill="#E4E6E3"/>
    <path d="M11.5726 53.5278C11.573 53.5274 11.5735 53.527 11.5735 53.527C11.5735 53.527 11.573 53.5274 11.5726 53.5278ZM11.5796 53.5216C11.58 53.5208 11.5809 53.5204 11.5813 53.52C11.5809 53.5204 11.58 53.5208 11.5796 53.5216ZM11.587 53.5147C11.5874 53.5143 11.5882 53.5134 11.5891 53.513C11.5882 53.5134 11.5874 53.5143 11.587 53.5147ZM11.594 53.5081C11.5948 53.5073 11.5956 53.5064 11.5964 53.5056C11.5956 53.5064 11.5948 53.5073 11.594 53.5081ZM11.6001 53.5019C11.6018 53.5007 11.603 53.4995 11.6038 53.4982C11.603 53.4995 11.6018 53.5007 11.6001 53.5019ZM11.6067 53.4958C11.6083 53.4942 11.61 53.4925 11.6116 53.4909C11.61 53.4925 11.6083 53.4942 11.6067 53.4958ZM11.6137 53.4888C11.6157 53.4868 11.6173 53.4847 11.6194 53.4827C11.6178 53.4847 11.6157 53.4868 11.6137 53.4888ZM11.6206 53.4818C11.7597 53.3354 11.8311 53.1451 11.8311 52.9535C11.8311 52.8542 11.8122 52.755 11.7732 52.661C11.8122 52.755 11.8315 52.8551 11.8315 52.9547C11.8311 53.1459 11.7597 53.3354 11.6206 53.4818ZM11.7724 52.6586C11.7716 52.657 11.7712 52.6553 11.7704 52.6537C11.7712 52.6553 11.7716 52.657 11.7724 52.6586ZM11.7687 52.65C11.7683 52.6487 11.7675 52.6475 11.7671 52.6463C11.7675 52.6475 11.7683 52.6487 11.7687 52.65ZM11.7646 52.6409C11.7642 52.6401 11.7642 52.6393 11.7638 52.6385C11.7642 52.6393 11.7642 52.6401 11.7646 52.6409ZM11.7605 52.6311C11.7601 52.6311 11.7601 52.6307 11.7601 52.6307C11.7601 52.6307 11.7601 52.6311 11.7605 52.6311Z" fill="#E4E6E3"/>
    <path d="M31.4404 59.9916H26.3815V58.4587H31.4404C31.8637 58.4587 32.2067 58.8021 32.2067 59.2254C32.2067 59.6483 31.8637 59.9916 31.4404 59.9916Z" fill="#DEE1DE"/>
    <path d="M27.683 68.9355H26.3815V67.4031H27.683C28.1059 67.4031 28.4489 67.746 28.4489 68.1693C28.4489 68.5926 28.1059 68.9355 27.683 68.9355Z" fill="#DEE1DE"/>
    <path d="M57.3712 74.6389L65.4356 67.6803L83.7254 51.8911V11.0731H31.2008V39.2182V52.0503L49.486 67.8333L57.3712 74.6389Z" fill="#F3F4F4"/>
    <path d="M32.2735 51.5593L57.3713 73.2221L82.6528 51.4001V12.1457H32.2735V51.5593ZM57.3713 75.7115C57.1211 75.7115 56.8717 75.625 56.6703 75.4511L30.4999 52.8625C30.2636 52.6586 30.1278 52.3625 30.1278 52.0503V11.0731C30.1278 10.4808 30.6086 10 31.2009 10H83.7255C84.3182 10 84.7985 10.4808 84.7985 11.0731V51.8911C84.7985 52.2029 84.6623 52.4995 84.4265 52.7033L58.0719 75.4511C57.8705 75.625 57.6207 75.7115 57.3713 75.7115Z" fill="#97A8B3"/>
    <path d="M90.8685 45.725L65.4357 67.6803L90.9814 93.5389C91.7747 92.7428 92.2649 91.6451 92.2649 90.4334V48.9286C92.2649 47.6607 91.7226 46.5286 90.8685 45.725Z" fill="#EEEEEE"/>
    <path d="M67.0054 67.7423L90.8587 91.8884C91.0765 91.4405 91.1921 90.9458 91.1921 90.4335V48.9287C91.1921 48.3319 91.0334 47.7601 90.736 47.2568L67.0054 67.7423ZM90.9813 94.6117H90.9792C90.6929 94.6113 90.4193 94.4964 90.2183 94.293L64.6727 68.4343C64.4639 68.2231 64.3519 67.9343 64.3638 67.6377C64.3757 67.3407 64.5098 67.0622 64.7346 66.8682L90.1675 44.9129C90.5822 44.5536 91.2028 44.5667 91.6036 44.9437C92.7218 45.9959 93.3379 47.411 93.3379 48.9287V90.4335C93.3379 91.8909 92.771 93.263 91.7418 94.2963C91.54 94.4985 91.2664 94.6117 90.9813 94.6117Z" fill="#97A8B3"/>
    <path d="M23.8731 45.7251C23.0199 46.5287 22.4801 47.6608 22.4801 48.9287V90.4334C22.4801 91.6505 22.9715 92.7535 23.771 93.5497L49.4861 67.8334L23.8731 45.7251Z" fill="#EEEEEE"/>
    <path d="M24.0068 47.2572C23.7102 47.7601 23.5527 48.3319 23.5527 48.9287V90.4334C23.5527 90.9548 23.6709 91.4569 23.894 91.9093L47.9117 67.8908L24.0068 47.2572ZM23.7709 94.6227C23.4969 94.6227 23.2229 94.5186 23.0137 94.3098C21.9776 93.2777 21.407 91.9007 21.407 90.4334V48.9287C21.407 47.4102 22.0215 45.995 23.1376 44.9441C23.5376 44.5671 24.1582 44.5536 24.5741 44.9129L50.1871 67.0212C50.4131 67.216 50.5472 67.4957 50.5583 67.794C50.5694 68.0918 50.4557 68.381 50.2449 68.5918L24.5294 94.3081C24.3202 94.5177 24.0454 94.6227 23.7709 94.6227Z" fill="#97A8B3"/>
    <path d="M57.3713 74.6388L49.4861 67.8333L23.771 93.5496C24.5672 94.347 25.6681 94.8397 26.886 94.8397H87.8573C89.0793 94.8397 90.1823 94.3425 90.9814 93.5389L65.4357 67.6803L57.3713 74.6388Z" fill="#EEEEEE"/>
    <path d="M25.4121 93.4257C25.8642 93.6489 26.3658 93.7666 26.886 93.7666H87.8573C88.3848 93.7666 88.893 93.6448 89.3508 93.4147L65.377 69.1476L58.0718 75.451C57.669 75.7989 57.0726 75.7985 56.6702 75.451L49.5398 69.2965L25.4121 93.4257ZM87.8573 95.9124H26.886C25.4212 95.9124 24.0454 95.3426 23.0117 94.3081C22.5933 93.8889 22.5937 93.21 23.0125 92.7912L48.7276 67.0749C49.1255 66.6774 49.7621 66.6536 50.187 67.0211L57.3712 73.222L64.735 66.8677C65.1616 66.4989 65.8007 66.5244 66.199 66.9264L91.7447 92.785C92.1586 93.2038 92.1573 93.8778 91.7422 94.2954C90.7057 95.3381 89.3258 95.9124 87.8573 95.9124Z" fill="#97A8B3"/>
    <path d="M31.2009 39.2182L23.8732 45.7251L31.2009 52.0503V39.2182Z" fill="#DDDDDD"/>
    <path d="M25.5016 45.7136L30.1277 49.7069V41.6055L25.5016 45.7136ZM31.2008 53.1229C30.9481 53.1229 30.6983 53.0339 30.4998 52.8625L23.1721 46.5369C22.9383 46.335 22.8025 46.0417 22.8004 45.7325C22.7984 45.4232 22.9297 45.1283 23.161 44.9228L30.4883 38.4163C30.8037 38.1357 31.2549 38.0664 31.6405 38.2399C32.0257 38.4126 32.2735 38.7961 32.2735 39.2182V52.0503C32.2735 52.4699 32.029 52.851 31.6471 53.0257C31.5044 53.091 31.3522 53.1229 31.2008 53.1229Z" fill="#97A8B3"/>
    <path d="M90.8685 45.7251L83.7253 39.3835V51.8911L90.8685 45.7251Z" fill="#DDDDDD"/>
    <path d="M84.7984 41.7704V49.5477L89.24 45.7136L84.7984 41.7704ZM83.7254 52.9638C83.574 52.9638 83.4222 52.9318 83.2791 52.8666C82.8976 52.6918 82.6527 52.3108 82.6527 51.8912V39.3835C82.6527 38.961 82.9005 38.5779 83.2856 38.4052C83.6704 38.2317 84.1212 38.3002 84.4379 38.5812L91.5806 44.9228C91.8119 45.1283 91.9436 45.4232 91.9412 45.7325C91.9387 46.0418 91.8033 46.3351 91.5695 46.5369L84.4264 52.7033C84.2278 52.8748 83.978 52.9638 83.7254 52.9638Z" fill="#97A8B3"/>
    <path d="M56.5564 17H15.8045C14.8079 17 14 17.8079 14 18.8045V32.4887C14 33.4853 14.8079 34.2932 15.8045 34.2932H56.5564C57.553 34.2932 58.3609 33.4853 58.3609 32.4887V18.8045C58.3609 17.8079 57.553 17 56.5564 17Z" fill="#B70F90" stroke="#9A0A79" stroke-width="1.25"/>
    <path fill-rule="evenodd" clip-rule="evenodd" d="M22.874 22.3946C23.1097 22.0318 23.5948 21.9288 23.9575 22.1644C24.3369 22.4108 24.4529 22.9135 24.2198 23.3013L23.5326 24.4436H24.7518C25.2501 24.4436 25.6541 24.8476 25.6541 25.3459C25.6541 25.8442 25.2501 26.2481 24.7518 26.2481H23.5326L24.2198 27.3905C24.4529 27.7782 24.3369 28.2809 23.9575 28.5274C23.5948 28.763 23.1097 28.6599 22.874 28.2972C22.8691 28.2895 22.8642 28.2818 22.8596 28.274L22.0445 26.9188L21.2306 28.274C21.2282 28.2779 21.2258 28.2818 21.2234 28.2857L21.2161 28.2972C20.9805 28.6599 20.4953 28.763 20.1326 28.5274C19.7532 28.2809 19.6372 27.7782 19.8703 27.3905L20.5569 26.2481H19.3383C18.84 26.2481 18.436 25.8442 18.436 25.3459C18.436 24.8476 18.84 24.4436 19.3383 24.4436H20.5569L19.8703 23.3013C19.6372 22.9135 19.7532 22.4108 20.1326 22.1644C20.4953 21.9288 20.9805 22.0318 21.2161 22.3946C21.2211 22.4022 21.2259 22.4099 21.2306 22.4177L22.0445 23.7723L22.8596 22.4177C22.8619 22.4138 22.8643 22.41 22.8667 22.4061L22.874 22.3946Z" fill="#EBEBEB"/>
    <path fill-rule="evenodd" clip-rule="evenodd" d="M32.2345 22.4426C32.4962 22.0407 33.0289 21.9178 33.4401 22.1644C33.4489 22.1697 33.4576 22.1751 33.4662 22.1807C33.8493 22.4302 33.9576 22.943 33.7081 23.3261L32.9803 24.4437H34.3758C34.8741 24.4437 35.278 24.8476 35.278 25.3459C35.278 25.8442 34.8741 26.2482 34.3758 26.2482H32.9803L33.7081 27.3657C33.9576 27.7488 33.8493 28.2616 33.4662 28.5111C33.4576 28.5167 33.4489 28.5221 33.4401 28.5274C33.0289 28.774 32.4962 28.6511 32.2345 28.2493L31.3677 26.9189L30.502 28.2493C30.2567 28.626 29.7732 28.7575 29.3748 28.5693L29.2964 28.5274C29.2876 28.5221 29.2789 28.5167 29.2703 28.5111C28.8872 28.2616 28.7789 27.7488 29.0284 27.3657L29.7556 26.2482H28.3608C27.8624 26.2482 27.4585 25.8442 27.4585 25.3459C27.4585 24.8476 27.8624 24.4437 28.3608 24.4437H29.7556L29.0284 23.3261C28.7789 22.943 28.8872 22.4302 29.2703 22.1807C29.2789 22.1751 29.2876 22.1697 29.2964 22.1644C29.7077 21.9178 30.2404 22.0407 30.502 22.4426L31.3677 23.773L32.2345 22.4426Z" fill="#EBEBEB"/>
    <path fill-rule="evenodd" clip-rule="evenodd" d="M41.2571 22.4426C41.5188 22.0407 42.0514 21.9178 42.4627 22.1644C42.4715 22.1697 42.4802 22.1751 42.4888 22.1807C42.8719 22.4302 42.9802 22.943 42.7307 23.3261L42.0029 24.4437H43.3984C43.8967 24.4437 44.3006 24.8476 44.3006 25.3459C44.3006 25.8442 43.8967 26.2482 43.3984 26.2482H42.0029L42.7307 27.3657C42.9802 27.7488 42.8719 28.2616 42.4888 28.5111C42.4802 28.5167 42.4715 28.5221 42.4627 28.5274C42.0514 28.774 41.5188 28.6511 41.2571 28.2493L40.3903 26.9189L39.5246 28.2493C39.2793 28.626 38.7958 28.7575 38.3974 28.5693L38.319 28.5274C38.3102 28.5221 38.3015 28.5167 38.2929 28.5111C37.9098 28.2616 37.8015 27.7488 38.051 27.3657L38.7782 26.2482H37.3833C36.885 26.2482 36.4811 25.8442 36.4811 25.3459C36.4811 24.8476 36.885 24.4437 37.3833 24.4437H38.7782L38.051 23.3261C37.8015 22.943 37.9098 22.4302 38.2929 22.1807C38.3015 22.1751 38.3102 22.1697 38.319 22.1644C38.7303 21.9178 39.2629 22.0407 39.5246 22.4426L40.3903 23.773L41.2571 22.4426Z" fill="#EBEBEB"/>
    <path fill-rule="evenodd" clip-rule="evenodd" d="M50.8811 22.4426C51.1428 22.0407 51.6755 21.9178 52.0867 22.1644C52.0955 22.1697 52.1042 22.1751 52.1128 22.1807C52.4959 22.4302 52.6042 22.943 52.3547 23.3261L51.6269 24.4437H53.0224C53.5207 24.4437 53.9247 24.8476 53.9247 25.3459C53.9247 25.8442 53.5207 26.2482 53.0224 26.2482H51.6269L52.3547 27.3657C52.6042 27.7488 52.4959 28.2616 52.1128 28.5111C52.1042 28.5167 52.0955 28.5221 52.0867 28.5274C51.6755 28.774 51.1428 28.6511 50.8811 28.2493L50.0143 26.9189L49.1487 28.2493C48.9033 28.626 48.4198 28.7575 48.0215 28.5693L47.943 28.5274C47.9342 28.5221 47.9255 28.5167 47.917 28.5111C47.5338 28.2616 47.4255 27.7488 47.675 27.3657L48.4022 26.2482H47.0074C46.5091 26.2482 46.1051 25.8442 46.1051 25.3459C46.1051 24.8476 46.5091 24.4437 47.0074 24.4437H48.4022L47.675 23.3261C47.4255 22.943 47.5338 22.4302 47.917 22.1807C47.9255 22.1751 47.9342 22.1697 47.943 22.1644C48.3543 21.9178 48.887 22.0407 49.1487 22.4426L50.0143 23.773L50.8811 22.4426Z" fill="#EBEBEB"/>
    <path d="M77.755 45.3066H15.3624C14.7701 45.3066 14.2893 44.8259 14.2893 44.2336C14.2893 43.6412 14.7701 43.1609 15.3624 43.1609H77.755C78.3474 43.1609 78.8277 43.6412 78.8277 44.2336C78.8277 44.8259 78.3474 45.3066 77.755 45.3066Z" fill="#97A8B3"/>
    <path d="M70.3896 54.0298H46.0757C45.4834 54.0298 45.0031 53.5495 45.0031 52.9572C45.0031 52.3649 45.4834 51.8845 46.0757 51.8845H70.3896C70.9819 51.8845 71.4622 52.3649 71.4622 52.9572C71.4622 53.5495 70.9819 54.0298 70.3896 54.0298Z" fill="#97A8B3"/>
    <path d="M101.354 23.4347H64.2564C63.664 23.4347 63.1837 22.9543 63.1837 22.3616C63.1837 21.7693 63.664 21.289 64.2564 21.289H101.354C101.946 21.289 102.426 21.7693 102.426 22.3616C102.426 22.9543 101.946 23.4347 101.354 23.4347Z" fill="#97A8B3"/>
    <path d="M78.8511 33.0878H64.2564C63.664 33.0878 63.1837 32.6075 63.1837 32.0152C63.1837 31.4229 63.664 30.9425 64.2564 30.9425H78.8511C79.4438 30.9425 79.9237 31.4229 79.9237 32.0152C79.9237 32.6075 79.4438 33.0878 78.8511 33.0878Z" fill="#97A8B3"/>
    <path d="M6 74.5C6 73.1193 4.8807 72 3.50001 72C2.11931 72 1 73.1193 1 74.5C1 75.8807 2.11931 77 3.50001 77C4.8807 77 6 75.8807 6 74.5Z" stroke="#B70F90" stroke-width="2" stroke-miterlimit="10"/>
    <path d="M27.2905 1.43051e-05L25 2.29047L22.7096 1.43051e-05L21 1.70952L23.2905 3.99998L21 6.29043L22.7096 7.99994L25 5.70949L27.2905 7.99994L28.9999 6.29043L26.7095 3.99998L29 1.70952L27.2905 1.43051e-05Z" fill="#B70F90"/>
    <path d="M104.29 81L102 83.2905L99.7096 81L98 82.7095L100.29 85L98 87.2904L99.7096 88.9999L102 86.7095L104.29 88.9999L106 87.2904L103.709 85L106 82.7095L104.29 81Z" fill="#B70F90"/>
    <path d="M115 36.5C115 35.1193 113.881 34 112.5 34C111.119 34 110 35.1193 110 36.5C110 37.8807 111.119 39 112.5 39C113.881 39 115 37.8807 115 36.5Z" stroke="#B70F90" stroke-width="2" stroke-miterlimit="10"/>
</svg>
