<svg width="241" height="240" viewBox="0 0 241 240" fill="none" xmlns="http://www.w3.org/2000/svg">
<g clip-path="url(#clip0_2505_66731)">
<path d="M56.6224 224.887C23.3881 181.611 9.29966 109.69 15.598 51.5689C17.7712 36.1539 37.9078 27.0486 45.6309 24.3499C67.0695 16.8522 88.3996 18.8167 155.855 45.4296C223.311 72.0425 226.93 107.367 220.307 121.703C217.555 131.725 199.357 162.789 148.579 206.873C97.8015 250.958 66.1173 237.251 56.6224 224.887Z" fill="#F4EDFB"/>
<path d="M117.476 179.634C115.892 183.467 113.968 187.185 111.817 190.726C110.695 192.574 108.548 196.287 106.022 198.412C105.703 198.663 105.384 198.9 105.072 199.116C103.853 199.901 102.568 200.25 101.283 199.803C99.5849 199.214 99.6741 197.114 99.651 195.621C99.609 192.944 99.9469 190.25 100.199 187.588C100.59 183.466 101.755 177.872 100.07 173.861C101.474 173.187 102.868 172.493 104.247 171.767C105.24 171.243 106.236 170.701 107.221 170.133L108.92 169.412C110.776 173.587 114.144 176.616 117.476 179.634ZM154.621 119.779C154.621 119.779 154.592 119.836 154.538 119.935C154.573 119.92 154.61 119.907 154.649 119.894C154.632 119.851 154.621 119.811 154.621 119.779ZM168.796 134.175C168.444 133.614 167.785 133.12 166.713 132.741C165.83 132.429 164.916 132.178 163.984 131.975C163.632 132.052 163.27 132.021 163.307 131.844C160.746 131.354 158.076 131.202 155.535 131.187C154.68 131.181 155.596 130.511 156.04 130.514C158.386 130.528 160.763 130.711 163.082 131.068C163.24 131.093 163.405 131.117 163.572 131.142C163.869 130.223 163.968 129.262 164.189 128.314C164.216 128.199 164.337 128.101 164.493 128.029C164.468 127.887 164.432 127.745 164.373 127.605C161.728 126.515 159.647 124.866 157.74 122.941C156.628 122.039 155.651 121.157 155.099 120.531C151.605 124.477 145.965 128.738 149.653 134.363C150.093 134.974 150.607 135.675 151.158 136.404C154.044 139.938 158.663 143.731 162.888 141.908C163.96 141.446 165.525 140.413 166.819 139.18C167.912 137.906 168.9 136.36 168.9 134.929C168.901 134.655 168.862 134.405 168.796 134.175ZM99.1784 51.6877C105.545 47.7416 112.945 43.1111 120.598 42.6015C120.859 42.5844 121.008 42.6461 121.074 42.7405C121.179 38.5654 115.055 34.4825 111.499 33.3095C105.7 31.3956 98.7627 31.3663 93.4546 34.6586C90.7251 36.3513 88.1902 38.6305 86.4207 41.3559C85.9748 42.1793 85.4891 43.0953 85.0179 44.0184C84.437 45.4196 84.0575 46.9073 83.95 48.4714C83.686 52.3201 84.388 59.5103 88.2125 61.9609C88.1377 61.2209 88.4927 60.5514 89.1086 60.0488C89.0216 59.9684 89.0234 59.8491 89.1908 59.6878C92.3071 56.6857 95.4772 53.9817 99.1784 51.6877ZM118.902 43.5757C118.933 43.6132 118.96 43.6561 118.974 43.709C119.163 44.4305 119.448 45.0961 119.802 45.7207C120.568 44.8571 120.952 43.9677 121.048 43.0783C120.942 43.2418 120.726 43.389 120.454 43.407C119.932 43.441 119.415 43.4983 118.902 43.5757ZM88.7602 63.2536L88.7615 63.2519C88.7606 63.2519 88.7593 63.2519 88.758 63.2519L88.7602 63.2536ZM109.432 46.9156C111.475 45.9965 113.425 45.1757 114.991 44.5358C113.082 45.1717 111.232 46.0122 109.432 46.9156ZM116.981 108.61C118.709 108.262 119.735 107.752 120.207 107.465C119.759 107.666 119.309 107.855 118.857 108.023C118.245 108.252 117.618 108.445 116.981 108.61ZM131.308 87.4376C131.308 87.4376 131.13 87.3851 130.826 87.2942C128.848 87.5106 126.797 86.9428 124.923 85.8795C122.357 84.4246 119.373 81.6043 118.617 78.4974C118.007 79.0546 117.214 79.4423 116.304 79.5843C113.825 79.9724 111.961 78.6765 110.727 76.7806C110.349 78.4663 109.665 80.1345 109.059 81.7066C108.003 84.4451 106.847 87.1531 105.544 89.7836C104.348 92.1983 103.097 94.6803 101.362 96.7615C101.229 96.9202 101.088 97.0749 100.942 97.227C100.753 97.5062 100.575 97.7462 100.418 97.9267C99.48 98.9979 97.6817 99.8838 96.0109 100.529C95.301 100.859 94.5938 101.151 93.9223 101.4C93.4388 101.58 92.9567 101.73 92.4767 101.865C94.3232 103.836 96.5604 105.363 99.0079 106.452C99.1736 106.457 99.2921 106.492 99.2728 106.566C99.626 106.718 99.9814 106.863 100.342 106.996C102.035 107.426 104.244 107.908 107.12 108.416C108.505 108.661 109.76 108.81 110.903 108.894C113.772 108.971 116.634 108.626 119.118 107.505C126.043 104.381 132.406 97.605 131.841 89.8238C131.604 88.4113 131.308 87.4376 131.308 87.4376Z" fill="#A358E7"/>
<path fill-rule="evenodd" clip-rule="evenodd" d="M120.466 48.4902C120.56 48.6466 120.431 48.8454 120.272 48.9529C120.037 49.1115 119.634 49.2124 119.374 49.0529C119.041 48.8498 118.903 48.8336 118.642 49.08C118.416 49.2932 118.054 49.4024 117.75 49.3198C117.488 49.2486 117.406 48.9926 117.611 48.7986C118.358 48.0926 119.454 47.8331 120.364 48.3889C120.372 48.3943 120.379 48.4002 120.386 48.406C120.39 48.4096 120.393 48.4131 120.398 48.4164C119.274 47.1521 118.368 45.7593 117.931 44.0847C117.906 43.9904 117.923 43.903 117.964 43.8244C117.038 44.0188 116.124 44.2713 115.225 44.5727C113.323 45.2084 111.479 46.0485 109.686 46.9515C109.427 47.0822 109.169 47.2137 108.913 47.3456C105.431 49.1425 101.965 51.0154 98.7083 53.2033C98.4686 53.3641 98.2346 53.5292 98.0005 53.6945L97.9283 53.7454L97.9596 53.7882C98.2362 53.7022 98.5468 53.7188 98.6718 53.9136C98.859 54.205 99.0559 54.4916 99.2576 54.776C99.2876 54.7882 99.3151 54.8035 99.3355 54.8245C100.154 55.6655 100.916 56.6022 101.577 57.6004C103.51 59.6656 105.749 61.4948 107.988 63.0636C111.593 65.5909 116.999 69.0191 121.56 67.1729C121.667 67.1292 121.777 67.1126 121.881 67.1135C122.142 66.9055 122.416 66.7015 122.722 66.5031C123.103 66.2566 123.526 66.001 123.97 65.733C126.86 63.9871 130.624 61.7141 129.116 57.9923C128.051 55.3634 125.854 53.4385 123.665 51.5211L123.378 51.2701C123.281 51.2369 123.209 51.1796 123.18 51.0958C122.225 50.2548 121.29 49.4055 120.466 48.4902ZM121.194 57.669C120.662 57.846 119.875 57.527 120.721 57.2457C124.606 55.9557 119.846 52.8605 117.912 51.6025C117.77 51.5103 117.644 51.428 117.537 51.357C117.257 51.1718 118.376 50.6628 118.716 50.8882C118.955 51.0469 119.2 51.205 119.448 51.3648C120.842 52.2638 122.318 53.2152 123.217 54.6026C124.27 56.2278 122.55 57.2186 121.194 57.669ZM117.506 60.3943H118.812C118.996 60.3943 119.325 60.4952 119.147 60.7363C118.97 60.9758 118.593 61.0741 118.311 61.0741H117.005C116.821 61.0741 116.493 60.9731 116.67 60.732C116.847 60.4926 117.224 60.3943 117.506 60.3943ZM108.367 53.1705C108.913 52.6969 109.605 52.5213 110.313 52.5082C110.517 52.5047 110.823 52.6406 110.656 52.8856C110.482 53.1425 110.111 53.2273 109.824 53.233C109.095 53.2461 108.966 54.1622 108.957 54.7581C108.951 55.1788 107.687 55.4471 107.695 54.9149C107.705 54.2793 107.867 53.6039 108.367 53.1705Z" fill="#FEFDFF"/>
<path fill-rule="evenodd" clip-rule="evenodd" d="M102.599 62.6774C102.911 62.9736 101.728 63.4485 101.423 63.1597C101.224 62.9714 100.947 62.8264 100.67 62.8185C100.492 62.8133 100.156 62.7246 100.338 62.4817C100.511 62.2488 100.896 62.1374 101.173 62.1453C101.69 62.1597 102.216 62.3148 102.599 62.6774ZM92.4491 64.5254L92.4522 64.5128L92.4563 64.495C92.4586 64.4849 92.4608 64.4747 92.4635 64.4647C92.442 64.4683 92.4205 64.4715 92.399 64.4747L92.3537 64.4813C92.3537 64.4813 92.3574 64.4828 92.3594 64.4834C92.3613 64.4841 92.365 64.4856 92.365 64.4856C92.3921 64.4953 92.4136 64.5067 92.4348 64.5179L92.4491 64.5254ZM111.561 75.0358C111.554 75.0655 111.533 75.0943 111.506 75.1214C112.316 76.9406 113.75 78.955 115.907 79.0809C117.351 79.1647 118.3 78.2643 118.667 77.0861C118.668 77.0808 118.67 77.0753 118.671 77.0697C118.672 77.0646 118.674 77.0596 118.675 77.0546C118.739 76.8453 118.784 76.6287 118.81 76.4067C118.801 76.3731 118.796 76.3364 118.795 76.2962C118.773 73.0537 118.875 70.4298 120.688 68.2677C116.6 69.1746 112.244 67.1602 108.844 64.985C106.747 63.6446 104.631 62.1051 102.694 60.3746C102.6 60.3781 102.472 60.3847 102.325 60.3951C101.972 60.5725 101.613 60.6206 101.225 60.6206C101.024 60.7014 100.818 60.7639 100.729 60.7639C99.1918 60.7674 98.792 62.5769 99.4139 63.6333C100.083 64.7686 100.94 64.7762 101.949 64.7853C102.213 64.7877 102.487 64.7901 102.771 64.8129C104.165 64.9244 105.526 65.635 106.773 66.2861C106.894 66.3491 107.013 66.4116 107.132 66.473C110.722 68.3293 112.506 70.9056 111.561 75.0358ZM177.956 24.8791C178.077 25.1225 177.534 25.5602 177.127 25.5318V34.7067C177.27 34.7168 177.381 34.7635 177.411 34.8614C178.415 38.1021 181.404 41.2227 184.003 43.2761L184.023 43.292C185.373 44.3586 187.409 45.9678 189.265 45.4727C190.536 45.1337 190.612 44.3241 189.867 43.3634C189.443 42.8159 188.744 42.1649 187.975 41.4475C186.18 39.7744 183.998 37.7406 184.001 35.8186C183.986 35.7775 183.978 35.7325 183.985 35.6779C184.77 29.5113 191.054 32.0789 194.681 34.0195C195.1 34.2434 195.515 34.4737 195.931 34.7042C196.751 35.1588 197.572 35.6138 198.416 36.02C198.507 36.0637 198.601 36.1115 198.698 36.1605C199.129 36.3791 199.61 36.623 200.072 36.6508C201.409 36.7316 202.175 35.7334 202.079 34.6128C202.057 34.5739 202.049 34.5324 202.062 34.4874C202.044 34.3594 202.017 34.2314 201.977 34.1025C200.778 30.3451 196.838 29.6623 193.342 29.0563C192.708 28.9465 192.089 28.8393 191.503 28.7167C190.758 28.5607 191.785 27.8499 192.255 27.9478C192.864 28.0753 193.494 28.1867 194.131 28.2994C197.531 28.9009 201.135 29.5384 202.887 32.8535C203.079 33.2169 203.2 33.5752 203.269 33.9234C205.29 32.995 204.635 30.6389 203.117 29.1435C200.776 26.8363 197.592 25.7953 194.389 25.4445C193.7 25.3689 194.825 24.7747 195.177 24.8132C198.579 25.1858 202.988 26.4523 205.028 29.5266C206.592 24.7594 198.862 23.3046 195.418 22.9791C189.738 22.4431 183.355 22.7048 177.956 24.8791ZM124.52 50.6047L124.835 50.8715C127.261 52.9239 129.69 54.9796 130.498 58.0059C131.305 61.0312 129.363 63.3449 126.939 64.9295C126.461 65.2422 125.929 65.5489 125.381 65.8652C123.545 66.9236 121.523 68.0897 120.706 69.9501C119.997 71.5626 120.013 73.2944 120.05 75.0209C120.052 75.0257 120.055 75.0303 120.057 75.035C120.06 75.0411 120.063 75.0473 120.064 75.0541C120.113 75.4207 120.11 75.7741 120.071 76.1149C120.071 76.1407 120.072 76.1656 120.072 76.1909C120.072 76.235 120.061 76.2752 120.046 76.3145C120.017 76.4889 119.972 76.6575 119.921 76.8226C120.006 81.5396 126.491 87.5497 131.47 86.6546C131.552 86.5676 131.751 86.4776 131.965 86.4134C131.793 86.2277 132.134 85.8324 132.584 85.7891C133.823 85.6707 134.815 85.5069 134.339 84.06C134.039 83.1476 133.628 82.2758 133.218 81.4063C133.085 81.1241 132.952 80.8422 132.823 80.5592C130.993 76.5439 129.259 72.5316 129.691 68.034C129.69 68.0292 129.689 68.0247 129.688 68.0201C129.687 68.0143 129.686 68.0085 129.686 68.0021C129.582 57.4252 138.967 49.8437 147.439 45.2752C155.98 40.6697 166.049 37.1475 175.853 36.9544V25.4654C165.92 25.0023 155.614 27.0303 146.495 30.898C137.282 34.8054 128.35 40.9873 124.52 50.6047ZM121.259 43.1144C121.154 43.2778 120.938 43.425 120.667 43.443C120.148 43.4775 119.632 43.5347 119.122 43.612C119.153 43.6496 119.179 43.6924 119.193 43.7453C119.382 44.4666 119.666 45.1319 120.018 45.7562C120.782 44.8925 121.164 44.0035 121.259 43.1144ZM66.4992 62.4804C73.9793 60.8814 81.7629 61.2322 89.2439 63.4489L89.236 63.4401L89.2169 63.4188L89.1976 63.3978C89.1665 63.364 89.1354 63.3302 89.1067 63.2929L89.1039 63.2888C89.1021 63.2862 89.1005 63.2838 89.0984 63.2812H89.0906H89.0871C89.054 63.2785 89.0226 63.2737 88.9943 63.265C84.2917 61.7486 82.7656 54.7791 82.9367 49.9267C78.3021 50.0905 73.8177 48.2775 70.9304 44.6016C66.4869 49.0884 66.4935 56.2481 66.499 62.2515L66.4992 62.4804ZM44.3228 105.102C44.332 104.967 44.5227 104.866 44.7523 104.8C40.4547 103.635 36.1694 101.608 32.7172 98.9658C31.3043 100.392 29.5681 101.503 27.8582 102.597C27.1734 103.035 26.4929 103.47 25.8391 103.922C25.6543 104.05 25.4636 104.179 25.2697 104.31C23.9589 105.198 22.4985 106.187 21.6896 107.519C21.6399 107.6 21.5905 107.678 21.5441 107.751C21.1559 108.361 20.9711 108.652 22.4623 108.398C23.2284 108.284 23.9632 108.066 24.6679 107.744C25.6357 107.288 26.5372 106.757 27.4166 106.15C27.8722 105.836 28.9341 106.141 28.2272 106.629C27.7664 106.948 27.2929 107.254 26.8082 107.539C26.3813 107.826 25.9484 108.107 25.5154 108.388C23.999 109.371 22.4805 110.356 21.2096 111.641C20.602 112.254 19.964 112.931 19.6046 113.734C18.7597 115.622 21.6752 115.004 22.765 114.437C24.2328 113.675 25.5756 112.721 26.9157 111.761C27.1823 111.47 27.3948 111.224 27.5255 111.041C27.7285 110.756 28.7163 110.63 28.7507 110.907C28.9484 110.9 29.0713 110.923 28.9715 110.994C28.7982 111.117 28.6231 111.243 28.4484 111.368C28.212 111.643 27.8599 112.027 27.4376 112.487C24.8119 115.349 19.4758 121.164 22.4096 122.217C23.8139 122.721 26.5404 119.698 28.0639 118.008C28.405 117.63 28.6857 117.319 28.8779 117.129C29.049 116.96 29.2215 116.785 29.3964 116.607C30.438 115.549 31.5638 114.405 32.9664 113.945C33.3274 113.827 33.5448 113.911 33.5957 114.055C33.6667 114.084 33.6881 114.136 33.6227 114.216C33.473 114.4 33.3179 114.589 33.1587 114.783C30.4923 118.037 26.6828 122.685 28.1074 127.017C30.8706 126.359 32.361 123.251 33.6247 120.616C33.941 119.957 34.2431 119.327 34.5474 118.773C35.5744 116.902 36.7491 115.133 38.5514 114.079C38.5396 114.065 38.5462 114.047 38.5784 114.022C41.8794 111.535 43.4493 115.29 44.6594 118.184C44.9426 118.862 45.2061 119.492 45.4674 119.984C45.4898 120.026 45.5143 120.073 45.5407 120.124C45.9012 120.817 46.6273 122.212 47.3216 121.348C48.488 119.895 49.1104 118.258 48.5703 116.395C48.1488 114.942 47.3852 113.552 46.6194 112.158C45.3846 109.911 44.1441 107.653 44.3228 105.102ZM97.8237 98.7369C101.784 96.1711 103.733 91.8481 105.631 87.6408L105.739 87.4021C105.957 86.918 106.185 86.424 106.416 85.9218C107.915 82.6677 109.573 79.0693 109.945 75.5893C109.957 75.474 110.048 75.3739 110.175 75.2962L110.161 75.2622L110.14 75.2146C110.123 75.1774 110.106 75.1401 110.091 75.1022C110.042 74.9825 110.201 74.8493 110.422 74.7523C110.881 72.1703 110.252 69.9331 108.257 68.3197C106.536 70.4848 102.417 72.297 100.028 70.989C99.5089 70.8182 99.1796 70.6364 99.1796 70.6364L99.2214 70.3429C98.9509 70.0366 98.7253 69.6613 98.5594 69.2048C98.4858 69.2122 98.4113 69.2192 98.3316 69.2262C96.8019 69.65 95.0301 69.5774 93.7583 68.5779C92.5863 67.6561 92.169 66.445 92.3302 65.1444C92.1137 65.2808 91.8249 65.3589 91.622 65.2834C83.3997 62.2344 74.5716 61.493 66.2008 63.3489C66.0597 63.4214 65.8881 63.4598 65.7278 63.4559C61.9647 64.3362 58.2982 65.7425 54.8269 67.7072C43.7165 73.9956 35.7765 84.6074 31.688 96.6211C32.1401 97.0549 32.6201 97.4739 33.1153 97.8823C33.2747 97.9177 33.391 97.9946 33.3967 98.1152C37.8236 101.663 43.7775 104.164 49.3373 105.009C56.2242 86.7808 73.7175 73.4866 93.6917 77.2281C94.3942 77.3596 93.2805 77.9489 92.909 77.879C84.6641 76.3351 76.9349 77.8541 70.2723 81.4645C70.396 81.5226 70.4531 81.63 70.3708 81.8013C70.1945 82.1687 70.6586 83.177 70.9212 83.7474C70.9793 83.8735 71.0275 83.9782 71.0567 84.0499C71.6125 85.4138 72.2314 86.7533 72.92 88.0552C74.6178 91.265 76.5625 94.5463 79.1118 97.1606C81.3657 99.4717 84.2172 101.549 87.5439 101.811C91.2404 102.103 94.7553 100.725 97.8237 98.7369ZM102.778 171.934C106.639 169.921 110.634 167.728 113.758 164.635C107.527 159.518 101.508 152.594 99.7249 144.516C98.0115 136.755 101.18 130.033 107.552 125.52C111.674 122.601 116.618 120.527 121.319 118.556L121.323 118.554C121.905 118.31 122.484 118.067 123.057 117.825C128.505 115.519 134.053 113.571 139.665 111.715C150.002 108.298 161.369 105.195 172.237 108.105C172.933 108.292 171.818 108.848 171.453 108.751C169.376 108.194 167.29 107.865 165.202 107.718C165.217 107.806 165.158 107.919 164.982 108.052C163.908 108.868 162.804 109.643 161.702 110.417C158.965 112.34 156.236 114.257 153.978 116.767C154.492 117.355 154.992 117.944 155.486 118.526C158.731 122.347 161.752 125.904 166.845 127.421C169.958 124.283 173.721 121.81 177.45 119.359C179.109 118.268 180.762 117.182 182.348 116.044C188.277 111.787 197.621 104.905 194.96 96.3231C192.34 87.8787 183.049 86.7398 175.508 86.7695C167.801 86.7992 160.087 87.1142 152.398 87.6314C148.548 87.8909 144.696 88.1876 140.867 88.6734C140.525 88.7168 140.176 88.7579 139.824 88.7993C137.805 89.0373 135.669 89.289 133.827 90.0841C133.656 90.1579 133.464 90.1745 133.307 90.1527C133.487 97.7272 127.258 104.409 120.422 107.478C119.975 107.678 119.527 107.867 119.077 108.036C118.467 108.264 117.842 108.457 117.207 108.622C113.158 109.673 108.674 109.481 104.633 108.772C102.604 108.415 100.618 107.875 98.741 107.11C93.595 110.062 89.1276 114.606 85.1981 118.965C80.661 123.998 76.0416 129.694 73.6779 136.141C72.8442 138.414 72.1016 141.085 72.7959 143.497C74.0158 147.733 76.1426 151.789 78.6897 155.369C82.1526 160.237 86.3547 164.46 90.556 168.683C92.5837 170.721 94.6113 172.759 96.5554 174.869C97.6659 174.191 98.9255 173.654 100.168 173.125C101.068 172.741 101.959 172.361 102.778 171.934ZM215.977 141.598C214.326 139.826 211.853 137.621 209.17 136.156C208.976 136.204 208.782 136.208 208.659 136.134C206.685 134.953 204.613 134.552 202.548 134.688C202.531 134.692 202.514 134.695 202.496 134.697C202.473 134.701 202.451 134.705 202.428 134.71C202.315 134.735 202.218 134.735 202.13 134.726C197.658 135.176 193.25 138.076 189.963 140.99C185.892 144.601 182.59 149.029 179.32 153.413C178.312 154.765 177.306 156.114 176.282 157.432L175.856 157.982C172.084 162.841 168.246 167.785 163.821 172.059C159.59 176.144 154.821 179.534 149.69 182.386C146.425 184.201 143.025 185.514 139.594 186.839C138.312 187.334 137.025 187.831 135.739 188.357C130.824 190.366 126.081 193.141 123.85 198.229C120.302 206.321 125.777 213.951 132.526 218.164C139.416 222.466 149.764 225.665 157.274 221.059C162.898 217.609 166.254 212.123 169.615 206.627C171.65 203.301 173.686 199.972 176.228 197.088C178.07 194.999 180.216 193.291 182.363 191.581C183.992 190.284 185.623 188.985 187.124 187.519L187.392 187.256C190.581 184.139 193.65 181.14 197.18 178.374C198.298 177.498 199.433 176.637 200.569 175.775L200.981 175.461C201.16 175.326 201.339 175.19 201.517 175.054C200.669 174.877 199.872 174.463 199.216 173.799C197.66 172.222 195.791 169.816 196.71 167.476C197.141 166.377 197.836 165.33 198.706 164.452C197.195 163.105 195.793 161.656 194.865 159.826C194.277 160.26 193.681 160.649 193.105 160.982C190.766 162.334 188.425 161.684 186.382 160.131C184.631 158.801 182.54 156.599 183.1 154.156C183.803 151.084 186.751 148.912 189.301 147.388C189.335 147.368 189.372 147.346 189.41 147.322C189.462 147.29 189.517 147.256 189.576 147.22C190.588 146.593 192.588 145.355 193.519 146.374C193.679 146.364 193.824 146.392 193.915 146.472C194.13 146.665 194.374 146.874 194.637 147.099C196.777 148.938 200.124 151.812 199.102 154.714C198.529 156.34 197.269 157.832 195.833 159.057C195.902 159.098 195.96 159.152 195.995 159.227C196.825 160.985 198.155 162.384 199.588 163.67C200.553 162.919 201.662 162.37 202.834 162.142C203.392 162.033 205.299 161.683 206.046 162.263L206.05 162.263L206.107 162.163C206.107 162.163 206.634 162.538 207.323 163.131C207.424 163.201 207.526 163.271 207.63 163.342C209.091 164.346 210.819 165.534 211.283 167.059L211.581 166.818C215.03 164.03 218.527 161.204 219.991 156.843C221.693 151.774 219.52 145.401 215.977 141.598Z" fill="#FEFDFF"/>
<path fill-rule="evenodd" clip-rule="evenodd" d="M101.423 63.1598C101.728 63.4486 102.911 62.9737 102.599 62.6775C102.216 62.3149 101.69 62.1598 101.173 62.1454C100.896 62.1375 100.512 62.2489 100.338 62.4818C100.156 62.7247 100.492 62.8134 100.671 62.8186C100.947 62.8265 101.225 62.9715 101.423 63.1598ZM117.912 51.6026C117.77 51.5104 117.644 51.4281 117.537 51.3571C117.257 51.1719 118.376 50.6629 118.716 50.8884C118.955 51.047 119.2 51.2051 119.448 51.3649C120.842 52.2639 122.318 53.2153 123.218 54.6027C124.27 56.2279 122.55 57.2187 121.194 57.6691C120.662 57.8461 119.875 57.5272 120.721 57.2458C124.606 55.9559 119.846 52.8606 117.912 51.6026ZM117.506 60.3944H118.812C118.996 60.3944 119.325 60.4953 119.147 60.7365C118.97 60.9759 118.593 61.0742 118.312 61.0742H117.005C116.821 61.0742 116.493 60.9732 116.67 60.7321C116.847 60.4927 117.224 60.3944 117.506 60.3944ZM119.099 179.124C119.131 179.049 119.162 178.975 119.192 178.9C119.291 178.653 118.83 178.622 118.436 178.737C115.245 175.839 112.064 172.894 110.338 168.841C110.274 168.691 110.073 168.648 109.848 168.669C111.557 167.554 113.181 166.319 114.642 164.914C115.038 164.814 115.428 164.56 115.232 164.402C115.226 164.396 115.219 164.39 115.212 164.385C115.209 164.382 115.205 164.379 115.201 164.376C115.207 164.37 115.213 164.365 115.218 164.36C115.221 164.357 115.225 164.354 115.228 164.35C115.403 164.17 115.182 164.103 114.882 164.113C104.124 155.208 93.3307 138.078 107.111 126.759C110.738 123.78 115.309 121.824 119.673 119.957C120.462 119.619 121.244 119.285 122.012 118.947C127.372 116.595 132.846 114.595 138.4 112.759C146.645 110.034 155.411 107.297 164.162 107.661C163.07 108.488 161.949 109.275 160.829 110.061C157.997 112.048 155.172 114.03 152.852 116.646C152.641 116.777 152.525 116.962 152.681 117.139C153.226 117.762 153.757 118.383 154.28 118.997C154.522 119.281 154.762 119.562 155.002 119.842C154.911 119.857 154.821 119.877 154.739 119.904C154.7 119.916 154.664 119.93 154.629 119.944C154.537 119.982 154.462 120.028 154.419 120.079C153.73 120.898 152.957 121.688 152.177 122.483C150.593 124.099 148.983 125.741 148.005 127.716C146.57 130.611 147.364 133.152 149.155 135.681C152.181 139.954 157.536 144.435 163.008 142.546C165.693 141.618 173.524 136.415 169.422 133.018C168.216 132.02 166.423 131.6 164.767 131.324C165.031 130.644 165.16 129.937 165.29 129.225C165.356 128.866 165.422 128.506 165.505 128.148C165.519 128.09 165.506 128.043 165.477 128.006C165.821 128.122 166.171 128.231 166.534 128.329C166.819 128.405 167.302 128.181 167.479 127.948C167.481 127.946 167.485 127.943 167.488 127.941C167.489 127.94 167.492 127.937 167.492 127.937C170.94 124.289 175.211 121.489 179.47 118.696C182.264 116.864 185.053 115.035 187.6 112.973C193.308 108.352 199.171 101.544 195.374 93.8531C192.118 87.2576 183.901 86.1597 177.371 86.1195C169.879 86.0736 162.372 86.4035 154.895 86.8539C150.406 87.1248 145.915 87.4642 141.448 87.9994C141.161 88.0338 140.87 88.0674 140.577 88.1012C138.156 88.3805 135.571 88.6787 133.349 89.6377C133.334 89.644 133.321 89.6504 133.309 89.6568C133.301 89.6607 133.294 89.6645 133.286 89.6683C133.23 88.7469 133.078 87.8133 132.821 86.8723C133.287 86.6914 133.743 86.4633 134.188 86.1724C135.32 85.7953 136.037 85.0452 135.517 83.4629C134.981 81.8361 134.292 80.296 133.61 78.7724C132.077 75.3443 130.58 71.9995 130.951 67.9388C130.955 67.9209 130.96 67.9035 130.959 67.8847C130.858 57.6233 139.791 50.4436 147.977 45.9411C156.296 41.3653 166.389 37.8475 175.972 37.7864C176.017 37.7864 176.063 37.7785 176.11 37.768C176.452 37.8952 177.025 37.7226 177.115 37.3962C178.661 40.1468 181.283 42.6073 183.611 44.3479C185.817 45.9966 188.59 46.8983 191.071 45.2893C192.616 44.2888 190.832 42.5679 188.841 40.6463C187.154 39.0178 185.317 37.2451 185.229 35.6444C185.242 35.6147 185.252 35.5836 185.256 35.5513C185.302 35.1926 185.373 34.8829 185.456 34.5972C185.603 34.3176 185.823 34.0454 186.132 33.7841C186.38 33.5744 186.233 33.4871 185.982 33.4744C187.597 31.3293 191.376 33.4221 194.766 35.2994C196.734 36.3896 198.572 37.4071 199.778 37.4801C201.863 37.6064 203.342 36.2831 203.334 34.5417C205.168 33.9156 206.297 32.5408 205.614 30.653C205.711 30.6019 205.787 30.539 205.826 30.4665C208.822 24.7932 200.969 22.8897 196.94 22.3537C190.397 21.483 182.756 21.9264 176.64 24.677C166.408 24.1418 155.953 26.2414 146.489 30.0646C137.081 33.8654 127.753 40.2316 123.618 49.8298C122.437 48.7983 121.328 47.7254 120.484 46.4964C120.527 46.4746 120.565 46.451 120.594 46.4239C126.223 41.0826 118.193 34.9108 113.344 32.9528C107.532 30.6054 100.053 30.6561 94.4357 33.5072C88.7378 36.3993 84.0061 41.6676 83.0875 48.1443C83.0483 48.4196 83.0165 48.7101 82.9908 49.0107C78.5195 49.1339 74.2851 47.2015 71.6652 43.492C71.4601 43.2019 70.9026 43.2784 70.6696 43.4841C65.2457 48.2754 65.2226 56.0549 65.2218 62.7728C61.6442 63.6483 58.145 64.9729 54.7921 66.7601C43.0084 73.0407 34.6193 84.3086 30.3806 96.8357C30.3213 97.0109 30.4202 97.1109 30.5844 97.1507C31.0252 97.5705 31.4903 97.976 31.9712 98.3709C30.4933 99.9633 28.5847 101.174 26.7156 102.36C25.9859 102.824 25.2622 103.283 24.5725 103.759C24.5152 103.799 24.4573 103.839 24.3989 103.879C22.6502 105.086 20.44 106.611 19.9287 108.783C19.8921 108.94 20.0485 109.081 20.1892 109.105C21.3887 109.317 22.5477 109.215 23.6618 108.914C21.0076 110.61 18.2972 112.572 17.9004 115.587C17.9239 115.63 17.9609 115.652 18.011 115.656C20.6335 115.951 22.9536 114.985 25.1139 113.658C22.2746 116.649 18.4453 121.025 21.2219 122.71C22.8555 123.701 24.9579 121.918 26.1481 120.909C26.173 120.888 26.1975 120.867 26.2215 120.847C27.2505 119.976 28.2057 119.014 29.1578 118.056C29.401 117.812 29.644 117.567 29.888 117.324C30.0777 117.135 30.2806 116.917 30.4946 116.687C30.5788 116.596 30.6646 116.504 30.7521 116.411C28.2059 119.624 25.5103 123.687 26.9019 127.529C26.9568 127.681 27.2418 127.64 27.3827 127.62C27.3971 127.617 27.41 127.616 27.421 127.614C30.2246 127.247 31.9978 125.414 33.412 123.079C33.8946 122.282 34.3366 121.36 34.7923 120.409C36.0852 117.711 37.4886 114.783 40.2422 113.835C40.3176 113.808 40.3759 113.784 40.4265 113.759C41.6445 114.106 42.8642 117.186 43.398 118.534C43.4828 118.748 43.5503 118.918 43.5977 119.027C43.6392 119.122 43.6812 119.22 43.724 119.32C44.3146 120.699 45.0645 122.45 46.7855 122.185C49.2058 121.812 50.2677 118.579 49.9367 116.507C49.6451 114.682 48.7176 113.054 47.7921 111.428C46.6408 109.407 45.4927 107.391 45.5755 105.009C46.7637 105.3 47.9471 105.528 49.1104 105.68C49.1422 105.845 49.519 105.857 49.8561 105.766C49.9075 105.771 49.9593 105.778 50.0111 105.784C50.08 105.793 50.1488 105.801 50.2167 105.807C50.5338 105.837 51.6836 105.284 51.0172 105.222C50.9037 105.211 50.7888 105.197 50.6739 105.183C50.6076 105.175 50.5414 105.167 50.4754 105.159C54.0517 95.4897 60.652 87.1187 69.0877 82.1378C68.9321 83.3094 69.993 85.2479 70.6767 86.4971C70.8486 86.8112 70.9967 87.0817 71.0956 87.2855C72.8068 90.8151 74.9144 94.2227 77.4929 97.1804C81.2861 101.532 86.23 103.236 91.4975 102.188C93.3891 104.245 95.6526 105.758 98.1274 106.85C93.0637 109.721 88.7178 114.033 84.7822 118.251C80.0317 123.342 75.4837 129.093 72.748 135.554C71.7741 137.856 71.0807 140.399 71.3551 142.915C71.7972 146.969 74.5063 151.282 76.6841 154.619C80.2021 160.01 84.7742 164.57 89.3322 169.115C91.4385 171.216 93.5418 173.314 95.5367 175.489C95.5746 175.53 95.6408 175.55 95.7218 175.556C95.8455 175.716 96.6256 175.663 96.8508 175.501C97.3015 175.177 97.9793 174.9 98.6243 174.637C98.817 174.558 99.0067 174.481 99.1866 174.403C99.9449 176.434 99.8404 178.82 99.747 180.954C99.7419 181.071 99.7368 181.186 99.7319 181.301C99.6356 183.563 99.4178 185.818 99.2001 188.073C99.1008 189.1 99.0016 190.127 98.914 191.155C98.8829 191.52 98.8395 191.921 98.7936 192.344C98.4281 195.718 97.9044 200.55 102.178 200.681C106.592 200.816 110.083 195.549 112.194 192.363L112.221 192.323C114.859 188.341 117.094 183.985 118.919 179.556C119.034 179.469 119.086 179.372 119.031 179.288C119.053 179.233 119.076 179.178 119.099 179.124ZM164.428 127.609C164.675 127.712 164.927 127.808 165.184 127.9C164.987 127.892 164.74 127.943 164.547 128.033C164.392 128.106 164.272 128.203 164.245 128.318C164.162 128.676 164.096 129.036 164.03 129.395C163.922 129.986 163.814 130.574 163.63 131.145C163.463 131.121 163.3 131.096 163.142 131.072C160.831 130.715 158.463 130.531 156.125 130.518C155.683 130.515 154.77 131.185 155.622 131.19C158.154 131.205 160.814 131.357 163.366 131.848C163.329 132.024 163.689 132.055 164.041 131.978C164.969 132.18 165.88 132.432 166.76 132.744C167.828 133.122 168.484 133.616 168.835 134.177C169.751 135.645 168.54 137.581 166.866 139.181C165.577 140.413 164.017 141.445 162.949 141.908C158.739 143.73 154.137 139.938 151.262 136.405C150.697 135.712 150.198 135.028 149.783 134.399C149.779 134.393 149.775 134.387 149.772 134.381C149.769 134.376 149.766 134.37 149.762 134.365C146.631 129.575 150.247 125.773 153.539 122.314C154.111 121.713 154.673 121.122 155.188 120.539C155.207 120.516 155.226 120.494 155.246 120.472C155.296 120.414 155.346 120.356 155.397 120.298C156.193 121.217 156.99 122.108 157.819 122.947C159.719 124.871 161.793 126.52 164.428 127.609ZM131.002 87.3139C131.19 87.2934 131.377 87.265 131.564 87.2296C131.804 88.1104 131.952 88.9824 132.013 89.8422C132.576 97.6203 126.236 104.394 119.336 107.517C116.862 108.637 114.01 108.982 111.151 108.905C108.635 108.837 106.114 108.444 103.841 107.949C102.749 107.71 101.673 107.397 100.629 107.008C100.269 106.875 99.9153 106.73 99.5634 106.578C99.5825 106.504 99.4645 106.47 99.2994 106.464C96.8608 105.376 94.6317 103.849 92.7919 101.879C93.2701 101.744 93.7506 101.595 94.2323 101.415C94.9013 101.165 95.606 100.874 96.3133 100.543C98.1108 99.7038 99.9249 98.6038 101.226 97.2429C101.372 97.0908 101.513 96.9362 101.645 96.7776C103.374 94.6972 104.62 92.2161 105.811 89.8024C107.11 87.1728 108.262 84.4659 109.314 81.7285C109.384 81.5469 109.455 81.3642 109.526 81.1802C110.071 79.7715 110.643 78.2948 110.976 76.8044C112.206 78.6996 114.063 79.9949 116.532 79.607C117.439 79.465 118.23 79.0775 118.838 78.5205C119.591 81.6262 122.564 84.4454 125.12 85.8998C126.988 86.9627 129.031 87.5302 131.002 87.3139ZM92.4563 64.4951C92.454 64.5053 92.4518 64.5155 92.4491 64.5255C92.423 64.512 92.3982 64.4975 92.3651 64.4857C92.3651 64.4857 92.3614 64.4842 92.3594 64.4836C92.3575 64.4829 92.3538 64.4814 92.3538 64.4814C92.374 64.4785 92.3943 64.4756 92.4146 64.4725C92.4309 64.4701 92.4472 64.4675 92.4635 64.4648C92.4609 64.4748 92.4586 64.485 92.4563 64.4951ZM111.506 75.1215C111.534 75.0945 111.554 75.0656 111.561 75.0359C112.507 70.9057 110.722 68.3294 107.132 66.4731C107.013 66.4118 106.894 66.3492 106.773 66.2862C105.526 65.6352 104.165 64.9245 102.771 64.813C102.487 64.7902 102.213 64.7878 101.949 64.7854C100.94 64.7764 100.083 64.7687 99.414 63.6334C98.792 62.577 99.1918 60.7675 100.729 60.764C100.818 60.764 101.024 60.7015 101.225 60.6207C101.613 60.6207 101.972 60.5726 102.325 60.3953C102.472 60.3848 102.6 60.3782 102.694 60.3747C104.631 62.1052 106.747 63.6448 108.844 64.9851C112.244 67.1603 116.6 69.1748 120.688 68.2678C118.876 70.4299 118.773 73.0538 118.795 76.2963C118.796 76.3365 118.801 76.3732 118.81 76.4068C118.784 76.6288 118.739 76.8455 118.675 77.0547C118.672 77.0652 118.67 77.0761 118.667 77.0862C118.3 78.2645 117.351 79.1649 115.907 79.081C113.75 78.9552 112.316 76.9407 111.506 75.1215ZM177.127 25.5319C177.534 25.5603 178.077 25.1226 177.956 24.8793C183.355 22.7049 189.738 22.4432 195.418 22.9793C198.863 23.3047 206.592 24.7595 205.028 29.5268C202.988 26.4525 198.579 25.1859 195.177 24.8133C194.825 24.7748 193.7 25.369 194.389 25.4446C197.592 25.7954 200.776 26.8365 203.117 29.1436C204.635 30.6391 205.29 32.9951 203.269 33.9235C203.2 33.5753 203.079 33.2171 202.887 32.8536C201.135 29.5385 197.531 28.901 194.131 28.2996C193.494 28.1869 192.864 28.0754 192.255 27.9479C191.785 27.85 190.758 28.5608 191.504 28.7168C192.089 28.8394 192.708 28.9466 193.342 29.0564C196.838 29.6624 200.778 30.3453 201.977 34.1026C202.017 34.2315 202.044 34.3595 202.062 34.4875C202.049 34.5325 202.057 34.574 202.079 34.6129C202.175 35.7335 201.409 36.7318 200.072 36.6509C199.611 36.6231 199.129 36.3792 198.698 36.1606C198.601 36.1116 198.507 36.0638 198.416 36.0201C197.572 35.6139 196.751 35.1589 195.931 34.7043C195.515 34.4739 195.1 34.2435 194.681 34.0196C191.054 32.079 184.77 29.5115 183.985 35.678C183.978 35.7326 183.986 35.7776 184.001 35.8187C183.998 37.7407 186.18 39.7745 187.975 41.4476C188.744 42.165 189.443 42.8161 189.867 43.3636C190.612 44.3243 190.536 45.1338 189.265 45.4728C187.409 45.9679 185.373 44.3587 184.023 43.2921L184.003 43.2762C181.404 41.2229 178.415 38.1022 177.411 34.8615C177.381 34.7636 177.27 34.7169 177.127 34.7068V25.5319ZM124.835 50.8716C124.73 50.7827 124.625 50.6938 124.52 50.6048C128.35 40.9874 137.282 34.8056 146.495 30.8981C155.614 27.0304 165.92 25.0024 175.853 25.4655V36.9546C166.049 37.1477 155.98 40.6698 147.439 45.2753C138.967 49.8438 129.582 57.4254 129.686 68.0022C129.686 68.0086 129.687 68.0144 129.688 68.0203C129.689 68.0248 129.69 68.0293 129.691 68.0341C129.259 72.5317 130.993 76.544 132.824 80.5594C132.952 80.8423 133.085 81.1242 133.218 81.4064C133.628 82.2759 134.039 83.1477 134.339 84.0601C134.815 85.507 133.823 85.6708 132.584 85.7892C132.134 85.8325 131.793 86.2279 131.965 86.4135C131.751 86.4778 131.552 86.5677 131.47 86.6547C126.492 87.5499 120.006 81.5397 119.921 76.8228C119.972 76.6576 120.017 76.489 120.046 76.3147C120.062 76.2753 120.072 76.2351 120.072 76.191C120.072 76.1657 120.071 76.1408 120.071 76.115C120.11 75.7742 120.113 75.4208 120.064 75.0543C120.062 75.0448 120.058 75.0367 120.054 75.0285C120.053 75.026 120.051 75.0236 120.05 75.0211C120.013 73.2945 119.997 71.5627 120.706 69.9502C121.523 68.0898 123.546 66.9237 125.381 65.8653C125.929 65.549 126.461 65.2423 126.939 64.9296C129.363 63.3451 131.305 61.0314 130.498 58.006C129.69 54.9798 127.261 52.924 124.835 50.8716ZM120.272 48.953C120.431 48.8455 120.56 48.6467 120.466 48.4903C121.29 49.4056 122.225 50.2549 123.18 51.0959C123.209 51.1798 123.281 51.237 123.378 51.2702C123.474 51.3539 123.569 51.4375 123.665 51.5212C125.854 53.4386 128.051 55.3635 129.116 57.9924C130.624 61.7143 126.86 63.9872 123.97 65.7331C123.526 66.0011 123.103 66.2567 122.722 66.5033C122.417 66.7016 122.142 66.9056 121.881 67.1136C121.777 67.1127 121.667 67.1293 121.56 67.173C116.999 69.0192 111.593 65.591 107.988 63.0637C105.749 61.4949 103.51 59.6657 101.577 57.6005C100.916 56.6023 100.154 55.6656 99.3356 54.8246C99.3151 54.8037 99.2877 54.7884 99.2576 54.7761C99.056 54.4917 98.8591 54.2051 98.6718 53.9137C98.5468 53.7189 98.2363 53.7023 97.9597 53.7883L97.9283 53.7455L98.0005 53.6946C98.2346 53.5294 98.4687 53.3642 98.7084 53.2034C101.965 51.0155 105.432 49.1426 108.913 47.3457C109.169 47.2138 109.427 47.0823 109.686 46.9516C111.479 46.0486 113.323 45.2085 115.225 44.5728C116.124 44.2714 117.038 44.0189 117.964 43.8245C117.923 43.9031 117.906 43.9905 117.931 44.0849C118.368 45.7594 119.274 47.1522 120.398 48.4165C120.393 48.4132 120.39 48.4097 120.386 48.4062C120.379 48.4003 120.372 48.3944 120.364 48.389C119.454 47.8333 118.358 48.0928 117.611 48.7988C117.406 48.9927 117.488 49.2487 117.75 49.32C118.054 49.4025 118.416 49.2933 118.643 49.0801C118.903 48.8337 119.041 48.8499 119.374 49.053C119.634 49.2125 120.037 49.1116 120.272 48.953ZM120.667 43.4431C120.938 43.4252 121.154 43.2779 121.259 43.1145C121.164 44.0036 120.782 44.8926 120.018 45.7563C119.666 45.132 119.382 44.4667 119.193 43.7454C119.179 43.6925 119.153 43.6497 119.122 43.6121C119.633 43.5348 120.148 43.4776 120.667 43.4431ZM84.2961 48.5061C84.4033 46.9425 84.7813 45.4553 85.3602 44.0547C85.7434 43.1281 86.2112 42.2382 86.7587 41.3928C88.5218 38.6684 91.0475 36.3901 93.7671 34.6981C99.056 31.4071 105.968 31.4364 111.746 33.3494C115.289 34.522 121.391 38.6033 121.287 42.7768C121.221 42.6825 121.072 42.6209 120.812 42.6379C113.264 43.1421 105.963 47.6826 99.6634 51.6004L99.4702 51.7206C95.7824 54.0138 92.6238 56.7167 89.5179 59.7181C89.3511 59.8793 89.3493 59.9986 89.436 60.079C88.8223 60.5814 88.4687 61.2507 88.5431 61.9903C84.7325 59.5407 84.0331 52.3532 84.2961 48.5061ZM89.2439 63.449C81.763 61.2323 73.9793 60.8815 66.4992 62.4805L66.499 62.2516C66.4935 56.2482 66.487 49.0885 70.9305 44.6017C73.8177 48.2776 78.3021 50.0906 82.9368 49.9268C82.7656 54.7792 84.2918 61.7487 88.9944 63.2651C89.0227 63.2738 89.054 63.2787 89.0871 63.2813H89.0906H89.0985C89.1015 63.2852 89.1037 63.2887 89.1067 63.2931C89.1355 63.3303 89.1666 63.3641 89.1976 63.3979C89.2132 63.4148 89.2287 63.4317 89.2439 63.449ZM44.7523 104.8C44.5228 104.866 44.332 104.967 44.3229 105.102C44.1441 107.653 45.3847 109.911 46.6195 112.158C47.3853 113.552 48.1489 114.942 48.5703 116.395C49.1104 118.258 48.488 119.895 47.3216 121.348C46.6273 122.213 45.9013 120.817 45.5408 120.124C45.5143 120.073 45.4899 120.026 45.4675 119.984C45.2061 119.492 44.9426 118.862 44.6594 118.184C43.4494 115.29 41.8795 111.535 38.5784 114.022C38.5462 114.047 38.5397 114.065 38.5514 114.079C36.7491 115.133 35.5745 116.902 34.5475 118.773C34.2432 119.327 33.9411 119.957 33.6248 120.617C32.3611 123.252 30.8706 126.359 28.1074 127.017C26.6829 122.685 30.4924 118.037 33.1588 114.784C33.318 114.589 33.4731 114.4 33.6228 114.216C33.6881 114.136 33.6668 114.084 33.5958 114.055C33.5448 113.912 33.3275 113.827 32.9664 113.946C31.5638 114.405 30.4381 115.549 29.3964 116.607C29.2215 116.785 29.049 116.96 28.8779 117.129C28.6858 117.319 28.405 117.63 28.064 118.009C26.5405 119.698 23.8139 122.721 22.4096 122.217C19.4759 121.164 24.8119 115.349 27.4376 112.487C27.8599 112.027 28.2121 111.643 28.4485 111.368C28.6231 111.243 28.7982 111.117 28.9716 110.994C29.0713 110.923 28.9485 110.9 28.7507 110.908C28.7163 110.63 27.7285 110.756 27.5256 111.041C27.3949 111.224 27.1823 111.47 26.9158 111.761C25.5756 112.721 24.2328 113.675 22.765 114.438C21.6753 115.004 18.7597 115.622 19.6047 113.734C19.964 112.931 20.6021 112.254 21.2097 111.641C22.4805 110.356 23.9991 109.371 25.5155 108.388C25.9485 108.107 26.3813 107.826 26.8082 107.539C27.293 107.254 27.7664 106.948 28.2272 106.629C28.9341 106.141 27.8723 105.836 27.4167 106.15C26.5373 106.757 25.6357 107.288 24.6679 107.745C23.9632 108.067 23.2284 108.285 22.4623 108.398C20.9712 108.652 21.1559 108.361 21.5441 107.751C21.5906 107.678 21.6399 107.6 21.6897 107.519C22.4986 106.187 23.9589 105.198 25.2697 104.31C25.4637 104.179 25.6543 104.05 25.8391 103.922C26.493 103.47 27.1735 103.035 27.8582 102.597C29.5681 101.503 31.3044 100.392 32.7173 98.9659C36.1694 101.608 40.4548 103.635 44.7523 104.8ZM105.631 87.6409C103.733 91.8483 101.784 96.1713 97.8238 98.737C94.7554 100.725 91.2405 102.103 87.544 101.811C84.2173 101.549 81.3658 99.4718 79.1118 97.1607C76.5625 94.5465 74.6178 91.2651 72.9201 88.0553C72.2315 86.7534 71.6125 85.414 71.0568 84.05C71.0275 83.9784 70.9793 83.8736 70.9213 83.7475C70.6587 83.1771 70.1946 82.1689 70.3708 81.8014C70.4531 81.6302 70.3961 81.5227 70.2724 81.4646C76.9349 77.8542 84.6642 76.3352 92.9091 77.8791C93.2806 77.949 94.3943 77.3597 93.6918 77.2282C73.7175 73.4867 56.2242 86.7809 49.3373 105.009C43.7776 104.164 37.8236 101.663 33.3967 98.1153C33.3911 97.9947 33.2748 97.9178 33.1154 97.8825C32.6202 97.474 32.1402 97.055 31.6881 96.6212C35.7766 84.6075 43.7166 73.9957 54.827 67.7073C58.2983 65.7426 61.9647 64.3363 65.7279 63.456C65.8881 63.46 66.0597 63.4215 66.2009 63.349C74.5717 61.4931 83.3998 62.2345 91.622 65.2835C91.825 65.3591 92.1138 65.2809 92.3302 65.1446C92.1691 66.4451 92.5863 67.6562 93.7584 68.578C95.0302 69.5776 96.802 69.6501 98.3316 69.2263C98.4113 69.2193 98.4858 69.2123 98.5594 69.2049C98.7254 69.6614 98.951 70.0367 99.2215 70.343L99.1796 70.6366C99.1796 70.6366 99.5089 70.8183 100.028 70.9891C102.417 72.2971 106.536 70.485 108.257 68.3198C110.252 69.9332 110.881 72.1704 110.422 74.7524C110.201 74.8494 110.042 74.9826 110.091 75.1023C110.106 75.1402 110.123 75.1775 110.14 75.2147C110.152 75.2419 110.164 75.269 110.175 75.2963C110.048 75.3741 109.957 75.4741 109.945 75.5894C109.573 79.0695 107.915 82.6678 106.416 85.9219C106.185 86.4241 105.957 86.9181 105.739 87.4022C105.703 87.4817 105.667 87.5613 105.631 87.6409ZM113.758 164.635C110.634 167.728 106.639 169.921 102.778 171.935C101.959 172.361 101.068 172.741 100.168 173.125C98.9255 173.654 97.666 174.191 96.5555 174.869C94.6113 172.759 92.5838 170.721 90.5561 168.683C86.3548 164.46 82.1526 160.237 78.6898 155.37C76.1427 151.789 74.0159 147.733 72.7959 143.497C72.1017 141.085 72.8443 138.414 73.6779 136.141C76.0416 129.694 80.661 123.999 85.1981 118.965C89.1277 114.606 93.5951 110.062 98.7411 107.11C100.618 107.876 102.604 108.416 104.633 108.772C108.674 109.481 113.158 109.673 117.207 108.622C117.842 108.458 118.467 108.264 119.077 108.036C119.527 107.867 119.975 107.679 120.422 107.478C127.258 104.409 133.487 97.7274 133.307 90.1528C133.464 90.1746 133.656 90.158 133.827 90.0842C135.669 89.2891 137.805 89.0374 139.824 88.7994C140.176 88.758 140.525 88.7169 140.867 88.6735C144.696 88.1877 148.549 87.8911 152.398 87.6316C160.087 87.1143 167.801 86.7993 175.508 86.7696C183.05 86.7399 192.34 87.8788 194.96 96.3232C197.621 104.905 188.277 111.787 182.348 116.044C180.762 117.182 179.109 118.269 177.45 119.359C173.721 121.81 169.958 124.283 166.845 127.422C161.752 125.904 158.731 122.347 155.486 118.526C154.992 117.944 154.492 117.355 153.979 116.767C156.236 114.257 158.965 112.34 161.702 110.417C162.804 109.643 163.908 108.868 164.982 108.053C165.158 107.919 165.217 107.807 165.202 107.718C167.29 107.865 169.376 108.195 171.453 108.751C171.819 108.848 172.934 108.292 172.238 108.105C161.369 105.195 150.002 108.298 139.666 111.715C134.053 113.571 128.505 115.519 123.057 117.825C122.483 118.068 121.903 118.311 121.319 118.556C116.618 120.528 111.674 122.601 107.552 125.52C101.18 130.033 98.0115 136.755 99.725 144.516C101.508 152.594 107.527 159.518 113.758 164.635ZM111.808 191.127C110.638 193.073 108.627 196.416 106.289 198.389C105.978 198.651 105.662 198.886 105.342 199.092C104.127 199.877 102.847 200.226 101.566 199.779C99.9802 199.227 99.9599 197.346 99.9441 195.884C99.943 195.787 99.942 195.692 99.9406 195.599C99.9062 193.401 100.127 191.192 100.346 188.999C100.394 188.522 100.442 188.045 100.487 187.569C100.558 186.814 100.655 186.01 100.756 185.175C101.206 181.453 101.729 177.122 100.358 173.847C101.757 173.173 103.147 172.479 104.519 171.754C105.509 171.23 106.502 170.689 107.483 170.12C108.017 169.811 108.547 169.49 109.071 169.162C109.072 169.164 109.072 169.168 109.072 169.168C109.072 169.171 109.073 169.174 109.074 169.177C109.092 169.219 109.111 169.26 109.131 169.301C109.146 169.334 109.161 169.367 109.176 169.4C111.01 173.539 114.325 176.551 117.618 179.542L117.701 179.618C116.123 183.451 114.206 187.166 112.062 190.706C111.983 190.838 111.898 190.978 111.808 191.127ZM211.388 168.125C215.891 164.553 220.912 160.56 221.775 154.501C222.575 148.893 219.436 142.991 215.383 139.368C212.286 136.599 207.766 133.497 203.366 133.826C197.407 133.958 191.431 138.253 187.31 142.22C184.346 145.074 181.832 148.446 179.351 151.774C178.604 152.776 177.86 153.774 177.107 154.753C172.883 160.246 168.615 165.735 163.824 170.749C159.374 175.406 154.025 179.138 148.39 182.203C145.346 183.858 142.154 185.076 138.952 186.299C137.328 186.918 135.701 187.539 134.089 188.218C126.745 191.314 119.907 197.852 121.69 206.536C123.221 213.987 130.743 219.113 137.306 221.745C144.164 224.495 152.084 225.187 158.58 221.204C164.181 217.769 167.637 212.091 171.061 206.467C172.881 203.477 174.692 200.502 176.811 197.887C178.786 195.45 181.212 193.525 183.642 191.597C185.012 190.509 186.384 189.421 187.677 188.239C188.523 187.466 189.306 186.633 190.09 185.801C190.879 184.963 191.668 184.125 192.52 183.347C194.384 181.647 196.376 180.086 198.36 178.532L198.462 178.452C199.856 177.361 201.239 176.257 202.621 175.151C203.19 175.134 203.765 175.017 204.321 174.802L204.582 174.833L204.918 174.548C207.311 173.442 210.612 171.091 211.298 168.607C211.343 168.443 211.371 168.282 211.388 168.125ZM200.165 165.714C200.337 165.86 200.508 166.006 200.68 166.153C201.072 166.488 202.197 165.914 201.661 165.455C201.472 165.293 201.282 165.132 201.091 164.969C200.816 164.736 200.54 164.501 200.265 164.264C200.88 163.783 201.524 163.391 202.103 163.125C202.653 162.872 204.727 162.173 205.066 163.094C205.236 163.553 204.625 164.264 204.303 164.637C204.269 164.677 204.238 164.713 204.212 164.745C202.626 166.633 200.222 168.675 197.908 169.66C197.839 169.455 197.782 169.251 197.745 169.053C197.469 167.583 198.27 166.164 199.382 165.045C199.642 165.269 199.903 165.491 200.165 165.714ZM209.17 136.156C211.853 137.621 214.326 139.826 215.977 141.598C219.52 145.401 221.693 151.774 219.991 156.843C218.527 161.204 215.03 164.03 211.581 166.818C211.482 166.899 211.383 166.979 211.283 167.059C210.819 165.534 209.091 164.346 207.63 163.342C207.526 163.271 207.424 163.201 207.323 163.132C206.634 162.538 206.107 162.163 206.107 162.163L206.05 162.263L206.046 162.263C205.299 161.683 203.392 162.033 202.834 162.142C201.662 162.37 200.553 162.919 199.588 163.67C198.155 162.384 196.825 160.985 195.995 159.228C195.96 159.152 195.902 159.098 195.833 159.058C197.269 157.833 198.529 156.34 199.102 154.714C200.124 151.812 196.777 148.938 194.637 147.099C194.375 146.874 194.13 146.665 193.915 146.472C193.824 146.392 193.679 146.365 193.519 146.374C192.589 145.355 190.588 146.593 189.576 147.22C189.474 147.283 189.381 147.34 189.301 147.388C186.751 148.912 183.803 151.084 183.1 154.156C182.54 156.599 184.631 158.801 186.382 160.131C188.426 161.684 190.766 162.334 193.105 160.982C193.681 160.649 194.278 160.26 194.865 159.827C195.793 161.657 197.195 163.105 198.706 164.452C197.836 165.33 197.141 166.377 196.71 167.476C195.791 169.816 197.66 172.222 199.216 173.799C199.872 174.463 200.669 174.877 201.517 175.054C201.201 175.294 200.885 175.535 200.569 175.775C199.433 176.637 198.298 177.498 197.18 178.374C193.65 181.14 190.581 184.139 187.392 187.256L187.124 187.519C185.623 188.985 183.992 190.284 182.363 191.581C180.216 193.291 178.07 194.999 176.228 197.088C173.686 199.972 171.65 203.301 169.615 206.627C166.254 212.123 162.898 217.609 157.274 221.059C149.764 225.665 139.416 222.467 132.526 218.165C125.777 213.951 120.302 206.321 123.85 198.229C126.081 193.141 130.824 190.366 135.74 188.357C137.025 187.831 138.312 187.335 139.594 186.839C143.025 185.514 146.425 184.201 149.69 182.386C154.821 179.534 159.59 176.144 163.821 172.059C168.246 167.785 172.084 162.841 175.856 157.982C175.998 157.799 176.14 157.615 176.282 157.432C177.306 156.114 178.312 154.766 179.32 153.413C182.59 149.029 185.892 144.601 189.963 140.991C193.25 138.076 197.658 135.176 202.13 134.726C202.218 134.735 202.315 134.735 202.428 134.71C202.452 134.705 202.476 134.701 202.5 134.697C202.516 134.694 202.532 134.692 202.548 134.689C204.614 134.552 206.685 134.953 208.659 136.134C208.782 136.208 208.976 136.205 209.17 136.156ZM184.357 155.373C183.905 153.371 185.449 151.536 186.765 150.265C187.759 149.305 188.935 148.545 190.096 147.81C190.135 147.785 190.184 147.753 190.241 147.716C190.892 147.29 192.596 146.175 192.432 147.524C192.046 150.708 187.97 154.022 185.234 155.032C185.06 155.096 184.959 155.169 184.909 155.24C184.682 155.308 184.5 155.349 184.357 155.373ZM196.771 156.652C197.153 156.177 197.479 155.673 197.695 155.141C197.437 155.663 197.117 156.174 196.771 156.652ZM162.629 213.743C162.885 212.726 162.072 211.767 161.444 211.094C160.903 210.514 160.321 209.983 159.738 209.451C159.004 208.781 158.27 208.111 157.619 207.344C157.419 207.109 156.831 207.228 156.548 207.452C156.164 207.353 155.724 207.337 155.34 207.378C153.556 207.563 151.977 208.281 150.656 209.373C148.2 206.973 145.937 204.365 144.636 201.167C146.179 200.013 147.517 198.513 148.052 197.057C149.115 194.167 146.559 191.684 144.427 189.614C143.888 189.09 143.376 188.592 142.956 188.121C142.909 188.069 142.841 188.036 142.761 188.017C142.754 188.005 142.747 187.992 142.74 187.979C142.729 187.958 142.718 187.937 142.703 187.917C141.771 186.71 138.802 188.839 137.682 189.642C137.533 189.749 137.417 189.832 137.342 189.881C135.354 191.187 132.853 192.881 132.178 195.315C131.752 196.851 132.771 198.374 133.598 199.611C133.654 199.693 133.708 199.775 133.761 199.855C134.202 200.519 134.675 201.1 135.188 201.586L135.331 201.919L135.675 202.005C137.088 203.127 138.781 203.564 140.865 203.068C141.709 202.867 142.638 202.456 143.546 201.905C144.941 205.123 147.255 207.765 149.762 210.205C149.421 210.565 149.101 210.953 148.805 211.365C147.169 213.642 147.527 215.84 149.225 217.897C150.932 219.967 153.509 220.35 155.954 219.607C158.481 218.84 161.955 216.43 162.629 213.743ZM146.944 196.858C146.339 197.941 145.494 199.005 144.775 199.816C145.729 198.958 146.592 197.941 146.944 196.858ZM133.667 197.136C133.537 196.805 133.434 196.462 133.38 196.101C133.161 194.621 134.39 193.342 135.358 192.425C136.373 191.462 137.559 190.683 138.725 189.918L138.765 189.891C138.788 189.876 138.827 189.85 138.877 189.815C139.459 189.417 141.666 187.908 141.647 188.861C141.621 190.115 140.52 191.489 139.718 192.49C139.64 192.588 139.564 192.682 139.493 192.773C138.735 193.731 137.843 194.647 136.842 195.395C136.494 195.622 136.135 195.835 135.765 196.021C134.573 196.619 133.97 196.954 133.667 197.136ZM153.161 211.731C152.522 211.142 151.88 210.548 151.245 209.942C152.613 208.663 154.582 207.566 156.084 208.275C156.894 208.656 155.149 210.431 154.823 210.762C154.811 210.775 154.801 210.785 154.793 210.793C154.316 211.282 153.79 211.786 153.236 212.28C153.349 212.114 153.36 211.913 153.161 211.731ZM152.973 212.51C151.784 213.539 150.46 214.489 149.113 215.11C148.862 213.923 149.193 212.692 149.987 211.418C150.103 211.231 150.248 211.033 150.412 210.83C151.004 211.393 151.602 211.947 152.198 212.495C152.398 212.68 152.724 212.647 152.973 212.51ZM191.674 119.722C199.358 114.735 202.843 106.634 203.737 97.7448C203.774 97.3835 205.035 97.1271 204.991 97.5565C204.082 106.6 200.457 114.794 192.664 119.85C192.388 120.03 191.11 120.088 191.674 119.722ZM202.901 115.362C202.674 115.55 201.505 115.683 201.762 115.472C204.246 113.423 205.412 110.487 206.568 107.573L206.646 107.377C206.771 107.063 207.968 106.949 207.889 107.146L207.867 107.201C206.67 110.215 205.466 113.247 202.901 115.362ZM72.2354 155.83C66.8903 149.671 62.8689 139.099 66.6882 131.252C66.8494 130.921 68.0419 130.819 67.9352 131.038C64.1699 138.773 68.1443 149.309 73.4222 155.39C73.6361 155.637 72.451 156.079 72.2354 155.83ZM67.8751 158.56C70.3704 161.399 73.1849 164.219 76.5186 166.056C77.083 166.367 75.9371 166.942 75.5277 166.717C71.8316 164.681 68.5929 161.445 65.957 158.19C63.5954 155.273 60.9952 151.722 60.8702 147.813C60.8554 147.342 62.1202 147.088 62.1394 147.68C62.2692 151.757 65.3054 155.636 67.8751 158.56ZM161.151 149.907C161.122 153.001 160.675 156.781 157.815 158.565C157.563 158.722 156.286 158.824 156.836 158.481C159.495 156.823 159.862 153.092 159.888 150.246C159.892 149.844 161.153 149.651 161.151 149.907ZM154.376 151.047C155.173 149.41 155.78 147.716 155.823 145.877C155.834 145.451 157.092 145.253 157.086 145.538C157.041 147.432 156.451 149.163 155.629 150.853C155.456 151.209 154.24 151.328 154.376 151.047ZM51.0974 59.8116C48.3277 61.266 45.9932 63.3429 43.7327 65.4818C43.3625 65.8326 42.1277 65.6959 42.6904 65.1629C45.3168 62.6779 48.1304 60.0816 51.5194 58.6893C54.6218 57.4149 57.8244 57.113 61.1511 57.3227C62.0074 57.3769 61.2679 58.2126 60.6969 58.1768C57.4002 57.9684 54.0709 58.2502 51.0974 59.8116ZM50.0738 55.9845C47.944 56.2668 46.0198 56.8133 44.6596 58.5966C44.4579 58.8609 43.2201 59.0248 43.5062 58.6504C45.1478 56.4966 47.7154 55.7779 50.2873 55.4376C51.1719 55.32 50.6192 55.9124 50.0738 55.9845ZM159.195 20.3941C155.218 21.2912 151.244 22.1878 147.377 23.5136C146.907 23.6752 146.093 23.5437 146.947 23.2506C150.924 21.8871 155.006 20.9608 159.093 20.0336C160.812 19.6435 162.532 19.2533 164.245 18.8302C164.98 18.6485 165.082 19.0137 164.343 19.1963C162.632 19.6188 160.913 20.0065 159.195 20.3941ZM152.09 18.3174C151.355 18.5814 150.619 18.8461 149.872 19.081C149.111 19.3204 148.93 18.5987 149.68 18.3623C150.439 18.1238 151.185 17.8581 151.929 17.5933C154.085 16.8256 156.218 16.0659 158.562 16.0006C159.428 15.9757 159.074 16.7647 158.411 16.783C156.184 16.8458 154.144 17.579 152.09 18.3174Z" fill="#340679"/>
<path d="M110.313 52.5083C109.605 52.5214 108.913 52.697 108.368 53.1706C107.868 53.604 107.705 54.2794 107.695 54.9151C107.687 55.4472 108.951 55.1789 108.957 54.7582C108.966 54.1623 109.095 53.2462 109.824 53.2331C110.111 53.2274 110.483 53.1426 110.656 52.8858C110.823 52.6407 110.517 52.5048 110.313 52.5083Z" fill="#340679"/>
</g>
<defs>
<clipPath id="clip0_2505_66731">
<rect width="240" height="240" fill="white" transform="translate(0.400391)"/>
</clipPath>
</defs>
</svg>
