<svg width="241" height="240" viewBox="0 0 241 240" fill="none" xmlns="http://www.w3.org/2000/svg">
<g id="Frame" clip-path="url(#clip0_2505_78280)">
<path id="Vector 26" d="M56.722 224.887C23.4877 181.611 9.39927 109.69 15.6976 51.5689C17.8708 36.1539 38.0074 27.0487 45.7305 24.3499C67.1691 16.8522 88.4992 18.8167 155.955 45.4296C223.41 72.0425 227.029 107.367 220.407 121.703C217.655 131.725 199.456 162.789 148.679 206.873C97.9011 250.958 66.2169 237.251 56.722 224.887Z" fill="#F4EDFB"/>
<path id="color_x5F_2" d="M173.26 64.7C173.551 62.8741 174.974 57.8412 177.702 59.2624C177.994 59.4149 178.516 59.237 178.754 59L179.039 59.2859C179.458 60.5351 179.095 63.2801 178.981 63.8724C178.717 65.2532 178.096 67.6491 176.94 69.1611C176.387 69.6916 175.545 70.3168 174.516 70.5102C172.631 70.2327 173.082 65.817 173.26 64.7ZM152.275 159.286L152.238 158.91L151.726 158.609C151.749 158.679 151.713 158.766 151.608 158.844C151.359 159.028 151.005 159.115 150.699 159.088C149.044 158.939 146.97 161.036 148.527 162.508C148.8 162.766 149.065 162.922 149.317 162.998C149.98 162.873 150.497 162.608 150.795 162.42C151.325 161.731 151.558 160.617 151.284 159.783C151.202 159.531 151.867 159.264 152.275 159.286ZM151.512 158.486C151.515 158.486 151.516 158.488 151.519 158.488L151.371 158.401C151.371 158.401 150.949 158.441 150.42 158.554C150.814 158.482 151.188 158.456 151.512 158.486ZM157.199 161.725C157.219 161.839 157.125 161.971 156.838 162.088C156.176 162.358 155.411 163.037 155.556 163.849C155.684 164.564 156.389 164.997 157.094 165C157.51 164.813 157.764 164.606 157.764 164.606L158.464 163.596C158.461 163.487 158.45 163.378 158.422 163.268C158.247 162.564 157.807 162.055 157.199 161.725ZM149.279 154.621L149.408 154.655C149.366 154.634 149.324 154.614 149.284 154.592L149.279 154.621ZM133.69 108.004C133.689 108.007 133.688 108.011 133.686 108.014C133.686 108.027 133.687 108.039 133.681 108.054C133.656 108.127 133.627 108.198 133.601 108.27C134.623 108.651 135.66 108.968 136.707 109.228C135.151 108.688 134.069 108.187 133.69 108.004ZM121.976 150.485C119.693 150.364 117.429 149.996 115.231 149.364C116.549 150.483 119.109 150.686 121.976 150.485ZM78.4292 133.69C79.5838 133.6 80.7674 133.314 81.911 133.074L78.4292 133.69ZM166.129 103.259C165.301 103.481 164.596 103.62 164.006 103.703C165.066 103.692 166.14 103.41 167.172 102.927C166.838 103.049 166.493 103.162 166.129 103.259ZM200 86.7226C199.916 87.2535 199.745 88.1918 199.682 88.5306C199.339 90.3908 198.941 92.2406 198.542 94.0892C197.272 99.9862 195.908 105.864 194.533 111.737C192.773 119.261 190.979 126.777 189.144 134.283L184.249 153.806C183.691 155.964 183.126 158.122 182.528 160.27C182.31 161.052 182.09 161.834 181.846 162.607C181.78 162.816 181.709 163.023 181.634 163.229L181.348 163.153C181.627 162.91 181.698 162.537 181.16 162.448C175.376 161.494 169.656 159.626 164.031 158.02C160.869 157.117 157.715 156.188 154.576 155.208C153.181 154.772 150.906 154.45 149.722 153.508C150.899 149.984 152.305 146.144 152.54 142.422C154.042 143.505 155.636 144.48 157.235 145.422C160.63 147.422 164.613 149.444 168.663 149.104C169.275 149.053 169.744 148.36 168.85 148.435C164.918 148.765 160.926 146.389 157.654 144.462C153.841 142.215 150.153 139.664 147.784 135.836C148.351 135.019 148.894 134.215 149.412 133.442C151.534 130.276 153.462 126.971 155.211 123.584C156.024 122.01 157.283 120.073 157.506 118.268C157.591 117.573 156.276 117.726 156.199 118.349C156.004 119.934 154.848 121.674 154.146 123.067C152.571 126.186 150.799 129.206 148.903 132.137C145.038 138.114 140.11 145.155 133.316 147.978C126.612 150.765 118.588 149.951 111.984 146.943C110.213 145.808 108.319 144.782 107.106 144.152C104.2 142.159 100.865 139.335 99.4636 136.231C99.5691 136.155 99.6338 136.067 99.6179 135.973C98.8933 131.65 102.764 128.406 106.07 126.291C109.578 129.952 114.622 132.993 119.572 133.9C123.294 134.581 128.1 133.892 131.028 131.297C133.327 129.26 134.933 126.186 136.561 123.626C137.511 122.13 138.441 120.62 139.376 119.114C139.845 118.357 140.316 117.207 141 116.615C140.929 116.637 140.859 116.659 140.788 116.681C141.037 116.552 141.17 116.415 140.85 116.393C139.519 116.301 138.86 118.128 138.3 119.028C136.466 121.974 134.657 124.937 132.702 127.806C131.926 128.945 131.128 130.096 130.176 131.097C127.823 133.567 123.79 133.838 120.627 133.394C116.583 132.825 112.295 130.375 109.014 127.501L109.207 127.517C112.579 128.454 116.829 126.714 119.624 125.242C126.059 121.855 130.708 115.79 133.3 109.078C137.056 110.365 141.1 110.887 145.127 110.918C146.156 110.966 147.212 110.95 148.28 110.85C149.534 110.785 150.779 110.678 152.004 110.539C154.299 110.277 157.206 109.616 159.589 108.323C159.99 108.242 160.147 108.138 160.548 107.743C161.342 107.215 162.05 106.601 162.616 105.889C163.247 107.187 164.429 108.252 165.4 109.255C167.288 111.205 169.251 113.04 171.262 114.867C174.736 118.023 178.342 121.228 183.16 121.871C183.711 121.945 184.503 121.172 183.637 121.056C178.573 120.38 174.848 116.503 171.231 113.234C169.622 111.78 168.083 110.291 166.586 108.724C165.404 107.487 163.843 106.173 163.517 104.413C163.516 104.409 163.514 104.405 163.513 104.402C163.522 104.382 163.529 104.361 163.538 104.341C165.382 104.325 167.252 103.685 168.993 102.717C172.558 100.733 175.305 96.7662 175.298 92.6266C175.29 88.4052 171.85 85.5415 168.296 83.8188C169.102 83.1593 169.431 81.1084 169.673 79.8348C179.719 82.2397 189.813 85.0274 200 86.7226ZM180.602 108.511C180.855 108.742 182.01 108.252 181.813 108.073C179.372 105.852 176.02 106.375 173.002 106.661C172.671 106.692 171.601 107.259 172.445 107.179C175.285 106.909 178.308 106.423 180.602 108.511ZM182.618 114.323C181.036 112.175 178.845 110.91 176.166 111.701C175.383 111.932 175.608 112.798 176.397 112.565C178.571 111.924 180.205 113.207 181.439 114.885C181.78 115.348 183.006 114.851 182.618 114.323ZM182.674 138.411C182.734 137.83 181.433 138.055 181.383 138.547C180.687 145.352 174.299 153.224 166.943 152.618C166.398 152.573 165.594 153.358 166.465 153.43C174.521 154.094 181.893 146.049 182.674 138.411ZM186.51 131.293C186.51 129.689 186.474 128.093 186.228 126.505C186.137 125.916 184.849 126.24 184.943 126.851C185.177 128.358 185.209 129.871 185.209 131.393C185.209 132.065 186.51 131.864 186.51 131.293ZM152.799 109.897C154.359 109.679 156.032 109.299 157.556 108.677C156.532 108.885 155.04 109.242 152.799 109.897ZM77 133.943L77.0062 134.254C77.0559 134.218 77.1157 134.186 77.1805 134.157C77.18 134.077 77.5991 133.887 77.9086 133.782L77 133.943ZM105.667 125.86C105.656 125.849 105.646 125.838 105.636 125.827C105.636 125.84 105.637 125.854 105.637 125.868C105.646 125.865 105.656 125.862 105.667 125.86ZM102.122 128.341C101.782 128.591 101.455 128.834 101.167 129.051C100.755 129.361 100.391 129.864 100.075 130.451C100.671 129.69 101.373 128.986 102.122 128.341ZM98.0583 136.319C97.9701 136.106 98.0805 135.922 98.2681 135.804C98.2539 135.641 98.2464 135.48 98.2441 135.32C98.2051 135.338 98.1626 135.356 98.1133 135.374C93.9136 136.931 89.7499 135.452 87.2897 132.349C86.0415 132.923 84.1206 133.007 82.9929 133.227C81.3935 133.539 79.7413 133.959 78.1028 134.13C78.1338 134.167 78.1476 134.214 78.1334 134.273C77.447 137.202 76.502 142.712 78.6717 145.385C78.7874 145.378 78.8912 145.393 78.9617 145.437C80.2432 146.243 82.0223 146.265 83.5765 146.252L95.6745 145.724C98.7177 145.429 101.765 144.882 104.492 143.725C101.833 141.688 99.2272 139.141 98.0583 136.319Z" fill="#A358E7"/>
<path id="color_x5F_1" d="M141.991 85.0543C142.132 84.8715 142.38 84.7779 142.616 84.7384C142.638 84.7078 142.657 84.6745 142.674 84.6435C142.858 84.3103 144.135 84.1364 143.859 84.6355C143.568 85.1612 142.886 85.3652 142.327 85.3847C142.146 85.3914 141.808 85.292 141.991 85.0543ZM126.421 75.2676C125.006 75.0236 123.738 75.6504 122.395 75.9778C121.594 76.1725 121.84 77.0699 122.635 76.8761C123.732 76.6086 124.829 76.0181 125.981 76.2173C126.622 76.3278 127.278 75.4157 126.421 75.2676ZM128.239 91.3081C127.956 91.3161 127.578 91.4101 127.386 91.6373C126.855 92.2672 126.033 93.6885 125.08 93.3926C124.791 93.303 124.436 93.3944 124.178 93.5341C124.048 93.6046 123.751 93.8628 124.044 93.9537C126.043 94.5743 127.412 92.9685 128.564 91.604C128.759 91.3738 128.399 91.3041 128.239 91.3081ZM59.343 100.994C59.4567 106.917 59.1537 112.793 58.2507 118.651C58.1608 119.233 59.4629 119.028 59.5408 118.521C60.4438 112.664 60.7473 106.787 60.6332 100.864C60.6212 100.252 59.3333 100.499 59.343 100.994ZM17.1805 121.296C21.2456 118.203 21.4337 122.44 24.4958 121.618C24.9524 121.495 25.4231 121.194 25.7797 120.892C27.3743 119.54 28.8179 120.097 30.3541 121.137C30.7063 121.375 31.8916 120.859 31.373 120.508C30.2541 119.751 28.9334 118.822 27.4906 119C26.1425 119.167 24.4586 121.505 23.0986 120.527C20.6789 118.788 18.4963 119.292 16.1505 121.076C15.5656 121.521 16.8513 121.546 17.1805 121.296ZM17.1805 127.137C21.2461 124.043 21.4332 128.282 24.4958 127.459C24.9524 127.337 25.4231 127.036 25.7797 126.733C27.3743 125.381 28.8179 125.937 30.3541 126.977C30.7063 127.215 31.8916 126.7 31.373 126.349C30.2541 125.592 28.9334 124.662 27.4906 124.841C26.1421 125.007 24.4595 127.347 23.0986 126.368C20.6793 124.628 18.4963 125.132 16.1505 126.917C15.5656 127.362 16.8513 127.387 17.1805 127.137ZM31.373 158.47C30.2541 157.713 28.9334 156.784 27.4906 156.963C26.1425 157.129 24.4586 159.467 23.0986 158.489C20.6793 156.749 18.4959 157.253 16.1505 159.039C15.5661 159.484 16.8518 159.509 17.1805 159.259C21.2452 156.164 21.4337 160.403 24.4958 159.58C24.9524 159.458 25.4231 159.157 25.7797 158.854C27.3743 157.503 28.8179 158.058 30.3541 159.098C30.7067 159.336 31.8916 158.821 31.373 158.47ZM31.373 164.31C30.2541 163.553 28.9334 162.625 27.4906 162.803C26.1425 162.969 24.4586 165.307 23.0986 164.329C20.6793 162.59 18.4959 163.093 16.1505 164.879C15.5661 165.324 16.8518 165.35 17.1805 165.099C21.2452 162.004 21.4337 166.243 24.4958 165.421C24.9524 165.298 25.4231 164.997 25.7797 164.694C27.3743 163.343 28.8179 163.899 30.3541 164.938C30.7067 165.177 31.8916 164.661 31.373 164.31ZM225.207 60.3866C223.842 64.7805 223.113 69.3943 222.101 73.88C221.054 78.5165 219.706 83.0656 218.611 87.6892C215.704 99.9605 213.138 112.316 210.538 124.656C207.432 139.402 204.381 154.16 201.373 168.927C199.909 176.108 198.034 183.359 196.996 190.629C197.123 190.716 197.189 190.86 197.122 191.069C196.042 194.425 194.464 197.983 191.01 199.415C188.563 200.43 185.742 199.925 183.233 199.392C183.139 199.388 183.072 199.375 183.05 199.353C183.033 199.349 183.015 199.346 182.999 199.342C177.288 198.118 171.669 196.799 166.054 195.166C157.973 192.816 149.907 190.343 141.967 187.545C136.488 185.614 129.498 183.036 131.224 175.811C132.579 170.138 134.551 164.573 136.244 158.996C137.316 155.467 138.389 151.938 139.387 148.388C139.775 147.01 140.376 145.456 140.607 143.959C138.365 146.015 135.876 147.673 133.113 148.513C129.527 149.603 125.798 150.058 122.12 149.863C119.842 149.742 117.583 149.376 115.39 148.744C112.797 147.997 110.296 146.889 107.963 145.408C107.124 144.874 106.221 144.268 105.314 143.6C100.815 145.553 95.4694 145.952 90.6455 146.161C88.0581 146.273 85.4517 146.454 82.8612 146.35C81.5963 146.3 80.1394 146.288 78.9134 145.81C78.6501 145.89 78.3656 145.91 78.2302 145.795C78.2125 145.781 78.1993 145.762 78.182 145.747C77.298 146.345 76.4176 146.906 75.3208 146.976C74.4992 153.436 71.8574 159.551 65.888 162.915C56.5849 168.158 45.6337 167.209 35.3598 167.041C35.0143 167.136 34.6364 167.12 34.6369 166.941C34.6466 163.701 34.7625 160.463 34.7727 157.223C34.7736 156.899 35.4297 156.695 35.8031 156.725C35.9332 156.668 36.0735 156.636 36.1996 156.649C38.7892 156.933 41.8004 157.198 44.8426 157.158C45.1917 156.903 45.9522 156.828 45.9527 157.083C45.9527 157.099 45.9531 157.114 45.9531 157.13C52.633 156.869 59.2307 154.961 61.6061 148.323C61.7733 147.855 63.0692 147.695 62.8936 148.185C60.3164 155.386 53.1799 157.551 45.9584 157.893C45.9704 160.794 46.0168 163.695 46.0212 166.596C46.0212 166.661 45.992 166.721 45.9456 166.777C53.7798 166.859 61.9556 166.114 67.5228 160.9C74.1943 154.653 75.0208 145.373 73.9939 136.757C73.3462 136.47 72.7281 135.99 72.1666 135.624C71.4406 135.152 70.546 134.748 70.008 134.051C68.9329 132.658 69.6686 131.07 71.2291 130.479C71.8047 130.261 72.3715 130.172 72.9144 130.196C71.7189 126.564 68.8077 122.754 65.1943 121.487C63.5475 122.246 61.6158 123.196 60.9031 124.876C61.0787 124.977 61.1159 125.156 60.8062 125.384C59.3537 126.458 57.8361 126.08 56.4645 125.046C54.3802 123.477 53.694 120.915 53.1768 118.467C50.8336 118.168 48.4949 118.065 46.1549 118.052C46.1398 120.657 46.0403 123.26 46.0252 125.864C53.8466 125.503 62.1269 125.89 63.5834 134.603C63.6028 134.719 63.5506 134.824 63.4604 134.913C63.8289 134.918 64.1868 134.933 64.5231 134.957C66.5756 135.102 68.0807 136.154 66.7419 138.221C66.4406 138.687 66.0522 139.013 65.6106 139.243C67.0419 139.641 67.8285 140.651 66.7419 142.328C66.5787 142.58 66.3889 142.79 66.18 142.968C67.3693 143.337 68.2847 144.197 67.4228 145.651C66.2313 147.662 64.2426 147.564 62.1835 147.513C62.0923 147.708 61.8649 147.891 61.5614 147.916C60.6018 147.993 59.2988 147.859 58.6608 147.008C58.0405 146.18 58.0662 145.03 58.8564 144.281C58.9108 144.229 58.9687 144.183 59.0254 144.135C58.3471 144.005 57.7038 143.73 57.3498 143.178C56.7649 142.265 56.9512 141.205 57.7936 140.486C58.0445 140.272 58.3245 140.089 58.6227 139.93C58.1016 139.773 57.6321 139.512 57.3498 139.071C56.7649 138.159 56.9508 137.099 57.7936 136.379C58.9426 135.398 60.6531 135.026 62.2981 134.934C60.9062 126.656 53.1002 126.244 45.6146 126.61C45.3102 126.729 44.9249 126.756 44.7899 126.653C41.6296 126.829 38.571 127.096 36.1288 126.918C36.0845 126.914 36.0474 126.908 36.012 126.902C35.6594 127.151 34.9103 127.223 34.9103 126.97C34.9103 124.142 34.9103 121.313 34.9103 118.484C34.9103 118.365 35.0001 118.262 35.1315 118.18C34.8851 118.023 35.5837 117.568 35.9456 117.566C41.6601 117.54 47.3304 117.098 53.0193 117.704C52.9985 117.602 52.9777 117.501 52.9569 117.401C51.4345 110.035 50.8513 102.484 51.615 94.9851C52.0052 91.1515 51.93 86.1632 54.4333 82.9831C56.6787 80.1303 60.9088 80.3361 62.2583 84.0313C62.2618 84.0331 62.2662 84.034 62.2693 84.0362C73.9514 91.0047 87.425 93.232 100.847 93.4139C101.151 93.2755 101.537 93.2759 101.669 93.5292C103.53 97.0829 103.756 101.417 103.435 105.353C103.283 107.213 103.256 111.659 101.368 112.845C101.254 112.916 101.115 112.949 100.973 112.955C100.789 113.064 100.561 113.15 100.409 113.15C98.8872 113.158 97.3971 113.261 95.9247 113.613C96.1003 114.589 96.3808 115.532 96.7378 116.45C96.9241 116.425 97.1082 116.458 97.2303 116.572C97.1913 116.379 97.332 116.131 97.7006 116.007C103.316 114.113 105.556 120.277 105.799 124.855C106.095 124.659 106.72 124.49 106.873 124.661C107.233 125.064 107.623 125.466 108.029 125.865C108.328 125.725 108.737 125.627 108.917 125.745C112.559 128.124 118.243 125.173 121.274 123.042C126.492 119.371 130.181 114.137 132.364 108.175C132.192 108.105 132.286 107.981 132.478 107.868C132.494 107.823 132.512 107.78 132.528 107.735C132.538 107.705 132.558 107.677 132.583 107.65C134.038 104.687 133.56 100.663 136.983 99.2849C136.918 99.257 136.859 99.2192 136.811 99.166C132.943 94.9163 128.526 99.8948 124.093 97.9208C121.064 96.5727 119.063 92.8048 117.831 89.7972C116.193 89.8358 114.75 87.518 114.365 86.1805C113.712 83.9169 113.514 80.3295 114.796 78.1434C114.461 78.2361 114.104 78.2011 114.092 77.9678C113.848 72.9999 115.229 68.5031 118.375 65.1979C118.453 65.0706 118.531 64.9459 118.612 64.8244C119.068 64.139 119.811 63.64 120.591 63.2758C121.226 62.8246 121.905 62.4063 122.637 62.0301C129.596 58.4516 138.379 56.9784 145.317 61.5546C150.098 64.7081 151.768 69.6725 155.163 74.0188C155.705 74.7135 156.286 75.4477 156.901 76.1805C159.621 68.4548 161.265 60.2979 163.507 52.4289C164.756 48.0439 166.502 40.1638 172.282 40.0134C181.496 39.7739 190.973 42.7802 199.677 45.4524C207.267 47.7826 214.874 50.0836 222.558 52.0811C222.618 52.0962 222.662 52.1157 222.7 52.137C226.824 53.5534 226.336 56.7491 225.207 60.3866ZM64.7872 143.661C63.8386 143.908 62.7604 143.877 61.7729 143.839C61.5897 143.875 61.4083 143.916 61.2327 143.968C61.1871 143.981 61.1393 143.996 61.0907 144.013C60.9734 144.123 60.8084 144.207 60.608 144.221C60.5996 144.221 60.5898 144.221 60.5814 144.222C59.8704 144.571 59.1696 145.181 59.5625 146.018C59.9222 146.785 60.6779 147.041 61.4654 147.026C61.6203 146.811 61.9366 146.604 62.2229 146.609C63.5696 146.632 65.5088 147.045 66.2021 145.528C66.7742 144.276 65.9309 143.723 64.7872 143.661ZM64.0683 139.961C62.8737 139.933 61.5588 139.95 60.3952 140.234C59.6377 140.42 58.2135 140.766 58.2701 141.875C58.3268 142.989 59.4417 143.318 60.3823 143.331C60.4628 143.299 60.5434 143.268 60.6257 143.239C60.7947 143.06 61.0615 142.909 61.3066 142.913C61.4486 142.915 61.6119 142.924 61.7888 142.937C62.8064 142.753 63.8718 142.735 64.8359 142.753C64.8523 142.754 64.8691 142.755 64.885 142.756C65.0845 142.66 65.2575 142.536 65.3863 142.369C66.534 140.875 65.7632 140.001 64.0683 139.961ZM60.3952 136.128C59.6377 136.313 58.2135 136.659 58.2701 137.769C58.3303 138.949 59.5789 139.249 60.5496 139.224C60.704 139.009 61.0203 138.802 61.3066 138.807C62.3795 138.823 64.6209 139.259 65.3863 138.262C66.534 136.768 65.7637 135.895 64.0683 135.854C62.8737 135.826 61.5588 135.843 60.3952 136.128ZM44.8798 118.053C41.9889 118.073 39.0962 118.197 36.1916 118.229C36.1916 120.895 36.1916 123.562 36.1916 126.228C36.3292 126.162 36.4792 126.122 36.6106 126.131C38.921 126.301 41.7699 126.09 44.7453 125.928C44.7674 123.31 44.8682 120.692 44.8758 118.074C44.8758 118.067 44.8789 118.06 44.8798 118.053ZM44.7373 166.757C44.7311 163.816 44.6838 160.875 44.674 157.935C41.6575 157.992 38.675 157.765 36.0487 157.485C36.0279 160.5 35.9297 163.514 35.9195 166.53C35.9938 166.509 36.058 166.496 36.1005 166.497C38.7918 166.54 41.7283 166.696 44.7373 166.757ZM125.764 82.6695C125.733 82.6619 125.701 82.6584 125.669 82.6504C125.345 82.5723 125.397 82.4086 125.586 82.2609C125.008 81.0002 124.25 79.7705 123.144 78.9885C123.063 78.9313 123.112 78.8448 123.226 78.7578C123.182 78.7583 123.141 78.7547 123.103 78.7472C123.069 78.7995 123.03 78.8581 122.98 78.9304C122.895 79.1393 122.825 79.3527 122.772 79.5718C122.685 79.9604 122.605 80.349 122.561 80.7451C122.449 81.7556 122.389 82.7781 122.431 83.7958C122.495 85.3652 122.897 87.4834 124.106 88.5884C126.06 90.3721 126.881 87.5366 126.75 86.2506C126.657 85.3413 126.466 84.4461 126.139 83.5904C126.023 83.2883 125.897 82.9791 125.764 82.6695ZM127.074 82.0963C129.521 82.5488 131.97 82.2188 134.442 82.0183C135.788 81.9091 137.137 82.0435 138.483 82.0906C135.88 81.3817 133.656 79.7213 132.103 77.2509C130.924 75.3745 130.176 73.4626 129.645 71.3164C129.321 70.0025 128.938 68.4011 127.61 67.7353C125.681 66.7682 123.576 67.4762 122.574 69.3544C122.463 69.5611 122.115 69.6844 121.812 69.6951C121.788 70.1853 120.714 70.4372 120.508 69.8916C120.407 69.6223 120.294 69.3291 120.089 69.1184C119.8 69.3766 119.595 69.7394 119.424 70.0792C119.02 70.8835 118.638 71.7858 118.523 72.6867C118.496 72.8948 118.321 73.0482 118.108 73.1352C118.035 73.8946 118.001 74.6559 117.986 75.4184C118.527 75.823 118.956 76.385 119.426 76.8645C119.748 77.1941 118.535 77.6679 118.232 77.3582C118.143 77.2673 118.056 77.1715 117.969 77.0748C117.969 77.1209 117.968 77.1666 117.968 77.2128C117.968 77.36 117.72 77.4754 117.443 77.5446C118.308 78.3701 119.013 79.8526 119.333 80.498C119.407 80.6471 119.276 80.7979 119.072 80.9031C119.128 80.9372 119.173 80.9838 119.196 81.0454C119.464 81.7264 119.769 82.7231 119.974 83.8037C120.319 83.8037 120.664 83.8037 121.01 83.8037C121.039 83.8037 121.083 83.806 121.129 83.8113C121.106 82.9738 121.155 82.1407 121.241 81.3617C121.408 79.8641 122.088 77.0437 124.207 78.2463C124.288 78.292 124.233 78.375 124.109 78.4615C124.204 78.4628 124.287 78.4797 124.344 78.52C125.428 79.2852 126.395 80.6192 127.074 82.0963ZM120.824 68.1518C120.824 68.1518 120.81 68.1616 120.784 68.1811C120.803 68.1891 120.82 68.2002 120.838 68.209L120.824 68.1518ZM146.423 86.9489C146.262 87.0704 146.097 87.1866 145.929 87.2935L146.264 87.2266C146.264 87.2266 146.331 87.1241 146.423 86.9489ZM147.887 97.0341C147.667 97.0212 147.465 97.0115 147.286 97.0048C147.294 97.0514 147.304 97.098 147.312 97.1445C147.501 97.1011 147.694 97.0647 147.887 97.0341ZM164.055 103.195C165.113 103.184 166.185 102.902 167.215 102.421C166.882 102.543 166.537 102.655 166.174 102.753C165.347 102.973 164.644 103.112 164.055 103.195ZM148.354 65.9409L150.068 68.3891C149.528 67.5445 148.964 66.7216 148.354 65.9409ZM123.651 62.3912C123.682 62.3872 123.7 62.385 123.7 62.385C123.7 62.385 125.764 61.3887 128.364 60.4327C127.552 60.6843 126.749 60.9806 125.96 61.3297C125.181 61.6753 124.407 62.0191 123.651 62.3912ZM117.197 88.379C117.493 88.6603 117.735 88.7747 117.931 88.7734C118.014 88.7326 118.105 88.7024 118.2 88.6855C118.574 88.4229 118.709 87.6227 118.754 87.0185C118.896 85.0977 118.618 83.1832 117.914 81.3906C117.852 81.2331 117.983 81.0823 118.181 80.9767C118.125 80.9448 118.08 80.9008 118.051 80.8427C117.944 80.6271 116.263 77.612 116.027 78.0769C115.63 78.8581 115.437 79.6357 115.356 80.5043C115.201 82.1522 115.021 84.2478 115.647 85.8363C116.003 86.7408 116.48 87.6999 117.197 88.379ZM133.808 107.486C133.806 107.489 133.805 107.493 133.803 107.495C133.803 107.508 133.804 107.521 133.799 107.535C133.773 107.608 133.745 107.679 133.719 107.751C134.738 108.131 135.773 108.447 136.818 108.706C141.385 109.834 146.164 109.884 150.864 109.579C151.495 109.537 152.173 109.472 152.874 109.374C154.43 109.156 156.1 108.777 157.62 108.156C159.786 107.27 161.647 105.889 162.427 103.767C162.428 103.763 162.432 103.759 162.434 103.755C161.382 103.606 160.349 103.232 159.364 102.569C155.988 100.297 151.206 96.653 146.907 97.9856C146.47 98.1209 146.235 97.9559 146.244 97.7461C146.132 97.7132 146.053 97.648 146.038 97.5416C145.567 94.1516 143.092 91.3831 143.306 87.8618C143.324 87.5712 143.817 87.443 144.03 87.4089C145.286 87.2075 147.312 85.3151 146.846 83.8366C146.182 81.7308 143.196 82.2081 142.365 83.9803C142.174 84.3857 140.889 84.5162 141.164 83.9293C141.467 83.2852 142.014 82.7458 142.674 82.347H142.595C142.494 82.4051 142.373 82.4454 142.239 82.4539C142.121 82.4614 142.007 82.4614 141.89 82.465C141.874 82.4694 141.863 82.4761 141.845 82.48C139.086 83.1006 136.306 82.5013 133.519 82.756C131.471 82.9432 129.446 83.1494 127.424 82.9409C127.917 84.2722 128.161 85.6527 128.03 86.7998C127.8 88.8093 125.121 91.0788 123.202 89.3265C121.78 88.0277 121.253 86.1211 121.145 84.1986C120.942 84.3165 120.675 84.3791 120.471 84.3791C120.337 84.3791 120.204 84.3791 120.071 84.3791C120.237 85.4952 120.265 86.6525 120.018 87.6253C120.38 87.5278 120.82 87.6222 120.844 88.0108C120.896 88.8594 120.91 89.7888 121.221 90.5913C121.574 91.4997 122.15 91.3738 122.914 90.9688C123.557 90.629 124.254 91.3121 123.481 91.7215C122.528 92.2255 120.985 92.681 120.252 91.5601C119.709 90.731 119.63 89.6792 119.577 88.6887C119.432 88.9176 119.255 89.1189 119.049 89.2933C120.646 93.2289 123.558 98.2872 128.412 97.1632C132.15 96.2973 135.094 95.4114 137.981 98.5827C138.131 98.7481 138.099 98.9163 137.976 99.0525C138.192 99.1021 138.084 99.3133 137.58 99.4628C134.701 100.316 134.926 105.251 133.808 107.486ZM105.847 125.298C105.837 125.287 105.826 125.276 105.816 125.265C105.816 125.278 105.817 125.292 105.817 125.306C105.826 125.303 105.837 125.3 105.847 125.298ZM97.9997 119.175C98.0576 119.286 98.1143 119.398 98.1731 119.508C98.2572 119.667 98.1178 119.826 97.9023 119.933C97.7829 120.37 97.0228 120.553 96.7206 120.335C93.7629 120.536 90.9711 120.261 88.2099 119.466C87.9311 119.517 87.6621 119.483 87.6073 119.306C87.6033 119.295 87.5989 119.283 87.5958 119.271C87.2046 119.147 86.8131 119.015 86.4229 118.871C86.0419 122.098 88.8523 124.699 91.9184 125.356C92.6466 125.512 91.5392 126.139 91.133 126.052C89.2876 125.656 87.5002 124.621 86.3534 123.174C86.4229 125.812 87.905 128.212 90.2159 129.582C90.4344 129.712 89.3469 130.236 89.012 130.037C88.3625 129.652 87.7834 129.187 87.2781 128.662C88.9045 132.892 93.1178 136.164 97.8453 134.413C98.0399 134.34 98.2744 134.331 98.4457 134.364C98.5182 132.701 99.231 131.203 100.268 129.878C100.863 129.119 101.564 128.416 102.311 127.773C103.094 127.098 103.928 126.488 104.745 125.945C104.619 125.889 104.533 125.788 104.532 125.63C104.486 121.995 102.906 115.098 97.9085 116.784C97.6537 116.87 97.4696 116.837 97.3542 116.753C97.8019 117.5 98.0324 118.324 97.9997 119.175ZM74.4147 130.584C75.0881 130.919 75.6827 131.456 76.1512 132.173C76.2269 132.289 76.1619 132.406 76.0313 132.506C76.0827 132.522 76.1247 132.548 76.1512 132.584C76.6229 133.221 76.9273 133.976 76.906 134.738C76.9702 134.432 77.0343 134.137 77.0976 133.868C77.1149 133.795 77.171 133.729 77.2502 133.671C77.2998 133.635 77.3595 133.603 77.4241 133.574C77.4237 133.495 77.8418 133.305 78.1506 133.2C78.2714 133.159 78.3767 133.13 78.4307 133.128C78.5107 133.123 78.5908 133.115 78.6709 133.108C79.823 133.018 81.0039 132.734 82.1449 132.494C82.3361 132.453 82.5254 132.414 82.7139 132.378C83.6846 132.191 84.6558 132.002 85.622 131.792C86.0185 131.706 86.4162 131.622 86.8091 131.52C86.979 131.476 87.2639 131.287 86.9896 131.515C87.0365 131.476 87.1277 131.439 87.2374 131.406C86.0804 129.802 85.3592 127.811 85.2867 125.602C85.2845 125.531 85.3225 125.466 85.3849 125.408C85.0814 124.365 84.9907 123.25 85.1575 122.112C85.1743 121.997 85.3345 121.894 85.5353 121.822C85.0699 120.756 84.9349 119.548 85.2871 118.256C85.3964 117.854 86.1118 117.729 86.4383 117.865C86.702 117.974 86.9653 118.069 87.2285 118.168C86.8963 117.225 86.537 116.292 86.2423 115.336C86.1211 114.94 87.398 114.58 87.5245 114.991C87.9108 116.245 88.4059 117.461 88.8067 118.71C91.3609 119.485 93.9346 119.792 96.6697 119.637C96.6777 119.576 96.679 119.516 96.6839 119.454C95.7149 117.589 94.8774 115.652 94.5695 113.556C94.5013 113.091 95.5176 112.798 95.7875 113.084C97.2639 112.72 98.7633 112.57 100.283 112.533C100.31 112.452 100.384 112.367 100.522 112.28C101.269 111.81 101.465 110.102 101.616 109.333C101.902 107.877 102.098 106.401 102.174 104.919C102.355 101.337 102.21 97.4502 100.545 94.1942C100.506 94.2008 100.467 94.2048 100.43 94.2044C87.3484 94.034 74.1744 91.9318 62.6516 85.4952C64.0798 90.1077 63.9917 95.5059 64.0355 100.163C64.0616 102.972 64.0882 105.788 64.0006 108.596C63.9285 110.902 63.9404 113.374 63.2126 115.59C63.1126 115.894 61.8897 116.024 61.9525 115.832C62.7861 113.296 62.7069 110.359 62.7454 107.717C62.783 105.158 62.7914 102.594 62.7471 100.035C62.6564 94.7739 62.7786 88.6048 60.5757 83.7168C60.5642 83.6911 60.5819 83.66 60.6168 83.6268C59.3072 81.3932 56.5221 81.2415 55.181 83.7705C54.451 85.1474 54.0028 86.6481 53.7117 88.1772C53.1409 91.1746 52.8773 94.2918 52.7065 97.3348C52.4149 102.523 52.6251 107.735 53.463 112.867C53.7338 114.526 54.0064 116.219 54.37 117.881C54.493 117.927 54.4904 118.004 54.4165 118.09C54.5961 118.892 54.7961 119.688 55.0328 120.467C55.4173 121.736 57.541 126.053 59.6355 125.133C60.3739 123.372 62.4543 122.348 64.0731 121.564C64.3178 121.446 64.5634 121.328 64.8098 121.211C64.7771 120.917 65.4699 120.543 65.8314 120.663C65.8579 120.672 65.8831 120.684 65.9097 120.693C67.7754 119.828 69.6841 119.018 71.6154 118.367C74.9009 117.259 78.2705 116.498 81.6162 115.608C84.6164 114.81 87.5936 114.052 90.718 114.101C91.3299 114.11 90.1208 114.59 89.8756 114.586C86.5184 114.534 83.374 115.548 80.1526 116.349C77.4343 117.024 74.6859 117.663 72.0436 118.605C70.1584 119.277 68.2931 120.07 66.4667 120.905C70.3376 122.504 73.3608 126.635 74.4147 130.584ZM74.6443 135.954C74.8071 136.049 74.9832 136.156 75.1646 136.241C75.177 136.233 75.1854 136.227 75.1987 136.218C75.2385 136.169 75.2787 136.119 75.3186 136.069C75.4106 135.934 75.4809 135.788 75.5305 135.633C75.7849 134.712 75.5106 133.81 74.9531 133.058C74.8708 132.947 74.9363 132.83 75.0712 132.73C75.019 132.713 74.9783 132.686 74.9531 132.648C74.6584 132.196 74.1346 131.598 73.5333 131.194C73.3541 131.183 73.2064 131.113 73.1506 130.972C72.5976 130.702 72.0078 130.638 71.4826 131.024C70.4801 131.761 70.5743 133.036 71.4561 133.847C72.356 134.674 73.59 135.343 74.6443 135.954ZM77.5347 145.013C75.8645 142.675 76.191 138.561 76.7467 135.55C76.7158 135.633 76.6892 135.717 76.6481 135.8C76.4092 136.279 75.8889 136.712 75.3287 136.889C75.6495 139.815 75.7358 142.945 75.4292 146.025C76.2419 145.96 76.8764 145.462 77.5347 145.013ZM95.8769 145.114C98.9133 144.82 101.953 144.273 104.675 143.12C102.021 141.087 99.4217 138.546 98.2554 135.731C98.1674 135.519 98.2775 135.336 98.4647 135.217C98.4505 135.055 98.443 134.894 98.4408 134.735C98.4019 134.752 98.3594 134.771 98.3103 134.789C94.1199 136.341 89.9655 134.866 87.5108 131.771C86.2654 132.344 84.3487 132.427 83.2236 132.647C81.6277 132.958 79.9792 133.377 78.3444 133.548C78.3754 133.585 78.3891 133.631 78.3749 133.69C77.69 136.612 76.7472 142.109 78.912 144.776C79.0275 144.768 79.1311 144.784 79.2014 144.827C80.48 145.631 82.2551 145.653 83.8058 145.64C84.0669 145.637 84.3226 145.635 84.5677 145.634C86.5158 145.627 88.4621 145.542 90.4079 145.457C92.179 145.381 94.0266 145.293 95.8769 145.114ZM133.434 147.363C140.213 144.546 145.13 137.523 148.987 131.561C150.878 128.636 152.647 125.623 154.218 122.512C154.919 121.123 156.071 119.387 156.266 117.806C156.343 117.185 157.655 117.032 157.57 117.725C157.348 119.526 156.091 121.458 155.28 123.029C153.535 126.407 151.612 129.704 149.495 132.862C148.977 133.633 148.436 134.435 147.87 135.251C150.233 139.069 153.914 141.614 157.719 143.855C160.983 145.778 164.966 148.147 168.889 147.819C169.781 147.744 169.313 148.435 168.702 148.486C164.661 148.825 160.688 146.808 157.3 144.813C155.705 143.873 154.114 142.9 152.615 141.82C152.381 145.533 150.978 149.364 149.803 152.879C150.986 153.819 153.255 154.14 154.647 154.575C157.779 155.552 160.926 156.479 164.08 157.38C169.694 158.982 175.401 160.846 181.171 161.798C181.709 161.886 181.638 162.259 181.359 162.5C181.193 162.645 180.951 162.744 180.72 162.706C174.69 161.71 168.725 159.774 162.862 158.089C159.635 157.161 156.41 156.22 153.211 155.201C152.148 154.863 150.618 154.593 149.49 154.023C149.449 154.002 149.407 153.982 149.367 153.961C149.233 153.888 149.108 153.809 148.989 153.726C148.648 153.789 148.311 153.76 148.366 153.595C149.61 149.825 151.238 145.621 151.363 141.618C151.368 141.45 151.586 141.321 151.84 141.243C150.896 140.52 149.999 139.744 149.17 138.897C148.885 140.161 148.442 141.428 148.121 142.652C147.203 146.144 146.284 149.634 145.374 153.128C144.448 156.683 143.523 160.24 142.64 163.808C142.326 165.079 142.009 166.35 141.727 167.629C141.643 168.009 141.556 168.391 141.49 168.775C141.479 168.836 141.473 168.88 141.467 168.922C143.358 169.213 145.304 170.032 147.127 170.552C151.475 171.793 155.828 173.019 160.191 174.209C165.113 175.552 170.044 176.873 175.008 178.055C178.068 178.784 181.38 179.813 184.555 179.854C184.557 179.854 184.559 179.854 184.562 179.854C186.751 172.046 188.458 164.085 190.26 156.183C193.118 143.646 195.892 131.091 198.647 118.531C201.799 104.158 204.918 89.7772 208.044 75.3984C209.058 70.7358 210.069 66.0735 211.099 61.4149C211.38 60.1453 211.66 58.8748 211.954 57.6083C211.992 57.4442 212.019 57.2255 212.062 57.0068C199.983 54.4739 187.9 51.9569 175.847 49.3033C174.413 48.9874 172.979 48.6743 171.55 48.334C168.083 58.8407 164.692 69.3854 161.65 80.0238C161.608 80.1693 161.384 80.2856 161.135 80.3517C161.616 80.7083 162.108 81.0321 162.614 81.3076C163.738 81.9202 165.215 82.0848 166.416 82.5377C166.72 82.653 167.03 82.7777 167.341 82.9099C167.396 82.8611 167.467 82.8136 167.561 82.771C167.105 82.98 167.581 82.2822 167.7 81.8794C167.823 81.4691 167.944 81.0588 168.058 80.6467C168.229 80.0349 168.396 79.4223 168.557 78.8084C168.671 78.3741 169.189 78.2406 169.579 78.3328C179.719 80.7345 189.909 83.5819 200.192 85.3102C200.497 85.103 201.006 85.0427 201.194 85.32C201.763 86.161 200.797 88.7698 200.625 89.6251C199.897 93.2302 199.093 96.8198 198.28 100.406C195.174 114.117 191.888 127.789 188.497 141.431C187.156 146.826 185.811 152.223 184.362 157.591C184.106 158.537 183.467 163.505 181.978 163.53C181.16 163.542 181.35 162.743 181.968 162.631C181.487 162.713 181.43 163.16 181.616 162.662C181.626 162.634 181.635 162.605 181.645 162.577C181.72 162.372 181.791 162.165 181.857 161.957C182.1 161.186 182.32 160.405 182.537 159.625C183.134 157.483 183.698 155.331 184.254 153.177C184.393 152.642 184.533 152.108 184.67 151.573C186.197 145.626 187.68 139.667 189.138 133.702C190.97 126.214 192.759 118.716 194.516 111.211C195.887 105.352 197.248 99.489 198.516 93.6064C198.913 91.7624 199.31 89.917 199.652 88.0614C199.715 87.7229 199.886 86.7874 199.97 86.2577C189.805 84.5667 179.734 81.7858 169.709 79.3882C169.468 80.6586 169.14 82.7045 168.335 83.3624C171.882 85.0809 175.313 87.9372 175.321 92.1487C175.329 96.2786 172.588 100.236 169.031 102.214C167.293 103.181 165.428 103.819 163.588 103.835C163.58 103.855 163.572 103.876 163.563 103.896C163.564 103.899 163.566 103.902 163.567 103.906C163.893 105.662 165.45 106.973 166.629 108.207C168.122 109.77 169.659 111.255 171.264 112.706C174.872 115.967 178.589 119.835 183.642 120.509C184.506 120.624 183.716 121.395 183.166 121.322C178.359 120.681 174.761 117.484 171.295 114.335C169.289 112.513 167.33 110.682 165.446 108.736C164.477 107.736 163.298 106.673 162.668 105.379C162.104 106.089 161.397 106.701 160.605 107.228C160.298 107.433 159.978 107.626 159.648 107.806C157.27 109.097 154.37 109.756 152.08 110.017C150.857 110.156 149.616 110.263 148.364 110.328C147.32 110.382 146.27 110.404 145.218 110.396C141.2 110.365 137.165 109.844 133.418 108.56C130.831 115.256 126.193 121.306 119.772 124.685C116.982 126.154 112.743 127.889 109.379 126.954C109.29 126.929 109.202 126.905 109.115 126.876C109.138 126.897 109.162 126.917 109.185 126.938C112.459 129.805 116.738 132.249 120.772 132.816C123.929 133.26 127.953 132.989 130.3 130.525C131.251 129.527 132.046 128.378 132.821 127.242C134.771 124.38 136.577 121.424 138.407 118.485C138.965 117.589 139.622 115.765 140.951 115.857C141.27 115.879 141.137 116.015 140.889 116.145C140.959 116.122 141.03 116.1 141.101 116.078C140.418 116.669 139.948 117.817 139.48 118.572C138.548 120.075 137.62 121.58 136.671 123.072C135.047 125.626 133.444 128.693 131.151 130.725C128.229 133.313 123.434 134.001 119.72 133.321C114.781 132.417 109.749 129.383 106.248 125.731C102.95 127.84 99.0876 131.077 99.8106 135.389C99.8265 135.483 99.7624 135.571 99.6566 135.646C101.055 138.743 104.383 141.56 107.282 143.548C107.723 143.851 108.155 144.135 108.567 144.397C109.697 145.115 110.898 145.763 112.149 146.333C118.739 149.331 126.744 150.143 133.434 147.363ZM183.706 198.55C184.523 197.79 185.666 197.146 186.363 196.406C188.873 193.739 190.218 190.562 190.956 186.991C191.64 183.684 191.765 180.291 192.462 176.99C192.927 174.79 193.434 172.598 193.922 170.402C196.285 159.757 198.619 149.105 200.939 138.449C204.932 120.11 208.896 101.764 212.763 83.397C213.997 77.5317 215.237 71.6669 216.397 65.7861C216.714 64.1843 217.018 62.5811 217.283 60.9699C217.82 57.6962 220.08 52.7824 215.641 51.6202C215.454 51.5714 215.68 51.4179 215.976 51.2946C211.047 49.927 206.141 48.468 201.258 46.9575C192.768 44.331 184.1 41.6246 175.186 40.9996C173.188 40.8598 170.929 40.4007 169.389 42.0096C168.379 43.0645 167.635 44.327 167.053 45.6622C165.72 48.7173 164.912 51.9507 164 55.1473C161.925 62.417 160.44 69.9413 157.837 77.046C157.82 77.0916 157.791 77.1325 157.756 77.1719C158.61 78.1288 159.521 79.0515 160.487 79.846C163.561 69.1282 166.984 58.504 170.481 47.9179C170.592 47.5821 171.451 47.3745 171.717 47.5857C172.503 48.2107 175.887 48.5319 177.105 48.7994C188.837 51.3767 200.595 53.8329 212.35 56.2975C212.364 56.282 212.377 56.2629 212.392 56.2496C212.645 56.0318 213.92 55.904 213.394 56.3596C213.51 56.2594 213.514 56.3618 213.475 56.5335C213.545 56.5481 213.616 56.5628 213.686 56.5779C213.925 56.628 213.677 56.8152 213.354 56.958C213.31 57.0978 213.268 57.2277 213.25 57.3067C213.022 58.2902 212.802 59.2754 212.583 60.2611C211.822 63.6874 211.076 67.1169 210.328 70.5468C207.915 81.6292 205.514 92.7152 203.097 103.797C199.748 119.157 196.385 134.515 192.923 149.85C190.635 159.986 188.517 170.219 185.679 180.219C185.625 180.407 185.269 180.546 184.946 180.592C184.829 180.706 184.656 180.787 184.439 180.785C181.419 180.746 178.346 179.871 175.425 179.187C170.523 178.038 165.653 176.754 160.794 175.434C156.197 174.185 151.61 172.9 147.029 171.594C145.208 171.075 142.385 170.042 140.879 169.823C140.821 169.822 140.764 169.815 140.712 169.798C140.69 169.79 140.671 169.778 140.65 169.769C140.623 169.772 140.597 169.775 140.572 169.775C140.567 169.775 140.563 169.775 140.559 169.774C140.462 169.772 140.26 169.733 140.206 169.633C139.682 168.654 140.878 165.871 141.115 164.905C142 161.3 142.93 157.706 143.865 154.113C144.819 150.443 145.785 146.775 146.749 143.108C147.19 141.43 147.848 139.677 148.084 137.953C148.093 137.893 148.12 137.837 148.161 137.786C147.782 137.334 147.422 136.863 147.085 136.368C145.559 138.505 143.865 140.685 141.982 142.625C141.997 142.667 142.006 142.712 142.006 142.764C141.995 145.652 140.514 148.948 139.711 151.674C138.329 156.369 136.892 161.048 135.464 165.729C134.59 168.594 133.694 171.455 132.889 174.34C132.269 176.559 131.821 179.415 133.227 181.421C135.325 184.41 139.404 185.522 142.711 186.679C146.426 187.981 150.171 189.201 153.925 190.387C161.645 192.827 169.417 195.308 177.309 197.135C179.396 197.619 181.552 198.163 183.706 198.55ZM222.04 52.8663C221.951 52.8805 221.866 52.8822 221.794 52.8636C220.757 52.5939 219.723 52.3104 218.688 52.031C219.264 52.4968 219.632 53.1493 219.615 54.1039C219.569 56.5557 218.829 59.0234 218.433 61.4308C218.123 63.3179 217.735 65.193 217.358 67.0672C215.7 75.319 213.951 83.5522 212.201 91.785C208.175 110.73 204.081 129.661 199.939 148.581C198.06 157.168 196.172 165.752 194.258 174.332C193.062 179.694 193.088 185.429 191.134 190.606C190.269 192.898 188.935 194.961 187.163 196.656C186.494 197.296 185.294 197.955 184.609 198.705C185.347 198.821 186.082 198.917 186.814 198.979C191.804 199.4 194.131 195.968 195.619 191.744C195.602 191.713 195.592 191.679 195.598 191.636C196.573 184.345 198.475 177.072 199.941 169.871C202.845 155.612 205.787 141.361 208.782 127.121C211.45 114.431 214.089 101.726 217.046 89.0994C217.996 85.0383 219.198 81.0459 220.152 76.9874C221.249 72.315 222.195 67.6093 223.267 62.9311C223.731 60.9074 224.723 58.897 224.834 56.8045C224.948 54.6491 223.763 53.5303 222.04 52.8663ZM162.658 182.8C162.422 185.134 160.419 186.683 158.111 186.616C153.329 186.477 153.414 179.741 157.703 179.181C157.501 178.934 158.05 178.399 158.512 178.415C160.869 178.494 162.912 180.297 162.658 182.8ZM161.32 182.061C161.036 180.676 160.162 179.75 158.906 179.43C158.87 179.697 158.434 180.049 158.055 180.031C154.392 179.863 155.282 186.652 159.151 185.657C160.732 185.251 161.65 183.668 161.32 182.061ZM70.458 61.2942C71.1619 58.7156 75.6654 59.9572 78.0453 60.0801C78.6045 58.6202 79.2629 55.7834 80.3783 54.1922C80.3208 54.0738 80.3628 53.9207 80.5796 53.7486C80.8044 53.5707 81.018 53.4332 81.2229 53.3285C81.8781 52.8995 82.6608 52.9066 83.6143 53.6625C83.7629 53.7805 83.7881 53.9087 83.7404 54.0272C84.9703 55.6561 85.5756 58.9338 86.2189 60.2713C88.0453 60.2646 93.8788 59.4169 93.9191 61.3488C93.9434 62.491 92.6798 63.659 91.9741 64.4393C91.2406 65.2511 90.1539 66.0327 89.5655 66.9519C89.5005 67.0535 89.3332 67.1275 89.1412 67.1759C89.1748 67.6918 89.5336 68.327 89.6964 68.7586C90.0393 69.6698 90.4013 70.592 90.6101 71.5458C90.9017 72.8801 91.0198 74.32 89.8084 75.2139C87.3772 77.0087 84.3337 73.2417 82.2109 71.7574C80.7871 72.6317 78.3537 74.5711 76.3627 75.1837C76.245 75.3017 76.0672 75.3896 75.8499 75.3953C75.6438 75.4011 75.4601 75.3896 75.2863 75.3714C74.4301 75.3807 73.7417 74.9761 73.3882 73.8778C73.3404 73.7278 73.4068 73.593 73.5289 73.487C73.4811 71.4934 75.0947 68.4535 75.373 66.9488C75.0774 66.7141 74.7217 66.518 74.4558 66.3313C73.6886 65.7932 72.9298 65.2476 72.2149 64.6398C71.2703 63.836 70.0854 62.6592 70.458 61.2942ZM71.7813 62.1544C72.3711 63.522 73.8028 64.4615 74.9757 65.2884C75.4102 65.5945 76.0543 65.9294 76.5277 66.3428C76.5875 66.3734 76.6353 66.4156 76.6653 66.4706C76.7994 66.6032 76.9166 66.742 76.9989 66.892C77.183 67.2287 76.8109 67.5237 76.43 67.6062C75.7809 69.4626 74.2567 72.932 75.0531 74.1102C76.2946 75.0635 79.5668 72.4662 81.4074 71.2463C81.2092 70.9367 82.1436 70.4656 82.5506 70.6564C82.552 70.6568 82.5533 70.6577 82.5542 70.6581C82.909 70.6231 83.2289 70.8174 83.2271 71.0396C84.1408 71.6287 84.9487 72.4418 85.7973 73.0895C86.6547 73.7443 89.4159 75.9396 89.5137 73.5628C89.573 72.1291 89.0204 70.7069 88.5227 69.3863C88.2722 68.7209 87.7528 67.8275 87.8537 67.0876C87.8988 66.758 88.4098 66.558 88.7766 66.5957C89.2142 66.1303 89.7451 65.7058 90.1553 65.2684C90.8539 64.5223 92.6657 62.9932 92.6413 61.8301C92.6068 60.2083 88.751 60.5796 86.3618 60.7233C86.2631 61.1438 85.3672 61.402 85.1433 61.0134C85.107 60.95 85.0668 60.8639 85.0234 60.7592C84.9305 60.7539 84.8456 60.7472 84.7757 60.7357C84.639 60.7131 84.7429 60.6195 84.9318 60.521C84.3031 58.8118 83.1192 54.135 81.822 54.1288C81.5658 54.2295 81.368 54.536 81.1495 54.9552C80.7765 55.6729 80.4907 56.4297 80.2429 57.1994C79.9385 58.1438 79.7146 59.1862 79.3178 60.1209C79.5319 60.2961 79.3195 60.7189 78.9258 60.8768C78.6523 61.1571 77.9431 61.221 77.7617 60.989C76.8171 60.9735 75.8517 60.7836 74.9323 60.7144C73.959 60.6408 70.9778 60.2917 71.7813 62.1544ZM180.431 62.6024C179.917 65.669 178.443 70.8072 174.625 71.0183C169.523 71.3005 171.565 56.7957 177.372 57.6762C180.476 55.8366 180.819 60.2926 180.431 62.6024ZM176.961 68.7374C178.113 67.2296 178.734 64.8395 178.997 63.4616C179.11 62.8708 179.473 60.132 179.055 58.8864C179.002 58.7293 178.936 58.5971 178.857 58.4947C178.836 58.531 178.805 58.5665 178.771 58.6011C178.533 58.8376 178.013 59.015 177.721 58.8628C175 57.4451 173.58 62.4653 173.289 64.2872C173.112 65.4015 172.662 69.806 174.543 70.0832C174.682 70.1036 174.832 70.1041 174.998 70.0761C175.779 69.9462 176.426 69.436 176.961 68.7374ZM187.176 63.5126C189.114 63.9128 191.052 64.3098 192.989 64.713C194.986 65.1291 196.982 65.5514 198.973 65.9946C199.293 66.066 202.299 66.994 202.431 66.825C202.361 66.9142 203.461 66.8884 203.694 66.5921C203.698 66.5868 203.702 66.5819 203.706 66.5766C203.709 66.558 203.712 66.5398 203.715 66.5211C203.384 66.074 202.092 65.9875 201.608 65.8717C199.654 65.4042 197.686 64.9938 195.72 64.5791C193.628 64.1372 191.534 63.7065 189.44 63.2758C189.01 63.1875 186.513 62.7474 186.501 62.7031C186.433 62.4343 185.148 62.7705 185.219 63.0478C185.286 63.3064 186.973 63.4705 187.176 63.5126ZM202.068 71.5036C202.071 71.485 202.074 71.4668 202.077 71.4482C201.746 71.001 200.454 70.915 199.97 70.7988C198.016 70.3316 196.048 69.9213 194.082 69.5066C191.989 69.0647 189.895 68.6344 187.801 68.2037C187.372 68.1154 184.874 67.6754 184.863 67.631C184.794 67.3622 183.51 67.6985 183.581 67.9757C183.647 68.2343 185.334 68.3984 185.538 68.4406C187.475 68.8403 189.413 69.2373 191.35 69.6405C193.348 70.0566 195.343 70.4785 197.334 70.9221C197.654 70.9931 200.661 71.9206 200.793 71.7521C200.723 71.8417 201.823 71.8155 202.055 71.5192C202.06 71.5138 202.064 71.5085 202.068 71.5036ZM176.189 111.174C175.408 111.404 175.632 112.269 176.42 112.036C178.588 111.396 180.218 112.676 181.45 114.35C181.79 114.811 183.013 114.316 182.626 113.789C181.048 111.646 178.861 110.385 176.189 111.174ZM181.823 107.554C179.388 105.338 176.044 105.86 173.033 106.145C172.702 106.176 171.634 106.742 172.477 106.661C175.31 106.394 178.326 105.909 180.616 107.991C180.868 108.221 182.019 107.732 181.823 107.554ZM166.986 151.99C166.442 151.945 165.64 152.728 166.509 152.8C174.547 153.462 181.903 145.437 182.683 137.818C182.742 137.239 181.444 137.463 181.394 137.954C180.7 144.742 174.325 152.595 166.986 151.99ZM185.212 130.818C185.212 131.488 186.51 131.288 186.51 130.717C186.51 129.118 186.474 127.526 186.229 125.942C186.138 125.354 184.853 125.677 184.947 126.286C185.18 127.79 185.212 129.299 185.212 130.818ZM152.351 158.642C151.944 158.62 151.28 158.887 151.363 159.138C151.636 159.97 151.403 161.082 150.874 161.769C150.504 162.25 149.988 162.521 149.4 162.345C149.149 162.27 148.884 162.114 148.611 161.857C147.058 160.388 149.127 158.296 150.779 158.445C151.083 158.473 151.437 158.386 151.685 158.201C151.79 158.123 151.826 158.037 151.804 157.968C151.783 157.905 151.715 157.858 151.596 157.846C151.593 157.846 151.592 157.844 151.589 157.844C151.267 157.815 150.894 157.84 150.5 157.912C148.301 158.313 145.479 160.181 147.411 162.323C148.368 163.385 150.192 163.183 151.271 162.453C152.462 161.649 153.105 160.195 152.645 158.793C152.612 158.695 152.498 158.651 152.351 158.642ZM159.793 163.069C159.552 164.329 158.173 165.124 156.946 165.094C155.855 165.067 154.331 164.68 154.331 163.319C154.33 162.131 155.381 161.285 156.387 160.875C156.531 160.816 156.684 160.8 156.821 160.813C156.723 160.551 157.627 160.146 157.972 160.288C159.036 160.726 160.029 161.828 159.793 163.069ZM158.526 162.942C158.522 162.834 158.511 162.724 158.484 162.615C158.31 161.912 157.87 161.405 157.264 161.076C157.284 161.189 157.19 161.32 156.903 161.437C156.243 161.707 155.479 162.384 155.625 163.194C155.752 163.907 156.456 164.339 157.159 164.342C157.268 164.343 157.377 164.335 157.483 164.314C158.156 164.184 158.545 163.586 158.526 162.942ZM22.4097 93.4857C24.3878 90.5145 28.283 90.8335 30.2709 93.3997C32.5853 90.8809 37.5287 90.0984 38.848 94.0566C40.4425 98.8409 35.2448 103.682 30.6779 104.398C30.5235 104.452 30.3811 104.489 30.3045 104.485C30.2351 104.481 30.1638 104.472 30.0926 104.466C30.0227 104.472 29.9524 104.479 29.8824 104.483C29.6391 104.495 29.5546 104.456 29.5608 104.396C25.1457 103.613 19.4316 97.9599 22.4097 93.4857ZM23.1494 97.2723C24.1516 100.375 27.4291 103.559 30.8085 103.908C34.3595 103.443 38.7126 98.9473 37.8083 95.2455C36.9101 91.5698 32.6893 90.66 30.7987 94.207C30.8947 94.4257 29.6904 94.8777 29.5161 94.5473C28.7007 93.0018 26.177 90.6081 24.3378 92.4584C23.1348 93.6681 22.6181 95.6265 23.1494 97.2723ZM103.328 171.769C104.425 173.139 105.624 175.118 104.54 176.657C103.997 177.428 103.184 177.887 102.294 178.147C102.477 179.52 102.215 180.94 100.951 181.742C99.7747 182.488 98.2576 182.51 96.9569 182.107C96.514 181.969 96.0441 181.764 95.6163 181.494C93.1594 181.567 90.2641 181.789 88.1174 180.691C87.4564 180.353 86.9467 179.929 86.5498 179.441C86.4821 179.662 86.2499 179.867 85.9088 179.867C84.1116 179.866 81.7835 180.139 80.3128 178.875C78.9921 177.74 78.8625 175.253 78.8174 173.658C78.6944 169.313 80.8769 166.184 85.4637 167.659C85.5415 167.684 85.5982 167.716 85.6433 167.75C85.9145 167.159 86.3233 166.621 86.9042 166.158C87.0033 166.079 87.2423 166.016 87.4759 165.99C86.0552 162.263 87.3445 156.072 91.5335 155.263C96.379 154.327 96.6932 161.769 96.4242 164.973C96.422 164.995 96.4149 165.017 96.4034 165.037C98.9368 164.877 101.956 164.867 104.132 166.219C106.324 167.583 104.948 170.327 103.328 171.769ZM100.998 178.392C100.645 178.426 100.293 178.443 99.9548 178.438C98.754 178.417 97.2714 178.189 96.1733 177.501C95.6264 178.055 95.2287 178.748 95.5211 179.523C95.6733 179.927 95.9578 180.257 96.302 180.522C96.4357 180.52 96.5702 180.518 96.7029 180.517C97.167 180.516 97.313 180.789 97.2378 181.044C97.3484 181.088 97.4586 181.128 97.5679 181.161C98.3448 181.402 99.4615 181.544 100.178 181.043C101.058 180.43 101.145 179.376 100.998 178.392ZM102.298 172.485C100.92 173.22 99.1421 173.505 97.5674 173.126C97.5634 173.223 97.5028 173.336 97.3528 173.461C96.5445 174.132 95.8344 175.132 96.3627 176.033C96.9184 175.816 97.7236 176.285 97.0887 176.743C98.0377 177.372 99.3292 177.574 100.418 177.578C100.607 177.579 100.813 177.569 101.023 177.553C101.259 177.271 101.794 177.163 102.057 177.373C102.659 177.197 103.199 176.882 103.461 176.322C104.054 175.056 103.182 173.599 102.298 172.485ZM103.428 170.137C106.042 165.599 98.3293 165.563 95.6902 165.752C95.1672 165.79 95.1106 165.565 95.2765 165.364C95.1924 165.358 95.1384 165.343 95.1406 165.318C95.3517 162.813 95.3866 157.014 92.4887 155.848C88.0333 154.056 87.8453 164.29 89.2023 166.584C89.2806 166.717 88.0909 167.218 87.9201 166.929C87.8369 166.788 87.7608 166.639 87.6873 166.487C86.606 167.497 86.3702 168.892 86.6029 170.346C86.6671 170.748 85.3769 171.041 85.3207 170.691C85.192 169.883 85.2181 169.118 85.4075 168.411C85.2 168.539 84.9376 168.609 84.7279 168.542C80.0522 167.038 79.7363 172.158 80.3309 175.473C80.5185 176.516 80.7433 178.108 81.9047 178.538C83.1962 179.016 84.6637 178.9 86.0154 178.901C86.0742 178.901 86.1273 178.906 86.176 178.914C85.4477 177.703 85.2774 176.185 85.3115 174.594C85.3243 174.001 86.6268 173.817 86.6118 174.501C86.5622 176.812 86.9936 179.341 89.5279 180.072C91.1516 180.54 92.8754 180.57 94.5814 180.546C94.4155 180.311 94.2837 180.054 94.2084 179.771C93.8987 178.6 94.5257 177.589 95.3504 176.808C94.1726 175.413 95.3853 173.892 96.5219 172.948C96.5772 172.901 96.6418 172.866 96.7109 172.841C96.2578 172.646 95.8335 172.388 95.4579 172.055C93.1687 170.026 96.1406 168.503 98.0107 168.063C98.7779 167.882 98.9496 168.489 98.1731 168.671C97.4143 168.85 95.6322 169.256 95.8919 170.412C96.0569 171.145 96.6803 171.69 97.3351 172.01C98.9226 172.785 100.52 172.712 101.802 171.888C101.714 171.786 101.627 171.687 101.546 171.596C101.15 171.147 102.373 170.653 102.726 171.052C102.732 171.06 102.74 171.068 102.746 171.076C102.995 170.8 103.225 170.489 103.428 170.137Z" fill="#340679"/>
</g>
<defs>
<clipPath id="clip0_2505_78280">
<rect width="240" height="240" fill="white" transform="translate(0.5)"/>
</clipPath>
</defs>
</svg>
