<svg width="99" height="88" viewBox="0 0 99 88" fill="none" xmlns="http://www.w3.org/2000/svg">
<path d="M10.3839 41.0772C-2.58977 50.4798 1.95484 76.4339 24.4444 76.36C52.8588 76.2667 75.6975 92.2268 86.917 76.1549C91.6348 69.3966 87.8083 58.7305 84.5 48.6127L84.5 68.5C84.5 73 82.081 74 80.5 74C78.919 74 27 74.5 21.5 74.5C17.1 74.5 16 71.1667 16 69.5L16 36.9647C14.2757 38.2491 12.415 39.6052 10.3839 41.0772Z" fill="#B70F90" fill-opacity="0.12"/>
<path d="M71.5718 13.4639C57.8075 0.493613 37.1788 17.4509 28.8063 26.1026C27.1528 27.8113 25.4361 29.4064 23.5697 31L79.7182 31C76.1627 16.9475 75.754 17.4048 71.5718 13.4639Z" fill="#B70F90" fill-opacity="0.12"/>
<path d="M9 36.2632V29C9 25.6863 11.6863 23 15 23H22.2632M9 69.2632V76.5264C9 79.8401 11.6863 82.5264 15 82.5264H22.2632M92.5264 36.2632V29C92.5264 25.6863 89.8401 23 86.5264 23H79.2632M92.5264 69.2632V76.5264C92.5264 79.8401 89.8401 82.5264 86.5264 82.5264H79.2632" stroke="#717171" stroke-width="2.8" stroke-linecap="round"/>
<rect x="16" y="31" width="68.5263" height="43.1053" rx="4" stroke="#AB22AF" stroke-width="2.8"/>
<rect x="61" y="37" width="18" height="19" rx="4" stroke="#AB22AF" stroke-width="2.8"/>
<path d="M27 45.6C26.2268 45.6 25.6 46.2268 25.6 47C25.6 47.7732 26.2268 48.4 27 48.4V45.6ZM49.1053 48.4C49.8785 48.4 50.5053 47.7732 50.5053 47C50.5053 46.2268 49.8785 45.6 49.1053 45.6V48.4ZM27 48.4H49.1053V45.6H27V48.4Z" fill="#AB22AF"/>
<path d="M27.0001 56.6527C26.2269 56.6527 25.6001 57.2795 25.6001 58.0527C25.6001 58.8259 26.2269 59.4527 27.0001 59.4527V56.6527ZM40.2633 59.4527C41.0365 59.4527 41.6633 58.8259 41.6633 58.0527C41.6633 57.2795 41.0365 56.6527 40.2633 56.6527V59.4527ZM27.0001 59.4527H40.2633V56.6527H27.0001V59.4527Z" fill="#AB22AF"/>
</svg>
