<svg width="160" height="160" viewBox="0 0 160 160" fill="none" xmlns="http://www.w3.org/2000/svg">
<g clip-path="url(#clip0_6918_13109)">
<g clip-path="url(#clip1_6918_13109)">
<path d="M35.0434 146.291C12.6687 117.156 3.18386 68.7357 7.42415 29.6065C8.88721 19.2285 22.444 13.0985 27.6434 11.2817C42.0767 6.23391 56.4369 7.55648 101.851 25.4733C147.264 43.3901 149.701 67.1722 145.242 76.8236C143.39 83.5706 131.137 104.484 96.9521 134.163C62.7667 163.843 41.4357 154.615 35.0434 146.291Z" fill="#F4EDFB"/>
<path d="M104.535 109.514C104.83 111.453 105.482 115.262 106.134 119.071L107.734 128.628L61.5981 135.649L48.8835 52.0992L95.0191 45.0783L97.4044 60.7522C97.5763 61.8841 98.2876 64.9508 98.4598 66.083C86.3254 67.7737 61.3357 71.464 58.4523 72.6997C54.8481 74.2444 54.0757 75.2741 55.1055 81.9677C56.1353 88.6613 59.4821 108.484 59.4821 110.029C59.4821 111.574 60.7693 116.98 64.8884 116.465C68.1837 116.053 92.6924 111.66 104.535 109.514Z" fill="#A358E7"/>
<path d="M99.3759 66.2799C99.3983 66.4268 99.2774 66.5097 99.1189 66.5387L98.4599 66.0838C98.2876 64.9516 97.5764 61.8849 97.4045 60.7529L95.0192 45.079L48.8836 52.1L61.5982 135.649L107.734 128.628L104.535 109.515L105.274 108.559L105.433 109.513L106.96 118.682L106.96 118.683L108.645 128.804C108.65 128.835 108.646 128.862 108.639 128.888C108.654 128.949 108.612 129.003 108.485 129.036C108.421 129.061 108.345 129.074 108.264 129.074L61.5135 136.189C61.2913 136.311 60.8577 136.247 60.7715 136.04C60.6783 135.962 60.6437 135.875 60.7302 135.815L47.9702 51.9667C47.8507 51.8621 47.8379 51.7439 48.0873 51.6959C48.1856 51.6397 48.3268 51.6213 48.4623 51.6364L95.1534 44.5309C95.4042 44.4484 95.8224 44.5357 95.8534 44.7394L97.6148 55.5106L99.3759 66.2799Z" fill="#340679"/>
<path fill-rule="evenodd" clip-rule="evenodd" d="M63.4564 87.2972L70.5954 86.1947C71.2168 86.0988 72.3409 84.9598 71.1509 85.1436L64.0119 86.2461C63.3911 86.342 62.2664 87.481 63.4564 87.2972ZM88.2622 82.5011L75.4042 84.4868C74.7828 84.5827 73.6587 85.7216 74.8487 85.5379L87.7066 83.5522C88.3275 83.4563 89.4521 82.3173 88.2622 82.5011ZM77.2638 88.4653L64.4058 90.4509C63.7844 90.5469 62.6603 91.6858 63.8502 91.502L76.7082 89.5164C77.329 89.4205 78.4537 88.2815 77.2638 88.4653Z" fill="#340679"/>
<path fill-rule="evenodd" clip-rule="evenodd" d="M118.739 95.1869L119.175 98.0147C119.178 98.0255 119.184 98.0334 119.186 98.0448C119.681 100.214 120.416 103.657 118.276 105.285C117.037 106.227 115.848 106.366 114.359 106.609C110.925 107.171 107.478 107.806 104.022 108.245C95.9158 109.794 87.6518 110.766 79.4985 112.012C79.2227 112.054 78.9476 112.096 78.6718 112.138C74.789 112.89 70.8295 113.375 66.9158 113.931C65.7206 114.101 64.2024 114.488 63.0938 113.773C60.8504 112.329 60.5374 109.721 60.3345 107.246C60.3339 107.238 60.336 107.231 60.3354 107.223L59.6701 102.915L59.481 101.687L56.5389 82.6348C56.5373 82.6288 56.5347 82.6242 56.5333 82.6188C55.8333 79.555 55.9736 77.0699 57.6278 75.5668L58.97 74.7226C59.5304 74.4735 60.1747 74.2792 60.9323 74.1572C65.3131 73.4502 69.6979 72.7687 74.083 72.0852C77.5965 71.537 81.1148 70.9345 84.6364 70.3495L86.3967 70.0577C90.5826 69.372 94.7745 68.729 98.9738 68.2513C102.169 67.7023 105.401 67.2912 108.603 66.8297C109.821 66.6546 111.499 66.1879 112.64 66.9223C114.868 68.3574 115.173 70.9314 115.375 73.3959L115.375 73.3991L118.555 93.9931L118.739 95.1869ZM114.464 75.2884L115.343 80.98L115.483 81.8932L118.007 98.2406C118.008 98.2482 118.008 98.2558 118.008 98.2633C118.009 98.2876 118.01 98.3118 118.016 98.3371L118.024 98.3712L118.025 98.3748C118.028 98.3899 118.032 98.4052 118.035 98.4195L118.162 99.2394C118.164 99.2548 118.169 99.2683 118.173 99.2815C118.176 99.2896 118.179 99.2977 118.181 99.3062L118.196 99.3987C118.202 99.4376 118.229 99.464 118.267 99.4843L118.268 99.4866C118.69 101.586 118.429 105.107 115.922 105.553C114.766 105.758 113.606 105.942 112.446 106.126C112.441 106.127 112.437 106.128 112.432 106.129C112.425 106.13 112.417 106.131 112.41 106.132C112.154 106.173 111.898 106.213 111.643 106.254C110.846 106.381 110.049 106.515 109.251 106.648L109.248 106.649L109.246 106.649C109.081 106.677 108.916 106.704 108.751 106.732C107.596 106.925 106.439 107.115 105.281 107.285C105.167 107.264 105.033 107.263 104.874 107.295C104.72 107.325 104.565 107.353 104.41 107.381L104.408 107.382L104.406 107.382C104.279 107.405 104.153 107.429 104.027 107.453C103.898 107.469 103.769 107.487 103.64 107.504C103.395 107.537 103.15 107.57 102.905 107.599C102.748 107.616 102.621 107.669 102.508 107.736C98.5134 108.453 94.4792 109.024 90.4516 109.594L90.4504 109.594C88.2095 109.911 85.9698 110.228 83.7409 110.569C82.7916 110.715 81.8421 110.859 80.8926 111.003C80.8868 111.004 80.881 111.005 80.8751 111.006L80.8733 111.006C80.2016 111.108 79.5299 111.21 78.8583 111.312L78.8504 111.313L78.8407 111.315C78.1483 111.421 77.456 111.526 76.7637 111.632C74.5484 111.971 72.3331 112.31 70.117 112.643L69.862 112.682L69.8587 112.682C68.5708 112.876 67.2829 113.07 65.9938 113.255C65.8359 113.278 65.6885 113.284 65.5439 113.284C65.0987 113.274 64.721 113.169 64.3897 113.001C63.0668 112.283 61.8435 109.809 61.6123 108.026C61.6307 107.96 61.64 107.89 61.629 107.819L61.5064 107.025L61.5055 107.017C61.5034 106.996 61.5012 106.974 61.4996 106.953C61.4978 106.93 61.4927 106.909 61.4875 106.889C61.4853 106.88 61.4831 106.871 61.4811 106.862L58.9776 90.6505L58.839 89.7452L57.9589 84.0457L57.8193 83.1419L57.6991 82.364C57.6966 82.3476 57.6984 82.3311 57.6946 82.3142C57.6911 82.2998 57.6872 82.2823 57.6843 82.2678L57.6432 82.0018C57.6386 81.972 57.6281 81.9481 57.6203 81.9219L57.5175 81.2566C57.5126 81.225 57.487 81.204 57.4516 81.1889C57.0365 79.0819 57.3061 75.5093 59.7718 75.0961C61.0656 74.8789 62.3617 74.6762 63.6573 74.4705C68.1246 73.7619 72.5939 73.0655 77.0631 72.3691L77.0672 72.3685L77.0754 72.3672C83.3398 71.3923 90.4537 70.0868 96.5547 69.2966C96.6384 69.2981 96.728 69.2929 96.8326 69.2724C96.907 69.2578 96.9819 69.2463 97.0564 69.2323C97.5759 69.1664 98.091 69.1043 98.5944 69.0471C98.7512 69.0291 98.9014 68.9685 99.0365 68.8829C101.008 68.5622 102.993 68.3048 104.963 68.0087C106.519 67.774 108.075 67.5407 109.634 67.3285C112.534 66.9337 113.895 70.5198 114.142 72.8616C114.124 72.9074 114.113 72.9528 114.12 72.999L114.176 73.36C114.176 73.3804 114.173 73.4009 114.176 73.4216L114.221 73.712C114.221 73.715 114.221 73.7181 114.221 73.7212C114.222 73.7248 114.223 73.7278 114.224 73.7314L114.323 74.3766L114.464 75.2884Z" fill="#340679"/>
<path fill-rule="evenodd" clip-rule="evenodd" d="M64.8193 96.1228L71.9583 95.0203C72.5797 94.9243 73.7038 93.7854 72.5139 93.9692L65.3749 95.0717C64.754 95.1676 63.6294 96.3066 64.8193 96.1228ZM78.8862 97.3168L66.0282 99.3025C65.4068 99.3985 64.2827 100.537 65.4727 100.354L78.3307 98.3679C78.9515 98.272 80.0761 97.133 78.8862 97.3168ZM79.1649 101.978L66.3069 103.964C65.6855 104.06 64.5614 105.199 65.7513 105.015L78.6093 103.029C79.2301 102.933 80.3548 101.794 79.1649 101.978Z" fill="#340679"/>
<path fill-rule="evenodd" clip-rule="evenodd" d="M95.2841 77.085L63.3586 82.0153C62.7371 82.1113 61.6479 83.476 62.8379 83.2923L94.7634 78.3619C95.3842 78.2661 96.474 76.9012 95.2841 77.085Z" fill="#340679"/>
<path fill-rule="evenodd" clip-rule="evenodd" d="M101.221 88.3747C99.2372 86.6342 99.5285 84.2226 101.381 82.5155C101.462 82.4408 101.577 82.386 101.7 82.3501C103.532 81.3135 106.172 80.8048 107.741 82.5892C109.111 84.1478 108.957 86.3164 107.495 87.775C105.829 89.4357 103.134 90.0534 101.221 88.3747ZM106.663 83.2699C107.718 84.3278 107.694 85.9946 106.889 87.1735C104.375 90.8514 98.9059 86.1711 102.091 82.9518C103.614 82.0285 105.353 81.9576 106.663 83.2699Z" fill="#340679"/>
<path fill-rule="evenodd" clip-rule="evenodd" d="M115.343 80.98L114.464 75.2884L114.323 74.3766L114.224 73.7314C114.223 73.7278 114.222 73.7248 114.221 73.7212C114.221 73.7181 114.221 73.715 114.221 73.712L114.176 73.4216C114.173 73.4009 114.176 73.3804 114.176 73.36L114.12 72.999C114.113 72.9528 114.124 72.9074 114.142 72.8616C113.895 70.5198 112.534 66.9337 109.634 67.3285C108.075 67.5407 106.519 67.774 104.963 68.0087C102.993 68.3048 101.008 68.5622 99.0365 68.8829C98.9014 68.9685 98.7512 69.0291 98.5944 69.0471C98.091 69.1043 97.5759 69.1664 97.0564 69.2323C96.9819 69.2463 96.907 69.2578 96.8326 69.2724C96.728 69.2929 96.6384 69.2981 96.5547 69.2966C90.4537 70.0868 83.3398 71.3923 77.0754 72.3672L77.0672 72.3685L77.0631 72.3691C72.5939 73.0655 68.1246 73.7619 63.6573 74.4705C62.3617 74.6762 61.0656 74.8789 59.7718 75.0961C57.3061 75.5093 57.0365 79.0819 57.4516 81.1889C57.487 81.204 57.5126 81.225 57.5175 81.2566L57.6203 81.9219C57.6281 81.9481 57.6386 81.972 57.6432 82.0018L57.6843 82.2678C57.6872 82.2823 57.6911 82.2998 57.6946 82.3142C57.6984 82.3311 57.6966 82.3476 57.6991 82.364L57.8193 83.1419L57.9589 84.0457L58.839 89.7452L58.9776 90.6505L61.4811 106.862C61.4831 106.871 61.4853 106.88 61.4875 106.889C61.4927 106.909 61.4978 106.93 61.4996 106.953C61.5012 106.974 61.5034 106.996 61.5055 107.017L61.5064 107.025L61.629 107.819C61.64 107.89 61.6307 107.96 61.6123 108.026C61.8435 109.809 63.0668 112.283 64.3897 113.001C64.721 113.169 65.0987 113.274 65.5439 113.284C65.6885 113.284 65.8359 113.278 65.9938 113.255C67.2829 113.07 68.5708 112.876 69.8587 112.682L69.862 112.682L70.117 112.643C72.3331 112.31 74.5484 111.971 76.7637 111.632C77.456 111.526 78.1483 111.421 78.8407 111.315L78.8504 111.313L78.8583 111.312C79.5299 111.21 80.2016 111.108 80.8733 111.006L80.8751 111.006L80.8926 111.003C81.8421 110.859 82.7916 110.715 83.7409 110.569C85.9698 110.228 88.2095 109.911 90.4504 109.594L90.4516 109.594C94.4792 109.024 98.5134 108.453 102.508 107.736C102.621 107.669 102.748 107.616 102.905 107.599C103.15 107.57 103.395 107.537 103.64 107.504C103.769 107.487 103.898 107.469 104.027 107.453C104.153 107.429 104.279 107.405 104.406 107.382L104.408 107.382L104.41 107.381C104.565 107.353 104.72 107.325 104.874 107.295C105.033 107.263 105.167 107.264 105.281 107.285C106.439 107.115 107.596 106.925 108.751 106.732L109.246 106.649L109.248 106.649L109.251 106.648C110.049 106.515 110.846 106.381 111.643 106.254C111.898 106.213 112.154 106.173 112.41 106.132L112.432 106.129L112.446 106.126C113.606 105.942 114.766 105.758 115.922 105.553C118.429 105.107 118.69 101.586 118.268 99.4866L118.267 99.4843C118.229 99.464 118.202 99.4376 118.196 99.3987L118.181 99.3062C118.179 99.2977 118.176 99.2896 118.173 99.2815C118.169 99.2683 118.164 99.2548 118.162 99.2394L118.035 98.4195L118.025 98.3748L118.024 98.3712L118.016 98.3371C118.01 98.3118 118.009 98.2876 118.008 98.2633C118.008 98.2558 118.008 98.2482 118.007 98.2406L115.483 81.8932L115.343 80.98ZM70.5954 86.1947L63.4564 87.2972C62.2664 87.481 63.3911 86.342 64.0119 86.2461L71.1509 85.1436C72.3409 84.9598 71.2168 86.0988 70.5954 86.1947ZM75.4042 84.4868L88.2622 82.5011C89.4521 82.3173 88.3275 83.4563 87.7066 83.5522L74.8487 85.5379C73.6587 85.7216 74.7828 84.5827 75.4042 84.4868ZM64.4058 90.4509L77.2638 88.4653C78.4537 88.2815 77.329 89.4205 76.7082 89.5164L63.8502 91.502C62.6603 91.6858 63.7844 90.5469 64.4058 90.4509ZM72.5139 93.9692C73.7038 93.7854 72.5797 94.9243 71.9583 95.0203L64.8193 96.1228C63.6294 96.3066 64.754 95.1676 65.3749 95.0717L72.5139 93.9692ZM65.4727 100.354C64.2827 100.537 65.4068 99.3985 66.0282 99.3025L78.8862 97.3168C80.0761 97.133 78.9515 98.272 78.3307 98.3679L65.4727 100.354ZM65.7513 105.015C64.5614 105.199 65.6855 104.06 66.3069 103.964L79.1649 101.978C80.3548 101.794 79.2301 102.933 78.6093 103.029L65.7513 105.015ZM62.8379 83.2923C61.6479 83.476 62.7371 82.1113 63.3586 82.0153L95.2841 77.085C96.474 76.9012 95.3842 78.2661 94.7634 78.3619L62.8379 83.2923ZM97.8187 94.1702C97.9751 94.3092 98.1343 94.4408 98.2949 94.5668L99.0071 95.0686C103.038 97.6705 108.059 96.53 111.456 93.3775C111.817 93.3121 112.206 93.0007 112.135 92.6963C112.448 92.3578 112.745 92.0027 113.02 91.6291C115.646 88.0563 114.877 83.2641 111.627 80.4082C107.873 77.1091 102.478 78.2792 98.5651 80.5942C98.3602 80.6559 98.1635 80.7383 98.0908 80.8046C93.8306 84.6765 93.3635 90.2193 97.8187 94.1702Z" fill="#FEFDFF"/>
<path fill-rule="evenodd" clip-rule="evenodd" d="M99.0614 93.6471C99.5267 92.9414 100.091 92.3118 100.734 91.7464C100.855 91.6399 101.017 91.5505 101.187 91.5056C104.618 89.579 108.867 89.1239 111.727 92.1807C112.231 91.5022 112.639 90.759 112.914 89.9673C114.003 86.8184 113.194 83.1593 110.522 81.0262C106.946 78.1713 102.495 78.7132 98.7593 81.0234C98.7523 81.0278 98.7448 81.0317 98.7373 81.0355L98.7263 81.0414L98.721 81.0443C95.485 84.2397 94.5915 88.9835 97.9179 92.5711C98.2693 92.9499 98.6531 93.3105 99.0614 93.6471ZM101.381 82.5155C99.5285 84.2226 99.2372 86.6342 101.221 88.3747C103.134 90.0534 105.829 89.4357 107.495 87.775C108.957 86.3164 109.111 84.1478 107.741 82.5892C106.172 80.8048 103.532 81.3135 101.7 82.3501C101.577 82.386 101.462 82.4408 101.381 82.5155Z" fill="#FEFDFF"/>
<path d="M110.896 93.1474C108.377 90.2119 104.603 90.4268 101.45 92.3322C101.401 92.3613 101.352 92.3831 101.301 92.401C100.731 92.9438 100.23 93.5491 99.8559 94.245C101.238 95.1933 102.843 95.8324 104.512 95.8782C106.851 95.942 109.209 94.859 110.896 93.1474Z" fill="#FEFDFF"/>
<path fill-rule="evenodd" clip-rule="evenodd" d="M101.381 82.5155C99.5285 84.2226 99.2372 86.6342 101.221 88.3747C103.134 90.0534 105.829 89.4357 107.495 87.775C108.957 86.3164 109.111 84.1478 107.741 82.5892C106.172 80.8048 103.532 81.3135 101.7 82.3501C101.577 82.386 101.462 82.4408 101.381 82.5155ZM106.663 83.2699C107.718 84.3278 107.694 85.9946 106.889 87.1735C104.375 90.8514 98.9059 86.1711 102.091 82.9518C103.614 82.0285 105.353 81.9576 106.663 83.2699Z" fill="#340679"/>
<path fill-rule="evenodd" clip-rule="evenodd" d="M98.2949 94.5668C98.1343 94.4408 97.9751 94.3092 97.8187 94.1702C93.3635 90.2193 93.8306 84.6765 98.0908 80.8046C98.1635 80.7383 98.3602 80.6559 98.5651 80.5942C102.478 78.2792 107.873 77.1091 111.627 80.4082C114.877 83.2641 115.646 88.0563 113.02 91.6291C112.745 92.0027 112.448 92.3578 112.135 92.6963C112.206 93.0007 111.817 93.3121 111.456 93.3775C108.059 96.53 103.038 97.6705 99.0071 95.0686L98.2949 94.5668ZM101.45 92.3322C104.603 90.4268 108.377 90.2119 110.896 93.1474C109.209 94.859 106.851 95.942 104.512 95.8782C102.843 95.8324 101.238 95.1933 99.8559 94.245C100.23 93.5491 100.731 92.9438 101.301 92.401C101.352 92.3831 101.401 92.3613 101.45 92.3322ZM100.734 91.7464C100.091 92.3118 99.5267 92.9414 99.0614 93.6471C98.6531 93.3105 98.2693 92.9499 97.9179 92.5711C94.5915 88.9835 95.485 84.2397 98.721 81.0443L98.7263 81.0414L98.7373 81.0355C98.7448 81.0317 98.7523 81.0278 98.7593 81.0234C102.495 78.7132 106.946 78.1713 110.522 81.0262C113.194 83.1593 114.003 86.8184 112.914 89.9673C112.639 90.759 112.231 91.5022 111.727 92.1807C108.867 89.1239 104.618 89.579 101.187 91.5056C101.017 91.5505 100.855 91.6399 100.734 91.7464Z" fill="#340679"/>
<path d="M106.889 87.1735C107.694 85.9946 107.718 84.3278 106.663 83.2699C105.353 81.9576 103.614 82.0285 102.091 82.9518C98.9059 86.1711 104.375 90.8514 106.889 87.1735Z" fill="#FEFDFF"/>
<path d="M97.6148 55.5106C98.2468 59.2616 98.8787 63.0124 99.3759 66.2799L102.459 65.7495L100.903 55.6402C100.385 52.2946 99.8665 48.9489 99.3464 45.531C99.3341 45.45 99.367 45.3894 99.4239 45.3456C99.293 45.2928 99.191 45.2044 99.1777 45.083C98.7742 41.4715 97.6453 36.8128 93.0509 37.6605C93.0122 37.6676 92.9712 37.6671 92.9289 37.6641L47.5564 44.5689C47.5043 44.6001 47.436 44.6254 47.3439 44.6364C41.97 45.324 43.3241 51.662 43.8979 55.4851C43.8987 55.4905 43.8977 55.4934 43.8981 55.4982L55.607 132.439C55.608 132.443 55.6099 132.446 55.6106 132.451C55.6415 132.652 55.6727 132.863 55.7043 133.079L55.714 133.142L55.7138 133.145L55.734 133.283C56.2862 137.063 57.0938 142.592 61.953 141.734C62.0132 141.723 62.0773 141.727 62.1413 141.74L107.786 134.794C107.829 134.778 107.879 134.765 107.94 134.758C112.713 134.184 112.512 129.36 111.795 125.652C111.789 125.621 111.79 125.595 111.794 125.57C111.752 125.544 111.723 125.512 111.717 125.473L110.33 117.202C109.815 114.239 109.3 111.276 108.944 108.931L105.433 109.513L106.96 118.682L106.96 118.683C107.641 122.68 108.321 126.677 108.645 128.804C108.65 128.835 108.646 128.862 108.639 128.888C108.654 128.949 108.612 129.003 108.485 129.036C108.421 129.061 108.345 129.074 108.264 129.074L61.5135 136.189C61.2913 136.311 60.8577 136.247 60.7715 136.04C60.6783 135.962 60.6437 135.875 60.7302 135.815L47.9702 51.9667C47.8507 51.8621 47.8379 51.7439 48.0873 51.6959C48.1856 51.6397 48.3268 51.6213 48.4623 51.6364L95.1534 44.5309C95.4042 44.4484 95.8224 44.5357 95.8534 44.7394L97.6148 55.5106Z" fill="#FEFDFF"/>
<path fill-rule="evenodd" clip-rule="evenodd" d="M53.4541 141.413C54.7936 142.979 56.6259 143.204 58.5706 142.861L62.353 142.285C62.4308 142.271 62.4863 142.25 62.5263 142.224L108.023 135.3C108.055 135.302 108.088 135.301 108.123 135.297C109.867 135.088 111.697 134.427 112.482 132.712C113.5 130.491 113.129 127.922 112.681 125.604C112.671 125.556 112.643 125.515 112.605 125.48L111.144 116.725C110.605 113.601 110.065 110.477 109.684 107.97L108.944 108.931L110.33 117.202C110.845 120.165 111.36 123.128 111.717 125.473C111.723 125.512 111.752 125.544 111.794 125.57C111.79 125.595 111.789 125.621 111.795 125.652C112.512 129.36 112.713 134.184 107.94 134.758C107.879 134.765 107.829 134.778 107.786 134.794L62.1413 141.74C62.0773 141.727 62.0132 141.723 61.953 141.734C57.0938 142.592 56.2862 137.063 55.734 133.283L55.7138 133.145L55.714 133.142L55.7043 133.079C55.6727 132.863 55.6415 132.652 55.6106 132.451C55.6099 132.446 55.608 132.443 55.607 132.439L43.8981 55.4982C43.8977 55.4934 43.8987 55.4905 43.8979 55.4851C43.3241 51.662 41.97 45.324 47.3439 44.6364C47.436 44.6254 47.5043 44.6001 47.5564 44.5689L92.9289 37.6641C92.9712 37.6671 93.0122 37.6676 93.0509 37.6605C97.6453 36.8128 98.7742 41.4715 99.1777 45.083C99.191 45.2044 99.293 45.2928 99.4239 45.3456C99.367 45.3894 99.3341 45.45 99.3464 45.531L100.903 55.6402C101.421 58.9859 101.939 62.3316 102.459 65.7495C102.505 66.0512 103.4 66.0987 103.342 65.7185L101.785 55.6092L101.785 55.6056C101.267 52.2611 100.749 48.9166 100.229 45.4999C100.216 45.416 100.137 45.3529 100.031 45.3116C100.064 45.2778 100.084 45.2354 100.078 45.1822C99.817 42.8406 99.4291 39.8596 97.5388 38.1931C96.153 36.9715 94.4035 36.8243 92.6481 37.1483C92.6027 37.157 92.5667 37.1677 92.5347 37.1805L47.3495 44.0568C47.293 44.0452 47.2321 44.0407 47.1668 44.0495C46.6558 44.1147 46.155 44.2196 45.6819 44.3732C45.5975 44.3292 45.492 44.3065 45.3749 44.3222C39.2795 45.1034 38.4923 50.9767 39.2291 56.1195C39.2298 56.1243 39.2321 56.1273 39.2332 56.132L50.9418 133.071C50.9423 133.077 50.9411 133.08 50.9418 133.085C51.352 135.73 51.6224 139.272 53.4541 141.413ZM51.9322 133.716L51.9323 133.719L51.9524 133.856C52.5045 137.635 53.3123 143.165 58.1722 142.308C58.4994 142.258 59.175 142.166 59.2601 142.192C58.5116 141.956 57.8263 141.526 57.2364 140.837C55.4053 138.696 55.1352 135.154 54.7264 132.508C54.7256 132.502 54.7266 132.499 54.726 132.493L43.0173 55.5534C43.0164 55.5493 43.0144 55.5462 43.0137 55.542C42.6089 52.844 41.9892 49.7616 42.817 47.0848C43.0537 46.3212 43.4628 45.7349 43.9859 45.2865C39.8456 46.8177 39.5283 51.9549 40.1165 56.0593C40.1172 56.0641 40.1159 56.0677 40.1163 56.0719L51.8253 133.013C51.8262 133.018 51.8285 133.021 51.8292 133.025C51.8601 133.226 51.8912 133.437 51.9226 133.653L51.9322 133.716Z" fill="#340679"/>
<path d="M51.9323 133.719L51.9322 133.716L51.9226 133.653C51.8912 133.437 51.8601 133.226 51.8292 133.025C51.8285 133.021 51.8262 133.018 51.8253 133.013L40.1163 56.0719C40.1159 56.0677 40.1172 56.0641 40.1165 56.0593C39.5283 51.9549 39.8456 46.8177 43.9859 45.2865C43.4628 45.7349 43.0537 46.3212 42.817 47.0848C41.9892 49.7616 42.6089 52.844 43.0137 55.542C43.0144 55.5462 43.0164 55.5493 43.0173 55.5534L54.726 132.493C54.7266 132.499 54.7256 132.502 54.7264 132.508C55.1352 135.154 55.4053 138.696 57.2364 140.837C57.8263 141.526 58.5116 141.956 59.2601 142.192C59.175 142.166 58.4994 142.258 58.1722 142.308C53.3123 143.165 52.5045 137.635 51.9524 133.856L51.9323 133.719Z" fill="#FEFDFF"/>
</g>
</g>
<defs>
<clipPath id="clip0_6918_13109">
<rect width="160" height="160" fill="white"/>
</clipPath>
<clipPath id="clip1_6918_13109">
<rect width="160" height="160" fill="white"/>
</clipPath>
</defs>
</svg>
