<svg width="201" height="200" viewBox="0 0 201 200" fill="none" xmlns="http://www.w3.org/2000/svg">
<path d="M120.955 141.473C121.75 149.947 124.412 158.226 124.259 166.789C121.535 168.407 118.368 168.334 115.449 167.285C113.573 161.943 113.082 156.282 112.471 150.689C111.961 146.018 111.281 141.385 110.874 136.701C110.49 132.299 110.076 127.89 109.182 123.557C108.418 119.852 107.242 115.971 104.71 113.068C104.623 112.829 104.029 112.801 103.811 113.058C98.3689 119.491 96.8368 128.279 95.68 136.371C95.0074 141.078 94.3996 145.771 93.5167 150.445C92.5413 155.609 91.4934 160.78 91.2569 166.043C89.9715 167.883 86.9087 167.907 84.9012 167.918C83.5815 167.926 81.7468 167.999 80.4546 167.468C82.033 164.453 82.2507 160.876 82.4029 157.538C82.5951 153.32 82.6042 149.141 83.0856 144.938C84.2246 135.005 86.6604 125.185 86.4266 115.131C90.2423 114.702 93.8856 112.604 94.9563 109.072C94.9634 109.049 94.9644 109.029 94.9624 109.01C95.3242 106.697 95.6347 104.376 95.8981 102.05C102.168 103.22 109.252 103.756 115.138 100.929C115.214 104.654 115.286 108.379 115.418 112.102C115.341 112.202 115.317 112.324 115.398 112.452C116.485 114.169 118.63 114.707 120.39 114.102C120.425 118.82 120.664 123.534 120.777 128.251C120.883 132.662 120.542 137.075 120.955 141.473ZM101.04 62.5148C102.099 62.4862 103.158 62.4577 104.217 62.4294C104.446 61.3778 104.512 60.2708 104.355 59.2121C104.342 59.1227 104.365 59.0421 104.409 58.9722C103.539 58.4817 102.72 57.8712 102.124 57.1002C101.609 57.7768 101.094 58.4518 100.578 59.1275C100.648 59.1832 100.692 59.2652 100.686 59.3808C100.625 60.4304 100.779 61.4951 101.04 62.5148ZM101.285 63.2532C101.293 71.0771 101.155 78.9027 101.05 86.7256C101.021 88.8526 100.992 90.9797 100.961 93.1068C100.955 93.5623 101.275 94.0881 101.491 94.4618C102.619 96.4111 104.191 98.0896 105.771 99.6899C106.92 98.0298 108.093 96.3956 108.721 94.4483C107.125 84.0398 105.529 73.6312 103.933 63.223C103.93 63.2092 103.932 63.1955 103.938 63.1817C103.053 63.2059 102.169 63.2294 101.285 63.2532ZM127.822 61.9315C126.359 64.7157 126.079 67.9492 124.91 70.8473C124.886 70.9061 124.823 70.9568 124.741 70.9985C125.75 72.1156 126.777 73.2173 127.841 74.286C128.201 74.6475 127.284 75.0595 126.953 74.7275C122.201 69.955 118.127 64.5777 113.521 59.6711C113.498 59.6472 113.481 59.6227 113.469 59.5988C112.334 58.5321 111.118 57.5322 109.724 56.8432C111.517 59.4648 112.501 62.6397 113.218 65.6941C114.354 70.5335 114.922 75.4972 115.298 80.4478C116.1 90.9837 116.019 101.552 116.401 112.105C116.402 112.125 116.398 112.144 116.393 112.163C117.656 113.939 120.504 114.248 121.661 112.164C121.671 112.145 121.685 112.129 121.698 112.112C121.686 99.4446 122.006 86.7833 119.363 74.3163C119.269 73.8748 120.245 73.6228 120.336 74.0552C121.066 77.4956 121.565 80.9511 121.913 84.4174C123.228 85.9871 125.354 87.2023 127.194 88.0459C130.199 89.4238 131.038 85.2526 131.722 83.2401C132.736 80.2523 134.132 77.3958 135.178 74.4124C136.25 71.354 137.22 68.2626 138.19 65.1707C135.942 61.8919 131.547 60.428 127.822 61.9315ZM109.633 56.0046H109.562C109.611 56.025 109.659 56.0459 109.708 56.067L109.633 56.0046ZM78.7381 83.2052L78.0971 82.7809C78.0833 82.796 78.0695 82.8114 78.053 82.8249C78.2808 82.9529 78.5093 83.0795 78.7381 83.2052ZM93.9834 109.195C93.9844 109.192 93.9867 109.189 93.9881 109.186C96.7585 91.4937 96.6554 73.3833 93.5345 55.7445C86.8059 57.465 80.088 60.0806 75.9676 66.0029C71.6769 72.1697 68.1935 78.7418 65.0588 85.5543C65.0544 85.5634 65.0471 85.5721 65.041 85.5812C65.0363 85.5947 65.0329 85.6074 65.0242 85.6225C63.3013 88.689 64.3902 90.5685 66.6809 91.7188L69.9248 92.7846C73.5197 93.5489 77.9116 93.5301 80.332 93.5143L80.42 93.179C80.2943 90.4294 81.1168 88.0382 82.2023 85.5389C78.6924 84.6768 75.9945 81.9621 72.4305 81.2606C71.7824 81.1329 72.2689 80.4337 72.7617 80.5308C74.406 80.8547 75.8635 81.6036 77.2984 82.4022C77.3162 82.3646 77.3357 82.3273 77.3539 82.2893L77.323 82.2688L77.4671 82.0595C78.8113 79.3106 80.7664 76.8166 82.3099 74.1869C82.542 73.7911 83.5338 73.8372 83.2476 74.3247C83.2052 74.3969 83.1595 74.4678 83.1162 74.54C83.0393 77.8578 82.0622 81.0489 81.3997 84.279C81.3886 84.3337 81.3533 84.3828 81.3053 84.4261C81.8415 84.6277 82.3908 84.7974 82.965 84.9103C83.0866 84.9341 83.1683 84.9785 83.2177 85.0336C83.2919 85.0947 83.3205 85.1885 83.262 85.3208C83.093 85.7045 82.9301 86.0852 82.7738 86.4652C82.8152 86.4363 82.8666 86.4067 82.9348 86.3758C84.9466 85.4717 86.0728 82.9932 88.4555 82.8282C90.128 82.713 88.381 85.9844 87.7238 86.9191C87.7779 86.9006 87.8363 86.8885 87.8975 86.8848C89.3734 86.7954 91.3006 87.0343 91.866 88.6648C92.3629 90.0984 91.7941 91.7427 90.9048 92.9035C88.3265 96.2673 84.1419 96.2239 80.9145 93.9601C80.8275 93.9951 80.7412 94.0186 80.671 94.0186C80.6075 94.0186 80.5403 94.0193 80.4727 94.0193C80.4721 94.0545 80.467 94.0922 80.4533 94.1338C79.6647 96.5213 78.941 98.9353 78.297 101.366C77.8575 103.024 77.4264 104.698 77.156 106.394C77.0757 106.899 76.8392 107.834 76.8862 108.582C76.9705 108.603 77.032 108.648 77.0461 108.722C78.5116 116.568 91.7679 116.503 93.9834 109.195Z" fill="#9F55E7"/>
<path d="M108.282 46.315C109.757 45.6532 109.171 43.8187 108.783 42.6307C108.649 42.2208 109.619 41.951 109.756 42.3697C110.308 44.0596 110.619 45.9807 108.701 46.8422C108.219 47.0579 107.67 46.5895 108.282 46.315ZM103.29 46.9208C103.523 46.9235 103.808 46.8583 103.927 46.6315C104.032 46.4289 103.836 46.2562 103.638 46.2542C102.858 46.2462 102.334 45.9639 102.063 45.2043C101.915 44.787 100.946 45.0618 101.09 45.4653C101.449 46.4719 102.247 46.9097 103.29 46.9208ZM104.192 41.2697C104.194 41.6927 104.219 42.115 104.22 42.538C104.221 43.046 105.207 42.8945 105.206 42.4617C105.205 42.0384 105.18 41.6161 105.178 41.1934C105.175 40.6857 104.189 40.8373 104.192 41.2697ZM110.507 40.7341C110.508 41.1528 110.509 41.5717 110.509 41.9907C110.51 42.163 111.483 42.0182 111.483 41.7296C111.482 41.311 111.481 40.892 111.481 40.4731C111.48 40.3004 110.506 40.4459 110.507 40.7341ZM102.647 39.2518C102.922 38.7875 103.937 38.8755 104.26 39.2353C104.481 39.4803 105.41 39.1298 105.166 38.8587C104.439 38.0517 102.288 38.3222 101.743 39.24C101.513 39.6264 102.489 39.5169 102.647 39.2518ZM110.124 38.8916C110.374 38.6212 110.635 38.6339 110.953 38.8023C111.154 38.9084 111.463 38.8201 111.643 38.7112C111.78 38.6279 111.931 38.4394 111.728 38.3326C110.986 37.9395 109.92 38.1115 109.344 38.7327C108.954 39.1527 109.906 39.1268 110.124 38.8916ZM141.817 102.486C145.799 98.4895 149.783 94.4934 153.765 90.4959C153.976 90.2839 154.567 90.2896 154.662 90.4882C158.647 94.4574 162.634 98.4263 166.619 102.396C166.646 102.423 166.641 102.457 166.615 102.493C166.665 102.703 166.464 102.977 166.119 102.978C164.358 102.981 162.597 102.985 160.835 102.987C160.842 106.775 160.85 110.562 160.857 114.35C160.857 114.52 160.705 114.646 160.521 114.706C160.507 114.711 160.493 114.715 160.478 114.719C160.466 114.722 160.455 114.726 160.442 114.728C160.429 114.731 160.414 114.733 160.401 114.735C160.374 114.738 160.348 114.742 160.32 114.742C160.284 114.742 160.248 114.742 160.213 114.742C158.223 114.746 156.234 114.749 154.244 114.753L154.247 116.514L153.575 116.515L153.572 114.754C151.539 114.758 149.506 114.762 147.474 114.766C147.229 114.793 146.983 114.703 146.983 114.449C146.976 110.557 146.968 106.664 146.961 102.771C146.829 102.825 146.702 102.863 146.637 102.863C145.196 102.866 143.755 102.869 142.314 102.871C142.19 102.895 142.056 102.894 141.946 102.871C141.869 102.868 141.832 102.853 141.827 102.831C141.696 102.768 141.651 102.652 141.817 102.486ZM142.899 102.452C144.296 102.449 145.693 102.447 147.091 102.444C147.358 102.223 147.946 102.221 147.947 102.616C147.954 106.429 147.961 110.243 147.968 114.057C151.936 114.05 155.903 114.042 159.87 114.035C159.863 110.343 159.856 106.652 159.849 102.96C159.446 102.824 159.649 102.269 160.139 102.268C161.835 102.265 163.532 102.262 165.227 102.259C161.524 98.5704 157.821 94.8828 154.118 91.1944C150.379 94.9476 146.639 98.6994 142.899 102.452ZM181.172 61.6631C181.213 61.8717 181.013 62.1358 180.674 62.1365C179.422 62.1388 178.17 62.1415 176.917 62.1435C176.922 64.9029 176.927 67.6626 176.933 70.4227C176.933 70.5933 176.78 70.7193 176.595 70.7798C176.583 70.7838 176.57 70.7872 176.558 70.7909C176.544 70.7946 176.531 70.798 176.517 70.8006C176.504 70.8037 176.491 70.8057 176.477 70.8077C176.451 70.8111 176.424 70.8144 176.396 70.8144C176.36 70.8144 176.325 70.8144 176.289 70.8144C173.169 70.8205 170.049 70.8269 166.929 70.8329C166.683 70.8601 166.438 70.7697 166.437 70.5161C166.432 67.6781 166.427 64.8394 166.421 62.0004C166.357 62.0081 166.293 62.0128 166.229 62.0128C165.222 62.0145 164.213 62.0169 163.205 62.0189C162.834 62.1146 162.316 61.9823 162.65 61.647C165.589 58.6981 168.528 55.7496 171.466 52.8007C171.677 52.5887 172.268 52.5944 172.363 52.793C175.3 55.7183 178.238 58.643 181.175 61.5683C181.202 61.5952 181.197 61.6285 181.172 61.6631ZM179.77 61.4175C177.119 58.7777 174.469 56.1383 171.818 53.4989C169.128 56.1994 166.436 58.8987 163.746 61.5989C164.681 61.5972 165.616 61.5952 166.551 61.5935C166.818 61.3721 167.406 61.3705 167.407 61.7649C167.413 64.5508 167.417 67.3367 167.423 70.1233C170.264 70.1179 173.105 70.1126 175.946 70.1069C175.941 67.4335 175.936 64.7601 175.931 62.0861C175.618 61.9147 175.823 61.4249 176.285 61.4239C177.446 61.4219 178.608 61.4198 179.77 61.4175ZM34.8644 102.532C38.7204 98.6615 42.5781 94.7924 46.4344 90.9213C46.3783 90.6353 47.1336 90.3595 47.3906 90.6155C51.3877 94.5975 55.3865 98.5778 59.384 102.56C59.6746 102.849 58.923 103.196 58.5732 103.03C58.5692 103.03 58.5648 103.031 58.5612 103.031C57.106 103.034 55.6506 103.036 54.1951 103.039C54.2022 106.876 54.2096 110.714 54.217 114.552C54.2173 114.664 54.1521 114.756 54.056 114.824C53.9764 114.889 53.8682 114.934 53.7392 114.942C53.7278 114.943 53.7174 114.945 53.7053 114.945C53.6613 114.945 53.6176 114.945 53.5736 114.945C51.4905 114.949 49.4075 114.952 47.3244 114.956L47.3278 116.718L46.6558 116.719L46.6525 114.958C44.7125 114.962 42.7726 114.965 40.833 114.969C40.5878 114.996 40.3432 114.906 40.3425 114.652C40.3354 110.84 40.3281 107.029 40.321 103.217C38.5316 103.22 36.7422 103.224 34.9524 103.227C34.6571 103.228 34.5318 103.084 34.5325 102.924C34.5194 102.909 34.5204 102.89 34.5378 102.866C34.5647 102.726 34.683 102.588 34.8644 102.532ZM35.7107 102.504C37.5072 102.501 39.3033 102.497 41.0998 102.494C41.6249 102.493 41.6142 102.948 41.3071 103.135C41.3138 106.843 41.3209 110.551 41.3283 114.259C45.2958 114.251 49.263 114.244 53.2302 114.237C53.2232 110.448 53.2158 106.658 53.2087 102.868C53.208 102.458 54.0856 102.302 54.1847 102.715C54.3201 102.66 54.4518 102.62 54.5187 102.62C55.7211 102.618 56.9239 102.615 58.1264 102.613C54.3588 98.8597 50.5898 95.1075 46.8218 91.3543C43.1183 95.0716 39.4139 98.7871 35.7107 102.504ZM24.0849 62.4328C22.8039 62.4355 21.5231 62.4382 20.242 62.4402C19.9558 62.4405 19.8291 62.3055 19.8221 62.1523C19.8086 62.1375 19.809 62.1183 19.8254 62.0948C19.8466 61.9457 19.9733 61.7941 20.1725 61.7407C22.9789 58.9246 25.7853 56.1087 28.5914 53.2922C28.5353 53.0063 29.2906 52.7305 29.5476 52.9865C32.4964 55.925 35.447 58.8621 38.3965 61.7998C38.6952 62.0972 37.8929 62.4567 37.5573 62.2558C36.5651 62.2581 35.573 62.2598 34.5805 62.2618C34.5859 65.0716 34.5909 67.8817 34.5966 70.6921C34.597 70.8218 34.5083 70.925 34.3853 70.9942C34.3141 71.0405 34.2264 71.0718 34.1246 71.0798C34.1091 71.0812 34.0944 71.0839 34.0782 71.0839C34.0366 71.0839 33.9946 71.0839 33.9529 71.0842C30.8324 71.0899 27.7121 71.0963 24.5916 71.1024C24.3463 71.1292 24.1017 71.0392 24.1011 70.7855C24.0957 68.0016 24.0903 65.2177 24.0849 62.4328ZM21.0151 61.7179C22.2767 61.7155 23.5386 61.7128 24.8002 61.7108C25.2861 61.7101 25.3133 62.0995 25.0717 62.3062C25.0767 65.0017 25.0814 67.6969 25.0868 70.3931C27.9282 70.3874 30.7689 70.382 33.6099 70.3763C33.6042 67.6146 33.5995 64.8532 33.5941 62.0908C33.5934 61.7081 34.3578 61.5465 34.5405 61.862C34.6178 61.8506 34.6954 61.8425 34.7717 61.8425C35.5558 61.8412 36.34 61.8395 37.1242 61.8378C34.4092 59.1335 31.6938 56.4296 28.9788 53.7253C26.3246 56.3899 23.6693 59.0536 21.0151 61.7179ZM136.146 114.533L136.151 116.549L136.822 116.548L136.818 114.532L136.146 114.533ZM136.904 159.605L136.896 155.3L136.224 155.301L136.232 159.607L136.904 159.605ZM136.872 142.382L136.863 138.077L136.192 138.078L136.2 142.383L136.872 142.382ZM136.855 133.771L136.847 129.465L136.175 129.466L136.183 133.772L136.855 133.771ZM136.839 125.159L136.831 120.853L136.159 120.855L136.167 125.16L136.839 125.159ZM136.888 150.994L136.88 146.688L136.208 146.69L136.216 150.995L136.888 150.994ZM136.916 165.927L136.912 163.911L136.24 163.912L136.244 165.928L136.916 165.927ZM65.4833 114.667L65.4873 116.683L66.1593 116.681L66.1552 114.665L65.4833 114.667ZM65.5441 146.823L65.5522 151.129L66.2241 151.128L66.216 146.822L65.5441 146.823ZM65.5606 155.435L65.5686 159.74L66.2406 159.739L66.2325 155.433L65.5606 155.435ZM65.495 120.988L65.5031 125.294L66.1751 125.293L66.167 120.987L65.495 120.988ZM65.5276 138.212L65.5357 142.517L66.2076 142.516L66.1996 138.21L65.5276 138.212ZM65.5115 129.6L65.5196 133.906L66.1915 133.904L66.1835 129.599L65.5115 129.6ZM66.2523 166.061L66.2483 164.045L65.5763 164.046L65.5804 166.062L66.2523 166.061ZM47.3604 133.941L47.3523 129.635L46.6804 129.636L46.6884 133.942L47.3604 133.941ZM46.6636 121.025L46.6716 125.33L47.3436 125.329L47.3355 121.023L46.6636 121.025ZM47.4094 159.775L47.4014 155.47L46.7294 155.471L46.7375 159.777L47.4094 159.775ZM47.393 151.164L47.3849 146.858L46.713 146.86L46.721 151.165L47.393 151.164ZM47.3765 142.552L47.3684 138.247L46.6965 138.248L46.7045 142.553L47.3765 142.552ZM47.4212 166.097L47.4172 164.081L46.7452 164.082L46.7492 166.098L47.4212 166.097ZM154.313 150.961L154.305 146.655L153.633 146.657L153.641 150.962L154.313 150.961ZM154.329 159.572L154.321 155.267L153.649 155.268L153.657 159.574L154.329 159.572ZM153.584 120.822L153.592 125.127L154.264 125.126L154.256 120.82L153.584 120.822ZM154.296 142.349L154.288 138.044L153.616 138.045L153.624 142.35L154.296 142.349ZM154.28 133.738L154.272 129.433L153.6 129.434L153.608 133.739L154.28 133.738ZM154.341 165.894L154.337 163.878L153.665 163.88L153.669 165.895L154.341 165.894ZM172.071 75.4291L172.075 77.4449L172.747 77.4436L172.743 75.4277L172.071 75.4291ZM172.175 130.321L172.182 134.388L172.854 134.387L172.847 130.319L172.175 130.321ZM172.221 154.725L172.228 158.792L172.9 158.79L172.893 154.723L172.221 154.725ZM172.144 114.051L172.151 118.118L172.823 118.117L172.816 114.05L172.144 114.051ZM172.159 122.186L172.167 126.253L172.839 126.252L172.831 122.185L172.159 122.186ZM172.205 146.59L172.213 150.657L172.885 150.656L172.877 146.589L172.205 146.59ZM172.19 138.455L172.198 142.523L172.87 142.521L172.862 138.454L172.19 138.455ZM172.082 81.5119L172.09 85.5792L172.762 85.5779L172.754 81.5106L172.082 81.5119ZM172.098 89.6466L172.105 93.7139L172.777 93.7125L172.77 89.6452L172.098 89.6466ZM172.129 105.916L172.136 109.984L172.808 109.982L172.801 105.915L172.129 105.916ZM172.113 97.7816L172.12 101.849L172.792 101.847L172.785 97.7802L172.113 97.7816ZM172.912 164.874L172.908 162.858L172.236 162.859L172.24 164.875L172.912 164.874ZM28.6421 75.7005L28.6462 77.7164L29.3181 77.715L29.3141 75.6992L28.6421 75.7005ZM29.3483 93.9844L29.341 89.917L28.669 89.9184L28.6764 93.9857L29.3483 93.9844ZM29.3793 110.254L29.3719 106.187L28.6999 106.188L28.7073 110.255L29.3793 110.254ZM29.4102 126.523L29.4028 122.456L28.7308 122.458L28.7382 126.525L29.4102 126.523ZM29.4256 134.658L29.4182 130.591L28.7463 130.592L28.7537 134.66L29.4256 134.658ZM29.3329 85.8497L29.3255 81.7824L28.6535 81.7837L28.6609 85.851L29.3329 85.8497ZM29.3638 102.119L29.3564 98.052L28.6845 98.0534L28.6919 102.12L29.3638 102.119ZM29.3947 118.389L29.3873 114.321L28.7154 114.323L28.7228 118.39L29.3947 118.389ZM29.4411 142.793L29.4337 138.726L28.7617 138.727L28.7691 142.794L29.4411 142.793ZM29.4565 150.928L29.4491 146.861L28.7772 146.862L28.7846 150.929L29.4565 150.928ZM29.4717 159.063L29.4643 154.995L28.7923 154.997L28.7997 159.064L29.4717 159.063ZM29.4834 165.146L29.4794 163.13L28.8074 163.131L28.8115 165.147L29.4834 165.146ZM178.551 167.235C160.998 167.268 143.445 167.36 125.892 167.397C129.074 170.205 134.048 170.132 136.836 173.595C136.914 173.692 136.849 173.785 136.772 173.857C134.459 176.005 130.16 176.02 127.225 176.129C123.492 176.268 119.68 176.192 115.977 175.65C115.922 175.642 115.793 175.599 115.79 175.523C115.739 174.214 115.473 172.887 115.272 171.596C115.077 170.347 115.005 168.894 114.531 167.707C114.528 167.7 114.526 167.691 114.523 167.683C114.521 167.679 114.52 167.674 114.518 167.669C114.473 167.543 114.432 167.415 114.389 167.288C114.379 167.289 114.368 167.29 114.359 167.29C106.603 167.305 98.8474 167.32 91.0917 167.334C90.9688 167.335 90.8945 167.317 90.8572 167.289C90.5058 167.502 90.1265 167.677 89.7283 167.818C89.7337 169.696 89.7616 171.568 90.0519 173.426C90.0529 173.433 90.0512 173.44 90.0512 173.448C90.0593 173.499 90.0549 173.556 90.0331 173.622C89.5533 175.075 87.5821 175.719 86.2631 176.069C84.1679 176.626 81.8601 176.95 79.6964 176.65C78.2343 176.447 76.257 175.768 76.4875 173.866C76.7724 171.516 79.3991 170.295 80.2397 168.167C80.1144 168.129 79.9924 168.088 79.8728 168.042C79.563 168.109 79.2217 168.035 79.3366 167.773C79.2852 167.691 79.3504 167.595 79.4696 167.513C79.5069 167.444 79.5439 167.375 79.5798 167.305C79.5476 167.312 79.519 167.317 79.4985 167.317C61.0165 167.352 42.5341 167.386 24.052 167.421C23.5682 167.421 24.4683 167.01 24.68 167.01C43.0444 166.975 61.4096 166.942 79.7744 166.907C81.2392 163.762 81.3561 160.014 81.4593 156.617C81.5833 152.532 81.6699 148.491 82.1769 144.429C83.3898 134.71 85.6785 125.047 85.4456 115.203C81.4536 115.352 77.4988 113.666 76.2984 109.879C75.6724 109.232 75.9745 107.773 76.0874 107.005C76.3639 105.126 76.8184 103.273 77.311 101.44C77.9796 98.9501 78.7134 96.4733 79.5224 94.0243C73.7315 94.0489 59.5462 93.8637 64.1028 85.6673C65.7302 82.1304 67.3883 78.601 69.3084 75.211C71.3044 71.6863 73.3875 67.9076 76 64.8028C80.5599 59.3835 87.0772 56.9205 93.7486 55.2439C93.8736 55.1861 94.0245 55.1492 94.1575 55.1421C94.4199 55.0773 94.6826 55.0138 94.9454 54.9513C94.9877 54.8018 95.0623 54.6432 95.1819 54.4641C95.5861 53.859 95.9903 53.2536 96.3944 52.6488C96.4438 52.5746 96.5591 52.5182 96.6928 52.4788C96.6753 51.4232 96.5994 50.3995 96.4012 49.3526C95.3529 49.1809 94.3487 48.5819 93.9112 47.7026C93.9102 47.7003 93.9082 47.6986 93.9072 47.6962C91.9713 43.3282 88.9472 39.406 89.1256 34.4087C89.1303 34.278 89.2513 34.1725 89.4055 34.1077C89.3507 34.0717 89.2956 34.0354 89.2371 34.0045C89.0194 33.8886 89.1495 33.6272 89.2949 33.5214C89.4955 33.3756 89.7717 33.3403 89.9917 33.4572C90.2612 33.6003 90.4819 33.7952 90.7134 33.9907C90.8576 34.112 90.9973 34.232 91.1666 34.2914C92.0956 31.5694 93.1701 28.8668 94.8036 26.4857C94.9474 26.2761 95.5051 26.0839 95.7084 26.3039C96.3363 26.9826 96.8074 27.711 97.1712 28.5399C99.4035 27.0814 100.993 24.7037 103.781 24.2424C103.955 24.2135 104.158 24.2911 104.223 24.4608C104.544 25.3021 104.959 26.0802 105.122 26.9598C106.68 25.6132 108.245 24.2908 110.133 23.4075C110.336 23.3124 110.701 23.2647 110.82 23.5063C112.674 27.2793 113.847 31.2848 113.602 35.5188C113.591 35.7099 113.314 35.85 113.057 35.8762C113.136 38.1431 113.525 40.3945 113.596 42.664C113.651 44.4181 113.815 46.8035 112.285 48.0436C111.074 49.024 109.565 49.3586 108.074 49.6755C105.782 50.163 104.666 51.1118 104.818 53.2637C105.232 53.4646 105.527 54.1154 105.75 54.7719C107.021 55.1475 108.33 55.4946 109.562 56.0046C109.611 56.0251 109.659 56.0459 109.708 56.0671C110.013 56.1971 110.315 56.3342 110.608 56.4891C111.947 57.196 113.118 58.1145 114.223 59.1238C114.295 59.1439 114.359 59.1769 114.409 59.2296C114.555 59.3848 114.696 59.5444 114.84 59.7003C115.041 59.8932 115.241 60.088 115.44 60.2849C115.463 60.3078 115.463 60.3353 115.449 60.3642C118.432 63.6376 121.232 67.074 124.18 70.3773C125.167 67.6206 125.502 64.6177 126.891 62.0152C126.896 62.0065 126.906 61.9991 126.912 61.991C126.913 61.9903 126.913 61.9903 126.913 61.9903C126.987 61.8929 127.162 61.8223 127.347 61.7861C127.718 61.6372 128.095 61.5085 128.476 61.401C128.402 61.3758 128.348 61.3312 128.332 61.2609C127.621 58.0981 127.876 54.0126 129.065 50.9969C129.18 50.7046 129.86 50.4711 130.039 50.807C130.827 52.2894 130.993 53.9555 131.171 55.6051C132.229 53.3806 133.065 50.8722 135.214 49.5135C135.366 49.4181 135.937 49.241 136.006 49.5384C136.265 50.6444 136.21 51.7014 135.972 52.7285C136.752 51.8395 137.679 51.0674 138.657 50.3934C138.845 50.2641 139.388 50.1344 139.464 50.4747C139.723 51.6332 139.491 52.7369 139.039 53.7841C139.909 52.9045 140.889 52.2111 142.164 52.1234C142.375 52.1089 142.626 52.2027 142.616 52.4496C142.556 54.0048 141.98 55.4526 141.261 56.8338C142.042 56.2898 142.911 55.8554 143.846 55.5151C143.891 55.4989 144.522 55.3357 144.501 55.4926C144.02 59.0072 141.535 61.9423 139.13 64.3939C139.085 64.4393 138.983 64.4806 138.863 64.5128C138.948 64.623 139.034 64.7302 139.114 64.8455C139.171 64.877 139.2 64.9261 139.177 64.9983C137.845 69.2447 136.533 73.5073 134.904 77.6519C134.187 79.4766 133.303 81.2532 132.694 83.1162C132.319 84.2605 132.009 85.4694 131.443 86.5391C130.608 88.1175 128.824 89.5327 126.941 88.7441C125.331 88.0695 123.476 87.0804 122.053 85.847C122.826 94.581 122.671 103.38 122.682 112.183C122.682 112.308 122.591 112.41 122.466 112.479C122.169 112.947 121.792 113.327 121.361 113.619C121.391 118.635 121.676 123.643 121.763 128.657C121.843 133.211 121.498 137.765 122.045 142.299C123.027 150.445 125.396 158.485 125.229 166.742C125.24 166.754 125.252 166.766 125.264 166.778C143.146 166.744 161.028 166.648 178.91 166.614C179.57 166.611 178.96 167.234 178.551 167.235ZM82.403 157.538C82.2509 160.875 82.0331 164.453 80.4547 167.467C81.7472 167.998 83.582 167.925 84.9014 167.918C86.9088 167.907 89.9716 167.883 91.257 166.042C91.4932 160.779 92.5411 155.608 93.5168 150.445C94.4001 145.771 95.0079 141.077 95.6802 136.371C96.8369 128.279 98.369 119.491 103.811 113.057C104.028 112.8 104.624 112.829 104.711 113.068C107.241 115.971 108.417 119.852 109.182 123.557C110.076 127.889 110.491 132.299 110.874 136.701C111.281 141.385 111.962 146.017 112.472 150.688C113.082 156.281 113.574 161.942 115.449 167.284C118.368 168.334 121.535 168.407 124.259 166.789C124.413 158.226 121.75 149.946 120.955 141.473C120.542 137.075 120.883 132.661 120.777 128.251C120.664 123.534 120.425 118.82 120.391 114.101C118.631 114.706 116.485 114.169 115.399 112.452C115.318 112.324 115.341 112.202 115.419 112.101C115.287 108.379 115.214 104.653 115.139 100.929C109.253 103.756 102.169 103.219 95.8985 102.05C95.6351 104.376 95.3247 106.696 94.9628 109.009C94.9652 109.028 94.9639 109.049 94.9568 109.072C93.886 112.603 90.2431 114.701 86.427 115.131C86.6605 125.184 84.2247 135.004 83.0861 144.938C82.6043 149.14 82.5956 153.32 82.403 157.538ZM109.724 56.8432C111.517 59.4648 112.501 62.6398 113.217 65.6941C114.353 70.5335 114.922 75.4973 115.298 80.4479C116.1 90.9837 116.019 101.552 116.401 112.105C116.401 112.125 116.398 112.144 116.392 112.163C117.656 113.939 120.504 114.248 121.661 112.164C121.671 112.145 121.684 112.129 121.698 112.112C121.686 99.4446 122.006 86.7834 119.362 74.3163C119.269 73.8748 120.244 73.6228 120.336 74.0552C121.066 77.4956 121.564 80.9512 121.913 84.4174C123.228 85.9871 125.354 87.2023 127.194 88.046C130.199 89.4238 131.038 85.2527 131.721 83.2402C132.736 80.2523 134.132 77.3959 135.178 74.4124C136.25 71.354 137.22 68.2627 138.19 65.1707C135.942 61.8922 131.547 60.4287 127.822 61.9319C126.359 64.7161 126.079 67.9496 124.91 70.8477C124.886 70.9065 124.823 70.9572 124.741 70.9989C125.75 72.116 126.777 73.2177 127.841 74.2864C128.201 74.6479 127.284 75.0598 126.953 74.7279C122.201 69.9553 118.127 64.578 113.521 59.6714C113.498 59.6476 113.481 59.6231 113.469 59.5992C112.334 58.5325 111.118 57.5323 109.724 56.8432ZM129.219 61.2199C132.629 60.5083 136.247 61.4309 138.57 64.1402C140.752 61.8795 142.954 59.1775 143.483 56.014C142.236 56.572 141.179 57.3636 140.366 58.4421C140.167 58.7845 139.968 59.1238 139.776 59.4601C139.56 59.8367 138.57 59.8223 138.843 59.3432C139.982 57.3525 141.369 55.2627 141.601 52.9314C139.637 53.4518 138.225 56.181 136.802 57.4355C136.603 57.6105 136.291 57.5924 136.118 57.4715C135.975 57.4248 135.904 57.3226 136.013 57.1583C136.016 57.1546 136.018 57.1513 136.021 57.1479C136.036 57.1157 136.058 57.0824 136.088 57.0485C137.214 55.3783 138.713 53.4391 138.573 51.3449C136.994 52.5612 135.673 54.0643 135.053 56.0046C134.963 56.2871 134.444 56.3832 134.215 56.224C133.948 56.2539 133.702 56.1783 133.82 55.9384C134.699 54.1419 135.414 52.3374 135.134 50.3538C133.377 51.9352 132.691 54.6015 131.589 56.6063C131.544 56.6876 131.435 56.7531 131.306 56.7965C131.313 57.1546 130.377 57.3636 130.333 57.0344C130.122 55.4516 130.06 53.8096 129.573 52.29C128.809 55.0541 128.71 58.3517 129.305 60.9985C129.324 61.0808 129.287 61.1558 129.219 61.2199ZM100.961 93.1068C100.955 93.5624 101.275 94.0882 101.491 94.4618C102.619 96.4111 104.191 98.0897 105.771 99.6899C106.92 98.0298 108.093 96.3957 108.721 94.4483C107.125 84.0398 105.529 73.6312 103.933 63.223C103.93 63.2093 103.932 63.1955 103.938 63.1817C103.053 63.2059 102.17 63.2298 101.285 63.2533C101.292 71.0772 101.155 78.9027 101.05 86.7256C101.021 88.8527 100.992 90.9797 100.961 93.1068ZM104.355 59.2121C104.342 59.1228 104.365 59.0421 104.409 58.9723C103.539 58.4817 102.721 57.8713 102.124 57.1002C101.609 57.7769 101.094 58.4518 100.578 59.1275C100.649 59.1833 100.693 59.2652 100.686 59.3808C100.625 60.4304 100.779 61.4951 101.04 62.5148C102.099 62.4862 103.158 62.4577 104.217 62.4295C104.446 61.3782 104.512 60.2711 104.355 59.2121ZM105.805 58.812C105.725 58.0705 105.514 57.2994 105.281 56.6376C105.083 56.0768 104.884 55.5151 104.658 54.9654C104.6 54.824 104.517 54.5471 104.411 54.2901C104.347 54.3042 104.284 54.3146 104.225 54.3207C103.731 54.9768 103.237 55.6323 102.74 56.2868C103.444 57.4224 104.6 58.218 105.805 58.812ZM97.0593 48.8372C97.1914 48.8493 97.268 48.8805 97.3066 48.9219C97.3328 48.937 97.3516 48.9568 97.3567 48.9834C97.5774 50.1028 97.6537 51.1941 97.6681 52.324C99.0587 53.7126 100.417 55.0255 102.176 55.9048C102.735 55.1657 103.295 54.4265 103.852 53.685C103.695 52.2124 104.012 50.9371 105.467 50.1771C107.002 49.3761 108.829 49.4742 110.385 48.7569C112.867 47.6132 112.735 44.8589 112.604 42.498C112.483 40.3239 112.138 38.1552 112.078 35.9794C112.041 35.9925 112.007 36.0056 111.963 36.0177C110.347 36.4508 108.719 36.3449 107.083 36.0745C104.706 35.6827 101.372 34.5495 99.8493 37.0643C99.8893 39.9725 100.312 42.789 98.1963 45.1089C98.1372 45.1734 98.0249 45.2214 97.9003 45.25C97.7192 45.3111 97.5216 45.3293 97.4178 45.2631C96.8903 44.9271 96.043 44.4483 95.4362 44.8734C95.0055 45.1751 94.7603 45.7203 94.7085 46.2334C94.5607 47.6969 95.6583 48.7109 97.0593 48.8372ZM96.381 56.1709C97.2183 57.4224 98.2843 58.5345 99.4115 59.5404C100.179 58.5358 100.945 57.5306 101.709 56.5237C99.8792 55.6871 98.4718 54.3956 97.065 53.0006C97.0482 53.003 97.0311 53.0053 97.015 53.0067C96.7254 53.4401 96.4358 53.8735 96.1465 54.3066C95.6849 54.9967 95.9184 55.4791 96.381 56.1709ZM94.5113 55.5003C97.182 70.6068 97.6342 86.062 95.9765 101.303C102.205 102.487 109.307 103.131 115.122 100.159C114.992 93.8288 114.841 87.4993 114.36 81.1837C113.982 76.2112 113.474 71.1998 112.333 66.3365C111.5 62.7896 110.403 59.0489 108.053 56.1826C108.039 56.1655 108.032 56.1477 108.029 56.1296C107.349 55.883 106.658 55.6669 105.963 55.4603C106.039 55.7203 106.105 55.9525 106.163 56.1185C106.524 57.1449 106.84 58.3134 106.815 59.4127C106.808 59.741 106.148 59.7988 105.942 59.7128C105.759 59.6365 105.574 59.5552 105.389 59.4705C105.487 60.5695 105.39 61.6913 105.113 62.7594C105.082 62.878 105.012 62.9764 104.919 63.0466C106.512 73.4337 108.104 83.8204 109.697 94.2071C109.7 94.2222 109.697 94.237 109.691 94.2518C109.69 94.2525 109.691 94.2525 109.691 94.2531C108.977 96.4884 107.542 98.309 106.245 100.23C106.127 100.405 105.488 100.664 105.307 100.481C103.621 98.7861 101.835 96.9981 100.625 94.9106C100.379 94.4856 99.9793 93.896 99.987 93.3746C100.018 91.2451 100.048 89.1157 100.076 86.9866C100.182 79.0677 100.323 71.1464 100.312 63.2264C100.228 63.1898 100.158 63.1276 100.131 63.0295C99.8809 62.1157 99.7139 61.1595 99.6884 60.2063C99.4616 60.3283 99.094 60.4055 98.9482 60.2802C97.6537 59.1705 96.291 57.9022 95.4073 56.4323C95.1581 56.0173 94.9733 55.7086 94.9205 55.4022C94.7844 55.4344 94.648 55.4674 94.5113 55.5003ZM69.9252 92.7842C73.5202 93.5486 77.9121 93.5298 80.3324 93.514C80.3684 93.514 80.4033 93.5137 80.4386 93.5133C80.4305 93.4011 80.4252 93.2899 80.4201 93.1787C80.2945 90.4291 81.1169 88.0379 82.2025 85.5386C78.6925 84.6765 75.9946 81.9618 72.4306 81.2603C71.7825 81.1326 72.269 80.4334 72.7619 80.5305C74.4061 80.8544 75.8636 81.6033 77.2986 82.4019C77.3164 82.3643 77.3358 82.327 77.354 82.289C77.3903 82.2121 77.4299 82.1362 77.4672 82.0592C78.8115 79.3103 80.7665 76.8163 82.31 74.1866C82.5421 73.7908 83.5339 73.8369 83.2477 74.3244C83.2054 74.3966 83.1597 74.4675 83.1163 74.5397C83.0394 77.8575 82.0624 81.0486 81.3998 84.2787C81.3887 84.3334 81.3535 84.3825 81.3054 84.4258C81.8416 84.6274 82.391 84.7971 82.9651 84.91C83.0868 84.9338 83.1684 84.9782 83.2178 85.0333C83.292 85.0944 83.3206 85.1882 83.2621 85.3205C83.0931 85.7042 82.9302 86.0849 82.774 86.4649C82.8153 86.436 82.8667 86.4064 82.9349 86.3755C84.9467 85.4714 86.0729 82.9929 88.4557 82.8279C90.1281 82.7127 88.3811 85.9841 87.7239 86.9188C87.778 86.9003 87.8365 86.8882 87.8976 86.8845C89.3736 86.7951 91.3007 87.034 91.8661 88.6645C92.3631 90.0981 91.7943 91.7424 90.9049 92.9032C88.3266 96.267 84.1421 96.2236 80.9147 93.9598C80.8277 93.9948 80.7413 94.0183 80.6711 94.0183C80.6076 94.0183 80.5404 94.019 80.4729 94.019C80.4722 94.0542 80.4672 94.0919 80.4534 94.1335C79.6648 96.521 78.9411 98.935 78.2971 101.365C77.8576 103.024 77.4266 104.697 77.1561 106.394C77.0758 106.898 76.8393 107.834 76.8863 108.582C76.9706 108.603 77.0321 108.648 77.0462 108.722C78.5118 116.568 91.768 116.502 93.9835 109.194C93.9845 109.191 93.9868 109.188 93.9882 109.185C96.7586 91.4928 96.6555 73.3823 93.5346 55.7435C86.806 57.4641 80.0882 60.0796 75.9678 66.0019C71.677 72.1687 68.1936 78.7408 65.0589 85.5534C65.0546 85.5624 65.0472 85.5712 65.0411 85.5802C65.0364 85.5937 65.0331 85.6064 65.0243 85.6216C63.3014 88.688 64.3903 90.5675 66.681 91.7179C67.603 92.1818 68.7187 92.5276 69.9252 92.7842ZM78.0532 82.8252C78.2809 82.9532 78.5091 83.0799 78.7382 83.2056C79.3124 83.521 79.893 83.8234 80.4876 84.0905C81.037 81.4874 81.7644 78.9067 82.0365 76.2613C80.6674 78.3588 79.1931 80.4291 78.1657 82.6828C78.1489 82.7194 78.1247 82.7517 78.0972 82.7812C78.0834 82.7963 78.0696 82.8115 78.0532 82.8252ZM81.4139 93.2835C84.2825 95.5188 88.2991 95.9011 90.3395 92.3794C91.7563 89.9345 90.9288 87.2248 87.7622 87.416C87.4625 87.4342 87.3624 87.3374 87.3842 87.2218C87.0536 87.3391 86.4774 87.3582 86.676 87.1449C87.2834 86.4928 87.74 85.6733 87.9786 84.8122C88.075 84.4638 88.204 84.0563 88.1489 83.6911C88.0579 83.0863 87.395 83.5449 87.0906 83.7724C85.8169 84.7245 84.7673 86.0261 83.2961 86.6876C83.0663 86.7908 82.778 86.7656 82.6893 86.6728C81.8309 88.7986 81.2338 90.9048 81.4139 93.2835ZM88.7543 168.099C87.7316 168.335 86.6632 168.421 85.7269 168.471C84.4092 168.542 82.6628 168.639 81.1401 168.377C80.489 169.951 79.1535 170.932 78.1624 172.272C76.7563 174.174 77.9584 175.688 80.0243 175.907C81.7986 176.096 83.6572 175.955 85.3916 175.535C86.549 175.255 88.5625 174.844 89.0621 173.573C88.7889 171.758 88.7597 169.93 88.7543 168.099ZM114.224 166.8C112.555 161.676 112.089 156.284 111.498 150.949C110.997 146.424 110.332 141.935 109.938 137.397C109.556 133.006 109.191 128.582 108.299 124.258C107.552 120.639 106.521 116.825 104.184 113.883C98.9946 120.405 97.6308 129.235 96.5312 137.264C95.9026 141.856 95.2538 146.422 94.3877 150.977C93.4486 155.916 92.4797 160.869 92.2478 165.902C92.2475 165.909 92.2468 165.916 92.2465 165.922C92.2458 165.94 92.2441 165.958 92.2431 165.975C92.2371 166.105 92.1447 166.209 92.0194 166.278C91.8544 166.486 91.671 166.674 91.4717 166.845C91.4768 166.844 91.4818 166.843 91.4865 166.843C99.0655 166.829 106.645 166.814 114.224 166.8ZM124.586 167.384C124.58 167.383 124.574 167.381 124.568 167.38C121.83 168.893 118.712 169.046 115.742 168.184C116.01 169.205 116.092 170.336 116.245 171.335C116.437 172.599 116.709 173.9 116.76 175.18C116.779 175.66 126.022 175.644 126.79 175.621C128.847 175.559 130.959 175.46 132.973 174.998C133.687 174.835 134.417 174.658 135.077 174.332C135.42 174.162 136.002 174.009 135.656 173.63C135.366 173.314 135.074 172.999 134.732 172.736C131.666 170.37 127.336 170.185 124.586 167.384ZM97.3385 47.249C97.2132 46.8959 97.095 46.5304 96.8618 46.2307C96.5806 45.8692 96.123 45.7812 95.6906 45.8137C95.4957 45.8285 95.1853 45.9485 95.1443 46.1709C95.1013 46.4041 95.4228 46.4377 95.577 46.4262C96.0598 46.3899 96.2449 47.1728 96.3649 47.5108C96.5016 47.8961 97.4696 47.6183 97.3385 47.249Z" fill="#3C0B84"/>
<circle opacity="0.1" cx="101.125" cy="100.625" r="66.875" fill="#8036E4"/>
</svg>
