<svg width="241" height="240" viewBox="0 0 241 240" fill="none" xmlns="http://www.w3.org/2000/svg">
<g id="Frame" clip-path="url(#clip0_2505_78224)">
<path id="Vector 26" d="M56.722 224.887C23.4877 181.611 9.39927 109.69 15.6976 51.5689C17.8708 36.1539 38.0074 27.0487 45.7305 24.3499C67.1691 16.8522 88.4992 18.8167 155.955 45.4296C223.41 72.0425 227.029 107.367 220.407 121.703C217.655 131.725 199.456 162.789 148.679 206.873C97.9011 250.958 66.2169 237.251 56.722 224.887Z" fill="#F4EDFB"/>
<g id="color_x5F_2">
<path d="M176.341 215.397L176.057 215.522C176.054 215.505 176.049 215.488 176.041 215.473C176.147 215.397 176.226 215.304 176.253 215.196L176.341 215.397ZM98.6943 130.977C98.3284 130.966 97.9418 130.916 97.5753 130.815C97.8757 130.953 98.2474 131.015 98.6943 130.977ZM159.903 180.465C156.753 174.276 154.186 168 152.541 161.24C150.96 154.744 147.57 148.606 146.67 141.967C146.383 142.083 146.094 142.195 145.803 142.3C144.979 142.598 144.162 142.829 143.359 142.982C143.316 143.003 143.286 143.018 143.286 143.018L143.219 143.005C139.874 143.607 136.77 142.833 134.379 139.756C131.958 136.638 130.673 133.074 130.027 129.312L129.996 129.311C129.782 129.464 129.409 129.623 129.212 129.631C123.741 129.875 118.4 129.065 113.698 126.162C111.655 126.874 109.618 127.579 107.603 128.298C105.96 128.885 104.316 129.472 102.665 130.035C101.043 130.589 99.5672 131.465 97.8292 131.641C96.2412 131.802 94.6138 130.57 95.2117 128.805C95.7061 127.346 96.7533 126.275 98.1631 125.729C98.0596 125.691 98.1075 125.604 98.2282 125.505C98.212 125.482 98.2009 125.456 98.2009 125.425C98.2091 124.683 98.2795 123.957 98.4045 123.255C98.3997 123.255 98.395 123.256 98.3902 123.256C90.9554 123.229 75.3582 120.712 73.4813 131.014C72.1984 138.055 74.8427 145.958 77.2058 152.518C78.6885 156.635 80.3599 160.686 81.922 164.776L82.5673 166.231L83.0942 167.925C83.8018 169.886 84.4701 171.862 85.0579 173.864C85.0646 173.887 85.065 173.908 85.0679 173.93C85.1321 173.95 85.1853 173.981 85.2222 174.024C86.9285 176.058 90.9894 175.703 93.352 175.569C94.8117 175.485 96.2737 175.345 97.7161 175.104C98.3102 175.005 98.908 174.907 99.4905 174.751C99.7027 174.695 99.8153 174.663 99.8733 174.651C99.892 174.606 99.9265 174.561 99.9729 174.519C99.9667 174.504 99.9576 174.491 99.9528 174.475C96.6713 163.896 92.438 153.604 90.3034 142.702C90.2325 142.339 90.5712 142.13 90.8648 142.026C95.4 140.424 101.319 141.728 105.868 142.587C110.648 143.49 115.797 144.465 120.211 146.587C120.216 146.59 120.22 146.592 120.225 146.595C120.393 146.555 120.543 146.538 120.625 146.566C123.965 147.688 126.391 150.727 128.383 153.482C130.605 156.554 132.788 159.813 134.664 163.108C136.224 165.849 137.127 168.851 138.178 171.793L144.16 184.044C147.619 190.531 151.092 197.012 154.427 203.563C155.756 206.172 157.084 208.788 158.3 211.452C158.875 212.712 159.655 214.111 159.902 215.507C160.243 215.773 160.628 216.014 161.05 216.232L162.583 216.872C164.35 217.461 166.451 217.728 168.458 217.64L170.813 217.357C172.431 217.026 173.847 216.416 174.774 215.5C174.805 215.469 174.846 215.442 174.889 215.418C174.874 215.395 174.859 215.371 174.849 215.344C170.246 203.59 165.638 191.73 159.903 180.465ZM92.6761 142.594L95.2994 142.325C94.4007 142.344 93.5211 142.427 92.6761 142.594ZM91.7899 142.806C93.2926 150.257 95.753 157.429 98.2019 164.607L93.7056 148.851L92.049 142.735C91.9619 142.757 91.8761 142.782 91.7899 142.806ZM148.401 104.582L147.571 104.679C142.704 106.849 135.736 106.85 131.247 107.999C131.189 113.22 130.695 118.439 130.976 123.661C131.272 129.177 132.18 135.436 136.069 139.698C139.498 143.458 143.091 142.571 146.806 141.052C146.965 140.913 147.193 140.823 147.408 140.802C148.793 140.216 150.195 139.574 151.611 139.079C154.273 138.149 157.011 137.946 159.709 138.488C158.884 137.312 158.201 135.937 157.505 134.777C155.448 131.345 153.501 127.825 151.892 124.161C150.287 120.505 148.824 116.657 148.703 112.626C148.626 110.082 148.191 107.199 148.401 104.582ZM96.804 111.871C99.4963 117.781 107.597 115.266 112.339 113.805C117.536 112.202 122.533 110.086 127.616 108.172C128.522 107.831 129.434 107.553 130.35 107.319C130.466 107.276 130.589 107.245 130.707 107.23C132.988 106.673 135.299 106.373 137.631 106.061C138.835 105.9 140.045 105.735 141.26 105.529C141.781 105.441 142.306 105.335 142.828 105.212C147.906 104.012 152.774 101.082 151.601 95.0151C150.675 90.2232 147.099 85.219 142.081 84.1186C141.958 84.0914 141.866 84.0495 141.797 84C138.752 85.3005 135.591 86.3014 132.49 87.4614C132.428 87.519 132.342 87.5733 132.226 87.6209C123.407 91.2142 115.02 95.667 106.795 100.421C103.226 102.483 94.3063 106.389 96.804 111.871ZM77.304 104.678C78.7402 105.971 80.4226 106.361 82.1927 106.181C82.6008 106.122 83.0061 106.052 83.4047 105.974C87.9575 104.899 92.8486 100.607 95.5475 98.2298C97.5408 96.4746 99.4824 94.6403 101.254 92.6618C101.454 92.4384 98.9803 88.3314 98.7585 87.8385C98.3068 86.8347 97.8373 85.8228 97.4761 84.7814C91.8177 86.2685 85.9283 87.6142 80.8169 90.5332C78.4216 91.9013 75.7016 93.8198 74.9103 96.6155C74.1433 99.3269 75.1886 102.774 77.304 104.678Z" fill="#A358E7"/>
<path d="M43.1653 155.254C43.1222 155.31 43.0661 155.36 43 155.404V189.121V189.532H45.8302V154.914C45.8302 154.88 45.836 154.847 45.846 154.816H43.5428C43.5212 154.963 43.4163 155.115 43.1883 155.241L43.1808 155.245L43.1768 155.248C43.1729 155.25 43.1691 155.252 43.1653 155.254Z" fill="#A358E7"/>
<path d="M202.893 202.062C202.859 202.105 202.815 202.145 202.763 202.18V228.677V229H204.988V201.794C204.988 201.767 204.992 201.742 205 201.717H203.19C203.173 201.833 203.09 201.952 202.911 202.051L202.905 202.055L202.902 202.056C202.899 202.058 202.896 202.06 202.893 202.062Z" fill="#A358E7"/>
</g>
<g id="color_x5F_1">
<path d="M128.421 68.3526C127.863 67.7674 127.276 66.9429 127.67 66.1028C128.08 65.2303 128.935 64.675 129.74 64.2014C130.026 64.0336 130.382 63.9252 130.715 63.9404C130.97 63.9518 131.031 64.1125 130.798 64.2494C130.126 64.6446 129.174 65.1832 128.977 66.0153C128.801 66.7556 129.23 67.3656 129.72 67.88C129.941 68.1125 128.668 68.6118 128.421 68.3526ZM134.166 64.9574C134.982 64.9741 135.597 65.4452 135.871 66.206C135.99 66.5359 137.351 66.1151 137.25 65.837C136.902 64.8718 136.057 64.4116 135.059 64.3916C134.73 64.385 134.364 64.4758 134.084 64.6526C133.866 64.791 133.899 64.9522 134.166 64.9574ZM134.643 62.2164C135.35 62.3747 135.973 62.7461 136.613 63.0703C136.907 63.2191 137.329 63.1103 137.592 62.9467C137.784 62.8264 138.002 62.5388 137.707 62.389C136.985 62.0229 136.28 61.6264 135.483 61.4476C135.159 61.3753 134.751 61.4851 134.507 61.7086C134.29 61.9069 134.356 62.1522 134.643 62.2164ZM131.969 71.1702C131.987 70.9738 132.159 70.8203 132.376 70.7276C132.534 70.496 132.89 70.292 133.212 70.3377C133.993 70.4485 134.772 70.3705 135.543 70.2212C135.75 70.1813 136.322 70.1332 136.351 70.476C136.471 71.9191 135.647 73.3026 134.094 73.4343C132.68 73.5537 131.85 72.5281 131.969 71.1702ZM133.361 71.3333C133.389 71.8782 133.616 72.5766 134.234 72.4887C134.698 72.4221 134.918 71.7816 134.966 71.2377C134.434 71.3147 133.898 71.3537 133.361 71.3333ZM114.969 37.0985C115.049 37.1118 115.072 37.0956 114.969 37.0985V37.0985ZM63.3667 59.6218C63.7104 61.5555 64.3215 63.4245 64.8651 65.3083C64.9426 65.5774 66.3182 65.1951 66.2439 64.9393C65.7004 63.0556 65.0897 61.1866 64.7456 59.2529C64.7037 59.0147 63.3134 59.3228 63.3667 59.6218ZM70.4386 74.2169C70.4019 73.8955 69.0126 74.1779 69.0597 74.5859C69.5471 78.835 72.3391 82.3273 75.0939 85.4197C75.3462 85.703 76.6446 85.219 76.3886 84.9314C73.6556 81.8642 70.9217 78.4271 70.4386 74.2169ZM186.884 229.521C183.428 229.554 179.972 229.589 176.515 229.624C176.462 229.635 176.407 229.642 176.348 229.642C175.804 229.642 175.26 229.642 174.715 229.642C166.056 229.729 157.396 229.807 148.737 229.813C148.328 230.019 147.706 230.046 147.705 229.766C147.696 224.615 147.61 219.464 147.556 214.313C147.545 213.279 147.535 212.244 147.523 211.21C147.522 211.03 147.52 210.85 147.518 210.669C146.14 210.682 144.763 210.694 143.385 210.706C131.633 210.809 119.88 210.955 108.127 210.959C107.373 210.96 107.862 210.459 108.344 210.268C108.283 209.983 108.269 209.676 108.248 209.501C107.505 203.226 107.711 196.764 107.707 190.454C107.707 190.202 107.69 190.078 107.691 190.017C107.104 190.021 106.518 190.025 105.931 190.028C104.266 190.038 102.601 190.049 100.935 190.059C100.784 190.089 100.629 190.092 100.499 190.062C99.5531 190.067 98.6079 190.073 97.6626 190.079C82.4756 190.172 67.2877 190.305 52.1002 190.307C51.1683 190.307 52.1364 189.542 52.6414 189.542C56.7209 189.542 60.8004 189.531 64.8798 189.516C64.8679 189.481 64.8608 189.443 64.8608 189.4C64.8608 188.403 64.8608 187.405 64.8608 186.408C64.8608 186.173 65.1535 185.991 65.4695 185.922C65.509 182.278 69.203 180.405 72.2753 179.36C76.439 177.943 81.0173 177.624 85.0725 175.941C85.0753 175.94 85.0782 175.939 85.081 175.938C84.5827 175.675 84.1391 175.349 83.7869 174.927C83.7736 174.911 83.7669 174.895 83.7588 174.878C83.6503 174.823 83.5656 174.735 83.528 174.605C81.092 166.269 77.2867 158.419 74.658 150.148C73.3591 146.063 72.2244 141.851 71.8941 137.561C71.6908 134.918 71.5004 132.05 72.6032 129.557C76.6665 120.371 90.2847 122.635 98.2671 122.663C98.3142 122.663 98.3561 122.668 98.3965 122.673C99.0686 120.222 100.539 118.175 102.909 117.053C102.534 117.055 102.16 117.049 101.787 117.028C97.7407 116.791 93.3257 113.13 95.1757 108.663C95.3799 108.17 95.6364 107.705 95.9349 107.263C92.6503 108.009 89.2405 107.152 86.1101 106.047C81.349 108.245 76.8122 108.35 74.2762 103.351C72.4985 99.846 73.0245 96.9828 74.8574 94.6312C74.8369 94.6155 74.8174 94.5988 74.8017 94.5784C70.5518 88.9537 66.1592 83.282 63.005 76.9461C62.1768 75.282 61.45 73.587 60.8065 71.8658C56.1864 73.2717 47.3839 74.5902 44.6515 69.7048C41.0722 63.3057 52.2069 59.0028 57.145 57.5507C57.1097 57.3411 57.0764 57.1309 57.0426 56.9208C56.7018 57.1033 56.3601 57.2854 56.0203 57.468C55.7832 57.7661 55.1878 57.9487 54.8908 57.6976C54.3896 57.274 54.175 56.315 53.9498 55.734C53.4172 54.359 52.9094 52.973 52.4496 51.5723C51.848 49.7385 50.5629 47.7016 52.6543 46.6884C61.648 42.3304 70.8617 38.5082 80.3909 35.4772C89.1162 32.7024 97.9601 30.6399 106.94 28.8697C108.925 28.4784 112.021 26.9926 113.409 29.1193C114.594 30.9356 115.812 33.407 116.17 35.5699C118.615 34.9019 121.143 34.4901 123.644 34.3855C126.434 34.269 130.055 34.7645 131.141 37.8197C133.297 43.8813 123.805 48.9597 119.078 50.6975C121.262 56.489 122.821 62.4917 123.713 68.7796C124.327 73.1053 124.639 77.2965 124.545 81.6602C124.537 82.0344 124.538 82.4324 124.544 82.8441C124.907 81.9545 125.261 81.0621 125.526 80.1383C125.599 79.8815 125.895 79.707 126.198 79.64C126.76 79.2363 127.366 78.9016 127.923 78.4927C128.126 78.3439 128.38 78.2383 128.638 78.2193C128.517 76.8424 127.92 75.6048 126.531 74.5607C124.998 73.4087 123.993 72.1739 123.986 70.1404C123.969 65.2916 127.132 61.3867 129.592 57.468C129.612 57.4357 129.644 57.4067 129.682 57.3796C128.636 57.4238 127.596 57.3796 126.599 57.1404C124.853 56.7225 122.434 55.249 122.782 53.0715C123.333 49.6334 128.573 48.7405 131.418 48.6939C135.523 48.6269 149.843 49.6705 148.695 56.3668C154.583 58.087 155.051 63.7131 152.391 68.6897C150.204 72.7806 145.818 78.3468 140.665 78.506C140.618 78.8469 140.585 79.1907 140.568 79.5378C140.605 79.553 140.633 79.5749 140.661 79.5967C140.837 79.5996 140.972 79.6452 140.997 79.7527C141.293 81.044 141.695 82.3273 142.452 83.4303C142.517 83.5259 142.473 83.6258 142.371 83.7161C147.812 85.0982 152.31 90.7681 152.543 96.3656C152.69 99.9021 151.405 102.22 149.341 103.797C149.147 105.126 149.358 106.636 149.391 107.96C149.437 109.821 149.411 111.707 149.556 113.563C149.848 117.271 151.184 120.868 152.692 124.239C154.323 127.885 156.21 131.416 158.269 134.839C159.144 136.295 159.989 138.097 161.139 139.382C161.171 139.403 161.2 139.428 161.22 139.46C161.233 139.48 161.245 139.502 161.258 139.524C161.349 139.556 161.441 139.586 161.531 139.621C162.084 139.83 160.826 140.418 160.429 140.267C158.015 139.352 154.901 138.956 152.449 139.736C150.73 140.284 149.116 141.077 147.475 141.808C147.918 145.271 149.115 148.521 150.361 151.768C151.671 155.184 152.634 158.569 153.548 162.103C155.314 168.934 158.037 175.1 161.132 181.415C166.528 192.428 171.053 203.863 175.501 215.284C175.532 215.362 175.535 215.436 175.517 215.505C175.49 215.612 175.412 215.705 175.307 215.781C175.315 215.797 175.32 215.813 175.322 215.83C175.332 215.907 175.291 216.003 175.176 216.117C174.558 216.73 173.824 217.199 173.026 217.559C176.236 218.741 177.095 222.058 177.321 225.298C177.364 225.38 177.368 225.476 177.338 225.57C177.4 226.62 177.404 227.655 177.405 228.596C177.405 228.695 177.342 228.781 177.246 228.856C180.64 228.821 184.033 228.786 187.427 228.754C188.356 228.747 187.387 229.516 186.884 229.521ZM175.971 226.017C170.12 226.017 164.268 226.017 158.417 226.017C158.462 226.916 158.749 227.788 159.378 228.586C159.388 228.598 159.391 228.611 159.396 228.624C164.939 228.624 170.481 228.624 176.024 228.624C176.023 227.809 176.018 226.924 175.971 226.017ZM171.658 218.061C169.996 218.539 168.184 218.657 166.572 218.624C165.176 218.596 163.602 218.5 162.091 218.182C162.119 218.218 162.115 218.266 162.059 218.332C160.601 220.039 158.76 222.593 158.455 225.067C164.272 225.067 170.088 225.067 175.905 225.067C175.628 222.044 174.712 219.036 171.658 218.061ZM97.3447 131.254C97.6426 131.391 98.0125 131.453 98.4565 131.415C98.9715 131.372 99.5836 131.199 100.305 130.846C101.226 130.396 102.219 130.112 103.186 129.772C106.076 128.757 108.957 127.715 111.832 126.659C117.569 124.551 123.514 122.614 129.022 119.942C129.049 118.63 129.1 117.32 129.157 116.02C129.099 116.006 129.053 115.983 129.022 115.947C128.384 115.209 123.315 117.314 122.572 117.559C119.049 118.717 115.558 119.97 112.076 121.243C108.901 122.404 105.736 123.59 102.563 124.756C101.474 125.157 100.284 125.736 99.1019 126.027C99.2171 126.082 99.1647 126.181 98.7435 126.313C96.2928 127.079 95.5955 130.447 97.3447 131.254ZM127.736 115.445C128.226 115.314 128.742 115.202 129.196 115.174C129.295 113.025 129.397 110.909 129.423 108.869C126.79 109.665 124.218 110.72 121.652 111.778C124 111.792 125.974 113.2 127.699 115.368C127.72 115.393 127.731 115.419 127.736 115.445ZM123.913 90.5189C126.097 89.4896 128.304 88.5073 130.539 87.5787C130.538 87.5778 130.537 87.5773 130.537 87.5763C129.645 85.9265 128.965 84.1459 128.439 82.3454C127.175 83.3852 126.084 84.6352 124.71 85.5476C124.671 85.5732 124.626 85.5937 124.579 85.6117C124.571 87.3424 124.45 89.1002 123.913 90.5189ZM96.5784 112.339C99.2533 118.24 107.302 115.729 112.013 114.269C117.177 112.67 122.141 110.557 127.192 108.645C128.092 108.304 128.998 108.028 129.909 107.793C130.027 107.763 130.145 107.733 130.263 107.704C132.53 107.149 134.825 106.849 137.143 106.538C138.339 106.377 139.541 106.212 140.748 106.006C141.265 105.918 141.787 105.813 142.306 105.69C147.352 104.492 152.188 101.566 151.023 95.5084C150.103 90.7239 146.55 85.7273 141.564 84.6285C141.442 84.6014 141.35 84.5596 141.282 84.5101C138.256 85.8086 135.116 86.808 132.035 87.9662C131.973 88.0237 131.888 88.0779 131.772 88.1255C123.01 91.7133 114.677 96.1593 106.505 100.906C102.959 102.965 94.0967 106.865 96.5784 112.339ZM129.543 129.471C129.068 126.544 128.966 123.5 129.013 120.455C124.399 122.637 119.546 124.43 114.689 126.141C119.146 128.894 124.175 129.7 129.363 129.468C129.437 129.465 129.494 129.467 129.543 129.471ZM147.877 104.737C147.599 104.886 147.313 105.026 147.019 105.158C142.183 107.324 135.26 107.325 130.8 108.473C130.742 113.686 130.251 118.896 130.53 124.11C130.824 129.619 131.727 135.868 135.591 140.123C138.998 143.877 142.567 142.992 146.258 141.475C146.417 141.336 146.643 141.246 146.857 141.225C148.233 140.641 149.625 139.999 151.033 139.505C153.677 138.577 156.398 138.374 159.079 138.915C158.259 137.74 157.58 136.368 156.888 135.21C154.845 131.783 152.911 128.268 151.312 124.61C149.717 120.96 148.264 117.117 148.143 113.092C148.067 110.552 147.635 107.673 147.844 105.06C147.852 104.951 147.866 104.845 147.877 104.737ZM139.717 80.5348C139.658 80.5367 139.601 80.5329 139.547 80.5248C136.388 81.3402 133.131 81.7044 129.942 82.3862C130.423 83.961 131.019 85.5228 131.799 86.9658C131.84 87.0424 131.857 87.117 131.855 87.1884C134.921 86.0501 138.039 85.0526 141.038 83.7403C140.401 82.7528 140.004 81.6688 139.717 80.5348ZM129.331 75.4574C130.441 77.2342 130.13 79.3457 129.592 81.268C129.622 81.3212 129.616 81.3854 129.569 81.4581C129.618 81.4938 129.659 81.538 129.689 81.5937C132.838 80.918 136.055 80.5548 139.178 79.7641C139.247 78.1803 139.614 76.6499 140.405 75.2587C140.466 75.1522 140.592 75.0675 140.744 75.0062C140.49 74.7185 141.105 74.1713 141.604 74.2421C144.189 74.6087 145.136 69.5679 142.003 69.4728C141.649 69.4624 141.548 69.3254 141.591 69.1609C141.577 69.1585 141.562 69.1581 141.548 69.1543C138.276 68.268 138.473 63.271 139.747 60.6122C137.848 60.5223 135.815 60.1876 134.095 59.5001C133.507 59.2648 132.381 58.8459 132.311 58.0785C132.276 57.6981 132.431 57.371 132.667 57.0857C132.083 57.1628 131.492 57.2355 130.898 57.2935C130.617 57.7381 130.297 58.2159 129.953 58.7232C129.972 58.7104 129.99 58.6985 130.005 58.6904C130.29 58.5368 130.658 58.4517 130.976 58.5383C131.625 58.7156 131.992 59.2229 132.156 59.8515C132.261 60.2532 130.881 60.6189 130.777 60.2204C130.643 59.7098 130.395 59.2852 129.86 59.1392C129.784 59.1183 129.747 59.0855 129.733 59.0475C129.343 59.6214 128.931 60.2271 128.52 60.8575C128.642 60.8276 128.767 60.809 128.88 60.8114C129.573 60.8262 130.124 61.1309 130.359 61.7966C130.463 62.0909 129.969 62.3091 129.771 62.3619C129.535 62.4251 129.085 62.4632 128.98 62.1655C128.923 62.0053 128.851 61.8627 128.717 61.7514C128.609 61.6625 128.514 61.6577 128.361 61.6544C128.261 61.6525 128.15 61.6207 128.064 61.5664C125.997 64.8447 124.183 68.6465 125.743 71.8045C126.576 73.489 128.393 73.9554 129.331 75.4574ZM125.574 83.708C126.452 82.9035 127.296 82.0563 128.273 81.3683C128.495 80.5253 128.641 79.7127 128.66 78.9392C128.183 79.2582 127.686 79.5473 127.223 79.8872C127.131 79.9548 127.026 80.0085 126.917 80.0546C126.558 81.3065 126.058 82.5032 125.574 83.708ZM115.974 36.3943C116.156 36.9035 115.141 37.3196 114.735 36.9806C114.819 37.0562 114.906 37.088 114.968 37.0985C114.921 37.0994 114.858 37.1037 114.75 37.1189C114.551 37.147 114.352 37.176 114.154 37.2083C113.827 37.262 113.502 37.3234 113.175 37.3814C113.082 37.418 112.987 37.4551 112.899 37.4907C112.881 37.4979 112.863 37.5021 112.846 37.5083C113.453 38.5733 114.036 39.6441 114.598 40.721C114.645 40.7001 114.698 40.6787 114.761 40.6573C116.68 40.0049 123.868 37.7869 124.534 41.2749C125.098 44.2327 119.841 46.2296 117.709 46.8663C117.647 46.8848 117.596 46.8905 117.542 46.9005C117.98 47.9161 118.396 48.9388 118.794 49.9667C122.743 48.509 131.728 43.7187 129.907 38.599C128.148 33.6528 120.949 34.8396 115.974 36.3943ZM117.327 46.4079C117.395 46.3742 117.47 46.3423 117.561 46.3152C119.06 45.8678 123.996 43.8994 123.155 41.6443C122.123 38.8776 117.274 40.41 115.27 41.0904C115.129 41.1389 114.969 41.1555 114.822 41.1489C115.717 42.8843 116.551 44.6368 117.327 46.4079ZM55.1907 55.007C55.3139 55.3251 55.4862 56.0321 55.6985 56.5038C67.9788 49.9097 80.7008 43.6379 94.3209 40.3515C99.1643 39.1829 104.043 38.1507 108.932 37.1898C109.588 37.0609 112.952 36.0049 114.789 35.9783C114.792 35.9773 114.795 35.9759 114.798 35.975C114.474 33.9723 113.334 31.3293 112.146 29.7256C111.264 28.536 109.602 29.339 108.321 29.5896C106.712 29.9043 105.104 30.2257 103.499 30.559C96.0377 32.1071 88.6831 33.862 81.4171 36.1732C73.0188 38.8443 64.8208 42.0337 56.847 45.787C55.6495 46.3509 54.4539 46.9186 53.2644 47.4986C52.7799 47.7349 52.8142 47.6113 52.9584 48.2308C53.1931 49.2364 53.5005 50.2244 53.8289 51.2034C54.2573 52.48 54.7042 53.7514 55.1907 55.007ZM57.9593 61.8726C55.975 62.5583 50.5405 64.6983 52.0365 67.2805C53.2102 69.3064 57.4006 68.123 59.0997 67.4816C59.1768 67.4526 59.2592 67.4336 59.3415 67.4222C58.8108 65.5936 58.3549 63.7421 57.9593 61.8726ZM60.539 71.1269C60.163 70.0786 59.8165 69.0216 59.4976 67.9556C57.2825 68.7772 52.5534 70.0933 50.8123 67.9076C49.7362 66.5568 51.2445 64.8224 52.2968 64.0583C53.9351 62.8682 55.8051 61.9858 57.7237 61.3463C57.7628 61.3335 57.8032 61.323 57.8442 61.3149C57.6409 60.3246 57.4543 59.3299 57.2801 58.3314C54.4344 59.1625 51.5496 60.3293 49.1222 61.9967C46.7704 63.6123 43.9366 66.8702 46.3111 69.7652C49.3225 73.4362 56.3401 72.3978 60.539 71.1269ZM103.328 81.462C103.268 81.4296 103.225 81.384 103.215 81.3198C103.058 80.3365 103.059 79.3314 102.882 78.351C102.832 78.07 102.794 77.761 102.68 77.4962C102.556 77.0806 102.48 77.0806 102.451 77.4962C102.018 78.1456 101.654 78.8379 101.5 79.6105C100.984 82.2156 101.16 84.2985 99.0776 86.1623C99.951 88.4402 101.089 90.7177 102.462 92.6756C102.521 92.7598 102.52 92.8121 102.446 92.8943C102.436 92.9057 102.425 92.9181 102.415 92.9295C102.528 92.8648 102.657 92.8111 102.785 92.7859C105.406 92.27 108.076 91.6401 110.543 90.5955C111.712 90.1005 113.134 89.5385 114 88.5601C114.262 88.3047 114.468 88.009 114.618 87.6719C113.994 87.6077 113.371 87.543 112.748 87.4789C112.298 87.7123 111.872 87.9824 111.46 88.2738C111.248 88.4326 111.035 88.5924 110.828 88.7583C110.578 88.959 109.202 89.1354 109.764 88.6865C109.833 88.6314 109.904 88.5795 109.974 88.5258C109.971 88.4821 110.012 88.4245 110.119 88.3485C110.488 88.087 110.925 87.7789 111.399 87.4822C111.655 87.2987 111.91 87.1132 112.159 86.9207C112.959 86.3035 114.115 85.5033 114.469 84.5049C114.607 84.1155 114.614 83.6738 114.258 83.389C113.982 83.1679 113.703 83.185 113.441 83.3082C113.179 83.5297 112.907 83.7451 112.634 83.9519C112.585 83.9995 112.538 84.0451 112.495 84.0865C111.99 84.5591 111.454 84.9209 110.868 85.2009C110.576 85.4011 110.334 85.5694 110.178 85.6945C109.888 85.9251 108.907 85.9503 108.912 85.6759C108.756 85.5689 108.896 85.3407 109.398 85.2128C109.401 85.2119 109.405 85.2105 109.408 85.2095C110.795 84.2458 114.855 81.6569 113.743 80.4345C113.508 80.1763 113.507 80.2338 113.127 80.3941C112.75 80.5534 112.376 80.7212 112.014 80.9142C111.759 81.0507 111.506 81.1919 111.254 81.3345C109.997 82.4019 108.419 83.321 107.777 83.8307C107.229 84.2662 106.123 83.7636 106.857 83.1807C106.916 83.1337 107.002 83.0714 107.106 82.9982C107.119 82.9882 107.128 82.9791 107.142 82.9692C107.447 82.7557 107.755 82.5455 108.066 82.3387C109.7 81.2114 112.203 79.3737 111.505 78.4808C110.589 77.3098 108.171 79.5088 107.402 80.1026C106.387 80.8866 105.361 81.5613 104.11 81.897C103.614 82.0301 103.32 81.7582 103.328 81.462ZM83.2653 106.451C87.7888 105.377 92.6484 101.092 95.3299 98.7182C97.3104 96.9657 99.2395 95.1342 101 93.1587C101.198 92.9357 98.7407 88.8349 98.5203 88.3428C98.0715 87.3405 97.605 86.3302 97.2462 85.2903C91.6241 86.7752 85.7726 88.1188 80.6941 91.0334C78.3143 92.3994 75.6118 94.315 74.8255 97.1064C74.063 99.8132 75.102 103.256 77.2039 105.157C78.6308 106.447 80.3024 106.837 82.0611 106.657C82.459 106.616 82.8607 106.547 83.2653 106.451ZM96.3485 106.705C98.5755 103.88 102.516 102.057 105.426 100.367C111.001 97.1287 116.644 94.0245 122.443 91.2236C122.399 91.2007 122.378 91.1694 122.397 91.1266C122.962 89.8818 122.897 88.2329 122.977 86.8974C123.095 84.9081 123.164 82.9154 123.183 80.9228C123.227 76.4245 122.82 72.0531 122.1 67.6052C120.37 56.907 116.754 47.1083 111.375 37.7109C109.636 38.0403 107.9 38.3827 106.166 38.7388C101.712 39.6536 97.2495 40.5798 92.8483 41.7237C80.7469 44.8698 69.3767 50.3618 58.3682 56.2133C58.4296 56.6017 58.4924 56.9902 58.5576 57.3781C58.6885 57.4751 58.7161 57.6278 58.6262 57.7756C59.7018 64.074 61.2677 70.3125 64.1287 76.0598C67.2668 82.3639 71.5319 88.0085 75.7646 93.6094C80.9445 88.4345 92.5456 85.9902 97.6826 84.6185C98.0719 84.5144 98.3018 84.5814 98.3509 84.7017C98.5784 84.705 98.5936 84.7859 98.5055 84.889C98.536 84.8734 98.5669 84.8577 98.5974 84.8415C98.6355 84.9537 98.6783 85.0664 98.7174 85.1791C99.7787 83.7285 99.6602 82.1476 100.04 80.2305C100.288 78.9782 100.917 77.0511 102.274 76.5548C104.639 75.6899 104.393 79.0305 104.559 80.6736C106.229 79.9319 107.408 78.3758 109.111 77.6635C110.253 77.1866 112.146 76.6318 112.852 78.0391C113.118 78.5669 113.031 79.1184 112.733 79.6652C113.495 79.359 114.259 79.2206 114.746 79.6262C115.776 80.483 115.198 81.6041 114.143 82.6634C114.997 82.5679 115.926 82.6972 115.947 83.7565C115.967 84.773 114.775 85.7506 114.03 86.3516C114.347 86.3002 114.659 86.2897 114.96 86.3354C116.384 86.5522 116.196 87.6367 115.263 88.5049C111.993 91.5478 106.785 92.5553 102.555 93.3883C102.214 93.4554 102.073 93.4121 102.057 93.3251C99.2542 96.4008 93.1657 102.393 87.2114 105.506C90.0534 106.52 93.3666 107.527 96.3485 106.705ZM99.3513 125.356C99.7845 125.204 100.217 125.05 100.648 124.894C102.047 124.385 103.443 123.867 104.838 123.349C108.587 121.959 112.336 120.565 116.105 119.228C119.407 118.057 122.722 116.864 126.104 115.938C126.178 115.918 126.277 115.887 126.388 115.852C124.532 113.526 122.275 111.515 119.143 112.944C118.949 113.032 118.729 113.053 118.554 113.028C117.778 113.332 116.999 113.629 116.217 113.903C112.698 115.138 108.848 116.517 105.015 116.931C104.926 117.009 104.797 117.08 104.611 117.13C100.904 118.122 99.4275 121.827 99.3513 125.356ZM82.9573 168.308C83.6603 170.266 84.3243 172.239 84.9083 174.238C84.9149 174.261 84.9154 174.282 84.9183 174.304C84.9821 174.323 85.0349 174.354 85.0715 174.398C86.7669 176.429 90.8016 176.075 93.1491 175.94C94.5993 175.857 96.052 175.717 97.4851 175.476C98.0753 175.378 98.6693 175.28 99.248 175.124C99.4589 175.068 99.5707 175.036 99.6283 175.024C99.6469 174.979 99.6812 174.934 99.7273 174.892C99.7212 174.877 99.7121 174.864 99.7074 174.848C96.447 164.286 92.2409 154.009 90.1201 143.124C90.0496 142.761 90.3861 142.552 90.6779 142.448C95.1838 140.849 101.064 142.151 105.584 143.009C110.334 143.91 115.45 144.884 119.835 147.002C119.841 147.005 119.844 147.008 119.849 147.011C120.016 146.97 120.165 146.954 120.247 146.981C123.565 148.102 125.975 151.136 127.955 153.887C130.163 156.955 132.331 160.208 134.195 163.498C135.745 166.235 136.642 169.233 137.686 172.17C138.255 173.77 138.867 175.352 139.654 176.864C140.948 179.35 142.263 181.824 143.576 184.3C143.594 184.334 143.612 184.369 143.631 184.403C147.066 190.88 150.517 197.351 153.831 203.892C155.152 206.498 156.471 209.109 157.679 211.769C158.251 213.028 159.025 214.424 159.271 215.819C159.609 216.083 159.992 216.324 160.411 216.542C160.879 216.785 161.39 216.999 161.934 217.181C163.69 217.769 165.777 218.036 167.771 217.948C168.576 217.912 169.365 217.819 170.111 217.666C171.719 217.335 173.126 216.725 174.047 215.811C174.078 215.78 174.118 215.753 174.162 215.729C174.147 215.706 174.132 215.683 174.121 215.655C169.549 203.918 164.97 192.077 159.272 180.829C156.142 174.65 153.591 168.383 151.957 161.634C150.386 155.147 147.018 149.018 146.124 142.39C145.838 142.505 145.552 142.617 145.262 142.722C144.443 143.019 143.632 143.25 142.834 143.403C142.787 143.412 142.742 143.417 142.695 143.426C139.371 144.027 136.287 143.255 133.912 140.182C131.506 137.069 130.23 133.51 129.588 129.754C129.587 129.746 129.585 129.738 129.584 129.731C129.575 129.738 129.567 129.745 129.557 129.752C129.345 129.905 128.974 130.064 128.779 130.072C123.343 130.316 118.036 129.507 113.364 126.609C111.335 127.319 109.31 128.023 107.308 128.741C105.675 129.327 104.042 129.913 102.402 130.476C100.791 131.029 99.3242 131.903 97.5974 132.079C96.0196 132.24 94.4028 131.009 94.9968 129.247C95.488 127.79 96.5284 126.721 97.9292 126.176C97.8263 126.138 97.8739 126.051 97.9939 125.952C97.9777 125.929 97.9668 125.903 97.9668 125.872C97.9748 125.131 98.0448 124.407 98.169 123.705C98.1643 123.705 98.1595 123.706 98.1548 123.706C90.7678 123.68 75.271 121.166 73.4062 131.453C72.1316 138.484 74.7589 146.374 77.1068 152.925C78.5799 157.034 80.2405 161.08 81.7926 165.163C82.1901 166.208 82.5794 167.256 82.9573 168.308ZM66.4343 186.252C77.6932 186.252 88.952 186.252 100.211 186.252C100.211 186.104 100.214 185.956 100.214 185.809C100.214 185.744 100.236 185.683 100.274 185.627C100.37 182.305 99.8501 178.875 98.4675 175.858C96.6269 176.266 94.4289 176.564 94.2243 176.58C92.0111 176.759 88.3699 177.201 85.8055 176.263C85.7474 176.3 85.6765 176.338 85.5827 176.377C82.389 177.702 78.8364 178.083 75.5118 178.978C72.0744 179.902 66.648 181.381 66.8432 185.851C66.8508 186.019 66.6685 186.159 66.4343 186.252ZM100.187 189.308C100.191 188.536 100.198 187.765 100.205 186.993C100.147 187.007 100.09 187.017 100.038 187.017C88.7745 187.017 77.5109 187.017 66.2473 187.017C66.2473 187.762 66.2473 188.508 66.2473 189.254C66.2473 189.351 66.1968 189.44 66.1149 189.515C77.4723 189.471 88.8302 189.387 100.187 189.308ZM148.477 209.901C148.578 209.9 148.894 209.936 148.896 210.099C148.963 216.416 149.068 222.733 149.083 229.049C151.896 229.048 154.708 229.037 157.521 229.022C157.575 228.899 157.679 228.786 157.821 228.712C155.62 225.349 158.551 221.015 160.797 218.386C160.928 218.232 161.396 218.115 161.736 218.105C160.438 217.798 159.205 217.309 158.189 216.544C158.046 216.541 157.946 216.512 157.937 216.447C157.933 216.41 157.923 216.372 157.917 216.335C157.772 216.214 157.63 216.086 157.496 215.95C157.311 215.765 157.456 215.559 157.71 215.418C157.371 214.283 156.768 213.16 156.299 212.138C155.08 209.482 153.776 206.866 152.452 204.261C149.192 197.845 145.814 191.49 142.442 185.133C141.102 182.606 139.757 180.081 138.436 177.545C136.387 173.607 135.595 169.152 133.548 165.218C131.781 161.82 129.538 158.461 127.336 155.326C125.399 152.569 123.083 149.248 119.875 147.808C119.645 147.987 119.306 148.084 119.045 147.957C114.759 145.887 109.761 144.895 105.114 144.043C102.101 143.491 98.4627 142.671 95.0829 142.746C94.1905 142.766 93.3166 142.849 92.4765 143.016C92.2666 143.057 92.0591 143.104 91.8535 143.156C91.7669 143.178 91.6817 143.203 91.596 143.227C93.0891 150.666 95.5336 157.827 97.9668 164.995C99.0372 168.146 100.104 171.3 101.085 174.479C101.132 174.629 101.091 174.764 101.002 174.875C100.95 175.087 100.499 175.3 99.8511 175.501C101.396 178.878 101.865 182.771 101.596 186.45C101.596 186.453 101.595 186.456 101.594 186.46C101.587 187.406 101.576 188.352 101.572 189.299C103.938 189.282 106.303 189.266 108.668 189.25C108.768 189.25 109.088 189.286 109.087 189.448C109.081 192.861 109.11 196.274 109.18 199.686C109.228 202.015 109.279 204.345 109.422 206.67C109.446 207.064 109.45 209.748 109.777 210.191C122.677 210.178 135.577 210.018 148.477 209.901ZM106.532 70.5754C105.185 71.474 103.179 71.3666 101.637 71.3352C99.7859 71.2971 97.9401 71.1288 96.091 71.0656C95.5222 72.1863 94.0463 73.3939 93.3204 74.1879C91.9063 75.7346 90.3542 77.6302 88.438 78.5783C86.8388 79.3699 86.2438 78.5084 86.1358 76.9237C85.963 74.3919 86.132 71.8397 86.2928 69.3112C84.3762 68.6427 82.3985 68.094 80.558 67.2272C79.7998 66.8702 77.8303 66.0785 78.0906 64.9294C78.3357 63.8496 80.6489 63.0794 81.4952 62.6976C83.1063 61.9706 84.7503 61.3221 86.4018 60.694C86.3942 58.7413 86.3885 56.7805 86.5375 54.8325C86.616 53.8094 86.508 51.7074 87.696 51.2062C88.972 50.668 90.18 51.666 91.0448 52.5023C92.4965 53.9068 93.7374 55.4934 95.0305 57.0387C96.6307 56.2984 98.2433 55.5719 99.9015 54.978C100.749 54.6742 102.655 53.748 103.574 54.3043C104.695 54.9828 103.783 57.0938 103.445 57.9625C102.727 59.8082 101.814 61.5603 100.977 63.3527C100.964 63.3803 100.945 63.4065 100.922 63.4321C102.685 64.8528 108.394 69.333 106.532 70.5754ZM102.863 66.8726C101.687 65.77 100.477 64.7064 99.2547 63.6556C99.0282 63.4607 99.3965 63.193 99.8092 63.076C100.465 61.6915 101.175 60.3317 101.754 58.9129C101.855 58.6662 103.251 54.95 102.467 54.9871C101.031 55.0555 99.4689 55.9023 98.17 56.4591C97.1376 56.9017 96.1143 57.3648 95.0943 57.836C95.0206 57.8793 94.9368 57.9173 94.8483 57.9487C94.7759 57.982 94.7036 58.0143 94.6312 58.0481C94.1029 58.2934 93.4451 57.9962 93.8102 57.652C92.8649 56.5218 91.9573 55.3575 90.9582 54.2729C90.4014 53.6682 89.8369 53.0443 89.1886 52.5332C88.9183 52.3202 88.6355 52.0849 88.3147 51.9465C88.3143 51.9475 88.3138 51.9484 88.3133 51.9494C87.5318 54.6447 87.7702 57.7609 87.7807 60.539C87.7807 60.6003 87.7612 60.6579 87.7298 60.7121C87.7831 60.8328 87.6926 60.9821 87.3462 61.1133C86.4266 61.4609 79.1268 63.9537 79.4623 64.926C79.8802 66.1389 82.0254 66.7537 83.0944 67.1573C84.5294 67.6989 85.9925 68.153 87.4394 68.6598C87.5884 68.7121 87.6127 68.792 87.5622 68.8795C87.637 68.9308 87.6798 69.0078 87.6731 69.1138C87.5403 71.204 87.3942 73.3117 87.459 75.407C87.4832 76.1906 87.4233 77.189 87.7498 77.9245C87.873 78.2027 87.715 78.1352 88.1248 77.8499C88.3899 77.6654 88.646 77.4695 88.8906 77.2589C90.3128 76.0375 91.6084 74.6629 92.8421 73.2537C93.3756 72.6441 94.7136 71.4683 94.893 70.768C94.9487 70.5512 95.2723 70.3914 95.5931 70.3296C95.7112 70.2821 95.8297 70.2531 95.9315 70.255C98.8497 70.3049 102.552 71.2686 105.368 70.3215C106.209 70.0386 103.142 67.1345 102.863 66.8726ZM196.098 120.359C196.469 121.22 196.643 121.797 195.596 122.085C193.679 122.61 191.488 121.326 189.66 120.58C189.128 120.931 188.458 121.216 188.028 121.457C186.887 122.096 185.666 122.82 184.381 123.124C183.626 123.303 182.683 123.498 182.883 122.425C183.178 120.842 183.855 119.317 184.457 117.831C184.459 117.823 184.467 117.816 184.471 117.808C183.918 117.383 179.55 114.498 180.919 113.688C182.37 112.83 184.441 112.838 186.195 112.808C186.553 111.72 186.918 110.627 187.379 109.578C187.73 108.78 188.017 108.102 188.907 107.858C189.889 107.589 190.373 108.267 190.788 109.07C191.31 110.081 191.695 111.149 192.11 112.206C193.126 112.095 194.143 112 195.165 111.965C195.79 111.944 196.946 111.8 197.42 112.341C198.342 113.396 195.017 116.242 194.267 116.994C194.923 118.086 195.594 119.19 196.098 120.359ZM195.038 121.622C195.032 121.59 195.025 121.554 195.011 121.507C194.954 121.317 194.892 121.129 194.813 120.947C194.6 120.452 194.361 119.97 194.105 119.496C193.655 118.666 193.18 117.852 192.695 117.042C192.653 116.972 192.847 116.841 193.103 116.734C193.732 116.072 194.391 115.438 194.992 114.749C195.066 114.664 196.373 112.956 196.153 112.901C194.664 112.521 192.773 112.97 191.267 113.142C190.721 113.204 190.623 112.937 190.773 112.683C190.457 111.881 190.168 111.068 189.813 110.281C189.602 109.813 189.389 109.328 189.094 108.905C189.06 108.855 189.022 108.803 188.986 108.752C188.29 110.032 187.889 111.528 187.441 112.889C187.407 112.994 187.25 113.081 187.056 113.143C186.845 113.253 186.582 113.348 186.437 113.354C185.564 113.389 184.69 113.428 183.819 113.503C183.326 113.546 182.83 113.586 182.342 113.674C182.031 113.731 181.913 113.647 182.055 113.983C182.664 115.423 184.58 116.419 185.771 117.337C185.82 117.375 185.793 117.431 185.724 117.494C185.794 117.51 185.831 117.538 185.814 117.58C185.389 118.631 184.96 119.687 184.615 120.769C184.453 121.276 184.189 121.898 184.219 122.441C184.238 122.793 184.291 122.741 184.589 122.625C185.56 122.249 186.483 121.734 187.38 121.209C187.781 120.975 188.755 120.541 188.959 120.242C189.044 120.117 189.273 120.034 189.52 119.985C189.799 119.877 190.122 119.804 190.258 119.852C191.74 120.372 193.423 121.42 195.038 121.622ZM165.338 74.5326C166.44 73.8808 167.951 73.8418 169.291 73.8142C169.549 73.0297 169.815 72.2438 170.146 71.4878C170.447 70.8046 170.692 70.3263 171.449 70.1185C172.282 69.8903 172.681 70.3239 173.045 71.0285C173.425 71.7645 173.708 72.54 174.008 73.3093C174.729 73.2323 175.45 73.1638 176.175 73.1391C176.696 73.121 177.614 73.0107 178.005 73.4576C178.727 74.283 176.35 76.3427 175.674 77.0036C176.16 77.8119 176.655 78.6301 177.028 79.495C177.353 80.2495 177.368 80.6451 176.492 80.8857C175.004 81.2941 173.399 80.3926 171.989 79.8126C171.623 80.028 171.216 80.2096 170.935 80.3675C170.042 80.8676 169.087 81.4263 168.081 81.6645C167.479 81.8071 166.609 82.0111 166.775 81.1225C166.996 79.9353 167.504 78.7913 167.955 77.6768L167.955 77.6754C167.456 77.2984 164.222 75.193 165.338 74.5326ZM168.069 81.239C167.965 81.2689 167.99 81.2385 168.069 81.239V81.239ZM166.507 74.593C166.492 74.5959 166.485 74.5973 166.472 74.6002C166.474 74.6387 166.48 74.6767 166.496 74.7138C166.95 75.7874 168.384 76.531 169.272 77.2161C169.314 77.2484 169.301 77.296 169.251 77.3488C169.3 77.3659 169.326 77.3906 169.312 77.4253C168.993 78.2141 168.672 79.0062 168.413 79.8173C168.294 80.1934 168.097 80.6541 168.119 81.0559C168.121 81.092 168.116 81.1662 168.138 81.2152C168.148 81.2114 168.154 81.2095 168.166 81.2052C168.868 80.9323 169.537 80.5557 170.186 80.1768C170.463 80.0151 171.238 79.6215 171.331 79.485C171.414 79.3638 171.633 79.2815 171.871 79.2321C172.152 79.1232 172.48 79.0471 172.618 79.0951C173.242 79.3143 173.848 79.5796 174.465 79.8164C174.873 79.9733 175.35 80.1925 175.824 80.327C175.791 80.2262 175.76 80.1254 175.718 80.028C175.558 79.6571 175.38 79.2948 175.187 78.9396C174.85 78.3173 174.493 77.7068 174.13 77.0996C174.095 77.0412 174.223 76.9413 174.414 76.8476C174.425 76.8339 174.433 76.8215 174.446 76.8072C174.924 76.3028 175.427 75.8207 175.884 75.2962C176.124 75.0209 176.375 74.7395 176.554 74.4181C176.649 74.2459 176.654 74.0139 176.792 74.0496C175.704 73.7724 174.31 74.1095 173.211 74.2355C172.704 74.2935 172.584 74.0672 172.689 73.8318C172.451 73.2299 172.234 72.6194 171.968 72.0289C171.833 71.7308 171.69 71.4284 171.517 71.1479C171.099 72.026 170.828 73.005 170.531 73.906C170.494 74.0196 170.315 74.1109 170.1 74.1737C169.9 74.2721 169.668 74.352 169.534 74.3572C168.879 74.3843 168.224 74.4128 167.571 74.4694C167.217 74.5013 166.859 74.5293 166.507 74.593ZM166.371 74.6211C166.288 74.6415 166.319 74.6434 166.371 74.6211V74.6211ZM53.7128 113.338C53.2135 112.961 49.9794 110.856 51.0955 110.195C52.1978 109.543 53.7085 109.504 55.0479 109.477C55.3063 108.692 55.5719 107.906 55.9037 107.15C56.204 106.467 56.4496 105.989 57.2064 105.781C58.0393 105.553 58.4386 105.987 58.8023 106.691C59.1821 107.427 59.4653 108.203 59.7656 108.972C60.4862 108.895 61.2078 108.826 61.9327 108.802C62.4529 108.784 63.3715 108.673 63.7627 109.12C64.4848 109.946 62.1073 112.005 61.431 112.666C61.9174 113.474 62.412 114.293 62.7851 115.158C63.1107 115.912 63.1254 116.308 62.2497 116.548C60.7608 116.957 59.1564 116.055 57.7466 115.476C57.3806 115.691 56.9731 115.873 56.6923 116.03C55.7994 116.53 54.8446 117.089 53.8385 117.327C53.2364 117.47 52.3663 117.674 52.5319 116.785C52.7533 115.598 53.2611 114.454 53.7119 113.339L53.7128 113.338ZM53.8266 116.902C53.7233 116.932 53.7475 116.901 53.8266 116.902V116.902ZM52.1288 110.284C52.046 110.304 52.0764 110.306 52.1288 110.284V110.284ZM55.0303 112.879C55.0722 112.911 55.0583 112.959 55.0084 113.011C55.0579 113.029 55.0841 113.053 55.0702 113.088C54.7509 113.877 54.4296 114.669 54.1712 115.48C54.0517 115.856 53.8546 116.317 53.8765 116.719C53.8784 116.755 53.8742 116.829 53.8956 116.878C53.9056 116.874 53.9122 116.872 53.9237 116.868C54.6262 116.595 55.2944 116.218 55.9441 115.839C56.2211 115.678 56.996 115.284 57.0893 115.148C57.1721 115.026 57.391 114.944 57.629 114.895C57.9098 114.786 58.2382 114.71 58.3753 114.758C58.9993 114.977 59.6057 115.243 60.2225 115.479C60.6309 115.636 61.1078 115.856 61.5814 115.99C61.549 115.889 61.5181 115.789 61.4762 115.691C61.3163 115.32 61.1373 114.958 60.9446 114.603C60.6076 113.98 60.2506 113.37 59.8875 112.763C59.8527 112.704 59.9812 112.604 60.1716 112.511C60.183 112.497 60.1906 112.484 60.204 112.47C60.6818 111.965 61.1849 111.483 61.6418 110.959C61.8817 110.684 62.133 110.402 62.3115 110.081C62.4072 109.909 62.4115 109.677 62.55 109.712C61.4619 109.435 60.0674 109.772 58.9684 109.898C58.4615 109.956 58.342 109.73 58.4467 109.494C58.2092 108.893 57.9917 108.282 57.7256 107.691C57.5909 107.393 57.4482 107.091 57.2749 106.811C56.857 107.689 56.5857 108.668 56.2892 109.569C56.2516 109.683 56.0731 109.774 55.858 109.837C55.6576 109.935 55.4253 110.015 55.2916 110.02C54.6371 110.047 53.9817 110.076 53.3287 110.132C52.9732 110.163 52.6152 110.191 52.264 110.255C52.2492 110.258 52.2421 110.259 52.2292 110.262C52.2311 110.3 52.2373 110.338 52.2526 110.375C52.7076 111.45 54.1421 112.194 55.0303 112.879ZM165.025 152.162C166.128 151.51 167.638 151.472 168.978 151.444C169.236 150.66 169.502 149.874 169.834 149.118C170.134 148.434 170.38 147.956 171.136 147.748C171.969 147.52 172.369 147.954 172.732 148.658C173.112 149.394 173.395 150.17 173.696 150.939C174.416 150.862 175.138 150.794 175.863 150.769C176.383 150.751 177.301 150.64 177.693 151.087C178.415 151.913 176.037 153.972 175.361 154.633C175.847 155.442 176.342 156.26 176.715 157.125C177.041 157.879 177.055 158.275 176.18 158.515C174.691 158.924 173.086 158.022 171.677 157.443C171.311 157.658 170.903 157.84 170.622 157.997C169.729 158.497 168.775 159.056 167.768 159.294C167.166 159.437 166.296 159.641 166.462 158.752C166.683 157.565 167.191 156.421 167.642 155.307L167.643 155.305C167.143 154.928 163.909 152.823 165.025 152.162ZM167.756 158.869C167.653 158.899 167.677 158.868 167.756 158.869V158.869ZM166.194 152.223C166.18 152.226 166.173 152.227 166.16 152.23C166.162 152.268 166.168 152.306 166.183 152.344C166.637 153.417 168.072 154.161 168.96 154.846C169.002 154.878 168.988 154.926 168.938 154.979C168.987 154.996 169.014 155.02 169 155.055C168.68 155.844 168.359 156.636 168.101 157.447C167.981 157.823 167.784 158.284 167.806 158.686C167.808 158.722 167.804 158.796 167.825 158.845C167.835 158.841 167.842 158.839 167.853 158.835C168.556 158.562 169.224 158.186 169.874 157.807C170.151 157.645 170.925 157.251 171.019 157.115C171.102 156.994 171.321 156.911 171.559 156.862C171.839 156.753 172.168 156.677 172.305 156.725C172.929 156.945 173.535 157.21 174.152 157.447C174.56 157.604 175.037 157.823 175.511 157.957C175.479 157.856 175.448 157.756 175.406 157.658C175.246 157.287 175.067 156.925 174.874 156.57C174.537 155.948 174.18 155.337 173.817 154.73C173.782 154.671 173.911 154.572 174.101 154.478C174.113 154.464 174.12 154.451 174.133 154.437C174.611 153.933 175.114 153.45 175.571 152.926C175.811 152.651 176.063 152.369 176.241 152.048C176.337 151.876 176.341 151.644 176.479 151.679C175.391 151.402 173.997 151.739 172.898 151.865C172.391 151.923 172.271 151.697 172.376 151.462C172.139 150.86 171.921 150.249 171.655 149.659C171.52 149.361 171.378 149.059 171.204 148.778C170.786 149.656 170.515 150.635 170.219 151.536C170.181 151.65 170.003 151.741 169.787 151.804C169.587 151.902 169.355 151.982 169.221 151.987C168.567 152.015 167.911 152.043 167.258 152.1C166.904 152.131 166.546 152.159 166.194 152.223ZM166.058 152.251C165.975 152.271 166.006 152.273 166.058 152.251V152.251Z" fill="#340679"/>
<path fill-rule="evenodd" clip-rule="evenodd" d="M49.7438 154.325C50.9529 153.729 52.2334 153.23 53.5103 152.732C54.7874 152.234 56.0609 151.737 57.2554 151.147C57.3747 151.088 57.5109 151.023 57.6601 150.951C59.3773 150.125 62.8284 148.464 62.2806 146.377C61.4939 143.38 56.4701 145.52 55.0022 146.353C51.7738 148.186 48.67 151.221 46.602 154.325H43.5368C43.0586 154.325 42.4776 153.7 42.2469 153.388C42.1116 153.139 41.9719 152.881 41.8278 152.614C40.855 150.815 39.6863 148.653 38.3526 146.834L36.9276 145.117C34.7348 142.835 32.1865 141.905 29.3922 144.81C27.2627 147.024 28.8834 149.241 31.5506 151.103L32.5188 151.738C33.7301 152.486 35.069 153.162 36.3402 153.741C36.3385 153.78 36.3367 153.819 36.3349 153.858C36.3278 154.014 36.3206 154.169 36.3184 154.325H23.455C23.2832 154.325 23.0895 154.402 22.9238 154.51C22.5221 154.552 22.0005 154.717 22.0005 154.956L22 190.414C22 190.694 22.3198 190.77 22.6516 190.723C22.7182 190.755 22.8125 190.776 22.9481 190.776H46.3245C46.4187 190.79 46.5211 190.79 46.6248 190.776H65.2049C65.2421 190.781 65.2801 190.785 65.3201 190.786C66.0858 190.794 66.2278 190.312 66.203 190.07V154.702C66.203 154.648 66.1907 154.602 66.173 154.56C66.1835 154.439 66.0912 154.347 65.8432 154.33C65.7409 154.31 65.6262 154.308 65.511 154.325H49.7438ZM41.7419 189.881V175.615L41.7415 168.617V156.628C40.8186 157.298 40.009 158.1 39.4649 159.141C38.9021 160.22 38.4815 161.363 38.0616 162.505C37.934 162.852 37.8064 163.198 37.6748 163.543C37.4426 164.151 36.0571 164.12 36.3483 163.356C36.4958 162.97 36.6365 162.576 36.7781 162.18C37.2631 160.822 37.757 159.439 38.5573 158.253C39.2755 157.188 40.1965 156.369 41.2255 155.668C41.1446 155.671 41.068 155.662 41.0009 155.637L40.8825 155.593C40.6163 155.493 40.2789 155.367 39.889 155.218H23.3789L23.3793 189.888L23.3961 189.886C23.4158 189.884 23.4354 189.882 23.455 189.881H41.7419ZM59.6562 145.861C57.8351 145.528 55.9399 146.752 54.5439 147.78C52.1603 149.535 49.8038 151.709 48.0922 154.171C49.5131 153.408 51.0903 152.833 52.6744 152.256C55.4621 151.24 58.2714 150.215 60.2887 148.147C61.1559 147.257 61.1088 146.126 59.6562 145.861ZM51.2436 163.635C50.936 162.793 50.7269 161.902 50.5198 161.02C49.9876 158.753 49.468 156.54 47.3207 155.332C47.3207 166.848 47.3207 178.365 47.3212 189.882H64.8127V155.218H49.3045C50.837 156.577 51.3182 158.491 51.8298 160.526C52.0566 161.428 52.2894 162.354 52.6224 163.266C52.8437 163.871 51.4711 164.257 51.2436 163.635ZM43.1208 155.806C43.1865 155.761 43.2422 155.711 43.285 155.656C43.2888 155.654 43.2926 155.652 43.2964 155.649C43.2978 155.648 43.2991 155.648 43.3004 155.647L43.3078 155.643C43.5344 155.517 43.6386 155.365 43.6601 155.218H45.9485C45.9385 155.249 45.9328 155.282 45.9328 155.316V189.882H43.1208V189.471V155.806ZM29.9928 146.069C29.5787 148 31.366 149.574 33.1489 150.702L34.0775 151.257C34.5011 151.497 34.9028 151.71 35.2451 151.891C35.6225 152.091 36.0053 152.278 36.3883 152.466L36.4216 152.482L37.7477 153.107C38.6996 153.538 39.6625 153.943 40.6358 154.325H41.1527C40.7766 153.659 40.4179 152.983 40.0591 152.306C39.4548 151.167 38.8503 150.028 38.1622 148.936L36.9633 147.17C36.2141 146.138 35.3536 145.116 34.2774 144.499C32.7705 143.633 30.4155 144.099 29.9928 146.069Z" fill="#340679"/>
<path fill-rule="evenodd" clip-rule="evenodd" d="M207.061 201.345C208.011 200.877 209.018 200.485 210.022 200.094C211.025 199.702 212.026 199.312 212.965 198.848C213.059 198.802 213.166 198.751 213.283 198.694C214.633 198.045 217.346 196.74 216.915 195.1C216.297 192.744 212.348 194.426 211.194 195.081C208.657 196.521 206.217 198.906 204.592 201.345H202.183C201.807 201.345 201.35 200.854 201.169 200.609C201.062 200.414 200.952 200.211 200.839 200.001C200.075 198.587 199.156 196.888 198.108 195.459L196.988 194.109C195.264 192.316 193.261 191.585 191.065 193.868C189.391 195.608 190.665 197.35 192.762 198.814L193.522 199.312C194.475 199.9 195.527 200.432 196.526 200.887C196.525 200.918 196.523 200.948 196.522 200.979C196.516 201.101 196.511 201.223 196.509 201.345H186.398C186.263 201.345 186.111 201.406 185.981 201.491C185.665 201.524 185.255 201.654 185.255 201.842L185.255 229.707C185.255 229.928 185.506 229.987 185.767 229.95C185.819 229.975 185.893 229.991 186 229.991H204.374C204.448 230.003 204.528 230.003 204.61 229.991H219.213C219.243 229.996 219.273 229.999 219.304 229.999C219.906 230.006 220.017 229.627 219.998 229.437V201.642C219.998 201.6 219.988 201.564 219.974 201.53C219.983 201.436 219.91 201.363 219.715 201.35C219.635 201.334 219.545 201.333 219.454 201.345H207.061ZM200.772 229.289V218.077L200.771 212.577V203.155C200.046 203.682 199.41 204.312 198.982 205.131C198.54 205.978 198.209 206.877 197.879 207.774C197.779 208.047 197.678 208.319 197.575 208.59C197.393 209.068 196.304 209.043 196.532 208.443C196.648 208.14 196.759 207.83 196.87 207.519C197.251 206.452 197.64 205.365 198.269 204.433C198.833 203.596 199.557 202.952 200.366 202.401C200.302 202.404 200.242 202.397 200.189 202.377L200.096 202.342C199.887 202.264 199.622 202.165 199.315 202.048H186.339L186.339 229.294L186.352 229.293C186.368 229.291 186.383 229.289 186.398 229.289H200.772ZM214.852 194.694C213.421 194.432 211.931 195.394 210.834 196.202C208.96 197.582 207.108 199.29 205.763 201.225C206.88 200.625 208.119 200.174 209.365 199.72C211.556 198.921 213.764 198.116 215.349 196.49C216.031 195.792 215.994 194.903 214.852 194.694ZM208.24 208.662C207.998 208 207.834 207.301 207.671 206.607C207.253 204.826 206.844 203.087 205.157 202.137C205.157 211.187 205.157 220.238 205.157 229.289H218.905V202.048H206.716C207.92 203.116 208.299 204.62 208.701 206.219C208.879 206.928 209.062 207.656 209.324 208.372C209.498 208.848 208.419 209.151 208.24 208.662ZM201.856 202.509C201.907 202.475 201.951 202.435 201.985 202.392C201.988 202.39 201.991 202.388 201.994 202.386C201.995 202.386 201.996 202.385 201.997 202.385L202.003 202.381C202.181 202.283 202.263 202.163 202.279 202.048H204.078C204.07 202.072 204.066 202.098 204.066 202.125V229.289H201.856V228.966V202.509ZM191.537 194.857C191.212 196.375 192.616 197.612 194.018 198.499L194.748 198.935C195.081 199.123 195.396 199.29 195.665 199.433C195.962 199.59 196.263 199.737 196.564 199.885L196.59 199.898L197.632 200.388C198.381 200.727 199.137 201.045 199.902 201.345H200.309C200.013 200.822 199.731 200.291 199.449 199.759C198.974 198.864 198.499 197.969 197.958 197.111L197.016 195.723C196.427 194.912 195.751 194.109 194.905 193.624C193.72 192.944 191.869 193.31 191.537 194.857Z" fill="#340679"/>
</g>
</g>
<defs>
<clipPath id="clip0_2505_78224">
<rect width="240" height="240" fill="white" transform="translate(0.5)"/>
</clipPath>
</defs>
</svg>
