<svg width="32" height="32" viewBox="0 0 32 32" fill="none" xmlns="http://www.w3.org/2000/svg">
<path fill-rule="evenodd" clip-rule="evenodd" d="M15.9993 5.33335C10.1083 5.33335 5.33268 10.109 5.33268 16C5.33268 21.8911 10.1083 26.6667 15.9993 26.6667C21.8904 26.6667 26.666 21.8911 26.666 16C26.666 10.109 21.8904 5.33335 15.9993 5.33335ZM2.66602 16C2.66602 8.63622 8.63555 2.66669 15.9993 2.66669C23.3631 2.66669 29.3327 8.63622 29.3327 16C29.3327 23.3638 23.3631 29.3334 15.9993 29.3334C8.63555 29.3334 2.66602 23.3638 2.66602 16Z" fill="#D9DDE3"/>
<path d="M19.9993 16C19.9993 18.2092 18.2085 20 15.9993 20C13.7902 20 11.9993 18.2092 11.9993 16C11.9993 13.7909 13.7902 12 15.9993 12C18.2085 12 19.9993 13.7909 19.9993 16Z" fill="#D9DDE3"/>
</svg>
