<svg width="32" height="32" viewBox="0 0 32 32" fill="none" xmlns="http://www.w3.org/2000/svg">
<path d="M22.5 18.8363V7C22.5 5.27609 21.8152 3.62279 20.5962 2.40381C19.3772 1.18482 17.7239 0.5 16 0.5C14.2761 0.5 12.6228 1.18482 11.4038 2.40381C10.1848 3.62279 9.5 5.27609 9.5 7V18.8363C8.64227 20.0317 8.13084 21.4406 8.02194 22.9079C7.91305 24.3752 8.21092 25.8441 8.88279 27.1531C9.55466 28.462 10.5745 29.5604 11.8302 30.3273C13.0858 31.0942 14.5287 31.4999 16 31.4999C17.4713 31.4999 18.9142 31.0942 20.1698 30.3273C21.4255 29.5604 22.4453 28.462 23.1172 27.1531C23.7891 25.8441 24.087 24.3752 23.9781 22.9079C23.8692 21.4406 23.3577 20.0317 22.5 18.8363ZM16 28.5C15.0527 28.5 14.1248 28.2309 13.3245 27.724C12.5241 27.2171 11.8843 26.4933 11.4794 25.6368C11.0746 24.7803 10.9214 23.8265 11.0377 22.8863C11.1539 21.9461 11.5349 21.0583 12.1363 20.3263C12.3708 20.0541 12.4999 19.7068 12.5 19.3475V7C12.5 6.07174 12.8688 5.1815 13.5251 4.52513C14.1815 3.86875 15.0717 3.5 16 3.5C16.9283 3.5 17.8185 3.86875 18.4749 4.52513C19.1313 5.1815 19.5 6.07174 19.5 7V19.3463C19.4997 19.6969 19.6222 20.0366 19.8463 20.3062C20.4527 21.0368 20.8387 21.9249 20.9589 22.8667C21.0792 23.8085 20.9288 24.7651 20.5253 25.6246C20.1219 26.4841 19.482 27.211 18.6807 27.7202C17.8793 28.2294 16.9495 28.4998 16 28.5ZM19 23.5C19.0001 24.0266 18.8616 24.544 18.5983 25.0001C18.3351 25.4563 17.9564 25.8351 17.5004 26.0984C17.0443 26.3618 16.527 26.5005 16.0004 26.5006C15.4737 26.5006 14.9564 26.3621 14.5003 26.0988C14.0441 25.8355 13.6654 25.4568 13.402 25.0008C13.1387 24.5447 13 24.0274 13 23.5007C13 22.9741 13.1386 22.4567 13.4019 22.0006C13.6652 21.5446 14.0439 21.1658 14.5 20.9025V11.5C14.5 11.1022 14.658 10.7206 14.9393 10.4393C15.2206 10.158 15.6022 10 16 10C16.3978 10 16.7794 10.158 17.0607 10.4393C17.342 10.7206 17.5 11.1022 17.5 11.5V20.9025C17.956 21.1658 18.3346 21.5444 18.5979 22.0003C18.8612 22.4563 18.9999 22.9735 19 23.5Z" fill="#D9DDE3"/>
</svg>
