<svg width="241" height="240" viewBox="0 0 241 240" fill="none" xmlns="http://www.w3.org/2000/svg">
<g clip-path="url(#clip0_702_721)">
<path d="M56.722 224.887C23.4877 181.611 9.39927 109.69 15.6976 51.5689C17.8708 36.1539 38.0074 27.0486 45.7305 24.3499C67.1691 16.8522 88.4992 18.8167 155.955 45.4296C223.41 72.0425 227.029 107.367 220.407 121.703C217.655 131.725 199.456 162.789 148.679 206.873C97.9011 250.958 66.2169 237.251 56.722 224.887Z" fill="#F4EDFB"/>
<path fill-rule="evenodd" clip-rule="evenodd" d="M101.439 126.318C102.373 125.662 103.17 124.635 103.008 123.43C102.826 122.063 101.176 122.029 100.14 122.163C99.5976 122.234 98.966 122.785 99.8975 122.665C100.802 122.549 101.579 122.976 101.704 123.91C101.827 124.842 101.14 125.766 100.423 126.27C99.8755 126.653 101.201 126.484 101.439 126.318ZM98.2487 129.197C97.341 130.689 97.4797 135.544 100.274 134.026C102.349 132.899 101.318 127.565 98.5914 128.895C98.4171 128.979 98.3167 129.076 98.2683 129.172C98.2619 129.181 98.2541 129.187 98.2487 129.197ZM99.5803 130.069C99.8139 130.462 99.8956 130.972 99.9591 131.418C100.019 131.84 100.003 132.269 99.939 132.688C99.9143 132.857 99.8641 133.013 99.793 133.168C99.7558 133.248 99.6718 133.292 99.6169 133.32C99.5856 133.336 99.5639 133.347 99.5657 133.358C99.1117 133.129 99.1075 131.851 99.1062 131.464L99.1062 131.44C99.1039 130.899 99.1322 130.253 99.327 129.71C99.4198 129.792 99.4929 129.918 99.5547 130.025L99.5803 130.069ZM90.4574 118.161C90.2128 118.16 90.1708 118.027 90.389 117.904C91.6814 117.168 93.2051 117.085 94.5956 117.574C94.8028 117.647 94.2164 117.914 94.1936 117.923C93.9412 118.011 93.6103 118.106 93.3461 118.012C92.7702 117.809 91.9565 117.59 91.3934 117.911C91.1187 118.067 90.7732 118.164 90.4574 118.161ZM154.628 132.313C154.857 131.278 154.824 129.824 154.314 128.839C154.325 128.759 154.287 128.683 154.185 128.617C154.108 128.534 153.996 128.487 153.868 128.477C151.328 127.616 150.065 132.675 152.12 133.791C153.357 134.463 154.371 133.474 154.628 132.313ZM153.072 129.351C153.354 129.903 153.383 130.66 153.393 131.251C153.4 131.646 153.364 132.04 153.292 132.428C153.262 132.595 153.211 132.752 153.145 132.909C153.116 132.977 153.089 133.019 153.068 133.047C152.451 132.857 152.492 131.651 152.515 131.203C152.538 130.774 152.62 130.336 152.764 129.93C152.826 129.753 152.913 129.59 153.008 129.43C153.022 129.41 153.037 129.392 153.053 129.374L153.072 129.351ZM103.092 118.693C104.991 124.095 107.133 130.188 103.616 134.55C102.431 136.021 100.932 136.4 99.3661 136.796C98.7467 136.953 98.1168 137.112 97.492 137.342C95.4568 138.096 94.2978 140.421 93.3967 142.228L93.3822 142.257C93.2631 142.319 93.1631 142.406 93.107 142.517C91.7261 145.239 88.6033 143.37 86.8075 142.125L86.6845 142.039C85.6686 141.337 83.0503 139.526 83.0691 138.255C83.6564 137.105 83.9543 135.764 84.2368 134.493C84.2811 134.293 84.3251 134.095 84.3697 133.9L84.3986 133.774C84.7552 132.213 85.128 130.581 85.1715 128.978C85.1747 128.867 85.1396 128.78 85.0816 128.714C85.2697 128.466 85.418 128.172 85.5115 127.829C85.6708 127.244 84.3227 127.418 84.1772 127.952C83.6957 129.719 81.3848 128.619 80.8198 127.458C80.4173 126.633 80.5483 125.441 81.2912 124.861C81.5632 124.65 81.8835 124.554 82.2194 124.527C82.3038 124.525 82.3878 124.524 82.4722 124.524C83.0052 124.536 83.5552 124.701 83.9992 124.886C84.2137 124.975 84.5231 124.896 84.7503 124.751C84.8092 124.761 84.8443 124.77 84.8443 124.77C84.8443 124.77 84.8754 124.735 84.9247 124.677C85.0648 124.646 85.1866 124.605 85.2551 124.554C86.3325 123.739 87.4811 122.812 87.7846 121.429C88.0074 120.412 87.6248 119.269 87.2773 118.231C87.1814 117.945 87.0882 117.666 87.0111 117.4C88.9058 115.907 91.0794 114.829 93.2973 113.901L93.47 113.829C95.6058 112.932 98.9979 111.508 100.993 113.058C101.079 113.124 101.237 113.126 101.415 113.093C101.404 113.139 101.401 113.187 101.41 113.236C101.755 114.89 102.408 116.747 103.092 118.693ZM65.2601 131.752C62.9373 135.571 61.1489 139.489 59.8319 143.668C59.1753 143.242 58.4774 142.812 57.7619 142.372C54.4897 140.357 50.8486 138.114 49.1099 134.964L49.1551 134.914C49.2269 134.834 49.2988 134.754 49.3682 134.67C49.5786 134.413 49.1903 134.245 48.9972 134.236C48.9146 134.231 48.8325 134.237 48.7526 134.251C48.0955 132.76 47.8637 131.071 48.273 129.122C48.8846 126.213 50.4728 123.496 52.0152 120.857C52.5998 119.856 53.1778 118.868 53.6935 117.884C55.5577 114.33 56.9642 110.731 57.0929 106.687C57.1189 106.626 57.1225 106.562 57.1011 106.496V106.492L57.1008 106.489L57.1003 106.487L57.0994 106.484C57.0994 106.484 57.0981 106.481 57.0979 106.479C57.0869 106.449 57.0714 106.421 57.049 106.392L57.0453 106.388L57.0404 106.382C55.9985 105.025 55.1009 103.425 55.0799 101.671C55.0658 100.483 55.7252 99.5339 56.6475 98.8485C56.8035 98.7326 58.2666 97.7254 57.8992 98.4752C57.777 98.7254 57.6322 98.9642 57.4874 99.2028C57.4494 99.2654 57.4115 99.3279 57.374 99.3906C56.83 99.9346 56.3412 100.54 55.9784 101.148C55.6239 101.742 56.9669 101.679 57.227 101.242C57.5387 100.719 57.9608 100.246 58.403 99.8068C58.4121 99.7977 58.4211 99.7884 58.43 99.7791C58.4412 99.7674 58.4525 99.7557 58.4642 99.7443C58.628 99.5823 58.7955 99.4244 58.9602 99.272C59.2058 99.0438 59.4736 98.8129 59.7648 98.6354C59.7843 98.7722 59.7608 98.9231 59.74 99.056C59.736 99.0814 59.7322 99.1062 59.7287 99.1301C59.7018 99.3144 59.8095 99.423 59.9724 99.4696C59.7497 99.6654 59.5416 99.8803 59.3417 100.088C59.1789 100.257 59.0069 100.467 58.8293 100.685C58.471 101.123 58.0897 101.589 57.7144 101.802C57.5647 101.887 57.2868 102.138 57.5798 102.249C57.8645 102.357 58.2584 102.25 58.5112 102.106C59.1322 101.754 59.6218 101.174 60.1037 100.603C60.3821 100.273 60.6578 99.9466 60.9549 99.6686C61.0252 99.6017 61.0993 99.5412 61.1735 99.4805L61.1836 99.4723C61.31 99.5714 61.3944 99.7452 61.4409 99.8771C61.5632 100.227 61.4879 100.583 61.3091 100.887C60.5857 101.411 59.8571 102.146 59.2747 102.734C58.8885 103.124 58.5667 103.448 58.3533 103.604C57.7746 104.023 59.1067 103.942 59.3906 103.736C59.894 103.371 60.3446 102.928 60.7929 102.487C61.0351 102.248 61.2765 102.011 61.5254 101.786L61.5281 101.784L61.5302 101.783L61.5321 101.781L61.535 101.779C61.8416 101.602 62.1122 101.388 62.3267 101.135L62.3365 101.127L62.3463 101.12L62.3831 101.097L62.4029 101.085L62.423 101.072C62.5966 101.39 62.0194 102.049 61.7195 102.391C61.6685 102.449 61.6255 102.498 61.5956 102.535C60.0541 104.424 58.8913 106.046 60.6259 108.276C60.8632 108.58 62.1337 108.138 61.8622 107.791C61.1325 106.853 60.9476 106.002 61.1402 105.17C62.4178 104.765 63.696 104.358 64.9737 103.952L64.9754 103.951L65.5618 103.765C65.4281 105.845 64.8718 107.604 63.8701 109.491C62.9209 111.277 62.5992 112.97 62.3614 114.968C61.8681 119.104 60.5946 123.192 59.3502 127.187C59.1832 127.723 59.0166 128.258 58.8525 128.79C58.7937 128.874 58.7809 128.96 58.8201 129.042L58.8215 129.045C58.8256 129.053 58.8299 129.062 58.8356 129.071C58.863 129.112 58.9014 129.153 58.9653 129.19C59.0859 129.259 59.2058 129.329 59.3252 129.398C61.1594 130.462 62.8672 131.452 65.0224 131.762C65.1 131.773 65.1807 131.769 65.2601 131.752ZM121.139 128.726C121.141 128.727 121.143 128.728 121.145 128.729C119.929 131.127 118.231 133.431 116.559 135.699C115.883 136.616 115.211 137.527 114.577 138.437L114.422 138.166C113.731 136.958 113.039 135.75 112.312 134.567C111.488 133.228 110.617 131.922 109.646 130.69C108.927 129.777 108.153 128.904 107.302 128.088C108.911 126.217 110.399 124.251 111.888 122.285C112.37 121.648 112.853 121.011 113.339 120.378C113.641 120.241 113.842 120 113.631 119.774C111.61 117.594 111.131 115.128 110.698 112.292C110.291 109.632 109.421 107.199 107.866 105C106.64 103.265 105.053 101.826 103.468 100.388C101.235 98.364 99.0087 96.3448 97.8083 93.5161L100.277 92.7313L105.361 91.1148C104.367 92.5276 103.894 94.0901 103.996 95.8959C104.027 96.4504 105.352 96.1465 105.318 95.5413C105.214 93.7 105.828 92.1037 107.03 90.7186C107.137 90.5936 107.17 90.4896 107.156 90.4047C107.161 90.3977 107.165 90.391 107.169 90.384L107.171 90.3805C107.327 90.2559 107.389 90.1044 107.244 89.9689C106.91 89.6561 106.463 89.3765 106.008 89.0925C104.967 88.4417 103.889 87.7675 104.046 86.6165C105.968 87.1477 108.351 87.8797 109.015 89.811C109.163 97.5539 113.402 104.077 117.541 110.446C118.786 112.362 120.022 114.263 121.135 116.18C123.779 120.734 123.112 124.802 121.198 128.626C121.138 128.672 121.11 128.71 121.139 128.726ZM165.751 141.891C163.808 143.313 160.776 144.8 159.359 142.005C159.312 141.911 159.236 141.849 159.145 141.81L159.076 141.673C158.186 139.879 157.105 137.704 155.118 136.97C154.489 136.737 153.884 136.565 153.299 136.399C151.735 135.956 150.31 135.552 148.948 134.127C146.37 131.43 147.048 126.796 147.823 123.538C148.233 121.813 148.804 120.139 149.375 118.465C149.941 116.806 150.506 115.148 150.916 113.439C154.93 115.436 160.026 115.229 164.311 114.529C164.43 114.509 164.553 114.465 164.664 114.412C163.713 118.101 163.979 121.899 167.151 124.414C167.257 124.498 167.446 124.506 167.646 124.472C167.83 124.586 168.119 124.629 168.393 124.514C170.33 123.704 172.594 124.991 171.713 127.277C171.139 128.764 168.783 129.127 168.315 127.41C168.162 126.845 166.839 127.202 166.993 127.764C167.082 128.089 167.217 128.355 167.38 128.581C167.344 128.64 167.326 128.707 167.328 128.78C167.407 131.709 168.074 135.461 169.424 138.109C169.362 139.322 167.218 140.847 166.105 141.638C165.97 141.734 165.85 141.819 165.751 141.891ZM165.005 114.046C164.982 114.022 164.934 114.006 164.86 114.001L165.037 113.886C165.037 113.886 165.024 113.946 165.005 114.046ZM146.805 133.312C147.258 134.123 147.842 134.824 148.519 135.413C146.242 137.569 144.479 140.01 142.844 142.593C141.789 141.024 140.549 139.431 139.283 137.804C134.353 131.474 129.026 124.635 132.743 116.698C133.774 114.497 134.956 112.29 136.15 110.06C139.669 103.491 143.293 96.7233 143.478 89.3108C143.479 89.305 143.48 89.2994 143.482 89.2939C143.485 89.2837 143.487 89.2737 143.487 89.2633C143.547 87.5904 144.609 86.9506 145.913 86.6188C146.162 86.7548 146.747 86.6507 147.013 86.4011C147.195 86.3724 147.377 86.3453 147.558 86.3184C147.826 86.2784 148.091 86.2389 148.349 86.1953C148.508 87.0617 147.701 87.627 146.864 88.2139C145.749 88.9947 144.58 89.8136 145.559 91.4301C145.653 91.5839 145.875 91.6249 146.108 91.5921C146.099 91.7098 146.176 91.8203 146.392 91.8905C147.142 92.1344 147.893 92.3733 148.645 92.6122L148.646 92.6125C149.147 92.7719 149.648 92.9313 150.149 93.0921C150.041 93.1204 149.935 93.1743 149.848 93.2605C149.608 93.4948 149.354 93.7141 149.102 93.9325C148.428 94.5152 147.761 95.0919 147.375 95.932C147.049 96.6402 148.386 96.6849 148.648 96.1145C148.955 95.4453 149.513 94.9772 150.068 94.5107C150.298 94.3175 150.527 94.1245 150.739 93.9176C150.969 93.6931 150.981 93.4827 150.881 93.3258C151.212 93.4317 151.542 93.5378 151.873 93.6439L151.877 93.6453L151.879 93.6459C152.717 93.915 153.556 94.1841 154.395 94.4497C154.29 94.4931 154.201 94.5538 154.14 94.6341C152.968 96.1832 151.624 97.5565 150.276 98.9342C149.681 99.5415 149.086 100.15 148.505 100.774C146.648 102.769 145.314 105.089 144.302 107.609C143.421 109.801 142.95 112.164 142.488 114.477L142.41 114.866C142.307 115.381 142.224 115.938 142.138 116.512C141.894 118.142 141.631 119.906 140.835 121.206C140.717 121.397 140.773 121.526 140.913 121.597C141.622 122.551 142.234 123.561 142.846 124.569C143.669 125.926 144.491 127.28 145.545 128.496C145.564 128.518 145.595 128.533 145.63 128.544C145.639 130.213 145.97 131.822 146.805 133.312ZM98.0018 116.788C98.3089 116.822 98.6895 116.725 98.9368 116.537C99.7638 115.913 100.164 115.025 100.561 114.097C100.692 113.787 99.4083 113.928 99.2485 114.301L99.1867 114.447C98.8761 115.18 98.5581 115.93 97.9055 116.424C97.6969 116.582 97.7376 116.76 98.0018 116.788ZM102.048 120.64C102.234 121.216 100.914 121.581 100.726 120.995C100.545 120.428 100.491 119.866 100.49 119.275C100.49 118.706 101.827 118.49 101.827 119.165C101.828 119.676 101.891 120.152 102.048 120.64ZM93.5469 121.513C93.5465 120.838 92.2089 121.053 92.2094 121.624C92.2103 122.214 92.2637 122.777 92.4453 123.343C92.6333 123.929 93.9526 123.565 93.7673 122.988C93.6113 122.5 93.5474 122.025 93.5469 121.513ZM151.973 125.623C152.049 125.67 152.122 125.716 152.191 125.762C152.387 125.893 151.261 126.427 150.946 126.217C150.893 126.181 150.832 126.143 150.766 126.101C150.284 125.799 149.547 125.335 149.896 124.74C150.331 124 150.944 123.337 151.552 122.679C151.949 122.25 152.343 121.824 152.684 121.38C152.859 121.153 153.187 121.061 153.458 121.013C153.491 121.007 154.139 120.954 153.989 121.151C153.629 121.619 153.223 122.066 152.817 122.513C152.28 123.104 151.742 123.696 151.307 124.342C150.9 124.95 151.472 125.308 151.973 125.623ZM150.672 118.971C150.671 119.472 150.637 119.965 150.482 120.447C150.253 121.163 151.571 121.114 151.742 120.579C151.925 120.006 152.008 119.46 152.009 118.86C152.009 118.185 150.672 118.401 150.672 118.971ZM151.4 116.234C151.165 116.427 150.763 116.517 150.465 116.484C150.192 116.455 150.171 116.283 150.368 116.121C151.205 115.434 153.905 114.753 153.998 116.521C154.02 116.947 152.692 117.191 152.676 116.875C152.64 116.187 151.946 115.785 151.4 116.234ZM160.289 121.209C160.289 120.534 158.952 120.749 158.952 121.32C158.951 121.822 158.917 122.314 158.762 122.794C158.533 123.511 159.851 123.462 160.022 122.927C160.206 122.355 160.288 121.809 160.289 121.209ZM162.362 119.183C162.39 119.608 161.061 119.859 161.04 119.538C160.995 118.869 159.869 118.069 159.272 118.544C159.032 118.735 158.638 118.827 158.337 118.796C158.067 118.765 158.039 118.592 158.24 118.432C158.944 117.871 159.937 117.693 160.809 117.866C161.478 117.999 162.311 118.414 162.362 119.183Z" fill="#FEFDFF"/>
<path d="M103.009 123.43C103.17 124.635 102.373 125.662 101.439 126.318C101.202 126.484 99.8758 126.653 100.423 126.27C101.14 125.766 101.827 124.842 101.704 123.91C101.579 122.976 100.802 122.549 99.8977 122.665C98.9663 122.785 99.5979 122.234 100.14 122.163C101.176 122.029 102.826 122.063 103.009 123.43ZM100.726 120.995C100.914 121.581 102.234 121.216 102.049 120.64C101.892 120.152 101.828 119.676 101.828 119.165C101.827 118.49 100.49 118.706 100.491 119.275C100.491 119.866 100.545 120.428 100.726 120.995ZM93.5472 121.513C93.5467 120.838 92.2092 121.053 92.2096 121.624C92.2105 122.214 92.2639 122.777 92.4456 123.343C92.6336 123.929 93.9529 123.565 93.7676 122.988C93.6115 122.5 93.5476 122.025 93.5472 121.513ZM100.274 134.026C97.48 135.544 97.3413 130.689 98.2489 129.197C98.2544 129.187 98.2622 129.181 98.2686 129.172C98.3169 129.076 98.4173 128.979 98.5917 128.895C101.318 127.565 102.349 132.899 100.274 134.026ZM99.9593 131.418C99.8959 130.972 99.8142 130.462 99.5806 130.069C99.5135 129.955 99.4332 129.803 99.3273 129.71C99.1324 130.253 99.1041 130.899 99.1064 131.44C99.1078 131.797 99.1023 133.124 99.566 133.358C99.5609 133.329 99.7348 133.294 99.7932 133.168C99.8644 133.013 99.9146 132.857 99.9393 132.688C100.004 132.269 100.019 131.84 99.9593 131.418ZM90.3892 117.904C90.1711 118.027 90.2131 118.16 90.4577 118.161C90.7735 118.164 91.1189 118.067 91.3937 117.911C91.9568 117.59 92.7705 117.809 93.3464 118.012C93.6106 118.106 93.9415 118.011 94.1938 117.923C94.2166 117.914 94.8031 117.647 94.5959 117.574C93.2054 117.085 91.6816 117.168 90.3892 117.904ZM98.0021 116.788C98.3092 116.822 98.6898 116.725 98.9371 116.537C99.764 115.913 100.164 115.025 100.561 114.097C100.693 113.787 99.4085 113.928 99.2488 114.301C98.917 115.079 98.6017 115.897 97.9058 116.424C97.6972 116.582 97.7378 116.76 98.0021 116.788ZM152.191 125.762C151.665 125.41 150.839 125.041 151.308 124.342C152.07 123.207 153.153 122.239 153.989 121.151C154.139 120.955 153.491 121.007 153.458 121.013C153.187 121.061 152.859 121.153 152.685 121.38C151.821 122.504 150.615 123.517 149.897 124.74C149.499 125.417 150.508 125.924 150.946 126.217C151.261 126.427 152.387 125.893 152.191 125.762ZM150.672 118.971C150.672 119.472 150.637 119.965 150.483 120.447C150.253 121.163 151.571 121.114 151.742 120.579C151.926 120.006 152.009 119.46 152.009 118.86C152.01 118.185 150.672 118.401 150.672 118.971ZM160.289 121.209C160.29 120.534 158.952 120.749 158.952 121.32C158.952 121.822 158.917 122.314 158.763 122.794C158.533 123.511 159.851 123.462 160.022 122.927C160.206 122.355 160.289 121.809 160.289 121.209ZM154.314 128.839C154.824 129.824 154.857 131.278 154.629 132.313C154.372 133.474 153.358 134.463 152.12 133.791C150.066 132.675 151.328 127.616 153.869 128.477C153.997 128.487 154.108 128.534 154.185 128.617C154.288 128.683 154.326 128.759 154.314 128.839ZM153.393 131.251C153.384 130.66 153.354 129.903 153.072 129.351C153.051 129.377 153.028 129.402 153.008 129.43C152.913 129.59 152.826 129.753 152.764 129.93C152.621 130.336 152.538 130.774 152.516 131.203C152.492 131.651 152.451 132.857 153.068 133.047C153.089 133.019 153.116 132.977 153.145 132.909C153.212 132.753 153.262 132.595 153.292 132.428C153.365 132.04 153.401 131.646 153.393 131.251ZM150.465 116.484C150.763 116.517 151.165 116.427 151.4 116.234C151.947 115.785 152.64 116.187 152.676 116.875C152.693 117.191 154.021 116.947 153.998 116.521C153.905 114.753 151.205 115.434 150.368 116.121C150.171 116.283 150.192 116.455 150.465 116.484ZM161.04 119.538C161.061 119.859 162.391 119.608 162.362 119.183C162.311 118.414 161.478 117.999 160.809 117.866C159.938 117.693 158.944 117.871 158.24 118.432C158.039 118.592 158.067 118.765 158.337 118.796C158.639 118.827 159.032 118.735 159.272 118.544C159.869 118.069 160.995 118.869 161.04 119.538ZM233.497 179.091C233.576 179.45 232.248 179.779 232.174 179.445C230.45 171.601 231.353 163.672 231.63 155.737C231.754 152.193 231.796 148.325 230.366 145.003C228.872 141.529 226.106 139.615 223.133 137.488C223.072 137.445 223.101 137.379 223.183 137.309C223.076 137.185 223.127 137.003 223.493 136.82C226.623 135.26 228.929 131.83 226.469 128.591C224.542 126.051 220.797 124.381 217.607 125.236C212.509 126.601 207.242 134.734 214.802 136.731C214.93 136.765 214.999 136.812 215.029 136.865C215.215 136.881 215.313 136.942 215.189 137.066C213.242 139.018 211.376 141.115 210.385 143.674C210.447 143.779 210.509 143.881 210.566 143.988C210.622 144.091 210.418 144.238 210.153 144.341C210.032 144.723 209.93 145.115 209.851 145.518C209.152 149.109 209.167 152.941 209.301 156.593C209.576 164.113 211.425 171.496 211.16 179.044C211.144 179.492 209.827 179.695 209.838 179.399C210.123 171.268 207.896 163.328 207.965 155.21C207.994 151.854 207.749 148.233 208.72 144.974C208.819 144.644 208.935 144.327 209.055 144.013C207.523 141.413 204.98 139.783 202.571 138.052C202.504 138.003 202.556 137.925 202.67 137.843C202.51 137.811 202.487 137.727 202.812 137.566C205.085 136.435 207.604 134.168 206.856 131.306C206.589 130.283 206.117 129.416 205.492 128.67C205.685 129.726 205.692 130.796 205.402 131.857C203.525 138.731 195.19 142.096 189.774 145.662C189.665 145.734 189.496 145.776 189.325 145.79C189.559 146.521 189.77 147.265 189.951 148.035C190.03 148.369 189.584 148.627 189.186 148.66C189.089 149.592 189.013 150.525 188.969 151.462C188.962 151.62 188.76 151.741 188.518 151.819C189.457 153.341 190.588 154.738 191.519 156.289C191.613 156.446 191.57 156.573 191.448 156.703C190.835 157.35 190.048 157.924 189.159 158.398C189.843 165.244 190.846 172.066 190.616 178.964C190.602 179.391 189.285 179.582 189.294 179.318C189.521 172.5 188.544 165.755 187.86 158.989C185.692 159.834 183.191 160.113 181.18 159.536C181.173 166.318 184.285 172.835 187.163 179.011C187.436 179.597 186.125 179.975 185.841 179.365C185.813 179.307 185.787 179.249 185.759 179.192C182.093 171.323 178.3 163.096 180.515 154.342C180.077 154.641 179.635 154.934 179.185 155.213C178.786 155.46 177.616 155.335 178.377 154.865C181.003 153.24 183.37 151.234 185.969 149.582C186.029 149.364 186.36 149.192 186.682 149.153C187.088 148.91 187.502 148.68 187.923 148.46C187.937 148.338 187.946 148.216 187.96 148.094C187.977 147.96 188.207 147.838 188.469 147.765C187.062 142.352 184.273 137.944 181.287 133.239C181.279 133.227 181.277 133.215 181.27 133.202C181.261 133.185 181.252 133.167 181.246 133.149C181.244 133.144 181.242 133.141 181.241 133.138C181.238 133.126 181.239 133.115 181.237 133.105C181.236 133.102 181.236 133.099 181.236 133.096C181.233 133.075 181.242 133.056 181.244 133.036C181.245 133.03 181.244 133.026 181.246 133.02C181.255 132.943 181.284 132.868 181.345 132.803C181.396 132.702 181.449 132.601 181.501 132.5L181.358 132.26C180.082 132.935 178.709 133.495 177.339 134.072C174.953 135.077 172.585 136.141 170.774 137.97C170.796 140.006 166.841 142.522 165.411 143.342C163.007 144.72 159.683 145.612 158.155 142.598C158.129 142.548 158.116 142.498 158.108 142.45C158.003 142.412 157.917 142.347 157.869 142.248C157.159 140.828 156.26 138.851 154.783 138.021C153.988 137.574 153.157 137.488 152.283 137.29C151.137 137.031 150.068 136.56 149.14 135.899C148.275 136.771 147.48 137.683 146.743 138.633C146.319 139.176 145.911 139.731 145.517 140.296C144.368 141.943 143.321 143.671 142.266 145.434C144.441 147.452 146.575 149.519 148.65 151.642C149.196 150.472 149.819 149.323 150.233 148.158C150.352 147.824 151.623 147.681 151.536 147.923C150.52 150.78 148.284 153.69 148.858 156.88C149.388 159.826 150.893 162.083 152.716 164.396C152.882 164.606 153.038 164.823 153.192 165.04C153.485 165.039 153.744 165.171 153.734 165.478C153.73 165.6 153.728 165.72 153.725 165.841C156.203 169.818 156.794 174.655 155.645 179.235C155.635 179.275 155.606 179.314 155.564 179.349C155.303 179.568 154.526 179.682 154.368 179.547C154.006 179.785 153.396 179.801 153.303 179.394C152.316 175.097 152.259 170.742 152.374 166.36C151.666 165.26 150.871 164.207 150.071 163.048C148.429 160.676 147.237 158.077 147.541 155.13C147.623 154.346 147.844 153.585 148.134 152.837C145.874 150.492 143.534 148.222 141.149 146.003C140.927 146.012 140.766 145.979 140.81 145.907C140.839 145.859 140.866 145.813 140.895 145.764C140.876 145.747 140.859 145.731 140.84 145.714C140.762 145.642 140.897 145.52 141.106 145.415C141.515 144.732 141.926 144.054 142.34 143.384C142.089 143.441 141.853 143.44 141.767 143.309C139.355 139.62 135.255 135.33 132.575 130.73C131.73 133.324 132.839 135.725 135.686 136.674C136.194 136.6 136.782 136.85 136.344 137.289C133.774 139.865 131.494 142.615 130.922 146.333C130.659 148.046 130.526 149.799 130.475 151.555C130.604 152.546 130.674 153.541 130.697 154.507C130.738 156.126 130.719 157.743 130.673 159.359C131.196 165.973 132.608 172.507 132.374 179.173C132.352 179.791 131.007 179.973 131.032 179.265C131.162 175.565 130.771 171.902 130.313 168.245C130.199 171.855 130.216 175.464 130.699 179.082C130.785 179.719 129.459 180.049 129.377 179.437C128.481 172.736 129.096 166.05 129.312 159.335C129.209 157.919 129.147 156.501 129.159 155.077C129.168 154.017 129.152 152.935 129.157 151.85C128.954 150.273 128.58 148.73 127.91 147.302C126.418 144.128 123.721 142.319 120.955 140.345C120.491 140.014 121.026 139.558 121.525 139.494C123.67 138.299 125.836 136.114 125.124 133.432C124.644 131.625 123.535 130.303 122.063 129.296C120.146 132.766 117.296 136.009 115.106 139.35C115.279 139.65 115.454 139.95 115.629 140.247C115.771 140.258 115.841 140.299 115.751 140.384C115.742 140.394 115.733 140.402 115.724 140.41C115.754 140.461 115.784 140.513 115.814 140.564C115.881 140.678 115.506 140.888 115.134 140.985C111.927 144.143 109.159 147.862 106.534 151.589C106.867 151.527 107.196 151.529 107.191 151.6C106.589 160.782 108.666 169.817 108.895 178.972C108.904 179.313 107.576 179.506 107.573 179.326C107.35 170.38 105.367 161.547 105.838 152.581C105.222 153.463 104.611 154.342 104.004 155.212C103.97 163.227 103.714 171.245 101.94 179.101C101.825 179.608 100.483 179.805 100.611 179.239L100.611 179.237C102.75 169.76 102.681 160.053 102.678 150.393C102.678 149.891 104.007 149.637 104.008 150.255C104.008 151.358 104.009 152.464 104.008 153.569C107.142 149.07 110.417 144.45 114.351 140.683C112.006 136.706 109.92 132.528 106.7 129.183C106.672 130.869 106.344 132.524 105.438 133.865C104.166 135.75 102.181 137.143 99.9301 137.587C97.0328 138.16 95.9051 139.794 94.594 142.425C94.5571 142.5 94.4895 142.563 94.4065 142.616C94.3978 142.642 94.391 142.667 94.3773 142.695C92.8937 145.622 89.7577 145.275 87.2537 143.839C85.7833 142.997 81.8907 140.623 81.736 138.513C81.7072 138.459 81.7031 138.392 81.7218 138.315L81.7214 138.312C81.7218 138.304 81.7246 138.297 81.7255 138.288C81.7351 138.186 81.7789 138.097 81.8459 138.022C82.0983 137.512 82.2982 136.969 82.4638 136.409C82.4889 136.325 82.5113 136.241 82.535 136.156C82.5154 136.137 82.4949 136.119 82.4752 136.099C79.9325 133.587 76.7344 133.744 73.3884 133.496C70.9451 133.316 68.6853 132.888 66.4871 131.882C63.4893 136.819 61.391 141.93 60.0553 147.571C60.0443 147.619 60.0302 147.664 60.0197 147.713C60.1361 147.698 60.2387 147.703 60.3108 147.737C60.3569 147.758 60.4007 147.781 60.4464 147.801C63.9539 149.417 67.4285 151.176 70.8155 153.064C70.9584 153.088 71.0802 153.151 71.1519 153.257C72.1919 153.84 73.226 154.432 74.2473 155.038C74.7611 155.344 73.534 155.857 73.1876 155.652C72.5195 155.256 71.8391 154.874 71.1624 154.487C70.6097 163.255 66.4784 171.11 63.4784 179.235C63.4683 179.263 63.4569 179.291 63.4469 179.319C63.2388 179.885 61.9126 179.882 62.1796 179.158C65.2476 170.824 69.5437 162.793 69.8709 153.743C66.404 151.806 62.8449 150.002 59.2512 148.351C59.2238 148.339 59.2042 148.325 59.1864 148.312C58.8688 148.339 58.5927 148.237 58.6579 147.956C58.9473 146.71 59.2809 145.496 59.6432 144.297C59.3584 144.402 59.0276 144.45 58.8606 144.34C55.5548 142.161 50.4245 139.693 48.01 135.988C47.4569 136.427 46.8595 136.806 46.2233 137.138C48.8419 139.001 51.7589 140.868 53.0782 143.936C54.5348 147.321 54.8013 150.967 54.6749 154.616C54.3893 162.791 53.415 171.008 55.192 179.088C55.2554 179.378 53.9265 179.702 53.8695 179.442C52.1458 171.599 53.049 163.668 53.3264 155.734C53.4501 152.191 53.4921 148.324 52.0628 145.001C50.5696 141.531 47.7982 139.597 44.8265 137.473C44.7881 137.445 44.8242 137.393 44.904 137.333C44.7507 137.193 44.7744 136.973 45.181 136.781C46.0463 136.37 46.8645 135.863 47.5582 135.209C46.9038 133.955 46.562 132.565 46.6952 131.006C46.7929 129.862 47.0662 128.744 47.4464 127.649C47.372 127.632 47.3035 127.601 47.2479 127.552C43.5948 124.418 37.8662 124.386 34.6353 128.264C32.0441 131.373 32.0615 135.445 36.4753 136.645C36.6569 136.694 36.7422 136.776 36.7637 136.869C36.9211 136.89 36.9978 136.949 36.8846 137.063C34.0156 139.954 31.7393 143.145 31.3578 147.274C34.3624 149.833 36.2343 152.956 36.536 157.419C37.0256 164.663 35.9925 171.89 36.2033 179.137C36.2156 179.572 34.8899 179.804 34.8813 179.491C34.6791 172.539 35.7419 165.581 35.2719 158.636C35.0688 155.625 34.7192 152.711 32.735 150.29C32.0688 149.477 31.3368 148.748 30.5578 148.074C30.2621 148.121 29.9947 148.09 30.0024 147.965C30.0106 147.854 30.0243 147.745 30.0339 147.634C29.0158 146.808 27.9238 146.071 26.7888 145.375C26.7204 145.332 26.7509 145.264 26.8376 145.19C26.7304 145.067 26.7801 144.885 27.1475 144.701C30.2781 143.14 32.5826 139.711 30.1234 136.472C28.1948 133.933 24.4496 132.262 21.2597 133.117C16.1618 134.483 10.8951 142.615 18.4545 144.612C18.6024 144.651 18.6736 144.707 18.6932 144.771C18.8648 144.784 18.9538 144.835 18.8392 144.938C9.08294 153.751 13.9417 167.722 14.5363 179.016C14.5578 179.427 13.2293 179.665 13.2138 179.371C12.6169 168.049 7.86084 154.167 17.3785 145.243C8.75209 142.72 15.8611 132.786 22.1733 132.269C25.741 131.975 30.185 133.296 31.8566 136.782C33.5962 140.408 31.2387 143.285 28.1574 144.978C28.8798 145.425 29.5607 145.886 30.2032 146.363C30.8585 142.844 32.8414 140.026 35.3673 137.42C30.6509 135.904 30.4227 130.756 33.9206 127.469C37.8252 123.801 43.6176 123.158 47.884 126.496C48.8556 124.166 50.2365 121.945 51.4111 119.82C53.6641 115.743 55.6629 111.616 55.7724 106.872C54.2008 104.798 52.6282 101.443 54.7881 99.2035C55.0277 98.9539 55.3631 98.6546 55.7474 98.3575C55.694 98.3378 55.6565 98.3096 55.646 98.2657C53.2552 88.0435 50.864 77.8199 48.4722 67.5986C48.4558 67.5256 48.5119 67.4526 48.6064 67.3855C48.7209 67.2171 48.945 67.0565 49.2147 67.0182C57.0776 65.9015 64.9409 64.7784 72.8025 63.6471C78.2837 62.859 83.7644 62.0695 89.2424 61.2609C91.1016 60.9871 92.9612 60.7128 94.8195 60.4267C95.3708 60.3409 95.922 60.2574 96.4719 60.1656C96.6828 60.13 96.7982 60.0917 96.8525 60.0693C96.8365 60.0785 96.8165 60.0908 96.7909 60.1086C97.088 59.9758 97.4846 59.9489 97.6707 60.1182C97.6822 60.1287 97.6945 60.1387 97.7036 60.151C97.7132 60.1602 97.7164 60.1716 97.7241 60.1811C97.7365 60.2017 97.7502 60.2213 97.7575 60.2455C97.762 60.256 97.7657 60.2679 97.7689 60.2793C100.741 68.9873 103.712 77.6954 106.684 86.4025C108.271 86.9889 109.763 87.8555 110.319 89.4107C110.324 89.4249 110.331 89.4377 110.336 89.4518C110.354 89.5034 110.353 89.5545 110.343 89.6033C110.477 94.7044 112.447 99.4317 114.979 103.798C117.555 108.239 121.142 112.452 123.142 117.187C124.902 121.354 124.225 124.985 122.547 128.374C124.801 129.667 127.203 132.162 126.444 135.015C125.842 137.279 124.135 138.671 122.149 139.706C124.745 141.554 127.293 143.287 128.854 146.152C129.063 146.535 129.242 146.933 129.408 147.339C129.526 146.474 129.697 145.621 129.945 144.788C130.841 141.782 132.692 139.477 134.84 137.279C131.152 136.197 129.924 132.868 131.915 129.529C129.994 125.824 129.139 121.937 130.928 118.017C135.059 108.96 141.97 99.816 142.158 89.5029C142.158 89.4947 142.162 89.487 142.164 89.4787C142.158 89.4518 142.154 89.4254 142.154 89.393C142.24 87.0177 144.018 86.2583 145.966 85.8321C148.52 77.2623 151.854 68.8705 154.952 60.4942C155.041 60.2519 155.428 60.0903 155.764 60.0547C155.855 60.0342 155.942 60.0255 156.013 60.0369C163.175 61.2116 170.332 62.4177 177.483 63.6503C186.763 65.2484 196.192 66.5997 205.342 68.86C205.567 68.9152 205.63 69.0151 205.598 69.1247C205.597 69.1274 205.599 69.1292 205.598 69.132C203.017 78.5077 200.435 87.8834 197.853 97.259C199.565 98.1594 201.018 99.8233 201.936 101.39C203.341 103.785 198.389 107.297 196.907 108.815C197.075 113.818 199.558 117.457 202.146 121.579C203.091 123.082 204.182 124.798 204.887 126.603C206.923 127.968 208.862 130.287 208.172 132.877C207.565 135.154 205.841 136.563 203.833 137.604C205.939 139.115 208.121 140.56 209.676 142.615C210.692 140.651 212.128 138.981 213.724 137.359C205.095 134.836 212.205 124.901 218.518 124.384C222.086 124.09 226.529 125.411 228.2 128.896C229.941 132.528 227.575 135.408 224.489 137.1C227.121 138.975 230.051 140.848 231.38 143.934C232.836 147.319 233.103 150.965 232.976 154.615C232.693 162.794 231.719 171.011 233.497 179.091ZM56.8973 97.6045C57.6599 97.1883 58.464 96.9305 59.1011 97.1171C59.4543 97.2207 59.5291 97.4941 59.4661 97.8286C59.818 97.6716 60.2009 97.5799 60.5472 97.6985C61.0702 97.8778 61.1277 98.3383 61.0802 98.8134C61.1665 98.7883 61.2541 98.7659 61.3454 98.7527C62.0623 98.6477 62.8189 99.047 62.813 99.8479C62.8121 99.978 62.797 100.101 62.7733 100.22C63.0508 100.199 63.3086 100.265 63.5313 100.447C64.3564 101.12 62.6734 102.654 62.2599 103.156C61.9993 103.471 61.7748 103.782 61.5914 104.091C76.2429 99.4345 90.8944 94.7774 105.546 90.1204C104.009 88.9626 101.924 88.2754 102.969 85.9411C103.115 85.6158 103.681 85.4971 103.987 85.5847C104.326 85.6819 104.691 85.7819 105.065 85.8886C102.232 77.5854 99.3971 69.2826 96.5636 60.9793C96.2054 61.03 95.8449 61.0505 95.5944 61.0897C93.9175 61.3545 92.2377 61.6037 90.5582 61.8529C90.5063 61.8606 90.4544 61.8683 90.4025 61.876C84.9295 62.6861 79.4533 63.476 73.9762 64.2646C65.9536 65.4187 57.9292 66.5659 49.9038 67.7059C52.2348 77.6716 54.5663 87.6378 56.8973 97.6045ZM103.617 134.551C108.4 128.616 102.712 119.478 101.411 113.236C101.401 113.187 101.404 113.139 101.416 113.093C101.238 113.126 101.079 113.124 100.993 113.058C98.9435 111.465 95.4191 113.012 93.2976 113.901C91.0797 114.829 88.9061 115.907 87.0113 117.4C87.3678 118.628 88.0692 120.131 87.7849 121.429C87.4814 122.812 86.3328 123.739 85.2553 124.554C85.1869 124.605 85.065 124.646 84.9249 124.677C84.8756 124.735 84.8446 124.77 84.8446 124.77C84.8446 124.77 84.8095 124.761 84.7506 124.751C84.5233 124.896 84.2139 124.975 83.9995 124.886C83.5554 124.701 83.0055 124.536 82.4725 124.524C82.3881 124.524 82.3041 124.525 82.2197 124.527C81.8838 124.554 81.5635 124.65 81.2915 124.861C80.5485 125.441 80.4176 126.633 80.8201 127.458C81.385 128.619 83.696 129.719 84.1774 127.952C84.323 127.418 85.6711 127.244 85.5118 127.829C85.4182 128.172 85.2699 128.466 85.0819 128.714C85.1399 128.78 85.175 128.867 85.1718 128.978C85.1271 130.625 84.7351 132.301 84.37 133.9C84.041 135.339 83.7489 136.924 83.0694 138.255C83.0498 139.581 85.9015 141.495 86.8078 142.125C88.6036 143.37 91.7263 145.239 93.1073 142.517C93.1634 142.406 93.2633 142.319 93.3824 142.257C94.2855 140.446 95.4461 138.1 97.4923 137.342C99.696 136.529 101.962 136.602 103.617 134.551ZM112.325 120.235C108.476 115.956 109.984 109.596 106.284 105.085C103.157 101.272 98.5118 98.577 96.5125 93.9291C86.6422 97.0665 76.7722 100.203 66.9014 103.34C66.8074 105.436 66.3105 107.275 65.3188 109.142C64.3071 111.047 63.9854 112.71 63.686 114.814C63.0197 119.5 61.5827 124.069 60.1945 128.581C61.8989 129.574 63.4952 130.577 65.4972 130.864C65.6392 130.885 65.735 130.925 65.8007 130.975C65.9769 130.866 66.2297 130.804 66.4556 130.801C66.5802 130.789 66.6942 130.8 66.7778 130.844C70.1429 132.606 73.5381 132.535 77.2099 132.876C78.6442 133.009 79.953 133.274 81.1495 133.806C78.301 131.948 75.7477 129.252 74.3814 126.25C71.5644 120.06 73.7138 113.138 78.8692 108.887C86.3168 102.746 99.3382 102.379 102.962 112.882C103.006 113.01 102.939 113.13 102.817 113.229C103.671 117.05 105.387 120.621 106.176 124.452C106.374 125.412 106.553 126.475 106.643 127.562C108.625 125.19 110.435 122.682 112.325 120.235ZM59.8321 143.668C61.1492 139.489 62.9376 135.571 65.2604 131.752C65.181 131.769 65.1002 131.773 65.0226 131.762C62.7272 131.431 60.9392 130.33 58.9655 129.19C58.9016 129.153 58.8633 129.112 58.8359 129.071C58.8295 129.062 58.825 129.052 58.8204 129.042C58.7812 128.96 58.7939 128.874 58.8528 128.79C60.2387 124.289 61.8022 119.66 62.3617 114.968C62.5994 112.97 62.9212 111.277 63.8704 109.491C64.872 107.604 65.4283 105.845 65.562 103.765C64.0885 104.233 62.614 104.703 61.1405 105.17C60.9479 106.002 61.1327 106.853 61.8624 107.791C62.134 108.138 60.8635 108.58 60.6262 108.276C58.8916 106.046 60.0544 104.424 61.5959 102.535C61.8017 102.283 62.6264 101.444 62.4233 101.072C62.3995 101.087 62.3758 101.101 62.3466 101.12C62.3398 101.125 62.3338 101.129 62.327 101.135C62.1125 101.388 61.8419 101.602 61.5352 101.779C61.532 101.782 61.5288 101.784 61.5256 101.786C60.816 102.426 60.1662 103.174 59.3908 103.736C59.107 103.942 57.7749 104.023 58.3536 103.604C58.8889 103.214 60.1064 101.759 61.3093 100.887C61.4882 100.583 61.5635 100.227 61.4412 99.8771C61.3947 99.7452 61.3102 99.5714 61.1838 99.4723C61.1063 99.5358 61.0287 99.5987 60.9552 99.6686C60.1438 100.428 59.4912 101.551 58.5115 102.106C58.2586 102.25 57.8648 102.357 57.58 102.249C57.2871 102.138 57.565 101.887 57.7147 101.802C58.276 101.484 58.8505 100.599 59.342 100.088C59.5419 99.8803 59.75 99.6654 59.9727 99.4696C59.8098 99.423 59.7021 99.3144 59.729 99.1301C59.7504 98.9813 59.7883 98.7983 59.765 98.6354C59.4739 98.8129 59.206 99.0438 58.9605 99.272C58.7958 99.4244 58.6283 99.5823 58.4645 99.7443C58.4435 99.7649 58.4238 99.7863 58.4033 99.8068C57.9611 100.246 57.539 100.719 57.2273 101.242C56.9672 101.679 55.6241 101.742 55.9787 101.149C56.3415 100.54 56.8303 99.9346 57.3742 99.3906C57.5549 99.0885 57.7452 98.791 57.8995 98.4752C58.2668 97.7254 56.8038 98.7326 56.6477 98.8485C55.7254 99.5339 55.066 100.483 55.0802 101.671C55.1012 103.425 55.9988 105.025 57.0406 106.382C57.0438 106.386 57.0466 106.389 57.0493 106.392C57.0717 106.421 57.0872 106.449 57.0981 106.479C57.0986 106.483 57.1013 106.487 57.1013 106.492V106.496C57.1228 106.562 57.1191 106.626 57.0931 106.687C56.9644 110.731 55.558 114.33 53.6938 117.884C51.8173 121.463 49.1166 125.11 48.2733 129.122C47.8639 131.071 48.0957 132.76 48.7529 134.251C48.8328 134.237 48.9149 134.231 48.9975 134.236C49.1905 134.245 49.5789 134.413 49.3685 134.67C49.2845 134.772 49.1969 134.868 49.1102 134.964C51.229 138.803 56.1736 141.294 59.8321 143.668ZM82.8618 134.827C82.8631 134.82 82.865 134.814 82.8663 134.808C82.8371 134.793 82.807 134.776 82.7773 134.76C82.8056 134.781 82.8339 134.805 82.8618 134.827ZM121.145 128.729C121.143 128.728 121.141 128.727 121.139 128.726C121.11 128.71 121.138 128.672 121.199 128.626C123.112 124.802 123.779 120.734 121.135 116.18C116.322 107.89 109.208 99.8826 109.015 89.811C108.352 87.8797 105.969 87.1477 104.046 86.6165C103.821 88.2699 106.144 88.9393 107.244 89.9689C107.389 90.1044 107.327 90.2559 107.171 90.3805C107.166 90.3887 107.162 90.3965 107.156 90.4047C107.171 90.4896 107.137 90.5936 107.03 90.7186C105.828 92.1037 105.215 93.7 105.319 95.5413C105.352 96.1465 104.027 96.4504 103.996 95.8959C103.894 94.0902 104.367 92.5276 105.362 91.1148C102.843 91.9152 100.326 92.7156 97.8086 93.5161C99.8612 98.3534 104.915 100.823 107.866 105C109.421 107.199 110.292 109.632 110.698 112.292C111.132 115.128 111.61 117.594 113.632 119.774C113.842 120 113.641 120.241 113.339 120.378C111.351 122.968 109.432 125.611 107.302 128.088C108.154 128.904 108.927 129.777 109.646 130.69C110.617 131.922 111.488 133.228 112.312 134.567C113.094 135.838 113.834 137.139 114.578 138.437C116.779 135.278 119.438 132.097 121.145 128.729ZM147.332 85.5765C147.844 85.4875 148.345 85.3999 148.804 85.2931C149.064 85.2315 149.441 85.2101 149.569 85.5017C150.731 88.1499 145.313 88.4606 146.779 90.8816C146.808 90.929 146.82 90.9751 146.826 91.0217C146.945 90.9966 147.064 90.9957 147.165 91.029C153.699 93.1537 160.255 95.2183 166.825 97.228C171.779 98.744 176.741 100.24 181.735 101.624C184.994 102.527 188.319 103.556 191.682 104.027C190.711 102.971 189.123 102.039 188.709 100.918C188.622 100.679 189.167 100.51 189.298 100.469C189.614 100.369 189.943 100.343 190.275 100.359C190.001 99.9392 189.881 99.4774 190.114 99.0374C190.35 98.5907 190.922 98.4296 191.455 98.4465C191.589 97.5899 192.434 97.3877 193.29 97.4804C193.284 97.4598 193.279 97.4402 193.272 97.4197C193.207 97.1906 193.471 96.9725 193.655 96.9026C194.714 96.496 195.757 96.5115 196.74 96.8036C199.24 87.7241 201.74 78.645 204.241 69.566C195.188 67.3504 185.868 66.0069 176.693 64.4284C169.819 63.2455 162.942 62.0859 156.062 60.9551C153.04 69.0927 149.82 77.2509 147.332 85.5765ZM185.46 103.728C184.092 103.364 182.732 102.974 181.384 102.6C176.25 101.177 171.145 99.6489 166.052 98.0873C162.478 96.9921 158.91 95.8786 155.344 94.7528C155.332 94.8194 155.297 94.8947 155.234 94.9773C153.542 97.2152 151.459 99.0356 149.599 101.117C147.493 103.475 145.92 106.222 145.037 109.266C144.295 111.825 143.816 114.441 143.293 117.051C143.027 118.38 142.855 119.947 142.178 121.16C143.504 122.926 144.483 124.891 145.743 126.684C146.304 122.047 148.794 117.126 149.7 113.091C149.565 113.051 149.489 112.967 149.537 112.83C153.073 102.581 166.294 101.93 173.709 108.442C174.35 109.005 174.95 109.612 175.502 110.254C176.905 109.693 178.104 110.128 178.984 111.066C179.073 111.028 179.172 111.002 179.279 110.997C183.557 110.767 186.864 115.237 187.242 119.266C187.669 123.799 184.899 128.38 182.847 132.338C186.193 131.565 189.614 129.555 192.574 127.876C191.934 125.918 191.153 124.005 190.563 122.031C189.948 119.971 189.774 117.965 189.473 115.852C188.877 111.694 187.47 107.785 185.317 104.179C185.215 104.011 185.299 103.852 185.46 103.728ZM159.36 142.005C160.776 144.8 163.808 143.313 165.752 141.891C166.667 141.221 169.355 139.469 169.424 138.109C168.074 135.461 167.407 131.709 167.328 128.78C167.326 128.707 167.345 128.64 167.38 128.581C167.217 128.355 167.082 128.089 166.993 127.764C166.84 127.202 168.162 126.845 168.315 127.41C168.784 129.127 171.14 128.764 171.713 127.277C172.595 124.991 170.331 123.704 168.393 124.514C168.12 124.629 167.831 124.586 167.646 124.472C167.446 124.506 167.257 124.498 167.152 124.414C163.98 121.899 163.713 118.101 164.664 114.412C164.553 114.465 164.43 114.509 164.311 114.529C160.027 115.229 154.93 115.436 150.916 113.439C150.093 116.872 148.64 120.104 147.823 123.538C147.048 126.796 146.37 131.43 148.948 134.127C150.821 136.086 152.81 136.115 155.119 136.97C157.157 137.723 158.241 139.992 159.145 141.81C159.236 141.849 159.312 141.911 159.36 142.005ZM164.86 114.001C164.934 114.006 164.982 114.022 165.005 114.046C165.025 113.946 165.037 113.886 165.037 113.886L164.86 114.001ZM176.165 111.076C177.48 112.801 178.457 114.743 178.983 116.778C179.042 116.612 179.11 116.433 179.192 116.242C179.377 113.842 178.134 110.521 176.165 111.076ZM170.981 136.58L170.372 136.925C170.387 136.962 170.401 137.001 170.418 137.039C170.602 136.88 170.789 136.728 170.981 136.58ZM154.204 170.122C154.049 169.637 153.866 169.186 153.672 168.748C153.658 172.053 153.837 175.339 154.535 178.592C155.1 175.804 155.072 172.845 154.204 170.122ZM148.519 135.413C147.843 134.824 147.259 134.123 146.805 133.312C145.97 131.822 145.639 130.213 145.631 128.544C145.596 128.533 145.564 128.518 145.545 128.496C143.708 126.376 142.575 123.833 140.913 121.597C140.773 121.526 140.717 121.397 140.835 121.206C141.911 119.449 142.014 116.843 142.41 114.866C142.898 112.43 143.372 109.924 144.302 107.609C145.314 105.089 146.648 102.769 148.505 100.774C150.406 98.733 152.451 96.8661 154.14 94.6341C154.201 94.5538 154.29 94.4931 154.395 94.4498C153.223 94.0787 152.052 93.7009 150.881 93.3258C150.981 93.4828 150.969 93.6931 150.739 93.9177C150.018 94.6236 149.083 95.1681 148.648 96.1145C148.386 96.685 147.049 96.6402 147.375 95.932C147.907 94.777 148.968 94.1198 149.848 93.2605C149.935 93.1743 150.041 93.1204 150.149 93.0921C148.897 92.6901 147.643 92.2972 146.392 91.8906C146.176 91.8203 146.099 91.7098 146.108 91.5921C145.875 91.625 145.653 91.5839 145.56 91.4301C143.844 88.5984 148.721 88.2142 148.349 86.1953C147.917 86.2683 147.465 86.3299 147.013 86.4011C146.747 86.6508 146.162 86.7548 145.913 86.6188C144.609 86.9506 143.547 87.5904 143.488 89.2634C143.487 89.2793 143.481 89.2944 143.478 89.3108C143.231 99.2391 136.812 108.011 132.743 116.698C128.072 126.674 137.687 134.917 142.844 142.593C144.479 140.01 146.242 137.569 148.519 135.413ZM187.706 153.076C187.114 152.174 186.606 151.267 186.194 150.286C184.763 151.229 183.394 152.273 182.006 153.288C182.059 153.379 182.074 153.498 182.031 153.644C181.537 155.298 181.277 156.937 181.202 158.56C181.304 158.552 181.398 158.56 181.47 158.591C183.136 159.305 185.73 159.051 187.78 158.199C187.78 158.197 187.779 158.192 187.779 158.192C187.752 157.914 188.389 157.703 188.789 157.704C189.304 157.407 189.756 157.069 190.11 156.697C190.375 156.415 187.942 153.436 187.706 153.076ZM187.737 150.419C187.765 150.036 187.801 149.653 187.838 149.27C187.677 149.361 187.522 149.459 187.364 149.553C187.478 149.849 187.601 150.138 187.737 150.419ZM203.598 127.023C203.413 126.901 203.225 126.783 203.029 126.671C202.956 126.629 203.117 126.503 203.351 126.389C202.316 123.93 200.603 121.633 199.254 119.528C197.143 116.233 195.661 112.954 195.577 108.976C195.543 108.89 195.568 108.778 195.694 108.639C197.074 107.111 200.428 104.971 200.762 102.825C201.11 100.586 197.07 97.2326 194.709 97.468C194.755 97.6287 194.8 97.7879 194.846 97.9477C196.3 98.5957 198.135 99.6234 198.97 100.921C199.31 101.447 198.035 101.913 197.752 101.473C197.195 100.609 196.101 99.9675 195.248 99.4445C194.857 99.204 194.453 98.9621 194.035 98.7554C193.853 98.7508 193.692 98.6938 193.614 98.5665C193.528 98.5318 193.442 98.4926 193.356 98.462C193.167 98.3958 192.964 98.3169 192.761 98.2881C192.748 98.3862 192.748 98.4862 192.769 98.5838C192.779 98.6728 192.754 98.754 192.708 98.828C194.441 99.6302 196.003 100.779 197.691 101.661C198.185 101.919 196.959 102.425 196.625 102.25C195.285 101.55 194.023 100.696 192.695 99.9716C192.31 99.7612 191.807 99.4048 191.325 99.215C191.331 99.2638 191.345 99.3281 191.371 99.4084C191.41 99.5545 191.464 99.6946 191.533 99.8283C191.85 100.379 192.276 100.786 192.83 101.097C192.839 101.102 192.843 101.107 192.851 101.112C193.88 101.549 194.902 102.038 195.841 102.644C196.123 102.825 194.959 103.358 194.605 103.13C193.812 102.618 192.945 102.192 192.08 101.817C192.014 101.788 191.937 101.752 191.858 101.715C191.823 101.708 191.791 101.699 191.764 101.685C191.726 101.662 191.684 101.637 191.641 101.613C191.241 101.421 190.747 101.191 190.288 101.065C191.49 102.934 195.008 104.038 193.324 106.656C193.124 106.966 191.815 107.145 192.109 106.688C192.569 105.972 192.53 105.348 192.229 104.776C192.055 104.927 191.805 105.033 191.57 105.003C189.966 104.799 188.37 104.461 186.786 104.069C188.818 107.57 190.339 111.459 190.796 115.501C191.29 119.872 192.66 123.626 193.987 127.792C194.026 127.913 193.968 128.027 193.859 128.122C193.803 128.191 193.724 128.26 193.609 128.324C190.332 130.17 186.594 132.353 182.837 133.215C185.332 137.15 187.654 140.889 189.132 145.219C192.19 143.221 195.45 141.511 198.355 139.285C200.943 137.303 203.974 134.623 204.245 131.125C204.353 129.714 204.082 128.346 203.598 127.023ZM72.0691 79.1055C72.0691 73.4116 76.7011 68.7797 82.3949 68.7797C88.0892 68.7797 92.7207 73.4116 92.7207 79.1055C92.7207 84.7993 88.0892 89.4313 82.3949 89.4313C76.7011 89.4313 72.0691 84.7993 72.0691 79.1055ZM87.4682 72.8708L78.677 86.2314C79.7896 86.815 81.0533 87.1495 82.3945 87.1495C86.8306 87.1495 90.4385 83.5416 90.4385 79.1055C90.439 76.5919 89.279 74.3458 87.4682 72.8708ZM74.3509 79.1055C74.3509 81.379 75.3033 83.4312 76.8247 84.8956L85.5127 71.6898C84.553 71.285 83.4998 71.0605 82.3949 71.0605C77.9592 71.0614 74.3509 74.6693 74.3509 79.1055ZM163.759 81.8892C163.372 79.1593 164.073 76.4409 165.729 74.2358C167.698 71.6173 170.709 70.1145 173.99 70.1145C176.241 70.1145 178.384 70.831 180.187 72.1877C184.739 75.6085 185.657 82.0946 182.236 86.6457C180.268 89.2652 177.257 90.7679 173.976 90.7679C171.724 90.7679 169.582 90.0506 167.778 88.6947C165.574 87.0364 164.147 84.62 163.759 81.8892ZM181.785 78.5049L166.723 83.9054C167.273 85.0622 168.096 86.0785 169.149 86.8698C170.555 87.9258 172.224 88.4848 173.976 88.4848C176.533 88.4848 178.878 87.3147 180.412 85.2735C181.923 83.2642 182.345 80.7725 181.785 78.5049ZM166.019 81.5693C166.026 81.6209 166.04 81.6711 166.048 81.7226L180.93 76.3875C180.407 75.4871 179.699 74.6743 178.816 74.0103C177.41 72.9544 175.742 72.3953 173.989 72.3953C171.432 72.3953 169.087 73.5654 167.553 75.6067C166.262 77.3248 165.717 79.4418 166.019 81.5693Z" fill="#340679"/>
<path fill-rule="evenodd" clip-rule="evenodd" d="M56.8973 97.6045C57.6599 97.1883 58.464 96.9305 59.1011 97.1171C59.4543 97.2207 59.5291 97.4941 59.4661 97.8286C59.818 97.6716 60.2009 97.5799 60.5472 97.6985C61.0702 97.8778 61.1277 98.3383 61.0802 98.8134C61.1665 98.7883 61.2541 98.7659 61.3454 98.7527C62.0623 98.6477 62.8189 99.047 62.813 99.8479C62.8121 99.978 62.797 100.101 62.7733 100.22C63.0508 100.199 63.3086 100.265 63.5313 100.447C64.3564 101.12 62.6734 102.654 62.2599 103.156C61.9993 103.471 61.7748 103.782 61.5914 104.091L105.546 90.1204C104.009 88.9626 101.924 88.2754 102.969 85.9411C103.115 85.6158 103.681 85.4971 103.987 85.5847C104.326 85.6819 104.691 85.7819 105.065 85.8886C102.232 77.5854 99.3971 69.2826 96.5636 60.9793C96.2054 61.03 95.8449 61.0505 95.5944 61.0897C93.9175 61.3545 92.2377 61.6037 90.5582 61.8529L90.4025 61.876C84.9295 62.6861 79.4533 63.476 73.9762 64.2646C65.9536 65.4187 57.9292 66.5659 49.9038 67.7059C52.2348 77.6716 54.5663 87.6378 56.8973 97.6045ZM82.3949 68.7797C76.7011 68.7797 72.0691 73.4116 72.0691 79.1055C72.0691 84.7993 76.7011 89.4313 82.3949 89.4313C88.0892 89.4313 92.7207 84.7993 92.7207 79.1055C92.7207 73.4116 88.0892 68.7797 82.3949 68.7797Z" fill="#FEFDFF"/>
<path fill-rule="evenodd" clip-rule="evenodd" d="M147.332 85.5765C147.844 85.4875 148.345 85.3999 148.804 85.2931C149.064 85.2315 149.441 85.2101 149.569 85.5017C150.731 88.1499 145.313 88.4606 146.779 90.8816C146.808 90.929 146.82 90.9751 146.826 91.0217C146.945 90.9966 147.064 90.9957 147.165 91.029C153.699 93.1537 160.255 95.2183 166.825 97.228C171.779 98.744 176.741 100.24 181.735 101.624C184.994 102.527 188.319 103.556 191.682 104.027C190.711 102.971 189.123 102.039 188.709 100.918C188.622 100.679 189.167 100.51 189.298 100.469C189.614 100.369 189.943 100.343 190.275 100.359C190.001 99.9392 189.881 99.4774 190.114 99.0374C190.35 98.5907 190.922 98.4296 191.455 98.4465C191.589 97.5899 192.434 97.3877 193.29 97.4804C193.284 97.4598 193.279 97.4402 193.272 97.4197C193.207 97.1906 193.471 96.9725 193.655 96.9026C194.714 96.496 195.757 96.5115 196.74 96.8036C199.24 87.7241 201.74 78.645 204.241 69.566C195.188 67.3504 185.868 66.0069 176.693 64.4284C169.819 63.2455 162.942 62.0859 156.062 60.9551C153.04 69.0927 149.82 77.2509 147.332 85.5765ZM165.729 74.2358C164.073 76.4409 163.372 79.1593 163.759 81.8892C164.147 84.62 165.574 87.0364 167.778 88.6947C169.582 90.0506 171.724 90.7679 173.976 90.7679C177.257 90.7679 180.268 89.2652 182.236 86.6457C185.657 82.0946 184.739 75.6085 180.187 72.1877C178.384 70.831 176.241 70.1145 173.99 70.1145C170.709 70.1145 167.698 71.6173 165.729 74.2358Z" fill="#FEFDFF"/>
<path d="M74.3509 79.1055C74.3509 81.379 75.3033 83.4312 76.8247 84.8956L85.5127 71.6898C84.553 71.285 83.4998 71.0605 82.3949 71.0605C77.9592 71.0614 74.3509 74.6693 74.3509 79.1055Z" fill="#FEFDFF"/>
<path d="M87.4682 72.8708L78.677 86.2314C79.7896 86.815 81.0533 87.1495 82.3945 87.1495C86.8306 87.1495 90.4385 83.5416 90.4385 79.1055C90.439 76.5919 89.279 74.3458 87.4682 72.8708Z" fill="#FEFDFF"/>
<path d="M181.785 78.5049L166.723 83.9054C167.273 85.0622 168.096 86.0785 169.149 86.8698C170.555 87.9258 172.224 88.4848 173.976 88.4848C176.533 88.4848 178.878 87.3147 180.412 85.2735C181.923 83.2642 182.345 80.7725 181.785 78.5049Z" fill="#FEFDFF"/>
<path d="M166.019 81.5693C166.026 81.6209 166.04 81.6711 166.048 81.7226L180.93 76.3875C180.407 75.4871 179.699 74.6743 178.816 74.0103C177.41 72.9544 175.742 72.3953 173.989 72.3953C171.432 72.3953 169.087 73.5654 167.553 75.6067C166.262 77.3248 165.717 79.4418 166.019 81.5693Z" fill="#FEFDFF"/>
<path d="M203.598 127.023C203.413 126.901 203.225 126.783 203.029 126.671C202.956 126.629 203.117 126.503 203.351 126.389C202.316 123.93 200.603 121.633 199.254 119.528C197.143 116.233 195.661 112.954 195.577 108.976C195.543 108.89 195.568 108.778 195.694 108.639C197.074 107.111 200.428 104.971 200.762 102.825C201.11 100.586 197.07 97.2326 194.709 97.468C194.755 97.6287 194.8 97.7879 194.846 97.9477C196.3 98.5957 198.135 99.6234 198.97 100.921C199.31 101.447 198.035 101.913 197.752 101.473C197.195 100.609 196.101 99.9675 195.248 99.4445C194.857 99.204 194.453 98.9621 194.035 98.7554C193.853 98.7508 193.692 98.6938 193.614 98.5665C193.528 98.5318 193.442 98.4926 193.356 98.462C193.167 98.3958 192.964 98.3169 192.761 98.2881C192.748 98.3862 192.748 98.4862 192.769 98.5838C192.779 98.6728 192.754 98.754 192.708 98.828C194.441 99.6302 196.003 100.779 197.691 101.661C198.185 101.919 196.959 102.425 196.625 102.25C195.285 101.55 194.023 100.696 192.695 99.9716C192.31 99.7612 191.807 99.4048 191.325 99.215C191.331 99.2638 191.345 99.3281 191.371 99.4084C191.41 99.5545 191.464 99.6946 191.533 99.8283C191.85 100.379 192.276 100.786 192.83 101.097C192.839 101.102 192.843 101.107 192.851 101.112C193.88 101.549 194.902 102.038 195.841 102.644C196.123 102.825 194.959 103.358 194.605 103.13C193.812 102.618 192.945 102.192 192.08 101.817C192.014 101.788 191.937 101.752 191.858 101.715C191.823 101.708 191.791 101.699 191.764 101.685C191.726 101.662 191.684 101.637 191.641 101.613C191.241 101.421 190.747 101.191 190.288 101.065C191.49 102.934 195.008 104.038 193.324 106.656C193.124 106.966 191.815 107.145 192.109 106.688C192.569 105.972 192.53 105.348 192.229 104.776C192.055 104.927 191.805 105.033 191.57 105.003C189.966 104.799 188.37 104.461 186.786 104.069C188.818 107.57 190.339 111.459 190.796 115.501C191.29 119.872 192.66 123.626 193.987 127.792C194.026 127.913 193.968 128.027 193.859 128.122C193.803 128.191 193.724 128.26 193.609 128.324C190.332 130.17 186.594 132.353 182.837 133.215C185.332 137.15 187.654 140.889 189.132 145.219C192.19 143.221 195.45 141.511 198.355 139.285C200.943 137.303 203.974 134.623 204.245 131.125C204.353 129.714 204.082 128.346 203.598 127.023Z" fill="#FEFDFF"/>
<path d="M187.706 153.076C187.114 152.174 186.606 151.267 186.194 150.286C184.763 151.229 183.394 152.273 182.006 153.288C182.059 153.379 182.074 153.498 182.031 153.644C181.537 155.298 181.277 156.937 181.202 158.56C181.304 158.552 181.398 158.56 181.47 158.591C183.136 159.305 185.73 159.051 187.78 158.199C187.78 158.197 187.779 158.192 187.779 158.192C187.752 157.914 188.389 157.703 188.789 157.704C189.304 157.407 189.756 157.069 190.11 156.697C190.375 156.415 187.942 153.436 187.706 153.076Z" fill="#340679"/>
<path d="M112.312 134.567C111.488 133.228 110.617 131.922 109.646 130.69L110.894 131.486L112.312 134.567ZM105.441 133.869C104.169 135.754 102.184 137.146 99.9334 137.591C97.0361 138.164 95.9084 139.798 94.5974 142.429C94.5604 142.504 94.4929 142.566 94.4098 142.62C94.4011 142.646 94.3943 142.67 94.3806 142.698C92.897 145.625 89.761 145.278 87.257 143.843C85.7866 143 81.894 140.627 81.7393 138.516C81.7069 138.455 81.7005 138.382 81.7288 138.293C81.7384 138.191 81.7822 138.101 81.8493 138.026C82.1016 137.517 82.3015 136.973 82.4671 136.414L82.4786 136.104C79.9358 133.591 76.7377 133.748 73.3917 133.501C70.9484 133.32 68.6881 132.892 66.4904 131.887C63.4926 136.823 61.3943 141.935 60.0586 147.576L60.4488 147.805C63.9563 149.421 67.4309 151.18 70.8175 153.068C70.9603 153.092 71.0822 153.155 71.1543 153.26C72.1943 153.844 73.2284 154.436 74.2497 155.042C74.7635 155.348 73.5364 155.861 73.19 155.655C72.5219 155.259 71.8415 154.877 71.1648 154.49C70.6121 163.259 66.4803 171.113 63.4808 179.239C68.2441 179.228 95.9596 179.239 100.613 179.241C102.752 169.765 102.683 160.057 102.68 150.397C102.68 149.896 104.01 149.641 104.01 150.259C104.01 151.363 104.011 152.469 104.01 153.573C107.145 149.075 110.419 144.455 114.354 140.687C112.008 136.71 109.922 132.532 106.702 129.187C106.676 130.873 106.347 132.528 105.441 133.869ZM181.284 133.244C181.276 133.232 181.274 133.22 181.268 133.208C181.257 133.192 181.249 133.174 181.243 133.154C181.242 133.151 181.239 133.146 181.238 133.143C181.236 133.134 181.235 133.122 181.234 133.111C181.233 133.108 181.233 133.105 181.233 133.102C181.22 132.996 181.262 132.896 181.342 132.81C181.392 132.708 181.445 132.607 181.497 132.506L181.355 132.265C180.079 132.94 178.705 133.5 177.335 134.078C174.949 135.083 172.581 136.148 170.77 137.976C170.792 140.012 166.837 142.528 165.408 143.348C163.003 144.726 159.679 145.618 158.151 142.603C158.125 142.553 158.113 142.503 158.104 142.456C158 142.418 157.913 142.352 157.865 142.254C157.156 140.833 156.257 138.856 154.78 138.026C153.984 137.579 153.153 137.493 152.28 137.295C151.133 137.037 150.065 136.565 149.136 135.905C148.271 136.777 147.476 137.688 146.739 138.638L145.513 140.301C144.364 141.948 143.317 143.676 142.262 145.439C144.438 147.458 146.571 149.525 148.646 151.647C149.192 150.478 149.815 149.329 150.229 148.164C150.349 147.829 151.62 147.686 151.532 147.929C150.517 150.785 148.28 153.695 148.855 156.885C149.384 159.832 150.89 162.088 152.712 164.401C152.878 164.612 153.034 164.828 153.188 165.045C153.481 165.045 153.74 165.176 153.731 165.484C153.727 165.605 153.725 165.725 153.721 165.846C156.199 169.823 156.791 174.66 155.641 179.24C155.631 179.281 155.602 179.32 155.56 179.354L185.754 179.197C182.088 171.328 178.295 163.101 180.511 154.347C180.072 154.646 179.63 154.939 179.18 155.218C178.78 155.464 177.611 155.34 178.372 154.87C180.998 153.245 183.365 151.24 185.964 149.588C186.024 149.369 186.355 149.198 186.677 149.158C187.083 148.916 187.497 148.686 187.918 148.465C187.932 148.343 187.941 148.221 187.955 148.099C187.972 147.965 188.202 147.843 188.464 147.77C187.06 142.357 184.27 137.951 181.284 133.244Z" fill="#A358E7"/>
</g>
<defs>
<clipPath id="clip0_702_721">
<rect width="240" height="240" fill="white" transform="translate(0.5)"/>
</clipPath>
</defs>
</svg>
