<svg width="241" height="240" viewBox="0 0 241 240" fill="none" xmlns="http://www.w3.org/2000/svg">
<g clip-path="url(#clip0_702_1056)">
<path d="M56.722 224.246C23.4877 180.97 9.39927 109.049 15.6976 50.9282C17.8708 35.5133 38.0074 26.408 45.7305 23.7093C67.1691 16.2116 88.4992 18.1761 155.955 44.789C223.41 71.4018 227.029 106.727 220.407 121.062C217.655 131.084 199.456 162.149 148.679 206.233C97.9011 250.317 66.2169 236.61 56.722 224.246Z" fill="#F4EDFB"/>
<path fill-rule="evenodd" clip-rule="evenodd" d="M11.534 77.7504C11.534 83.6539 16.3355 88.4572 22.2391 88.4572H73.8145C79.7174 88.4572 84.5201 83.6545 84.5201 77.7504C84.5201 71.8492 79.7181 67.0459 73.8145 67.0459H22.2391C16.3361 67.0459 11.534 71.8486 11.534 77.7504ZM28.5094 78.8842H23.7098C22.5233 78.8842 23.9035 78.059 24.4463 78.0584H28.1041C27.0381 76.9936 25.972 75.9276 24.906 74.8615C24.3724 74.3279 26.0533 73.6463 26.5417 74.1347C27.0437 74.6363 27.5455 75.1382 28.0471 75.64C28.2998 75.8928 28.5526 76.1455 28.8053 76.3982V72.9348C28.8053 72.2172 30.5914 71.9006 30.5914 72.7698V76.8029C30.8946 76.4996 31.198 76.1964 31.5014 75.8933C31.955 75.44 32.4085 74.9867 32.8616 74.5333C33.1947 74.2001 34.9216 74.0259 34.4827 74.4654C33.8833 75.0648 33.2841 75.6638 32.6849 76.2628C32.0858 76.8619 31.4866 77.4609 30.8872 78.0603H35.6869C36.8733 78.0603 35.4943 78.8867 34.9497 78.8867H31.2931C31.8261 79.4197 32.359 79.9524 32.8919 80.4851C33.4247 81.0178 33.9576 81.5506 34.4906 82.0836C35.0243 82.6172 33.3433 83.2988 32.8549 82.8104L30.5914 80.5469V84.0103C30.5914 84.7273 28.8053 85.0439 28.8053 84.1759V80.1416C28.6161 80.3308 28.4269 80.52 28.2377 80.7092C28.2356 80.7113 28.2336 80.7134 28.2315 80.7155C27.666 81.2811 27.1005 81.8467 26.535 82.4112C26.2019 82.7456 24.4751 82.9186 24.9139 82.4791C25.5133 81.8797 26.1125 81.2807 26.7117 80.6817C27.3109 80.0826 27.9101 79.4836 28.5094 78.8842ZM46.3326 78.8842H41.533C40.3465 78.8842 41.7262 78.059 42.2702 78.0584H45.9274C45.1338 77.2657 44.3405 76.4724 43.5471 75.6789C43.5442 75.6759 43.5412 75.673 43.5382 75.67C43.5353 75.667 43.5323 75.6641 43.5293 75.6611C43.2629 75.3946 42.9964 75.1281 42.7299 74.8615C42.1962 74.3279 43.8772 73.6463 44.3656 74.1347C44.8609 74.6297 45.356 75.1249 45.851 75.62C45.8579 75.6269 45.8648 75.6338 45.8717 75.6407C46.1242 75.8933 46.3767 76.1458 46.6291 76.3982V72.9348C46.6291 72.2172 48.4152 71.9006 48.4152 72.7698V76.8029C48.6044 76.6137 48.7936 76.4245 48.9828 76.2353C48.9849 76.2332 48.9869 76.2311 48.989 76.229C49.5545 75.6634 50.12 75.0978 50.6855 74.5333C51.0186 74.2001 52.7454 74.0259 52.3065 74.4654C51.8276 74.9443 51.3487 75.423 50.8698 75.9017C50.8615 75.91 50.8532 75.9184 50.8449 75.9267C50.1335 76.6378 49.4222 77.3488 48.7111 78.0603H53.5107C54.6972 78.0603 53.3176 78.8867 52.7735 78.8867H49.1157C49.6488 79.4197 50.1818 79.9524 50.7148 80.4851C51.2478 81.0178 51.7808 81.5506 52.3139 82.0836C52.8475 82.6172 51.1665 83.2988 50.6781 82.8104C50.1753 82.308 49.6728 81.8054 49.1704 81.3028C48.9185 81.0508 48.6665 80.7988 48.4146 80.5469V84.0103C48.4146 84.7273 46.6285 85.0439 46.6285 84.1759V80.1416C45.8717 80.8984 45.1144 81.6557 44.3583 82.4112C44.0251 82.7456 42.2983 82.9186 42.7372 82.4791C43.3365 81.8797 43.9357 81.2807 44.5349 80.6817C45.1341 80.0826 45.7333 79.4836 46.3326 78.8842ZM64.1565 78.8842H59.3568C58.1698 78.8842 59.5494 78.059 60.0946 78.0584H63.7512C62.6852 76.9936 61.6191 75.9276 60.5537 74.8615C60.0201 74.3279 61.701 73.6463 62.1894 74.1347L62.2016 74.1469C62.9513 74.8972 63.7027 75.6492 64.453 76.3982V72.9348C64.453 72.2172 66.2391 71.9006 66.2391 72.7698V76.8029C66.9952 76.0462 67.7526 75.2888 68.5093 74.5333C68.8424 74.2001 70.5693 74.0259 70.1304 74.4654C68.9311 75.6641 67.733 76.8616 66.5343 78.0603H71.3352C72.521 78.0603 71.142 78.8867 70.598 78.8867H66.9402C67.4732 79.4197 68.0062 79.9524 68.5393 80.4851C69.0723 81.0178 69.6053 81.5506 70.1383 82.0836C70.672 82.6172 68.991 83.2988 68.5026 82.8104C67.7477 82.0561 66.9928 81.3012 66.2391 80.5469V84.0103C66.2391 84.7273 64.453 85.0439 64.453 84.1759V80.1404C64.265 80.3284 64.077 80.5164 63.8889 80.7046C63.3198 81.2738 62.7503 81.8434 62.1815 82.4112C61.8484 82.7456 60.1222 82.9186 60.561 82.4791C61.1604 81.8797 61.7596 81.2807 62.3588 80.6817C62.958 80.0826 63.5572 79.4836 64.1565 78.8842Z" fill="white"/>
<path fill-rule="evenodd" clip-rule="evenodd" d="M227.982 203.637C225.779 207.177 222.182 208.185 218.188 208.091C216.988 208.062 218.001 206.843 218.816 206.862C228.799 207.098 228.731 195.79 228.685 188.062L228.684 187.782C228.684 187.779 228.683 187.778 228.683 187.776V187.647C228.68 187.205 228.678 186.774 228.679 186.362C228.679 186.353 228.683 186.347 228.683 186.338V28.8592C228.683 28.8506 228.679 28.8439 228.679 28.8341C228.606 20.4445 226.407 10.2646 217.659 8.46197C218.842 9.19977 219.839 10.2481 220.545 11.7035C223.015 16.8063 222.714 23.161 222.726 28.6813C222.726 28.6898 222.723 28.6966 222.722 28.7051V186.18C222.723 186.191 222.726 186.198 222.726 186.209C222.714 191.627 223.251 198.795 220.24 203.635C218.037 207.176 214.441 208.184 210.446 208.09C210.286 208.085 210.169 208.06 210.081 208.02H116.961C116.898 208.033 116.83 208.043 116.76 208.045C113.208 208.158 109.346 207.392 107.253 204.201C104.541 200.066 104.501 194.816 104.692 190.042C104.696 189.943 104.74 189.852 104.806 189.771V158.991C104.806 158.843 104.964 158.719 105.185 158.622C104.697 157.824 104.266 157.004 103.912 156.158C103.455 156.719 103.012 157.266 102.633 157.809C102.543 157.936 102.303 158.046 102.032 158.118C99.2984 167.622 98.4251 177.622 97.5681 187.437L97.512 188.079C96.8872 195.228 94.8248 205.73 87.2659 208.96C81.4602 211.443 76.3469 208.082 72.1659 204.231C72.4098 213.155 75.1207 221.762 75.8096 230.643C75.842 231.049 75.3127 231.35 74.8255 231.428C74.4306 231.492 74.062 231.41 74.0394 231.117C73.3261 221.923 70.4935 213.03 70.3682 203.775C70.3651 203.546 70.5894 203.355 70.878 203.238C70.9348 203.216 70.9929 203.195 71.054 203.177C70.6304 202.777 70.2074 202.374 69.7875 201.971C66.7745 199.071 63.8441 196.082 60.9675 193.049C60.8019 192.876 60.8349 192.693 60.97 192.537C60.2615 192.734 59.5512 192.921 58.8379 193.091C58.0298 193.282 57.707 192.846 58.0726 192.515C58.0047 192.49 57.9454 192.455 57.9033 192.407C54.7687 188.752 53.7754 183.582 49.9568 180.487C49.4868 180.105 51.1256 179.412 51.6036 179.801C55.4289 182.902 56.4167 188.067 59.55 191.72C59.6301 191.813 59.6386 191.911 59.5971 192.004C62.3551 191.299 65.0856 190.393 67.7018 189.293C71.6824 187.62 77.542 185.089 78.3201 180.263C78.3421 180.125 78.4619 180.003 78.627 179.907C73.9294 172.567 69.7771 164.063 62.5556 158.848C55.8219 153.987 47.6194 156.056 39.9718 154.224C39.4107 154.088 40.978 153.393 41.4163 153.497C43.2562 153.938 45.1694 154.135 47.1047 154.258C46.2257 150.932 39.1142 149.839 36.4289 149.218C33.7938 148.607 31.1323 148.086 28.4568 147.678C28.4452 149.415 28.2545 151.116 27.6457 152.606C26.0381 156.539 24.3467 160.927 24.4641 165.238C24.6945 173.621 26.1249 181.954 27.4501 190.216C28.834 198.846 30.4172 207.516 30.9722 216.249C31.2167 220.103 31.6568 225.062 30.2631 229.034C30.2087 229.189 30.158 229.347 30.0975 229.5C29.7332 230.417 29.2655 231.275 28.661 232.045C28.6463 232.065 28.6243 232.084 28.5999 232.104C28.2025 232.411 26.7056 232.604 27.0528 232.161C30.5681 227.679 29.5088 219.833 29.0351 214.603C28.2588 206.027 26.7618 197.535 25.4134 189.037C24.1823 181.282 22.2067 172.816 22.6987 164.921C22.9475 160.929 24.1951 157.069 25.7006 153.386C26.9054 150.44 26.6787 146.934 26.4543 143.696C26.2013 143.701 25.9641 143.632 25.8229 143.453C23.634 140.696 20.989 137.773 18.6662 134.69L17.6692 133.895C17.6692 133.895 17.6851 133.71 17.5849 133.211C14.8366 129.299 12.7901 125.138 12.9662 120.743C12.7455 118.613 13.3549 117.043 14.0707 115.979C14.4436 115.105 14.9057 114.224 15.4925 113.333C18.4187 108.892 23.3222 105.888 28.0803 103.742C33.1599 101.451 38.613 99.5516 44.2354 99.4245C44.3607 99.422 44.4646 99.4367 44.5569 99.4593C46.6401 99.4544 49.2887 100.035 50.1977 102.126C51.603 105.367 48.6787 108.968 46.2697 111.463C46.3479 111.493 46.417 111.529 46.4763 111.572C46.4891 111.572 46.502 111.571 46.5148 111.572C48.2758 111.769 49.1781 113.634 49.9385 115.026C51.4324 117.764 52.8414 120.534 54.924 122.886C56.215 122.628 57.9192 122.528 58.6851 123.523C59.6961 124.836 58.0414 126.333 57.0854 127.085C56.8611 127.261 56.5634 127.376 56.2645 127.417C56.4643 132.14 59.0744 137.114 55.0297 140.903C53.2246 142.595 50.8468 143.027 48.5961 143.794C45.4206 144.873 44.9542 147.397 46.2654 150.163C46.4054 150.456 46.1645 150.72 45.818 150.868C47.3816 151.609 48.6402 152.588 48.914 153.932C48.944 154.074 48.752 154.219 48.488 154.33C48.4831 154.332 48.4782 154.335 48.4745 154.337C48.4874 154.338 48.5008 154.338 48.5136 154.339C54.0633 154.612 59.6937 154.607 64.2182 158.226C71.3217 163.911 75.5107 171.819 80.336 179.341C81.3776 176.851 83.0183 174.618 84.7292 172.402C88.1113 168.018 90.2165 163.144 92.631 158.214C91.8773 155.623 90.3461 153.341 89.6267 150.737C89.6157 150.698 89.6138 150.662 89.6138 150.624C89.3167 150.604 89.0184 150.582 88.7201 150.573C88.4873 150.567 88.4286 150.511 88.4738 150.433C88.428 150.415 88.4047 150.392 88.4188 150.359C88.5007 150.18 88.5826 150 88.6633 149.819C88.5942 149.781 88.5307 149.734 88.4805 149.673C87.8723 148.915 87.2115 147.803 87.7018 146.811C88.0594 146.088 88.7012 145.641 89.4121 145.325C89.2464 144.744 89.2391 144.136 89.6108 143.632C89.9965 143.11 90.513 142.772 91.0869 142.561C90.9048 141.99 90.8534 141.378 91.1187 140.837C91.5491 139.956 92.4293 139.545 93.3603 139.454C94.5608 136.806 95.7601 134.159 96.96 131.513C96.7699 131.421 96.6403 131.258 96.6446 131.005C97.0437 110.528 97.4441 90.0508 97.842 69.5735C97.8579 68.7654 99.6563 68.5062 99.6379 69.4409C99.6379 69.4537 99.6373 69.4647 99.6373 69.4781C101.691 69.5588 103.61 69.3199 105.408 68.8229C105.186 68.8862 105.187 68.2897 105.214 67.9836V26.0107C105.214 25.8389 105.354 25.6886 105.553 25.5736C105.476 25.5162 105.424 25.4373 105.42 25.3291C105.229 20.5656 105.098 14.4841 108.372 10.5751C110.772 7.70951 114.227 6.88247 117.837 6.99617C117.931 6.99984 118.006 7.01023 118.074 7.02612H210.556C210.665 6.98578 210.786 6.95827 210.919 6.95582C211.961 6.93076 212.995 6.98822 213.988 7.15143C214.144 7.03773 214.348 6.9601 214.587 6.95582C227.018 6.66303 230.381 18.1725 230.472 28.6844C230.472 28.6941 230.469 28.7009 230.468 28.7106V186.185C230.469 186.196 230.472 186.202 230.472 186.212C230.457 191.628 230.994 198.797 227.982 203.637ZM113.736 63.2867C113.736 63.5874 114.003 63.7164 114.329 63.7262C112.093 65.7239 109.614 67.3548 106.836 68.3663C106.937 68.3301 106.98 67.9583 106.99 67.777V25.8041C106.99 25.6384 106.905 25.5272 106.778 25.4569C107.024 25.3114 107.201 25.1036 107.191 24.8566C106.899 17.5093 107.738 7.84643 117.187 8.14351C117.267 8.14595 117.349 8.1325 117.432 8.11355H210.298C210.412 8.16001 210.556 8.18996 210.744 8.18385C221.703 7.92345 220.924 21.0142 220.94 28.8366C220.94 28.8476 220.943 28.8531 220.943 28.8628V186.34C220.943 186.349 220.94 186.356 220.94 186.364C220.939 186.776 220.941 187.207 220.943 187.649V187.779C220.943 187.779 220.945 187.782 220.945 187.784L220.946 188.067C220.992 195.797 221.06 207.102 211.078 206.865C210.955 206.862 210.827 206.89 210.703 206.935H117.28C117.189 206.917 117.086 206.906 116.962 206.91C107.24 207.214 106.172 197.503 106.478 189.867C106.481 189.805 106.471 189.752 106.456 189.704C106.532 189.639 106.579 189.566 106.579 189.487V160.686C107.619 162.094 108.754 163.437 109.819 164.729C111.076 166.256 112.369 167.712 113.739 169.088V195.215C113.739 195.279 113.754 195.331 113.776 195.38C113.765 195.507 113.864 195.602 114.129 195.63C114.265 195.661 114.422 195.662 114.583 195.64H210.269C210.751 195.816 211.599 195.555 211.708 195.116C211.871 194.93 211.914 194.747 211.722 194.652V23.0381C211.93 22.7924 211.919 22.5522 211.406 22.532C211.192 22.4495 210.904 22.4556 210.637 22.5271H115.073C114.546 22.4385 113.736 22.7404 113.736 23.1573V63.2867ZM45.4439 112.61C45.5307 112.682 45.667 112.737 45.873 112.759C47.0551 112.892 48.0772 115.08 48.7269 116.471C48.8771 116.792 49.0073 117.071 49.1151 117.272C50.3138 119.51 51.5767 121.688 53.2601 123.599C53.2467 123.644 53.2418 123.69 53.2552 123.742C53.3487 124.09 54.0223 123.972 54.2491 123.909C55.1214 123.665 56.3384 123.446 57.034 124.196C57.8158 125.039 56.3996 126.275 55.7706 126.778C55.2351 126.662 54.4533 126.96 54.4698 127.453C54.5231 129.045 54.8018 130.597 55.081 132.152C55.2372 133.022 55.3935 133.892 55.5108 134.772C56.1606 139.652 52.3481 141.446 48.2905 142.654C44.5257 143.775 42.791 146.585 44.3344 150.261C42.8675 149.738 41.3204 149.371 40.1272 149.088C39.7339 148.995 39.379 148.911 39.0782 148.833C35.6343 147.948 32.1079 147.286 28.584 146.8C28.5473 146.795 28.499 146.798 28.4464 146.804C28.418 145.655 28.3291 144.506 28.2439 143.405L28.2301 143.226C28.3216 143.182 28.4133 143.138 28.5053 143.094C31.2164 141.793 34.0806 140.419 35.5273 137.715C35.6783 137.748 35.8305 137.781 35.9864 137.793C37.8727 137.969 39.5391 136.699 40.5452 135.246C40.654 135.088 39.0934 135.143 38.8006 135.565C38.0152 136.7 37.3079 137.454 35.9907 136.677C35.9446 136.65 35.9012 136.619 35.8577 136.589C35.8411 136.577 35.8246 136.565 35.8079 136.554C35.7364 136.504 35.6661 136.451 35.6001 136.394C35.0163 135.902 34.6202 135.199 34.3824 134.485C34.0964 133.626 34.1929 132.609 34.5285 131.784C35.0609 130.48 36.3599 130.639 37.5176 130.851C37.6032 130.865 37.6949 130.867 37.7859 130.865C37.9669 131.45 39.5354 131.085 39.5409 130.525C39.5447 130.072 39.5539 129.614 39.5631 129.155C39.6416 125.252 39.7224 121.228 36.5127 118.517C38.2764 117.792 39.7395 116.617 41.2002 115.444L41.2451 115.408L41.9016 115.148L44.0227 113.368C44.2226 113.244 44.4261 113.127 44.6327 113.013C44.6816 112.987 44.7311 112.961 44.7806 112.936C44.9983 112.822 45.2177 112.711 45.4439 112.61ZM35.3941 117.732L37.1576 117.032C36.6111 117.333 36.0328 117.583 35.421 117.776C35.4051 117.751 35.3941 117.732 35.3941 117.732ZM115.693 62.4303C115.669 62.4537 115.646 62.4774 115.623 62.5012C115.585 62.5394 115.548 62.5778 115.509 62.6155C115.509 60.2982 115.509 57.9797 115.508 55.663V23.5828H209.936V194.586H115.508V170.775C116.398 171.578 117.321 172.354 118.295 173.088C126.442 179.229 135.583 184.543 145.326 187.701C145.362 187.711 145.398 187.717 145.436 187.723C145.592 187.772 145.781 187.781 146.003 187.722C150.916 186.427 155.72 184.926 160.369 182.863C166.138 180.305 172.585 177.178 177.361 173.008C179.627 171.03 181.711 168.81 183.674 166.489C185.326 164.536 186.892 162.515 188.396 160.491C189.664 158.785 190.903 157.019 192.062 155.196C194.423 151.477 196.442 147.516 197.64 143.316C197.643 143.305 197.646 143.297 197.649 143.286C197.65 143.281 197.65 143.276 197.652 143.272C197.673 143.217 197.694 143.162 197.695 143.1L198.893 72.7032C198.904 71.9709 197.815 71.9709 197.327 72.3902C197.067 72.3879 196.807 72.3743 196.55 72.3607L196.517 72.359C193.364 72.1811 190.476 71.1451 187.836 69.5594C181.622 65.8283 176.769 59.0745 173 53.3775C172.991 53.3628 172.977 53.3549 172.965 53.3427C172.978 53.1813 172.839 53.0609 172.444 53.0609H123.543C122.989 53.0609 122.206 53.6972 122.384 54.0053C122.356 54.0291 122.332 54.0542 122.315 54.0817C120.361 57.0243 118.182 59.9388 115.693 62.4303ZM93.5412 142.773C93.5528 142.704 93.5442 142.646 93.5271 142.594C95.2081 138.883 96.8891 135.173 98.5707 131.464C101.598 131.651 104.639 132.272 107.593 132.911C106.961 134.939 105.937 136.776 104.913 138.613C104.068 140.128 103.224 141.642 102.599 143.265C101.928 142.779 101.273 142.339 100.705 141.957L100.701 141.954C100.526 141.836 100.358 141.724 100.202 141.617C99.7718 141.326 98.7149 141.599 98.4936 142.076C97.3506 144.537 97.9594 146.855 99.6532 148.852C99.0695 149.416 98.8054 150.283 98.6061 151.107C97.7232 150.968 96.8419 150.803 95.9603 150.638C94.063 150.283 92.1642 149.927 90.244 149.838C90.7468 148.729 91.2492 147.62 91.7517 146.512C91.7594 146.494 91.7672 146.477 91.7749 146.46C91.7825 146.444 91.7901 146.427 91.7977 146.41C92.2848 145.335 92.772 144.26 93.2594 143.185C93.403 143.075 93.5143 142.937 93.5412 142.773ZM104.204 131.12C104.238 131.047 104.26 130.969 104.258 130.881C104.121 121.236 104.477 111.601 104.834 101.965C105.176 92.7018 105.519 83.4382 105.422 74.1665C114.232 72.458 120.488 66.0172 125.443 58.7523H168.444C173.825 66.7201 181.01 75.6409 191.457 75.4379C191.278 85.9871 191.1 96.5361 190.921 107.085C190.742 117.634 190.564 128.183 190.385 138.732C190.382 138.922 190.456 139.061 190.572 139.158C190.491 139.215 190.43 139.277 190.409 139.345C184.126 159.361 167.154 174.274 147.515 180.717C131.088 175.456 116.219 163.776 107.284 149.026C107.094 147.286 105.59 145.645 103.906 144.267C103.907 144.263 103.909 144.26 103.911 144.257C103.914 144.253 103.916 144.249 103.917 144.245C104.541 142.127 105.604 140.225 106.668 138.323C107.731 136.421 108.795 134.518 109.419 132.4C109.432 132.357 109.422 132.323 109.403 132.293C109.389 132.209 109.3 132.136 109.092 132.091C107.482 131.743 105.848 131.401 104.204 131.12ZM91.1469 144.042C91.1903 143.838 91.3125 143.709 91.469 143.621L91.4229 143.722C91.3196 143.95 91.216 144.179 91.1132 144.406C91.112 144.285 91.1206 144.165 91.1469 144.042ZM90.0802 146.685C89.9747 146.918 89.8692 147.151 89.7637 147.384C89.675 147.58 89.5863 147.776 89.4977 147.972C89.3809 147.705 89.318 147.422 89.365 147.118C89.4084 146.838 89.6578 146.643 89.9445 146.503C89.9489 146.51 89.9533 146.517 89.9577 146.525C89.9614 146.531 89.9651 146.537 89.9688 146.544C89.9787 146.561 89.9888 146.578 89.9989 146.594C90.0215 146.629 90.0497 146.659 90.0802 146.685ZM79.5383 181.824C79.5362 181.834 79.5342 181.845 79.5322 181.855C79.5308 181.862 79.5294 181.87 79.5279 181.877C79.5255 181.889 79.523 181.901 79.52 181.913L79.5159 181.913L79.5113 181.912C79.5056 181.912 79.4998 181.912 79.4937 181.911C79.5078 181.881 79.5249 181.854 79.5383 181.824ZM99.8005 143.146C101.8 144.584 103.719 146.223 105.031 148.305C106.688 150.937 104.253 153.87 102.316 156.203C102.261 156.27 102.206 156.336 102.152 156.401C101.684 156.256 100.769 156.511 100.619 157C98.0309 165.426 96.839 174.5 96.0969 183.268C96.0474 183.852 96.0001 184.443 95.9524 185.038C95.3189 192.947 94.6248 201.612 88.0832 207.043C82.3107 211.834 75.8244 205.523 71.6407 201.451C71.5471 201.36 71.4546 201.27 71.3633 201.182C71.3006 201.121 71.2385 201.06 71.1769 201.001C71.1468 200.971 71.1168 200.942 71.087 200.914C68.1902 198.11 65.3686 195.226 62.5953 192.302C62.5226 192.226 62.4248 192.177 62.3135 192.147C64.7733 191.4 67.1933 190.498 69.5387 189.477C72.5895 188.151 76.6006 186.207 78.7186 183.24C78.8959 183.417 79.0738 183.595 79.2511 183.772C79.2477 183.813 79.2441 183.854 79.2406 183.896C79.2322 183.991 79.224 184.086 79.2193 184.183C79.1967 184.705 79.7401 184.861 80.2352 184.757C80.5693 185.09 80.9034 185.425 81.2375 185.759C81.4003 185.922 81.5632 186.085 81.7261 186.248C82.036 186.559 83.6399 185.898 83.3985 185.656C82.8864 185.144 82.3746 184.632 81.8625 184.12C81.6001 183.858 81.3377 183.596 81.0751 183.333C81.5059 179.091 84.0127 175.816 86.5323 172.524L86.5331 172.522C86.9839 171.933 87.435 171.344 87.8748 170.748C89.9227 167.975 91.3742 164.804 92.8148 161.658L92.8154 161.657C93.3401 160.511 93.8634 159.368 94.4135 158.249C94.5217 158.029 94.4984 157.862 94.4 157.743C94.0308 156.471 93.4766 155.273 92.9225 154.075C92.4307 153.012 91.939 151.949 91.5766 150.835C92.649 150.988 93.7178 151.189 94.7861 151.389L94.7878 151.39C96.1046 151.637 97.4208 151.884 98.7424 152.042C99.0621 152.08 100.089 151.919 100.187 151.513C100.213 151.408 100.243 151.258 100.279 151.083C100.417 150.397 100.635 149.316 100.978 148.92C101.337 148.762 101.59 148.533 101.423 148.343C100.044 146.774 99.4038 145.023 99.8005 143.146ZM111.922 164.515C111.744 164.306 111.563 164.095 111.381 163.881C109.147 161.27 106.647 158.348 105.454 155.153C105.38 154.95 105.221 154.827 105.029 154.764C105.78 153.794 106.466 152.778 106.888 151.697C115.909 165.489 130.116 176.289 145.726 181.471C145.601 181.673 145.838 181.813 146.378 181.683C146.559 181.741 146.739 181.802 146.92 181.859C147.401 182.01 148.516 181.447 148.306 181.073C168.271 174.36 185.723 159.54 192.158 139.036C192.176 138.976 192.142 138.935 192.078 138.905C192.141 138.814 192.18 138.714 192.181 138.6C192.412 125.009 192.642 111.419 192.873 97.8293C192.88 97.4028 192.887 96.9763 192.894 96.5498C193.015 89.3941 193.137 82.2385 193.258 75.0828C193.269 74.3517 192.184 74.3505 191.696 74.7674C181.939 74.5846 174.971 65.3564 170.002 57.9614C169.995 57.9517 169.986 57.9442 169.977 57.9367C169.974 57.9338 169.97 57.9308 169.967 57.9277C169.98 57.7651 169.841 57.6447 169.446 57.6447H125.529C125.21 57.6447 124.812 57.8568 124.568 58.0971C124.388 58.1612 124.242 58.2462 124.172 58.3513C119.682 65.0893 113.796 72.139 105.408 73.5705C105.284 72.7136 103.61 72.9617 103.62 73.7759C103.621 73.814 103.621 73.8519 103.621 73.8898C103.621 73.9216 103.621 73.9534 103.621 73.9852C103.621 74.0025 103.621 74.0197 103.622 74.037C103.622 74.0618 103.622 74.0866 103.622 74.1115C103.356 74.2882 103.241 74.4514 103.624 74.4385C103.715 83.6583 103.374 92.8705 103.034 102.083C102.68 111.668 102.325 121.253 102.457 130.846C101.306 130.686 100.153 130.57 99.001 130.511L99.0212 130.466C99.0652 130.37 98.7907 130.339 98.4466 130.367C98.6405 120.421 98.8344 110.475 99.0282 100.528C99.0334 100.259 99.0387 99.9889 99.0439 99.7192C99.2358 89.8748 99.4276 80.0303 99.6196 70.186C110.354 70.1224 118.016 62.7194 123.783 54.1654H171.438C177.361 63.0782 185.393 73.3511 197.092 73.0504C196.694 96.4287 196.297 119.807 195.899 143.185C192.787 153.973 184.657 164.289 176.504 171.825C176.434 171.89 176.362 171.953 176.29 172.016L176.289 172.017L176.288 172.018L176.287 172.018C176.243 172.057 176.199 172.095 176.156 172.133C171.929 175.906 166.239 178.627 161.092 181.034C160.88 181.134 160.669 181.232 160.459 181.33L160.265 181.421C155.68 183.564 150.876 185.04 145.998 186.335C136.822 183.307 128.372 178.356 120.577 172.708C117.276 170.317 114.561 167.613 111.922 164.515Z" fill="#340679"/>
<path d="M114.329 63.7262C114.003 63.7164 113.736 63.5874 113.736 63.2867V23.1573C113.736 22.7404 114.546 22.4385 115.073 22.5271H210.637C210.904 22.4556 211.192 22.4495 211.406 22.532C211.919 22.5522 211.93 22.7924 211.722 23.0381V194.652C211.914 194.747 211.871 194.93 211.708 195.116C211.599 195.555 210.751 195.816 210.269 195.64H114.583C114.422 195.662 114.265 195.661 114.129 195.63C113.864 195.602 113.765 195.507 113.776 195.38C113.754 195.331 113.739 195.279 113.739 195.215V169.088C112.369 167.712 111.076 166.256 109.819 164.729C108.754 163.437 107.619 162.094 106.579 160.686V189.487C106.579 189.566 106.532 189.639 106.456 189.704C106.471 189.752 106.481 189.805 106.478 189.867C106.172 197.503 107.24 207.214 116.962 206.91C117.086 206.906 117.189 206.917 117.28 206.935H210.703C210.827 206.89 210.955 206.862 211.078 206.865C221.06 207.102 220.992 195.797 220.946 188.067L220.945 187.784C220.945 187.782 220.943 187.779 220.943 187.779V187.649C220.941 187.207 220.939 186.776 220.94 186.364C220.94 186.356 220.943 186.349 220.943 186.34V28.8628C220.943 28.8531 220.94 28.8476 220.94 28.8366C220.924 21.0142 221.703 7.92345 210.744 8.18385C210.556 8.18996 210.412 8.16001 210.298 8.11355H117.432C117.349 8.1325 117.267 8.14595 117.187 8.14351C107.738 7.84643 106.899 17.5093 107.191 24.8566C107.201 25.1036 107.024 25.3114 106.778 25.4569C106.905 25.5272 106.99 25.6384 106.99 25.8041V67.777C106.98 67.9583 106.937 68.3301 106.836 68.3663C109.614 67.3548 112.093 65.7239 114.329 63.7262Z" fill="white"/>
<path fill-rule="evenodd" clip-rule="evenodd" d="M104.258 130.881C104.26 130.969 104.238 131.047 104.204 131.12C105.848 131.401 107.482 131.743 109.092 132.091C109.3 132.136 109.389 132.209 109.403 132.293C109.422 132.323 109.432 132.357 109.419 132.4C108.795 134.518 107.731 136.421 106.668 138.323C105.604 140.225 104.541 142.127 103.917 144.245C103.916 144.249 103.914 144.253 103.911 144.257C103.909 144.26 103.907 144.263 103.906 144.267C105.59 145.645 107.094 147.286 107.284 149.026C116.219 163.776 131.088 175.456 147.515 180.717C167.154 174.274 184.126 159.361 190.409 139.345C190.43 139.277 190.491 139.215 190.572 139.158C190.456 139.061 190.382 138.922 190.385 138.732C190.564 128.183 190.742 117.634 190.921 107.085C191.1 96.5361 191.278 85.9871 191.457 75.4379C181.01 75.6409 173.825 66.7201 168.444 58.7523H125.443C120.488 66.0172 114.232 72.458 105.422 74.1665C105.519 83.4382 105.176 92.7018 104.834 101.965C104.477 111.601 104.121 121.236 104.258 130.881ZM122.474 145.509C122.474 145.646 122.522 145.748 122.6 145.827C122.55 146.026 122.679 146.185 123.122 146.185H169.171C169.469 146.185 169.817 146.008 170.059 145.791C170.243 145.673 170.37 145.517 170.37 145.334V109.065C170.37 108.479 169.51 108.46 168.985 108.733H164.809C164.81 108.472 164.811 108.207 164.812 107.941C164.859 95.963 164.922 79.7329 149.795 77.9563C142.615 77.114 135.996 80.0438 132.608 86.5012C129.222 92.9551 129.233 100.943 129.242 108.126L129.243 108.733H123.772C123.28 108.733 122.654 109.216 122.596 109.556C122.521 109.644 122.474 109.743 122.474 109.853V145.509Z" fill="white"/>
<path d="M137.492 108.733H157.832L157.833 108.49L157.836 107.99C157.878 100.423 157.958 85.9015 148.678 84.58C137.29 82.958 137.418 99.1652 137.484 107.533C137.487 107.954 137.49 108.355 137.492 108.733Z" fill="white"/>
<path fill-rule="evenodd" clip-rule="evenodd" d="M122.6 145.827C122.522 145.748 122.474 145.646 122.474 145.509V109.853C122.474 109.743 122.521 109.644 122.596 109.556C122.654 109.216 123.28 108.733 123.772 108.733H129.243L129.242 108.126C129.233 100.943 129.222 92.9551 132.608 86.5012C135.996 80.0438 142.615 77.114 149.795 77.9563C164.922 79.7329 164.859 95.963 164.812 107.941C164.811 108.207 164.81 108.472 164.809 108.733H168.985C169.51 108.46 170.37 108.479 170.37 109.065V145.334C170.37 145.517 170.243 145.673 170.059 145.791C169.817 146.008 169.469 146.185 169.171 146.185H123.122C122.679 146.185 122.55 146.026 122.6 145.827ZM135.699 108.733H131.036C131.039 102.322 131.093 95.7251 133.093 89.5752C135.596 81.8709 141.935 78.3469 149.894 79.2816C163.243 80.8482 163.116 96.7789 163.031 107.386C163.027 107.846 163.024 108.295 163.021 108.733H159.626L159.627 108.218C159.648 99.4562 159.684 84.7744 148.696 83.2095C135.636 81.3508 135.678 99.6234 135.698 108.447L135.699 108.733ZM157.832 108.733H137.492C137.49 108.355 137.487 107.954 137.484 107.533C137.418 99.1652 137.29 82.958 148.678 84.58C157.958 85.9015 157.878 100.423 157.836 107.99L157.833 108.49L157.832 108.733ZM124.257 145.033V109.886H129.617C129.833 109.962 130.109 109.956 130.361 109.886H163.39C163.605 109.962 163.881 109.956 164.134 109.886H168.587V145.033H124.257Z" fill="#340679"/>
<path fill-rule="evenodd" clip-rule="evenodd" d="M35.3941 117.732L37.1576 117.032C36.6111 117.333 36.0328 117.583 35.421 117.776C35.4051 117.751 35.3941 117.732 35.3941 117.732ZM115.623 62.5012C115.585 62.5394 115.548 62.5778 115.509 62.6155C115.509 60.2982 115.509 57.9797 115.508 55.663V23.5828H209.936V194.586H115.508V170.775C116.398 171.578 117.321 172.354 118.295 173.088C126.442 179.229 135.583 184.543 145.326 187.701C145.362 187.711 145.398 187.717 145.436 187.723C145.592 187.772 145.781 187.781 146.003 187.722C150.916 186.427 155.72 184.926 160.369 182.863C166.138 180.305 172.585 177.178 177.361 173.008C179.627 171.03 181.711 168.81 183.674 166.489C185.326 164.536 186.892 162.515 188.396 160.491C189.664 158.785 190.903 157.019 192.062 155.196C194.423 151.477 196.442 147.516 197.64 143.316C197.643 143.305 197.646 143.297 197.649 143.286C197.65 143.281 197.65 143.276 197.652 143.272C197.673 143.217 197.694 143.162 197.695 143.1L198.893 72.7032C198.904 71.9709 197.815 71.9709 197.327 72.3902C197.067 72.3879 196.807 72.3743 196.55 72.3607L196.517 72.359C193.364 72.1811 190.476 71.1451 187.836 69.5594C181.622 65.8283 176.769 59.0745 173 53.3775C172.991 53.3628 172.977 53.3549 172.965 53.3427C172.978 53.1813 172.839 53.0609 172.444 53.0609H123.543C122.989 53.0609 122.206 53.6972 122.384 54.0053C122.356 54.0291 122.332 54.0542 122.315 54.0817C120.361 57.0243 118.182 59.9388 115.693 62.4303C115.669 62.4537 115.646 62.4774 115.623 62.5012ZM91.1469 144.042C91.1903 143.838 91.3125 143.709 91.469 143.621L91.4229 143.722C91.3196 143.95 91.216 144.179 91.1132 144.406C91.112 144.285 91.1206 144.165 91.1469 144.042ZM89.7637 147.384L89.4977 147.972C89.3809 147.705 89.318 147.422 89.365 147.118C89.4084 146.838 89.6578 146.643 89.9445 146.503L89.9577 146.525L89.9688 146.544C89.9787 146.561 89.9888 146.578 89.9989 146.594C90.0215 146.629 90.0497 146.659 90.0802 146.685L89.7637 147.384ZM79.5322 181.855L79.5279 181.877C79.5255 181.889 79.523 181.901 79.52 181.913L79.5159 181.913L79.5113 181.912L79.4937 181.911C79.5078 181.881 79.5249 181.854 79.5383 181.824C79.5362 181.834 79.5342 181.845 79.5322 181.855ZM22.2391 65.2121C15.3251 65.2121 9.7002 70.8364 9.7002 77.7504C9.7002 84.6649 15.3251 90.2904 22.2391 90.291H73.8145C80.7291 90.291 86.3539 84.6656 86.3539 77.7504C86.3539 70.8364 80.7291 65.2121 73.8145 65.2121H22.2391ZM22.2391 88.4572C16.3355 88.4572 11.534 83.6539 11.534 77.7504C11.534 71.8486 16.3361 67.0459 22.2391 67.0459H73.8145C79.7181 67.0459 84.5201 71.8492 84.5201 77.7504C84.5201 83.6545 79.7174 88.4572 73.8145 88.4572H22.2391ZM28.5094 78.8842H23.7098C22.5233 78.8842 23.9035 78.059 24.4463 78.0584H28.1041C27.0381 76.9936 25.972 75.9276 24.906 74.8615C24.3724 74.3279 26.0533 73.6463 26.5417 74.1347C27.0437 74.6363 27.5455 75.1382 28.0471 75.64L28.8053 76.3982V72.9348C28.8053 72.2172 30.5914 71.9006 30.5914 72.7698V76.8029L31.5014 75.8933C31.955 75.44 32.4085 74.9867 32.8616 74.5333C33.1947 74.2001 34.9216 74.0259 34.4827 74.4654L32.6849 76.2628L30.8872 78.0603H35.6869C36.8733 78.0603 35.4943 78.8867 34.9497 78.8867H31.2931L32.8919 80.4851L34.4906 82.0836C35.0243 82.6172 33.3433 83.2988 32.8549 82.8104L30.5914 80.5469V84.0103C30.5914 84.7273 28.8053 85.0439 28.8053 84.1759V80.1416L28.2377 80.7092L28.2315 80.7155C27.666 81.2811 27.1005 81.8467 26.535 82.4112C26.2019 82.7456 24.4751 82.9186 24.9139 82.4791L26.7117 80.6817L28.5094 78.8842ZM46.3326 78.8842H41.533C40.3465 78.8842 41.7262 78.059 42.2702 78.0584H45.9274C45.1338 77.2657 44.3405 76.4724 43.5471 75.6789L43.5382 75.67L43.5293 75.6611L42.7299 74.8615C42.1962 74.3279 43.8772 73.6463 44.3656 74.1347C44.8609 74.6297 45.356 75.1249 45.851 75.62L45.8717 75.6407L46.6291 76.3982V72.9348C46.6291 72.2172 48.4152 71.9006 48.4152 72.7698V76.8029L48.9828 76.2353L48.989 76.229C49.5545 75.6634 50.12 75.0978 50.6855 74.5333C51.0186 74.2001 52.7454 74.0259 52.3065 74.4654L50.8698 75.9017L50.8449 75.9267C50.1335 76.6378 49.4222 77.3488 48.7111 78.0603H53.5107C54.6972 78.0603 53.3176 78.8867 52.7735 78.8867H49.1157C49.6488 79.4197 50.1818 79.9524 50.7148 80.4851C51.2478 81.0178 51.7808 81.5506 52.3139 82.0836C52.8475 82.6172 51.1665 83.2988 50.6781 82.8104C50.1753 82.308 49.6728 81.8054 49.1704 81.3028L48.4146 80.5469V84.0103C48.4146 84.7273 46.6285 85.0439 46.6285 84.1759V80.1416C45.8717 80.8984 45.1144 81.6557 44.3583 82.4112C44.0251 82.7456 42.2983 82.9186 42.7372 82.4791L44.5349 80.6817L46.3326 78.8842ZM64.1565 78.8842H59.3568C58.1698 78.8842 59.5494 78.059 60.0946 78.0584H63.7512C62.6852 76.9936 61.6191 75.9276 60.5537 74.8615C60.0201 74.3279 61.701 73.6463 62.1894 74.1347L62.2016 74.1469C62.9513 74.8972 63.7027 75.6492 64.453 76.3982V72.9348C64.453 72.2172 66.2391 71.9006 66.2391 72.7698V76.8029C66.9952 76.0462 67.7526 75.2888 68.5093 74.5333C68.8424 74.2001 70.5693 74.0259 70.1304 74.4654C68.9311 75.6641 67.733 76.8616 66.5343 78.0603H71.3352C72.521 78.0603 71.142 78.8867 70.598 78.8867H66.9402C67.4732 79.4197 68.0062 79.9524 68.5393 80.4851C69.0723 81.0178 69.6053 81.5506 70.1383 82.0836C70.672 82.6172 68.991 83.2988 68.5026 82.8104C67.7477 82.0561 66.9928 81.3012 66.2391 80.5469V84.0103C66.2391 84.7273 64.453 85.0439 64.453 84.1759V80.1404L63.8889 80.7046C63.3198 81.2738 62.7503 81.8434 62.1815 82.4112C61.8484 82.7456 60.1222 82.9186 60.561 82.4791L62.3588 80.6817L64.1565 78.8842ZM43.3087 121.16C42.9169 122.1 44.7 122.085 45.0025 121.361C45.3406 120.55 45.8559 119.802 46.763 119.624C47.1145 119.556 47.5967 119.194 47.4873 118.781C47.3681 118.335 46.7899 118.345 46.439 118.413C44.9726 118.701 43.8699 119.814 43.3087 121.16ZM49.5607 134.52C50.8542 135.01 52.0388 134.941 53.3194 134.457C53.6758 134.321 53.9741 133.843 53.724 133.493C53.4416 133.098 52.8964 133.186 52.5137 133.332C51.8389 133.587 51.2307 133.518 50.5669 133.268C50.1451 133.107 49.5986 133.251 49.3144 133.604C49.0497 133.933 49.161 134.368 49.5607 134.52Z" fill="#340679"/>
<path fill-rule="evenodd" clip-rule="evenodd" d="M141.793 134.386C141.77 134.331 141.76 134.267 141.777 134.189C142.326 131.593 142.877 128.997 143.425 126.402C143.431 126.374 143.443 126.351 143.455 126.324C139.585 124.77 143.684 120.201 146.418 119.863C148.136 119.651 149.888 120.417 150.642 122.047C151.372 123.623 150.861 125.071 149.52 125.953C149.54 125.987 149.556 126.024 149.564 126.064C150.112 128.661 150.662 131.257 151.211 133.853C151.282 134.194 150.891 134.475 150.457 134.595C150.23 134.733 149.965 134.835 149.754 134.835H142.202C141.651 134.834 141.612 134.618 141.793 134.386ZM145.14 125.931C145.271 125.807 145.284 125.689 145.082 125.618C143.864 125.192 143.389 124.3 143.799 123.075C144.113 122.14 145.125 120.912 146.139 120.706C147.351 120.46 148.524 121.775 148.969 122.733C149.516 123.917 149.188 125.221 148.001 125.813C147.798 125.915 147.463 126.241 147.792 126.392C147.783 126.44 147.78 126.487 147.792 126.539L149.332 133.817H143.591L144.052 131.639C144.436 129.826 144.819 128.013 145.203 126.201C145.228 126.087 145.2 125.998 145.14 125.931Z" fill="#340679"/>
<path d="M105.031 148.305C103.719 146.223 101.8 144.584 99.8005 143.146C99.4038 145.023 100.044 146.774 101.423 148.343C101.59 148.533 101.337 148.762 100.978 148.92C100.635 149.316 100.417 150.397 100.279 151.083C100.243 151.258 100.213 151.408 100.187 151.513C100.089 151.919 99.0621 152.08 98.7424 152.042C97.4208 151.884 96.1046 151.637 94.7878 151.39L94.7861 151.389C93.7178 151.189 92.649 150.988 91.5766 150.835C91.939 151.949 92.4307 153.012 92.9225 154.075C93.4766 155.273 94.0308 156.471 94.4 157.743C94.4984 157.862 94.5217 158.029 94.4135 158.249C93.8634 159.368 93.3401 160.511 92.8154 161.657L92.8148 161.658C91.3742 164.804 89.9227 167.975 87.8748 170.748C87.435 171.344 86.9839 171.933 86.5331 172.522L86.5323 172.524C84.0127 175.816 81.5059 179.091 81.0751 183.333L81.8625 184.12C82.3746 184.632 82.8864 185.144 83.3985 185.656C83.6399 185.898 82.036 186.559 81.7261 186.248L81.2375 185.759C80.9034 185.425 80.5693 185.09 80.2352 184.757C79.7401 184.861 79.1967 184.705 79.2193 184.183C79.224 184.086 79.2322 183.991 79.2406 183.896C79.2441 183.854 79.2477 183.813 79.2511 183.772C79.0738 183.595 78.8959 183.417 78.7186 183.24C76.6006 186.207 72.5895 188.151 69.5387 189.477C67.1933 190.498 64.7733 191.4 62.3135 192.147C62.4248 192.177 62.5226 192.226 62.5953 192.302C65.3686 195.226 68.1902 198.11 71.087 200.914L71.1769 201.001L71.3633 201.182L71.6407 201.451C75.8244 205.523 82.3107 211.834 88.0832 207.043C94.6248 201.612 95.3189 192.947 95.9524 185.038C96.0001 184.443 96.0474 183.852 96.0969 183.268C96.839 174.5 98.0309 165.426 100.619 157C100.769 156.511 101.684 156.256 102.152 156.401L102.316 156.203C104.253 153.87 106.688 150.937 105.031 148.305Z" fill="white"/>
<path fill-rule="evenodd" clip-rule="evenodd" d="M45.873 112.759C45.667 112.737 45.5307 112.682 45.4439 112.61C45.2177 112.711 44.9983 112.822 44.7806 112.936C44.7311 112.961 44.6816 112.987 44.6327 113.013C44.4261 113.127 44.2226 113.244 44.0227 113.368L41.9016 115.148L41.2451 115.408L41.2002 115.444C39.7395 116.617 38.2764 117.792 36.5127 118.517C39.7224 121.228 39.6416 125.252 39.5631 129.155C39.5539 129.614 39.5447 130.072 39.5409 130.525C39.5354 131.085 37.9669 131.45 37.7859 130.865C37.6949 130.867 37.6032 130.865 37.5176 130.851C36.3599 130.639 35.0609 130.48 34.5285 131.784C34.1929 132.609 34.0964 133.626 34.3824 134.485C34.6202 135.199 35.0163 135.902 35.6001 136.394C35.6661 136.451 35.7364 136.504 35.8079 136.554C35.8246 136.565 35.8411 136.577 35.8577 136.589C35.9012 136.619 35.9446 136.65 35.9907 136.677C37.3079 137.454 38.0152 136.7 38.8006 135.565C39.0934 135.143 40.654 135.088 40.5452 135.246C39.5391 136.699 37.8727 137.969 35.9864 137.793C35.8305 137.781 35.6783 137.748 35.5273 137.715C34.0806 140.419 31.2164 141.793 28.5053 143.094L28.2301 143.226L28.2439 143.405C28.3291 144.506 28.418 145.655 28.4464 146.804C28.499 146.798 28.5473 146.795 28.584 146.8C32.1079 147.286 35.6343 147.948 39.0782 148.833C39.379 148.911 39.7339 148.995 40.1272 149.088C41.3204 149.371 42.8675 149.738 44.3344 150.261C42.791 146.585 44.5257 143.775 48.2905 142.654C52.3481 141.446 56.1606 139.652 55.5108 134.772C55.3935 133.892 55.2372 133.022 55.081 132.152C54.8018 130.597 54.5231 129.045 54.4698 127.453C54.4533 126.96 55.2351 126.662 55.7706 126.778C56.3996 126.275 57.8158 125.039 57.034 124.196C56.3384 123.446 55.1214 123.665 54.2491 123.909C54.0223 123.972 53.3487 124.09 53.2552 123.742C53.2418 123.69 53.2467 123.644 53.2601 123.599C51.5767 121.688 50.3138 119.51 49.1151 117.272C49.0073 117.071 48.8771 116.792 48.7269 116.471C48.0772 115.08 47.0551 112.892 45.873 112.759ZM49.4165 124.53C49.2251 123.756 48.7838 123.094 48.3309 122.451C47.8449 121.761 46.1645 122.469 46.7141 123.247C47.1028 123.799 47.4806 124.338 47.6462 125.003C47.8584 125.862 49.631 125.39 49.4165 124.53ZM45.0025 121.361C44.7 122.085 42.9169 122.1 43.3087 121.16C43.8699 119.814 44.9726 118.701 46.439 118.413C46.7899 118.345 47.3681 118.335 47.4873 118.781C47.5967 119.194 47.1145 119.556 46.763 119.624C45.8559 119.802 45.3406 120.55 45.0025 121.361ZM53.3194 134.457C52.0388 134.941 50.8542 135.01 49.5607 134.52C49.161 134.368 49.0497 133.933 49.3144 133.604C49.5986 133.251 50.1451 133.107 50.5669 133.268C51.2307 133.518 51.8389 133.587 52.5137 133.332C52.8964 133.186 53.4416 133.098 53.724 133.493C53.9741 133.843 53.6758 134.321 53.3194 134.457Z" fill="white"/>
<path d="M48.3309 122.451C48.7838 123.094 49.2251 123.756 49.4165 124.53C49.631 125.39 47.8584 125.862 47.6462 125.003C47.4806 124.338 47.1028 123.799 46.7141 123.247C46.1645 122.469 47.8449 121.761 48.3309 122.451Z" fill="#340679"/>
<path d="M145.082 125.618C145.284 125.689 145.271 125.807 145.14 125.931C145.2 125.998 145.228 126.087 145.203 126.201C144.819 128.013 144.436 129.826 144.052 131.639L143.591 133.817H149.332L147.792 126.539C147.78 126.487 147.783 126.44 147.792 126.392C147.463 126.241 147.798 125.915 148.001 125.813C149.188 125.221 149.516 123.917 148.969 122.733C148.524 121.775 147.351 120.46 146.139 120.706C145.125 120.912 144.113 122.14 143.799 123.075C143.389 124.3 143.864 125.192 145.082 125.618Z" fill="#A358E7"/>
<path d="M111.922 164.515C114.561 167.613 117.276 170.317 120.577 172.708C128.372 178.356 136.822 183.307 145.998 186.335C150.876 185.04 155.68 183.564 160.265 181.421L160.459 181.33C160.669 181.232 160.88 181.134 161.092 181.034C166.239 178.627 171.929 175.906 176.156 172.133C176.199 172.095 176.243 172.057 176.287 172.018L176.288 172.018L176.289 172.017L176.29 172.016C176.362 171.953 176.434 171.89 176.504 171.825C184.657 164.289 192.787 153.973 195.899 143.185C196.297 119.807 196.694 96.4287 197.092 73.0504C185.393 73.3511 177.361 63.0782 171.438 54.1654H123.783C118.016 62.7194 110.354 70.1224 99.6196 70.186L99.0439 99.7192L99.0282 100.528C98.8344 110.475 98.6405 120.421 98.4466 130.367C98.7907 130.339 99.0652 130.37 99.0212 130.466L99.001 130.511C100.153 130.57 101.306 130.686 102.457 130.846C102.325 121.253 102.68 111.668 103.034 102.083C103.374 92.8705 103.715 83.6583 103.624 74.4385C103.241 74.4514 103.356 74.2882 103.622 74.1115L103.622 74.037L103.621 73.9852L103.621 73.8898C103.621 73.8519 103.621 73.814 103.62 73.7759C103.61 72.9617 105.284 72.7136 105.408 73.5705C113.796 72.139 119.682 65.0893 124.172 58.3513C124.242 58.2462 124.388 58.1612 124.568 58.0971C124.812 57.8568 125.21 57.6447 125.529 57.6447H169.446C169.841 57.6447 169.98 57.7651 169.967 57.9277C169.97 57.9308 169.974 57.9338 169.977 57.9367C169.986 57.9442 169.995 57.9517 170.002 57.9614C174.971 65.3564 181.939 74.5846 191.696 74.7674C192.184 74.3505 193.269 74.3517 193.258 75.0828L192.894 96.5498L192.873 97.8293C192.642 111.419 192.412 125.009 192.181 138.6C192.18 138.714 192.141 138.814 192.078 138.905C192.142 138.935 192.176 138.976 192.158 139.036C185.723 159.54 168.271 174.36 148.306 181.073C148.516 181.447 147.401 182.01 146.92 181.859C146.739 181.802 146.559 181.741 146.378 181.683C145.838 181.813 145.601 181.673 145.726 181.471C130.116 176.289 115.909 165.489 106.888 151.697C106.466 152.778 105.78 153.794 105.029 154.764C105.221 154.827 105.38 154.95 105.454 155.153C106.647 158.348 109.147 161.27 111.381 163.881C111.563 164.095 111.744 164.306 111.922 164.515Z" fill="#FEFDFF"/>
<path d="M161.091 181.035C165.306 178.796 170.793 175.698 176.155 172.135C171.928 175.907 166.238 178.628 161.091 181.035ZM115.508 23.5815C115.508 34.275 115.508 44.9672 115.508 55.6606L115.692 62.4297C118.181 59.9382 120.36 57.0237 122.314 54.0811C122.332 54.0536 122.355 54.0285 122.384 54.0047C122.206 53.6966 122.989 53.0603 123.542 53.0603C139.843 53.0603 156.144 53.0603 172.443 53.0603C172.838 53.0603 172.977 53.1807 172.964 53.3421C172.977 53.3543 172.99 53.3622 172.999 53.3769C176.768 59.0739 181.622 65.8289 187.835 69.5588C190.77 70.6836 194.491 71.7844 196.516 72.3584C196.785 72.3725 197.055 72.3871 197.326 72.3896C197.814 71.9703 198.903 71.9703 198.892 72.7026C198.493 96.1683 198.094 119.633 197.694 143.099C197.693 143.178 197.671 143.248 197.639 143.316C196.441 147.516 194.422 151.477 192.061 155.196C190.048 158.993 187.306 163.077 183.673 166.489C181.71 168.81 179.626 171.03 177.36 173.008C172.584 177.178 166.137 180.305 160.369 182.863C155.719 184.926 150.916 186.427 146.002 187.722C145.781 187.781 145.591 187.772 145.436 187.723C145.398 187.717 145.361 187.711 145.325 187.701C135.583 184.543 126.442 179.229 118.294 173.088C117.32 172.354 116.397 171.578 115.507 170.775C115.507 178.712 115.507 186.649 115.507 194.586C146.983 194.586 178.458 194.586 209.935 194.586C209.935 137.584 209.935 80.5842 209.935 23.5828C178.46 23.5815 146.984 23.5815 115.508 23.5815ZM62.5518 158.85C55.8181 153.988 47.6156 156.057 39.9681 154.225C39.4069 154.09 40.9742 153.393 41.4125 153.499C43.2524 153.939 45.1657 154.136 47.1009 154.258C46.2219 150.933 39.1105 149.84 36.4252 149.22C33.79 148.608 31.1286 148.088 28.4531 147.679C28.4415 149.415 28.2508 151.117 27.6419 152.607C26.0343 156.54 24.3429 160.927 24.4609 165.24C24.6907 173.622 26.1211 181.955 27.4463 190.218C28.8302 198.847 30.4134 207.517 30.9684 216.25C31.2129 220.104 31.6531 225.063 30.2594 229.034V229.309L30.0937 229.5C29.7294 230.417 29.2618 231.274 28.6572 232.046C28.6426 232.065 28.6206 232.084 28.5961 232.103H74.9208L74.8211 231.428C74.4263 231.492 74.0577 231.411 74.035 231.117C73.3217 221.924 70.4891 213.031 70.3638 203.775C70.3607 203.546 70.5851 203.355 70.8736 203.238L69.7831 201.972C66.7702 199.072 63.8398 196.083 60.9632 193.05C60.7975 192.877 60.8305 192.695 60.9656 192.537C60.2571 192.734 59.5469 192.923 58.8335 193.091C58.0254 193.283 57.7027 192.847 58.0682 192.516C58.0004 192.491 57.9411 192.456 57.8989 192.407C54.7643 188.752 53.771 183.583 49.9525 180.488C49.4824 180.107 51.1212 179.413 51.5992 179.801C55.4245 182.903 56.4123 188.067 59.5456 191.721C59.6257 191.814 59.6343 191.912 59.5927 192.005C62.3507 191.3 65.0812 190.394 67.6975 189.293C71.678 187.621 77.5376 185.09 78.3157 180.263C78.3377 180.126 78.4575 180.005 78.6226 179.908C73.9268 172.569 69.7745 164.065 62.5518 158.85ZM48.4848 154.329C48.4805 154.331 48.475 154.334 48.4714 154.335C48.4842 154.336 48.4977 154.336 48.5105 154.337C48.5013 154.335 48.4934 154.332 48.4848 154.329Z" fill="#A358E7"/>
</g>
<defs>
<clipPath id="clip0_702_1056">
<rect width="240" height="240" fill="white" transform="translate(0.5)"/>
</clipPath>
</defs>
</svg>
